<svg xmlns="http://www.w3.org/2000/svg" viewBox="0 0 218.32 32.59"><path fill="#fff" d="M.09.01h32.34c.03.32.07.58.07.85 0 10.05 0 20.11.02 30.16 0 .74-.19.99-.98.97-3.02-.04-6.04-.04-9.06 0-.74.01-.89-.28-.89-.92.01-3.93 0-7.85 0-11.78v-.95c-.44.4-.72.63-.98.89-4.13 4.07-8.26 8.13-12.37 12.21-.44.44-.67.48-1.15.02-2.34-2.26-4.72-4.47-7.1-6.71 4.79-4.72 9.36-9.21 13.93-13.7-.04-.08-.08-.16-.13-.24H.09V.01Zm17.86 9.03c-.24.27-.35.41-.47.53-4.88 4.81-9.76 9.62-14.65 14.42-.33.32-.43.54-.04.91 1.51 1.44 3 2.91 4.48 4.39.36.36.59.32.93-.02 4.48-4.43 8.96-8.85 13.45-13.28.49-.48.99-.95 1.59-1.52v1.05c0 4.7 0 9.41-.01 14.11 0 .59.16.78.77.76 2.05-.05 4.11-.06 6.17-.05.5 0 .72-.09.72-.65-.01-9.08 0-18.16.01-27.24 0-.68-.24-.83-.89-.83-9.09.02-18.17.02-27.26.03h-.93v7.38h16.14ZM41.16.02c2.91 0 5.73-.06 8.54.02 2.96.08 5.93.21 8.88.46 1.73.15 3.36.77 4.79 1.78 2.21 1.57 3.01 3.82 3.02 6.4 0 2.93-1.19 5.22-3.82 6.69-.12.07-.23.16-.42.29.59.29 1.11.53 1.61.81 3 1.66 4.14 4.27 3.89 7.54-.08.98-.28 1.99-.65 2.91-1.12 2.85-3.57 4.1-6.4 4.58-2.41.4-4.88.58-7.33.64-3.8.1-7.61 0-11.42.02-.61 0-.76-.18-.76-.77.02-10.23.03-20.46.04-30.7 0-.19.03-.39.05-.67Zm7.07 26.55c.24.03.41.06.58.06 1.72 0 3.45.05 5.17 0 1.36-.05 2.73-.14 4.07-.36 1.25-.21 2.15-.94 2.51-2.22.76-2.72-.7-5.15-3.54-5.39-2.87-.24-5.77-.14-8.65-.18-.04 0-.08.05-.14.1v7.99Zm.02-13.35c2.7-.11 5.35-.17 8-.34 1.07-.07 2.1-.45 2.72-1.44 1.45-2.3.16-5.38-2.55-5.66-2.66-.28-5.36-.2-8.04-.27-.04 0-.08.05-.13.09v7.62Zm130.37 9.05c-.18 3.24 1.56 5.7 4.95 5.72 1.93 0 3.64-.36 4.67-2.19.09-.15.22-.31.22-.47.05-1.01.67-1.07 1.5-.97 1.66.19 3.32.3 5.12.46-.13.48-.2.86-.34 1.22-1.44 3.85-4.39 5.87-8.39 6.34-2.3.27-4.66.29-6.92-.48-3.51-1.19-5.72-3.61-6.74-7.07-.86-2.9-.82-5.83.02-8.73 1.18-4.07 4.66-6.9 8.97-7.36 1.83-.2 3.65-.17 5.44.24 4.45 1.03 6.93 3.94 7.87 8.2.32 1.43.31 2.92.47 4.39.07.63-.19.82-.82.81-4.97-.05-9.95-.07-14.92-.1h-1.1Zm10.15-4.38c-.13-1.86-.67-3.48-2.43-4.19-2.65-1.07-6.62-.91-7.61 3.33-.15.63-.03.86.67.85 2.81-.02 5.63 0 8.44 0h.93Zm-53.12 4.38c.02 3.56 1.52 5.15 3.93 5.63 3.01.59 5.21-.68 6.23-3.64 1.95.18 3.91.36 5.87.55.55.05.38.39.28.72-.89 2.87-2.69 4.97-5.54 6.08-3.28 1.28-6.68 1.28-9.98.25-4.08-1.28-6.27-4.32-7.02-8.38-.46-2.49-.37-4.98.37-7.42 1.24-4.09 4.69-6.87 9-7.32 1.81-.19 3.6-.17 5.37.24 4.47 1.03 6.97 3.96 7.88 8.27.29 1.38.29 2.83.45 4.24.07.64-.12.88-.82.87-3.7-.05-7.4-.06-11.11-.08h-4.9Zm10.07-4.42c.05-.1.09-.15.08-.19-.35-2.48-1.74-4.53-4.91-4.45-2.85.07-4.34 1.09-5.09 3.67-.26.89-.17 1.02.76 1.02h8.45c.25 0 .49-.02.71-.03Zm-51.75 4.4c-.45.03-.78.07-1.1.07-4.74-.02-9.49-.04-14.23-.05-2.01 0-2.04.05-1.55 1.98.62 2.38 2.17 3.63 4.67 3.73 1.59.06 3.13-.08 4.23-1.39.4-.48.61-1.13.95-1.67.15-.23.42-.56.62-.55 1.89.1 3.78.26 5.81.41-.11.48-.15.87-.29 1.23-1.61 4.12-4.77 6.15-9.13 6.43-2.17.14-4.37.19-6.46-.61-4.15-1.58-6.31-4.7-6.89-8.94-.33-2.42-.26-4.85.57-7.19 1.47-4.12 4.51-6.34 8.81-6.94 2.52-.36 5.02-.19 7.39.83 3.55 1.52 5.35 4.39 6.03 8.01.29 1.51.37 3.06.56 4.67ZM87 17.82c-.09-2.74-1.77-4.45-3.9-4.6-3.65-.26-5.58 1.01-6.16 4.6H87Zm122.51-3.3c-3.06 0-5.97-.03-8.88.01-2.06.03-2.06.08-2.06-1.9 0-.92 0-1.85-.03-2.77 0-.44.09-.67.63-.67 6.06.03 12.12.03 18.19.03.02 0 .04.02.16.07 0 1.39.02 2.83-.02 4.27 0 .25-.27.53-.47.74-3.79 4.04-7.59 8.06-11.38 12.1-.06.06-.1.15-.24.36h.84c3.75 0 7.51 0 11.26-.03.65 0 .83.2.81.81-.04 1.15 0 2.3 0 3.45 0 1.12 0 1.13-1.12 1.13l-15.22.03c-1.17 0-2.33-.03-3.5 0-.51 0-.73-.13-.72-.67.04-1.25-.03-2.5.06-3.75.03-.45.28-.97.6-1.31 3.47-3.75 6.97-7.47 10.47-11.2.2-.21.39-.44.63-.71ZM105.46 2.97v6.24c1.28 0 2.49.05 3.69-.02.73-.04.91.22.89.89-.05 1.15-.03 2.3 0 3.45.01.54-.15.76-.74.74-1.24-.04-2.48-.01-3.84-.01v10.65c0 1.1.35 1.57 1.48 1.69.92.1 1.86.02 2.95.02.03 1.66.08 3.3.06 4.94 0 .18-.32.51-.52.53-2.15.26-4.32.38-6.41-.29-2.81-.9-4.04-2.71-4.07-5.81-.03-3.45-.02-6.9-.02-10.36v-1.37c-.94 0-1.79-.02-2.65 0-.5.02-.73-.1-.72-.66.04-1.44.01-2.89.01-4.42.97 0 1.82-.02 2.67 0 .53.02.7-.17.69-.69-.03-1.82-.01-3.65-.01-5.54h6.51Zm21.32 6.24c0 1.57-.01 3.01 0 4.46 0 .48-.22.58-.66.58-1.09-.01-2.18.03-3.27 0-.51-.01-.65.18-.65.65.01 3.4.02 6.8 0 10.21 0 .81.41 1.36 1.15 1.44 1.09.12 2.2.03 3.42.03v2.78c0 .7.05 1.41-.03 2.1-.02.23-.33.6-.54.62-2.2.24-4.41.37-6.55-.35-2.55-.86-3.83-2.55-3.87-5.22-.05-3.58-.03-7.15-.07-10.73-.01-1.51-.04-1.51-1.56-1.51q-1.8 0-1.82-1.79c0-.88 0-1.75-.02-2.63-.02-.48.15-.69.66-.67.66.03 1.32-.04 1.98.02.59.05.75-.18.74-.72-.02-1.63.01-3.25-.02-4.88-.01-.57.17-.74.73-.73 1.7.03 3.4.03 5.1 0 .54 0 .71.18.7.69-.02 1.65.01 3.3-.02 4.95 0 .53.16.7.69.69 1.26-.03 2.53 0 3.89 0Zm36.1 3.68c.07-.11.18-.24.26-.38 1.18-2.31 3.18-3.41 5.69-3.75.45-.06.91-.07 1.36-.15.66-.11.93.11.88.79-.08 1.17-.1 2.35-.14 3.52-.02.47 0 .95 0 1.49h-1.65c-3.79 0-6.08 2.04-6.23 5.79-.13 3.2-.04 6.4-.03 9.6 0 2.14.02 2.14-2.11 2.15-1.24 0-2.49 0-3.73.05-.62.02-.84-.16-.83-.8.02-6.6.02-13.2.03-19.81 0-.71-.17-1.66.21-2.07.33-.36 1.33-.12 2.04-.12 1.22-.01 2.44.01 3.65-.02.47-.01.63.14.61.6-.03 1.03 0 2.06 0 3.1Z"/></svg>