<svg xmlns="http://www.w3.org/2000/svg" viewBox="0 0 196.36 30.3"><path fill="#fff" d="M61.51.35c4.51.42 7.85 2.63 10.02 6.55.44.8.68 1.7 1 2.56.08.22.09.4-.22.5-1.85.58-3.7 1.18-5.55 1.78-.08.02-.16.03-.24.04-.2-.51-.37-1.02-.61-1.5-1.12-2.2-2.98-3.4-5.39-3.75-2.87-.41-5.38.36-7.41 2.44-1.43 1.46-2.08 3.28-2.27 5.26-.22 2.24.23 4.33 1.56 6.19 1.2 1.69 2.87 2.71 4.89 3.14 2.33.5 4.56.21 6.57-1.13 1.33-.89 2.24-2.12 2.74-3.63.12-.37.25-.47.66-.34 1.76.53 3.52 1.03 5.3 1.51.38.1.47.26.35.62-1.58 4.72-4.61 7.97-9.58 9.18-3.34.82-6.66.66-9.89-.53-4.09-1.51-6.89-4.36-8.37-8.39-1.56-4.25-1.47-8.51.54-12.63 1.58-3.24 4.08-5.59 7.45-6.94 1.33-.53 2.72-.84 4.19-.95 1.22-.09 2.13-.18 4.26.01Zm125.98-.1c.73.15 1.55.28 2.35.5 3.09.88 5.05 2.91 6.03 5.9.1.29.2.59.26.89.02.11-.09.32-.17.34-1.76.52-3.53 1.01-5.29 1.51-.24.07-.35 0-.41-.24-.66-2.69-3.2-3.51-5.38-3.27-.86.09-1.64.4-2.29.97-1.62 1.41-1.28 3.68.73 4.44.95.36 2 .49 3.01.71 1.63.36 3.31.55 4.85 1.23 2.6 1.15 4.38 3.03 4.96 5.83.77 3.71-.41 6.81-3.35 9.19-1.39 1.12-3.08 1.64-4.86 1.86-2.02.25-4.04.16-6-.37-3.76-1.02-6.29-3.37-7.5-7.07-.14-.42-.2-.87-.3-1.3-.06-.26.01-.4.32-.47 1.76-.41 3.52-.83 5.28-1.27.32-.08.32.08.36.31.3 1.79 1.2 3.21 2.91 3.95 1.88.81 3.84 1.01 5.71-.03 1.92-1.07 1.89-3.44 0-4.57-.8-.48-1.7-.62-2.6-.79-1.77-.35-3.59-.52-5.28-1.21-3.24-1.33-5.32-3.65-5.68-7.16-.3-2.92.78-5.4 2.99-7.38 1.45-1.3 3.19-1.98 5.07-2.38.31-.07.46-.1.99-.13.61-.04 2.66-.07 3.29 0Zm-39.13 14.93V1.03c0-.21.07-.3.26-.32.23-.01.46-.02.69-.02h9.94c1.68 0 3.36.17 4.92.86 2.87 1.27 4.36 3.51 4.53 6.61.12 2.1-.53 3.96-1.74 5.66-.86 1.21-2.06 1.9-3.46 2.3-2.27.64-4.59.76-6.93.68-.29 0-.36-.13-.36-.4v-3.73c0-.31.14-.39.42-.39.83-.02 1.66-.02 2.49-.1.48-.05.96-.2 1.4-.4 1.24-.55 1.91-1.63 1.79-2.82-.14-1.44-.94-2.41-2.36-2.69-.79-.16-1.62-.18-2.44-.21-.78-.03-1.55.02-2.33 0-.39-.01-.48.12-.47.49v22.78c0 .24-.09.34-.33.34-1.87 0-3.74-.01-5.6-.01-.29 0-.42-.08-.42-.42.01-4.69 0-9.38 0-14.07Z"/><path fill="#fff" d="M156.29 24.44c1.1 0 2.19.02 3.28 0 1.59-.03 2.88-.88 3.35-2.16.5-1.35.05-2.91-1.12-3.92-.11-.09-.21-.19-.4-.35.61-.11 1.13-.19 1.64-.3 1.33-.27 2.6-.71 3.67-1.59.19-.16.34-.13.5.02 1.39 1.34 2.27 2.92 2.4 4.87.17 2.39-.68 4.43-2.3 6.16-1.2 1.28-2.76 1.96-4.47 2.26-2.07.37-4.16.26-6.24.22-.19 0-.37-.01-.37-.3.01-1.58.01-3.16.01-4.74 0-.04.02-.08.06-.17Zm-60.64-9.22c-.01 1.83-1.49 3.28-3.34 3.27-1.76 0-3.27-1.55-3.26-3.33.01-1.75 1.57-3.27 3.35-3.25 1.8.01 3.26 1.51 3.25 3.32Zm-33.22 0c-.01 1.83-1.49 3.28-3.34 3.27-1.76 0-3.27-1.55-3.26-3.33.01-1.75 1.57-3.27 3.35-3.25 1.8.01 3.26 1.51 3.25 3.32Zm-26.52 0c-.01 1.83-1.49 3.28-3.34 3.27-1.76 0-3.27-1.55-3.26-3.33.01-1.75 1.57-3.27 3.35-3.25 1.8.01 3.26 1.51 3.25 3.32Zm-14.46.16c-.01 1.83-1.49 3.28-3.34 3.27-1.76 0-3.27-1.55-3.26-3.33.01-1.75 1.57-3.27 3.35-3.25 1.8.01 3.26 1.51 3.25 3.32Zm-14.85 0c-.01 1.83-1.49 3.28-3.34 3.27C1.5 18.64-.01 17.1 0 15.32c.01-1.75 1.57-3.27 3.35-3.25 1.8.01 3.26 1.51 3.25 3.32Zm123.91-.15c-.01 1.88-1.48 3.29-3.41 3.27-1.75-.01-3.28-1.58-3.27-3.34.01-1.79 1.58-3.3 3.41-3.29 1.8 0 3.29 1.54 3.27 3.36Z"/><path fill="#fff" d="M92.35 30.29c-8.35 0-15.14-6.79-15.14-15.14S84 0 92.35 0s15.14 6.79 15.14 15.14-6.79 15.14-15.14 15.14Zm0-24.06c-4.92 0-8.92 4-8.92 8.92s4 8.92 8.92 8.92 8.92-4 8.92-8.92-4-8.92-8.92-8.92Zm34.83 24.06c-8.35 0-15.14-6.79-15.14-15.14S118.83 0 127.18 0s15.14 6.79 15.14 15.14-6.79 15.14-15.14 15.14Zm0-24.06c-4.92 0-8.92 4-8.92 8.92s4 8.92 8.92 8.92 8.92-4 8.92-8.92-4-8.92-8.92-8.92Z"/></svg>