<svg xmlns="http://www.w3.org/2000/svg" fill="#fff" viewBox="0 0 274.27 52.45"><path d="M64.38 27.64c0-1.85.33-3.65.98-5.41q.99-2.625 2.88-4.77c1.27-1.43 2.81-2.57 4.62-3.43 1.81-.85 3.87-1.28 6.15-1.28 2.73 0 5.1.6 7.09 1.8 2 1.2 3.46 2.77 4.41 4.71l-4.39 3.07c-.5-1.13-1.16-2-1.97-2.64s-1.68-1.1-2.61-1.39q-1.41-.42-2.7-.42c-1.45 0-2.71.29-3.79.88-1.07.59-1.97 1.35-2.68 2.32-.71.95-1.25 2.02-1.61 3.19-.36 1.18-.55 2.37-.55 3.57 0 1.29.21 2.55.62 3.76.42 1.22 1.02 2.29 1.78 3.23s1.68 1.68 2.76 2.23c1.07.55 2.25.82 3.54.82.9 0 1.81-.15 2.76-.46s1.82-.8 2.63-1.47c.81-.68 1.46-1.55 1.97-2.64l4.69 2.77c-.61 1.49-1.58 2.74-2.91 3.78-1.32 1.04-2.81 1.82-4.44 2.36s-3.26.8-4.87.8c-2.12 0-4.05-.44-5.8-1.32s-3.26-2.06-4.54-3.53a16.4 16.4 0 0 1-2.99-4.96c-.71-1.84-1.07-3.69-1.07-5.57h.01Zm40.01 15.6c-1.78 0-3.39-.31-4.8-.92s-2.61-1.44-3.62-2.49a10.55 10.55 0 0 1-2.28-3.59c-.51-1.34-.78-2.76-.78-4.26s.26-3 .78-4.37a10.5 10.5 0 0 1 2.26-3.59c.99-1.04 2.2-1.86 3.62-2.46s3.02-.9 4.77-.9 3.42.29 4.83.9c1.41.6 2.61 1.41 3.62 2.46 1.01 1.04 1.77 2.24 2.31 3.59.52 1.35.8 2.82.8 4.37s-.26 2.92-.8 4.26a11 11 0 0 1-5.93 6.08c-1.41.61-3 .92-4.8.92h.01Zm-5.73-11.27c0 1.23.25 2.35.75 3.34s1.19 1.76 2.08 2.31c.87.55 1.85.82 2.91.82s2.02-.28 2.88-.84c.86-.57 1.55-1.33 2.08-2.31.51-.97.78-2.1.78-3.36s-.26-2.35-.78-3.32c-.51-.97-1.2-1.75-2.08-2.31-.86-.57-1.85-.84-2.93-.84s-2.02.28-2.88.84c-.86.57-1.55 1.33-2.05 2.31-.5.97-.75 2.1-.75 3.36Zm31.09 11.27c-1.78 0-3.39-.31-4.8-.92a11 11 0 0 1-3.62-2.49c-1.01-1.05-1.77-2.25-2.28-3.59s-.78-2.76-.78-4.26.26-3 .78-4.37a10.5 10.5 0 0 1 2.26-3.59c.99-1.04 2.2-1.86 3.62-2.46s3.02-.9 4.77-.9 3.42.29 4.83.9 2.61 1.41 3.62 2.46c1.01 1.04 1.77 2.24 2.31 3.59.52 1.35.8 2.82.8 4.37s-.26 2.92-.8 4.26a11 11 0 0 1-5.93 6.08c-1.41.61-3 .92-4.8.92h.01Zm-5.74-11.27c0 1.23.25 2.35.75 3.34s1.19 1.76 2.08 2.31c.87.55 1.85.82 2.91.82s2.02-.28 2.88-.84c.86-.57 1.55-1.33 2.08-2.31.51-.97.78-2.1.78-3.36s-.26-2.35-.78-3.32c-.51-.97-1.2-1.75-2.08-2.31-.86-.57-1.85-.84-2.93-.84s-2.02.28-2.88.84c-.86.57-1.55 1.33-2.05 2.31s-.75 2.1-.75 3.36Zm34.11 11.27c-1.7 0-3.21-.39-4.52-1.17s-2.33-1.8-3.06-3.08v12.77h-5.56V20.98h4.89v3.78c.84-1.28 1.9-2.28 3.18-3.02s2.75-1.1 4.39-1.1c1.47 0 2.84.29 4.08.87 1.25.58 2.33 1.4 3.27 2.44s1.65 2.24 2.15 3.59.75 2.8.75 4.33c0 2.11-.42 4.02-1.23 5.74s-1.96 3.08-3.39 4.1c-1.44 1.02-3.09 1.52-4.96 1.52h.01Zm-1.88-4.79c.84 0 1.61-.17 2.33-.54.71-.36 1.32-.84 1.82-1.44s.9-1.31 1.17-2.12.42-1.64.42-2.49-.14-1.72-.44-2.49c-.29-.79-.72-1.46-1.28-2.04a6.5 6.5 0 0 0-1.94-1.37c-.74-.33-1.55-.49-2.45-.49-.5 0-1.03.09-1.57.26s-1.07.43-1.57.75-.94.7-1.3 1.13-.66.91-.87 1.45v5.11c.36.8.83 1.52 1.4 2.17a6.2 6.2 0 0 0 1.99 1.54c.75.37 1.52.56 2.31.56Zm13.35-10.81c0-1.85.33-3.65.98-5.41q.99-2.625 2.88-4.77c1.27-1.43 2.81-2.57 4.62-3.43 1.81-.85 3.87-1.28 6.15-1.28 2.73 0 5.1.6 7.09 1.8 2 1.2 3.46 2.77 4.41 4.71l-4.39 3.07c-.5-1.13-1.16-2-1.97-2.64s-1.68-1.1-2.61-1.39q-1.41-.42-2.7-.42c-1.45 0-2.71.29-3.79.88-1.07.59-1.97 1.35-2.68 2.32-.71.95-1.25 2.02-1.61 3.19-.36 1.18-.55 2.37-.55 3.57 0 1.29.21 2.55.62 3.76a10.6 10.6 0 0 0 1.78 3.23c.76.94 1.68 1.68 2.76 2.23 1.07.55 2.25.82 3.54.82.9 0 1.81-.15 2.76-.46s1.82-.8 2.63-1.47 1.46-1.55 1.97-2.64l4.69 2.77c-.61 1.49-1.58 2.74-2.91 3.78s-2.81 1.82-4.44 2.36-3.26.8-4.87.8c-2.12 0-4.05-.44-5.8-1.32s-3.26-2.06-4.54-3.53a16.6 16.6 0 0 1-2.99-4.96c-.71-1.84-1.07-3.69-1.07-5.57h.01Zm29.18 19.47c.5.11.97.21 1.4.27.44.07.8.12 1.11.14.52 0 .97-.13 1.32-.39s.69-.73 1.03-1.41.69-1.63 1.05-2.84L196.02 21h5.81l5.9 16.16L212.92 21h5.35l-9.21 26.23c-.34.97-.84 1.86-1.53 2.65a7.3 7.3 0 0 1-2.53 1.88c-1.01.46-2.15.69-3.43.69-.45 0-.9-.03-1.34-.11-.45-.07-.94-.21-1.46-.4V47.1h.01Zm30.7-3.87c-1.81 0-3.43-.29-4.83-.9-1.41-.6-2.61-1.43-3.62-2.49a11.46 11.46 0 0 1-3.11-7.92c0-2.02.46-3.89 1.38-5.62.92-1.72 2.25-3.09 3.98-4.12s3.78-1.54 6.15-1.54 4.4.52 6.11 1.55c1.7 1.04 2.96 2.39 3.77 4.08l-5.44 1.68c-.47-.81-1.1-1.43-1.88-1.87-.79-.44-1.66-.66-2.63-.66-1.04 0-1.98.27-2.84.81s-1.55 1.29-2.08 2.25c-.51.96-.78 2.11-.78 3.42s.26 2.39.78 3.39c.51.99 1.2 1.76 2.08 2.31.86.55 1.82.82 2.88.82.7 0 1.34-.11 1.92-.34.59-.22 1.13-.54 1.61-.95.49-.4.84-.85 1.07-1.32l5.44 1.68a8.8 8.8 0 0 1-2.2 2.94c-.96.87-2.1 1.55-3.39 2.04-1.3.49-2.75.73-4.37.73v.02Zm11.79-31.11h5.6v23.66c0 1.04.16 1.74.5 2.09s.78.52 1.34.52c.5 0 .98-.05 1.44-.16s.87-.26 1.23-.46l.75 4.33c-.75.36-1.63.64-2.61.84-.99.2-1.9.29-2.74.29-1.76 0-3.11-.47-4.08-1.41q-1.44-1.41-1.44-3.99V12.13h-.01Zm21.56 31.11c-1.76 0-3.34-.29-4.77-.9-1.42-.6-2.63-1.41-3.64-2.46a11 11 0 0 1-2.31-3.55c-.54-1.33-.8-2.75-.8-4.28 0-2.05.47-3.94 1.4-5.68.94-1.74 2.26-3.11 3.98-4.16 1.72-1.04 3.77-1.56 6.17-1.56s4.4.52 6.11 1.56c1.7 1.04 3.02 2.4 3.93 4.1.92 1.69 1.38 3.54 1.38 5.54 0 .36-.01.7-.04 1.02s-.05.59-.09.81h-16.91c.09 1.15.39 2.13.94 2.94s1.25 1.43 2.1 1.87q1.275.66 2.7.66c1.15 0 2.21-.27 3.2-.82s1.67-1.28 2.03-2.21l4.77 1.34c-.5 1.13-1.25 2.12-2.22 2.98-.97.87-2.13 1.55-3.47 2.04s-2.83.73-4.48.73zm-5.74-13.08h11.47c-.11-1.09-.43-2.04-.94-2.85s-1.19-1.44-2.03-1.89-1.77-.68-2.81-.68-1.92.23-2.74.68-1.5 1.08-2.01 1.89-.83 1.76-.94 2.85M25.72 33.57c1.31 0 2.39.98 2.56 2.26.96-.24 1.86-.62 2.69-1.13-.79-1.02-.71-2.48.21-3.41.93-.93 2.38-1.01 3.4-.21.49-.83.87-1.74 1.11-2.71-1.27-.15-2.25-1.25-2.25-2.57s.98-2.4 2.25-2.57c-.24-.96-.62-1.87-1.11-2.71a2.57 2.57 0 0 1-3.4-.21c-.93-.93-.99-2.39-.21-3.41-.83-.49-1.74-.87-2.69-1.13-.15 1.28-1.23 2.26-2.56 2.26s-2.39-.98-2.56-2.26c-.96.24-1.86.62-2.69 1.13.79 1.02.71 2.48-.21 3.41-.93.93-2.38 1.01-3.4.21-.49.83-.87 1.74-1.11 2.71 1.27.15 2.25 1.25 2.25 2.57s-.98 2.4-2.25 2.57c.24.96.62 1.87 1.11 2.71a2.57 2.57 0 0 1 3.4.21c.93.93.99 2.39.21 3.41.83.49 1.74.87 2.69 1.13a2.56 2.56 0 0 1 2.56-2.26m-3.86-7.74c0-2.14 1.73-3.88 3.86-3.88s3.86 1.74 3.86 3.88-1.73 3.88-3.86 3.88-3.86-1.74-3.86-3.88"/><path d="M46.29 25.83c0 5.29-2.01 10.58-6.03 14.62-8.03 8.07-21.06 8.07-29.09 0s-8.03-21.16 0-29.22c4.02-4.03 9.29-6.05 14.54-6.05V0C19.13 0 12.55 2.52 7.53 7.57c-10.04 10.08-10.04 26.45 0 36.53s26.32 10.08 36.37 0c5.03-5.05 7.53-11.66 7.53-18.27h-5.15z"/><path d="M28.29 7.75h-2.57c-4.81 0-9.33 1.88-12.73 5.3a18.08 18.08 0 0 0-5.27 12.78h3.85c0-3.64 1.38-7.28 4.14-10.05 5.53-5.55 14.48-5.55 20 0 5.53 5.55 5.53 14.54 0 20.09a14.08 14.08 0 0 1-10 4.16v3.87c4.61 0 9.22-1.76 12.73-5.29 3.4-3.42 5.28-7.95 5.28-12.78v-2.58h2.41c-.55-4.4-2.5-8.65-5.87-12.03a20.4 20.4 0 0 0-11.97-5.89v2.43h-.01Z"/></svg>