<svg xmlns="http://www.w3.org/2000/svg" viewBox="0 0 307.86 29.03"><path fill="#fff" fill-rule="evenodd" d="M0 .84h19.51v3.93h-4.29V24.1h13.59v-7.71h3.83v11.47H.22l.04-3.5h4.8V4.98H.15zm56.55 14.94-4.44-9.96-4.39 9.96h8.84Zm96.16 0-4.44-9.96-4.39 9.96h8.84ZM94.11.68h14.03l16.45 22.09V4.78h-4.55V.71h12.87v4.14h-3.93v22.83h-12.72L102.78 9.29v14.65h4.14v3.83H94.41V24h4.19V5h-4.47V.68Zm174.95.38h14.03l16.45 22.09V5.16h-4.55V1.08h12.87v4.14h-3.93v22.83h-12.72L277.72 9.66v14.65h4.14v3.83h-12.52v-3.77h4.19v-19h-4.48V1.06Zm-66.53.36v9.45h-3.93s-1.51-7.02-7.76-6.77c-6.26.26-9.07 5.26-8.94 10.11s2.81 10.27 9.07 10.27 8.76-4.68 8.76-4.68l3.42 2.71s-3.88 6.51-14.61 6.51-18.34-6.05-18.34-14.74S178.57 0 186.75 0s10.78 2.55 10.78 2.55.36-1.79 5.01-1.12Zm4.12-.61h19.69v4.03h-4.55V24h4.55v3.78h-19.62v-3.84h4.55V4.78h-4.63V.81Zm33.5 13.54c0 11.49 7.77 10.73 7.77 10.73s7.79.38 7.79-10.6-7.54-9.98-7.54-9.98-8.02-1.64-8.02 9.85m-104.04 9.67L146.42.56h9.96l10.06 23.32h4.91v3.91h-19.87v-3.78h4.55l-1.74-4.7h-11.9l-2.2 4.8h4.19v3.68h-12.56v-3.76h4.29ZM248.17.04s18.96 0 18.96 14.94-19.47 13.98-19.47 13.98-19.01 1.47-19.01-14.62c0-14.93 19.52-14.3 19.52-14.3M39.95 24.02 50.26.56h9.96l10.06 23.32h4.9v3.91H55.31v-3.78h4.55l-1.74-4.7h-11.9l-2.2 4.8h4.19v3.68H35.65v-3.76h4.29Z"/></svg>