<svg xmlns="http://www.w3.org/2000/svg" fill="#fff" viewBox="0 0 119.98 34.07"><path d="M68.21 12.47V8.7h3.94v24.74h-3.9v-3.45l-.19-.14c-.03.09-.04.2-.09.28-2.68 4.61-9.33 5.08-13.05 1.92-2.11-1.79-3.32-4.11-3.88-6.76-.84-4-.66-7.94 1.22-11.65 1.46-2.89 3.73-4.87 7.04-5.29 3.65-.46 6.69.63 8.72 3.89.03.04.07.08.2.23Zm.2 8.6c-.04-2.12-.31-4.26-1.5-6.17-1.32-2.13-3.24-3.18-5.75-3.06-2.41.12-4.08 1.39-5.16 3.5-.82 1.6-1.11 3.33-1.18 5.1-.08 2.19.14 4.34 1.09 6.35 1.27 2.69 3.68 4.04 6.59 3.61 2.59-.38 4.17-2.03 5.1-4.38.62-1.56.79-3.21.81-4.95ZM0 8.69h3.89v3.63c.17-.19.24-.26.29-.33 1.49-2.34 3.67-3.54 6.4-3.69 1.13-.06 2.3.04 3.4.27 1.98.42 3.36 1.68 4.21 3.51.65 1.39.96 2.86.98 4.37.05 3.37.05 6.73.06 10.1v6.89h-3.95v-.62c0-4.53.03-9.06-.02-13.59-.01-1.31-.11-2.64-.39-3.91-.47-2.15-1.81-3.2-4-3.41-3.18-.3-5.54 1.2-6.41 4.27-.35 1.23-.51 2.55-.53 3.84-.06 4.26-.02 8.51-.02 12.77v.64H0V8.69Zm29.56-.03h4.1c.35 0 .36.25.43.46 1.39 4.15 2.78 8.29 4.17 12.44.61 1.83 1.23 3.66 1.84 5.49.05.15.12.3.23.57.19-.57.35-1.01.5-1.46 1.89-5.64 3.78-11.27 5.65-16.92.16-.48.38-.61.86-.6 1.11.04 2.22.01 3.4.01-.06.2-.1.36-.15.51-2.83 7.95-5.67 15.9-8.5 23.85-.12.34-.27.48-.65.47-.85-.03-1.71-.03-2.56 0-.38.01-.53-.13-.65-.47-2.68-7.55-5.38-15.1-8.07-22.64-.19-.54-.38-1.09-.6-1.71Zm90.42 3.03C106.84 13.6 98.05 20.61 94 33.38c-.1-.12-.22-.25-.34-.38-.72-.87-1.41-1.77-2.15-2.61-.46-.52-.56-1.04-.4-1.7 1.72-7.15 5.7-12.68 11.95-16.53 3.83-2.36 8.03-3.56 12.53-3.76.86-.04 1.62.19 2.28.74.87.71 1.52 1.6 2.11 2.55ZM26.25 33.45h-3.79V8.68h3.79v24.76Zm55.13-14.74c1.13.11 2.27.19 3.39.34 1.58.21 3.13.56 4.58 1.24.8.37 1.54.83 2.06 1.56.11.15.18.43.12.59-.69 1.72-1.42 3.43-2.14 5.14-2.45-3.03-4.92-6.19-8.06-8.72.02-.05.03-.1.05-.16ZM22.46 5.04V0h3.79v5.04h-3.79Z"/></svg>