<svg xmlns="http://www.w3.org/2000/svg" viewBox="0 0 87.86 85.91"><path fill="#fff" fill-rule="evenodd" d="M74.49 46.34v2.2h.5v-.97h.14c.41 0 .41.09.5.48.05.18.05.35.14.48h.54c-.09-.18-.14-.4-.18-.66-.05-.31-.14-.35-.27-.44.09-.04.45-.13.45-.53 0-.22-.09-.44-.41-.53-.14-.04-.32-.04-.54-.04h-.86ZM43.91 0c12.11 0 23.1 4.8 31.07 12.59 7.93 7.75 12.88 18.48 12.88 30.37s-4.91 22.58-12.88 30.37c-7.93 7.75-18.91 12.59-31.07 12.59s-23.1-4.8-31.07-12.59C4.91 65.49 0 54.79 0 42.91s4.91-22.58 12.88-30.37C20.81 4.8 31.79 0 43.91 0M73.9 13.64c7.66 7.48 12.43 17.82 12.43 29.27S81.6 64.69 73.9 72.18c-7.7 7.48-18.24 12.15-29.95 12.15S21.66 79.71 14 72.18C6.3 64.7 1.57 54.36 1.57 42.91S6.3 21.12 13.96 13.64s18.28-12.1 29.95-12.1S66.2 6.16 73.9 13.64m1.08 33.05h.23c.27 0 .32 0 .41.04.14.04.14.18.14.22 0 .26-.27.26-.45.26h-.27v-.53H75Zm2.21.75c0 1.01-.81 1.8-1.89 1.8-.99 0-1.89-.75-1.89-1.85s.86-1.85 1.89-1.85c1.08.04 1.89.88 1.89 1.89Zm-.27 0c0 .88-.72 1.58-1.62 1.58s-1.62-.7-1.62-1.58.72-1.58 1.62-1.58 1.62.75 1.62 1.58m-14.1-11.13c-2.97 2.38-6.3 3.48-6.3 6.12 0 2.02 1.35 3.34 3.42 3.34 1.13 0 2.88-.62 2.88-3.39zM29.9 23.94H16.93c-.68 0-1.08.62-1.08 1.06s.18.66.54.92c.27.22.59.57.54 1.06-.18 6.43 0 12.67 0 19.1 0 1.28-1.08 1.1-1.08 2.07 0 .62.54 1.01 1.08 1.01h8.11c.5 0 1.08-.4 1.08-1.01 0-1.01-1.08-.84-1.08-2.02v-4.49c.99.92 3.69 1.41 5.18 1.32 4.1-.18 6.85-3.34 7.03-7.31 3.02 3.74 7.52 3.52 9.73 5.28 2.43 1.94 1.44 5.37-2.52 5.77-1.98.18-4.68-.13-7.16-2.33-.36-.31-.72-.7-1.4-.62-.41.09-.9.53-.99.92-.18.75.23 1.06.72 1.58 2.21 2.2 6.08 3.39 9.55 3.34 4.1-.04 6.12-.97 7.7-2.55.95.97 2.43 2.33 4.95 2.29 2.52 0 4.05-.88 4.95-1.72v.66c0 .4.32.84.9.84h7.21c.45 0 1.08-.31 1.08-1.01 0-.97-1.08-.79-1.08-1.89V30.37c0-3.21-3.15-6.69-9.73-6.95-3.92-.18-6.21 1.06-8.29 2.46-2.48-1.54-4.55-2.46-8.87-2.38-4.37.09-6.17 1.41-7.88 3.39-1.35-2.07-3.69-2.95-6.21-2.95Zm-4.86 4.23v9.02c0 1.1.95 2.11 2.25 2.11 2.75-.04 3.42-4 3.47-6.56 0-1.8-.95-6.16-3.87-6.16-1.04 0-1.85.57-1.85 1.58Zm29.45-.4c-.54.31-1.04.66-1.53 1.01-1.89-1.41-3.92-2.51-6.39-2.16-1.98.26-3.96 1.54-3.65 3.74.36 2.6 3.65 3.26 5.76 3.87 1.44.4 2.57.7 3.87 1.45l.36.22.36-.22c1.44-.84 2.93-1.19 4.32-1.58 2.12-.57 5.18-1.28 5.36-3.87.09-1.28-.68-2.42-1.85-2.99-1.58-.84-3.2-.79-4.77-.31-.5.18-.99.35-1.44.62-.09.04-.23.13-.41.22ZM15.85 55.94v6.51c11.3-5.33 20.9-4.05 31.66-1.67 7.48 1.67 16.57 1.58 24.5-.62v-5.63c-9.55 2.29-16.53 2.6-23.37.79-11.44-2.95-21.98-3.65-32.78.62Z"/></svg>