<?xml version="1.0" encoding="UTF-8"?>
<svg id="Capa_1" data-name="Capa 1" xmlns="http://www.w3.org/2000/svg" viewBox="0 0 486.91 466.79">
  <defs>
    <style>
      .cls-1, .cls-2 {
        fill: #fff;
      }

      .cls-3 {
        fill: #6843e1;
      }

      .cls-4, .cls-5 {
        fill: #24ffe1;
      }

      .cls-6, .cls-7, .cls-8, .cls-2, .cls-9 {
        stroke: #1a2e35;
        stroke-linecap: round;
        stroke-linejoin: round;
      }

      .cls-6, .cls-9 {
        fill: none;
      }

      .cls-7, .cls-10 {
        fill: #1a2e35;
      }

      .cls-5 {
        stroke: #000;
        stroke-miterlimit: 10;
      }

      .cls-11 {
        fill: #6743df;
      }

      .cls-8 {
        fill: #b5b5b5;
      }

      .cls-9 {
        stroke-dasharray: 0 3;
      }

      .cls-12 {
        fill: #f1f1f1;
      }
    </style>
  </defs>
  <g>
    <path class="cls-11" d="m312.95,18.01s-82.81-36.33-159.42,8.39C76.9,71.13,42.52,167.32,12.66,244.23c-29.86,76.91-5.36,158.59,57.46,199.09,62.82,40.5,100.95-10.97,185.94-8.25,84.99,2.73,108.65,17.37,176.27-30.35,67.62-47.72,73.24-170.11,12.22-264.77-61.02-94.66-131.6-121.94-131.6-121.94Z"/>
    <path class="cls-12" d="m312.95,18.01s-82.81-36.33-159.42,8.39C76.9,71.13,42.52,167.32,12.66,244.23c-29.86,76.91-5.36,158.59,57.46,199.09,62.82,40.5,100.95-10.97,185.94-8.25,84.99,2.73,108.65,17.37,176.27-30.35,67.62-47.72,73.24-170.11,12.22-264.77-61.02-94.66-131.6-121.94-131.6-121.94Z"/>
  </g>
  <g>
    <polyline class="cls-6" points="353.66 130.06 245.35 71.58 349.12 35.62"/>
    <g>
      <circle class="cls-6" cx="128.84" cy="74.61" r="16.22" transform="translate(-13.63 31.37) rotate(-13.19)"/>
      <circle class="cls-6" cx="124.78" cy="382.16" r="11.49" transform="translate(-223.9 182.08) rotate(-42.07)"/>
      <circle class="cls-6" cx="159" cy="454.8" r="11.49" transform="translate(-103.25 50.63) rotate(-13.71)"/>
      <circle class="cls-6" cx="363.39" cy="134.09" r="9.46"/>
      <circle class="cls-6" cx="366.09" cy="28.65" r="17.57"/>
      <circle class="cls-6" cx="354.6" cy="388.24" r="12.17"/>
      <circle class="cls-6" cx="35.85" cy="120.57" r="8.11"/>
      <circle class="cls-6" cx="103.79" cy="302.49" r="8.11"/>
      <circle class="cls-6" cx="20.89" cy="305.43" r="13.94" transform="translate(-209.86 104.23) rotate(-45)"/>
      <path class="cls-6" d="m432.33,319.29c0-3.36-2.72-6.08-6.08-6.08s-6.08,2.72-6.08,6.08,2.72,6.08,6.08,6.08,6.08-2.72,6.08-6.08Z"/>
      <line class="cls-6" x1="145.06" y1="74.61" x2="245.35" y2="71.58"/>
      <polyline class="cls-6" points="38.27 128.68 75.79 241.15 30.91 294.24"/>
      <line class="cls-6" x1="136.63" y1="385.69" x2="245.35" y2="410.72"/>
      <line class="cls-6" x1="344.13" y1="392.95" x2="245.35" y2="410.72"/>
      <circle class="cls-6" cx="431.11" cy="127.08" r="15.86"/>
      <polyline class="cls-6" points="426.51 142.43 412.23 240.39 424.56 312.69"/>
      <line class="cls-6" x1="169.38" y1="448.17" x2="245.35" y2="410.72"/>
      <line class="cls-6" x1="75.79" y1="241.15" x2="100.55" y2="293.72"/>
    </g>
  </g>
  <g>
    <line class="cls-6" x1="245.35" y1="108.9" x2="245.35" y2="373.57"/>
    <circle class="cls-7" cx="245.35" cy="71.58" r="36.47" transform="translate(87.12 272.29) rotate(-68.01)"/>
    <circle class="cls-7" cx="245.35" cy="410.72" r="36.47" transform="translate(-227.36 484.46) rotate(-68.01)"/>
  </g>
  <g>
    <line class="cls-6" x1="377.61" y1="241.15" x2="112.94" y2="241.15"/>
    <circle class="cls-7" cx="414.92" cy="241.15" r="36.47" transform="translate(-48.99 364.03) rotate(-45)"/>
    <circle class="cls-7" cx="75.79" cy="241.15" r="36.47" transform="translate(-52.75 23.49) rotate(-13.12)"/>
  </g>
  <g>
    <g>
      <path class="cls-5" d="m249.69,398.88s-2.86,1.21-4.69,4.87c-1.83,3.66-3.4,28.49-3.4,28.49l-20.74,6.5-.43,5.97,33.44-.18-4.19-45.63Z"/>
      <path class="cls-5" d="m250.08,443.26c.19-5.33-2.43-18.36-2.43-20.44,0-1.68,1.86-6,2.07-10.13.34-6.48-.81-13.19-.03-13.81,1.27-1.02,16.22-5.38,16.22-5.38l25.59.21s9.92,1.48,12.59,5.3c2.37,3.38-5.46,36.93-7.26,44.26h-46.75Z"/>
      <path class="cls-5" d="m300.95,397.02s4.26.85,5.54,5.75c1.28,4.9-1.28,37.29-2.13,39-.85,1.7-3.41,4.26-7.88,4.26s-38.78-2.56-38.78-2.56l1.07-7.88,29.2-4.9s.64-16.84,2.13-20.03"/>
      <path class="cls-2" d="m258.76,435.59s-8.31-4.26-10.44-4.05c-2.13.21-7.67,4.26-8.1,5.11-.43.85-.43,3.41,0,4.05s2.77-1.28,2.77-1.28c0,0,4.26-1.28,4.9-1.07s3.84,3.2,5.97,3.2h4.48l.43-5.97Z"/>
      <path class="cls-2" d="m220.87,438.73s-8.31-4.26-10.44-4.05c-2.13.21-7.67,4.26-8.1,5.11-.43.85-.43,3.41,0,4.05.43.64,2.77-1.28,2.77-1.28,0,0,4.26-1.28,4.9-1.07s3.84,3.2,5.97,3.2h4.48l.43-5.97Z"/>
      <g>
        <path class="cls-7" d="m265.11,350.36s2.89-2.02,6.8-1.32c3.91.7,6.99,3.65,6.99,3.65,0,0,2.62.46,4.14,4.5s-.46,10.87-.46,10.87l-1.33,6.23s4.92,2.36,5.15,5.58c.23,3.22-1.26,3.75-1.26,3.75,0,0,3.23.82,3.66,3.21.43,2.39-2.39,3.34-2.39,3.34,0,0-4.38,1.59-7.47-1.37-3.09-2.96-3.38-11.8-3.38-11.8l-9.08-17.02-10.56,6.32-1.12.64s-6.48-.29-6.58-3.71c0-.21,0-.42,0-.63.12-2.34,1.39-4.46,3.26-5.86,1.44-1.08,2.71-3.26,3.84-4.4,1.71-1.72,6.67-1.06,6.67-1.06l3.09-.91Z"/>
        <path class="cls-2" d="m278.49,374.08s-.25,6.38,1.79,10.33c2.04,3.94,7.15,6.89,7.15,6.89,0,0,4.05,1.81,4.08,2.42.02.61-5.58,3.84-14.53,4.5s-14.43-.9-15.94-1.95l-.81-1.08s4.42-1.33,5-2.05l.57-.72-.68-4.72s9.97-8.15,13.38-13.61Z"/>
        <polygon class="cls-7" points="272.22 386.44 266.42 393.59 265.12 387.69 272.22 386.44"/>
        <path class="cls-2" d="m255.46,363.11s-.69,1.53-.46,4.75c.23,3.22.08,7.21,1.26,10.34,1.18,3.13,1.22,5.24,5.3,8.81,4.08,3.57,7.08,1.18,8.31.69,1.23-.49,5.06-3.65,6.81-5.64,1.75-1.99,2.03-5.3,2.03-5.3l.35-1.47,1.57,1.39s1.68-.92,2.22-2.34c.53-1.42,1.51-6.7-.66-7.98-2.17-1.28-2.63,2.94-2.63,2.94l-1.11.2s-3.48-8-7.63-11.47c-4.15-3.47-9.13-2.3-11.58-.27-2.45,2.03-3.78,5.35-3.78,5.35Z"/>
        <path class="cls-6" d="m261.31,376.4s-.19.91,1.01,1.22c1.2.31,2.79-.15,2.79-.15"/>
        <path class="cls-6" d="m269.05,380.28s-4.08,2.24-6.92,1.17"/>
      </g>
      <path class="cls-10" d="m259.97,371.8c0,.95-.42,1.72-.95,1.72s-.95-.77-.95-1.72.42-1.72.95-1.72.95.77.95,1.72Z"/>
      <path class="cls-10" d="m268.37,372.09c0,.95-.42,1.72-.95,1.72s-.95-.77-.95-1.72.42-1.72.95-1.72.95.77.95,1.72Z"/>
      <path class="cls-6" d="m256.77,368.31s1.66-1.89,4.26-.47"/>
      <path class="cls-6" d="m264.94,367.95s2.96-1.78,5.09.47"/>
      <path class="cls-7" d="m263.64,356.12s6.15.83,7.1,3.91c.95,3.08.35,6.04,4.38,7.34,4.02,1.3,4.26-.83,4.26-.83,0,0-1.42-7.81-7.22-10.3-5.8-2.49-7.57-1.07-8.52-.12Z"/>
    </g>
    <g>
      <g>
        <rect class="cls-2" x="214.38" y="442.61" width="52.97" height="2.11" transform="translate(481.74 887.33) rotate(180)"/>
        <polygon class="cls-2" points="195.08 444.72 242.53 444.72 235.99 410.12 188.55 410.12 195.08 444.72"/>
      </g>
      <ellipse class="cls-2" cx="214.66" cy="430.36" rx="4.24" ry="4.32" transform="translate(-62.81 37.55) rotate(-8.73)"/>
    </g>
  </g>
  <g>
    <g>
      <g>
        <path class="cls-5" d="m409.24,223.23s-2.86,1.21-4.69,4.87c-1.83,3.66-4.58,31.14-4.58,31.14l-20.74,6.5-.43,5.97,33.44-.18-3.01-48.29Z"/>
        <path class="cls-5" d="m408.45,270.27c.19-5.33.25-20.19.25-22.27,0-4.32-.73-23.76.55-24.77,1.27-1.02,20.94-4.53,20.94-4.53l19.69,2.02s7.92,1.53,10.59,5.34c2.37,3.38-3.46,36.89-5.26,44.21h-46.75Z"/>
        <g>
          <polygon class="cls-2" points="423.58 209.42 421.48 222.03 439.76 219.62 439.69 206.25 423.58 209.42"/>
          <path class="cls-5" d="m439.47,212.95s-12.07,3.71-16.15,2.68c-1.15-.29-2.23-.62-2.7.56-.59,1.48.04,3.19.37,4.66.34,1.56.02,3.36,1.06,4.67.99,1.25,2.73,1.69,4.24,1.77,6.36.34,15.13-2.78,15.3-5.88.17-3.1.13-9.91-2.12-8.47Z"/>
          <path class="cls-7" d="m415.93,177.34s-2.1,3.15-3.44,5.39c-1.34,2.24-4.57-.7-4.88,2.01-.31,2.7,1.93,5.59,3.56,6.43,1.63.83,3.19.97,3.19.97,0,0-4.47.42-3.22,1.71,1.25,1.29,3.87,3.72,6.46,4.32,2.59.6,22.25,1.58,23.76,1.16s.83,5.84,1.63,5.34c.8-.5,2.41-1.35,3.95-4.45,1.54-3.1.76-5.42.34-5.38-.42.04,2.12-1.47,2.05-3.71s-2.22-2.61-2.22-2.61c0,0,2.57-5.59-2.44-11.04-5.02-5.44-10.24-4.11-10.24-4.11,0,0-11.49-6.95-18.49,3.98Z"/>
          <path class="cls-2" d="m428.69,181.79s-.98,1.1-1.38,4.33c-.4,3.22-1.98,5.39-5.03,6.07-3.05.67-4.67-.03-4.67-.03,0,0-1.05,1.26-1.04,2.97,0,1.71.57,4.45.3,4.01-.27-.44.92,4.81,1.77,8.15.86,3.34,2.88,5.87,6.93,7.67,4.05,1.8,6.76-.01,9.57-2.37,2.81-2.36,4.54-6.33,4.54-6.33,0,0,.97.38,2.28-.6,1.31-.98,1.65-3.11,2.46-6.06.81-2.95.02-4.74-1.15-4.79-1.17-.05-2.15,1.91-2.35,2.24s-.42-1.98-.42-1.98l-.24-2.54s-5.69-1.8-6.92-5.03c-1.23-3.23-.64-6-1.69-6.45s-1.68,1.17-1.68,1.17l-1.28-.42Z"/>
          <path class="cls-6" d="m434.34,190.76s-2.42-1.57-4.62.55"/>
          <path class="cls-6" d="m429.36,196.82s1.58-2.93,5.37-1.02"/>
          <path class="cls-6" d="m423.12,197.41s-1.09-2.79-4.42-.93"/>
          <path class="cls-10" d="m432.44,196.74c.05.56-.27,1.06-.72,1.1-.45.04-.86-.38-.91-.95-.05-.56.27-1.06.72-1.1.45-.04.86.38.91.95Z"/>
          <path class="cls-10" d="m421.84,197.01c.05.56-.27,1.06-.72,1.1-.45.04-.86-.38-.91-.95-.05-.56.27-1.06.72-1.1.45-.04.86.38.91.95Z"/>
          <path class="cls-2" d="m431.6,205.61s-2.85,1.11-5.04.96c-2.19-.15-3.08-.63-3.08-.63"/>
          <path class="cls-6" d="m424.88,200.76s-.17,1.21,1.21,1.65c1.38.43,1.84.11,2.26-.63"/>
        </g>
      </g>
      <path class="cls-5" d="m457.32,224.07s4.26.85,5.54,5.75c1.28,4.9.73,37.25-.13,38.95-.85,1.7-3.41,4.26-7.88,4.26s-38.78-2.56-38.78-2.56l1.07-7.88,29.2-4.9s.64-16.84,2.13-20.03"/>
      <path class="cls-2" d="m417.13,262.6s-8.31-4.26-10.44-4.05-7.67,4.26-8.1,5.11-.43,3.41,0,4.05c.43.64,2.77-1.28,2.77-1.28,0,0,4.26-1.28,4.9-1.07s3.84,3.2,5.97,3.2h4.48l.43-5.97Z"/>
      <path class="cls-2" d="m379.24,265.74s-8.31-4.26-10.44-4.05-7.67,4.26-8.1,5.11-.43,3.41,0,4.05c.43.64,2.77-1.28,2.77-1.28,0,0,4.26-1.28,4.9-1.07.64.21,3.84,3.2,5.97,3.2h4.48l.43-5.97Z"/>
    </g>
    <g>
      <g>
        <rect class="cls-2" x="372.75" y="269.62" width="52.97" height="2.11" transform="translate(798.48 541.35) rotate(180)"/>
        <polygon class="cls-2" points="353.45 271.73 400.9 271.73 394.36 237.13 346.92 237.13 353.45 271.73"/>
      </g>
      <path class="cls-2" d="m368.84,258.02c.36,2.36,2.53,3.98,4.85,3.62,2.31-.36,3.9-2.55,3.53-4.91-.36-2.36-2.53-3.98-4.85-3.62-2.31.36-3.9,2.55-3.53,4.91Z"/>
    </g>
  </g>
  <g>
    <g>
      <g>
        <path class="cls-5" d="m266.1,50.28s2.86,1.21,4.69,4.87,3.4,28.49,3.4,28.49l20.74,6.5.43,5.97-33.44-.18,4.19-45.63Z"/>
        <path class="cls-4" d="m265.71,94.66c-.19-5.33-.25-20.19-.25-22.27,0-4.32,1.91-21.1.64-22.12-1.27-1.02-16.22-5.38-16.22-5.38l-25.6.21s-13.6,4.9-16.27,8.71c-2.37,3.38,9.14,33.52,10.94,40.84h46.75Z"/>
        <polygon class="cls-7" points="238.97 51.75 244.01 58.64 240.93 94.73 248.44 94.73 245.99 58.86 248.63 49.39 235.65 50.05 238.97 51.75"/>
      </g>
      <path class="cls-5" d="m211.16,51.83s-4.26.85-5.54,5.75c-1.28,4.9.08,33.88.94,35.58.85,1.7,3.41,4.26,7.88,4.26s43.66-2.56,43.66-2.56l-1.07-7.88-33.99-6.05s-.33-13.33.11-19.49"/>
      <path class="cls-8" d="m257.03,86.99s8.31-4.26,10.44-4.05c2.13.21,7.67,4.26,8.1,5.11.43.85.43,3.41,0,4.05-.43.64-2.77-1.28-2.77-1.28,0,0-4.26-1.28-4.9-1.07-.64.21-3.84,3.2-5.97,3.2h-4.48l-.43-5.97Z"/>
      <path class="cls-8" d="m294.92,90.13s8.31-4.26,10.44-4.05c2.13.21,7.67,4.26,8.1,5.11.43.85.43,3.41,0,4.05-.43.64-2.77-1.28-2.77-1.28,0,0-4.26-1.28-4.9-1.07-.64.21-3.84,3.2-5.97,3.2h-4.48l-.43-5.97Z"/>
      <g>
        <path class="cls-7" d="m253.99,6.02s3.36,1.86,3.6,4.08c.24,2.22-1.44,3-1.44,3,0,0,2.16,1.38,2.04,4.08-.12,2.7-2.34,2.88-2.34,2.88,0,0,.06,1.38-.72,2.22-.78.84-1.14.72-1.14.72l-.48.84-.84,1.14s-.42.54-.6.3c-.18-.24-.54-1.08-.54-1.08,0,0,.66-4.98-.84-6.9s-11.81-3.84-11.81-3.84l-7.32,4.74-1.26,6.54-2.76-1.08-.72-2.58s-.84.84-.96-3.06c-.12-3.9.78-5.46.78-5.46,0,0-.24-2.1.9-4.26,1.14-2.16,3.3-2.46,3.3-2.46,0,0,2.1-2.94,3.84-3.12,1.74-.18,2.34.12,2.34.12,0,0,4.02-3.36,7.5-2.04s3.36,2.88,3.42,3.12,4.86-1.92,5.88,2.58"/>
        <path class="cls-8" d="m231.1,34.59s-.18,8.2.07,8.93c.25.74,13.51,11.25,13.51,11.25l4.88-8.79-.61-9.93-17.84-1.45Z"/>
        <path class="cls-8" d="m252.56,17.04s.28,12.99-.84,16.55c-1.12,3.55-5.52,6.92-8.41,7.39-2.9.47-10.99-4.23-12.21-6.38-1.22-2.15-1.35-4.74-1.35-4.74l.09-12.43s4.21-5.52,8.69-6.17c4.49-.65,12.81,1.31,14.02,5.8Z"/>
        <path class="cls-8" d="m229.75,22.08s-2.1-1.62-2.88-.42c-.78,1.2-.6,5.76,0,6.84.6,1.08,2.94,0,2.94,0l-.18-2.1.12-4.32Z"/>
        <path class="cls-8" d="m252.6,22.52s2.23-.9,2.53,1.19c.29,2.09-.65,4.6-.65,4.6l-2.17,2.16.3-7.94Z"/>
        <path class="cls-10" d="m246.66,23.65c0,.6.4,1.08.9,1.08s.9-.48.9-1.08-.4-1.08-.9-1.08-.9.48-.9,1.08Z"/>
        <ellipse class="cls-10" cx="237.28" cy="23.39" rx=".9" ry="1.08"/>
        <path class="cls-6" d="m244.89,19.73s1.83-.58,3.03-.39c1.2.19,1.83,1.11,1.83,1.11"/>
        <path class="cls-6" d="m239.17,19.58s-1.4-1.11-3.08-.58c-1.69.53-2.12,1.4-2.12,1.4"/>
        <path class="cls-6" d="m245.77,26.77s.12,1.02-.54,1.5c-.66.48-1.8.18-1.8.18,0,0-.42.18-1.08.3s-1.86-.48-1.86-.48c0,0-.78.6-1.32.24s-.66-1.74-.3-2.4"/>
        <path class="cls-6" d="m244.15,34.93s-1.8.78-4.02.12"/>
        <path class="cls-6" d="m237.67,31.14s2.86,1.17,5.34.98c2.47-.2,3.58-1.43,3.58-1.43"/>
      </g>
    </g>
    <g>
      <g>
        <rect class="cls-2" x="248.44" y="94.01" width="52.97" height="2.11"/>
        <polygon class="cls-2" points="320.71 96.12 273.27 96.12 279.8 61.52 327.24 61.52 320.71 96.12"/>
      </g>
      <path class="cls-2" d="m305.32,82.41c-.36,2.36-2.53,3.98-4.85,3.62-2.31-.36-3.9-2.55-3.53-4.91.36-2.36,2.53-3.98,4.85-3.62,2.31.36,3.9,2.55,3.53,4.91Z"/>
    </g>
    <path class="cls-5" d="m243.85,53.24s-2.91-5.74-3.45-6.55c-.54-.81-11.73-7.35-11.73-7.35l-2.7,5.4,11.14,9.39,1.86-2.38,1.63-.95-.14,2.03,4.07,2.58-.68-2.17Z"/>
    <path class="cls-5" d="m244.53,55.41l.72-9.69,4.7-5.77s1.09-.68,1.36.27c.27.95,1.36,5.7,1.36,5.7l-3.12,6.51-2.85-2.03.41,2.31-2.58,2.71Z"/>
  </g>
  <g>
    <g>
      <g>
        <path class="cls-7" d="m50.32,178.17s-6.9.94-9.41,5.56c-2.51,4.62-1.1,11.13-.63,13.56.47,2.43-3.53,5.41-4.7,9.09-1.18,3.68.71,4,.55,6.11-.16,2.12-4.08,3.37-5.41,7.37-1.33,4,1.57,6.11,1.49,6.35s48.91,0,48.91,0c0,0-4.15-5.09-4.31-7.05s1.8-1.8,1.41-6.82c-.39-5.02-4.62-8.54-5.33-10.35-.71-1.8,1.49-6.98.24-11.21s-4.23-8.15-7.05-10.11-9.25-8.7-15.75-2.51Z"/>
        <path class="cls-5" d="m85.37,225.89s2.86,1.21,4.69,4.87c1.83,3.66,3.4,28.49,3.4,28.49l20.74,6.5.43,5.97-33.44-.18,4.19-45.63Z"/>
        <path class="cls-5" d="m84.98,270.27c-.19-5.33-.25-20.19-.25-22.27,0-4.32,1.91-21.1.64-22.12-1.27-1.02-16.22-5.38-16.22-5.38l-25.6.21s-9.92,1.48-12.59,5.3c-2.37,3.38,5.46,36.93,7.26,44.26h46.75Z"/>
        <path class="cls-2" d="m48.95,207.82s.85,5.39.11,8.46-5.5,4.44-5.5,4.44c0,0,21.15,19.57,21.89,18.3.74-1.27,4.23-12.27,4.12-14.7s-.42-3.81-.42-3.81c0,0-3.07-1.8-4.02-3.49-.95-1.69-1.27-6.45-1.27-6.45l-14.91-2.75Z"/>
        <g>
          <path class="cls-2" d="m55.41,181.3s1.08,1.01,1.78,4.18,2.48,5.18,5.57,5.57,4.64-.46,4.64-.46c0,0,1.16,1.16,1.32,2.86.15,1.7-.15,4.49.08,4.02.23-.46-.46,4.87-1.01,8.28s-2.32,6.11-6.19,8.28c-3.87,2.17-6.73.62-9.75-1.47-3.02-2.09-5.11-5.88-5.11-5.88,0,0-.93.46-2.32-.39-1.39-.85-1.93-2.94-3.02-5.8-1.08-2.86-.46-4.72.7-4.87,1.16-.15,2.32,1.7,2.55,2.01.23.31.23-2.01.23-2.01v-2.55s5.49-2.32,6.42-5.65.08-6.04,1.08-6.58c1.01-.54,1.78,1.01,1.78,1.01l1.24-.54Z"/>
          <circle class="cls-6" cx="52.62" cy="196.15" r="4.49"/>
          <path class="cls-6" d="m68.95,196.15c0,2.48-2.01,4.49-4.49,4.49s-4.49-2.01-4.49-4.49,2.01-4.49,4.49-4.49,4.49,2.01,4.49,4.49Z"/>
          <path class="cls-6" d="m57.07,195.24s1.35-1.52,2.87.03"/>
          <line class="cls-6" x1="47.89" y1="195.26" x2="43.1" y2="195.8"/>
          <path class="cls-2" d="m54.73,205.29s2.94.84,5.11.49c2.17-.35,3.01-.91,3.01-.91"/>
          <path class="cls-6" d="m60.97,199.83s.28,1.19-1.05,1.75c-1.33.56-1.82.28-2.31-.42"/>
        </g>
      </g>
      <ellipse class="cls-10" cx="53.02" cy="196.37" rx=".64" ry="1.28"/>
      <ellipse class="cls-10" cx="63.57" cy="196.37" rx=".64" ry="1.28"/>
      <path class="cls-6" d="m50.62,190.76s2.27-1.79,4.65.12"/>
      <path class="cls-5" d="m34.11,224.03s-4.26.85-5.54,5.75c-1.28,4.9,1.28,37.29,2.13,39,.85,1.7,3.41,4.26,7.88,4.26s38.78-2.56,38.78-2.56l-1.07-7.88-29.2-4.9s-.64-16.84-2.13-20.03"/>
      <path class="cls-2" d="m76.3,262.6s8.31-4.26,10.44-4.05,7.67,4.26,8.1,5.11c.43.85.43,3.41,0,4.05-.43.64-2.77-1.28-2.77-1.28,0,0-4.26-1.28-4.9-1.07-.64.21-3.84,3.2-5.97,3.2h-4.48l-.43-5.97Z"/>
      <path class="cls-2" d="m114.2,265.74s8.31-4.26,10.44-4.05,7.67,4.26,8.1,5.11c.43.85.43,3.41,0,4.05-.43.64-2.77-1.28-2.77-1.28,0,0-4.26-1.28-4.9-1.07-.64.21-3.84,3.2-5.97,3.2h-4.48l-.43-5.97Z"/>
    </g>
    <g>
      <g>
        <rect class="cls-2" x="67.71" y="269.62" width="52.97" height="2.11"/>
        <polygon class="cls-2" points="139.98 271.73 92.54 271.73 99.07 237.13 146.51 237.13 139.98 271.73"/>
      </g>
      <path class="cls-2" d="m124.59,258.02c-.36,2.36-2.53,3.98-4.85,3.62-2.31-.36-3.9-2.55-3.53-4.91.36-2.36,2.53-3.98,4.85-3.62,2.31.36,3.9,2.55,3.53,4.91Z"/>
    </g>
  </g>
  <g>
    <g>
      <circle class="cls-3" cx="246.28" cy="241.24" r="80.19" transform="translate(-24.94 454.05) rotate(-82.53)"/>
      <g>
        <polygon class="cls-1" points="235.42 205.62 243.59 207.31 246.38 210.2 250.01 210.76 251.17 214.21 250.32 216.54 247.84 217.68 241.77 216.68 241.61 215.94 244.48 213.94 242.5 210.29 237.07 209.54 234.18 207.06 235.42 205.62"/>
        <path class="cls-1" d="m301.3,281.06l-6.48-1.1-7.82-.99-5.76,1.28-5.64.08-5.66,2.62-3.3.93-2.04.45-3.41,3.1-3.39,2.31-5.72-2.04.15-5.49-3.45-.6-3.72.83-.93-1.55-.37-3.43-1.71-1.57-2.52.95-.33,2.02-3.12.89-3.53-2.73-2.1-4.21,1.63-5.82,5.47-.82,1.78.97,2.23-.5,2.42-2.29,2.58.21,4.62,5.02,1.26-.47-1.32-4.19-1.61-1.98-.41-3.61,6.21-4.5-.6-7.08,2.44-3.08,1.47-4.81,1.78-.78,3.65-3.74-.14-1.53-2.93.85-.89-1.36-2.04.45-2.99,1.44.95-2.75,6.09-3.3,1.11-2,3.51,3.51,2.04,1.3,2.44-1.32-1.65-2.17-4.52-1.92-5.57-4.03-5.35-2.13-4.62.25-2.72-1.73-3.14-.08-.21.83.82,5.47,1.16,1.69-.35,6.32-4.38-2.15-.02-2.72-4.31-.99-2.13-1.67-.1-4.85,4.52-5.1-.62-4.54-2,.64-1.67-1.38-1.18-2.66-1.34.1-.08,3.14-1.96.83-2.37-6.3-1.69-.6-2.85-.54-2.64,2.15,4.5,2.7,1.44,2.99-7.8-3.53-5.76-3.99-1.49-4.93-5.16-.41-3.18,3.24s-1.61,1.53-2.46,2.11c-.85.58-4.29,1.73-4.29,1.73l-.04,3.32-4.23,1.13.83,1.96,7.12-.41,4.4,3.12,1.44,6.5-.76,6.21,1.73,6.05-3.18,10.26,1.9,13.81,3.4,7.43,3.74,5.41,2.87-.25-1.59-2.77-1.98-1.9-1.84-3.88,1.59-.74,4.09,6.11,3.18,5.53,1.07,4.83,4.48,3.49,7.35,3.24,10.24.46,3.59,2.13,2.89,2.48,3.8,1.3,4.34.21,4.05-1.09s.23,1.9.43,2.83c.21.93-1.69,4.67-1.69,4.67l-1.22,4.17,2.39,3.76,4.46.76,7.08,4.67,2.85.54.62,2.79.61,1.23c14.26-5.67,26.21-15.17,34.89-27l-.2-1.37,2.99-10.22-2.79-1.14-9.6,5.06Z"/>
        <path class="cls-1" d="m304.32,203.38l-2.83-3.08-3.51-3.51-1.98-5.41,3.47-.19-.23-1.9-2.46.35,1.84-1.38,1.94-1.8-.41-1.86-2.89-2.48-1.36-3.89c-18.25-14.36-42.57-20.72-67.01-15.29-11.11,2.47-21.16,7.13-29.81,13.43l4.96,2.08-1.86,3.92-3.37,1.53.74,5.1-1.36.89-1.4,2.46.93,3.3,3.24-.33-.6,3.45,3.16-.7,3.86-8.07-.1-3.1,5.12-1.53.81-2.52,5.26-1.75-.14-3.28,3.86-1.05s2.46-2.11,3.01-2.23c.56-.12,3.36.23,3.36.23l3.28,1.61,3.9-.87,2.89-2.79,4.36-.58s1.28.5,2.21.29c.93-.21,3.43-2.13,3.43-2.13l6.13,2.15,2.6,1.18.62,2.79,2.87-.25.56-1.88,2.66.58.14,1.53-5.24,2.72,4.07,3.39,7.51,2.23,3.61,3.1,4.17-.54.52-2.06,1.4-.7-5.66-2.64-3.06.29,2.25-1.28-2.93-2.66,3.12-.89,4.58,1.32,1.92,4.25,2.58,1.96,2.87,5.02,4.75,2.07,1.36,6.13,4.89,1.84.27,2.08-.02,2.54,1.86,3.1.74,1.59,3.28-.14.78-3.49.48-2.25Z"/>
        <path class="cls-1" d="m302.58,184.12l.24,1.07-.27,3.18,1.14,2.48,2.21.29.78,3.53-2.44-.43,1.67,10.16-1.32,4.58,2.64,4.87,2.91,1.69,2.23,10.03,4.15,7.27,3.92,5.37,4.52.17.66-4.05.5-.61c-.31-3.28-.83-6.57-1.56-9.87-3.48-15.67-11.33-29.25-21.98-39.73Z"/>
        <polygon class="cls-1" points="259.41 192.49 245.95 189.83 240.6 191.21 240.08 195.03 237.32 193.11 233.44 194.95 234.43 201.16 238.31 202.83 239.94 198.77 243.34 200.93 250.22 204.67 252.53 209.81 258.72 214.87 266.24 211.84 265.43 209.09 263.06 206.3 261.04 198.95 262.19 195.38 259.41 192.49"/>
        <polygon class="cls-1" points="270.35 194.35 267.39 194.23 265.43 196.81 267.93 201.91 270.35 201.37 270.35 194.35"/>
        <polygon class="cls-1" points="288.41 194.05 281.35 192.1 279.55 190.16 278.19 191.05 280.32 194.48 282.51 199.06 285.54 199.56 285.93 198.69 283.64 196.27 288.88 197.06 288.41 194.05"/>
        <polygon class="cls-1" points="249.05 273.17 248.47 274.07 254.42 274.51 257.23 276.62 260.84 276.2 261.69 273.87 257.25 274.08 249.05 273.17"/>
        <polygon class="cls-1" points="266.37 273.02 262.72 275.01 263.61 276.37 268.44 275.3 269.03 273.6 267.4 274.16 266.37 273.02"/>
        <polygon class="cls-6" points="235.42 205.62 243.59 207.31 246.38 210.2 250.01 210.76 251.17 214.21 250.32 216.54 247.84 217.68 241.77 216.68 241.61 215.94 244.48 213.94 242.5 210.29 237.07 209.54 234.18 207.06 235.42 205.62"/>
        <path class="cls-6" d="m301.3,281.06l-6.48-1.1-7.82-.99-5.76,1.28-5.64.08-5.66,2.62-3.3.93-2.04.45-3.41,3.1-3.39,2.31-5.72-2.04.15-5.49-3.45-.6-3.72.83-.93-1.55-.37-3.43-1.71-1.57-2.52.95-.33,2.02-3.12.89-3.53-2.73-2.1-4.21,1.63-5.82,5.47-.82,1.78.97,2.23-.5,2.42-2.29,2.58.21,4.62,5.02,1.26-.47-1.32-4.19-1.61-1.98-.41-3.61,6.21-4.5-.6-7.08,2.44-3.08,1.47-4.81,1.78-.78,3.65-3.74-.14-1.53-2.93.85-.89-1.36-2.04.45-2.99,1.44.95-2.75,6.09-3.3,1.11-2,3.51,3.51,2.04,1.3,2.44-1.32-1.65-2.17-4.52-1.92-5.57-4.03-5.35-2.13-4.62.25-2.72-1.73-3.14-.08-.21.83.82,5.47,1.16,1.69-.35,6.32-4.38-2.15-.02-2.72-4.31-.99-2.13-1.67-.1-4.85,4.52-5.1-.62-4.54-2,.64-1.67-1.38-1.18-2.66-1.34.1-.08,3.14-1.96.83-2.37-6.3-1.69-.6-2.85-.54-2.64,2.15,4.5,2.7,1.44,2.99-7.8-3.53-5.76-3.99-1.49-4.93-5.16-.41-3.18,3.24s-1.61,1.53-2.46,2.11c-.85.58-4.29,1.73-4.29,1.73l-.04,3.32-4.23,1.13.83,1.96,7.12-.41,4.4,3.12,1.44,6.5-.76,6.21,1.73,6.05-3.18,10.26,1.9,13.81,3.4,7.43,3.74,5.41,2.87-.25-1.59-2.77-1.98-1.9-1.84-3.88,1.59-.74,4.09,6.11,3.18,5.53,1.07,4.83,4.48,3.49,7.35,3.24,10.24.46,3.59,2.13,2.89,2.48,3.8,1.3,4.34.21,4.05-1.09s.23,1.9.43,2.83c.21.93-1.69,4.67-1.69,4.67l-1.22,4.17,2.39,3.76,4.46.76,7.08,4.67,2.85.54.62,2.79.61,1.23c14.26-5.67,26.21-15.17,34.89-27l-.2-1.37,2.99-10.22-2.79-1.14-9.6,5.06Z"/>
        <path class="cls-6" d="m304.32,203.38l-2.83-3.08-3.51-3.51-1.98-5.41,3.47-.19-.23-1.9-2.46.35,1.84-1.38,1.94-1.8-.41-1.86-2.89-2.48-1.36-3.89c-18.25-14.36-42.57-20.72-67.01-15.29-11.11,2.47-21.16,7.13-29.81,13.43l4.96,2.08-1.86,3.92-3.37,1.53.74,5.1-1.36.89-1.4,2.46.93,3.3,3.24-.33-.6,3.45,3.16-.7,3.86-8.07-.1-3.1,5.12-1.53.81-2.52,5.26-1.75-.14-3.28,3.86-1.05s2.46-2.11,3.01-2.23c.56-.12,3.36.23,3.36.23l3.28,1.61,3.9-.87,2.89-2.79,4.36-.58s1.28.5,2.21.29c.93-.21,3.43-2.13,3.43-2.13l6.13,2.15,2.6,1.18.62,2.79,2.87-.25.56-1.88,2.66.58.14,1.53-5.24,2.72,4.07,3.39,7.51,2.23,3.61,3.1,4.17-.54.52-2.06,1.4-.7-5.66-2.64-3.06.29,2.25-1.28-2.93-2.66,3.12-.89,4.58,1.32,1.92,4.25,2.58,1.96,2.87,5.02,4.75,2.07,1.36,6.13,4.89,1.84.27,2.08-.02,2.54,1.86,3.1.74,1.59,3.28-.14.78-3.49.48-2.25Z"/>
        <path class="cls-6" d="m302.58,184.12l.24,1.07-.27,3.18,1.14,2.48,2.21.29.78,3.53-2.44-.43,1.67,10.16-1.32,4.58,2.64,4.87,2.91,1.69,2.23,10.03,4.15,7.27,3.92,5.37,4.52.17.66-4.05.5-.61c-.31-3.28-.83-6.57-1.56-9.87-3.48-15.67-11.33-29.25-21.98-39.73Z"/>
        <polygon class="cls-6" points="259.41 192.49 245.95 189.83 240.6 191.21 240.08 195.03 237.32 193.11 233.44 194.95 234.43 201.16 238.31 202.83 239.94 198.77 243.34 200.93 250.22 204.67 252.53 209.81 258.72 214.87 266.24 211.84 265.43 209.09 263.06 206.3 261.04 198.95 262.19 195.38 259.41 192.49"/>
        <polygon class="cls-6" points="270.35 194.35 267.39 194.23 265.43 196.81 267.93 201.91 270.35 201.37 270.35 194.35"/>
        <polygon class="cls-6" points="288.41 194.05 281.35 192.1 279.55 190.16 278.19 191.05 280.32 194.48 282.51 199.06 285.54 199.56 285.93 198.69 283.64 196.27 288.88 197.06 288.41 194.05"/>
        <polygon class="cls-6" points="249.05 273.17 248.47 274.07 254.42 274.51 257.23 276.62 260.84 276.2 261.69 273.87 257.25 274.08 249.05 273.17"/>
        <polygon class="cls-6" points="266.37 273.02 262.72 275.01 263.61 276.37 268.44 275.3 269.03 273.6 267.4 274.16 266.37 273.02"/>
      </g>
    </g>
    <g>
      <ellipse class="cls-6" cx="246.46" cy="241.24" rx="79.78" ry="50.34"/>
      <ellipse class="cls-6" cx="246.46" cy="241.24" rx="64.55" ry="80.19"/>
      <ellipse class="cls-6" cx="246.46" cy="241.24" rx="33.72" ry="80.19"/>
    </g>
    <circle class="cls-9" cx="246.28" cy="241.24" r="86"/>
  </g>
</svg>