<?xml version="1.0" encoding="UTF-8"?>
<svg id="Capa_1" data-name="Capa 1" xmlns="http://www.w3.org/2000/svg" viewBox="0 0 1060.19 543.16">
  <defs>
    <style>
      .cls-1 {
        fill: #6843e1;
      }

      .cls-2 {
        isolation: isolate;
      }

      .cls-3 {
        stroke: #000;
      }

      .cls-3, .cls-4 {
        fill: none;
        stroke-miterlimit: 10;
        stroke-width: .92px;
      }

      .cls-4 {
        stroke: #1d1d1b;
      }

      .cls-5 {
        fill: #1d1d1b;
      }
    </style>
  </defs>
  <g class="cls-2">
    <g class="cls-2">
      <path class="cls-5" d="m369.92,61.67v15.56h-4.2v-15.56h-5.22v-3.73h14.64v3.73h-5.22Z"/>
    </g>
    <g class="cls-2">
      <path class="cls-5" d="m380.78,77.56c-1.07,0-2.02-.18-2.86-.52s-1.55-.86-2.13-1.52c-.58-.66-1.03-1.46-1.34-2.4-.31-.94-.47-1.99-.47-3.15s.16-2.21.47-3.15c.31-.94.76-1.74,1.34-2.39.58-.65,1.29-1.16,2.13-1.51.84-.35,1.79-.52,2.86-.52s2.02.18,2.86.52c.84.35,1.55.85,2.13,1.51.58.65,1.03,1.45,1.34,2.39.31.94.47,1.99.47,3.15s-.16,2.21-.47,3.15c-.31.94-.76,1.74-1.34,2.4-.58.66-1.29,1.17-2.13,1.52-.84.35-1.79.52-2.86.52Zm0-3.23c.81,0,1.44-.25,1.88-.75.44-.5.66-1.21.66-2.13v-2.96c0-.92-.22-1.63-.66-2.13-.44-.5-1.07-.75-1.88-.75s-1.44.25-1.88.75c-.44.5-.66,1.21-.66,2.13v2.96c0,.92.22,1.63.66,2.13.44.5,1.07.75,1.88.75Z"/>
      <path class="cls-5" d="m403.74,74.79h-.14c-.11.39-.29.75-.52,1.09-.24.34-.53.64-.87.88-.34.25-.73.44-1.16.58-.43.14-.88.21-1.34.21-1.84,0-3.23-.65-4.17-1.95-.94-1.3-1.41-3.18-1.41-5.65s.47-4.35,1.41-5.64c.94-1.29,2.33-1.93,4.17-1.93.94,0,1.77.26,2.5.77.73.52,1.19,1.18,1.4,1.99h.14v-8.37h4.09v20.45h-4.09v-2.43Zm-2.68-.55c.77,0,1.41-.19,1.92-.57.51-.38.76-.9.76-1.56v-4.28c0-.66-.25-1.18-.76-1.56-.51-.38-1.15-.57-1.92-.57s-1.41.27-1.92.81c-.51.54-.76,1.28-.76,2.2v2.51c0,.92.25,1.65.76,2.2s1.15.81,1.92.81Z"/>
      <path class="cls-5" d="m410.57,77.22v-14.51h4.09v3.15h.14c.07-.4.2-.8.39-1.17s.43-.71.73-1.01c.3-.29.67-.53,1.09-.7.42-.17.92-.26,1.49-.26h.72v3.81h-1.02c-1.2,0-2.09.16-2.67.47-.58.31-.87.89-.87,1.74v8.48h-4.09Z"/>
      <path class="cls-5" d="m422.7,61.17c-.83,0-1.43-.19-1.81-.57-.38-.38-.57-.86-.57-1.45v-.61c0-.59.19-1.07.57-1.45s.98-.57,1.81-.57,1.43.19,1.81.57c.38.38.57.86.57,1.45v.61c0,.59-.19,1.07-.57,1.45s-.98.57-1.81.57Zm-2.04,1.55h4.09v14.51h-4.09v-14.51Z"/>
    </g>
    <g class="cls-2">
      <path class="cls-5" d="m430.43,77.22l-4.75-14.51h4.03l1.8,5.86,1.35,5.25h.22l1.35-5.25,1.74-5.86h3.87l-4.75,14.51h-4.86Z"/>
    </g>
    <g class="cls-2">
      <path class="cls-5" d="m446.93,77.56c-1.11,0-2.09-.18-2.96-.54-.87-.36-1.6-.87-2.2-1.52-.6-.65-1.05-1.45-1.35-2.39-.3-.94-.46-1.99-.46-3.15s.15-2.18.44-3.11c.29-.93.73-1.73,1.31-2.39.58-.66,1.29-1.17,2.14-1.53.85-.36,1.81-.54,2.9-.54,1.2,0,2.22.2,3.08.61.86.41,1.56.95,2.1,1.63.54.68.94,1.47,1.19,2.36.25.89.37,1.83.37,2.8v1.22h-9.31v.22c0,.95.26,1.7.77,2.26.52.56,1.33.84,2.43.84.85,0,1.54-.17,2.07-.51.53-.34,1.03-.75,1.49-1.22l2.04,2.55c-.65.76-1.49,1.35-2.53,1.77-1.04.42-2.22.64-3.55.64Zm-.08-12.16c-.83,0-1.48.27-1.95.82s-.7,1.27-.7,2.17v.22h5.08v-.25c0-.88-.2-1.6-.59-2.14-.4-.54-1.01-.82-1.84-.82Z"/>
      <path class="cls-5" d="m466.82,77.56c-1.11,0-2.09-.18-2.96-.54-.87-.36-1.6-.87-2.2-1.52-.6-.65-1.05-1.45-1.35-2.39-.3-.94-.46-1.99-.46-3.15s.15-2.18.44-3.11c.29-.93.73-1.73,1.31-2.39.58-.66,1.29-1.17,2.14-1.53.85-.36,1.81-.54,2.9-.54,1.2,0,2.22.2,3.08.61.86.41,1.56.95,2.1,1.63.54.68.94,1.47,1.19,2.36.25.89.37,1.83.37,2.8v1.22h-9.31v.22c0,.95.26,1.7.77,2.26.52.56,1.33.84,2.43.84.85,0,1.54-.17,2.07-.51.53-.34,1.03-.75,1.49-1.22l2.04,2.55c-.65.76-1.49,1.35-2.53,1.77-1.04.42-2.22.64-3.55.64Zm-.08-12.16c-.83,0-1.48.27-1.95.82s-.7,1.27-.7,2.17v.22h5.08v-.25c0-.88-.2-1.6-.59-2.14-.4-.54-1.01-.82-1.84-.82Z"/>
    </g>
    <g class="cls-2">
      <path class="cls-5" d="m480.99,77.56c-1.09,0-2.05-.18-2.9-.54-.85-.36-1.56-.87-2.13-1.52-.57-.65-1-1.45-1.3-2.39s-.44-1.99-.44-3.15.15-2.21.44-3.14.73-1.73,1.3-2.39c.57-.66,1.28-1.17,2.13-1.52.85-.35,1.81-.52,2.9-.52,1.47,0,2.7.33,3.69.99.98.66,1.69,1.59,2.11,2.79l-3.32,1.44c-.13-.55-.4-1.02-.8-1.41-.41-.39-.97-.58-1.69-.58-.83,0-1.46.27-1.88.81-.42.54-.64,1.28-.64,2.2v2.71c0,.92.21,1.65.64,2.18.42.53,1.05.8,1.88.8.74,0,1.32-.2,1.75-.59.43-.4.75-.92.95-1.56l3.18,1.38c-.48,1.38-1.22,2.4-2.22,3.04s-2.22.97-3.66.97Z"/>
    </g>
    <g class="cls-2">
      <path class="cls-5" d="m494.06,77.56c-1.07,0-2.02-.18-2.86-.52s-1.55-.86-2.13-1.52c-.58-.66-1.03-1.46-1.34-2.4-.31-.94-.47-1.99-.47-3.15s.16-2.21.47-3.15c.31-.94.76-1.74,1.34-2.39.58-.65,1.29-1.16,2.13-1.51.84-.35,1.79-.52,2.86-.52s2.02.18,2.86.52c.84.35,1.55.85,2.13,1.51.58.65,1.03,1.45,1.34,2.39.31.94.47,1.99.47,3.15s-.16,2.21-.47,3.15c-.31.94-.76,1.74-1.34,2.4-.58.66-1.29,1.17-2.13,1.52-.84.35-1.79.52-2.86.52Zm0-3.23c.81,0,1.44-.25,1.88-.75.44-.5.66-1.21.66-2.13v-2.96c0-.92-.22-1.63-.66-2.13-.44-.5-1.07-.75-1.88-.75s-1.44.25-1.88.75c-.44.5-.66,1.21-.66,2.13v2.96c0,.92.22,1.63.66,2.13.44.5,1.07.75,1.88.75Z"/>
      <path class="cls-5" d="m502.68,77.22v-14.51h4.09v2.46h.17c.26-.76.71-1.41,1.35-1.96.64-.55,1.54-.83,2.68-.83,1.49,0,2.62.5,3.38,1.49.76.99,1.15,2.41,1.15,4.25v9.09h-4.09v-8.76c0-.94-.15-1.63-.44-2.09-.29-.45-.82-.68-1.57-.68-.33,0-.65.04-.97.12-.31.08-.59.22-.84.4-.25.18-.45.41-.59.68-.15.27-.22.58-.22.93v9.39h-4.09Z"/>
      <path class="cls-5" d="m523.96,77.56c-1.07,0-2.02-.18-2.86-.52s-1.55-.86-2.13-1.52c-.58-.66-1.03-1.46-1.34-2.4-.31-.94-.47-1.99-.47-3.15s.16-2.21.47-3.15c.31-.94.76-1.74,1.34-2.39.58-.65,1.29-1.16,2.13-1.51.84-.35,1.79-.52,2.86-.52s2.02.18,2.86.52c.84.35,1.55.85,2.13,1.51.58.65,1.03,1.45,1.34,2.39.31.94.47,1.99.47,3.15s-.16,2.21-.47,3.15c-.31.94-.76,1.74-1.34,2.4-.58.66-1.29,1.17-2.13,1.52-.84.35-1.79.52-2.86.52Zm0-3.23c.81,0,1.44-.25,1.88-.75.44-.5.66-1.21.66-2.13v-2.96c0-.92-.22-1.63-.66-2.13-.44-.5-1.07-.75-1.88-.75s-1.44.25-1.88.75c-.44.5-.66,1.21-.66,2.13v2.96c0,.92.22,1.63.66,2.13.44.5,1.07.75,1.88.75Z"/>
      <path class="cls-5" d="m532.58,77.22v-14.51h4.09v2.46h.17c.26-.77.7-1.43,1.33-1.98.63-.54,1.48-.81,2.57-.81.99,0,1.84.25,2.54.75.7.5,1.21,1.23,1.52,2.18h.08c.13-.41.33-.79.59-1.15.27-.36.59-.67.98-.93.39-.26.82-.46,1.3-.62.48-.16.99-.23,1.55-.23,1.4,0,2.47.5,3.22,1.49s1.12,2.41,1.12,4.25v9.09h-4.09v-8.76c0-1.84-.66-2.76-1.99-2.76-.61,0-1.16.18-1.66.52-.5.35-.75.88-.75,1.6v9.39h-4.09v-8.76c0-1.84-.66-2.76-1.99-2.76-.29,0-.58.04-.87.12-.29.08-.54.22-.77.4-.23.18-.42.41-.55.68-.14.27-.21.58-.21.93v9.39h-4.09Z"/>
      <path class="cls-5" d="m558.25,61.17c-.83,0-1.43-.19-1.81-.57-.38-.38-.57-.86-.57-1.45v-.61c0-.59.19-1.07.57-1.45.38-.38.98-.57,1.81-.57s1.43.19,1.81.57c.38.38.57.86.57,1.45v.61c0,.59-.19,1.07-.57,1.45-.38.38-.98.57-1.81.57Zm-2.04,1.55h4.09v14.51h-4.09v-14.51Z"/>
      <path class="cls-5" d="m568.88,77.56c-1.09,0-2.05-.18-2.9-.54-.85-.36-1.56-.87-2.13-1.52-.57-.65-1-1.45-1.3-2.39s-.44-1.99-.44-3.15.15-2.21.44-3.14.73-1.73,1.3-2.39c.57-.66,1.28-1.17,2.13-1.52.85-.35,1.81-.52,2.9-.52,1.47,0,2.7.33,3.69.99s1.69,1.59,2.11,2.79l-3.32,1.44c-.13-.55-.4-1.02-.8-1.41-.41-.39-.97-.58-1.69-.58-.83,0-1.46.27-1.88.81-.42.54-.63,1.28-.63,2.2v2.71c0,.92.21,1.65.63,2.18s1.05.8,1.88.8c.74,0,1.32-.2,1.75-.59.43-.4.75-.92.95-1.56l3.18,1.38c-.48,1.38-1.22,2.4-2.22,3.04s-2.22.97-3.66.97Z"/>
      <path class="cls-5" d="m592.4,77.22c-.74,0-1.35-.23-1.84-.69-.49-.46-.8-1.08-.93-1.85h-.17c-.22.94-.71,1.65-1.46,2.14-.75.49-1.69.73-2.79.73-1.46,0-2.57-.39-3.34-1.16s-1.16-1.79-1.16-3.06c0-1.52.56-2.66,1.67-3.4,1.11-.74,2.63-1.12,4.54-1.12h2.29v-.91c0-.7-.18-1.26-.55-1.67-.37-.41-.99-.62-1.85-.62-.81,0-1.46.18-1.93.52-.48.35-.88.75-1.19,1.19l-2.43-2.17c.59-.87,1.33-1.55,2.22-2.04s2.1-.74,3.63-.74c2.06,0,3.61.45,4.64,1.35,1.03.9,1.55,2.22,1.55,3.95v6.35h1.35v3.18h-2.27Zm-5.66-2.51c.68,0,1.27-.15,1.75-.44.49-.29.73-.77.73-1.43v-1.7h-1.99c-1.6,0-2.4.54-2.4,1.62v.41c0,.53.17.92.5,1.17.33.25.8.37,1.41.37Z"/>
      <path class="cls-5" d="m596.32,77.22v-14.51h4.09v2.46h.17c.26-.76.71-1.41,1.35-1.96.64-.55,1.54-.83,2.68-.83,1.49,0,2.62.5,3.38,1.49.76.99,1.15,2.41,1.15,4.25v9.09h-4.09v-8.76c0-.94-.15-1.63-.44-2.09-.29-.45-.82-.68-1.58-.68-.33,0-.65.04-.97.12-.31.08-.59.22-.84.4-.25.18-.45.41-.59.68-.15.27-.22.58-.22.93v9.39h-4.09Z"/>
      <path class="cls-5" d="m620.6,74.79h-.14c-.11.39-.29.75-.53,1.09s-.53.64-.87.88c-.34.25-.73.44-1.16.58s-.88.21-1.34.21c-1.84,0-3.23-.65-4.17-1.95-.94-1.3-1.41-3.18-1.41-5.65s.47-4.35,1.41-5.64c.94-1.29,2.33-1.93,4.17-1.93.94,0,1.77.26,2.5.77.73.52,1.19,1.18,1.4,1.99h.14v-8.37h4.09v20.45h-4.09v-2.43Zm-2.68-.55c.77,0,1.41-.19,1.92-.57s.76-.9.76-1.56v-4.28c0-.66-.25-1.18-.76-1.56-.51-.38-1.15-.57-1.92-.57s-1.41.27-1.92.81c-.51.54-.76,1.28-.76,2.2v2.51c0,.92.25,1.65.76,2.2.51.54,1.15.81,1.92.81Z"/>
      <path class="cls-5" d="m637.79,77.56c-1.4,0-2.58-.23-3.54-.68-.96-.45-1.81-1.09-2.57-1.92l2.4-2.43c.52.57,1.09,1.02,1.71,1.35s1.34.5,2.13.5,1.37-.12,1.69-.37c.31-.25.47-.58.47-1.01,0-.68-.49-1.09-1.46-1.22l-1.58-.19c-3.26-.41-4.89-1.9-4.89-4.48,0-.7.13-1.34.4-1.92.27-.58.64-1.08,1.13-1.49.49-.41,1.08-.74,1.77-.97.69-.23,1.47-.35,2.33-.35.75,0,1.42.05,2,.15.58.1,1.1.25,1.55.44s.87.43,1.24.72c.38.29.75.6,1.12.95l-2.35,2.4c-.46-.46-.98-.82-1.56-1.09-.58-.27-1.17-.4-1.78-.4-.7,0-1.2.11-1.49.33-.29.22-.44.52-.44.88,0,.39.11.69.32.9.21.21.61.36,1.2.46l1.63.22c3.19.42,4.78,1.88,4.78,4.37,0,.7-.15,1.34-.44,1.93-.29.59-.71,1.1-1.26,1.53-.54.43-1.2.77-1.96,1.01-.76.24-1.62.36-2.56.36Z"/>
      <path class="cls-5" d="m651.61,77.56c-1.07,0-2.02-.18-2.86-.52s-1.55-.86-2.13-1.52-1.03-1.46-1.34-2.4c-.31-.94-.47-1.99-.47-3.15s.16-2.21.47-3.15c.31-.94.76-1.74,1.34-2.39s1.29-1.16,2.13-1.51c.84-.35,1.79-.52,2.86-.52s2.02.18,2.86.52c.84.35,1.55.85,2.13,1.51.58.65,1.03,1.45,1.34,2.39.31.94.47,1.99.47,3.15s-.16,2.21-.47,3.15c-.31.94-.76,1.74-1.34,2.4-.58.66-1.29,1.17-2.13,1.52-.84.35-1.79.52-2.86.52Zm0-3.23c.81,0,1.44-.25,1.88-.75.44-.5.66-1.21.66-2.13v-2.96c0-.92-.22-1.63-.66-2.13-.44-.5-1.07-.75-1.88-.75s-1.44.25-1.88.75c-.44.5-.66,1.21-.66,2.13v2.96c0,.92.22,1.63.66,2.13.44.5,1.07.75,1.88.75Z"/>
      <path class="cls-5" d="m666.08,77.56c-1.09,0-2.05-.18-2.9-.54-.85-.36-1.56-.87-2.13-1.52-.57-.65-1-1.45-1.3-2.39s-.44-1.99-.44-3.15.15-2.21.44-3.14.73-1.73,1.3-2.39c.57-.66,1.28-1.17,2.13-1.52.85-.35,1.81-.52,2.9-.52,1.47,0,2.7.33,3.69.99s1.69,1.59,2.11,2.79l-3.32,1.44c-.13-.55-.4-1.02-.8-1.41-.41-.39-.97-.58-1.69-.58-.83,0-1.46.27-1.88.81-.42.54-.63,1.28-.63,2.2v2.71c0,.92.21,1.65.63,2.18s1.05.8,1.88.8c.74,0,1.32-.2,1.75-.59.43-.4.75-.92.95-1.56l3.18,1.38c-.48,1.38-1.22,2.4-2.22,3.04s-2.22.97-3.66.97Z"/>
      <path class="cls-5" d="m675.48,61.17c-.83,0-1.43-.19-1.81-.57-.38-.38-.57-.86-.57-1.45v-.61c0-.59.19-1.07.57-1.45.38-.38.98-.57,1.81-.57s1.43.19,1.81.57c.38.38.57.86.57,1.45v.61c0,.59-.19,1.07-.57,1.45-.38.38-.98.57-1.81.57Zm-2.04,1.55h4.09v14.51h-4.09v-14.51Z"/>
      <path class="cls-5" d="m690.98,77.22c-.74,0-1.35-.23-1.84-.69-.49-.46-.8-1.08-.93-1.85h-.17c-.22.94-.71,1.65-1.46,2.14-.75.49-1.69.73-2.79.73-1.46,0-2.57-.39-3.34-1.16s-1.16-1.79-1.16-3.06c0-1.52.56-2.66,1.67-3.4,1.11-.74,2.63-1.12,4.54-1.12h2.29v-.91c0-.7-.18-1.26-.55-1.67-.37-.41-.99-.62-1.85-.62-.81,0-1.46.18-1.93.52-.48.35-.88.75-1.19,1.19l-2.43-2.17c.59-.87,1.33-1.55,2.22-2.04s2.1-.74,3.63-.74c2.06,0,3.61.45,4.64,1.35,1.03.9,1.55,2.22,1.55,3.95v6.35h1.35v3.18h-2.27Zm-5.66-2.51c.68,0,1.27-.15,1.75-.44.49-.29.73-.77.73-1.43v-1.7h-1.99c-1.6,0-2.4.54-2.4,1.62v.41c0,.53.17.92.5,1.17.33.25.8.37,1.41.37Z"/>
      <path class="cls-5" d="m698.96,77.22c-1.4,0-2.43-.34-3.08-1.02-.65-.68-.98-1.67-.98-2.96v-16.47h4.09v17.27h1.82v3.18h-1.85Z"/>
    </g>
    <g class="cls-2">
      <path class="cls-5" d="m373.67,93.95c-.83,0-1.43-.19-1.81-.57-.38-.38-.57-.86-.57-1.45v-.61c0-.59.19-1.07.57-1.45s.98-.57,1.81-.57,1.43.19,1.81.57c.38.38.57.86.57,1.45v.61c0,.59-.19,1.07-.57,1.45s-.98.57-1.81.57Zm-2.04,1.55h4.09v14.51h-4.09v-14.51Z"/>
      <path class="cls-5" d="m378.45,110v-14.51h4.09v2.46h.17c.26-.77.7-1.43,1.33-1.98.63-.54,1.48-.81,2.57-.81.99,0,1.84.25,2.54.75.7.5,1.21,1.23,1.52,2.18h.08c.13-.41.33-.79.59-1.15.27-.36.59-.67.98-.93.39-.26.82-.46,1.3-.62.48-.16.99-.23,1.55-.23,1.4,0,2.47.5,3.22,1.49s1.12,2.41,1.12,4.25v9.09h-4.09v-8.76c0-1.84-.66-2.76-1.99-2.76-.61,0-1.16.18-1.66.52-.5.35-.75.88-.75,1.6v9.39h-4.09v-8.76c0-1.84-.66-2.76-1.99-2.76-.29,0-.58.04-.87.12-.29.08-.54.22-.77.4-.23.18-.41.41-.55.68-.14.27-.21.58-.21.93v9.39h-4.09Z"/>
      <path class="cls-5" d="m402.08,95.5h4.09v2.43h.14c.2-.81.67-1.47,1.4-1.99.73-.52,1.56-.77,2.5-.77,1.84,0,3.23.65,4.17,1.93.94,1.29,1.41,3.17,1.41,5.64s-.47,4.35-1.41,5.65c-.94,1.3-2.33,1.95-4.17,1.95-.48,0-.93-.07-1.35-.21-.42-.14-.81-.33-1.15-.58-.34-.25-.63-.54-.87-.88-.24-.34-.41-.7-.52-1.09h-.14v7.96h-4.09v-20.03Zm6.77,11.52c.77,0,1.41-.27,1.92-.81.51-.54.76-1.28.76-2.2v-2.51c0-.92-.25-1.65-.76-2.2-.51-.54-1.15-.81-1.92-.81s-1.41.19-1.92.57c-.51.38-.76.9-.76,1.56v4.28c0,.66.25,1.18.76,1.56.51.38,1.15.57,1.92.57Z"/>
      <path class="cls-5" d="m428.52,110c-.74,0-1.35-.23-1.84-.69-.49-.46-.8-1.08-.93-1.85h-.17c-.22.94-.71,1.65-1.46,2.14-.76.49-1.69.73-2.79.73-1.46,0-2.57-.39-3.34-1.16-.77-.77-1.16-1.79-1.16-3.06,0-1.52.56-2.66,1.67-3.4,1.11-.74,2.63-1.12,4.55-1.12h2.29v-.91c0-.7-.18-1.26-.55-1.67-.37-.41-.99-.62-1.85-.62-.81,0-1.46.18-1.93.52-.48.35-.88.75-1.19,1.19l-2.43-2.17c.59-.87,1.33-1.55,2.22-2.04.89-.49,2.1-.74,3.63-.74,2.06,0,3.61.45,4.64,1.35,1.03.9,1.55,2.22,1.55,3.95v6.35h1.35v3.18h-2.27Zm-5.66-2.51c.68,0,1.27-.15,1.75-.44.49-.29.73-.77.73-1.43v-1.7h-1.99c-1.6,0-2.4.54-2.4,1.62v.41c0,.53.17.92.5,1.17s.8.37,1.41.37Z"/>
      <path class="cls-5" d="m438.3,110.33c-1.09,0-2.05-.18-2.9-.54-.85-.36-1.56-.87-2.13-1.52-.57-.65-1-1.45-1.3-2.39s-.44-1.99-.44-3.15.15-2.21.44-3.14.73-1.73,1.3-2.39c.57-.66,1.28-1.17,2.13-1.52.85-.35,1.81-.52,2.9-.52,1.47,0,2.7.33,3.69.99.98.66,1.69,1.59,2.11,2.79l-3.32,1.44c-.13-.55-.4-1.02-.8-1.41-.41-.39-.97-.58-1.69-.58-.83,0-1.46.27-1.88.81-.42.54-.64,1.28-.64,2.2v2.71c0,.92.21,1.65.64,2.18.42.53,1.05.8,1.88.8.74,0,1.32-.2,1.75-.59.43-.4.75-.92.95-1.56l3.18,1.38c-.48,1.38-1.22,2.4-2.22,3.04s-2.22.97-3.66.97Z"/>
      <path class="cls-5" d="m450.73,110c-1.42,0-2.49-.36-3.22-1.08-.73-.72-1.09-1.77-1.09-3.15v-7.1h-2.04v-3.18h1.02c.55,0,.93-.13,1.13-.4.2-.27.3-.65.3-1.15v-2.38h3.67v3.92h2.87v3.18h-2.87v8.15h2.65v3.18h-2.43Z"/>
      <path class="cls-5" d="m465.68,110c-1.42,0-2.49-.36-3.22-1.08-.73-.72-1.09-1.77-1.09-3.15v-7.1h-2.04v-3.18h1.02c.55,0,.93-.13,1.13-.4.2-.27.3-.65.3-1.15v-2.38h3.67v3.92h2.87v3.18h-2.87v8.15h2.65v3.18h-2.43Z"/>
      <path class="cls-5" d="m470.1,89.56h4.09v8.4h.17c.26-.76.71-1.41,1.35-1.96.64-.55,1.54-.83,2.68-.83,1.49,0,2.62.5,3.38,1.49.76.99,1.15,2.41,1.15,4.25v9.09h-4.09v-8.76c0-.94-.15-1.63-.44-2.09-.29-.45-.82-.68-1.57-.68-.33,0-.65.04-.97.12-.31.08-.59.22-.84.4-.25.18-.45.41-.59.68-.15.27-.22.58-.22.93v9.39h-4.09v-20.45Z"/>
    </g>
    <g class="cls-2">
      <path class="cls-5" d="m485.23,110v-14.51h4.09v3.15h.14c.07-.4.2-.8.39-1.17s.43-.71.73-1.01c.3-.29.67-.53,1.09-.7.42-.17.92-.26,1.49-.26h.72v3.81h-1.02c-1.2,0-2.09.16-2.67.47-.58.31-.87.89-.87,1.74v8.48h-4.09Z"/>
    </g>
    <g class="cls-2">
      <path class="cls-5" d="m501.04,110.33c-1.07,0-2.02-.18-2.86-.52s-1.55-.86-2.13-1.52c-.58-.66-1.03-1.46-1.34-2.4-.31-.94-.47-1.99-.47-3.15s.16-2.21.47-3.15c.31-.94.76-1.74,1.34-2.39.58-.65,1.29-1.16,2.13-1.51.84-.35,1.79-.52,2.86-.52s2.02.18,2.86.52c.84.35,1.55.85,2.13,1.51.58.65,1.03,1.45,1.34,2.39.31.94.47,1.99.47,3.15s-.16,2.21-.47,3.15c-.31.94-.76,1.74-1.34,2.4-.58.66-1.29,1.17-2.13,1.52-.84.35-1.79.52-2.86.52Zm0-3.23c.81,0,1.44-.25,1.88-.75.44-.5.66-1.21.66-2.13v-2.96c0-.92-.22-1.63-.66-2.13-.44-.5-1.07-.75-1.88-.75s-1.44.25-1.88.75c-.44.5-.66,1.21-.66,2.13v2.96c0,.92.22,1.63.66,2.13.44.5,1.07.75,1.88.75Z"/>
      <path class="cls-5" d="m518.22,107.57h-.14c-.13.37-.3.72-.51,1.05-.21.33-.48.63-.81.88-.33.26-.72.46-1.17.61-.45.15-.97.22-1.56.22-1.49,0-2.62-.49-3.38-1.48-.76-.99-1.15-2.4-1.15-4.24v-9.12h4.09v8.76c0,.88.16,1.57.47,2.04s.85.72,1.6.72c.31,0,.63-.05.94-.14.31-.09.59-.23.83-.4.24-.17.43-.39.58-.65s.22-.56.22-.91v-9.42h4.09v14.51h-4.09v-2.43Z"/>
      <path class="cls-5" d="m538.47,111.05c0,.77-.13,1.46-.4,2.04-.27.59-.7,1.09-1.31,1.51-.61.41-1.41.73-2.42.94-1,.21-2.24.32-3.72.32-1.25,0-2.32-.08-3.19-.23-.88-.16-1.58-.38-2.13-.66-.54-.29-.94-.64-1.19-1.05s-.37-.89-.37-1.42c0-.81.24-1.45.72-1.91s1.14-.75,1.99-.86v-.3c-.7-.13-1.23-.43-1.57-.9-.35-.47-.52-1.02-.52-1.65,0-.39.08-.72.23-1.01.16-.29.36-.53.61-.75.25-.21.54-.38.87-.51.33-.13.66-.23.99-.3v-.11c-.88-.4-1.54-.96-1.96-1.67-.42-.71-.64-1.53-.64-2.47,0-1.47.51-2.65,1.53-3.55,1.02-.89,2.58-1.34,4.68-1.34.96,0,1.78.09,2.46.28v-.55c0-.77.19-1.33.57-1.67.38-.34.92-.51,1.62-.51h2.29v3.04h-3.21v.17c.85.41,1.47.96,1.88,1.67.41.71.61,1.53.61,2.47,0,1.46-.51,2.62-1.53,3.5-1.02.88-2.58,1.31-4.68,1.31-.94,0-1.8-.1-2.57-.3-.42.28-.64.66-.64,1.16,0,.35.13.62.4.82.27.19.71.29,1.34.29h4.2c1.77,0,3.05.37,3.85,1.1.8.74,1.2,1.78,1.2,3.12Zm-3.84.55c0-.42-.17-.75-.5-.97-.33-.22-.91-.33-1.74-.33h-4.97c-.18.18-.32.39-.4.62-.08.23-.12.46-.12.68,0,.53.23.93.69,1.17s1.24.37,2.35.37h1.66c1.1,0,1.89-.12,2.35-.37.46-.25.69-.64.69-1.17Zm-3.95-9.45c.81,0,1.41-.17,1.81-.51.4-.34.59-.83.59-1.47v-.33c0-.64-.2-1.13-.59-1.47-.4-.34-1-.51-1.81-.51s-1.41.17-1.81.51c-.4.34-.59.83-.59,1.47v.33c0,.64.2,1.13.59,1.47s1,.51,1.81.51Z"/>
      <path class="cls-5" d="m539.22,89.56h4.09v8.4h.17c.26-.76.71-1.41,1.35-1.96.64-.55,1.54-.83,2.68-.83,1.49,0,2.62.5,3.38,1.49.76.99,1.15,2.41,1.15,4.25v9.09h-4.09v-8.76c0-.94-.15-1.63-.44-2.09-.29-.45-.82-.68-1.58-.68-.33,0-.65.04-.97.12-.31.08-.59.22-.84.4-.25.18-.45.41-.59.68-.15.27-.22.58-.22.93v9.39h-4.09v-20.45Z"/>
    </g>
    <g class="cls-2">
      <path class="cls-5" d="m565,110c-1.42,0-2.49-.36-3.22-1.08s-1.09-1.77-1.09-3.15v-7.1h-2.04v-3.18h1.02c.55,0,.93-.13,1.13-.4.2-.27.3-.65.3-1.15v-2.38h3.67v3.92h2.87v3.18h-2.87v8.15h2.65v3.18h-2.43Z"/>
    </g>
    <g class="cls-2">
      <path class="cls-5" d="m575.33,110.33c-1.1,0-2.09-.18-2.96-.54-.87-.36-1.6-.87-2.2-1.52-.6-.65-1.05-1.45-1.35-2.39-.3-.94-.46-1.99-.46-3.15s.15-2.18.44-3.11c.29-.93.73-1.73,1.31-2.39.58-.66,1.29-1.17,2.14-1.53.85-.36,1.81-.54,2.9-.54,1.2,0,2.22.2,3.08.61s1.56.95,2.1,1.63c.54.68.94,1.47,1.19,2.36.25.89.37,1.83.37,2.8v1.22h-9.31v.22c0,.95.26,1.7.77,2.26.51.56,1.33.84,2.43.84.85,0,1.54-.17,2.07-.51.53-.34,1.03-.75,1.49-1.22l2.04,2.55c-.65.76-1.49,1.35-2.53,1.77-1.04.42-2.22.64-3.55.64Zm-.08-12.16c-.83,0-1.48.27-1.95.82s-.71,1.27-.71,2.17v.22h5.08v-.25c0-.88-.2-1.6-.59-2.14-.4-.54-1.01-.82-1.84-.82Z"/>
      <path class="cls-5" d="m589.59,110.33c-1.09,0-2.05-.18-2.9-.54-.85-.36-1.56-.87-2.13-1.52-.57-.65-1-1.45-1.3-2.39s-.44-1.99-.44-3.15.15-2.21.44-3.14.73-1.73,1.3-2.39c.57-.66,1.28-1.17,2.13-1.52.85-.35,1.81-.52,2.9-.52,1.47,0,2.7.33,3.69.99s1.69,1.59,2.11,2.79l-3.32,1.44c-.13-.55-.4-1.02-.8-1.41-.41-.39-.97-.58-1.69-.58-.83,0-1.46.27-1.88.81-.42.54-.63,1.28-.63,2.2v2.71c0,.92.21,1.65.63,2.18s1.05.8,1.88.8c.74,0,1.32-.2,1.75-.59.43-.4.75-.92.95-1.56l3.18,1.38c-.48,1.38-1.22,2.4-2.22,3.04s-2.22.97-3.66.97Z"/>
      <path class="cls-5" d="m596.94,89.56h4.09v8.4h.17c.26-.76.71-1.41,1.35-1.96.64-.55,1.54-.83,2.68-.83,1.49,0,2.62.5,3.38,1.49.76.99,1.15,2.41,1.15,4.25v9.09h-4.09v-8.76c0-.94-.15-1.63-.44-2.09-.29-.45-.82-.68-1.58-.68-.33,0-.65.04-.97.12-.31.08-.59.22-.84.4-.25.18-.45.41-.59.68-.15.27-.22.58-.22.93v9.39h-4.09v-20.45Z"/>
      <path class="cls-5" d="m612.33,110v-14.51h4.09v2.46h.17c.26-.76.71-1.41,1.35-1.96.64-.55,1.54-.83,2.68-.83,1.49,0,2.62.5,3.38,1.49.76.99,1.15,2.41,1.15,4.25v9.09h-4.09v-8.76c0-.94-.15-1.63-.44-2.09-.29-.45-.82-.68-1.58-.68-.33,0-.65.04-.97.12-.31.08-.59.22-.84.4-.25.18-.45.41-.59.68-.15.27-.22.58-.22.93v9.39h-4.09Z"/>
      <path class="cls-5" d="m633.6,110.33c-1.07,0-2.02-.18-2.86-.52s-1.55-.86-2.13-1.52-1.03-1.46-1.34-2.4c-.31-.94-.47-1.99-.47-3.15s.16-2.21.47-3.15c.31-.94.76-1.74,1.34-2.39s1.29-1.16,2.13-1.51c.84-.35,1.79-.52,2.86-.52s2.02.18,2.86.52c.84.35,1.55.85,2.13,1.51.58.65,1.03,1.45,1.34,2.39.31.94.47,1.99.47,3.15s-.16,2.21-.47,3.15c-.31.94-.76,1.74-1.34,2.4-.58.66-1.29,1.17-2.13,1.52-.84.35-1.79.52-2.86.52Zm0-3.23c.81,0,1.44-.25,1.88-.75.44-.5.66-1.21.66-2.13v-2.96c0-.92-.22-1.63-.66-2.13-.44-.5-1.07-.75-1.88-.75s-1.44.25-1.88.75c-.44.5-.66,1.21-.66,2.13v2.96c0,.92.22,1.63.66,2.13.44.5,1.07.75,1.88.75Z"/>
      <path class="cls-5" d="m646.28,110c-1.4,0-2.43-.34-3.08-1.02-.65-.68-.98-1.67-.98-2.96v-16.47h4.09v17.27h1.82v3.18h-1.85Z"/>
      <path class="cls-5" d="m655.4,110.33c-1.07,0-2.02-.18-2.86-.52s-1.55-.86-2.13-1.52-1.03-1.46-1.34-2.4c-.31-.94-.47-1.99-.47-3.15s.16-2.21.47-3.15c.31-.94.76-1.74,1.34-2.39s1.29-1.16,2.13-1.51c.84-.35,1.79-.52,2.86-.52s2.02.18,2.86.52c.84.35,1.55.85,2.13,1.51.58.65,1.03,1.45,1.34,2.39.31.94.47,1.99.47,3.15s-.16,2.21-.47,3.15c-.31.94-.76,1.74-1.34,2.4-.58.66-1.29,1.17-2.13,1.52-.84.35-1.79.52-2.86.52Zm0-3.23c.81,0,1.44-.25,1.88-.75.44-.5.66-1.21.66-2.13v-2.96c0-.92-.22-1.63-.66-2.13-.44-.5-1.07-.75-1.88-.75s-1.44.25-1.88.75c-.44.5-.66,1.21-.66,2.13v2.96c0,.92.22,1.63.66,2.13.44.5,1.07.75,1.88.75Z"/>
    </g>
    <g class="cls-2">
      <path class="cls-5" d="m677.26,111.05c0,.77-.13,1.46-.4,2.04-.27.59-.7,1.09-1.31,1.51-.61.41-1.41.73-2.42.94-1,.21-2.24.32-3.72.32-1.25,0-2.32-.08-3.19-.23-.88-.16-1.58-.38-2.13-.66-.54-.29-.94-.64-1.19-1.05-.25-.41-.37-.89-.37-1.42,0-.81.24-1.45.72-1.91.48-.46,1.14-.75,1.99-.86v-.3c-.7-.13-1.22-.43-1.58-.9-.35-.47-.52-1.02-.52-1.65,0-.39.08-.72.23-1.01.16-.29.36-.53.61-.75.25-.21.54-.38.87-.51.33-.13.66-.23,1-.3v-.11c-.88-.4-1.54-.96-1.96-1.67-.42-.71-.64-1.53-.64-2.47,0-1.47.51-2.65,1.53-3.55,1.02-.89,2.58-1.34,4.68-1.34.96,0,1.78.09,2.46.28v-.55c0-.77.19-1.33.57-1.67.38-.34.92-.51,1.62-.51h2.29v3.04h-3.21v.17c.85.41,1.47.96,1.88,1.67.41.71.61,1.53.61,2.47,0,1.46-.51,2.62-1.53,3.5-1.02.88-2.58,1.31-4.68,1.31-.94,0-1.8-.1-2.57-.3-.42.28-.64.66-.64,1.16,0,.35.13.62.4.82.27.19.71.29,1.34.29h4.2c1.77,0,3.05.37,3.85,1.1.8.74,1.2,1.78,1.2,3.12Zm-3.84.55c0-.42-.17-.75-.5-.97-.33-.22-.91-.33-1.74-.33h-4.97c-.18.18-.32.39-.4.62-.08.23-.12.46-.12.68,0,.53.23.93.69,1.17.46.25,1.24.37,2.35.37h1.66c1.1,0,1.89-.12,2.35-.37.46-.25.69-.64.69-1.17Zm-3.95-9.45c.81,0,1.41-.17,1.81-.51.4-.34.59-.83.59-1.47v-.33c0-.64-.2-1.13-.59-1.47-.4-.34-1-.51-1.81-.51s-1.41.17-1.81.51c-.4.34-.59.83-.59,1.47v.33c0,.64.2,1.13.59,1.47.4.34,1,.51,1.81.51Z"/>
    </g>
    <g class="cls-2">
      <path class="cls-5" d="m686.98,95.5h3.81l-5.58,16.74c-.37,1.12-.89,1.95-1.56,2.49-.67.53-1.63.8-2.89.8h-2.54v-3.18h2.74l.5-1.6-5.08-15.25h4.06l2.13,6.77,1.05,4.2h.17l1.08-4.2,2.13-6.77Z"/>
    </g>
  </g>
  <g class="cls-2">
    <g class="cls-2">
      <path class="cls-5" d="m71.22,417.33v15.56h-4.2v-15.56h-5.22v-3.73h14.64v3.73h-5.22Z"/>
    </g>
    <g class="cls-2">
      <path class="cls-5" d="m82.08,433.21c-1.07,0-2.02-.18-2.86-.53s-1.55-.86-2.13-1.52c-.58-.66-1.03-1.46-1.34-2.4-.31-.94-.47-1.99-.47-3.15s.16-2.21.47-3.15c.31-.94.76-1.74,1.34-2.39.58-.65,1.29-1.16,2.13-1.51.84-.35,1.79-.52,2.86-.52s2.02.17,2.86.52c.84.35,1.55.85,2.13,1.51.58.65,1.03,1.45,1.34,2.39.31.94.47,1.99.47,3.15s-.16,2.21-.47,3.15c-.31.94-.76,1.74-1.34,2.4-.58.66-1.29,1.17-2.13,1.52-.84.35-1.79.53-2.86.53Zm0-3.23c.81,0,1.44-.25,1.88-.75.44-.5.66-1.21.66-2.13v-2.96c0-.92-.22-1.63-.66-2.13s-1.07-.75-1.88-.75-1.44.25-1.88.75c-.44.5-.66,1.21-.66,2.13v2.96c0,.92.22,1.63.66,2.13.44.5,1.07.75,1.88.75Z"/>
      <path class="cls-5" d="m101.06,433.21c-1.4,0-2.58-.23-3.54-.68-.96-.45-1.81-1.09-2.57-1.92l2.4-2.43c.52.57,1.09,1.02,1.71,1.35.63.33,1.34.5,2.13.5s1.37-.12,1.69-.37c.31-.25.47-.58.47-1.01,0-.68-.49-1.09-1.46-1.22l-1.57-.19c-3.26-.4-4.89-1.9-4.89-4.48,0-.7.13-1.34.4-1.92.27-.58.64-1.08,1.13-1.49.49-.42,1.08-.74,1.77-.97.69-.23,1.47-.34,2.33-.34.75,0,1.42.05,2,.15.58.1,1.1.25,1.55.44.45.19.87.43,1.24.72s.75.6,1.12.95l-2.35,2.4c-.46-.46-.98-.82-1.56-1.09s-1.17-.4-1.78-.4c-.7,0-1.2.11-1.49.33-.29.22-.44.52-.44.88,0,.39.11.69.32.9.21.21.61.36,1.2.46l1.63.22c3.19.42,4.78,1.88,4.78,4.37,0,.7-.15,1.34-.44,1.93-.29.59-.71,1.1-1.26,1.53s-1.2.77-1.96,1.01c-.76.24-1.62.36-2.56.36Z"/>
      <path class="cls-5" d="m117.55,430.45h-.14c-.13.37-.3.72-.51,1.05-.21.33-.48.63-.81.88s-.72.46-1.17.61c-.45.15-.97.22-1.56.22-1.49,0-2.62-.49-3.38-1.48-.76-.99-1.15-2.4-1.15-4.24v-9.12h4.09v8.76c0,.88.16,1.57.47,2.04s.85.72,1.6.72c.31,0,.63-.04.94-.14.31-.09.59-.23.83-.4.24-.17.43-.39.58-.65s.22-.56.22-.91v-9.42h4.09v14.51h-4.09v-2.43Z"/>
      <path class="cls-5" d="m124.38,418.38h4.09v2.43h.14c.2-.81.67-1.47,1.4-1.99.73-.52,1.56-.77,2.5-.77,1.84,0,3.23.64,4.17,1.93.94,1.29,1.41,3.17,1.41,5.64s-.47,4.35-1.41,5.65-2.33,1.95-4.17,1.95c-.48,0-.93-.07-1.35-.21-.42-.14-.81-.33-1.15-.58-.34-.25-.63-.54-.87-.88-.24-.34-.41-.71-.52-1.09h-.14v7.96h-4.09v-20.03Zm6.77,11.52c.77,0,1.41-.27,1.92-.81.51-.54.76-1.28.76-2.2v-2.51c0-.92-.25-1.65-.76-2.2-.51-.54-1.15-.82-1.92-.82s-1.41.19-1.92.57c-.51.38-.76.9-.76,1.56v4.28c0,.66.25,1.18.76,1.56.51.38,1.15.57,1.92.57Z"/>
      <path class="cls-5" d="m140.1,418.38h4.09v2.43h.14c.2-.81.67-1.47,1.4-1.99.73-.52,1.56-.77,2.5-.77,1.84,0,3.23.64,4.17,1.93.94,1.29,1.41,3.17,1.41,5.64s-.47,4.35-1.41,5.65-2.33,1.95-4.17,1.95c-.48,0-.93-.07-1.35-.21-.42-.14-.81-.33-1.15-.58-.34-.25-.63-.54-.87-.88-.24-.34-.41-.71-.52-1.09h-.14v7.96h-4.09v-20.03Zm6.77,11.52c.77,0,1.41-.27,1.92-.81.51-.54.76-1.28.76-2.2v-2.51c0-.92-.25-1.65-.76-2.2-.51-.54-1.15-.82-1.92-.82s-1.41.19-1.92.57c-.51.38-.76.9-.76,1.56v4.28c0,.66.25,1.18.76,1.56.51.38,1.15.57,1.92.57Z"/>
      <path class="cls-5" d="m161.71,433.21c-1.07,0-2.02-.18-2.86-.53s-1.55-.86-2.13-1.52c-.58-.66-1.03-1.46-1.34-2.4-.31-.94-.47-1.99-.47-3.15s.16-2.21.47-3.15c.31-.94.76-1.74,1.34-2.39.58-.65,1.29-1.16,2.13-1.51.84-.35,1.79-.52,2.86-.52s2.02.17,2.86.52c.84.35,1.55.85,2.13,1.51.58.65,1.03,1.45,1.34,2.39.31.94.47,1.99.47,3.15s-.16,2.21-.47,3.15c-.31.94-.76,1.74-1.34,2.4-.58.66-1.29,1.17-2.13,1.52-.84.35-1.79.53-2.86.53Zm0-3.23c.81,0,1.44-.25,1.88-.75.44-.5.66-1.21.66-2.13v-2.96c0-.92-.22-1.63-.66-2.13s-1.07-.75-1.88-.75-1.44.25-1.88.75c-.44.5-.66,1.21-.66,2.13v2.96c0,.92.22,1.63.66,2.13.44.5,1.07.75,1.88.75Z"/>
    </g>
    <g class="cls-2">
      <path class="cls-5" d="m170.13,432.88v-14.51h4.09v3.15h.14c.07-.41.2-.8.39-1.17.18-.38.43-.71.73-1.01.3-.29.67-.53,1.09-.71.42-.17.92-.26,1.49-.26h.72v3.81h-1.02c-1.2,0-2.09.16-2.67.47-.58.31-.87.89-.87,1.74v8.48h-4.09Z"/>
    </g>
    <g class="cls-2">
      <path class="cls-5" d="m185.39,432.88c-1.42,0-2.49-.36-3.22-1.08-.73-.72-1.09-1.77-1.09-3.15v-7.1h-2.04v-3.18h1.02c.55,0,.93-.13,1.13-.4.2-.27.3-.65.3-1.15v-2.38h3.67v3.92h2.87v3.18h-2.87v8.15h2.65v3.18h-2.43Z"/>
      <path class="cls-5" d="m200.33,432.88c-1.42,0-2.49-.36-3.22-1.08-.73-.72-1.09-1.77-1.09-3.15v-7.1h-2.04v-3.18h1.02c.55,0,.93-.13,1.13-.4.2-.27.3-.65.3-1.15v-2.38h3.67v3.92h2.87v3.18h-2.87v8.15h2.65v3.18h-2.43Z"/>
      <path class="cls-5" d="m204.75,412.44h4.09v8.4h.17c.26-.75.71-1.41,1.35-1.96.64-.55,1.54-.83,2.68-.83,1.49,0,2.62.5,3.38,1.49.76.99,1.15,2.41,1.15,4.25v9.09h-4.09v-8.76c0-.94-.15-1.63-.44-2.09-.29-.45-.82-.68-1.57-.68-.33,0-.65.04-.97.12-.31.08-.59.22-.84.4-.25.18-.45.41-.59.68-.15.27-.22.58-.22.92v9.39h-4.09v-20.45Z"/>
      <path class="cls-5" d="m226.19,433.21c-1.11,0-2.09-.18-2.96-.54-.87-.36-1.6-.87-2.2-1.52-.6-.65-1.05-1.45-1.35-2.39-.3-.94-.46-1.99-.46-3.15s.15-2.18.44-3.11c.29-.93.73-1.73,1.31-2.39.58-.66,1.29-1.17,2.14-1.53.85-.36,1.81-.54,2.9-.54,1.2,0,2.22.2,3.08.61.86.41,1.56.95,2.1,1.63.54.68.94,1.47,1.19,2.36s.37,1.83.37,2.8v1.22h-9.31v.22c0,.95.26,1.7.77,2.26.52.56,1.33.84,2.43.84.85,0,1.54-.17,2.07-.51s1.03-.74,1.49-1.22l2.04,2.55c-.65.76-1.49,1.35-2.53,1.77-1.04.42-2.22.64-3.55.64Zm-.08-12.16c-.83,0-1.48.27-1.95.81-.47.54-.7,1.27-.7,2.17v.22h5.08v-.25c0-.88-.2-1.6-.59-2.14-.4-.54-1.01-.81-1.84-.81Z"/>
      <path class="cls-5" d="m253.46,433.93c0,.77-.13,1.46-.4,2.04-.27.59-.7,1.09-1.31,1.51-.61.41-1.41.73-2.42.94-1,.21-2.24.32-3.72.32-1.25,0-2.32-.08-3.19-.23-.88-.16-1.58-.38-2.13-.66-.54-.29-.94-.64-1.19-1.05-.25-.41-.37-.89-.37-1.42,0-.81.24-1.45.72-1.91.48-.46,1.14-.75,1.99-.86v-.3c-.7-.13-1.23-.43-1.57-.9-.35-.47-.52-1.02-.52-1.65,0-.39.08-.72.23-1.01.16-.29.36-.53.61-.75.25-.21.54-.38.87-.51s.66-.23.99-.3v-.11c-.88-.4-1.54-.96-1.96-1.67-.42-.71-.64-1.53-.64-2.47,0-1.47.51-2.66,1.53-3.55,1.02-.89,2.58-1.34,4.68-1.34.96,0,1.78.09,2.46.28v-.55c0-.77.19-1.33.57-1.67.38-.34.92-.51,1.62-.51h2.29v3.04h-3.21v.17c.85.41,1.47.96,1.88,1.67.4.71.61,1.53.61,2.47,0,1.46-.51,2.62-1.53,3.5s-2.58,1.31-4.68,1.31c-.94,0-1.8-.1-2.57-.3-.42.28-.64.66-.64,1.16,0,.35.13.62.4.81s.71.29,1.34.29h4.2c1.77,0,3.05.37,3.85,1.11.8.74,1.2,1.78,1.2,3.12Zm-3.84.55c0-.42-.17-.75-.5-.97-.33-.22-.91-.33-1.74-.33h-4.97c-.18.18-.32.39-.4.62-.08.23-.12.46-.12.68,0,.53.23.93.69,1.17.46.25,1.24.37,2.35.37h1.66c1.11,0,1.89-.12,2.35-.37.46-.25.69-.64.69-1.17Zm-3.95-9.45c.81,0,1.41-.17,1.81-.51s.59-.83.59-1.47v-.33c0-.64-.2-1.13-.59-1.47-.4-.34-1-.51-1.81-.51s-1.41.17-1.81.51c-.4.34-.59.83-.59,1.47v.33c0,.64.2,1.13.59,1.47s1,.51,1.81.51Z"/>
    </g>
    <g class="cls-2">
      <path class="cls-5" d="m254.02,432.88v-14.51h4.09v3.15h.14c.07-.41.2-.8.39-1.17.18-.38.43-.71.73-1.01.3-.29.67-.53,1.09-.71.42-.17.92-.26,1.49-.26h.72v3.81h-1.02c-1.2,0-2.09.16-2.67.47-.58.31-.87.89-.87,1.74v8.48h-4.09Z"/>
    </g>
    <g class="cls-2">
      <path class="cls-5" d="m269.82,433.21c-1.07,0-2.02-.18-2.86-.53s-1.55-.86-2.13-1.52c-.58-.66-1.03-1.46-1.34-2.4-.31-.94-.47-1.99-.47-3.15s.16-2.21.47-3.15c.31-.94.76-1.74,1.34-2.39.58-.65,1.29-1.16,2.13-1.51.84-.35,1.79-.52,2.86-.52s2.02.17,2.86.52c.84.35,1.55.85,2.13,1.51.58.65,1.03,1.45,1.34,2.39.31.94.47,1.99.47,3.15s-.16,2.21-.47,3.15c-.31.94-.76,1.74-1.34,2.4-.58.66-1.29,1.17-2.13,1.52-.84.35-1.79.53-2.86.53Zm0-3.23c.81,0,1.44-.25,1.88-.75.44-.5.66-1.21.66-2.13v-2.96c0-.92-.22-1.63-.66-2.13s-1.07-.75-1.88-.75-1.44.25-1.88.75c-.44.5-.66,1.21-.66,2.13v2.96c0,.92.22,1.63.66,2.13.44.5,1.07.75,1.88.75Z"/>
    </g>
    <g class="cls-2">
      <path class="cls-5" d="m276.76,418.38h3.95l1.41,5.86.99,4.42h.11l1.16-4.42,1.66-5.86h3.73l1.69,5.86,1.19,4.42h.11l.99-4.42,1.41-5.86h3.79l-4.01,14.51h-4.28l-1.77-6.13-1.02-3.76h-.08l-.99,3.76-1.77,6.13h-4.2l-4.06-14.51Z"/>
      <path class="cls-5" d="m305.38,432.88c-1.42,0-2.49-.36-3.22-1.08-.73-.72-1.09-1.77-1.09-3.15v-7.1h-2.04v-3.18h1.02c.55,0,.93-.13,1.13-.4.2-.27.3-.65.3-1.15v-2.38h3.67v3.92h2.87v3.18h-2.87v8.15h2.65v3.18h-2.43Z"/>
      <path class="cls-5" d="m309.8,412.44h4.09v8.4h.17c.26-.75.71-1.41,1.35-1.96.64-.55,1.54-.83,2.68-.83,1.49,0,2.62.5,3.38,1.49.76.99,1.15,2.41,1.15,4.25v9.09h-4.09v-8.76c0-.94-.15-1.63-.44-2.09-.29-.45-.82-.68-1.57-.68-.33,0-.65.04-.97.12-.31.08-.59.22-.84.4-.25.18-.45.41-.59.68-.15.27-.22.58-.22.92v9.39h-4.09v-20.45Z"/>
      <path class="cls-5" d="m341.35,432.88c-.74,0-1.35-.23-1.84-.69-.49-.46-.8-1.08-.93-1.85h-.17c-.22.94-.71,1.65-1.46,2.14-.76.49-1.69.73-2.79.73-1.46,0-2.57-.39-3.34-1.16-.77-.77-1.16-1.79-1.16-3.06,0-1.52.56-2.66,1.67-3.4,1.11-.74,2.63-1.12,4.55-1.12h2.29v-.91c0-.7-.18-1.26-.55-1.67-.37-.42-.99-.62-1.85-.62-.81,0-1.46.18-1.93.53s-.88.75-1.19,1.19l-2.43-2.17c.59-.87,1.33-1.55,2.22-2.04.89-.49,2.1-.74,3.63-.74,2.06,0,3.61.45,4.64,1.35,1.03.9,1.55,2.22,1.55,3.95v6.35h1.35v3.18h-2.27Zm-5.66-2.51c.68,0,1.27-.15,1.75-.44.49-.29.73-.77.73-1.43v-1.7h-1.99c-1.6,0-2.4.54-2.4,1.62v.41c0,.53.17.92.5,1.17.33.25.8.37,1.41.37Z"/>
      <path class="cls-5" d="m345.28,432.88v-14.51h4.09v2.46h.17c.26-.75.71-1.41,1.35-1.96.64-.55,1.54-.83,2.68-.83,1.49,0,2.62.5,3.38,1.49.76.99,1.15,2.41,1.15,4.25v9.09h-4.09v-8.76c0-.94-.15-1.63-.44-2.09-.29-.45-.82-.68-1.57-.68-.33,0-.65.04-.97.12-.31.08-.59.22-.84.4-.25.18-.45.41-.59.68-.15.27-.22.58-.22.92v9.39h-4.09Z"/>
      <path class="cls-5" d="m369.56,430.45h-.14c-.11.39-.29.75-.52,1.09-.24.34-.53.64-.87.88-.34.25-.73.44-1.16.58-.43.14-.88.21-1.34.21-1.84,0-3.23-.65-4.17-1.95s-1.41-3.18-1.41-5.65.47-4.35,1.41-5.64c.94-1.29,2.33-1.93,4.17-1.93.94,0,1.77.26,2.5.77s1.19,1.18,1.4,1.99h.14v-8.37h4.09v20.45h-4.09v-2.43Zm-2.68-.55c.77,0,1.41-.19,1.92-.57.51-.38.76-.9.76-1.56v-4.28c0-.66-.25-1.18-.76-1.56-.51-.38-1.15-.57-1.92-.57s-1.41.27-1.92.82c-.51.54-.76,1.28-.76,2.2v2.51c0,.92.25,1.65.76,2.2s1.15.81,1.92.81Z"/>
    </g>
    <g class="cls-2">
      <path class="cls-5" d="m103.02,465.99c-1.4,0-2.58-.23-3.54-.68-.96-.45-1.81-1.09-2.57-1.92l2.4-2.43c.52.57,1.09,1.02,1.71,1.35.63.33,1.34.5,2.13.5s1.37-.12,1.69-.37c.31-.25.47-.58.47-1.01,0-.68-.49-1.09-1.46-1.22l-1.57-.19c-3.26-.4-4.89-1.9-4.89-4.48,0-.7.13-1.34.4-1.92.27-.58.64-1.08,1.13-1.49.49-.42,1.08-.74,1.77-.97.69-.23,1.47-.34,2.33-.34.75,0,1.42.05,2,.15.58.1,1.1.25,1.55.44.45.19.87.43,1.24.72s.75.6,1.12.95l-2.35,2.4c-.46-.46-.98-.82-1.56-1.09s-1.17-.4-1.78-.4c-.7,0-1.2.11-1.49.33-.29.22-.44.52-.44.88,0,.39.11.69.32.9.21.21.61.36,1.2.46l1.63.22c3.19.42,4.78,1.88,4.78,4.37,0,.7-.15,1.34-.44,1.93-.29.59-.71,1.1-1.26,1.53s-1.2.77-1.96,1.01c-.76.24-1.62.36-2.56.36Z"/>
    </g>
    <g class="cls-2">
      <path class="cls-5" d="m115.79,465.66c-1.42,0-2.49-.36-3.22-1.08-.73-.72-1.09-1.77-1.09-3.15v-7.1h-2.04v-3.18h1.02c.55,0,.93-.13,1.13-.4.2-.27.3-.65.3-1.15v-2.38h3.67v3.92h2.87v3.18h-2.87v8.15h2.65v3.18h-2.43Z"/>
      <path class="cls-5" d="m130.93,465.66c-.74,0-1.35-.23-1.84-.69-.49-.46-.8-1.08-.93-1.85h-.17c-.22.94-.71,1.65-1.46,2.14-.76.49-1.69.73-2.79.73-1.46,0-2.57-.39-3.34-1.16-.77-.77-1.16-1.79-1.16-3.06,0-1.52.56-2.66,1.67-3.4,1.11-.74,2.63-1.12,4.55-1.12h2.29v-.91c0-.7-.18-1.26-.55-1.67-.37-.42-.99-.62-1.85-.62-.81,0-1.46.18-1.93.53s-.88.75-1.19,1.19l-2.43-2.17c.59-.87,1.33-1.55,2.22-2.04.89-.49,2.1-.74,3.63-.74,2.06,0,3.61.45,4.64,1.35,1.03.9,1.55,2.22,1.55,3.95v6.35h1.35v3.18h-2.27Zm-5.66-2.51c.68,0,1.27-.15,1.75-.44.49-.29.73-.77.73-1.43v-1.7h-1.99c-1.6,0-2.4.54-2.4,1.62v.41c0,.53.17.92.5,1.17.33.25.8.37,1.41.37Z"/>
      <path class="cls-5" d="m134.85,445.21h4.09v8.37h.14c.2-.81.67-1.47,1.4-1.99.73-.52,1.56-.77,2.5-.77,1.84,0,3.23.64,4.17,1.93.94,1.29,1.41,3.17,1.41,5.64s-.47,4.35-1.41,5.65-2.33,1.95-4.17,1.95c-.48,0-.93-.07-1.35-.21-.42-.14-.81-.33-1.15-.58-.34-.25-.63-.54-.87-.88-.24-.34-.41-.71-.52-1.09h-.14v2.43h-4.09v-20.45Zm6.77,17.46c.77,0,1.41-.27,1.92-.81.51-.54.76-1.28.76-2.2v-2.51c0-.92-.25-1.65-.76-2.2-.51-.54-1.15-.82-1.92-.82s-1.41.19-1.92.57c-.51.38-.76.9-.76,1.56v4.28c0,.66.25,1.18.76,1.56.51.38,1.15.57,1.92.57Z"/>
      <path class="cls-5" d="m152.62,449.61c-.83,0-1.43-.19-1.81-.57-.38-.38-.57-.86-.57-1.45v-.61c0-.59.19-1.07.57-1.45s.98-.57,1.81-.57,1.43.19,1.81.57c.38.38.57.86.57,1.45v.61c0,.59-.19,1.07-.57,1.45-.38.38-.98.57-1.81.57Zm-2.04,1.55h4.09v14.51h-4.09v-14.51Z"/>
      <path class="cls-5" d="m161.46,465.66c-1.4,0-2.43-.34-3.08-1.02-.65-.68-.98-1.67-.98-2.96v-16.47h4.09v17.27h1.82v3.18h-1.85Z"/>
      <path class="cls-5" d="m166.73,449.61c-.83,0-1.43-.19-1.81-.57-.38-.38-.57-.86-.57-1.45v-.61c0-.59.19-1.07.57-1.45s.98-.57,1.81-.57,1.43.19,1.81.57c.38.38.57.86.57,1.45v.61c0,.59-.19,1.07-.57,1.45-.38.38-.98.57-1.81.57Zm-2.04,1.55h4.09v14.51h-4.09v-14.51Z"/>
      <path class="cls-5" d="m176.6,465.66c-1.42,0-2.49-.36-3.22-1.08-.73-.72-1.09-1.77-1.09-3.15v-7.1h-2.04v-3.18h1.02c.55,0,.93-.13,1.13-.4.2-.27.3-.65.3-1.15v-2.38h3.67v3.92h2.87v3.18h-2.87v8.15h2.65v3.18h-2.43Z"/>
      <path class="cls-5" d="m189.89,451.15h3.81l-5.58,16.74c-.37,1.12-.89,1.95-1.56,2.49-.67.53-1.63.8-2.89.8h-2.54v-3.18h2.74l.5-1.6-5.08-15.25h4.06l2.13,6.77,1.05,4.2h.17l1.08-4.2,2.13-6.77Z"/>
    </g>
    <g class="cls-2">
      <path class="cls-5" d="m205.78,465.99c-1.07,0-2.02-.18-2.86-.53s-1.55-.86-2.13-1.52c-.58-.66-1.03-1.46-1.34-2.4-.31-.94-.47-1.99-.47-3.15s.16-2.21.47-3.15c.31-.94.76-1.74,1.34-2.39.58-.65,1.29-1.16,2.13-1.51.84-.35,1.79-.52,2.86-.52s2.02.17,2.86.52c.84.35,1.55.85,2.13,1.51.58.65,1.03,1.45,1.34,2.39.31.94.47,1.99.47,3.15s-.16,2.21-.47,3.15c-.31.94-.76,1.74-1.34,2.4-.58.66-1.29,1.17-2.13,1.52-.84.35-1.79.53-2.86.53Zm0-3.23c.81,0,1.44-.25,1.88-.75.44-.5.66-1.21.66-2.13v-2.96c0-.92-.22-1.63-.66-2.13s-1.07-.75-1.88-.75-1.44.25-1.88.75c-.44.5-.66,1.21-.66,2.13v2.96c0,.92.22,1.63.66,2.13.44.5,1.07.75,1.88.75Z"/>
    </g>
    <g class="cls-2">
      <path class="cls-5" d="m214.92,454.33h-2.04v-3.18h2.04v-1.71c0-1.4.37-2.45,1.1-3.16.74-.71,1.81-1.06,3.23-1.06h2.65v3.18h-2.9v2.76h2.9v3.18h-2.9v11.33h-4.09v-11.33Z"/>
      <path class="cls-5" d="m234.59,465.99c-1.11,0-2.09-.18-2.96-.54-.87-.36-1.6-.87-2.2-1.52-.6-.65-1.05-1.45-1.35-2.39-.3-.94-.46-1.99-.46-3.15s.15-2.18.44-3.11c.29-.93.73-1.73,1.31-2.39.58-.66,1.29-1.17,2.14-1.53.85-.36,1.81-.54,2.9-.54,1.2,0,2.22.2,3.08.61.86.41,1.56.95,2.1,1.63.54.68.94,1.47,1.19,2.36s.37,1.83.37,2.8v1.22h-9.31v.22c0,.95.26,1.7.77,2.26.52.56,1.33.84,2.43.84.85,0,1.54-.17,2.07-.51s1.03-.74,1.49-1.22l2.04,2.55c-.65.76-1.49,1.35-2.53,1.77-1.04.42-2.22.64-3.55.64Zm-.08-12.16c-.83,0-1.48.27-1.95.81-.47.54-.7,1.27-.7,2.17v.22h5.08v-.25c0-.88-.2-1.6-.59-2.14-.4-.54-1.01-.81-1.84-.81Z"/>
      <path class="cls-5" d="m242.99,465.66v-14.51h4.09v2.46h.17c.26-.77.7-1.43,1.33-1.98.63-.54,1.48-.81,2.57-.81.99,0,1.84.25,2.54.75.7.5,1.21,1.22,1.52,2.18h.08c.13-.41.33-.79.59-1.15s.59-.67.98-.93.82-.46,1.3-.62c.48-.16.99-.23,1.55-.23,1.4,0,2.47.5,3.22,1.49.75.99,1.12,2.41,1.12,4.25v9.09h-4.09v-8.76c0-1.84-.66-2.76-1.99-2.76-.61,0-1.16.17-1.66.53-.5.35-.75.88-.75,1.6v9.39h-4.09v-8.76c0-1.84-.66-2.76-1.99-2.76-.29,0-.58.04-.87.12-.29.08-.54.22-.77.4-.23.18-.41.41-.55.68-.14.27-.21.58-.21.92v9.39h-4.09Z"/>
      <path class="cls-5" d="m272.67,465.99c-1.11,0-2.09-.18-2.96-.54-.87-.36-1.6-.87-2.2-1.52-.6-.65-1.05-1.45-1.35-2.39-.3-.94-.46-1.99-.46-3.15s.15-2.18.44-3.11c.29-.93.73-1.73,1.31-2.39.58-.66,1.29-1.17,2.14-1.53.85-.36,1.81-.54,2.9-.54,1.2,0,2.22.2,3.08.61.86.41,1.56.95,2.1,1.63.54.68.94,1.47,1.19,2.36s.37,1.83.37,2.8v1.22h-9.31v.22c0,.95.26,1.7.77,2.26.52.56,1.33.84,2.43.84.85,0,1.54-.17,2.07-.51s1.03-.74,1.49-1.22l2.04,2.55c-.65.76-1.49,1.35-2.53,1.77-1.04.42-2.22.64-3.55.64Zm-.08-12.16c-.83,0-1.48.27-1.95.81-.47.54-.7,1.27-.7,2.17v.22h5.08v-.25c0-.88-.2-1.6-.59-2.14-.4-.54-1.01-.81-1.84-.81Z"/>
    </g>
    <g class="cls-2">
      <path class="cls-5" d="m280.93,465.66v-14.51h4.09v3.15h.14c.07-.41.2-.8.39-1.17.18-.38.43-.71.73-1.01.3-.29.67-.53,1.09-.71.42-.17.92-.26,1.49-.26h.72v3.81h-1.02c-1.2,0-2.09.16-2.67.47-.58.31-.87.89-.87,1.74v8.48h-4.09Z"/>
    </g>
    <g class="cls-2">
      <path class="cls-5" d="m304.03,466.71c0,.77-.13,1.46-.4,2.04-.27.59-.7,1.09-1.31,1.51-.61.41-1.41.73-2.42.94-1,.21-2.24.32-3.72.32-1.25,0-2.32-.08-3.19-.23-.88-.16-1.58-.38-2.13-.66-.54-.29-.94-.64-1.19-1.05-.25-.41-.37-.89-.37-1.42,0-.81.24-1.45.72-1.91.48-.46,1.14-.75,1.99-.86v-.3c-.7-.13-1.23-.43-1.57-.9-.35-.47-.52-1.02-.52-1.65,0-.39.08-.72.23-1.01.16-.29.36-.53.61-.75.25-.21.54-.38.87-.51s.66-.23.99-.3v-.11c-.88-.4-1.54-.96-1.96-1.67-.42-.71-.64-1.53-.64-2.47,0-1.47.51-2.66,1.53-3.55,1.02-.89,2.58-1.34,4.68-1.34.96,0,1.78.09,2.46.28v-.55c0-.77.19-1.33.57-1.67.38-.34.92-.51,1.62-.51h2.29v3.04h-3.21v.17c.85.41,1.47.96,1.88,1.67.4.71.61,1.53.61,2.47,0,1.46-.51,2.62-1.53,3.5s-2.58,1.31-4.68,1.31c-.94,0-1.8-.1-2.57-.3-.42.28-.64.66-.64,1.16,0,.35.13.62.4.81s.71.29,1.34.29h4.2c1.77,0,3.05.37,3.85,1.11.8.74,1.2,1.78,1.2,3.12Zm-3.84.55c0-.42-.17-.75-.5-.97-.33-.22-.91-.33-1.74-.33h-4.97c-.18.18-.32.39-.4.62-.08.23-.12.46-.12.68,0,.53.23.93.69,1.17.46.25,1.24.37,2.35.37h1.66c1.11,0,1.89-.12,2.35-.37.46-.25.69-.64.69-1.17Zm-3.95-9.45c.81,0,1.41-.17,1.81-.51s.59-.83.59-1.47v-.33c0-.64-.2-1.13-.59-1.47-.4-.34-1-.51-1.81-.51s-1.41.17-1.81.51c-.4.34-.59.83-.59,1.47v.33c0,.64.2,1.13.59,1.47s1,.51,1.81.51Z"/>
      <path class="cls-5" d="m306.82,449.61c-.83,0-1.43-.19-1.81-.57-.38-.38-.57-.86-.57-1.45v-.61c0-.59.19-1.07.57-1.45s.98-.57,1.81-.57,1.43.19,1.81.57c.38.38.57.86.57,1.45v.61c0,.59-.19,1.07-.57,1.45-.38.38-.98.57-1.81.57Zm-2.04,1.55h4.09v14.51h-4.09v-14.51Z"/>
      <path class="cls-5" d="m311.6,465.66v-14.51h4.09v2.46h.17c.26-.75.71-1.41,1.35-1.96.64-.55,1.54-.83,2.68-.83,1.49,0,2.62.5,3.38,1.49.76.99,1.15,2.41,1.15,4.25v9.09h-4.09v-8.76c0-.94-.15-1.63-.44-2.09-.29-.45-.82-.68-1.57-.68-.33,0-.65.04-.97.12-.31.08-.59.22-.84.4-.25.18-.45.41-.59.68-.15.27-.22.58-.22.92v9.39h-4.09Z"/>
      <path class="cls-5" d="m340.41,466.71c0,.77-.13,1.46-.4,2.04-.27.59-.7,1.09-1.31,1.51-.61.41-1.41.73-2.42.94-1,.21-2.24.32-3.72.32-1.25,0-2.32-.08-3.19-.23-.88-.16-1.58-.38-2.13-.66-.54-.29-.94-.64-1.19-1.05-.25-.41-.37-.89-.37-1.42,0-.81.24-1.45.72-1.91.48-.46,1.14-.75,1.99-.86v-.3c-.7-.13-1.23-.43-1.57-.9-.35-.47-.52-1.02-.52-1.65,0-.39.08-.72.23-1.01.16-.29.36-.53.61-.75.25-.21.54-.38.87-.51s.66-.23.99-.3v-.11c-.88-.4-1.54-.96-1.96-1.67-.42-.71-.64-1.53-.64-2.47,0-1.47.51-2.66,1.53-3.55,1.02-.89,2.58-1.34,4.68-1.34.96,0,1.78.09,2.46.28v-.55c0-.77.19-1.33.57-1.67.38-.34.92-.51,1.62-.51h2.29v3.04h-3.21v.17c.85.41,1.47.96,1.88,1.67.4.71.61,1.53.61,2.47,0,1.46-.51,2.62-1.53,3.5s-2.58,1.31-4.68,1.31c-.94,0-1.8-.1-2.57-.3-.42.28-.64.66-.64,1.16,0,.35.13.62.4.81s.71.29,1.34.29h4.2c1.77,0,3.05.37,3.85,1.11.8.74,1.2,1.78,1.2,3.12Zm-3.84.55c0-.42-.17-.75-.5-.97-.33-.22-.91-.33-1.74-.33h-4.97c-.18.18-.32.39-.4.62-.08.23-.12.46-.12.68,0,.53.23.93.69,1.17.46.25,1.24.37,2.35.37h1.66c1.11,0,1.89-.12,2.35-.37.46-.25.69-.64.69-1.17Zm-3.95-9.45c.81,0,1.41-.17,1.81-.51s.59-.83.59-1.47v-.33c0-.64-.2-1.13-.59-1.47-.4-.34-1-.51-1.81-.51s-1.41.17-1.81.51c-.4.34-.59.83-.59,1.47v.33c0,.64.2,1.13.59,1.47s1,.51,1.81.51Z"/>
    </g>
    <g class="cls-2">
      <path class="cls-5" d="m79.38,498.44c-1.42,0-2.49-.36-3.22-1.08-.73-.72-1.09-1.77-1.09-3.15v-7.1h-2.04v-3.18h1.02c.55,0,.93-.13,1.13-.4.2-.27.3-.65.3-1.15v-2.38h3.67v3.92h2.87v3.18h-2.87v8.15h2.65v3.18h-2.43Z"/>
    </g>
    <g class="cls-2">
      <path class="cls-5" d="m89.71,498.77c-1.11,0-2.09-.18-2.96-.54-.87-.36-1.6-.87-2.2-1.52-.6-.65-1.05-1.45-1.35-2.39-.3-.94-.46-1.99-.46-3.15s.15-2.18.44-3.11c.29-.93.73-1.73,1.31-2.39.58-.66,1.29-1.17,2.14-1.53.85-.36,1.81-.54,2.9-.54,1.2,0,2.22.2,3.08.61.86.41,1.56.95,2.1,1.63.54.68.94,1.47,1.19,2.36s.37,1.83.37,2.8v1.22h-9.31v.22c0,.95.26,1.7.77,2.26.52.56,1.33.84,2.43.84.85,0,1.54-.17,2.07-.51s1.03-.74,1.49-1.22l2.04,2.55c-.65.76-1.49,1.35-2.53,1.77-1.04.42-2.22.64-3.55.64Zm-.08-12.16c-.83,0-1.48.27-1.95.81-.47.54-.7,1.27-.7,2.17v.22h5.08v-.25c0-.88-.2-1.6-.59-2.14-.4-.54-1.01-.81-1.84-.81Z"/>
      <path class="cls-5" d="m103.97,498.77c-1.09,0-2.05-.18-2.9-.54-.85-.36-1.56-.87-2.13-1.52-.57-.65-1-1.45-1.3-2.39s-.44-1.99-.44-3.15.15-2.21.44-3.14.73-1.73,1.3-2.39c.57-.66,1.28-1.17,2.13-1.52.85-.35,1.81-.52,2.9-.52,1.47,0,2.7.33,3.69.99.98.66,1.69,1.59,2.11,2.79l-3.32,1.44c-.13-.55-.4-1.02-.8-1.41s-.97-.58-1.69-.58c-.83,0-1.46.27-1.88.82-.42.54-.64,1.28-.64,2.2v2.71c0,.92.21,1.65.64,2.18.42.53,1.05.8,1.88.8.74,0,1.32-.2,1.75-.59.43-.4.75-.92.95-1.56l3.18,1.38c-.48,1.38-1.22,2.39-2.22,3.04s-2.22.97-3.66.97Z"/>
      <path class="cls-5" d="m111.32,477.99h4.09v8.4h.17c.26-.75.71-1.41,1.35-1.96.64-.55,1.54-.83,2.68-.83,1.49,0,2.62.5,3.38,1.49.76.99,1.15,2.41,1.15,4.25v9.09h-4.09v-8.76c0-.94-.15-1.63-.44-2.09-.29-.45-.82-.68-1.57-.68-.33,0-.65.04-.97.12-.31.08-.59.22-.84.4-.25.18-.45.41-.59.68-.15.27-.22.58-.22.92v9.39h-4.09v-20.45Z"/>
      <path class="cls-5" d="m126.71,498.44v-14.51h4.09v2.46h.17c.26-.75.71-1.41,1.35-1.96.64-.55,1.54-.83,2.68-.83,1.49,0,2.62.5,3.38,1.49.76.99,1.15,2.41,1.15,4.25v9.09h-4.09v-8.76c0-.94-.15-1.63-.44-2.09-.29-.45-.82-.68-1.57-.68-.33,0-.65.04-.97.12-.31.08-.59.22-.84.4-.25.18-.45.41-.59.68-.15.27-.22.58-.22.92v9.39h-4.09Z"/>
      <path class="cls-5" d="m147.98,498.77c-1.07,0-2.02-.18-2.86-.53s-1.55-.86-2.13-1.52c-.58-.66-1.03-1.46-1.34-2.4-.31-.94-.47-1.99-.47-3.15s.16-2.21.47-3.15c.31-.94.76-1.74,1.34-2.39.58-.65,1.29-1.16,2.13-1.51.84-.35,1.79-.52,2.86-.52s2.02.17,2.86.52c.84.35,1.55.85,2.13,1.51.58.65,1.03,1.45,1.34,2.39.31.94.47,1.99.47,3.15s-.16,2.21-.47,3.15c-.31.94-.76,1.74-1.34,2.4-.58.66-1.29,1.17-2.13,1.52-.84.35-1.79.53-2.86.53Zm0-3.23c.81,0,1.44-.25,1.88-.75.44-.5.66-1.21.66-2.13v-2.96c0-.92-.22-1.63-.66-2.13s-1.07-.75-1.88-.75-1.44.25-1.88.75c-.44.5-.66,1.21-.66,2.13v2.96c0,.92.22,1.63.66,2.13.44.5,1.07.75,1.88.75Z"/>
      <path class="cls-5" d="m160.67,498.44c-1.4,0-2.43-.34-3.08-1.02-.65-.68-.98-1.67-.98-2.96v-16.47h4.09v17.27h1.82v3.18h-1.85Z"/>
      <path class="cls-5" d="m169.78,498.77c-1.07,0-2.02-.18-2.86-.53s-1.55-.86-2.13-1.52c-.58-.66-1.03-1.46-1.34-2.4-.31-.94-.47-1.99-.47-3.15s.16-2.21.47-3.15c.31-.94.76-1.74,1.34-2.39.58-.65,1.29-1.16,2.13-1.51.84-.35,1.79-.52,2.86-.52s2.02.17,2.86.52c.84.35,1.55.85,2.13,1.51.58.65,1.03,1.45,1.34,2.39.31.94.47,1.99.47,3.15s-.16,2.21-.47,3.15c-.31.94-.76,1.74-1.34,2.4-.58.66-1.29,1.17-2.13,1.52-.84.35-1.79.53-2.86.53Zm0-3.23c.81,0,1.44-.25,1.88-.75.44-.5.66-1.21.66-2.13v-2.96c0-.92-.22-1.63-.66-2.13s-1.07-.75-1.88-.75-1.44.25-1.88.75c-.44.5-.66,1.21-.66,2.13v2.96c0,.92.22,1.63.66,2.13.44.5,1.07.75,1.88.75Z"/>
    </g>
    <g class="cls-2">
      <path class="cls-5" d="m191.64,499.49c0,.77-.13,1.46-.4,2.04-.27.59-.7,1.09-1.31,1.51-.61.41-1.41.73-2.42.94-1,.21-2.24.32-3.72.32-1.25,0-2.32-.08-3.19-.23-.88-.16-1.58-.38-2.13-.66-.54-.29-.94-.64-1.19-1.05-.25-.41-.37-.89-.37-1.42,0-.81.24-1.45.72-1.91.48-.46,1.14-.75,1.99-.86v-.3c-.7-.13-1.23-.43-1.57-.9-.35-.47-.52-1.02-.52-1.65,0-.39.08-.72.23-1.01.16-.29.36-.53.61-.75.25-.21.54-.38.87-.51s.66-.23.99-.3v-.11c-.88-.4-1.54-.96-1.96-1.67-.42-.71-.64-1.53-.64-2.47,0-1.47.51-2.66,1.53-3.55,1.02-.89,2.58-1.34,4.68-1.34.96,0,1.78.09,2.46.28v-.55c0-.77.19-1.33.57-1.67.38-.34.92-.51,1.62-.51h2.29v3.04h-3.21v.17c.85.41,1.47.96,1.88,1.67.4.71.61,1.53.61,2.47,0,1.46-.51,2.62-1.53,3.5s-2.58,1.31-4.68,1.31c-.94,0-1.8-.1-2.57-.3-.42.28-.64.66-.64,1.16,0,.35.13.62.4.81s.71.29,1.34.29h4.2c1.77,0,3.05.37,3.85,1.11.8.74,1.2,1.78,1.2,3.12Zm-3.84.55c0-.42-.17-.75-.5-.97-.33-.22-.91-.33-1.74-.33h-4.97c-.18.18-.32.39-.4.62-.08.23-.12.46-.12.68,0,.53.23.93.69,1.17.46.25,1.24.37,2.35.37h1.66c1.11,0,1.89-.12,2.35-.37.46-.25.69-.64.69-1.17Zm-3.95-9.45c.81,0,1.41-.17,1.81-.51s.59-.83.59-1.47v-.33c0-.64-.2-1.13-.59-1.47-.4-.34-1-.51-1.81-.51s-1.41.17-1.81.51c-.4.34-.59.83-.59,1.47v.33c0,.64.2,1.13.59,1.47s1,.51,1.81.51Z"/>
    </g>
    <g class="cls-2">
      <path class="cls-5" d="m201.36,483.93h3.81l-5.58,16.74c-.37,1.12-.89,1.95-1.56,2.49-.67.53-1.63.8-2.89.8h-2.54v-3.18h2.74l.5-1.6-5.08-15.25h4.06l2.13,6.77,1.05,4.2h.17l1.08-4.2,2.13-6.77Z"/>
    </g>
    <g class="cls-2">
      <path class="cls-5" d="m217.42,498.77c-1.09,0-2.05-.18-2.9-.54-.85-.36-1.56-.87-2.13-1.52-.57-.65-1-1.45-1.3-2.39s-.44-1.99-.44-3.15.15-2.21.44-3.14.73-1.73,1.3-2.39c.57-.66,1.28-1.17,2.13-1.52.85-.35,1.81-.52,2.9-.52,1.47,0,2.7.33,3.69.99.98.66,1.69,1.59,2.11,2.79l-3.32,1.44c-.13-.55-.4-1.02-.8-1.41s-.97-.58-1.69-.58c-.83,0-1.46.27-1.88.82-.42.54-.64,1.28-.64,2.2v2.71c0,.92.21,1.65.64,2.18.42.53,1.05.8,1.88.8.74,0,1.32-.2,1.75-.59.43-.4.75-.92.95-1.56l3.18,1.38c-.48,1.38-1.22,2.39-2.22,3.04s-2.22.97-3.66.97Z"/>
    </g>
    <g class="cls-2">
      <path class="cls-5" d="m230.49,498.77c-1.07,0-2.02-.18-2.86-.53s-1.55-.86-2.13-1.52c-.58-.66-1.03-1.46-1.34-2.4-.31-.94-.47-1.99-.47-3.15s.16-2.21.47-3.15c.31-.94.76-1.74,1.34-2.39.58-.65,1.29-1.16,2.13-1.51.84-.35,1.79-.52,2.86-.52s2.02.17,2.86.52c.84.35,1.55.85,2.13,1.51.58.65,1.03,1.45,1.34,2.39.31.94.47,1.99.47,3.15s-.16,2.21-.47,3.15c-.31.94-.76,1.74-1.34,2.4-.58.66-1.29,1.17-2.13,1.52-.84.35-1.79.53-2.86.53Zm0-3.23c.81,0,1.44-.25,1.88-.75.44-.5.66-1.21.66-2.13v-2.96c0-.92-.22-1.63-.66-2.13s-1.07-.75-1.88-.75-1.44.25-1.88.75c-.44.5-.66,1.21-.66,2.13v2.96c0,.92.22,1.63.66,2.13.44.5,1.07.75,1.88.75Z"/>
      <path class="cls-5" d="m244.99,498.77c-1.07,0-2.02-.18-2.86-.53s-1.55-.86-2.13-1.52c-.58-.66-1.03-1.46-1.34-2.4-.31-.94-.47-1.99-.47-3.15s.16-2.21.47-3.15c.31-.94.76-1.74,1.34-2.39.58-.65,1.29-1.16,2.13-1.51.84-.35,1.79-.52,2.86-.52s2.02.17,2.86.52c.84.35,1.55.85,2.13,1.51.58.65,1.03,1.45,1.34,2.39.31.94.47,1.99.47,3.15s-.16,2.21-.47,3.15c-.31.94-.76,1.74-1.34,2.4-.58.66-1.29,1.17-2.13,1.52-.84.35-1.79.53-2.86.53Zm0-3.23c.81,0,1.44-.25,1.88-.75.44-.5.66-1.21.66-2.13v-2.96c0-.92-.22-1.63-.66-2.13s-1.07-.75-1.88-.75-1.44.25-1.88.75c-.44.5-.66,1.21-.66,2.13v2.96c0,.92.22,1.63.66,2.13.44.5,1.07.75,1.88.75Z"/>
      <path class="cls-5" d="m253.61,483.93h4.09v2.43h.14c.2-.81.67-1.47,1.4-1.99.73-.52,1.56-.77,2.5-.77,1.84,0,3.23.64,4.17,1.93.94,1.29,1.41,3.17,1.41,5.64s-.47,4.35-1.41,5.65-2.33,1.95-4.17,1.95c-.48,0-.93-.07-1.35-.21-.42-.14-.81-.33-1.15-.58-.34-.25-.63-.54-.87-.88-.24-.34-.41-.71-.52-1.09h-.14v7.96h-4.09v-20.03Zm6.77,11.52c.77,0,1.41-.27,1.92-.81.51-.54.76-1.28.76-2.2v-2.51c0-.92-.25-1.65-.76-2.2-.51-.54-1.15-.82-1.92-.82s-1.41.19-1.92.57c-.51.38-.76.9-.76,1.56v4.28c0,.66.25,1.18.76,1.56.51.38,1.15.57,1.92.57Z"/>
      <path class="cls-5" d="m275.38,498.77c-1.11,0-2.09-.18-2.96-.54-.87-.36-1.6-.87-2.2-1.52-.6-.65-1.05-1.45-1.35-2.39-.3-.94-.46-1.99-.46-3.15s.15-2.18.44-3.11c.29-.93.73-1.73,1.31-2.39.58-.66,1.29-1.17,2.14-1.53.85-.36,1.81-.54,2.9-.54,1.2,0,2.22.2,3.08.61.86.41,1.56.95,2.1,1.63.54.68.94,1.47,1.19,2.36s.37,1.83.37,2.8v1.22h-9.31v.22c0,.95.26,1.7.77,2.26.52.56,1.33.84,2.43.84.85,0,1.54-.17,2.07-.51s1.03-.74,1.49-1.22l2.04,2.55c-.65.76-1.49,1.35-2.53,1.77-1.04.42-2.22.64-3.55.64Zm-.08-12.16c-.83,0-1.48.27-1.95.81-.47.54-.7,1.27-.7,2.17v.22h5.08v-.25c0-.88-.2-1.6-.59-2.14-.4-.54-1.01-.81-1.84-.81Z"/>
    </g>
    <g class="cls-2">
      <path class="cls-5" d="m283.67,498.44v-14.51h4.09v3.15h.14c.07-.41.2-.8.39-1.17.18-.38.43-.71.73-1.01.3-.29.67-.53,1.09-.71.42-.17.92-.26,1.49-.26h.72v3.81h-1.02c-1.2,0-2.09.16-2.67.47-.58.31-.87.89-.87,1.74v8.48h-4.09Z"/>
    </g>
    <g class="cls-2">
      <path class="cls-5" d="m304.06,498.44c-.74,0-1.35-.23-1.84-.69-.49-.46-.8-1.08-.93-1.85h-.17c-.22.94-.71,1.65-1.46,2.14-.76.49-1.69.73-2.79.73-1.46,0-2.57-.39-3.34-1.16-.77-.77-1.16-1.79-1.16-3.06,0-1.52.56-2.66,1.67-3.4,1.11-.74,2.63-1.12,4.55-1.12h2.29v-.91c0-.7-.18-1.26-.55-1.67-.37-.42-.99-.62-1.85-.62-.81,0-1.46.18-1.93.53s-.88.75-1.19,1.19l-2.43-2.17c.59-.87,1.33-1.55,2.22-2.04.89-.49,2.1-.74,3.63-.74,2.06,0,3.61.45,4.64,1.35,1.03.9,1.55,2.22,1.55,3.95v6.35h1.35v3.18h-2.27Zm-5.66-2.51c.68,0,1.27-.15,1.75-.44.49-.29.73-.77.73-1.43v-1.7h-1.99c-1.6,0-2.4.54-2.4,1.62v.41c0,.53.17.92.5,1.17.33.25.8.37,1.41.37Z"/>
    </g>
    <g class="cls-2">
      <path class="cls-5" d="m312.88,498.44c-1.42,0-2.49-.36-3.22-1.08-.73-.72-1.09-1.77-1.09-3.15v-7.1h-2.04v-3.18h1.02c.55,0,.93-.13,1.13-.4.2-.27.3-.65.3-1.15v-2.38h3.67v3.92h2.87v3.18h-2.87v8.15h2.65v3.18h-2.43Z"/>
      <path class="cls-5" d="m319.34,482.39c-.83,0-1.43-.19-1.81-.57-.38-.38-.57-.86-.57-1.45v-.61c0-.59.19-1.07.57-1.45s.98-.57,1.81-.57,1.43.19,1.81.57c.38.38.57.86.57,1.45v.61c0,.59-.19,1.07-.57,1.45-.38.38-.98.57-1.81.57Zm-2.04,1.55h4.09v14.51h-4.09v-14.51Z"/>
    </g>
    <g class="cls-2">
      <path class="cls-5" d="m327.16,498.44l-4.75-14.51h4.03l1.8,5.86,1.35,5.25h.22l1.35-5.25,1.74-5.86h3.87l-4.75,14.51h-4.86Z"/>
    </g>
    <g class="cls-2">
      <path class="cls-5" d="m343.66,498.77c-1.11,0-2.09-.18-2.96-.54-.87-.36-1.6-.87-2.2-1.52-.6-.65-1.05-1.45-1.35-2.39-.3-.94-.46-1.99-.46-3.15s.15-2.18.44-3.11c.29-.93.73-1.73,1.31-2.39.58-.66,1.29-1.17,2.14-1.53.85-.36,1.81-.54,2.9-.54,1.2,0,2.22.2,3.08.61.86.41,1.56.95,2.1,1.63.54.68.94,1.47,1.19,2.36s.37,1.83.37,2.8v1.22h-9.31v.22c0,.95.26,1.7.77,2.26.52.56,1.33.84,2.43.84.85,0,1.54-.17,2.07-.51s1.03-.74,1.49-1.22l2.04,2.55c-.65.76-1.49,1.35-2.53,1.77-1.04.42-2.22.64-3.55.64Zm-.08-12.16c-.83,0-1.48.27-1.95.81-.47.54-.7,1.27-.7,2.17v.22h5.08v-.25c0-.88-.2-1.6-.59-2.14-.4-.54-1.01-.81-1.84-.81Z"/>
      <path class="cls-5" d="m356.97,498.77c-1.4,0-2.58-.23-3.54-.68-.96-.45-1.81-1.09-2.57-1.92l2.4-2.43c.52.57,1.09,1.02,1.71,1.35.63.33,1.34.5,2.13.5s1.37-.12,1.69-.37c.31-.25.47-.58.47-1.01,0-.68-.49-1.09-1.46-1.22l-1.57-.19c-3.26-.4-4.89-1.9-4.89-4.48,0-.7.13-1.34.4-1.92.27-.58.64-1.08,1.13-1.49.49-.42,1.08-.74,1.77-.97.69-.23,1.47-.34,2.33-.34.75,0,1.42.05,2,.15.58.1,1.1.25,1.55.44.45.19.87.43,1.24.72s.75.6,1.12.95l-2.35,2.4c-.46-.46-.98-.82-1.56-1.09s-1.17-.4-1.78-.4c-.7,0-1.2.11-1.49.33-.29.22-.44.52-.44.88,0,.39.11.69.32.9.21.21.61.36,1.2.46l1.63.22c3.19.42,4.78,1.88,4.78,4.37,0,.7-.15,1.34-.44,1.93-.29.59-.71,1.1-1.26,1.53s-1.2.77-1.96,1.01c-.76.24-1.62.36-2.56.36Z"/>
    </g>
  </g>
  <g class="cls-2">
    <g class="cls-2">
      <path class="cls-5" d="m675.35,432.79v15.56h-4.2v-15.56h-5.22v-3.73h14.64v3.73h-5.22Z"/>
    </g>
    <g class="cls-2">
      <path class="cls-5" d="m686.21,448.68c-1.07,0-2.02-.18-2.86-.53s-1.55-.86-2.13-1.52-1.03-1.46-1.34-2.4c-.31-.94-.47-1.99-.47-3.15s.16-2.21.47-3.15c.31-.94.76-1.74,1.34-2.39.58-.65,1.29-1.16,2.13-1.51.84-.35,1.79-.52,2.86-.52s2.02.17,2.86.52c.84.35,1.55.85,2.13,1.51.58.65,1.03,1.45,1.34,2.39.31.94.47,1.99.47,3.15s-.16,2.21-.47,3.15c-.31.94-.76,1.74-1.34,2.4-.58.66-1.29,1.17-2.13,1.52-.84.35-1.79.53-2.86.53Zm0-3.23c.81,0,1.44-.25,1.88-.75.44-.5.66-1.21.66-2.13v-2.96c0-.92-.22-1.63-.66-2.13-.44-.5-1.07-.75-1.88-.75s-1.44.25-1.88.75c-.44.5-.66,1.21-.66,2.13v2.96c0,.92.22,1.63.66,2.13.44.5,1.07.75,1.88.75Z"/>
      <path class="cls-5" d="m709.17,445.91h-.14c-.11.39-.29.75-.53,1.09s-.53.64-.87.88c-.34.25-.73.44-1.16.58-.43.14-.88.21-1.34.21-1.84,0-3.23-.65-4.17-1.95-.94-1.3-1.41-3.18-1.41-5.65s.47-4.35,1.41-5.64c.94-1.29,2.33-1.93,4.17-1.93.94,0,1.77.26,2.5.77s1.19,1.18,1.4,1.99h.14v-8.37h4.09v20.45h-4.09v-2.43Zm-2.68-.55c.77,0,1.41-.19,1.92-.57.51-.38.76-.9.76-1.56v-4.28c0-.66-.25-1.18-.76-1.56-.51-.38-1.15-.57-1.92-.57s-1.41.27-1.92.82c-.51.54-.76,1.28-.76,2.2v2.51c0,.92.25,1.65.76,2.2.51.54,1.15.81,1.92.81Z"/>
    </g>
    <g class="cls-2">
      <path class="cls-5" d="m721.96,448.68c-1.1,0-2.09-.18-2.96-.54-.87-.36-1.6-.87-2.2-1.52-.6-.65-1.05-1.45-1.35-2.39-.3-.94-.46-1.99-.46-3.15s.15-2.18.44-3.11c.29-.93.73-1.73,1.31-2.39s1.29-1.17,2.14-1.53c.85-.36,1.81-.54,2.9-.54,1.2,0,2.22.2,3.08.61.86.41,1.56.95,2.1,1.63.54.68.94,1.47,1.19,2.36s.37,1.83.37,2.8v1.22h-9.31v.22c0,.95.26,1.7.77,2.26.51.56,1.33.84,2.43.84.85,0,1.54-.17,2.07-.51s1.03-.74,1.49-1.22l2.04,2.55c-.65.76-1.49,1.35-2.53,1.77-1.04.42-2.22.64-3.55.64Zm-.08-12.16c-.83,0-1.48.27-1.95.81-.47.54-.71,1.27-.71,2.17v.22h5.08v-.25c0-.88-.2-1.6-.59-2.14-.4-.54-1.01-.81-1.84-.81Z"/>
    </g>
    <g class="cls-2">
      <path class="cls-5" d="m733.15,448.35l-4.75-14.51h4.03l1.8,5.86,1.35,5.25h.22l1.35-5.25,1.74-5.86h3.87l-4.75,14.51h-4.86Z"/>
    </g>
    <g class="cls-2">
      <path class="cls-5" d="m749.65,448.68c-1.1,0-2.09-.18-2.96-.54-.87-.36-1.6-.87-2.2-1.52-.6-.65-1.05-1.45-1.35-2.39-.3-.94-.46-1.99-.46-3.15s.15-2.18.44-3.11c.29-.93.73-1.73,1.31-2.39s1.29-1.17,2.14-1.53c.85-.36,1.81-.54,2.9-.54,1.2,0,2.22.2,3.08.61.86.41,1.56.95,2.1,1.63.54.68.94,1.47,1.19,2.36s.37,1.83.37,2.8v1.22h-9.31v.22c0,.95.26,1.7.77,2.26.51.56,1.33.84,2.43.84.85,0,1.54-.17,2.07-.51s1.03-.74,1.49-1.22l2.04,2.55c-.65.76-1.49,1.35-2.53,1.77-1.04.42-2.22.64-3.55.64Zm-.08-12.16c-.83,0-1.48.27-1.95.81-.47.54-.71,1.27-.71,2.17v.22h5.08v-.25c0-.88-.2-1.6-.59-2.14-.4-.54-1.01-.81-1.84-.81Z"/>
      <path class="cls-5" d="m762.11,448.35c-1.4,0-2.43-.34-3.08-1.02-.65-.68-.98-1.67-.98-2.96v-16.47h4.09v17.27h1.82v3.18h-1.85Z"/>
      <path class="cls-5" d="m771.22,448.68c-1.07,0-2.02-.18-2.86-.53s-1.55-.86-2.13-1.52-1.03-1.46-1.34-2.4c-.31-.94-.47-1.99-.47-3.15s.16-2.21.47-3.15c.31-.94.76-1.74,1.34-2.39.58-.65,1.29-1.16,2.13-1.51.84-.35,1.79-.52,2.86-.52s2.02.17,2.86.52c.84.35,1.55.85,2.13,1.51.58.65,1.03,1.45,1.34,2.39.31.94.47,1.99.47,3.15s-.16,2.21-.47,3.15c-.31.94-.76,1.74-1.34,2.4-.58.66-1.29,1.17-2.13,1.52-.84.35-1.79.53-2.86.53Zm0-3.23c.81,0,1.44-.25,1.88-.75.44-.5.66-1.21.66-2.13v-2.96c0-.92-.22-1.63-.66-2.13-.44-.5-1.07-.75-1.88-.75s-1.44.25-1.88.75c-.44.5-.66,1.21-.66,2.13v2.96c0,.92.22,1.63.66,2.13.44.5,1.07.75,1.88.75Z"/>
      <path class="cls-5" d="m779.85,433.84h4.09v2.43h.14c.2-.81.67-1.47,1.4-1.99.73-.52,1.56-.77,2.5-.77,1.84,0,3.23.64,4.17,1.93.94,1.29,1.41,3.17,1.41,5.64s-.47,4.35-1.41,5.65-2.33,1.95-4.17,1.95c-.48,0-.93-.07-1.35-.21-.42-.14-.81-.33-1.15-.58-.34-.25-.63-.54-.87-.88-.24-.34-.42-.71-.53-1.09h-.14v7.96h-4.09v-20.03Zm6.77,11.52c.77,0,1.41-.27,1.92-.81s.76-1.28.76-2.2v-2.51c0-.92-.25-1.65-.76-2.2-.51-.54-1.15-.82-1.92-.82s-1.41.19-1.92.57c-.51.38-.76.9-.76,1.56v4.28c0,.66.25,1.18.76,1.56.51.38,1.15.57,1.92.57Z"/>
    </g>
    <g class="cls-2">
      <path class="cls-5" d="m805.96,448.35c-1.42,0-2.49-.36-3.22-1.08-.73-.72-1.09-1.77-1.09-3.15v-7.1h-2.04v-3.18h1.02c.55,0,.93-.13,1.13-.4.2-.27.3-.65.3-1.15v-2.38h3.67v3.92h2.87v3.18h-2.87v8.15h2.65v3.18h-2.43Z"/>
    </g>
    <g class="cls-2">
      <path class="cls-5" d="m816.29,448.68c-1.1,0-2.09-.18-2.96-.54-.87-.36-1.6-.87-2.2-1.52-.6-.65-1.05-1.45-1.35-2.39-.3-.94-.46-1.99-.46-3.15s.15-2.18.44-3.11c.29-.93.73-1.73,1.31-2.39s1.29-1.17,2.14-1.53c.85-.36,1.81-.54,2.9-.54,1.2,0,2.22.2,3.08.61.86.41,1.56.95,2.1,1.63.54.68.94,1.47,1.19,2.36s.37,1.83.37,2.8v1.22h-9.31v.22c0,.95.26,1.7.77,2.26.51.56,1.33.84,2.43.84.85,0,1.54-.17,2.07-.51s1.03-.74,1.49-1.22l2.04,2.55c-.65.76-1.49,1.35-2.53,1.77-1.04.42-2.22.64-3.55.64Zm-.08-12.16c-.83,0-1.48.27-1.95.81-.47.54-.71,1.27-.71,2.17v.22h5.08v-.25c0-.88-.2-1.6-.59-2.14-.4-.54-1.01-.81-1.84-.81Z"/>
      <path class="cls-5" d="m830.55,448.68c-1.09,0-2.05-.18-2.9-.54-.85-.36-1.56-.87-2.13-1.52-.57-.65-1-1.45-1.3-2.39s-.44-1.99-.44-3.15.15-2.21.44-3.14.73-1.73,1.3-2.39c.57-.66,1.28-1.17,2.13-1.52.85-.35,1.81-.52,2.9-.52,1.47,0,2.7.33,3.69.99s1.69,1.59,2.11,2.79l-3.32,1.44c-.13-.55-.4-1.02-.8-1.41s-.97-.58-1.69-.58c-.83,0-1.46.27-1.88.82s-.63,1.28-.63,2.2v2.71c0,.92.21,1.65.63,2.18s1.05.8,1.88.8c.74,0,1.32-.2,1.75-.59.43-.4.75-.92.95-1.56l3.18,1.38c-.48,1.38-1.22,2.39-2.22,3.04s-2.22.97-3.66.97Z"/>
      <path class="cls-5" d="m837.89,427.9h4.09v8.4h.17c.26-.75.71-1.41,1.35-1.96.64-.55,1.54-.83,2.68-.83,1.49,0,2.62.5,3.38,1.49.76.99,1.15,2.41,1.15,4.25v9.09h-4.09v-8.76c0-.94-.15-1.63-.44-2.09-.29-.45-.82-.68-1.58-.68-.33,0-.65.04-.97.12s-.59.22-.84.4c-.25.18-.45.41-.59.68-.15.27-.22.58-.22.92v9.39h-4.09v-20.45Z"/>
      <path class="cls-5" d="m853.28,448.35v-14.51h4.09v2.46h.17c.26-.75.71-1.41,1.35-1.96.64-.55,1.54-.83,2.68-.83,1.49,0,2.62.5,3.38,1.49.76.99,1.15,2.41,1.15,4.25v9.09h-4.09v-8.76c0-.94-.15-1.63-.44-2.09-.29-.45-.82-.68-1.58-.68-.33,0-.65.04-.97.12s-.59.22-.84.4c-.25.18-.45.41-.59.68-.15.27-.22.58-.22.92v9.39h-4.09Z"/>
      <path class="cls-5" d="m874.56,448.68c-1.07,0-2.02-.18-2.86-.53s-1.55-.86-2.13-1.52-1.03-1.46-1.34-2.4c-.31-.94-.47-1.99-.47-3.15s.16-2.21.47-3.15c.31-.94.76-1.74,1.34-2.39.58-.65,1.29-1.16,2.13-1.51.84-.35,1.79-.52,2.86-.52s2.02.17,2.86.52c.84.35,1.55.85,2.13,1.51.58.65,1.03,1.45,1.34,2.39.31.94.47,1.99.47,3.15s-.16,2.21-.47,3.15c-.31.94-.76,1.74-1.34,2.4-.58.66-1.29,1.17-2.13,1.52-.84.35-1.79.53-2.86.53Zm0-3.23c.81,0,1.44-.25,1.88-.75.44-.5.66-1.21.66-2.13v-2.96c0-.92-.22-1.63-.66-2.13-.44-.5-1.07-.75-1.88-.75s-1.44.25-1.88.75c-.44.5-.66,1.21-.66,2.13v2.96c0,.92.22,1.63.66,2.13.44.5,1.07.75,1.88.75Z"/>
      <path class="cls-5" d="m887.24,448.35c-1.4,0-2.43-.34-3.08-1.02-.65-.68-.98-1.67-.98-2.96v-16.47h4.09v17.27h1.82v3.18h-1.85Z"/>
      <path class="cls-5" d="m896.36,448.68c-1.07,0-2.02-.18-2.86-.53s-1.55-.86-2.13-1.52-1.03-1.46-1.34-2.4c-.31-.94-.47-1.99-.47-3.15s.16-2.21.47-3.15c.31-.94.76-1.74,1.34-2.39.58-.65,1.29-1.16,2.13-1.51.84-.35,1.79-.52,2.86-.52s2.02.17,2.86.52c.84.35,1.55.85,2.13,1.51.58.65,1.03,1.45,1.34,2.39.31.94.47,1.99.47,3.15s-.16,2.21-.47,3.15c-.31.94-.76,1.74-1.34,2.4-.58.66-1.29,1.17-2.13,1.52-.84.35-1.79.53-2.86.53Zm0-3.23c.81,0,1.44-.25,1.88-.75.44-.5.66-1.21.66-2.13v-2.96c0-.92-.22-1.63-.66-2.13-.44-.5-1.07-.75-1.88-.75s-1.44.25-1.88.75c-.44.5-.66,1.21-.66,2.13v2.96c0,.92.22,1.63.66,2.13.44.5,1.07.75,1.88.75Z"/>
    </g>
    <g class="cls-2">
      <path class="cls-5" d="m918.21,449.39c0,.77-.13,1.46-.4,2.04-.27.59-.7,1.09-1.31,1.51-.61.41-1.41.73-2.42.94-1,.21-2.24.32-3.72.32-1.25,0-2.32-.08-3.19-.23-.88-.16-1.58-.38-2.13-.66-.54-.29-.94-.64-1.19-1.05-.25-.41-.37-.89-.37-1.42,0-.81.24-1.45.72-1.91.48-.46,1.14-.75,1.99-.86v-.3c-.7-.13-1.22-.43-1.58-.9-.35-.47-.52-1.02-.52-1.65,0-.39.08-.72.23-1.01.16-.29.36-.53.61-.75.25-.21.54-.38.87-.51.33-.13.66-.23,1-.3v-.11c-.88-.4-1.54-.96-1.96-1.67-.42-.71-.64-1.53-.64-2.47,0-1.47.51-2.66,1.53-3.55s2.58-1.34,4.68-1.34c.96,0,1.78.09,2.46.28v-.55c0-.77.19-1.33.57-1.67.38-.34.92-.51,1.62-.51h2.29v3.04h-3.21v.17c.85.41,1.47.96,1.88,1.67.41.71.61,1.53.61,2.47,0,1.46-.51,2.62-1.53,3.5-1.02.88-2.58,1.31-4.68,1.31-.94,0-1.8-.1-2.57-.3-.42.28-.64.66-.64,1.16,0,.35.13.62.4.81s.71.29,1.34.29h4.2c1.77,0,3.05.37,3.85,1.11.8.74,1.2,1.78,1.2,3.12Zm-3.84.55c0-.42-.17-.75-.5-.97-.33-.22-.91-.33-1.74-.33h-4.97c-.18.18-.32.39-.4.62-.08.23-.12.46-.12.68,0,.53.23.93.69,1.17.46.25,1.24.37,2.35.37h1.66c1.1,0,1.89-.12,2.35-.37.46-.25.69-.64.69-1.17Zm-3.95-9.45c.81,0,1.41-.17,1.81-.51.4-.34.59-.83.59-1.47v-.33c0-.64-.2-1.13-.59-1.47-.4-.34-1-.51-1.81-.51s-1.41.17-1.81.51c-.4.34-.59.83-.59,1.47v.33c0,.64.2,1.13.59,1.47.4.34,1,.51,1.81.51Z"/>
    </g>
    <g class="cls-2">
      <path class="cls-5" d="m927.94,433.84h3.81l-5.58,16.74c-.37,1.12-.89,1.95-1.56,2.49-.67.53-1.63.8-2.89.8h-2.54v-3.18h2.74l.5-1.6-5.08-15.25h4.06l2.13,6.77,1.05,4.2h.17l1.08-4.2,2.13-6.77Z"/>
      <path class="cls-5" d="m936.81,433.84h3.95l1.41,5.86,1,4.42h.11l1.16-4.42,1.66-5.86h3.73l1.69,5.86,1.19,4.42h.11l1-4.42,1.41-5.86h3.79l-4.01,14.51h-4.28l-1.77-6.13-1.02-3.76h-.08l-.99,3.76-1.77,6.13h-4.2l-4.06-14.51Z"/>
      <path class="cls-5" d="m962.39,432.29c-.83,0-1.43-.19-1.81-.57-.38-.38-.57-.86-.57-1.45v-.61c0-.59.19-1.07.57-1.45.38-.38.98-.57,1.81-.57s1.43.19,1.81.57c.38.38.57.86.57,1.45v.61c0,.59-.19,1.07-.57,1.45s-.98.57-1.81.57Zm-2.04,1.55h4.09v14.51h-4.09v-14.51Z"/>
      <path class="cls-5" d="m972.26,448.35c-1.42,0-2.49-.36-3.22-1.08-.73-.72-1.09-1.77-1.09-3.15v-7.1h-2.04v-3.18h1.02c.55,0,.93-.13,1.13-.4.2-.27.3-.65.3-1.15v-2.38h3.67v3.92h2.87v3.18h-2.87v8.15h2.65v3.18h-2.43Z"/>
      <path class="cls-5" d="m976.68,427.9h4.09v8.4h.17c.26-.75.71-1.41,1.35-1.96.64-.55,1.54-.83,2.68-.83,1.49,0,2.62.5,3.38,1.49.76.99,1.15,2.41,1.15,4.25v9.09h-4.09v-8.76c0-.94-.15-1.63-.44-2.09-.29-.45-.82-.68-1.58-.68-.33,0-.65.04-.97.12s-.59.22-.84.4c-.25.18-.45.41-.59.68-.15.27-.22.58-.22.92v9.39h-4.09v-20.45Z"/>
      <path class="cls-5" d="m1008.23,448.35c-.74,0-1.35-.23-1.84-.69-.49-.46-.8-1.08-.93-1.85h-.17c-.22.94-.71,1.65-1.46,2.14-.75.49-1.69.73-2.79.73-1.46,0-2.57-.39-3.34-1.16-.77-.77-1.16-1.79-1.16-3.06,0-1.52.56-2.66,1.67-3.4,1.11-.74,2.63-1.12,4.54-1.12h2.29v-.91c0-.7-.18-1.26-.55-1.67-.37-.42-.99-.62-1.85-.62-.81,0-1.46.18-1.93.53-.48.35-.88.75-1.19,1.19l-2.43-2.17c.59-.87,1.33-1.55,2.22-2.04s2.1-.74,3.63-.74c2.06,0,3.61.45,4.64,1.35,1.03.9,1.55,2.22,1.55,3.95v6.35h1.35v3.18h-2.27Zm-5.66-2.51c.68,0,1.27-.15,1.75-.44.49-.29.73-.77.73-1.43v-1.7h-1.99c-1.6,0-2.4.54-2.4,1.62v.41c0,.53.17.92.5,1.17.33.25.8.37,1.41.37Z"/>
    </g>
    <g class="cls-2">
      <path class="cls-5" d="m674.33,481.46c-1.4,0-2.58-.23-3.54-.68-.96-.45-1.81-1.09-2.57-1.92l2.4-2.43c.52.57,1.09,1.02,1.71,1.35.63.33,1.34.5,2.13.5s1.37-.12,1.69-.37c.31-.25.47-.58.47-1.01,0-.68-.49-1.09-1.46-1.22l-1.58-.19c-3.26-.4-4.89-1.9-4.89-4.48,0-.7.13-1.34.4-1.92.27-.58.64-1.08,1.13-1.49.49-.42,1.08-.74,1.77-.97.69-.23,1.47-.34,2.33-.34.75,0,1.42.05,2,.15.58.1,1.1.25,1.55.44s.87.43,1.24.72c.38.29.75.6,1.12.95l-2.35,2.4c-.46-.46-.98-.82-1.56-1.09-.58-.27-1.17-.4-1.78-.4-.7,0-1.2.11-1.49.33-.29.22-.44.52-.44.88,0,.39.11.69.32.9.21.21.61.36,1.2.46l1.63.22c3.19.42,4.78,1.88,4.78,4.37,0,.7-.15,1.34-.44,1.93-.29.59-.71,1.1-1.26,1.53s-1.2.77-1.96,1.01-1.62.36-2.56.36Z"/>
      <path class="cls-5" d="m688.14,481.46c-1.07,0-2.02-.18-2.86-.53s-1.55-.86-2.13-1.52-1.03-1.46-1.34-2.4c-.31-.94-.47-1.99-.47-3.15s.16-2.21.47-3.15c.31-.94.76-1.74,1.34-2.39.58-.65,1.29-1.16,2.13-1.51.84-.35,1.79-.52,2.86-.52s2.02.17,2.86.52c.84.35,1.55.85,2.13,1.51.58.65,1.03,1.45,1.34,2.39.31.94.47,1.99.47,3.15s-.16,2.21-.47,3.15c-.31.94-.76,1.74-1.34,2.4-.58.66-1.29,1.17-2.13,1.52-.84.35-1.79.53-2.86.53Zm0-3.23c.81,0,1.44-.25,1.88-.75.44-.5.66-1.21.66-2.13v-2.96c0-.92-.22-1.63-.66-2.13-.44-.5-1.07-.75-1.88-.75s-1.44.25-1.88.75c-.44.5-.66,1.21-.66,2.13v2.96c0,.92.22,1.63.66,2.13.44.5,1.07.75,1.88.75Z"/>
      <path class="cls-5" d="m702.62,481.46c-1.09,0-2.05-.18-2.9-.54-.85-.36-1.56-.87-2.13-1.52-.57-.65-1-1.45-1.3-2.39s-.44-1.99-.44-3.15.15-2.21.44-3.14.73-1.73,1.3-2.39c.57-.66,1.28-1.17,2.13-1.52.85-.35,1.81-.52,2.9-.52,1.47,0,2.7.33,3.69.99s1.69,1.59,2.11,2.79l-3.32,1.44c-.13-.55-.4-1.02-.8-1.41s-.97-.58-1.69-.58c-.83,0-1.46.27-1.88.82s-.63,1.28-.63,2.2v2.71c0,.92.21,1.65.63,2.18s1.05.8,1.88.8c.74,0,1.32-.2,1.75-.59.43-.4.75-.92.95-1.56l3.18,1.38c-.48,1.38-1.22,2.39-2.22,3.04s-2.22.97-3.66.97Z"/>
      <path class="cls-5" d="m712.01,465.07c-.83,0-1.43-.19-1.81-.57-.38-.38-.57-.86-.57-1.45v-.61c0-.59.19-1.07.57-1.45.38-.38.98-.57,1.81-.57s1.43.19,1.81.57c.38.38.57.86.57,1.45v.61c0,.59-.19,1.07-.57,1.45s-.98.57-1.81.57Zm-2.04,1.55h4.09v14.51h-4.09v-14.51Z"/>
      <path class="cls-5" d="m727.52,481.12c-.74,0-1.35-.23-1.84-.69-.49-.46-.8-1.08-.93-1.85h-.17c-.22.94-.71,1.65-1.46,2.14-.75.49-1.69.73-2.79.73-1.46,0-2.57-.39-3.34-1.16-.77-.77-1.16-1.79-1.16-3.06,0-1.52.56-2.66,1.67-3.4,1.11-.74,2.63-1.12,4.54-1.12h2.29v-.91c0-.7-.18-1.26-.55-1.67-.37-.42-.99-.62-1.85-.62-.81,0-1.46.18-1.93.53-.48.35-.88.75-1.19,1.19l-2.43-2.17c.59-.87,1.33-1.55,2.22-2.04s2.1-.74,3.63-.74c2.06,0,3.61.45,4.64,1.35,1.03.9,1.55,2.22,1.55,3.95v6.35h1.35v3.18h-2.27Zm-5.66-2.51c.68,0,1.27-.15,1.75-.44.49-.29.73-.77.73-1.43v-1.7h-1.99c-1.6,0-2.4.54-2.4,1.62v.41c0,.53.17.92.5,1.17.33.25.8.37,1.41.37Z"/>
      <path class="cls-5" d="m735.5,481.12c-1.4,0-2.43-.34-3.08-1.02-.65-.68-.98-1.67-.98-2.96v-16.47h4.09v17.27h1.82v3.18h-1.85Z"/>
      <path class="cls-5" d="m754.9,481.12c-.74,0-1.35-.23-1.84-.69-.49-.46-.8-1.08-.93-1.85h-.17c-.22.94-.71,1.65-1.46,2.14-.75.49-1.69.73-2.79.73-1.46,0-2.57-.39-3.34-1.16-.77-.77-1.16-1.79-1.16-3.06,0-1.52.56-2.66,1.67-3.4,1.11-.74,2.63-1.12,4.54-1.12h2.29v-.91c0-.7-.18-1.26-.55-1.67-.37-.42-.99-.62-1.85-.62-.81,0-1.46.18-1.93.53-.48.35-.88.75-1.19,1.19l-2.43-2.17c.59-.87,1.33-1.55,2.22-2.04s2.1-.74,3.63-.74c2.06,0,3.61.45,4.64,1.35,1.03.9,1.55,2.22,1.55,3.95v6.35h1.35v3.18h-2.27Zm-5.66-2.51c.68,0,1.27-.15,1.75-.44.49-.29.73-.77.73-1.43v-1.7h-1.99c-1.6,0-2.4.54-2.4,1.62v.41c0,.53.17.92.5,1.17.33.25.8.37,1.41.37Z"/>
      <path class="cls-5" d="m758.82,481.12v-14.51h4.09v2.46h.17c.26-.75.71-1.41,1.35-1.96.64-.55,1.54-.83,2.68-.83,1.49,0,2.62.5,3.38,1.49.76.99,1.15,2.41,1.15,4.25v9.09h-4.09v-8.76c0-.94-.15-1.63-.44-2.09-.29-.45-.82-.68-1.58-.68-.33,0-.65.04-.97.12s-.59.22-.84.4c-.25.18-.45.41-.59.68-.15.27-.22.58-.22.92v9.39h-4.09Z"/>
      <path class="cls-5" d="m783.1,478.69h-.14c-.11.39-.29.75-.53,1.09s-.53.64-.87.88c-.34.25-.73.44-1.16.58-.43.14-.88.21-1.34.21-1.84,0-3.23-.65-4.17-1.95-.94-1.3-1.41-3.18-1.41-5.65s.47-4.35,1.41-5.64c.94-1.29,2.33-1.93,4.17-1.93.94,0,1.77.26,2.5.77s1.19,1.18,1.4,1.99h.14v-8.37h4.09v20.45h-4.09v-2.43Zm-2.68-.55c.77,0,1.41-.19,1.92-.57.51-.38.76-.9.76-1.56v-4.28c0-.66-.25-1.18-.76-1.56-.51-.38-1.15-.57-1.92-.57s-1.41.27-1.92.82c-.51.54-.76,1.28-.76,2.2v2.51c0,.92.25,1.65.76,2.2.51.54,1.15.81,1.92.81Z"/>
      <path class="cls-5" d="m795.37,466.62h4.09v2.43h.14c.2-.81.67-1.47,1.4-1.99.73-.52,1.56-.77,2.5-.77,1.84,0,3.23.64,4.17,1.93.94,1.29,1.41,3.17,1.41,5.64s-.47,4.35-1.41,5.65-2.33,1.95-4.17,1.95c-.48,0-.93-.07-1.35-.21-.42-.14-.81-.33-1.15-.58-.34-.25-.63-.54-.87-.88-.24-.34-.42-.71-.53-1.09h-.14v7.96h-4.09v-20.03Zm6.77,11.52c.77,0,1.41-.27,1.92-.81s.76-1.28.76-2.2v-2.51c0-.92-.25-1.65-.76-2.2-.51-.54-1.15-.82-1.92-.82s-1.41.19-1.92.57c-.51.38-.76.9-.76,1.56v4.28c0,.66.25,1.18.76,1.56.51.38,1.15.57,1.92.57Z"/>
      <path class="cls-5" d="m816.98,481.46c-1.07,0-2.02-.18-2.86-.53s-1.55-.86-2.13-1.52-1.03-1.46-1.34-2.4c-.31-.94-.47-1.99-.47-3.15s.16-2.21.47-3.15c.31-.94.76-1.74,1.34-2.39.58-.65,1.29-1.16,2.13-1.51.84-.35,1.79-.52,2.86-.52s2.02.17,2.86.52c.84.35,1.55.85,2.13,1.51.58.65,1.03,1.45,1.34,2.39.31.94.47,1.99.47,3.15s-.16,2.21-.47,3.15c-.31.94-.76,1.74-1.34,2.4-.58.66-1.29,1.17-2.13,1.52-.84.35-1.79.53-2.86.53Zm0-3.23c.81,0,1.44-.25,1.88-.75.44-.5.66-1.21.66-2.13v-2.96c0-.92-.22-1.63-.66-2.13-.44-.5-1.07-.75-1.88-.75s-1.44.25-1.88.75c-.44.5-.66,1.21-.66,2.13v2.96c0,.92.22,1.63.66,2.13.44.5,1.07.75,1.88.75Z"/>
      <path class="cls-5" d="m829.66,481.12c-1.4,0-2.43-.34-3.08-1.02-.65-.68-.98-1.67-.98-2.96v-16.47h4.09v17.27h1.82v3.18h-1.85Z"/>
      <path class="cls-5" d="m834.94,465.07c-.83,0-1.43-.19-1.81-.57-.38-.38-.57-.86-.57-1.45v-.61c0-.59.19-1.07.57-1.45.38-.38.98-.57,1.81-.57s1.43.19,1.81.57c.38.38.57.86.57,1.45v.61c0,.59-.19,1.07-.57,1.45s-.98.57-1.81.57Zm-2.04,1.55h4.09v14.51h-4.09v-14.51Z"/>
      <path class="cls-5" d="m844.8,481.12c-1.42,0-2.49-.36-3.22-1.08-.73-.72-1.09-1.77-1.09-3.15v-7.1h-2.04v-3.18h1.02c.55,0,.93-.13,1.13-.4.2-.27.3-.65.3-1.15v-2.38h3.67v3.92h2.87v3.18h-2.87v8.15h2.65v3.18h-2.43Z"/>
      <path class="cls-5" d="m851.26,465.07c-.83,0-1.43-.19-1.81-.57-.38-.38-.57-.86-.57-1.45v-.61c0-.59.19-1.07.57-1.45.38-.38.98-.57,1.81-.57s1.43.19,1.81.57c.38.38.57.86.57,1.45v.61c0,.59-.19,1.07-.57,1.45s-.98.57-1.81.57Zm-2.04,1.55h4.09v14.51h-4.09v-14.51Z"/>
      <path class="cls-5" d="m861.9,481.46c-1.09,0-2.05-.18-2.9-.54-.85-.36-1.56-.87-2.13-1.52-.57-.65-1-1.45-1.3-2.39s-.44-1.99-.44-3.15.15-2.21.44-3.14.73-1.73,1.3-2.39c.57-.66,1.28-1.17,2.13-1.52.85-.35,1.81-.52,2.9-.52,1.47,0,2.7.33,3.69.99s1.69,1.59,2.11,2.79l-3.32,1.44c-.13-.55-.4-1.02-.8-1.41s-.97-.58-1.69-.58c-.83,0-1.46.27-1.88.82s-.63,1.28-.63,2.2v2.71c0,.92.21,1.65.63,2.18s1.05.8,1.88.8c.74,0,1.32-.2,1.75-.59.43-.4.75-.92.95-1.56l3.18,1.38c-.48,1.38-1.22,2.39-2.22,3.04s-2.22.97-3.66.97Z"/>
      <path class="cls-5" d="m879.97,481.12c-.74,0-1.35-.23-1.84-.69-.49-.46-.8-1.08-.93-1.85h-.17c-.22.94-.71,1.65-1.46,2.14-.75.49-1.69.73-2.79.73-1.46,0-2.57-.39-3.34-1.16-.77-.77-1.16-1.79-1.16-3.06,0-1.52.56-2.66,1.67-3.4,1.11-.74,2.63-1.12,4.54-1.12h2.29v-.91c0-.7-.18-1.26-.55-1.67-.37-.42-.99-.62-1.85-.62-.81,0-1.46.18-1.93.53-.48.35-.88.75-1.19,1.19l-2.43-2.17c.59-.87,1.33-1.55,2.22-2.04s2.1-.74,3.63-.74c2.06,0,3.61.45,4.64,1.35,1.03.9,1.55,2.22,1.55,3.95v6.35h1.35v3.18h-2.27Zm-5.66-2.51c.68,0,1.27-.15,1.75-.44.49-.29.73-.77.73-1.43v-1.7h-1.99c-1.6,0-2.4.54-2.4,1.62v.41c0,.53.17.92.5,1.17.33.25.8.37,1.41.37Z"/>
      <path class="cls-5" d="m887.96,481.12c-1.4,0-2.43-.34-3.08-1.02-.65-.68-.98-1.67-.98-2.96v-16.47h4.09v17.27h1.82v3.18h-1.85Z"/>
      <path class="cls-5" d="m907.35,481.12c-.74,0-1.35-.23-1.84-.69-.49-.46-.8-1.08-.93-1.85h-.17c-.22.94-.71,1.65-1.46,2.14-.75.49-1.69.73-2.79.73-1.46,0-2.57-.39-3.34-1.16-.77-.77-1.16-1.79-1.16-3.06,0-1.52.56-2.66,1.67-3.4,1.11-.74,2.63-1.12,4.54-1.12h2.29v-.91c0-.7-.18-1.26-.55-1.67-.37-.42-.99-.62-1.85-.62-.81,0-1.46.18-1.93.53-.48.35-.88.75-1.19,1.19l-2.43-2.17c.59-.87,1.33-1.55,2.22-2.04s2.1-.74,3.63-.74c2.06,0,3.61.45,4.64,1.35,1.03.9,1.55,2.22,1.55,3.95v6.35h1.35v3.18h-2.27Zm-5.66-2.51c.68,0,1.27-.15,1.75-.44.49-.29.73-.77.73-1.43v-1.7h-1.99c-1.6,0-2.4.54-2.4,1.62v.41c0,.53.17.92.5,1.17.33.25.8.37,1.41.37Z"/>
      <path class="cls-5" d="m911.27,466.62h4.09v2.43h.14c.2-.81.67-1.47,1.4-1.99.73-.52,1.56-.77,2.5-.77,1.84,0,3.23.64,4.17,1.93.94,1.29,1.41,3.17,1.41,5.64s-.47,4.35-1.41,5.65-2.33,1.95-4.17,1.95c-.48,0-.93-.07-1.35-.21-.42-.14-.81-.33-1.15-.58-.34-.25-.63-.54-.87-.88-.24-.34-.42-.71-.53-1.09h-.14v7.96h-4.09v-20.03Zm6.77,11.52c.77,0,1.41-.27,1.92-.81s.76-1.28.76-2.2v-2.51c0-.92-.25-1.65-.76-2.2-.51-.54-1.15-.82-1.92-.82s-1.41.19-1.92.57c-.51.38-.76.9-.76,1.56v4.28c0,.66.25,1.18.76,1.56.51.38,1.15.57,1.92.57Z"/>
      <path class="cls-5" d="m927,466.62h4.09v2.43h.14c.2-.81.67-1.47,1.4-1.99.73-.52,1.56-.77,2.5-.77,1.84,0,3.23.64,4.17,1.93.94,1.29,1.41,3.17,1.41,5.64s-.47,4.35-1.41,5.65-2.33,1.95-4.17,1.95c-.48,0-.93-.07-1.35-.21-.42-.14-.81-.33-1.15-.58-.34-.25-.63-.54-.87-.88-.24-.34-.42-.71-.53-1.09h-.14v7.96h-4.09v-20.03Zm6.77,11.52c.77,0,1.41-.27,1.92-.81s.76-1.28.76-2.2v-2.51c0-.92-.25-1.65-.76-2.2-.51-.54-1.15-.82-1.92-.82s-1.41.19-1.92.57c-.51.38-.76.9-.76,1.56v4.28c0,.66.25,1.18.76,1.56.51.38,1.15.57,1.92.57Z"/>
    </g>
    <g class="cls-2">
      <path class="cls-5" d="m942.05,481.12v-14.51h4.09v3.15h.14c.07-.41.2-.8.39-1.17.18-.38.43-.71.73-1.01s.67-.53,1.09-.71c.42-.17.92-.26,1.49-.26h.72v3.81h-1.02c-1.2,0-2.09.16-2.67.47s-.87.89-.87,1.74v8.48h-4.09Z"/>
    </g>
    <g class="cls-2">
      <path class="cls-5" d="m957.86,481.46c-1.07,0-2.02-.18-2.86-.53s-1.55-.86-2.13-1.52-1.03-1.46-1.34-2.4c-.31-.94-.47-1.99-.47-3.15s.16-2.21.47-3.15c.31-.94.76-1.74,1.34-2.39.58-.65,1.29-1.16,2.13-1.51.84-.35,1.79-.52,2.86-.52s2.02.17,2.86.52c.84.35,1.55.85,2.13,1.51.58.65,1.03,1.45,1.34,2.39.31.94.47,1.99.47,3.15s-.16,2.21-.47,3.15c-.31.94-.76,1.74-1.34,2.4-.58.66-1.29,1.17-2.13,1.52-.84.35-1.79.53-2.86.53Zm0-3.23c.81,0,1.44-.25,1.88-.75.44-.5.66-1.21.66-2.13v-2.96c0-.92-.22-1.63-.66-2.13-.44-.5-1.07-.75-1.88-.75s-1.44.25-1.88.75c-.44.5-.66,1.21-.66,2.13v2.96c0,.92.22,1.63.66,2.13.44.5,1.07.75,1.88.75Z"/>
      <path class="cls-5" d="m977.2,481.12c-.74,0-1.35-.23-1.84-.69-.49-.46-.8-1.08-.93-1.85h-.17c-.22.94-.71,1.65-1.46,2.14-.75.49-1.69.73-2.79.73-1.46,0-2.57-.39-3.34-1.16-.77-.77-1.16-1.79-1.16-3.06,0-1.52.56-2.66,1.67-3.4,1.11-.74,2.63-1.12,4.54-1.12h2.29v-.91c0-.7-.18-1.26-.55-1.67-.37-.42-.99-.62-1.85-.62-.81,0-1.46.18-1.93.53-.48.35-.88.75-1.19,1.19l-2.43-2.17c.59-.87,1.33-1.55,2.22-2.04s2.1-.74,3.63-.74c2.06,0,3.61.45,4.64,1.35,1.03.9,1.55,2.22,1.55,3.95v6.35h1.35v3.18h-2.27Zm-5.66-2.51c.68,0,1.27-.15,1.75-.44.49-.29.73-.77.73-1.43v-1.7h-1.99c-1.6,0-2.4.54-2.4,1.62v.41c0,.53.17.92.5,1.17.33.25.8.37,1.41.37Z"/>
      <path class="cls-5" d="m986.98,481.46c-1.09,0-2.05-.18-2.9-.54-.85-.36-1.56-.87-2.13-1.52-.57-.65-1-1.45-1.3-2.39s-.44-1.99-.44-3.15.15-2.21.44-3.14.73-1.73,1.3-2.39c.57-.66,1.28-1.17,2.13-1.52.85-.35,1.81-.52,2.9-.52,1.47,0,2.7.33,3.69.99s1.69,1.59,2.11,2.79l-3.32,1.44c-.13-.55-.4-1.02-.8-1.41s-.97-.58-1.69-.58c-.83,0-1.46.27-1.88.82s-.63,1.28-.63,2.2v2.71c0,.92.21,1.65.63,2.18s1.05.8,1.88.8c.74,0,1.32-.2,1.75-.59.43-.4.75-.92.95-1.56l3.18,1.38c-.48,1.38-1.22,2.39-2.22,3.04s-2.22.97-3.66.97Z"/>
      <path class="cls-5" d="m994.33,460.68h4.09v8.4h.17c.26-.75.71-1.41,1.35-1.96.64-.55,1.54-.83,2.68-.83,1.49,0,2.62.5,3.38,1.49.76.99,1.15,2.41,1.15,4.25v9.09h-4.09v-8.76c0-.94-.15-1.63-.44-2.09-.29-.45-.82-.68-1.58-.68-.33,0-.65.04-.97.12s-.59.22-.84.4c-.25.18-.45.41-.59.68-.15.27-.22.58-.22.92v9.39h-4.09v-20.45Z"/>
    </g>
  </g>
  <line class="cls-3" x1="525.71" y1="207.57" x2="525.71" y2="167.48"/>
  <line class="cls-3" x1="525.71" y1="338.17" x2="525.71" y2="301.8"/>
  <g class="cls-2">
    <g class="cls-2">
      <path class="cls-1" d="m387.98,274.73c-2.32,0-4.41-.37-6.28-1.1-1.86-.74-3.45-1.83-4.76-3.29-1.31-1.45-2.32-3.27-3.04-5.44-.72-2.17-1.08-4.71-1.08-7.62s.36-5.43,1.08-7.67c.72-2.24,1.73-4.12,3.04-5.64,1.31-1.52,2.89-2.67,4.76-3.46,1.86-.78,3.96-1.18,6.28-1.18,3.17,0,5.79.65,7.85,1.94,2.06,1.29,3.71,3.33,4.95,6.1l-6.42,3.33c-.46-1.44-1.17-2.59-2.13-3.46-.96-.87-2.38-1.3-4.24-1.3-2.19,0-3.95.71-5.27,2.13-1.32,1.42-1.99,3.49-1.99,6.2v5.49c0,2.71.66,4.78,1.99,6.2,1.32,1.42,3.08,2.13,5.27,2.13,1.83,0,3.29-.5,4.39-1.5,1.1-1,1.9-2.2,2.43-3.6l6.08,3.53c-1.27,2.62-2.95,4.63-5.03,6.06-2.08,1.42-4.7,2.13-7.87,2.13Z"/>
    </g>
    <g class="cls-2">
      <path class="cls-1" d="m417.2,274.73c-2.26,0-4.31-.38-6.18-1.13-1.86-.75-3.45-1.87-4.76-3.36-1.31-1.49-2.32-3.33-3.04-5.54-.72-2.21-1.08-4.76-1.08-7.67s.36-5.47,1.08-7.67c.72-2.21,1.73-4.05,3.04-5.54,1.31-1.49,2.89-2.61,4.76-3.36,1.86-.75,3.92-1.13,6.18-1.13s4.31.38,6.18,1.13c1.86.75,3.45,1.87,4.76,3.36,1.31,1.49,2.32,3.33,3.04,5.54.72,2.21,1.08,4.76,1.08,7.67s-.36,5.47-1.08,7.67c-.72,2.21-1.73,4.05-3.04,5.54-1.31,1.49-2.89,2.61-4.76,3.36-1.86.75-3.92,1.13-6.18,1.13Zm0-6.62c2.26,0,4.01-.74,5.27-2.21,1.26-1.47,1.89-3.58,1.89-6.33v-5.1c0-2.75-.63-4.85-1.89-6.33-1.26-1.47-3.02-2.21-5.27-2.21s-4.01.74-5.27,2.21c-1.26,1.47-1.89,3.58-1.89,6.33v5.1c0,2.75.63,4.85,1.89,6.33,1.26,1.47,3.02,2.21,5.27,2.21Z"/>
      <path class="cls-1" d="m462.12,251.68h-.15l-2.5,5-6.67,12.11-6.52-12.06-2.6-5.39h-.15v22.8h-7.01v-34.23h7.89l8.38,16.03h.1l8.29-16.03h7.94v34.23h-7.01v-22.46Z"/>
      <path class="cls-1" d="m500.31,251.68h-.15l-2.5,5-6.67,12.11-6.52-12.06-2.6-5.39h-.15v22.8h-7.01v-34.23h7.89l8.38,16.03h.1l8.29-16.03h7.94v34.23h-7.01v-22.46Z"/>
    </g>
    <g class="cls-2">
      <path class="cls-1" d="m511.59,274.14v-5.93h4.41v-22.36h-4.41v-5.93h16.28v5.93h-4.41v22.36h4.41v5.93h-16.28Z"/>
    </g>
    <g class="cls-2">
      <path class="cls-1" d="m546.21,246.53v27.61h-7.45v-27.61h-9.27v-6.62h25.99v6.62h-9.27Z"/>
      <path class="cls-1" d="m584.21,251.68h-.15l-2.5,5-6.67,12.11-6.52-12.06-2.6-5.39h-.15v22.8h-7.01v-34.23h7.89l8.38,16.03h.1l8.29-16.03h7.94v34.23h-7.01v-22.46Z"/>
      <path class="cls-1" d="m596.81,274.14v-34.23h23.29v6.62h-15.84v6.96h13.58v6.62h-13.58v7.4h15.84v6.62h-23.29Z"/>
      <path class="cls-1" d="m635.06,257.96l-3.29-6.86h-.15v23.05h-7.01v-34.23h8.14l9.37,16.18,3.29,6.86h.15v-23.05h7.01v34.23h-8.14l-9.37-16.18Z"/>
      <path class="cls-1" d="m672.42,246.53v27.61h-7.45v-27.61h-9.27v-6.62h25.99v6.62h-9.27Z"/>
    </g>
  </g>
  <rect class="cls-4" x=".46" y="374.85" width="443.16" height="167.02" rx="83.51" ry="83.51"/>
  <rect class="cls-4" x="304.5" y=".46" width="443.16" height="167.02" rx="83.51" ry="83.51"/>
  <rect class="cls-4" x="616.57" y="375.68" width="443.16" height="167.02" rx="83.51" ry="83.51"/>
  <polyline class="cls-3" points="222.04 375.13 222.04 337.97 838.15 337.97 838.15 375.87"/>
</svg>