<?xml version="1.0" encoding="utf-8"?>
<!-- Generator: Adobe Illustrator 27.4.1, SVG Export Plug-In . SVG Version: 6.00 Build 0)  -->
<svg version="1.1" id="Capa_1" xmlns="http://www.w3.org/2000/svg" xmlns:xlink="http://www.w3.org/1999/xlink" x="0px" y="0px"
	 viewBox="0 0 1265.4 1080" style="enable-background:new 0 0 1265.4 1080;" xml:space="preserve">
<style type="text/css">
	.st0{fill:#1D1D1B;}
	.st1{fill:none;stroke:#000000;stroke-miterlimit:10;}
	.st2{fill:#6843E1;}
	.st3{fill:none;stroke:#1D1D1B;stroke-miterlimit:10;}
</style>
<g>
	<g>
		<path class="st0" d="M468.2,311.9V291h9.9c1,0,1.9,0.2,2.6,0.5c0.8,0.3,1.4,0.8,2,1.4c0.5,0.6,1,1.3,1.3,2.1
			c0.3,0.8,0.4,1.7,0.4,2.7c0,1-0.1,1.9-0.4,2.7c-0.3,0.8-0.7,1.5-1.3,2.1c-0.6,0.6-1.2,1-2,1.4c-0.8,0.3-1.7,0.5-2.6,0.5h-5.3v7.6
			H468.2z M472.8,300.4h4.8c0.7,0,1.2-0.2,1.6-0.5s0.6-0.9,0.6-1.5V297c0-0.7-0.2-1.2-0.6-1.5c-0.4-0.3-0.9-0.5-1.6-0.5h-4.8V300.4z
			"/>
		<path class="st0" d="M497.7,311.9c-0.8,0-1.5-0.2-2-0.8s-0.9-1.2-1-2h-0.2c-0.2,1-0.8,1.8-1.6,2.3c-0.8,0.5-1.8,0.8-3,0.8
			c-1.6,0-2.8-0.4-3.6-1.3c-0.8-0.8-1.3-1.9-1.3-3.3c0-1.7,0.6-2.9,1.8-3.7c1.2-0.8,2.9-1.2,4.9-1.2h2.5v-1c0-0.8-0.2-1.4-0.6-1.8
			c-0.4-0.5-1.1-0.7-2-0.7c-0.9,0-1.6,0.2-2.1,0.6c-0.5,0.4-1,0.8-1.3,1.3l-2.6-2.4c0.6-0.9,1.4-1.7,2.4-2.2c1-0.5,2.3-0.8,3.9-0.8
			c2.2,0,3.9,0.5,5,1.5c1.1,1,1.7,2.4,1.7,4.3v6.9h1.5v3.5H497.7z M491.5,309.2c0.7,0,1.4-0.2,1.9-0.5s0.8-0.8,0.8-1.5v-1.8H492
			c-1.7,0-2.6,0.6-2.6,1.8v0.4c0,0.6,0.2,1,0.5,1.3C490.3,309,490.8,309.2,491.5,309.2z"/>
		<path class="st0" d="M501.9,311.9v-15.8h4.4v3.4h0.2c0.1-0.4,0.2-0.9,0.4-1.3c0.2-0.4,0.5-0.8,0.8-1.1c0.3-0.3,0.7-0.6,1.2-0.8
			c0.5-0.2,1-0.3,1.6-0.3h0.8v4.1h-1.1c-1.3,0-2.3,0.2-2.9,0.5s-0.9,1-0.9,1.9v9.2H501.9z"/>
		<path class="st0" d="M524,311.9c-0.8,0-1.5-0.2-2-0.8s-0.9-1.2-1-2h-0.2c-0.2,1-0.8,1.8-1.6,2.3c-0.8,0.5-1.8,0.8-3,0.8
			c-1.6,0-2.8-0.4-3.6-1.3c-0.8-0.8-1.3-1.9-1.3-3.3c0-1.7,0.6-2.9,1.8-3.7c1.2-0.8,2.9-1.2,4.9-1.2h2.5v-1c0-0.8-0.2-1.4-0.6-1.8
			c-0.4-0.5-1.1-0.7-2-0.7c-0.9,0-1.6,0.2-2.1,0.6c-0.5,0.4-1,0.8-1.3,1.3l-2.6-2.4c0.6-0.9,1.4-1.7,2.4-2.2c1-0.5,2.3-0.8,3.9-0.8
			c2.2,0,3.9,0.5,5,1.5c1.1,1,1.7,2.4,1.7,4.3v6.9h1.5v3.5H524z M517.9,309.2c0.7,0,1.4-0.2,1.9-0.5s0.8-0.8,0.8-1.5v-1.8h-2.2
			c-1.7,0-2.6,0.6-2.6,1.8v0.4c0,0.6,0.2,1,0.5,1.3C516.7,309,517.2,309.2,517.9,309.2z"/>
		<path class="st0" d="M536.4,294.5c-0.9,0-1.6-0.2-2-0.6c-0.4-0.4-0.6-0.9-0.6-1.6v-0.7c0-0.6,0.2-1.2,0.6-1.6
			c0.4-0.4,1.1-0.6,2-0.6s1.6,0.2,2,0.6c0.4,0.4,0.6,0.9,0.6,1.6v0.7c0,0.6-0.2,1.2-0.6,1.6C537.9,294.3,537.3,294.5,536.4,294.5z
			 M534.1,296.1h4.4v15.8h-4.4V296.1z"/>
		<path class="st0" d="M541.5,311.9v-15.8h4.4v2.7h0.2c0.3-0.8,0.8-1.6,1.4-2.1c0.7-0.6,1.6-0.9,2.8-0.9c1.1,0,2,0.3,2.8,0.8
			c0.8,0.5,1.3,1.3,1.6,2.4h0.1c0.1-0.4,0.4-0.9,0.6-1.2c0.3-0.4,0.6-0.7,1.1-1s0.9-0.5,1.4-0.7c0.5-0.2,1.1-0.3,1.7-0.3
			c1.5,0,2.7,0.5,3.5,1.6s1.2,2.6,1.2,4.6v9.9h-4.4v-9.5c0-2-0.7-3-2.2-3c-0.7,0-1.3,0.2-1.8,0.6c-0.5,0.4-0.8,1-0.8,1.7v10.2h-4.4
			v-9.5c0-2-0.7-3-2.2-3c-0.3,0-0.6,0-0.9,0.1s-0.6,0.2-0.8,0.4c-0.3,0.2-0.5,0.4-0.6,0.7s-0.2,0.6-0.2,1v10.2H541.5z"/>
		<path class="st0" d="M567.1,296.1h4.4v2.6h0.2c0.2-0.9,0.7-1.6,1.5-2.2c0.8-0.6,1.7-0.8,2.7-0.8c2,0,3.5,0.7,4.5,2.1
			s1.5,3.4,1.5,6.1c0,2.7-0.5,4.7-1.5,6.1s-2.5,2.1-4.5,2.1c-0.5,0-1-0.1-1.5-0.2c-0.5-0.1-0.9-0.4-1.2-0.6c-0.4-0.3-0.7-0.6-0.9-1
			c-0.3-0.4-0.5-0.8-0.6-1.2h-0.2v8.6h-4.4V296.1z M574.5,308.7c0.8,0,1.5-0.3,2.1-0.9c0.5-0.6,0.8-1.4,0.8-2.4v-2.7
			c0-1-0.3-1.8-0.8-2.4c-0.6-0.6-1.2-0.9-2.1-0.9s-1.5,0.2-2.1,0.6c-0.6,0.4-0.8,1-0.8,1.7v4.7c0,0.7,0.3,1.3,0.8,1.7
			C572.9,308.5,573.6,308.7,574.5,308.7z"/>
		<path class="st0" d="M593.5,309.3h-0.1c-0.1,0.4-0.3,0.8-0.6,1.1c-0.2,0.4-0.5,0.7-0.9,1c-0.4,0.3-0.8,0.5-1.3,0.7
			c-0.5,0.2-1.1,0.2-1.7,0.2c-1.6,0-2.8-0.5-3.7-1.6c-0.8-1.1-1.2-2.6-1.2-4.6v-9.9h4.4v9.5c0,1,0.2,1.7,0.5,2.2
			c0.3,0.5,0.9,0.8,1.7,0.8c0.3,0,0.7,0,1-0.1c0.3-0.1,0.6-0.2,0.9-0.4c0.3-0.2,0.5-0.4,0.6-0.7c0.2-0.3,0.2-0.6,0.2-1v-10.2h4.4
			v15.8h-4.4V309.3z"/>
		<path class="st0" d="M605.3,311.9c-1.5,0-2.6-0.4-3.3-1.1c-0.7-0.7-1.1-1.8-1.1-3.2v-17.9h4.4v18.8h2v3.5H605.3z"/>
		<path class="st0" d="M614.1,312.3c-1.5,0-2.8-0.2-3.8-0.7s-2-1.2-2.8-2.1l2.6-2.6c0.6,0.6,1.2,1.1,1.9,1.5
			c0.7,0.4,1.4,0.5,2.3,0.5c0.9,0,1.5-0.1,1.8-0.4c0.3-0.3,0.5-0.6,0.5-1.1c0-0.7-0.5-1.2-1.6-1.3l-1.7-0.2
			c-3.5-0.4-5.3-2.1-5.3-4.9c0-0.8,0.1-1.5,0.4-2.1c0.3-0.6,0.7-1.2,1.2-1.6c0.5-0.5,1.2-0.8,1.9-1.1c0.8-0.2,1.6-0.4,2.5-0.4
			c0.8,0,1.5,0.1,2.2,0.2c0.6,0.1,1.2,0.3,1.7,0.5s0.9,0.5,1.4,0.8c0.4,0.3,0.8,0.7,1.2,1l-2.6,2.6c-0.5-0.5-1.1-0.9-1.7-1.2
			s-1.3-0.4-1.9-0.4c-0.8,0-1.3,0.1-1.6,0.4c-0.3,0.2-0.5,0.6-0.5,1c0,0.4,0.1,0.7,0.3,1c0.2,0.2,0.7,0.4,1.3,0.5l1.8,0.2
			c3.5,0.5,5.2,2,5.2,4.7c0,0.8-0.2,1.5-0.5,2.1c-0.3,0.6-0.8,1.2-1.4,1.7s-1.3,0.8-2.1,1.1S615.1,312.3,614.1,312.3z"/>
		<path class="st0" d="M634.3,311.9c-0.8,0-1.5-0.2-2-0.8c-0.5-0.5-0.9-1.2-1-2h-0.2c-0.2,1-0.8,1.8-1.6,2.3c-0.8,0.5-1.8,0.8-3,0.8
			c-1.6,0-2.8-0.4-3.6-1.3c-0.8-0.8-1.3-1.9-1.3-3.3c0-1.7,0.6-2.9,1.8-3.7c1.2-0.8,2.9-1.2,4.9-1.2h2.5v-1c0-0.8-0.2-1.4-0.6-1.8
			c-0.4-0.5-1.1-0.7-2-0.7c-0.9,0-1.6,0.2-2.1,0.6c-0.5,0.4-1,0.8-1.3,1.3l-2.6-2.4c0.6-0.9,1.4-1.7,2.4-2.2c1-0.5,2.3-0.8,3.9-0.8
			c2.2,0,3.9,0.5,5,1.5c1.1,1,1.7,2.4,1.7,4.3v6.9h1.5v3.5H634.3z M628.2,309.2c0.7,0,1.4-0.2,1.9-0.5c0.5-0.3,0.8-0.8,0.8-1.5v-1.8
			h-2.2c-1.7,0-2.6,0.6-2.6,1.8v0.4c0,0.6,0.2,1,0.5,1.3C627,309,627.5,309.2,628.2,309.2z"/>
		<path class="st0" d="M638.5,311.9v-15.8h4.4v3.4h0.2c0.1-0.4,0.2-0.9,0.4-1.3c0.2-0.4,0.5-0.8,0.8-1.1c0.3-0.3,0.7-0.6,1.2-0.8
			c0.5-0.2,1-0.3,1.6-0.3h0.8v4.1h-1.1c-1.3,0-2.3,0.2-2.9,0.5s-0.9,1-0.9,1.9v9.2H638.5z"/>
		<path class="st0" d="M661.9,312.3c-1.2,0-2.3-0.2-3.2-0.6c-0.9-0.4-1.7-0.9-2.4-1.7c-0.7-0.7-1.1-1.6-1.5-2.6
			c-0.3-1-0.5-2.2-0.5-3.4c0-1.2,0.2-2.4,0.5-3.4s0.8-1.9,1.4-2.6c0.6-0.7,1.4-1.3,2.3-1.7c0.9-0.4,2-0.6,3.2-0.6
			c1.3,0,2.4,0.2,3.3,0.7c0.9,0.4,1.7,1,2.3,1.8c0.6,0.7,1,1.6,1.3,2.6c0.3,1,0.4,2,0.4,3v1.3h-10.1v0.2c0,1,0.3,1.8,0.8,2.5
			c0.6,0.6,1.4,0.9,2.6,0.9c0.9,0,1.7-0.2,2.2-0.5s1.1-0.8,1.6-1.3l2.2,2.8c-0.7,0.8-1.6,1.5-2.7,1.9
			C664.6,312,663.3,312.3,661.9,312.3z M661.8,299.1c-0.9,0-1.6,0.3-2.1,0.9s-0.8,1.4-0.8,2.4v0.2h5.5v-0.3c0-1-0.2-1.7-0.6-2.3
			C663.4,299.4,662.7,299.1,661.8,299.1z"/>
		<path class="st0" d="M675.4,311.9c-1.5,0-2.6-0.4-3.3-1.1c-0.7-0.7-1.1-1.8-1.1-3.2v-17.9h4.4v18.8h2v3.5H675.4z"/>
		<path class="st0" d="M687,294.5c-0.9,0-1.6-0.2-2-0.6s-0.6-0.9-0.6-1.6v-0.7c0-0.6,0.2-1.2,0.6-1.6c0.4-0.4,1.1-0.6,2-0.6
			c0.9,0,1.6,0.2,2,0.6c0.4,0.4,0.6,0.9,0.6,1.6v0.7c0,0.6-0.2,1.2-0.6,1.6S687.9,294.5,687,294.5z M684.8,296.1h4.4v15.8h-4.4
			V296.1z"/>
		<path class="st0" d="M692.1,311.9v-15.8h4.4v2.7h0.2c0.3-0.8,0.8-1.6,1.4-2.1s1.6-0.9,2.8-0.9c1.1,0,2,0.3,2.8,0.8
			c0.8,0.5,1.3,1.3,1.6,2.4h0.1c0.1-0.4,0.4-0.9,0.6-1.2c0.3-0.4,0.6-0.7,1.1-1s0.9-0.5,1.4-0.7c0.5-0.2,1.1-0.3,1.7-0.3
			c1.5,0,2.7,0.5,3.5,1.6c0.8,1.1,1.2,2.6,1.2,4.6v9.9h-4.4v-9.5c0-2-0.7-3-2.2-3c-0.7,0-1.3,0.2-1.8,0.6c-0.5,0.4-0.8,1-0.8,1.7
			v10.2h-4.4v-9.5c0-2-0.7-3-2.2-3c-0.3,0-0.6,0-0.9,0.1c-0.3,0.1-0.6,0.2-0.8,0.4c-0.2,0.2-0.5,0.4-0.6,0.7c-0.2,0.3-0.2,0.6-0.2,1
			v10.2H692.1z"/>
		<path class="st0" d="M717.8,296.1h4.4v2.6h0.2c0.2-0.9,0.7-1.6,1.5-2.2c0.8-0.6,1.7-0.8,2.7-0.8c2,0,3.5,0.7,4.5,2.1
			c1,1.4,1.5,3.4,1.5,6.1c0,2.7-0.5,4.7-1.5,6.1c-1,1.4-2.5,2.1-4.5,2.1c-0.5,0-1-0.1-1.5-0.2c-0.5-0.1-0.9-0.4-1.2-0.6
			c-0.4-0.3-0.7-0.6-0.9-1c-0.3-0.4-0.5-0.8-0.6-1.2h-0.2v8.6h-4.4V296.1z M725.1,308.7c0.8,0,1.5-0.3,2.1-0.9s0.8-1.4,0.8-2.4v-2.7
			c0-1-0.3-1.8-0.8-2.4s-1.2-0.9-2.1-0.9s-1.5,0.2-2.1,0.6s-0.8,1-0.8,1.7v4.7c0,0.7,0.3,1.3,0.8,1.7
			C723.6,308.5,724.3,308.7,725.1,308.7z"/>
		<path class="st0" d="M746.4,311.9c-0.8,0-1.5-0.2-2-0.8s-0.9-1.2-1-2h-0.2c-0.2,1-0.8,1.8-1.6,2.3c-0.8,0.5-1.8,0.8-3,0.8
			c-1.6,0-2.8-0.4-3.6-1.3c-0.8-0.8-1.3-1.9-1.3-3.3c0-1.7,0.6-2.9,1.8-3.7c1.2-0.8,2.9-1.2,4.9-1.2h2.5v-1c0-0.8-0.2-1.4-0.6-1.8
			c-0.4-0.5-1.1-0.7-2-0.7c-0.9,0-1.6,0.2-2.1,0.6c-0.5,0.4-1,0.8-1.3,1.3l-2.6-2.4c0.6-0.9,1.4-1.7,2.4-2.2c1-0.5,2.3-0.8,3.9-0.8
			c2.2,0,3.9,0.5,5,1.5c1.1,1,1.7,2.4,1.7,4.3v6.9h1.5v3.5H746.4z M740.3,309.2c0.7,0,1.4-0.2,1.9-0.5s0.8-0.8,0.8-1.5v-1.8h-2.2
			c-1.7,0-2.6,0.6-2.6,1.8v0.4c0,0.6,0.2,1,0.5,1.3C739.1,309,739.6,309.2,740.3,309.2z"/>
		<path class="st0" d="M757,312.3c-1.2,0-2.2-0.2-3.1-0.6c-0.9-0.4-1.7-0.9-2.3-1.7s-1.1-1.6-1.4-2.6c-0.3-1-0.5-2.2-0.5-3.4
			c0-1.3,0.2-2.4,0.5-3.4c0.3-1,0.8-1.9,1.4-2.6c0.6-0.7,1.4-1.3,2.3-1.7c0.9-0.4,2-0.6,3.1-0.6c1.6,0,2.9,0.4,4,1.1
			c1.1,0.7,1.8,1.7,2.3,3l-3.6,1.6c-0.1-0.6-0.4-1.1-0.9-1.5s-1-0.6-1.8-0.6c-0.9,0-1.6,0.3-2,0.9s-0.7,1.4-0.7,2.4v2.9
			c0,1,0.2,1.8,0.7,2.4s1.1,0.9,2,0.9c0.8,0,1.4-0.2,1.9-0.6c0.5-0.4,0.8-1,1-1.7l3.5,1.5c-0.5,1.5-1.3,2.6-2.4,3.3
			C759.9,311.9,758.6,312.3,757,312.3z"/>
		<path class="st0" d="M770.5,311.9c-1.5,0-2.7-0.4-3.5-1.2s-1.2-1.9-1.2-3.4v-7.7h-2.2v-3.5h1.1c0.6,0,1-0.1,1.2-0.4
			c0.2-0.3,0.3-0.7,0.3-1.2v-2.6h4v4.3h3.1v3.5h-3.1v8.8h2.9v3.5H770.5z"/>
		<path class="st0" d="M781.5,312.3c-1.2,0-2.2-0.2-3.1-0.6c-0.9-0.4-1.7-0.9-2.3-1.7c-0.6-0.7-1.1-1.6-1.5-2.6
			c-0.3-1-0.5-2.2-0.5-3.4c0-1.3,0.2-2.4,0.5-3.4c0.3-1,0.8-1.9,1.5-2.6c0.6-0.7,1.4-1.3,2.3-1.6c0.9-0.4,1.9-0.6,3.1-0.6
			s2.2,0.2,3.1,0.6c0.9,0.4,1.7,0.9,2.3,1.6c0.6,0.7,1.1,1.6,1.5,2.6c0.3,1,0.5,2.2,0.5,3.4c0,1.3-0.2,2.4-0.5,3.4
			c-0.3,1-0.8,1.9-1.5,2.6c-0.6,0.7-1.4,1.3-2.3,1.7C783.7,312.1,782.7,312.3,781.5,312.3z M781.5,308.7c0.9,0,1.6-0.3,2-0.8
			s0.7-1.3,0.7-2.3v-3.2c0-1-0.2-1.8-0.7-2.3s-1.2-0.8-2-0.8s-1.6,0.3-2,0.8c-0.5,0.5-0.7,1.3-0.7,2.3v3.2c0,1,0.2,1.8,0.7,2.3
			C780,308.5,780.7,308.7,781.5,308.7z"/>
		<path class="st0" d="M460.6,347.8c-1.2,0-2.3-0.2-3.2-0.6c-0.9-0.4-1.7-0.9-2.4-1.7s-1.1-1.6-1.5-2.6c-0.3-1-0.5-2.2-0.5-3.4
			c0-1.2,0.2-2.4,0.5-3.4c0.3-1,0.8-1.9,1.4-2.6c0.6-0.7,1.4-1.3,2.3-1.7c0.9-0.4,2-0.6,3.1-0.6c1.3,0,2.4,0.2,3.3,0.7
			c0.9,0.4,1.7,1,2.3,1.8c0.6,0.7,1,1.6,1.3,2.6c0.3,1,0.4,2,0.4,3v1.3h-10.1v0.2c0,1,0.3,1.8,0.8,2.5c0.6,0.6,1.4,0.9,2.6,0.9
			c0.9,0,1.7-0.2,2.2-0.5s1.1-0.8,1.6-1.3l2.2,2.8c-0.7,0.8-1.6,1.5-2.7,1.9C463.3,347.6,462.1,347.8,460.6,347.8z M460.5,334.6
			c-0.9,0-1.6,0.3-2.1,0.9c-0.5,0.6-0.8,1.4-0.8,2.4v0.2h5.5v-0.3c0-1-0.2-1.7-0.6-2.3C462.1,334.9,461.4,334.6,460.5,334.6z"/>
		<path class="st0" d="M476.1,347.8c-1.2,0-2.2-0.2-3.2-0.6c-0.9-0.4-1.7-0.9-2.3-1.7c-0.6-0.7-1.1-1.6-1.4-2.6
			c-0.3-1-0.5-2.2-0.5-3.4c0-1.3,0.2-2.4,0.5-3.4c0.3-1,0.8-1.9,1.4-2.6c0.6-0.7,1.4-1.3,2.3-1.7s2-0.6,3.2-0.6c1.6,0,2.9,0.4,4,1.1
			c1.1,0.7,1.8,1.7,2.3,3l-3.6,1.6c-0.1-0.6-0.4-1.1-0.9-1.5s-1-0.6-1.8-0.6c-0.9,0-1.6,0.3-2,0.9c-0.5,0.6-0.7,1.4-0.7,2.4v2.9
			c0,1,0.2,1.8,0.7,2.4c0.5,0.6,1.1,0.9,2,0.9c0.8,0,1.4-0.2,1.9-0.6c0.5-0.4,0.8-1,1-1.7l3.4,1.5c-0.5,1.5-1.3,2.6-2.4,3.3
			C479,347.5,477.6,347.8,476.1,347.8z"/>
		<path class="st0" d="M490.3,347.8c-1.2,0-2.2-0.2-3.1-0.6c-0.9-0.4-1.7-0.9-2.3-1.7c-0.6-0.7-1.1-1.6-1.5-2.6
			c-0.3-1-0.5-2.2-0.5-3.4c0-1.3,0.2-2.4,0.5-3.4c0.3-1,0.8-1.9,1.5-2.6c0.6-0.7,1.4-1.3,2.3-1.6c0.9-0.4,1.9-0.6,3.1-0.6
			c1.2,0,2.2,0.2,3.1,0.6c0.9,0.4,1.7,0.9,2.3,1.6c0.6,0.7,1.1,1.6,1.5,2.6c0.3,1,0.5,2.2,0.5,3.4c0,1.3-0.2,2.4-0.5,3.4
			c-0.3,1-0.8,1.9-1.5,2.6c-0.6,0.7-1.4,1.3-2.3,1.7C492.5,347.7,491.4,347.8,490.3,347.8z M490.3,344.3c0.9,0,1.6-0.3,2-0.8
			s0.7-1.3,0.7-2.3V338c0-1-0.2-1.8-0.7-2.3s-1.2-0.8-2-0.8c-0.9,0-1.6,0.3-2,0.8s-0.7,1.3-0.7,2.3v3.2c0,1,0.2,1.8,0.7,2.3
			S489.4,344.3,490.3,344.3z"/>
		<path class="st0" d="M499.6,347.5v-15.8h4.4v2.7h0.2c0.3-0.8,0.8-1.5,1.5-2.1c0.7-0.6,1.7-0.9,2.9-0.9c1.6,0,2.8,0.5,3.7,1.6
			c0.8,1.1,1.2,2.6,1.2,4.6v9.9h-4.4V338c0-1-0.2-1.8-0.5-2.3c-0.3-0.5-0.9-0.7-1.7-0.7c-0.4,0-0.7,0-1,0.1
			c-0.3,0.1-0.6,0.2-0.9,0.4c-0.3,0.2-0.5,0.4-0.6,0.7c-0.2,0.3-0.2,0.6-0.2,1v10.2H499.6z"/>
		<path class="st0" d="M522.7,347.8c-1.2,0-2.2-0.2-3.1-0.6c-0.9-0.4-1.7-0.9-2.3-1.7c-0.6-0.7-1.1-1.6-1.5-2.6
			c-0.3-1-0.5-2.2-0.5-3.4c0-1.3,0.2-2.4,0.5-3.4c0.3-1,0.8-1.9,1.5-2.6c0.6-0.7,1.4-1.3,2.3-1.6c0.9-0.4,1.9-0.6,3.1-0.6
			c1.2,0,2.2,0.2,3.1,0.6c0.9,0.4,1.7,0.9,2.3,1.6c0.6,0.7,1.1,1.6,1.5,2.6c0.3,1,0.5,2.2,0.5,3.4c0,1.3-0.2,2.4-0.5,3.4
			c-0.3,1-0.8,1.9-1.5,2.6c-0.6,0.7-1.4,1.3-2.3,1.7C524.9,347.7,523.8,347.8,522.7,347.8z M522.7,344.3c0.9,0,1.6-0.3,2-0.8
			s0.7-1.3,0.7-2.3V338c0-1-0.2-1.8-0.7-2.3s-1.2-0.8-2-0.8c-0.9,0-1.6,0.3-2,0.8s-0.7,1.3-0.7,2.3v3.2c0,1,0.2,1.8,0.7,2.3
			S521.8,344.3,522.7,344.3z M523.1,330.1l-2.6-1.3l3-5.8l3.7,1.8L523.1,330.1z"/>
		<path class="st0" d="M532,347.5v-15.8h4.4v2.7h0.2c0.3-0.8,0.8-1.6,1.4-2.1c0.7-0.6,1.6-0.9,2.8-0.9c1.1,0,2,0.3,2.8,0.8
			c0.8,0.5,1.3,1.3,1.6,2.4h0.1c0.1-0.4,0.4-0.9,0.6-1.2c0.3-0.4,0.6-0.7,1.1-1s0.9-0.5,1.4-0.7c0.5-0.2,1.1-0.3,1.7-0.3
			c1.5,0,2.7,0.5,3.5,1.6s1.2,2.6,1.2,4.6v9.9h-4.4V338c0-2-0.7-3-2.2-3c-0.7,0-1.3,0.2-1.8,0.6c-0.5,0.4-0.8,1-0.8,1.7v10.2h-4.4
			V338c0-2-0.7-3-2.2-3c-0.3,0-0.6,0-0.9,0.1s-0.6,0.2-0.8,0.4c-0.3,0.2-0.5,0.4-0.6,0.7s-0.2,0.6-0.2,1v10.2H532z"/>
		<path class="st0" d="M559.8,330.1c-0.9,0-1.6-0.2-2-0.6c-0.4-0.4-0.6-0.9-0.6-1.6v-0.7c0-0.6,0.2-1.2,0.6-1.6
			c0.4-0.4,1.1-0.6,2-0.6s1.6,0.2,2,0.6c0.4,0.4,0.6,0.9,0.6,1.6v0.7c0,0.6-0.2,1.2-0.6,1.6C561.4,329.9,560.7,330.1,559.8,330.1z
			 M557.6,331.7h4.4v15.8h-4.4V331.7z"/>
		<path class="st0" d="M571.3,347.8c-1.2,0-2.2-0.2-3.2-0.6c-0.9-0.4-1.7-0.9-2.3-1.7c-0.6-0.7-1.1-1.6-1.4-2.6
			c-0.3-1-0.5-2.2-0.5-3.4c0-1.3,0.2-2.4,0.5-3.4c0.3-1,0.8-1.9,1.4-2.6c0.6-0.7,1.4-1.3,2.3-1.7s2-0.6,3.2-0.6c1.6,0,2.9,0.4,4,1.1
			c1.1,0.7,1.8,1.7,2.3,3L574,337c-0.1-0.6-0.4-1.1-0.9-1.5s-1-0.6-1.8-0.6c-0.9,0-1.6,0.3-2,0.9c-0.5,0.6-0.7,1.4-0.7,2.4v2.9
			c0,1,0.2,1.8,0.7,2.4c0.5,0.6,1.1,0.9,2,0.9c0.8,0,1.4-0.2,1.9-0.6c0.5-0.4,0.8-1,1-1.7l3.4,1.5c-0.5,1.5-1.3,2.6-2.4,3.3
			C574.2,347.5,572.9,347.8,571.3,347.8z"/>
		<path class="st0" d="M585.5,347.8c-1.2,0-2.2-0.2-3.1-0.6c-0.9-0.4-1.7-0.9-2.3-1.7c-0.6-0.7-1.1-1.6-1.5-2.6
			c-0.3-1-0.5-2.2-0.5-3.4c0-1.3,0.2-2.4,0.5-3.4c0.3-1,0.8-1.9,1.5-2.6c0.6-0.7,1.4-1.3,2.3-1.6c0.9-0.4,1.9-0.6,3.1-0.6
			c1.2,0,2.2,0.2,3.1,0.6c0.9,0.4,1.7,0.9,2.3,1.6c0.6,0.7,1.1,1.6,1.5,2.6c0.3,1,0.5,2.2,0.5,3.4c0,1.3-0.2,2.4-0.5,3.4
			c-0.3,1-0.8,1.9-1.5,2.6c-0.6,0.7-1.4,1.3-2.3,1.7C587.7,347.7,586.7,347.8,585.5,347.8z M585.5,344.3c0.9,0,1.6-0.3,2-0.8
			s0.7-1.3,0.7-2.3V338c0-1-0.2-1.8-0.7-2.3s-1.2-0.8-2-0.8c-0.9,0-1.6,0.3-2,0.8s-0.7,1.3-0.7,2.3v3.2c0,1,0.2,1.8,0.7,2.3
			S584.7,344.3,585.5,344.3z"/>
		<path class="st0" d="M610.4,331.7h4.1l-6.1,18.2c-0.4,1.2-1,2.1-1.7,2.7c-0.7,0.6-1.8,0.9-3.1,0.9h-2.8V350h3l0.5-1.7l-5.5-16.6
			h4.4l2.3,7.3l1.1,4.6h0.2l1.2-4.6L610.4,331.7z"/>
		<path class="st0" d="M626.8,347.8c-1.5,0-2.8-0.2-3.8-0.7s-2-1.2-2.8-2.1l2.6-2.6c0.6,0.6,1.2,1.1,1.9,1.5
			c0.7,0.4,1.4,0.5,2.3,0.5c0.9,0,1.5-0.1,1.8-0.4c0.3-0.3,0.5-0.6,0.5-1.1c0-0.7-0.5-1.2-1.6-1.3l-1.7-0.2
			c-3.5-0.4-5.3-2.1-5.3-4.9c0-0.8,0.1-1.5,0.4-2.1c0.3-0.6,0.7-1.2,1.2-1.6c0.5-0.5,1.2-0.8,1.9-1.1c0.8-0.2,1.6-0.4,2.5-0.4
			c0.8,0,1.5,0.1,2.2,0.2c0.6,0.1,1.2,0.3,1.7,0.5s0.9,0.5,1.4,0.8c0.4,0.3,0.8,0.7,1.2,1l-2.6,2.6c-0.5-0.5-1.1-0.9-1.7-1.2
			s-1.3-0.4-1.9-0.4c-0.8,0-1.3,0.1-1.6,0.4c-0.3,0.2-0.5,0.6-0.5,1c0,0.4,0.1,0.7,0.3,1c0.2,0.2,0.7,0.4,1.3,0.5l1.8,0.2
			c3.5,0.5,5.2,2,5.2,4.7c0,0.8-0.2,1.5-0.5,2.1c-0.3,0.6-0.8,1.2-1.4,1.7s-1.3,0.8-2.1,1.1S627.8,347.8,626.8,347.8z"/>
		<path class="st0" d="M641.8,347.8c-1.2,0-2.2-0.2-3.1-0.6s-1.7-0.9-2.3-1.7c-0.6-0.7-1.1-1.6-1.5-2.6c-0.3-1-0.5-2.2-0.5-3.4
			c0-1.3,0.2-2.4,0.5-3.4c0.3-1,0.8-1.9,1.5-2.6c0.6-0.7,1.4-1.3,2.3-1.6s1.9-0.6,3.1-0.6c1.2,0,2.2,0.2,3.1,0.6s1.7,0.9,2.3,1.6
			c0.6,0.7,1.1,1.6,1.5,2.6c0.3,1,0.5,2.2,0.5,3.4c0,1.3-0.2,2.4-0.5,3.4c-0.3,1-0.8,1.9-1.5,2.6c-0.6,0.7-1.4,1.3-2.3,1.7
			S642.9,347.8,641.8,347.8z M641.8,344.3c0.9,0,1.6-0.3,2-0.8c0.5-0.5,0.7-1.3,0.7-2.3V338c0-1-0.2-1.8-0.7-2.3
			c-0.5-0.5-1.2-0.8-2-0.8c-0.9,0-1.6,0.3-2,0.8c-0.5,0.5-0.7,1.3-0.7,2.3v3.2c0,1,0.2,1.8,0.7,2.3
			C640.2,344.1,640.9,344.3,641.8,344.3z"/>
		<path class="st0" d="M657.4,347.8c-1.2,0-2.2-0.2-3.2-0.6c-0.9-0.4-1.7-0.9-2.3-1.7c-0.6-0.7-1.1-1.6-1.4-2.6
			c-0.3-1-0.5-2.2-0.5-3.4c0-1.3,0.2-2.4,0.5-3.4c0.3-1,0.8-1.9,1.4-2.6c0.6-0.7,1.4-1.3,2.3-1.7s2-0.6,3.2-0.6c1.6,0,2.9,0.4,4,1.1
			c1.1,0.7,1.8,1.7,2.3,3l-3.6,1.6c-0.1-0.6-0.4-1.1-0.9-1.5c-0.4-0.4-1-0.6-1.8-0.6c-0.9,0-1.6,0.3-2,0.9c-0.5,0.6-0.7,1.4-0.7,2.4
			v2.9c0,1,0.2,1.8,0.7,2.4c0.5,0.6,1.1,0.9,2,0.9c0.8,0,1.4-0.2,1.9-0.6c0.5-0.4,0.8-1,1-1.7l3.5,1.5c-0.5,1.5-1.3,2.6-2.4,3.3
			C660.3,347.5,659,347.8,657.4,347.8z"/>
		<path class="st0" d="M667.6,330.1c-0.9,0-1.6-0.2-2-0.6s-0.6-0.9-0.6-1.6v-0.7c0-0.6,0.2-1.2,0.6-1.6c0.4-0.4,1.1-0.6,2-0.6
			c0.9,0,1.6,0.2,2,0.6c0.4,0.4,0.6,0.9,0.6,1.6v0.7c0,0.6-0.2,1.2-0.6,1.6S668.5,330.1,667.6,330.1z M665.4,331.7h4.4v15.8h-4.4
			V331.7z"/>
		<path class="st0" d="M684.4,347.5c-0.8,0-1.5-0.2-2-0.8c-0.5-0.5-0.9-1.2-1-2h-0.2c-0.2,1-0.8,1.8-1.6,2.3c-0.8,0.5-1.8,0.8-3,0.8
			c-1.6,0-2.8-0.4-3.6-1.3c-0.8-0.8-1.3-1.9-1.3-3.3c0-1.7,0.6-2.9,1.8-3.7c1.2-0.8,2.9-1.2,4.9-1.2h2.5v-1c0-0.8-0.2-1.4-0.6-1.8
			s-1.1-0.7-2-0.7c-0.9,0-1.6,0.2-2.1,0.6c-0.5,0.4-1,0.8-1.3,1.3l-2.6-2.4c0.6-0.9,1.4-1.7,2.4-2.2c1-0.5,2.3-0.8,3.9-0.8
			c2.2,0,3.9,0.5,5,1.5c1.1,1,1.7,2.4,1.7,4.3v6.9h1.5v3.5H684.4z M678.3,344.8c0.7,0,1.4-0.2,1.9-0.5c0.5-0.3,0.8-0.8,0.8-1.5v-1.8
			h-2.2c-1.7,0-2.6,0.6-2.6,1.8v0.4c0,0.6,0.2,1,0.5,1.3C677.1,344.6,677.6,344.8,678.3,344.8z"/>
		<path class="st0" d="M693.1,347.5c-1.5,0-2.6-0.4-3.3-1.1c-0.7-0.7-1.1-1.8-1.1-3.2v-17.9h4.4V344h2v3.5H693.1z"/>
		<path class="st0" d="M714.1,347.5c-0.8,0-1.5-0.2-2-0.8s-0.9-1.2-1-2h-0.2c-0.2,1-0.8,1.8-1.6,2.3c-0.8,0.5-1.8,0.8-3,0.8
			c-1.6,0-2.8-0.4-3.6-1.3c-0.8-0.8-1.3-1.9-1.3-3.3c0-1.7,0.6-2.9,1.8-3.7c1.2-0.8,2.9-1.2,4.9-1.2h2.5v-1c0-0.8-0.2-1.4-0.6-1.8
			c-0.4-0.5-1.1-0.7-2-0.7c-0.9,0-1.6,0.2-2.1,0.6c-0.5,0.4-1,0.8-1.3,1.3l-2.6-2.4c0.6-0.9,1.4-1.7,2.4-2.2c1-0.5,2.3-0.8,3.9-0.8
			c2.2,0,3.9,0.5,5,1.5c1.1,1,1.7,2.4,1.7,4.3v6.9h1.5v3.5H714.1z M707.9,344.8c0.7,0,1.4-0.2,1.9-0.5s0.8-0.8,0.8-1.5v-1.8h-2.2
			c-1.7,0-2.6,0.6-2.6,1.8v0.4c0,0.6,0.2,1,0.5,1.3C706.7,344.6,707.2,344.8,707.9,344.8z"/>
		<path class="st0" d="M729.7,347.5c-1.5,0-2.7-0.4-3.5-1.2s-1.2-1.9-1.2-3.4v-7.7h-2.2v-3.5h1.1c0.6,0,1-0.1,1.2-0.4
			c0.2-0.3,0.3-0.7,0.3-1.2v-2.6h4v4.3h3.1v3.5h-3.1v8.8h2.9v3.5H729.7z"/>
		<path class="st0" d="M734.5,347.5v-15.8h4.4v3.4h0.2c0.1-0.4,0.2-0.9,0.4-1.3c0.2-0.4,0.5-0.8,0.8-1.1c0.3-0.3,0.7-0.6,1.2-0.8
			s1-0.3,1.6-0.3h0.8v4.1h-1.1c-1.3,0-2.3,0.2-2.9,0.5s-0.9,1-0.9,1.9v9.2H734.5z"/>
		<path class="st0" d="M756.6,347.5c-0.8,0-1.5-0.2-2-0.8s-0.9-1.2-1-2h-0.2c-0.2,1-0.8,1.8-1.6,2.3c-0.8,0.5-1.8,0.8-3,0.8
			c-1.6,0-2.8-0.4-3.6-1.3c-0.8-0.8-1.3-1.9-1.3-3.3c0-1.7,0.6-2.9,1.8-3.7c1.2-0.8,2.9-1.2,4.9-1.2h2.5v-1c0-0.8-0.2-1.4-0.6-1.8
			c-0.4-0.5-1.1-0.7-2-0.7c-0.9,0-1.6,0.2-2.1,0.6c-0.5,0.4-1,0.8-1.3,1.3l-2.6-2.4c0.6-0.9,1.4-1.7,2.4-2.2c1-0.5,2.3-0.8,3.9-0.8
			c2.2,0,3.9,0.5,5,1.5c1.1,1,1.7,2.4,1.7,4.3v6.9h1.5v3.5H756.6z M750.4,344.8c0.7,0,1.4-0.2,1.9-0.5s0.8-0.8,0.8-1.5v-1.8H751
			c-1.7,0-2.6,0.6-2.6,1.8v0.4c0,0.6,0.2,1,0.5,1.3C749.3,344.6,749.8,344.8,750.4,344.8z"/>
		<path class="st0" d="M763.9,347.5l-5.2-15.8h4.4l1.9,6.4l1.5,5.7h0.2l1.5-5.7l1.9-6.4h4.2l-5.2,15.8H763.9z"/>
		<path class="st0" d="M781.8,347.8c-1.2,0-2.3-0.2-3.2-0.6c-0.9-0.4-1.7-0.9-2.4-1.7c-0.7-0.7-1.1-1.6-1.5-2.6
			c-0.3-1-0.5-2.2-0.5-3.4c0-1.2,0.2-2.4,0.5-3.4c0.3-1,0.8-1.9,1.4-2.6c0.6-0.7,1.4-1.3,2.3-1.7c0.9-0.4,2-0.6,3.2-0.6
			c1.3,0,2.4,0.2,3.3,0.7c0.9,0.4,1.7,1,2.3,1.8s1,1.6,1.3,2.6c0.3,1,0.4,2,0.4,3v1.3h-10.1v0.2c0,1,0.3,1.8,0.8,2.5
			c0.6,0.6,1.4,0.9,2.6,0.9c0.9,0,1.7-0.2,2.2-0.5c0.6-0.4,1.1-0.8,1.6-1.3l2.2,2.8c-0.7,0.8-1.6,1.5-2.7,1.9
			S783.2,347.8,781.8,347.8z M781.7,334.6c-0.9,0-1.6,0.3-2.1,0.9c-0.5,0.6-0.8,1.4-0.8,2.4v0.2h5.5v-0.3c0-1-0.2-1.7-0.6-2.3
			C783.3,334.9,782.6,334.6,781.7,334.6z M782.3,330.1l-2.6-1.3l3-5.8l3.7,1.8L782.3,330.1z"/>
		<path class="st0" d="M796.2,347.8c-1.5,0-2.8-0.2-3.8-0.7c-1-0.5-2-1.2-2.8-2.1l2.6-2.6c0.6,0.6,1.2,1.1,1.9,1.5s1.5,0.5,2.3,0.5
			c0.9,0,1.5-0.1,1.8-0.4c0.3-0.3,0.5-0.6,0.5-1.1c0-0.7-0.5-1.2-1.6-1.3l-1.7-0.2c-3.5-0.4-5.3-2.1-5.3-4.9c0-0.8,0.1-1.5,0.4-2.1
			c0.3-0.6,0.7-1.2,1.2-1.6c0.5-0.5,1.2-0.8,1.9-1.1c0.8-0.2,1.6-0.4,2.5-0.4c0.8,0,1.5,0.1,2.2,0.2c0.6,0.1,1.2,0.3,1.7,0.5
			s0.9,0.5,1.4,0.8c0.4,0.3,0.8,0.7,1.2,1l-2.5,2.6c-0.5-0.5-1.1-0.9-1.7-1.2s-1.3-0.4-1.9-0.4c-0.8,0-1.3,0.1-1.6,0.4
			c-0.3,0.2-0.5,0.6-0.5,1c0,0.4,0.1,0.7,0.3,1c0.2,0.2,0.7,0.4,1.3,0.5l1.8,0.2c3.5,0.5,5.2,2,5.2,4.7c0,0.8-0.2,1.5-0.5,2.1
			c-0.3,0.6-0.8,1.2-1.4,1.7c-0.6,0.5-1.3,0.8-2.1,1.1S797.2,347.8,796.2,347.8z"/>
		<path class="st0" d="M537.6,380.4h-0.1c-0.1,0.4-0.3,0.8-0.6,1.2s-0.6,0.7-0.9,1c-0.4,0.3-0.8,0.5-1.3,0.6c-0.5,0.2-1,0.2-1.5,0.2
			c-2,0-3.5-0.7-4.5-2.1s-1.5-3.5-1.5-6.1c0-2.7,0.5-4.7,1.5-6.1s2.5-2.1,4.5-2.1c1,0,1.9,0.3,2.7,0.8c0.8,0.6,1.3,1.3,1.5,2.2h0.1
			v-9.1h4.4v22.2h-4.4V380.4z M534.7,379.8c0.8,0,1.5-0.2,2.1-0.6c0.6-0.4,0.8-1,0.8-1.7v-4.7c0-0.7-0.3-1.3-0.8-1.7
			s-1.2-0.6-2.1-0.6c-0.8,0-1.5,0.3-2.1,0.9c-0.6,0.6-0.8,1.4-0.8,2.4v2.7c0,1,0.3,1.8,0.8,2.4C533.2,379.5,533.8,379.8,534.7,379.8
			z"/>
		<path class="st0" d="M551.5,383.4c-1.2,0-2.3-0.2-3.2-0.6c-0.9-0.4-1.7-0.9-2.4-1.7s-1.1-1.6-1.5-2.6c-0.3-1-0.5-2.2-0.5-3.4
			c0-1.2,0.2-2.4,0.5-3.4c0.3-1,0.8-1.9,1.4-2.6c0.6-0.7,1.4-1.3,2.3-1.7c0.9-0.4,2-0.6,3.1-0.6c1.3,0,2.4,0.2,3.3,0.7
			c0.9,0.4,1.7,1,2.3,1.8c0.6,0.7,1,1.6,1.3,2.6c0.3,1,0.4,2,0.4,3v1.3h-10.1v0.2c0,1,0.3,1.8,0.8,2.5c0.6,0.6,1.4,0.9,2.6,0.9
			c0.9,0,1.7-0.2,2.2-0.5s1.1-0.8,1.6-1.3l2.2,2.8c-0.7,0.8-1.6,1.5-2.7,1.9C554.3,383.2,553,383.4,551.5,383.4z M551.5,370.2
			c-0.9,0-1.6,0.3-2.1,0.9c-0.5,0.6-0.8,1.4-0.8,2.4v0.2h5.5v-0.3c0-1-0.2-1.7-0.6-2.3C553,370.5,552.4,370.2,551.5,370.2z"/>
		<path class="st0" d="M570.9,383.1c-1.5,0-2.6-0.4-3.3-1.1c-0.7-0.7-1.1-1.8-1.1-3.2v-17.9h4.4v18.8h2v3.5H570.9z"/>
		<path class="st0" d="M586,383.1c-0.8,0-1.5-0.2-2-0.8s-0.9-1.2-1-2h-0.2c-0.2,1-0.8,1.8-1.6,2.3c-0.8,0.5-1.8,0.8-3,0.8
			c-1.6,0-2.8-0.4-3.6-1.3c-0.8-0.8-1.3-1.9-1.3-3.3c0-1.7,0.6-2.9,1.8-3.7c1.2-0.8,2.9-1.2,4.9-1.2h2.5v-1c0-0.8-0.2-1.4-0.6-1.8
			c-0.4-0.5-1.1-0.7-2-0.7c-0.9,0-1.6,0.2-2.1,0.6c-0.5,0.4-1,0.8-1.3,1.3L574,370c0.6-0.9,1.4-1.7,2.4-2.2c1-0.5,2.3-0.8,3.9-0.8
			c2.2,0,3.9,0.5,5,1.5c1.1,1,1.7,2.4,1.7,4.3v6.9h1.5v3.5H586z M579.9,380.3c0.7,0,1.4-0.2,1.9-0.5s0.8-0.8,0.8-1.5v-1.8h-2.2
			c-1.7,0-2.6,0.6-2.6,1.8v0.4c0,0.6,0.2,1,0.5,1.3C578.7,380.2,579.2,380.3,579.9,380.3z"/>
		<path class="st0" d="M601.7,383.1c-1.5,0-2.7-0.4-3.5-1.2c-0.8-0.8-1.2-1.9-1.2-3.4v-7.7h-2.2v-3.5h1.1c0.6,0,1-0.1,1.2-0.4
			s0.3-0.7,0.3-1.2v-2.6h4v4.3h3.1v3.5h-3.1v8.8h2.9v3.5H601.7z"/>
		<path class="st0" d="M612.9,383.4c-1.2,0-2.3-0.2-3.2-0.6c-0.9-0.4-1.7-0.9-2.4-1.7s-1.1-1.6-1.5-2.6c-0.3-1-0.5-2.2-0.5-3.4
			c0-1.2,0.2-2.4,0.5-3.4c0.3-1,0.8-1.9,1.4-2.6c0.6-0.7,1.4-1.3,2.3-1.7c0.9-0.4,2-0.6,3.1-0.6c1.3,0,2.4,0.2,3.3,0.7
			c0.9,0.4,1.7,1,2.3,1.8s1,1.6,1.3,2.6c0.3,1,0.4,2,0.4,3v1.3h-10.1v0.2c0,1,0.3,1.8,0.8,2.5c0.6,0.6,1.4,0.9,2.6,0.9
			c0.9,0,1.7-0.2,2.2-0.5s1.1-0.8,1.6-1.3l2.2,2.8c-0.7,0.8-1.6,1.5-2.7,1.9S614.3,383.4,612.9,383.4z M612.8,370.2
			c-0.9,0-1.6,0.3-2.1,0.9c-0.5,0.6-0.8,1.4-0.8,2.4v0.2h5.5v-0.3c0-1-0.2-1.7-0.6-2.3S613.7,370.2,612.8,370.2z"/>
		<path class="st0" d="M628.3,383.4c-1.2,0-2.2-0.2-3.2-0.6c-0.9-0.4-1.7-0.9-2.3-1.7s-1.1-1.6-1.4-2.6c-0.3-1-0.5-2.2-0.5-3.4
			c0-1.3,0.2-2.4,0.5-3.4s0.8-1.9,1.4-2.6c0.6-0.7,1.4-1.3,2.3-1.7s2-0.6,3.2-0.6c1.6,0,2.9,0.4,4,1.1c1.1,0.7,1.8,1.7,2.3,3
			l-3.6,1.6c-0.1-0.6-0.4-1.1-0.9-1.5c-0.4-0.4-1-0.6-1.8-0.6c-0.9,0-1.6,0.3-2,0.9s-0.7,1.4-0.7,2.4v2.9c0,1,0.2,1.8,0.7,2.4
			s1.1,0.9,2,0.9c0.8,0,1.4-0.2,1.9-0.6c0.5-0.4,0.8-1,1-1.7l3.4,1.5c-0.5,1.5-1.3,2.6-2.4,3.3C631.2,383.1,629.9,383.4,628.3,383.4
			z"/>
		<path class="st0" d="M636.3,383.1v-15.8h4.4v2.7h0.2c0.3-0.8,0.8-1.5,1.5-2.1s1.7-0.9,2.9-0.9c1.6,0,2.8,0.5,3.7,1.6
			s1.2,2.6,1.2,4.6v9.9h-4.4v-9.5c0-1-0.2-1.8-0.5-2.3c-0.3-0.5-0.9-0.7-1.7-0.7c-0.4,0-0.7,0-1,0.1c-0.3,0.1-0.6,0.2-0.9,0.4
			c-0.3,0.2-0.5,0.4-0.6,0.7s-0.2,0.6-0.2,1v10.2H636.3z"/>
		<path class="st0" d="M659.4,383.4c-1.2,0-2.2-0.2-3.1-0.6c-0.9-0.4-1.7-0.9-2.3-1.7c-0.6-0.7-1.1-1.6-1.5-2.6
			c-0.3-1-0.5-2.2-0.5-3.4c0-1.3,0.2-2.4,0.5-3.4c0.3-1,0.8-1.9,1.5-2.6c0.6-0.7,1.4-1.3,2.3-1.6c0.9-0.4,1.9-0.6,3.1-0.6
			s2.2,0.2,3.1,0.6c0.9,0.4,1.7,0.9,2.3,1.6c0.6,0.7,1.1,1.6,1.5,2.6c0.3,1,0.5,2.2,0.5,3.4c0,1.3-0.2,2.4-0.5,3.4
			c-0.3,1-0.8,1.9-1.5,2.6c-0.6,0.7-1.4,1.3-2.3,1.7C661.6,383.2,660.5,383.4,659.4,383.4z M659.4,379.9c0.9,0,1.6-0.3,2-0.8
			c0.5-0.5,0.7-1.3,0.7-2.3v-3.2c0-1-0.2-1.8-0.7-2.3c-0.5-0.5-1.2-0.8-2-0.8s-1.6,0.3-2,0.8c-0.5,0.5-0.7,1.3-0.7,2.3v3.2
			c0,1,0.2,1.8,0.7,2.3C657.8,379.7,658.5,379.9,659.4,379.9z"/>
		<path class="st0" d="M673.1,383.1c-1.5,0-2.6-0.4-3.3-1.1c-0.7-0.7-1.1-1.8-1.1-3.2v-17.9h4.4v18.8h2v3.5H673.1z"/>
		<path class="st0" d="M683,383.4c-1.2,0-2.2-0.2-3.1-0.6s-1.7-0.9-2.3-1.7c-0.6-0.7-1.1-1.6-1.5-2.6c-0.3-1-0.5-2.2-0.5-3.4
			c0-1.3,0.2-2.4,0.5-3.4c0.3-1,0.8-1.9,1.5-2.6c0.6-0.7,1.4-1.3,2.3-1.6s1.9-0.6,3.1-0.6c1.2,0,2.2,0.2,3.1,0.6s1.7,0.9,2.3,1.6
			c0.6,0.7,1.1,1.6,1.5,2.6c0.3,1,0.5,2.2,0.5,3.4c0,1.3-0.2,2.4-0.5,3.4c-0.3,1-0.8,1.9-1.5,2.6c-0.6,0.7-1.4,1.3-2.3,1.7
			S684.1,383.4,683,383.4z M683,379.9c0.9,0,1.6-0.3,2-0.8c0.5-0.5,0.7-1.3,0.7-2.3v-3.2c0-1-0.2-1.8-0.7-2.3
			c-0.5-0.5-1.2-0.8-2-0.8c-0.9,0-1.6,0.3-2,0.8c-0.5,0.5-0.7,1.3-0.7,2.3v3.2c0,1,0.2,1.8,0.7,2.3
			C681.4,379.7,682.1,379.9,683,379.9z"/>
		<path class="st0" d="M706.9,384.2c0,0.8-0.1,1.6-0.4,2.2c-0.3,0.6-0.8,1.2-1.4,1.6c-0.7,0.5-1.5,0.8-2.6,1c-1.1,0.2-2.4,0.3-4,0.3
			c-1.4,0-2.5-0.1-3.5-0.3c-1-0.2-1.7-0.4-2.3-0.7c-0.6-0.3-1-0.7-1.3-1.1c-0.3-0.5-0.4-1-0.4-1.5c0-0.9,0.3-1.6,0.8-2.1
			c0.5-0.5,1.2-0.8,2.2-0.9v-0.3c-0.8-0.1-1.3-0.5-1.7-1c-0.4-0.5-0.6-1.1-0.6-1.8c0-0.4,0.1-0.8,0.3-1.1s0.4-0.6,0.7-0.8
			c0.3-0.2,0.6-0.4,0.9-0.6c0.4-0.1,0.7-0.2,1.1-0.3v-0.1c-1-0.4-1.7-1-2.1-1.8s-0.7-1.7-0.7-2.7c0-1.6,0.6-2.9,1.7-3.9
			c1.1-1,2.8-1.5,5.1-1.5c1,0,1.9,0.1,2.7,0.3v-0.6c0-0.8,0.2-1.4,0.6-1.8c0.4-0.4,1-0.6,1.8-0.6h2.5v3.3h-3.5v0.2
			c0.9,0.4,1.6,1,2,1.8c0.4,0.8,0.7,1.7,0.7,2.7c0,1.6-0.6,2.8-1.7,3.8c-1.1,1-2.8,1.4-5.1,1.4c-1,0-2-0.1-2.8-0.3
			c-0.5,0.3-0.7,0.7-0.7,1.3c0,0.4,0.1,0.7,0.4,0.9c0.3,0.2,0.8,0.3,1.5,0.3h4.6c1.9,0,3.3,0.4,4.2,1.2
			C706.5,381.6,706.9,382.8,706.9,384.2z M702.7,384.8c0-0.5-0.2-0.8-0.5-1c-0.4-0.2-1-0.4-1.9-0.4h-5.4c-0.2,0.2-0.3,0.4-0.4,0.7
			c-0.1,0.2-0.1,0.5-0.1,0.7c0,0.6,0.2,1,0.8,1.3c0.5,0.3,1.4,0.4,2.5,0.4h1.8c1.2,0,2-0.1,2.5-0.4
			C702.5,385.8,702.7,385.4,702.7,384.8z M698.4,374.6c0.9,0,1.5-0.2,2-0.6c0.4-0.4,0.6-0.9,0.6-1.6v-0.4c0-0.7-0.2-1.2-0.6-1.6
			c-0.4-0.4-1.1-0.6-2-0.6c-0.9,0-1.5,0.2-2,0.6c-0.4,0.4-0.6,0.9-0.6,1.6v0.4c0,0.7,0.2,1.2,0.6,1.6
			C696.9,374.4,697.5,374.6,698.4,374.6z"/>
		<path class="st0" d="M707.7,383.1v-15.8h4.4v15.8H707.7z M710.4,365.7l-2.6-1.3l3-5.8l3.7,1.8L710.4,365.7z"/>
		<path class="st0" d="M726.7,383.1c-0.8,0-1.5-0.2-2-0.8s-0.9-1.2-1-2h-0.2c-0.2,1-0.8,1.8-1.6,2.3c-0.8,0.5-1.8,0.8-3,0.8
			c-1.6,0-2.8-0.4-3.6-1.3c-0.8-0.8-1.3-1.9-1.3-3.3c0-1.7,0.6-2.9,1.8-3.7c1.2-0.8,2.9-1.2,4.9-1.2h2.5v-1c0-0.8-0.2-1.4-0.6-1.8
			c-0.4-0.5-1.1-0.7-2-0.7c-0.9,0-1.6,0.2-2.1,0.6c-0.5,0.4-1,0.8-1.3,1.3l-2.6-2.4c0.6-0.9,1.4-1.7,2.4-2.2c1-0.5,2.3-0.8,3.9-0.8
			c2.2,0,3.9,0.5,5,1.5c1.1,1,1.7,2.4,1.7,4.3v6.9h1.5v3.5H726.7z M720.5,380.3c0.7,0,1.4-0.2,1.9-0.5s0.8-0.8,0.8-1.5v-1.8h-2.2
			c-1.7,0-2.6,0.6-2.6,1.8v0.4c0,0.6,0.2,1,0.5,1.3C719.4,380.2,719.9,380.3,720.5,380.3z"/>
	</g>
</g>
<line class="st1" x1="628" y1="471" x2="628" y2="427.4"/>
<line class="st1" x1="628" y1="612.8" x2="628" y2="573.3"/>
<g>
	<g>
		<path class="st2" d="M481.6,543.9c-2.5,0-4.8-0.4-6.8-1.2c-2-0.8-3.7-2-5.2-3.6c-1.4-1.6-2.5-3.5-3.3-5.9
			c-0.8-2.4-1.2-5.1-1.2-8.3c0-3.1,0.4-5.9,1.2-8.3c0.8-2.4,1.9-4.5,3.3-6.1c1.4-1.7,3.1-2.9,5.2-3.8c2-0.9,4.3-1.3,6.8-1.3
			c3.4,0,6.3,0.7,8.5,2.1c2.2,1.4,4,3.6,5.4,6.6l-7,3.6c-0.5-1.6-1.3-2.8-2.3-3.8c-1-0.9-2.6-1.4-4.6-1.4c-2.4,0-4.3,0.8-5.7,2.3
			s-2.2,3.8-2.2,6.7v6c0,2.9,0.7,5.2,2.2,6.7s3.3,2.3,5.7,2.3c2,0,3.6-0.5,4.8-1.6c1.2-1.1,2.1-2.4,2.6-3.9l6.6,3.8
			c-1.4,2.8-3.2,5-5.5,6.6C487.9,543.1,485.1,543.9,481.6,543.9z"/>
		<path class="st2" d="M513.4,543.9c-2.4,0-4.7-0.4-6.7-1.2c-2-0.8-3.7-2-5.2-3.6c-1.4-1.6-2.5-3.6-3.3-6c-0.8-2.4-1.2-5.2-1.2-8.3
			c0-3.2,0.4-5.9,1.2-8.3c0.8-2.4,1.9-4.4,3.3-6c1.4-1.6,3.1-2.8,5.2-3.6c2-0.8,4.3-1.2,6.7-1.2s4.7,0.4,6.7,1.2
			c2,0.8,3.7,2,5.2,3.6c1.4,1.6,2.5,3.6,3.3,6c0.8,2.4,1.2,5.2,1.2,8.3c0,3.2-0.4,5.9-1.2,8.3c-0.8,2.4-1.9,4.4-3.3,6
			c-1.4,1.6-3.1,2.8-5.2,3.6C518,543.5,515.8,543.9,513.4,543.9z M513.4,536.7c2.4,0,4.4-0.8,5.7-2.4c1.4-1.6,2-3.9,2-6.9v-5.5
			c0-3-0.7-5.3-2-6.9c-1.4-1.6-3.3-2.4-5.7-2.4s-4.4,0.8-5.7,2.4c-1.4,1.6-2,3.9-2,6.9v5.5c0,3,0.7,5.3,2,6.9
			C509,535.9,510.9,536.7,513.4,536.7z"/>
		<path class="st2" d="M562.1,518.9H562l-2.7,5.4l-7.2,13.2l-7.1-13.1l-2.8-5.9h-0.2v24.8h-7.6v-37.2h8.6l9.1,17.4h0.1l9-17.4h8.6
			v37.2h-7.6V518.9z"/>
		<path class="st2" d="M575.8,543.2v-37.2h17.6c1.7,0,3.3,0.3,4.7,0.9s2.6,1.4,3.5,2.4c1,1,1.7,2.3,2.3,3.8c0.5,1.5,0.8,3.1,0.8,4.8
			c0,1.8-0.3,3.4-0.8,4.8c-0.5,1.5-1.3,2.7-2.3,3.7c-1,1-2.2,1.8-3.5,2.4s-2.9,0.9-4.7,0.9h-9.5v13.4H575.8z M583.9,522.8h8.5
			c1.2,0,2.2-0.3,2.8-0.9c0.7-0.6,1-1.5,1-2.7v-2.3c0-1.2-0.3-2.1-1-2.7c-0.7-0.6-1.6-0.9-2.8-0.9h-8.5V522.8z"/>
		<path class="st2" d="M616.7,543.2h-8.1v-37.2h17.6c1.7,0,3.2,0.3,4.6,0.9c1.4,0.6,2.6,1.4,3.5,2.4c1,1,1.7,2.3,2.3,3.8
			s0.8,3.1,0.8,4.8c0,2.5-0.6,4.7-1.7,6.6c-1.1,1.9-2.8,3.2-5.1,4.1l7.3,14.6h-9l-6.5-13.6h-5.8V543.2z M625.2,522.8
			c1.2,0,2.2-0.3,2.8-0.9c0.7-0.6,1-1.5,1-2.7v-2.3c0-1.2-0.3-2.1-1-2.7s-1.6-0.9-2.8-0.9h-8.5v9.7H625.2z"/>
		<path class="st2" d="M656.7,543.9c-2.4,0-4.7-0.4-6.7-1.2c-2-0.8-3.7-2-5.2-3.6c-1.4-1.6-2.5-3.6-3.3-6c-0.8-2.4-1.2-5.2-1.2-8.3
			c0-3.2,0.4-5.9,1.2-8.3c0.8-2.4,1.9-4.4,3.3-6c1.4-1.6,3.1-2.8,5.2-3.6c2-0.8,4.3-1.2,6.7-1.2s4.7,0.4,6.7,1.2
			c2,0.8,3.7,2,5.2,3.6c1.4,1.6,2.5,3.6,3.3,6c0.8,2.4,1.2,5.2,1.2,8.3c0,3.2-0.4,5.9-1.2,8.3c-0.8,2.4-1.9,4.4-3.3,6
			c-1.4,1.6-3.1,2.8-5.2,3.6C661.4,543.5,659.2,543.9,656.7,543.9z M656.7,536.7c2.4,0,4.4-0.8,5.7-2.4c1.4-1.6,2-3.9,2-6.9v-5.5
			c0-3-0.7-5.3-2-6.9c-1.4-1.6-3.3-2.4-5.7-2.4s-4.4,0.8-5.7,2.4c-1.4,1.6-2,3.9-2,6.9v5.5c0,3,0.7,5.3,2,6.9
			C652.4,535.9,654.3,536.7,656.7,536.7z"/>
		<path class="st2" d="M705.5,518.9h-0.2l-2.7,5.4l-7.2,13.2l-7.1-13.1l-2.8-5.9h-0.2v24.8h-7.6v-37.2h8.6l9.1,17.4h0.1l9-17.4h8.6
			v37.2h-7.6V518.9z"/>
		<path class="st2" d="M717.7,543.2v-6.4h4.8v-24.3h-4.8v-6.4h17.7v6.4h-4.8v24.3h4.8v6.4H717.7z"/>
		<path class="st2" d="M752.1,543.9c-3.3,0-6-0.6-8.3-1.7s-4.2-2.6-5.8-4.3l5.3-5.4c2.5,2.8,5.6,4.2,9.3,4.2c2,0,3.5-0.4,4.4-1.2
			s1.4-1.9,1.4-3.2c0-1-0.3-1.9-0.9-2.6c-0.6-0.7-1.7-1.2-3.5-1.4l-3.7-0.5c-3.9-0.5-6.8-1.7-8.7-3.6c-1.8-1.9-2.7-4.4-2.7-7.5
			c0-1.7,0.3-3.2,1-4.6s1.6-2.6,2.7-3.6c1.2-1,2.6-1.8,4.4-2.3s3.7-0.8,5.9-0.8c2.8,0,5.3,0.4,7.4,1.3c2.1,0.9,4,2.2,5.5,3.9
			l-5.4,5.4c-0.9-1-2-1.9-3.2-2.5c-1.3-0.6-2.8-1-4.8-1c-1.8,0-3.2,0.3-4,0.9c-0.9,0.6-1.3,1.5-1.3,2.6c0,1.3,0.3,2.2,1,2.7
			c0.7,0.6,1.8,1,3.4,1.2l3.7,0.6c3.8,0.6,6.7,1.8,8.5,3.5c1.8,1.8,2.8,4.3,2.8,7.5c0,1.8-0.3,3.4-1,4.9c-0.6,1.5-1.6,2.8-2.8,3.8
			c-1.2,1.1-2.7,1.9-4.6,2.5S754.4,543.9,752.1,543.9z"/>
		<path class="st2" d="M786,543.9c-2.4,0-4.7-0.4-6.7-1.2c-2-0.8-3.7-2-5.2-3.6s-2.5-3.6-3.3-6c-0.8-2.4-1.2-5.2-1.2-8.3
			c0-3.2,0.4-5.9,1.2-8.3c0.8-2.4,1.9-4.4,3.3-6s3.1-2.8,5.2-3.6c2-0.8,4.3-1.2,6.7-1.2s4.7,0.4,6.7,1.2c2,0.8,3.7,2,5.2,3.6
			c1.4,1.6,2.5,3.6,3.3,6c0.8,2.4,1.2,5.2,1.2,8.3c0,3.2-0.4,5.9-1.2,8.3c-0.8,2.4-1.9,4.4-3.3,6c-1.4,1.6-3.1,2.8-5.2,3.6
			C790.7,543.5,788.5,543.9,786,543.9z M786,536.7c2.4,0,4.4-0.8,5.7-2.4c1.4-1.6,2-3.9,2-6.9v-5.5c0-3-0.7-5.3-2-6.9
			c-1.4-1.6-3.3-2.4-5.7-2.4s-4.4,0.8-5.7,2.4c-1.4,1.6-2,3.9-2,6.9v5.5c0,3,0.7,5.3,2,6.9C781.7,535.9,783.6,536.7,786,536.7z"/>
	</g>
</g>
<path class="st3" d="M777.9,427.4H478c-50.1,0-90.7-40.6-90.7-90.7v0c0-50.1,40.6-90.7,90.7-90.7h299.8c50.1,0,90.7,40.6,90.7,90.7
	v0C868.5,386.8,827.9,427.4,777.9,427.4z"/>
<g>
	<g>
		<path class="st0" d="M117.3,719.3v-20.9h9.9c1,0,1.9,0.2,2.6,0.5c0.8,0.3,1.4,0.8,2,1.4c0.5,0.6,1,1.3,1.3,2.1
			c0.3,0.8,0.4,1.7,0.4,2.7c0,1-0.1,1.9-0.4,2.7c-0.3,0.8-0.7,1.5-1.3,2.1c-0.6,0.6-1.2,1-2,1.4c-0.8,0.3-1.7,0.5-2.6,0.5h-5.3v7.6
			H117.3z M121.8,707.8h4.8c0.7,0,1.2-0.2,1.6-0.5c0.4-0.3,0.6-0.9,0.6-1.5v-1.3c0-0.7-0.2-1.2-0.6-1.5c-0.4-0.3-0.9-0.5-1.6-0.5
			h-4.8V707.8z"/>
		<path class="st0" d="M146.7,719.3c-0.8,0-1.5-0.2-2-0.8s-0.9-1.2-1-2h-0.2c-0.2,1-0.8,1.8-1.6,2.3c-0.8,0.5-1.8,0.8-3,0.8
			c-1.6,0-2.8-0.4-3.6-1.3c-0.8-0.8-1.3-1.9-1.3-3.3c0-1.7,0.6-2.9,1.8-3.7c1.2-0.8,2.9-1.2,4.9-1.2h2.5v-1c0-0.8-0.2-1.4-0.6-1.8
			c-0.4-0.5-1.1-0.7-2-0.7c-0.9,0-1.6,0.2-2.1,0.6c-0.5,0.4-1,0.8-1.3,1.3l-2.6-2.4c0.6-0.9,1.4-1.7,2.4-2.2c1-0.5,2.3-0.8,3.9-0.8
			c2.2,0,3.9,0.5,5,1.5c1.1,1,1.7,2.4,1.7,4.3v6.9h1.5v3.5H146.7z M140.6,716.6c0.7,0,1.4-0.2,1.9-0.5s0.8-0.8,0.8-1.5v-1.8h-2.2
			c-1.7,0-2.6,0.6-2.6,1.8v0.4c0,0.6,0.2,1,0.5,1.3C139.4,716.4,139.9,716.6,140.6,716.6z"/>
		<path class="st0" d="M150.9,719.3v-15.8h4.4v3.4h0.2c0.1-0.4,0.2-0.9,0.4-1.3c0.2-0.4,0.5-0.8,0.8-1.1c0.3-0.3,0.7-0.6,1.2-0.8
			c0.5-0.2,1-0.3,1.6-0.3h0.8v4.1h-1.1c-1.3,0-2.3,0.2-2.9,0.5s-0.9,1-0.9,1.9v9.2H150.9z"/>
		<path class="st0" d="M173.1,719.3c-0.8,0-1.5-0.2-2-0.8s-0.9-1.2-1-2h-0.2c-0.2,1-0.8,1.8-1.6,2.3c-0.8,0.5-1.8,0.8-3,0.8
			c-1.6,0-2.8-0.4-3.6-1.3c-0.8-0.8-1.3-1.9-1.3-3.3c0-1.7,0.6-2.9,1.8-3.7c1.2-0.8,2.9-1.2,4.9-1.2h2.5v-1c0-0.8-0.2-1.4-0.6-1.8
			c-0.4-0.5-1.1-0.7-2-0.7c-0.9,0-1.6,0.2-2.1,0.6c-0.5,0.4-1,0.8-1.3,1.3l-2.6-2.4c0.6-0.9,1.4-1.7,2.4-2.2c1-0.5,2.3-0.8,3.9-0.8
			c2.2,0,3.9,0.5,5,1.5c1.1,1,1.7,2.4,1.7,4.3v6.9h1.5v3.5H173.1z M166.9,716.6c0.7,0,1.4-0.2,1.9-0.5s0.8-0.8,0.8-1.5v-1.8h-2.2
			c-1.7,0-2.6,0.6-2.6,1.8v0.4c0,0.6,0.2,1,0.5,1.3C165.8,716.4,166.3,716.6,166.9,716.6z"/>
		<path class="st0" d="M194.8,719.3c-0.8,0-1.5-0.2-2-0.8s-0.9-1.2-1-2h-0.2c-0.2,1-0.8,1.8-1.6,2.3c-0.8,0.5-1.8,0.8-3,0.8
			c-1.6,0-2.8-0.4-3.6-1.3c-0.8-0.8-1.3-1.9-1.3-3.3c0-1.7,0.6-2.9,1.8-3.7c1.2-0.8,2.9-1.2,4.9-1.2h2.5v-1c0-0.8-0.2-1.4-0.6-1.8
			c-0.4-0.5-1.1-0.7-2-0.7c-0.9,0-1.6,0.2-2.1,0.6c-0.5,0.4-1,0.8-1.3,1.3l-2.6-2.4c0.6-0.9,1.4-1.7,2.4-2.2c1-0.5,2.3-0.8,3.9-0.8
			c2.2,0,3.9,0.5,5,1.5c1.1,1,1.7,2.4,1.7,4.3v6.9h1.5v3.5H194.8z M188.7,716.6c0.7,0,1.4-0.2,1.9-0.5s0.8-0.8,0.8-1.5v-1.8h-2.2
			c-1.7,0-2.6,0.6-2.6,1.8v0.4c0,0.6,0.2,1,0.5,1.3C187.5,716.4,188,716.6,188.7,716.6z"/>
		<path class="st0" d="M199.1,703.6h4.4v2.6h0.2c0.2-0.9,0.7-1.6,1.5-2.2c0.8-0.6,1.7-0.8,2.7-0.8c2,0,3.5,0.7,4.5,2.1
			s1.5,3.4,1.5,6.1c0,2.7-0.5,4.7-1.5,6.1s-2.5,2.1-4.5,2.1c-0.5,0-1-0.1-1.5-0.2c-0.5-0.1-0.9-0.4-1.2-0.6c-0.4-0.3-0.7-0.6-0.9-1
			c-0.3-0.4-0.5-0.8-0.6-1.2h-0.2v8.6h-4.4V703.6z M206.4,716.1c0.8,0,1.5-0.3,2.1-0.9c0.5-0.6,0.8-1.4,0.8-2.4v-2.7
			c0-1-0.3-1.8-0.8-2.4c-0.6-0.6-1.2-0.9-2.1-0.9s-1.5,0.2-2.1,0.6c-0.6,0.4-0.8,1-0.8,1.7v4.7c0,0.7,0.3,1.3,0.8,1.7
			C204.9,715.9,205.6,716.1,206.4,716.1z"/>
		<path class="st0" d="M222.5,719.7c-1.2,0-2.2-0.2-3.1-0.6c-0.9-0.4-1.7-0.9-2.3-1.7c-0.6-0.7-1.1-1.6-1.5-2.6
			c-0.3-1-0.5-2.2-0.5-3.4c0-1.3,0.2-2.4,0.5-3.4c0.3-1,0.8-1.9,1.5-2.6c0.6-0.7,1.4-1.3,2.3-1.6c0.9-0.4,1.9-0.6,3.1-0.6
			c1.2,0,2.2,0.2,3.1,0.6c0.9,0.4,1.7,0.9,2.3,1.6c0.6,0.7,1.1,1.6,1.5,2.6c0.3,1,0.5,2.2,0.5,3.4c0,1.3-0.2,2.4-0.5,3.4
			c-0.3,1-0.8,1.9-1.5,2.6c-0.6,0.7-1.4,1.3-2.3,1.7C224.7,719.5,223.6,719.7,222.5,719.7z M222.5,716.2c0.9,0,1.6-0.3,2-0.8
			s0.7-1.3,0.7-2.3v-3.2c0-1-0.2-1.8-0.7-2.3s-1.2-0.8-2-0.8c-0.9,0-1.6,0.3-2,0.8s-0.7,1.3-0.7,2.3v3.2c0,1,0.2,1.8,0.7,2.3
			S221.6,716.2,222.5,716.2z"/>
		<path class="st0" d="M241.1,703.6h4.1l-6.1,18.2c-0.4,1.2-1,2.1-1.7,2.7c-0.7,0.6-1.8,0.9-3.1,0.9h-2.8v-3.5h3l0.5-1.7l-5.5-16.6
			h4.4l2.3,7.3l1.1,4.6h0.2l1.2-4.6L241.1,703.6z"/>
		<path class="st0" d="M257.6,719.3c-0.8,0-1.5-0.2-2-0.8s-0.9-1.2-1-2h-0.2c-0.2,1-0.8,1.8-1.6,2.3c-0.8,0.5-1.8,0.8-3,0.8
			c-1.6,0-2.8-0.4-3.6-1.3c-0.8-0.8-1.3-1.9-1.3-3.3c0-1.7,0.6-2.9,1.8-3.7c1.2-0.8,2.9-1.2,4.9-1.2h2.5v-1c0-0.8-0.2-1.4-0.6-1.8
			c-0.4-0.5-1.1-0.7-2-0.7c-0.9,0-1.6,0.2-2.1,0.6c-0.5,0.4-1,0.8-1.3,1.3l-2.6-2.4c0.6-0.9,1.4-1.7,2.4-2.2c1-0.5,2.3-0.8,3.9-0.8
			c2.2,0,3.9,0.5,5,1.5c1.1,1,1.7,2.4,1.7,4.3v6.9h1.5v3.5H257.6z M251.4,716.6c0.7,0,1.4-0.2,1.9-0.5s0.8-0.8,0.8-1.5v-1.8h-2.2
			c-1.7,0-2.6,0.6-2.6,1.8v0.4c0,0.6,0.2,1,0.5,1.3C250.2,716.4,250.7,716.6,251.4,716.6z"/>
		<path class="st0" d="M261.8,719.3v-15.8h4.4v3.4h0.2c0.1-0.4,0.2-0.9,0.4-1.3c0.2-0.4,0.5-0.8,0.8-1.1c0.3-0.3,0.7-0.6,1.2-0.8
			c0.5-0.2,1-0.3,1.6-0.3h0.8v4.1h-1.1c-1.3,0-2.3,0.2-2.9,0.5s-0.9,1-0.9,1.9v9.2H261.8z"/>
		<path class="st0" d="M285.1,719.7c-1.2,0-2.3-0.2-3.2-0.6c-0.9-0.4-1.7-0.9-2.4-1.7s-1.1-1.6-1.5-2.6c-0.3-1-0.5-2.2-0.5-3.4
			c0-1.2,0.2-2.4,0.5-3.4c0.3-1,0.8-1.9,1.4-2.6c0.6-0.7,1.4-1.3,2.3-1.7c0.9-0.4,2-0.6,3.1-0.6c1.3,0,2.4,0.2,3.3,0.7
			c0.9,0.4,1.7,1,2.3,1.8c0.6,0.7,1,1.6,1.3,2.6c0.3,1,0.4,2,0.4,3v1.3h-10.1v0.2c0,1,0.3,1.8,0.8,2.5c0.6,0.6,1.4,0.9,2.6,0.9
			c0.9,0,1.7-0.2,2.2-0.5s1.1-0.8,1.6-1.3l2.2,2.8c-0.7,0.8-1.6,1.5-2.7,1.9C287.9,719.4,286.6,719.7,285.1,719.7z M285.1,706.5
			c-0.9,0-1.6,0.3-2.1,0.9c-0.5,0.6-0.8,1.4-0.8,2.4v0.2h5.5v-0.3c0-1-0.2-1.7-0.6-2.3C286.6,706.8,286,706.5,285.1,706.5z"/>
		<path class="st0" d="M298.6,719.3c-1.5,0-2.6-0.4-3.3-1.1c-0.7-0.7-1.1-1.8-1.1-3.2v-17.9h4.4v18.8h2v3.5H298.6z"/>
		<path class="st0" d="M314.4,719.7c-1.2,0-2.2-0.2-3.2-0.6c-0.9-0.4-1.7-0.9-2.3-1.7c-0.6-0.7-1.1-1.6-1.4-2.6
			c-0.3-1-0.5-2.2-0.5-3.4c0-1.3,0.2-2.4,0.5-3.4c0.3-1,0.8-1.9,1.4-2.6c0.6-0.7,1.4-1.3,2.3-1.7s2-0.6,3.2-0.6c1.6,0,2.9,0.4,4,1.1
			c1.1,0.7,1.8,1.7,2.3,3l-3.6,1.6c-0.1-0.6-0.4-1.1-0.9-1.5s-1-0.6-1.8-0.6c-0.9,0-1.6,0.3-2,0.9c-0.5,0.6-0.7,1.4-0.7,2.4v2.9
			c0,1,0.2,1.8,0.7,2.4c0.5,0.6,1.1,0.9,2,0.9c0.8,0,1.4-0.2,1.9-0.6c0.5-0.4,0.8-1,1-1.7l3.4,1.5c-0.5,1.5-1.3,2.6-2.4,3.3
			C317.3,719.3,315.9,719.7,314.4,719.7z"/>
		<path class="st0" d="M322.3,719.3v-15.8h4.4v3.4h0.2c0.1-0.4,0.2-0.9,0.4-1.3c0.2-0.4,0.5-0.8,0.8-1.1c0.3-0.3,0.7-0.6,1.2-0.8
			c0.5-0.2,1-0.3,1.6-0.3h0.8v4.1h-1.1c-1.3,0-2.3,0.2-2.9,0.5s-0.9,1-0.9,1.9v9.2H322.3z"/>
		<path class="st0" d="M339.7,719.7c-1.2,0-2.3-0.2-3.2-0.6c-0.9-0.4-1.7-0.9-2.4-1.7s-1.1-1.6-1.5-2.6c-0.3-1-0.5-2.2-0.5-3.4
			c0-1.2,0.2-2.4,0.5-3.4c0.3-1,0.8-1.9,1.4-2.6c0.6-0.7,1.4-1.3,2.3-1.7c0.9-0.4,2-0.6,3.1-0.6c1.3,0,2.4,0.2,3.3,0.7
			c0.9,0.4,1.7,1,2.3,1.8c0.6,0.7,1,1.6,1.3,2.6c0.3,1,0.4,2,0.4,3v1.3h-10.1v0.2c0,1,0.3,1.8,0.8,2.5c0.6,0.6,1.4,0.9,2.6,0.9
			c0.9,0,1.7-0.2,2.2-0.5s1.1-0.8,1.6-1.3l2.2,2.8c-0.7,0.8-1.6,1.5-2.7,1.9C342.4,719.4,341.1,719.7,339.7,719.7z M339.6,706.5
			c-0.9,0-1.6,0.3-2.1,0.9c-0.5,0.6-0.8,1.4-0.8,2.4v0.2h5.5v-0.3c0-1-0.2-1.7-0.6-2.3C341.1,706.8,340.5,706.5,339.6,706.5z"/>
		<path class="st0" d="M355.1,719.7c-1.2,0-2.2-0.2-3.2-0.6c-0.9-0.4-1.7-0.9-2.3-1.7c-0.6-0.7-1.1-1.6-1.4-2.6
			c-0.3-1-0.5-2.2-0.5-3.4c0-1.3,0.2-2.4,0.5-3.4c0.3-1,0.8-1.9,1.4-2.6c0.6-0.7,1.4-1.3,2.3-1.7s2-0.6,3.2-0.6c1.6,0,2.9,0.4,4,1.1
			c1.1,0.7,1.8,1.7,2.3,3l-3.6,1.6c-0.1-0.6-0.4-1.1-0.9-1.5s-1-0.6-1.8-0.6c-0.9,0-1.6,0.3-2,0.9c-0.5,0.6-0.7,1.4-0.7,2.4v2.9
			c0,1,0.2,1.8,0.7,2.4c0.5,0.6,1.1,0.9,2,0.9c0.8,0,1.4-0.2,1.9-0.6c0.5-0.4,0.8-1,1-1.7l3.4,1.5c-0.5,1.5-1.3,2.6-2.4,3.3
			C358,719.3,356.7,719.7,355.1,719.7z"/>
		<path class="st0" d="M365.3,701.9c-0.9,0-1.6-0.2-2-0.6c-0.4-0.4-0.6-0.9-0.6-1.6V699c0-0.6,0.2-1.2,0.6-1.6
			c0.4-0.4,1.1-0.6,2-0.6s1.6,0.2,2,0.6c0.4,0.4,0.6,0.9,0.6,1.6v0.7c0,0.6-0.2,1.2-0.6,1.6C366.8,701.7,366.2,701.9,365.3,701.9z
			 M363.1,703.6h4.4v15.8h-4.4V703.6z"/>
		<path class="st0" d="M370.4,719.3v-15.8h4.4v2.7h0.2c0.3-0.8,0.8-1.6,1.4-2.1c0.7-0.6,1.6-0.9,2.8-0.9c1.1,0,2,0.3,2.8,0.8
			c0.8,0.5,1.3,1.3,1.6,2.4h0.1c0.1-0.4,0.4-0.9,0.6-1.2c0.3-0.4,0.6-0.7,1.1-1s0.9-0.5,1.4-0.7c0.5-0.2,1.1-0.3,1.7-0.3
			c1.5,0,2.7,0.5,3.5,1.6s1.2,2.6,1.2,4.6v9.9h-4.4v-9.5c0-2-0.7-3-2.2-3c-0.7,0-1.3,0.2-1.8,0.6c-0.5,0.4-0.8,1-0.8,1.7v10.2h-4.4
			v-9.5c0-2-0.7-3-2.2-3c-0.3,0-0.6,0-0.9,0.1s-0.6,0.2-0.8,0.4c-0.3,0.2-0.5,0.4-0.6,0.7s-0.2,0.6-0.2,1v10.2H370.4z"/>
		<path class="st0" d="M398.3,701.9c-0.9,0-1.6-0.2-2-0.6c-0.4-0.4-0.6-0.9-0.6-1.6V699c0-0.6,0.2-1.2,0.6-1.6
			c0.4-0.4,1.1-0.6,2-0.6s1.6,0.2,2,0.6c0.4,0.4,0.6,0.9,0.6,1.6v0.7c0,0.6-0.2,1.2-0.6,1.6C399.8,701.7,399.2,701.9,398.3,701.9z
			 M396.1,703.6h4.4v15.8h-4.4V703.6z"/>
		<path class="st0" d="M410,719.7c-1.2,0-2.3-0.2-3.2-0.6c-0.9-0.4-1.7-0.9-2.4-1.7s-1.1-1.6-1.5-2.6c-0.3-1-0.5-2.2-0.5-3.4
			c0-1.2,0.2-2.4,0.5-3.4c0.3-1,0.8-1.9,1.4-2.6c0.6-0.7,1.4-1.3,2.3-1.7c0.9-0.4,2-0.6,3.1-0.6c1.3,0,2.4,0.2,3.3,0.7
			c0.9,0.4,1.7,1,2.3,1.8c0.6,0.7,1,1.6,1.3,2.6c0.3,1,0.4,2,0.4,3v1.3H407v0.2c0,1,0.3,1.8,0.8,2.5c0.6,0.6,1.4,0.9,2.6,0.9
			c0.9,0,1.7-0.2,2.2-0.5s1.1-0.8,1.6-1.3l2.2,2.8c-0.7,0.8-1.6,1.5-2.7,1.9C412.7,719.4,411.4,719.7,410,719.7z M409.9,706.5
			c-0.9,0-1.6,0.3-2.1,0.9c-0.5,0.6-0.8,1.4-0.8,2.4v0.2h5.5v-0.3c0-1-0.2-1.7-0.6-2.3C411.5,706.8,410.8,706.5,409.9,706.5z"/>
		<path class="st0" d="M419.1,719.3v-15.8h4.4v2.7h0.2c0.3-0.8,0.8-1.5,1.5-2.1c0.7-0.6,1.7-0.9,2.9-0.9c1.6,0,2.8,0.5,3.7,1.6
			c0.8,1.1,1.2,2.6,1.2,4.6v9.9h-4.4v-9.5c0-1-0.2-1.8-0.5-2.3c-0.3-0.5-0.9-0.7-1.7-0.7c-0.4,0-0.7,0-1,0.1
			c-0.3,0.1-0.6,0.2-0.9,0.4c-0.3,0.2-0.5,0.4-0.6,0.7c-0.2,0.3-0.2,0.6-0.2,1v10.2H419.1z"/>
		<path class="st0" d="M441.3,719.3c-1.5,0-2.7-0.4-3.5-1.2c-0.8-0.8-1.2-1.9-1.2-3.4V707h-2.2v-3.5h1.1c0.6,0,1-0.1,1.2-0.4
			s0.3-0.7,0.3-1.2v-2.6h4v4.3h3.1v3.5h-3.1v8.8h2.9v3.5H441.3z"/>
		<path class="st0" d="M452.3,719.7c-1.2,0-2.2-0.2-3.1-0.6c-0.9-0.4-1.7-0.9-2.3-1.7c-0.6-0.7-1.1-1.6-1.5-2.6
			c-0.3-1-0.5-2.2-0.5-3.4c0-1.3,0.2-2.4,0.5-3.4c0.3-1,0.8-1.9,1.5-2.6c0.6-0.7,1.4-1.3,2.3-1.6c0.9-0.4,1.9-0.6,3.1-0.6
			c1.2,0,2.2,0.2,3.1,0.6c0.9,0.4,1.7,0.9,2.3,1.6c0.6,0.7,1.1,1.6,1.5,2.6c0.3,1,0.5,2.2,0.5,3.4c0,1.3-0.2,2.4-0.5,3.4
			c-0.3,1-0.8,1.9-1.5,2.6c-0.6,0.7-1.4,1.3-2.3,1.7C454.5,719.5,453.5,719.7,452.3,719.7z M452.3,716.2c0.9,0,1.6-0.3,2-0.8
			s0.7-1.3,0.7-2.3v-3.2c0-1-0.2-1.8-0.7-2.3s-1.2-0.8-2-0.8c-0.9,0-1.6,0.3-2,0.8s-0.7,1.3-0.7,2.3v3.2c0,1,0.2,1.8,0.7,2.3
			S451.5,716.2,452.3,716.2z"/>
		<path class="st0" d="M477.2,703.6h4.1l-6.1,18.2c-0.4,1.2-1,2.1-1.7,2.7c-0.7,0.6-1.8,0.9-3.1,0.9h-2.8v-3.5h3l0.5-1.7l-5.5-16.6
			h4.4l2.3,7.3l1.1,4.6h0.2l1.2-4.6L477.2,703.6z"/>
		<path class="st0" d="M128.2,755.3c-1.2,0-2.3-0.2-3.2-0.6c-0.9-0.4-1.7-0.9-2.4-1.7s-1.1-1.6-1.5-2.6c-0.3-1-0.5-2.2-0.5-3.4
			c0-1.2,0.2-2.4,0.5-3.4c0.3-1,0.8-1.9,1.4-2.6c0.6-0.7,1.4-1.3,2.3-1.7c0.9-0.4,2-0.6,3.1-0.6c1.3,0,2.4,0.2,3.3,0.7
			c0.9,0.4,1.7,1,2.3,1.8c0.6,0.7,1,1.6,1.3,2.6c0.3,1,0.4,2,0.4,3v1.3h-10.1v0.2c0,1,0.3,1.8,0.8,2.5c0.6,0.6,1.4,0.9,2.6,0.9
			c0.9,0,1.7-0.2,2.2-0.5s1.1-0.8,1.6-1.3l2.2,2.8c-0.7,0.8-1.6,1.5-2.7,1.9C130.9,755,129.6,755.3,128.2,755.3z M128.1,742.1
			c-0.9,0-1.6,0.3-2.1,0.9c-0.5,0.6-0.8,1.4-0.8,2.4v0.2h5.5v-0.3c0-1-0.2-1.7-0.6-2.3C129.6,742.4,129,742.1,128.1,742.1z"/>
		<path class="st0" d="M142.6,755.3c-1.5,0-2.8-0.2-3.8-0.7s-2-1.2-2.8-2.1l2.6-2.6c0.6,0.6,1.2,1.1,1.9,1.5
			c0.7,0.4,1.4,0.5,2.3,0.5c0.9,0,1.5-0.1,1.8-0.4c0.3-0.3,0.5-0.6,0.5-1.1c0-0.7-0.5-1.2-1.6-1.3l-1.7-0.2
			c-3.5-0.4-5.3-2.1-5.3-4.9c0-0.8,0.1-1.5,0.4-2.1c0.3-0.6,0.7-1.2,1.2-1.6c0.5-0.5,1.2-0.8,1.9-1.1c0.8-0.2,1.6-0.4,2.5-0.4
			c0.8,0,1.5,0.1,2.2,0.2c0.6,0.1,1.2,0.3,1.7,0.5c0.5,0.2,0.9,0.5,1.4,0.8c0.4,0.3,0.8,0.7,1.2,1l-2.6,2.6
			c-0.5-0.5-1.1-0.9-1.7-1.2s-1.3-0.4-1.9-0.4c-0.8,0-1.3,0.1-1.6,0.4s-0.5,0.6-0.5,1c0,0.4,0.1,0.7,0.3,1c0.2,0.2,0.7,0.4,1.3,0.5
			l1.8,0.2c3.5,0.5,5.2,2,5.2,4.7c0,0.8-0.2,1.5-0.5,2.1c-0.3,0.6-0.8,1.2-1.4,1.7c-0.6,0.5-1.3,0.8-2.1,1.1
			C144.5,755.1,143.6,755.3,142.6,755.3z"/>
		<path class="st0" d="M156.5,754.9c-1.5,0-2.7-0.4-3.5-1.2c-0.8-0.8-1.2-1.9-1.2-3.4v-7.7h-2.2v-3.5h1.1c0.6,0,1-0.1,1.2-0.4
			s0.3-0.7,0.3-1.2v-2.6h4v4.3h3.1v3.5h-3.1v8.8h2.9v3.5H156.5z"/>
		<path class="st0" d="M172.9,754.9c-0.8,0-1.5-0.2-2-0.8s-0.9-1.2-1-2h-0.2c-0.2,1-0.8,1.8-1.6,2.3c-0.8,0.5-1.8,0.8-3,0.8
			c-1.6,0-2.8-0.4-3.6-1.3c-0.8-0.8-1.3-1.9-1.3-3.3c0-1.7,0.6-2.9,1.8-3.7c1.2-0.8,2.9-1.2,4.9-1.2h2.5v-1c0-0.8-0.2-1.4-0.6-1.8
			c-0.4-0.5-1.1-0.7-2-0.7c-0.9,0-1.6,0.2-2.1,0.6c-0.5,0.4-1,0.8-1.3,1.3l-2.6-2.4c0.6-0.9,1.4-1.7,2.4-2.2c1-0.5,2.3-0.8,3.9-0.8
			c2.2,0,3.9,0.5,5,1.5c1.1,1,1.7,2.4,1.7,4.3v6.9h1.5v3.5H172.9z M166.7,752.2c0.7,0,1.4-0.2,1.9-0.5s0.8-0.8,0.8-1.5v-1.8h-2.2
			c-1.7,0-2.6,0.6-2.6,1.8v0.4c0,0.6,0.2,1,0.5,1.3C165.5,752,166.1,752.2,166.7,752.2z"/>
		<path class="st0" d="M177.1,732.7h4.4v9.1h0.2c0.2-0.9,0.7-1.6,1.5-2.2c0.8-0.6,1.7-0.8,2.7-0.8c2,0,3.5,0.7,4.5,2.1
			s1.5,3.4,1.5,6.1c0,2.7-0.5,4.7-1.5,6.1s-2.5,2.1-4.5,2.1c-0.5,0-1-0.1-1.5-0.2c-0.5-0.1-0.9-0.4-1.2-0.6c-0.4-0.3-0.7-0.6-0.9-1
			c-0.3-0.4-0.5-0.8-0.6-1.2h-0.2v2.6h-4.4V732.7z M184.4,751.7c0.8,0,1.5-0.3,2.1-0.9c0.5-0.6,0.8-1.4,0.8-2.4v-2.7
			c0-1-0.3-1.8-0.8-2.4c-0.6-0.6-1.2-0.9-2.1-0.9s-1.5,0.2-2.1,0.6c-0.6,0.4-0.8,1-0.8,1.7v4.7c0,0.7,0.3,1.3,0.8,1.7
			C182.9,751.5,183.6,751.7,184.4,751.7z"/>
		<path class="st0" d="M196.4,737.5c-0.9,0-1.6-0.2-2-0.6c-0.4-0.4-0.6-0.9-0.6-1.6v-0.7c0-0.6,0.2-1.2,0.6-1.6
			c0.4-0.4,1.1-0.6,2-0.6s1.6,0.2,2,0.6c0.4,0.4,0.6,0.9,0.6,1.6v0.7c0,0.6-0.2,1.2-0.6,1.6C197.9,737.3,197.3,737.5,196.4,737.5z
			 M194.1,739.1h4.4v15.8h-4.4V739.1z"/>
		<path class="st0" d="M205.9,754.9c-1.5,0-2.6-0.4-3.3-1.1c-0.7-0.7-1.1-1.8-1.1-3.2v-17.9h4.4v18.8h2v3.5H205.9z"/>
		<path class="st0" d="M211.6,737.5c-0.9,0-1.6-0.2-2-0.6c-0.4-0.4-0.6-0.9-0.6-1.6v-0.7c0-0.6,0.2-1.2,0.6-1.6
			c0.4-0.4,1.1-0.6,2-0.6s1.6,0.2,2,0.6c0.4,0.4,0.6,0.9,0.6,1.6v0.7c0,0.6-0.2,1.2-0.6,1.6C213.2,737.3,212.5,737.5,211.6,737.5z
			 M209.4,739.1h4.4v15.8h-4.4V739.1z"/>
		<path class="st0" d="M226.4,752.3h-0.1c-0.1,0.4-0.3,0.8-0.6,1.2s-0.6,0.7-0.9,1c-0.4,0.3-0.8,0.5-1.3,0.6c-0.5,0.2-1,0.2-1.5,0.2
			c-2,0-3.5-0.7-4.5-2.1s-1.5-3.5-1.5-6.1c0-2.7,0.5-4.7,1.5-6.1s2.5-2.1,4.5-2.1c1,0,1.9,0.3,2.7,0.8c0.8,0.6,1.3,1.3,1.5,2.2h0.1
			v-9.1h4.4v22.2h-4.4V752.3z M223.5,751.7c0.8,0,1.5-0.2,2.1-0.6c0.6-0.4,0.8-1,0.8-1.7v-4.7c0-0.7-0.3-1.3-0.8-1.7
			s-1.2-0.6-2.1-0.6c-0.8,0-1.5,0.3-2.1,0.9c-0.6,0.6-0.8,1.4-0.8,2.4v2.7c0,1,0.3,1.8,0.8,2.4C222,751.4,222.7,751.7,223.5,751.7z"
			/>
		<path class="st0" d="M245.5,754.9c-0.8,0-1.5-0.2-2-0.8s-0.9-1.2-1-2h-0.2c-0.2,1-0.8,1.8-1.6,2.3c-0.8,0.5-1.8,0.8-3,0.8
			c-1.6,0-2.8-0.4-3.6-1.3c-0.8-0.8-1.3-1.9-1.3-3.3c0-1.7,0.6-2.9,1.8-3.7c1.2-0.8,2.9-1.2,4.9-1.2h2.5v-1c0-0.8-0.2-1.4-0.6-1.8
			c-0.4-0.5-1.1-0.7-2-0.7c-0.9,0-1.6,0.2-2.1,0.6c-0.5,0.4-1,0.8-1.3,1.3l-2.6-2.4c0.6-0.9,1.4-1.7,2.4-2.2c1-0.5,2.3-0.8,3.9-0.8
			c2.2,0,3.9,0.5,5,1.5c1.1,1,1.7,2.4,1.7,4.3v6.9h1.5v3.5H245.5z M239.3,752.2c0.7,0,1.4-0.2,1.9-0.5s0.8-0.8,0.8-1.5v-1.8h-2.2
			c-1.7,0-2.6,0.6-2.6,1.8v0.4c0,0.6,0.2,1,0.5,1.3C238.1,752,238.7,752.2,239.3,752.2z"/>
		<path class="st0" d="M259.4,752.3h-0.1c-0.1,0.4-0.3,0.8-0.6,1.2s-0.6,0.7-0.9,1c-0.4,0.3-0.8,0.5-1.3,0.6c-0.5,0.2-1,0.2-1.5,0.2
			c-2,0-3.5-0.7-4.5-2.1s-1.5-3.5-1.5-6.1c0-2.7,0.5-4.7,1.5-6.1s2.5-2.1,4.5-2.1c1,0,1.9,0.3,2.7,0.8c0.8,0.6,1.3,1.3,1.5,2.2h0.1
			v-9.1h4.4v22.2h-4.4V752.3z M256.4,751.7c0.8,0,1.5-0.2,2.1-0.6c0.6-0.4,0.8-1,0.8-1.7v-4.7c0-0.7-0.3-1.3-0.8-1.7
			s-1.2-0.6-2.1-0.6c-0.8,0-1.5,0.3-2.1,0.9c-0.6,0.6-0.8,1.4-0.8,2.4v2.7c0,1,0.3,1.8,0.8,2.4C254.9,751.4,255.6,751.7,256.4,751.7
			z"/>
		<path class="st0" d="M282.3,752.3h-0.1c-0.1,0.4-0.3,0.8-0.6,1.2s-0.6,0.7-0.9,1c-0.4,0.3-0.8,0.5-1.3,0.6c-0.5,0.2-1,0.2-1.5,0.2
			c-2,0-3.5-0.7-4.5-2.1s-1.5-3.5-1.5-6.1c0-2.7,0.5-4.7,1.5-6.1s2.5-2.1,4.5-2.1c1,0,1.9,0.3,2.7,0.8c0.8,0.6,1.3,1.3,1.5,2.2h0.1
			v-9.1h4.4v22.2h-4.4V752.3z M279.4,751.7c0.8,0,1.5-0.2,2.1-0.6c0.6-0.4,0.8-1,0.8-1.7v-4.7c0-0.7-0.3-1.3-0.8-1.7
			s-1.2-0.6-2.1-0.6c-0.8,0-1.5,0.3-2.1,0.9c-0.6,0.6-0.8,1.4-0.8,2.4v2.7c0,1,0.3,1.8,0.8,2.4C277.8,751.4,278.5,751.7,279.4,751.7
			z"/>
		<path class="st0" d="M296.2,755.3c-1.2,0-2.3-0.2-3.2-0.6c-0.9-0.4-1.7-0.9-2.4-1.7s-1.1-1.6-1.5-2.6c-0.3-1-0.5-2.2-0.5-3.4
			c0-1.2,0.2-2.4,0.5-3.4c0.3-1,0.8-1.9,1.4-2.6c0.6-0.7,1.4-1.3,2.3-1.7c0.9-0.4,2-0.6,3.1-0.6c1.3,0,2.4,0.2,3.3,0.7
			c0.9,0.4,1.7,1,2.3,1.8c0.6,0.7,1,1.6,1.3,2.6c0.3,1,0.4,2,0.4,3v1.3h-10.1v0.2c0,1,0.3,1.8,0.8,2.5c0.6,0.6,1.4,0.9,2.6,0.9
			c0.9,0,1.7-0.2,2.2-0.5s1.1-0.8,1.6-1.3l2.2,2.8c-0.7,0.8-1.6,1.5-2.7,1.9C298.9,755,297.7,755.3,296.2,755.3z M296.1,742.1
			c-0.9,0-1.6,0.3-2.1,0.9c-0.5,0.6-0.8,1.4-0.8,2.4v0.2h5.5v-0.3c0-1-0.2-1.7-0.6-2.3C297.7,742.4,297,742.1,296.1,742.1z"/>
		<path class="st0" d="M317.6,755.3c-1.2,0-2.2-0.2-3.2-0.6c-0.9-0.4-1.7-0.9-2.3-1.7c-0.6-0.7-1.1-1.6-1.4-2.6
			c-0.3-1-0.5-2.2-0.5-3.4c0-1.3,0.2-2.4,0.5-3.4c0.3-1,0.8-1.9,1.4-2.6c0.6-0.7,1.4-1.3,2.3-1.7s2-0.6,3.2-0.6c1.6,0,2.9,0.4,4,1.1
			c1.1,0.7,1.8,1.7,2.3,3l-3.6,1.6c-0.1-0.6-0.4-1.1-0.9-1.5s-1-0.6-1.8-0.6c-0.9,0-1.6,0.3-2,0.9c-0.5,0.6-0.7,1.4-0.7,2.4v2.9
			c0,1,0.2,1.8,0.7,2.4c0.5,0.6,1.1,0.9,2,0.9c0.8,0,1.4-0.2,1.9-0.6c0.5-0.4,0.8-1,1-1.7l3.4,1.5c-0.5,1.5-1.3,2.6-2.4,3.3
			C320.4,754.9,319.1,755.3,317.6,755.3z"/>
		<path class="st0" d="M331.7,755.3c-1.2,0-2.2-0.2-3.1-0.6c-0.9-0.4-1.7-0.9-2.3-1.7c-0.6-0.7-1.1-1.6-1.5-2.6
			c-0.3-1-0.5-2.2-0.5-3.4c0-1.3,0.2-2.4,0.5-3.4c0.3-1,0.8-1.9,1.5-2.6c0.6-0.7,1.4-1.3,2.3-1.6c0.9-0.4,1.9-0.6,3.1-0.6
			c1.2,0,2.2,0.2,3.1,0.6c0.9,0.4,1.7,0.9,2.3,1.6c0.6,0.7,1.1,1.6,1.5,2.6c0.3,1,0.5,2.2,0.5,3.4c0,1.3-0.2,2.4-0.5,3.4
			c-0.3,1-0.8,1.9-1.5,2.6c-0.6,0.7-1.4,1.3-2.3,1.7C333.9,755.1,332.9,755.3,331.7,755.3z M331.7,751.7c0.9,0,1.6-0.3,2-0.8
			s0.7-1.3,0.7-2.3v-3.2c0-1-0.2-1.8-0.7-2.3s-1.2-0.8-2-0.8c-0.9,0-1.6,0.3-2,0.8s-0.7,1.3-0.7,2.3v3.2c0,1,0.2,1.8,0.7,2.3
			S330.9,751.7,331.7,751.7z"/>
		<path class="st0" d="M347.5,755.3c-1.2,0-2.2-0.2-3.1-0.6c-0.9-0.4-1.7-0.9-2.3-1.7c-0.6-0.7-1.1-1.6-1.5-2.6
			c-0.3-1-0.5-2.2-0.5-3.4c0-1.3,0.2-2.4,0.5-3.4c0.3-1,0.8-1.9,1.5-2.6c0.6-0.7,1.4-1.3,2.3-1.6c0.9-0.4,1.9-0.6,3.1-0.6
			c1.2,0,2.2,0.2,3.1,0.6c0.9,0.4,1.7,0.9,2.3,1.6c0.6,0.7,1.1,1.6,1.5,2.6c0.3,1,0.5,2.2,0.5,3.4c0,1.3-0.2,2.4-0.5,3.4
			c-0.3,1-0.8,1.9-1.5,2.6c-0.6,0.7-1.4,1.3-2.3,1.7C349.7,755.1,348.6,755.3,347.5,755.3z M347.5,751.7c0.9,0,1.6-0.3,2-0.8
			s0.7-1.3,0.7-2.3v-3.2c0-1-0.2-1.8-0.7-2.3s-1.2-0.8-2-0.8c-0.9,0-1.6,0.3-2,0.8s-0.7,1.3-0.7,2.3v3.2c0,1,0.2,1.8,0.7,2.3
			S346.6,751.7,347.5,751.7z"/>
		<path class="st0" d="M356.8,739.1h4.4v2.6h0.2c0.2-0.9,0.7-1.6,1.5-2.2c0.8-0.6,1.7-0.8,2.7-0.8c2,0,3.5,0.7,4.5,2.1
			s1.5,3.4,1.5,6.1c0,2.7-0.5,4.7-1.5,6.1s-2.5,2.1-4.5,2.1c-0.5,0-1-0.1-1.5-0.2c-0.5-0.1-0.9-0.4-1.2-0.6c-0.4-0.3-0.7-0.6-0.9-1
			c-0.3-0.4-0.5-0.8-0.6-1.2h-0.2v8.6h-4.4V739.1z M364.1,751.7c0.8,0,1.5-0.3,2.1-0.9c0.5-0.6,0.8-1.4,0.8-2.4v-2.7
			c0-1-0.3-1.8-0.8-2.4c-0.6-0.6-1.2-0.9-2.1-0.9s-1.5,0.2-2.1,0.6c-0.6,0.4-0.8,1-0.8,1.7v4.7c0,0.7,0.3,1.3,0.8,1.7
			C362.6,751.5,363.3,751.7,364.1,751.7z"/>
		<path class="st0" d="M380.4,755.3c-1.2,0-2.3-0.2-3.2-0.6c-0.9-0.4-1.7-0.9-2.4-1.7s-1.1-1.6-1.5-2.6c-0.3-1-0.5-2.2-0.5-3.4
			c0-1.2,0.2-2.4,0.5-3.4c0.3-1,0.8-1.9,1.4-2.6c0.6-0.7,1.4-1.3,2.3-1.7c0.9-0.4,2-0.6,3.1-0.6c1.3,0,2.4,0.2,3.3,0.7
			c0.9,0.4,1.7,1,2.3,1.8c0.6,0.7,1,1.6,1.3,2.6c0.3,1,0.4,2,0.4,3v1.3h-10.1v0.2c0,1,0.3,1.8,0.8,2.5c0.6,0.6,1.4,0.9,2.6,0.9
			c0.9,0,1.7-0.2,2.2-0.5s1.1-0.8,1.6-1.3l2.2,2.8c-0.7,0.8-1.6,1.5-2.7,1.9C383.1,755,381.8,755.3,380.4,755.3z M380.3,742.1
			c-0.9,0-1.6,0.3-2.1,0.9c-0.5,0.6-0.8,1.4-0.8,2.4v0.2h5.5v-0.3c0-1-0.2-1.7-0.6-2.3C381.9,742.4,381.2,742.1,380.3,742.1z"/>
		<path class="st0" d="M389.5,754.9v-15.8h4.4v3.4h0.2c0.1-0.4,0.2-0.9,0.4-1.3c0.2-0.4,0.5-0.8,0.8-1.1c0.3-0.3,0.7-0.6,1.2-0.8
			c0.5-0.2,1-0.3,1.6-0.3h0.8v4.1h-1.1c-1.3,0-2.3,0.2-2.9,0.5s-0.9,1-0.9,1.9v9.2H389.5z"/>
		<path class="st0" d="M411.6,754.9c-0.8,0-1.5-0.2-2-0.8s-0.9-1.2-1-2h-0.2c-0.2,1-0.8,1.8-1.6,2.3c-0.8,0.5-1.8,0.8-3,0.8
			c-1.6,0-2.8-0.4-3.6-1.3c-0.8-0.8-1.3-1.9-1.3-3.3c0-1.7,0.6-2.9,1.8-3.7c1.2-0.8,2.9-1.2,4.9-1.2h2.5v-1c0-0.8-0.2-1.4-0.6-1.8
			c-0.4-0.5-1.1-0.7-2-0.7c-0.9,0-1.6,0.2-2.1,0.6c-0.5,0.4-1,0.8-1.3,1.3l-2.6-2.4c0.6-0.9,1.4-1.7,2.4-2.2c1-0.5,2.3-0.8,3.9-0.8
			c2.2,0,3.9,0.5,5,1.5c1.1,1,1.7,2.4,1.7,4.3v6.9h1.5v3.5H411.6z M405.5,752.2c0.7,0,1.4-0.2,1.9-0.5s0.8-0.8,0.8-1.5v-1.8H406
			c-1.7,0-2.6,0.6-2.6,1.8v0.4c0,0.6,0.2,1,0.5,1.3C404.3,752,404.8,752.2,405.5,752.2z"/>
		<path class="st0" d="M421.2,754.9c-1.5,0-2.7-0.4-3.5-1.2c-0.8-0.8-1.2-1.9-1.2-3.4v-7.7h-2.2v-3.5h1.1c0.6,0,1-0.1,1.2-0.4
			s0.3-0.7,0.3-1.2v-2.6h4v4.3h3.1v3.5H421v8.8h2.9v3.5H421.2z"/>
		<path class="st0" d="M428.2,737.5c-0.9,0-1.6-0.2-2-0.6c-0.4-0.4-0.6-0.9-0.6-1.6v-0.7c0-0.6,0.2-1.2,0.6-1.6
			c0.4-0.4,1.1-0.6,2-0.6s1.6,0.2,2,0.6c0.4,0.4,0.6,0.9,0.6,1.6v0.7c0,0.6-0.2,1.2-0.6,1.6C429.7,737.3,429.1,737.5,428.2,737.5z
			 M426,739.1h4.4v15.8H426V739.1z"/>
		<path class="st0" d="M436.7,754.9l-5.2-15.8h4.4l2,6.4l1.5,5.7h0.2l1.5-5.7l1.9-6.4h4.2l-5.2,15.8H436.7z"/>
		<path class="st0" d="M459.7,754.9c-0.8,0-1.5-0.2-2-0.8s-0.9-1.2-1-2h-0.2c-0.2,1-0.8,1.8-1.6,2.3c-0.8,0.5-1.8,0.8-3,0.8
			c-1.6,0-2.8-0.4-3.6-1.3c-0.8-0.8-1.3-1.9-1.3-3.3c0-1.7,0.6-2.9,1.8-3.7c1.2-0.8,2.9-1.2,4.9-1.2h2.5v-1c0-0.8-0.2-1.4-0.6-1.8
			c-0.4-0.5-1.1-0.7-2-0.7c-0.9,0-1.6,0.2-2.1,0.6c-0.5,0.4-1,0.8-1.3,1.3l-2.6-2.4c0.6-0.9,1.4-1.7,2.4-2.2c1-0.5,2.3-0.8,3.9-0.8
			c2.2,0,3.9,0.5,5,1.5c1.1,1,1.7,2.4,1.7,4.3v6.9h1.5v3.5H459.7z M453.5,752.2c0.7,0,1.4-0.2,1.9-0.5s0.8-0.8,0.8-1.5v-1.8H454
			c-1.7,0-2.6,0.6-2.6,1.8v0.4c0,0.6,0.2,1,0.5,1.3C452.3,752,452.8,752.2,453.5,752.2z"/>
		<path class="st0" d="M469.2,755.3c-1.5,0-2.8-0.2-3.8-0.7s-2-1.2-2.8-2.1l2.6-2.6c0.6,0.6,1.2,1.1,1.9,1.5
			c0.7,0.4,1.4,0.5,2.3,0.5c0.9,0,1.5-0.1,1.8-0.4c0.3-0.3,0.5-0.6,0.5-1.1c0-0.7-0.5-1.2-1.6-1.3l-1.7-0.2
			c-3.5-0.4-5.3-2.1-5.3-4.9c0-0.8,0.1-1.5,0.4-2.1c0.3-0.6,0.7-1.2,1.2-1.6c0.5-0.5,1.2-0.8,1.9-1.1c0.8-0.2,1.6-0.4,2.5-0.4
			c0.8,0,1.5,0.1,2.2,0.2c0.6,0.1,1.2,0.3,1.7,0.5c0.5,0.2,0.9,0.5,1.4,0.8c0.4,0.3,0.8,0.7,1.2,1l-2.6,2.6
			c-0.5-0.5-1.1-0.9-1.7-1.2s-1.3-0.4-1.9-0.4c-0.8,0-1.3,0.1-1.6,0.4s-0.5,0.6-0.5,1c0,0.4,0.1,0.7,0.3,1c0.2,0.2,0.7,0.4,1.3,0.5
			l1.8,0.2c3.5,0.5,5.2,2,5.2,4.7c0,0.8-0.2,1.5-0.5,2.1c-0.3,0.6-0.8,1.2-1.4,1.7c-0.6,0.5-1.3,0.8-2.1,1.1
			C471.2,755.1,470.2,755.3,469.2,755.3z"/>
		<path class="st0" d="M143.4,790.5c-1.5,0-2.7-0.4-3.5-1.2c-0.8-0.8-1.2-1.9-1.2-3.4v-7.7h-2.2v-3.5h1.1c0.6,0,1-0.1,1.2-0.4
			s0.3-0.7,0.3-1.2v-2.6h4v4.3h3.1v3.5h-3.1v8.8h2.9v3.5H143.4z"/>
		<path class="st0" d="M154.7,790.8c-1.2,0-2.3-0.2-3.2-0.6c-0.9-0.4-1.7-0.9-2.4-1.7s-1.1-1.6-1.5-2.6c-0.3-1-0.5-2.2-0.5-3.4
			c0-1.2,0.2-2.4,0.5-3.4c0.3-1,0.8-1.9,1.4-2.6c0.6-0.7,1.4-1.3,2.3-1.7c0.9-0.4,2-0.6,3.1-0.6c1.3,0,2.4,0.2,3.3,0.7
			c0.9,0.4,1.7,1,2.3,1.8c0.6,0.7,1,1.6,1.3,2.6c0.3,1,0.4,2,0.4,3v1.3h-10.1v0.2c0,1,0.3,1.8,0.8,2.5c0.6,0.6,1.4,0.9,2.6,0.9
			c0.9,0,1.7-0.2,2.2-0.5s1.1-0.8,1.6-1.3l2.2,2.8c-0.7,0.8-1.6,1.5-2.7,1.9C157.4,790.6,156.1,790.8,154.7,790.8z M154.6,777.6
			c-0.9,0-1.6,0.3-2.1,0.9c-0.5,0.6-0.8,1.4-0.8,2.4v0.2h5.5v-0.3c0-1-0.2-1.7-0.6-2.3C156.1,777.9,155.5,777.6,154.6,777.6z"/>
		<path class="st0" d="M170.1,790.8c-1.2,0-2.2-0.2-3.2-0.6c-0.9-0.4-1.7-0.9-2.3-1.7c-0.6-0.7-1.1-1.6-1.4-2.6
			c-0.3-1-0.5-2.2-0.5-3.4c0-1.3,0.2-2.4,0.5-3.4c0.3-1,0.8-1.9,1.4-2.6c0.6-0.7,1.4-1.3,2.3-1.7s2-0.6,3.2-0.6c1.6,0,2.9,0.4,4,1.1
			c1.1,0.7,1.8,1.7,2.3,3l-3.6,1.6c-0.1-0.6-0.4-1.1-0.9-1.5s-1-0.6-1.8-0.6c-0.9,0-1.6,0.3-2,0.9c-0.5,0.6-0.7,1.4-0.7,2.4v2.9
			c0,1,0.2,1.8,0.7,2.4c0.5,0.6,1.1,0.9,2,0.9c0.8,0,1.4-0.2,1.9-0.6c0.5-0.4,0.8-1,1-1.7l3.4,1.5c-0.5,1.5-1.3,2.6-2.4,3.3
			C173,790.5,171.7,790.8,170.1,790.8z"/>
		<path class="st0" d="M178.1,790.5v-15.8h4.4v2.7h0.2c0.3-0.8,0.8-1.5,1.5-2.1c0.7-0.6,1.7-0.9,2.9-0.9c1.6,0,2.8,0.5,3.7,1.6
			c0.8,1.1,1.2,2.6,1.2,4.6v9.9h-4.4V781c0-1-0.2-1.8-0.5-2.3c-0.3-0.5-0.9-0.7-1.7-0.7c-0.4,0-0.7,0-1,0.1
			c-0.3,0.1-0.6,0.2-0.9,0.4c-0.3,0.2-0.5,0.4-0.6,0.7c-0.2,0.3-0.2,0.6-0.2,1v10.2H178.1z"/>
		<path class="st0" d="M201.1,790.8c-1.2,0-2.2-0.2-3.1-0.6c-0.9-0.4-1.7-0.9-2.3-1.7c-0.6-0.7-1.1-1.6-1.5-2.6
			c-0.3-1-0.5-2.2-0.5-3.4c0-1.3,0.2-2.4,0.5-3.4c0.3-1,0.8-1.9,1.5-2.6c0.6-0.7,1.4-1.3,2.3-1.6c0.9-0.4,1.9-0.6,3.1-0.6
			c1.2,0,2.2,0.2,3.1,0.6c0.9,0.4,1.7,0.9,2.3,1.6c0.6,0.7,1.1,1.6,1.5,2.6c0.3,1,0.5,2.2,0.5,3.4c0,1.3-0.2,2.4-0.5,3.4
			c-0.3,1-0.8,1.9-1.5,2.6c-0.6,0.7-1.4,1.3-2.3,1.7C203.3,790.7,202.3,790.8,201.1,790.8z M201.1,787.3c0.9,0,1.6-0.3,2-0.8
			s0.7-1.3,0.7-2.3V781c0-1-0.2-1.8-0.7-2.3s-1.2-0.8-2-0.8c-0.9,0-1.6,0.3-2,0.8s-0.7,1.3-0.7,2.3v3.2c0,1,0.2,1.8,0.7,2.3
			S200.2,787.3,201.1,787.3z"/>
		<path class="st0" d="M214.9,790.5c-1.5,0-2.6-0.4-3.3-1.1c-0.7-0.7-1.1-1.8-1.1-3.2v-17.9h4.4V787h2v3.5H214.9z"/>
		<path class="st0" d="M224.7,790.8c-1.2,0-2.2-0.2-3.1-0.6c-0.9-0.4-1.7-0.9-2.3-1.7c-0.6-0.7-1.1-1.6-1.5-2.6
			c-0.3-1-0.5-2.2-0.5-3.4c0-1.3,0.2-2.4,0.5-3.4c0.3-1,0.8-1.9,1.5-2.6c0.6-0.7,1.4-1.3,2.3-1.6c0.9-0.4,1.9-0.6,3.1-0.6
			c1.2,0,2.2,0.2,3.1,0.6c0.9,0.4,1.7,0.9,2.3,1.6c0.6,0.7,1.1,1.6,1.5,2.6c0.3,1,0.5,2.2,0.5,3.4c0,1.3-0.2,2.4-0.5,3.4
			c-0.3,1-0.8,1.9-1.5,2.6c-0.6,0.7-1.4,1.3-2.3,1.7C226.9,790.7,225.9,790.8,224.7,790.8z M224.7,787.3c0.9,0,1.6-0.3,2-0.8
			s0.7-1.3,0.7-2.3V781c0-1-0.2-1.8-0.7-2.3s-1.2-0.8-2-0.8c-0.9,0-1.6,0.3-2,0.8S222,780,222,781v3.2c0,1,0.2,1.8,0.7,2.3
			S223.9,787.3,224.7,787.3z M225.2,773.1l-2.6-1.3l3-5.8l3.7,1.8L225.2,773.1z"/>
		<path class="st0" d="M248.6,791.6c0,0.8-0.1,1.6-0.4,2.2c-0.3,0.6-0.8,1.2-1.4,1.6s-1.5,0.8-2.6,1c-1.1,0.2-2.4,0.3-4,0.3
			c-1.4,0-2.5-0.1-3.5-0.3c-1-0.2-1.7-0.4-2.3-0.7c-0.6-0.3-1-0.7-1.3-1.1s-0.4-1-0.4-1.5c0-0.9,0.3-1.6,0.8-2.1s1.2-0.8,2.2-0.9
			v-0.3c-0.8-0.1-1.3-0.5-1.7-1c-0.4-0.5-0.6-1.1-0.6-1.8c0-0.4,0.1-0.8,0.3-1.1c0.2-0.3,0.4-0.6,0.7-0.8s0.6-0.4,0.9-0.6
			c0.4-0.1,0.7-0.2,1.1-0.3v-0.1c-1-0.4-1.7-1-2.1-1.8s-0.7-1.7-0.7-2.7c0-1.6,0.6-2.9,1.7-3.9c1.1-1,2.8-1.5,5.1-1.5
			c1,0,1.9,0.1,2.7,0.3v-0.6c0-0.8,0.2-1.4,0.6-1.8c0.4-0.4,1-0.6,1.8-0.6h2.5v3.3h-3.5v0.2c0.9,0.4,1.6,1,2,1.8
			c0.4,0.8,0.7,1.7,0.7,2.7c0,1.6-0.6,2.8-1.7,3.8s-2.8,1.4-5.1,1.4c-1,0-1.9-0.1-2.8-0.3c-0.5,0.3-0.7,0.7-0.7,1.3
			c0,0.4,0.1,0.7,0.4,0.9c0.3,0.2,0.8,0.3,1.5,0.3h4.6c1.9,0,3.3,0.4,4.2,1.2C248.2,789,248.6,790.2,248.6,791.6z M244.5,792.2
			c0-0.5-0.2-0.8-0.5-1c-0.4-0.2-1-0.4-1.9-0.4h-5.4c-0.2,0.2-0.3,0.4-0.4,0.7c-0.1,0.2-0.1,0.5-0.1,0.7c0,0.6,0.2,1,0.8,1.3
			c0.5,0.3,1.4,0.4,2.5,0.4h1.8c1.2,0,2-0.1,2.5-0.4C244.2,793.2,244.5,792.8,244.5,792.2z M240.2,782c0.9,0,1.5-0.2,2-0.6
			s0.6-0.9,0.6-1.6v-0.4c0-0.7-0.2-1.2-0.6-1.6s-1.1-0.6-2-0.6c-0.9,0-1.5,0.2-2,0.6c-0.4,0.4-0.6,0.9-0.6,1.6v0.4
			c0,0.7,0.2,1.2,0.6,1.6C238.6,781.8,239.3,782,240.2,782z"/>
		<path class="st0" d="M251.6,773.1c-0.9,0-1.6-0.2-2-0.6c-0.4-0.4-0.6-0.9-0.6-1.6v-0.7c0-0.6,0.2-1.2,0.6-1.6
			c0.4-0.4,1.1-0.6,2-0.6s1.6,0.2,2,0.6c0.4,0.4,0.6,0.9,0.6,1.6v0.7c0,0.6-0.2,1.2-0.6,1.6C253.2,772.9,252.5,773.1,251.6,773.1z
			 M249.4,774.7h4.4v15.8h-4.4V774.7z"/>
		<path class="st0" d="M263.2,790.8c-1.2,0-2.2-0.2-3.2-0.6c-0.9-0.4-1.7-0.9-2.3-1.7c-0.6-0.7-1.1-1.6-1.4-2.6
			c-0.3-1-0.5-2.2-0.5-3.4c0-1.3,0.2-2.4,0.5-3.4c0.3-1,0.8-1.9,1.4-2.6c0.6-0.7,1.4-1.3,2.3-1.7s2-0.6,3.2-0.6c1.6,0,2.9,0.4,4,1.1
			c1.1,0.7,1.8,1.7,2.3,3l-3.6,1.6c-0.1-0.6-0.4-1.1-0.9-1.5s-1-0.6-1.8-0.6c-0.9,0-1.6,0.3-2,0.9c-0.5,0.6-0.7,1.4-0.7,2.4v2.9
			c0,1,0.2,1.8,0.7,2.4c0.5,0.6,1.1,0.9,2,0.9c0.8,0,1.4-0.2,1.9-0.6c0.5-0.4,0.8-1,1-1.7l3.4,1.5c-0.5,1.5-1.3,2.6-2.4,3.3
			C266,790.5,264.7,790.8,263.2,790.8z"/>
		<path class="st0" d="M282.8,790.5c-0.8,0-1.5-0.2-2-0.8s-0.9-1.2-1-2h-0.2c-0.2,1-0.8,1.8-1.6,2.3c-0.8,0.5-1.8,0.8-3,0.8
			c-1.6,0-2.8-0.4-3.6-1.3c-0.8-0.8-1.3-1.9-1.3-3.3c0-1.7,0.6-2.9,1.8-3.7c1.2-0.8,2.9-1.2,4.9-1.2h2.5v-1c0-0.8-0.2-1.4-0.6-1.8
			c-0.4-0.5-1.1-0.7-2-0.7c-0.9,0-1.6,0.2-2.1,0.6c-0.5,0.4-1,0.8-1.3,1.3l-2.6-2.4c0.6-0.9,1.4-1.7,2.4-2.2c1-0.5,2.3-0.8,3.9-0.8
			c2.2,0,3.9,0.5,5,1.5c1.1,1,1.7,2.4,1.7,4.3v6.9h1.5v3.5H282.8z M276.6,787.8c0.7,0,1.4-0.2,1.9-0.5s0.8-0.8,0.8-1.5v-1.8h-2.2
			c-1.7,0-2.6,0.6-2.6,1.8v0.4c0,0.6,0.2,1,0.5,1.3C275.4,787.6,275.9,787.8,276.6,787.8z"/>
		<path class="st0" d="M292.3,790.8c-1.5,0-2.8-0.2-3.8-0.7s-2-1.2-2.8-2.1l2.6-2.6c0.6,0.6,1.2,1.1,1.9,1.5
			c0.7,0.4,1.4,0.5,2.3,0.5c0.9,0,1.5-0.1,1.8-0.4c0.3-0.3,0.5-0.6,0.5-1.1c0-0.7-0.5-1.2-1.6-1.3l-1.7-0.2
			c-3.5-0.4-5.3-2.1-5.3-4.9c0-0.8,0.1-1.5,0.4-2.1c0.3-0.6,0.7-1.2,1.2-1.6c0.5-0.5,1.2-0.8,1.9-1.1c0.8-0.2,1.6-0.4,2.5-0.4
			c0.8,0,1.5,0.1,2.2,0.2c0.6,0.1,1.2,0.3,1.7,0.5c0.5,0.2,0.9,0.5,1.4,0.8c0.4,0.3,0.8,0.7,1.2,1l-2.6,2.6
			c-0.5-0.5-1.1-0.9-1.7-1.2s-1.3-0.4-1.9-0.4c-0.8,0-1.3,0.1-1.6,0.4s-0.5,0.6-0.5,1c0,0.4,0.1,0.7,0.3,1c0.2,0.2,0.7,0.4,1.3,0.5
			l1.8,0.2c3.5,0.5,5.2,2,5.2,4.7c0,0.8-0.2,1.5-0.5,2.1c-0.3,0.6-0.8,1.2-1.4,1.7c-0.6,0.5-1.3,0.8-2.1,1.1
			C294.3,790.7,293.3,790.8,292.3,790.8z"/>
		<path class="st0" d="M313.3,790.8c-1.2,0-2.3-0.2-3.2-0.6c-0.9-0.4-1.7-0.9-2.4-1.7s-1.1-1.6-1.5-2.6c-0.3-1-0.5-2.2-0.5-3.4
			c0-1.2,0.2-2.4,0.5-3.4c0.3-1,0.8-1.9,1.4-2.6c0.6-0.7,1.4-1.3,2.3-1.7c0.9-0.4,2-0.6,3.1-0.6c1.3,0,2.4,0.2,3.3,0.7
			c0.9,0.4,1.7,1,2.3,1.8c0.6,0.7,1,1.6,1.3,2.6c0.3,1,0.4,2,0.4,3v1.3h-10.1v0.2c0,1,0.3,1.8,0.8,2.5c0.6,0.6,1.4,0.9,2.6,0.9
			c0.9,0,1.7-0.2,2.2-0.5s1.1-0.8,1.6-1.3l2.2,2.8c-0.7,0.8-1.6,1.5-2.7,1.9C316.1,790.6,314.8,790.8,313.3,790.8z M313.3,777.6
			c-0.9,0-1.6,0.3-2.1,0.9c-0.5,0.6-0.8,1.4-0.8,2.4v0.2h5.5v-0.3c0-1-0.2-1.7-0.6-2.3C314.8,777.9,314.2,777.6,313.3,777.6z"/>
		<path class="st0" d="M322.4,790.5v-15.8h4.4v2.7h0.2c0.3-0.8,0.8-1.6,1.4-2.1c0.7-0.6,1.6-0.9,2.8-0.9c1.1,0,2,0.3,2.8,0.8
			c0.8,0.5,1.3,1.3,1.6,2.4h0.1c0.1-0.4,0.4-0.9,0.6-1.2c0.3-0.4,0.6-0.7,1.1-1s0.9-0.5,1.4-0.7c0.5-0.2,1.1-0.3,1.7-0.3
			c1.5,0,2.7,0.5,3.5,1.6s1.2,2.6,1.2,4.6v9.9h-4.4V781c0-2-0.7-3-2.2-3c-0.7,0-1.3,0.2-1.8,0.6c-0.5,0.4-0.8,1-0.8,1.7v10.2h-4.4
			V781c0-2-0.7-3-2.2-3c-0.3,0-0.6,0-0.9,0.1s-0.6,0.2-0.8,0.4c-0.3,0.2-0.5,0.4-0.6,0.7s-0.2,0.6-0.2,1v10.2H322.4z"/>
		<path class="st0" d="M354.6,790.8c-1.2,0-2.3-0.2-3.2-0.6c-0.9-0.4-1.7-0.9-2.4-1.7s-1.1-1.6-1.5-2.6c-0.3-1-0.5-2.2-0.5-3.4
			c0-1.2,0.2-2.4,0.5-3.4c0.3-1,0.8-1.9,1.4-2.6c0.6-0.7,1.4-1.3,2.3-1.7c0.9-0.4,2-0.6,3.1-0.6c1.3,0,2.4,0.2,3.3,0.7
			c0.9,0.4,1.7,1,2.3,1.8c0.6,0.7,1,1.6,1.3,2.6c0.3,1,0.4,2,0.4,3v1.3h-10.1v0.2c0,1,0.3,1.8,0.8,2.5c0.6,0.6,1.4,0.9,2.6,0.9
			c0.9,0,1.7-0.2,2.2-0.5s1.1-0.8,1.6-1.3l2.2,2.8c-0.7,0.8-1.6,1.5-2.7,1.9C357.4,790.6,356.1,790.8,354.6,790.8z M354.5,777.6
			c-0.9,0-1.6,0.3-2.1,0.9c-0.5,0.6-0.8,1.4-0.8,2.4v0.2h5.5v-0.3c0-1-0.2-1.7-0.6-2.3C356.1,777.9,355.4,777.6,354.5,777.6z"/>
		<path class="st0" d="M363.7,790.5v-15.8h4.4v3.4h0.2c0.1-0.4,0.2-0.9,0.4-1.3c0.2-0.4,0.5-0.8,0.8-1.1c0.3-0.3,0.7-0.6,1.2-0.8
			c0.5-0.2,1-0.3,1.6-0.3h0.8v4.1H372c-1.3,0-2.3,0.2-2.9,0.5s-0.9,1-0.9,1.9v9.2H363.7z"/>
		<path class="st0" d="M388.8,791.6c0,0.8-0.1,1.6-0.4,2.2c-0.3,0.6-0.8,1.2-1.4,1.6s-1.5,0.8-2.6,1c-1.1,0.2-2.4,0.3-4,0.3
			c-1.4,0-2.5-0.1-3.5-0.3c-1-0.2-1.7-0.4-2.3-0.7c-0.6-0.3-1-0.7-1.3-1.1s-0.4-1-0.4-1.5c0-0.9,0.3-1.6,0.8-2.1s1.2-0.8,2.2-0.9
			v-0.3c-0.8-0.1-1.3-0.5-1.7-1c-0.4-0.5-0.6-1.1-0.6-1.8c0-0.4,0.1-0.8,0.3-1.1c0.2-0.3,0.4-0.6,0.7-0.8s0.6-0.4,0.9-0.6
			c0.4-0.1,0.7-0.2,1.1-0.3v-0.1c-1-0.4-1.7-1-2.1-1.8s-0.7-1.7-0.7-2.7c0-1.6,0.6-2.9,1.7-3.9c1.1-1,2.8-1.5,5.1-1.5
			c1,0,1.9,0.1,2.7,0.3v-0.6c0-0.8,0.2-1.4,0.6-1.8c0.4-0.4,1-0.6,1.8-0.6h2.5v3.3h-3.5v0.2c0.9,0.4,1.6,1,2,1.8
			c0.4,0.8,0.7,1.7,0.7,2.7c0,1.6-0.6,2.8-1.7,3.8s-2.8,1.4-5.1,1.4c-1,0-1.9-0.1-2.8-0.3c-0.5,0.3-0.7,0.7-0.7,1.3
			c0,0.4,0.1,0.7,0.4,0.9c0.3,0.2,0.8,0.3,1.5,0.3h4.6c1.9,0,3.3,0.4,4.2,1.2C388.4,789,388.8,790.2,388.8,791.6z M384.6,792.2
			c0-0.5-0.2-0.8-0.5-1c-0.4-0.2-1-0.4-1.9-0.4h-5.4c-0.2,0.2-0.3,0.4-0.4,0.7c-0.1,0.2-0.1,0.5-0.1,0.7c0,0.6,0.2,1,0.8,1.3
			c0.5,0.3,1.4,0.4,2.5,0.4h1.8c1.2,0,2-0.1,2.5-0.4C384.4,793.2,384.6,792.8,384.6,792.2z M380.3,782c0.9,0,1.5-0.2,2-0.6
			s0.6-0.9,0.6-1.6v-0.4c0-0.7-0.2-1.2-0.6-1.6s-1.1-0.6-2-0.6c-0.9,0-1.5,0.2-2,0.6c-0.4,0.4-0.6,0.9-0.6,1.6v0.4
			c0,0.7,0.2,1.2,0.6,1.6C378.8,781.8,379.5,782,380.3,782z"/>
		<path class="st0" d="M396,790.8c-1.2,0-2.3-0.2-3.2-0.6c-0.9-0.4-1.7-0.9-2.4-1.7s-1.1-1.6-1.5-2.6c-0.3-1-0.5-2.2-0.5-3.4
			c0-1.2,0.2-2.4,0.5-3.4c0.3-1,0.8-1.9,1.4-2.6c0.6-0.7,1.4-1.3,2.3-1.7c0.9-0.4,2-0.6,3.1-0.6c1.3,0,2.4,0.2,3.3,0.7
			c0.9,0.4,1.7,1,2.3,1.8c0.6,0.7,1,1.6,1.3,2.6c0.3,1,0.4,2,0.4,3v1.3H393v0.2c0,1,0.3,1.8,0.8,2.5c0.6,0.6,1.4,0.9,2.6,0.9
			c0.9,0,1.7-0.2,2.2-0.5s1.1-0.8,1.6-1.3l2.2,2.8c-0.7,0.8-1.6,1.5-2.7,1.9C398.7,790.6,397.4,790.8,396,790.8z M395.9,777.6
			c-0.9,0-1.6,0.3-2.1,0.9c-0.5,0.6-0.8,1.4-0.8,2.4v0.2h5.5v-0.3c0-1-0.2-1.7-0.6-2.3C397.4,777.9,396.8,777.6,395.9,777.6z"/>
		<path class="st0" d="M405.1,790.5v-15.8h4.4v2.7h0.2c0.3-0.8,0.8-1.5,1.5-2.1c0.7-0.6,1.7-0.9,2.9-0.9c1.6,0,2.8,0.5,3.7,1.6
			c0.8,1.1,1.2,2.6,1.2,4.6v9.9h-4.4V781c0-1-0.2-1.8-0.5-2.3c-0.3-0.5-0.9-0.7-1.7-0.7c-0.4,0-0.7,0-1,0.1
			c-0.3,0.1-0.6,0.2-0.9,0.4c-0.3,0.2-0.5,0.4-0.6,0.7c-0.2,0.3-0.2,0.6-0.2,1v10.2H405.1z"/>
		<path class="st0" d="M427.3,790.5c-1.5,0-2.7-0.4-3.5-1.2c-0.8-0.8-1.2-1.9-1.2-3.4v-7.7h-2.2v-3.5h1.1c0.6,0,1-0.1,1.2-0.4
			s0.3-0.7,0.3-1.2v-2.6h4v4.3h3.1v3.5H427v8.8h2.9v3.5H427.3z"/>
		<path class="st0" d="M438.5,790.8c-1.2,0-2.3-0.2-3.2-0.6c-0.9-0.4-1.7-0.9-2.4-1.7s-1.1-1.6-1.5-2.6c-0.3-1-0.5-2.2-0.5-3.4
			c0-1.2,0.2-2.4,0.5-3.4c0.3-1,0.8-1.9,1.4-2.6c0.6-0.7,1.4-1.3,2.3-1.7c0.9-0.4,2-0.6,3.1-0.6c1.3,0,2.4,0.2,3.3,0.7
			c0.9,0.4,1.7,1,2.3,1.8c0.6,0.7,1,1.6,1.3,2.6c0.3,1,0.4,2,0.4,3v1.3h-10.1v0.2c0,1,0.3,1.8,0.8,2.5c0.6,0.6,1.4,0.9,2.6,0.9
			c0.9,0,1.7-0.2,2.2-0.5s1.1-0.8,1.6-1.3l2.2,2.8c-0.7,0.8-1.6,1.5-2.7,1.9C441.2,790.6,439.9,790.8,438.5,790.8z M438.4,777.6
			c-0.9,0-1.6,0.3-2.1,0.9c-0.5,0.6-0.8,1.4-0.8,2.4v0.2h5.5v-0.3c0-1-0.2-1.7-0.6-2.3C440,777.9,439.3,777.6,438.4,777.6z"/>
		<path class="st0" d="M452.9,790.8c-1.5,0-2.8-0.2-3.8-0.7s-2-1.2-2.8-2.1l2.6-2.6c0.6,0.6,1.2,1.1,1.9,1.5
			c0.7,0.4,1.4,0.5,2.3,0.5c0.9,0,1.5-0.1,1.8-0.4c0.3-0.3,0.5-0.6,0.5-1.1c0-0.7-0.5-1.2-1.6-1.3l-1.7-0.2
			c-3.5-0.4-5.3-2.1-5.3-4.9c0-0.8,0.1-1.5,0.4-2.1c0.3-0.6,0.7-1.2,1.2-1.6c0.5-0.5,1.2-0.8,1.9-1.1c0.8-0.2,1.6-0.4,2.5-0.4
			c0.8,0,1.5,0.1,2.2,0.2c0.6,0.1,1.2,0.3,1.7,0.5c0.5,0.2,0.9,0.5,1.4,0.8c0.4,0.3,0.8,0.7,1.2,1l-2.6,2.6
			c-0.5-0.5-1.1-0.9-1.7-1.2s-1.3-0.4-1.9-0.4c-0.8,0-1.3,0.1-1.6,0.4s-0.5,0.6-0.5,1c0,0.4,0.1,0.7,0.3,1c0.2,0.2,0.7,0.4,1.3,0.5
			l1.8,0.2c3.5,0.5,5.2,2,5.2,4.7c0,0.8-0.2,1.5-0.5,2.1c-0.3,0.6-0.8,1.2-1.4,1.7c-0.6,0.5-1.3,0.8-2.1,1.1
			C454.9,790.7,453.9,790.8,452.9,790.8z"/>
	</g>
</g>
<path class="st3" d="M448.1,834.7H148.3c-50.1,0-90.7-40.6-90.7-90.7v0c0-50.1,40.6-90.7,90.7-90.7h299.8
	c50.1,0,90.7,40.6,90.7,90.7v0C538.8,794.1,498.2,834.7,448.1,834.7z"/>
<g>
	<g>
		<path class="st0" d="M794.4,719.1v-20.9h9.9c1,0,1.9,0.2,2.6,0.5c0.8,0.3,1.4,0.8,2,1.4s1,1.3,1.3,2.1s0.5,1.7,0.5,2.7
			c0,1-0.2,1.9-0.5,2.7s-0.7,1.5-1.3,2.1s-1.2,1-2,1.4c-0.8,0.3-1.7,0.5-2.6,0.5H799v7.6H794.4z M799,707.6h4.8
			c0.7,0,1.2-0.2,1.6-0.5c0.4-0.3,0.6-0.9,0.6-1.5v-1.3c0-0.7-0.2-1.2-0.6-1.5c-0.4-0.3-0.9-0.5-1.6-0.5H799V707.6z"/>
		<path class="st0" d="M823.8,719.1c-0.8,0-1.5-0.2-2-0.8s-0.9-1.2-1-2h-0.2c-0.2,1-0.8,1.8-1.6,2.3c-0.8,0.5-1.8,0.8-3,0.8
			c-1.6,0-2.8-0.4-3.6-1.3c-0.8-0.8-1.3-1.9-1.3-3.3c0-1.7,0.6-2.9,1.8-3.7c1.2-0.8,2.9-1.2,4.9-1.2h2.5v-1c0-0.8-0.2-1.4-0.6-1.8
			c-0.4-0.5-1.1-0.7-2-0.7c-0.9,0-1.6,0.2-2.1,0.6c-0.5,0.4-1,0.8-1.3,1.3l-2.6-2.4c0.6-0.9,1.4-1.7,2.4-2.2c1-0.5,2.3-0.8,3.9-0.8
			c2.2,0,3.9,0.5,5,1.5c1.1,1,1.7,2.4,1.7,4.3v6.9h1.5v3.5H823.8z M817.7,716.4c0.7,0,1.4-0.2,1.9-0.5s0.8-0.8,0.8-1.5v-1.8h-2.2
			c-1.7,0-2.6,0.6-2.6,1.8v0.4c0,0.6,0.2,1,0.5,1.3C816.5,716.2,817,716.4,817.7,716.4z"/>
		<path class="st0" d="M828.1,719.1v-15.8h4.4v3.4h0.2c0.1-0.4,0.2-0.9,0.4-1.3c0.2-0.4,0.5-0.8,0.8-1.1c0.3-0.3,0.7-0.6,1.2-0.8
			s1-0.3,1.6-0.3h0.8v4.1h-1.1c-1.3,0-2.3,0.2-2.9,0.5s-0.9,1-0.9,1.9v9.2H828.1z"/>
		<path class="st0" d="M850.2,719.1c-0.8,0-1.5-0.2-2-0.8s-0.9-1.2-1-2H847c-0.2,1-0.8,1.8-1.6,2.3c-0.8,0.5-1.8,0.8-3,0.8
			c-1.6,0-2.8-0.4-3.6-1.3c-0.8-0.8-1.3-1.9-1.3-3.3c0-1.7,0.6-2.9,1.8-3.7c1.2-0.8,2.9-1.2,4.9-1.2h2.5v-1c0-0.8-0.2-1.4-0.6-1.8
			c-0.4-0.5-1.1-0.7-2-0.7c-0.9,0-1.6,0.2-2.1,0.6c-0.5,0.4-1,0.8-1.3,1.3l-2.6-2.4c0.6-0.9,1.4-1.7,2.4-2.2c1-0.5,2.3-0.8,3.9-0.8
			c2.2,0,3.9,0.5,5,1.5c1.1,1,1.7,2.4,1.7,4.3v6.9h1.5v3.5H850.2z M844.1,716.4c0.7,0,1.4-0.2,1.9-0.5s0.8-0.8,0.8-1.5v-1.8h-2.2
			c-1.7,0-2.6,0.6-2.6,1.8v0.4c0,0.6,0.2,1,0.5,1.3C842.9,716.2,843.4,716.4,844.1,716.4z"/>
		<path class="st0" d="M870,716.5h-0.2c-0.1,0.4-0.3,0.8-0.6,1.2s-0.6,0.7-0.9,1c-0.4,0.3-0.8,0.5-1.3,0.6c-0.5,0.2-1,0.2-1.5,0.2
			c-2,0-3.5-0.7-4.5-2.1c-1-1.4-1.5-3.5-1.5-6.1c0-2.7,0.5-4.7,1.5-6.1c1-1.4,2.5-2.1,4.5-2.1c1,0,1.9,0.3,2.7,0.8
			c0.8,0.6,1.3,1.3,1.5,2.2h0.2v-9.1h4.4v22.2H870V716.5z M867.1,715.9c0.8,0,1.5-0.2,2.1-0.6c0.5-0.4,0.8-1,0.8-1.7v-4.7
			c0-0.7-0.3-1.3-0.8-1.7c-0.6-0.4-1.2-0.6-2.1-0.6s-1.5,0.3-2.1,0.9c-0.6,0.6-0.8,1.4-0.8,2.4v2.7c0,1,0.3,1.8,0.8,2.4
			C865.5,715.6,866.2,715.9,867.1,715.9z"/>
		<path class="st0" d="M883.9,719.5c-1.2,0-2.3-0.2-3.2-0.6c-0.9-0.4-1.7-0.9-2.4-1.7c-0.7-0.7-1.1-1.6-1.5-2.6
			c-0.3-1-0.5-2.2-0.5-3.4c0-1.2,0.2-2.4,0.5-3.4c0.3-1,0.8-1.9,1.4-2.6c0.6-0.7,1.4-1.3,2.3-1.7c0.9-0.4,2-0.6,3.2-0.6
			c1.3,0,2.4,0.2,3.3,0.7c0.9,0.4,1.7,1,2.3,1.8s1,1.6,1.3,2.6c0.3,1,0.4,2,0.4,3v1.3H881v0.2c0,1,0.3,1.8,0.8,2.5
			c0.6,0.6,1.4,0.9,2.6,0.9c0.9,0,1.7-0.2,2.2-0.5c0.6-0.4,1.1-0.8,1.6-1.3l2.2,2.8c-0.7,0.8-1.6,1.5-2.7,1.9
			S885.4,719.5,883.9,719.5z M883.8,706.3c-0.9,0-1.6,0.3-2.1,0.9c-0.5,0.6-0.8,1.4-0.8,2.4v0.2h5.5v-0.3c0-1-0.2-1.7-0.6-2.3
			C885.4,706.5,884.7,706.3,883.8,706.3z"/>
		<path class="st0" d="M898.4,719.5c-1.5,0-2.8-0.2-3.8-0.7c-1-0.5-2-1.2-2.8-2.1l2.6-2.6c0.6,0.6,1.2,1.1,1.9,1.5s1.5,0.5,2.3,0.5
			c0.9,0,1.5-0.1,1.8-0.4c0.3-0.3,0.5-0.6,0.5-1.1c0-0.7-0.5-1.2-1.6-1.3l-1.7-0.2c-3.5-0.4-5.3-2.1-5.3-4.9c0-0.8,0.1-1.5,0.4-2.1
			c0.3-0.6,0.7-1.2,1.2-1.6c0.5-0.5,1.2-0.8,1.9-1.1c0.8-0.2,1.6-0.4,2.5-0.4c0.8,0,1.5,0.1,2.2,0.2c0.6,0.1,1.2,0.3,1.7,0.5
			s0.9,0.5,1.4,0.8c0.4,0.3,0.8,0.7,1.2,1l-2.5,2.6c-0.5-0.5-1.1-0.9-1.7-1.2s-1.3-0.4-1.9-0.4c-0.8,0-1.3,0.1-1.6,0.4
			c-0.3,0.2-0.5,0.6-0.5,1c0,0.4,0.1,0.7,0.3,1c0.2,0.2,0.7,0.4,1.3,0.5l1.8,0.2c3.5,0.5,5.2,2,5.2,4.7c0,0.8-0.2,1.5-0.5,2.1
			c-0.3,0.6-0.8,1.2-1.4,1.7c-0.6,0.5-1.3,0.8-2.1,1.1S899.4,719.5,898.4,719.5z"/>
		<path class="st0" d="M918.6,719.1c-0.8,0-1.5-0.2-2-0.8s-0.9-1.2-1-2h-0.2c-0.2,1-0.8,1.8-1.6,2.3c-0.8,0.5-1.8,0.8-3,0.8
			c-1.6,0-2.8-0.4-3.6-1.3c-0.8-0.8-1.3-1.9-1.3-3.3c0-1.7,0.6-2.9,1.8-3.7c1.2-0.8,2.9-1.2,4.9-1.2h2.5v-1c0-0.8-0.2-1.4-0.6-1.8
			c-0.4-0.5-1.1-0.7-2-0.7c-0.9,0-1.6,0.2-2.1,0.6c-0.5,0.4-1,0.8-1.3,1.3l-2.6-2.4c0.6-0.9,1.4-1.7,2.4-2.2c1-0.5,2.3-0.8,3.9-0.8
			c2.2,0,3.9,0.5,5,1.5c1.1,1,1.7,2.4,1.7,4.3v6.9h1.5v3.5H918.6z M912.4,716.4c0.7,0,1.4-0.2,1.9-0.5s0.8-0.8,0.8-1.5v-1.8H913
			c-1.7,0-2.6,0.6-2.6,1.8v0.4c0,0.6,0.2,1,0.5,1.3C911.3,716.2,911.8,716.4,912.4,716.4z"/>
		<path class="st0" d="M922.8,719.1v-15.8h4.4v3.4h0.2c0.1-0.4,0.2-0.9,0.4-1.3c0.2-0.4,0.5-0.8,0.8-1.1c0.3-0.3,0.7-0.6,1.2-0.8
			s1-0.3,1.6-0.3h0.8v4.1h-1.1c-1.3,0-2.3,0.2-2.9,0.5s-0.9,1-0.9,1.9v9.2H922.8z"/>
		<path class="st0" d="M933.7,719.1v-15.8h4.4v3.4h0.2c0.1-0.4,0.2-0.9,0.4-1.3c0.2-0.4,0.5-0.8,0.8-1.1c0.3-0.3,0.7-0.6,1.2-0.8
			s1-0.3,1.6-0.3h0.8v4.1H942c-1.3,0-2.3,0.2-2.9,0.5s-0.9,1-0.9,1.9v9.2H933.7z"/>
		<path class="st0" d="M950.9,719.5c-1.2,0-2.2-0.2-3.1-0.6c-0.9-0.4-1.7-0.9-2.3-1.7c-0.6-0.7-1.1-1.6-1.5-2.6
			c-0.3-1-0.5-2.2-0.5-3.4c0-1.3,0.2-2.4,0.5-3.4c0.3-1,0.8-1.9,1.5-2.6c0.6-0.7,1.4-1.3,2.3-1.6c0.9-0.4,1.9-0.6,3.1-0.6
			s2.2,0.2,3.1,0.6c0.9,0.4,1.7,0.9,2.3,1.6c0.6,0.7,1.1,1.6,1.5,2.6c0.3,1,0.5,2.2,0.5,3.4c0,1.3-0.2,2.4-0.5,3.4
			c-0.3,1-0.8,1.9-1.5,2.6c-0.6,0.7-1.4,1.3-2.3,1.7C953.1,719.3,952,719.5,950.9,719.5z M950.9,715.9c0.9,0,1.6-0.3,2-0.8
			s0.7-1.3,0.7-2.3v-3.2c0-1-0.2-1.8-0.7-2.3s-1.2-0.8-2-0.8s-1.6,0.3-2,0.8c-0.5,0.5-0.7,1.3-0.7,2.3v3.2c0,1,0.2,1.8,0.7,2.3
			C949.3,715.7,950,715.9,950.9,715.9z"/>
		<path class="st0" d="M964.6,719.1c-1.5,0-2.6-0.4-3.3-1.1c-0.7-0.7-1.1-1.8-1.1-3.2v-17.9h4.4v18.8h2v3.5H964.6z"/>
		<path class="st0" d="M972.3,719.1c-1.5,0-2.6-0.4-3.3-1.1c-0.7-0.7-1.1-1.8-1.1-3.2v-17.9h4.4v18.8h2v3.5H972.3z"/>
		<path class="st0" d="M987.4,719.1c-0.8,0-1.5-0.2-2-0.8s-0.9-1.2-1-2h-0.2c-0.2,1-0.8,1.8-1.6,2.3c-0.8,0.5-1.8,0.8-3,0.8
			c-1.6,0-2.8-0.4-3.6-1.3c-0.8-0.8-1.3-1.9-1.3-3.3c0-1.7,0.6-2.9,1.8-3.7c1.2-0.8,2.9-1.2,4.9-1.2h2.5v-1c0-0.8-0.2-1.4-0.6-1.8
			c-0.4-0.5-1.1-0.7-2-0.7c-0.9,0-1.6,0.2-2.1,0.6c-0.5,0.4-1,0.8-1.3,1.3l-2.6-2.4c0.6-0.9,1.4-1.7,2.4-2.2c1-0.5,2.3-0.8,3.9-0.8
			c2.2,0,3.9,0.5,5,1.5c1.1,1,1.7,2.4,1.7,4.3v6.9h1.5v3.5H987.4z M981.2,716.4c0.7,0,1.4-0.2,1.9-0.5s0.8-0.8,0.8-1.5v-1.8h-2.2
			c-1.7,0-2.6,0.6-2.6,1.8v0.4c0,0.6,0.2,1,0.5,1.3C980.1,716.2,980.6,716.4,981.2,716.4z"/>
		<path class="st0" d="M991.6,719.1v-15.8h4.4v3.4h0.2c0.1-0.4,0.2-0.9,0.4-1.3c0.2-0.4,0.5-0.8,0.8-1.1c0.3-0.3,0.7-0.6,1.2-0.8
			s1-0.3,1.6-0.3h0.8v4.1h-1.1c-1.3,0-2.3,0.2-2.9,0.5s-0.9,1-0.9,1.9v9.2H991.6z"/>
		<path class="st0" d="M1013.9,719.1c-1.5,0-2.7-0.4-3.5-1.2s-1.2-1.9-1.2-3.4v-7.7h-2.2v-3.5h1.1c0.6,0,1-0.1,1.2-0.4
			c0.2-0.3,0.3-0.7,0.3-1.2v-2.6h4v4.3h3.1v3.5h-3.1v8.8h2.9v3.5H1013.9z"/>
		<path class="st0" d="M1025.2,719.5c-1.2,0-2.3-0.2-3.2-0.6c-0.9-0.4-1.7-0.9-2.4-1.7c-0.7-0.7-1.1-1.6-1.5-2.6
			c-0.3-1-0.5-2.2-0.5-3.4c0-1.2,0.2-2.4,0.5-3.4c0.3-1,0.8-1.9,1.4-2.6c0.6-0.7,1.4-1.3,2.3-1.7c0.9-0.4,2-0.6,3.2-0.6
			c1.3,0,2.4,0.2,3.3,0.7c0.9,0.4,1.7,1,2.3,1.8s1,1.6,1.3,2.6c0.3,1,0.4,2,0.4,3v1.3h-10.1v0.2c0,1,0.3,1.8,0.8,2.5
			c0.6,0.6,1.4,0.9,2.6,0.9c0.9,0,1.7-0.2,2.2-0.5c0.6-0.4,1.1-0.8,1.6-1.3l2.2,2.8c-0.7,0.8-1.6,1.5-2.7,1.9
			S1026.6,719.5,1025.2,719.5z M1025.1,706.3c-0.9,0-1.6,0.3-2.1,0.9c-0.5,0.6-0.8,1.4-0.8,2.4v0.2h5.5v-0.3c0-1-0.2-1.7-0.6-2.3
			C1026.6,706.5,1026,706.3,1025.1,706.3z"/>
		<path class="st0" d="M1040.6,719.5c-1.2,0-2.2-0.2-3.1-0.6c-0.9-0.4-1.7-0.9-2.3-1.7s-1.1-1.6-1.4-2.6c-0.3-1-0.5-2.2-0.5-3.4
			c0-1.3,0.2-2.4,0.5-3.4c0.3-1,0.8-1.9,1.4-2.6c0.6-0.7,1.4-1.3,2.3-1.7c0.9-0.4,2-0.6,3.1-0.6c1.6,0,2.9,0.4,4,1.1
			c1.1,0.7,1.8,1.7,2.3,3l-3.6,1.6c-0.1-0.6-0.4-1.1-0.9-1.5s-1-0.6-1.8-0.6c-0.9,0-1.6,0.3-2,0.9s-0.7,1.4-0.7,2.4v2.9
			c0,1,0.2,1.8,0.7,2.4s1.1,0.9,2,0.9c0.8,0,1.4-0.2,1.9-0.6c0.5-0.4,0.8-1,1-1.7l3.5,1.5c-0.5,1.5-1.3,2.6-2.4,3.3
			C1043.5,719.1,1042.2,719.5,1040.6,719.5z"/>
		<path class="st0" d="M1048.6,719.1v-15.8h4.4v2.7h0.2c0.3-0.8,0.8-1.5,1.5-2.1c0.7-0.6,1.7-0.9,2.9-0.9c1.6,0,2.8,0.5,3.7,1.6
			c0.8,1.1,1.2,2.6,1.2,4.6v9.9h-4.4v-9.5c0-1-0.2-1.8-0.5-2.3c-0.3-0.5-0.9-0.7-1.7-0.7c-0.4,0-0.7,0-1.1,0.1s-0.6,0.2-0.9,0.4
			c-0.3,0.2-0.5,0.4-0.6,0.7s-0.2,0.6-0.2,1v10.2H1048.6z"/>
		<path class="st0" d="M1071.6,719.5c-1.2,0-2.2-0.2-3.1-0.6c-0.9-0.4-1.7-0.9-2.3-1.7c-0.6-0.7-1.1-1.6-1.5-2.6
			c-0.3-1-0.5-2.2-0.5-3.4c0-1.3,0.2-2.4,0.5-3.4c0.3-1,0.8-1.9,1.5-2.6c0.6-0.7,1.4-1.3,2.3-1.6c0.9-0.4,1.9-0.6,3.1-0.6
			s2.2,0.2,3.1,0.6c0.9,0.4,1.7,0.9,2.3,1.6c0.6,0.7,1.1,1.6,1.5,2.6c0.3,1,0.5,2.2,0.5,3.4c0,1.3-0.2,2.4-0.5,3.4
			c-0.3,1-0.8,1.9-1.5,2.6c-0.6,0.7-1.4,1.3-2.3,1.7C1073.8,719.3,1072.8,719.5,1071.6,719.5z M1071.6,715.9c0.9,0,1.6-0.3,2-0.8
			s0.7-1.3,0.7-2.3v-3.2c0-1-0.2-1.8-0.7-2.3s-1.2-0.8-2-0.8s-1.6,0.3-2,0.8c-0.5,0.5-0.7,1.3-0.7,2.3v3.2c0,1,0.2,1.8,0.7,2.3
			C1070.1,715.7,1070.8,715.9,1071.6,715.9z"/>
		<path class="st0" d="M1085.4,719.1c-1.5,0-2.6-0.4-3.3-1.1c-0.7-0.7-1.1-1.8-1.1-3.2v-17.9h4.4v18.8h2v3.5H1085.4z"/>
		<path class="st0" d="M1095.2,719.5c-1.2,0-2.2-0.2-3.1-0.6c-0.9-0.4-1.7-0.9-2.3-1.7c-0.6-0.7-1.1-1.6-1.5-2.6
			c-0.3-1-0.5-2.2-0.5-3.4c0-1.3,0.2-2.4,0.5-3.4c0.3-1,0.8-1.9,1.5-2.6c0.6-0.7,1.4-1.3,2.3-1.6c0.9-0.4,1.9-0.6,3.1-0.6
			s2.2,0.2,3.1,0.6c0.9,0.4,1.7,0.9,2.3,1.6c0.6,0.7,1.1,1.6,1.5,2.6c0.3,1,0.5,2.2,0.5,3.4c0,1.3-0.2,2.4-0.5,3.4
			c-0.3,1-0.8,1.9-1.5,2.6c-0.6,0.7-1.4,1.3-2.3,1.7C1097.4,719.3,1096.4,719.5,1095.2,719.5z M1095.2,715.9c0.9,0,1.6-0.3,2-0.8
			s0.7-1.3,0.7-2.3v-3.2c0-1-0.2-1.8-0.7-2.3s-1.2-0.8-2-0.8s-1.6,0.3-2,0.8c-0.5,0.5-0.7,1.3-0.7,2.3v3.2c0,1,0.2,1.8,0.7,2.3
			C1093.7,715.7,1094.4,715.9,1095.2,715.9z"/>
		<path class="st0" d="M1119.2,720.2c0,0.8-0.1,1.6-0.4,2.2c-0.3,0.6-0.8,1.2-1.4,1.6s-1.5,0.8-2.6,1c-1.1,0.2-2.4,0.3-4,0.3
			c-1.4,0-2.5-0.1-3.5-0.3c-1-0.2-1.7-0.4-2.3-0.7c-0.6-0.3-1-0.7-1.3-1.1c-0.3-0.5-0.4-1-0.4-1.5c0-0.9,0.3-1.6,0.8-2.1
			c0.5-0.5,1.2-0.8,2.2-0.9v-0.3c-0.8-0.1-1.3-0.5-1.7-1s-0.6-1.1-0.6-1.8c0-0.4,0.1-0.8,0.3-1.1s0.4-0.6,0.7-0.8
			c0.3-0.2,0.6-0.4,0.9-0.6c0.4-0.1,0.7-0.2,1.1-0.3v-0.1c-1-0.4-1.7-1-2.1-1.8s-0.7-1.7-0.7-2.7c0-1.6,0.6-2.9,1.7-3.9
			c1.1-1,2.8-1.5,5.1-1.5c1,0,1.9,0.1,2.7,0.3v-0.6c0-0.8,0.2-1.4,0.6-1.8s1-0.6,1.8-0.6h2.5v3.3h-3.5v0.2c0.9,0.4,1.6,1,2,1.8
			c0.4,0.8,0.7,1.7,0.7,2.7c0,1.6-0.6,2.8-1.7,3.8c-1.1,1-2.8,1.4-5.1,1.4c-1,0-2-0.1-2.8-0.3c-0.5,0.3-0.7,0.7-0.7,1.3
			c0,0.4,0.1,0.7,0.4,0.9s0.8,0.3,1.5,0.3h4.6c1.9,0,3.3,0.4,4.2,1.2S1119.2,718.8,1119.2,720.2z M1115,720.8c0-0.5-0.2-0.8-0.5-1
			c-0.4-0.2-1-0.4-1.9-0.4h-5.4c-0.2,0.2-0.3,0.4-0.4,0.7s-0.1,0.5-0.1,0.7c0,0.6,0.2,1,0.8,1.3c0.5,0.3,1.3,0.4,2.5,0.4h1.8
			c1.2,0,2-0.1,2.6-0.4C1114.7,721.8,1115,721.4,1115,720.8z M1110.7,710.6c0.9,0,1.5-0.2,2-0.6c0.4-0.4,0.6-0.9,0.6-1.6v-0.4
			c0-0.7-0.2-1.2-0.6-1.6c-0.4-0.4-1.1-0.6-2-0.6c-0.9,0-1.5,0.2-2,0.6c-0.4,0.4-0.6,0.9-0.6,1.6v0.4c0,0.7,0.2,1.2,0.6,1.6
			C1109.2,710.4,1109.8,710.6,1110.7,710.6z"/>
		<path class="st0" d="M1119.9,719.1v-15.8h4.4v15.8H1119.9z M1122.7,701.7l-2.6-1.3l3-5.8l3.7,1.8L1122.7,701.7z"/>
		<path class="st0" d="M1139,719.1c-0.8,0-1.5-0.2-2-0.8s-0.9-1.2-1-2h-0.2c-0.2,1-0.8,1.8-1.6,2.3c-0.8,0.5-1.8,0.8-3,0.8
			c-1.6,0-2.8-0.4-3.6-1.3c-0.8-0.8-1.3-1.9-1.3-3.3c0-1.7,0.6-2.9,1.8-3.7c1.2-0.8,2.9-1.2,4.9-1.2h2.5v-1c0-0.8-0.2-1.4-0.6-1.8
			c-0.4-0.5-1.1-0.7-2-0.7c-0.9,0-1.6,0.2-2.1,0.6c-0.5,0.4-1,0.8-1.3,1.3l-2.6-2.4c0.6-0.9,1.4-1.7,2.4-2.2c1-0.5,2.3-0.8,3.9-0.8
			c2.2,0,3.9,0.5,5,1.5c1.1,1,1.7,2.4,1.7,4.3v6.9h1.5v3.5H1139z M1132.8,716.4c0.7,0,1.4-0.2,1.9-0.5s0.8-0.8,0.8-1.5v-1.8h-2.2
			c-1.7,0-2.6,0.6-2.6,1.8v0.4c0,0.6,0.2,1,0.5,1.3C1131.6,716.2,1132.1,716.4,1132.8,716.4z"/>
		<path class="st0" d="M835.2,755c-1.2,0-2.2-0.2-3.1-0.6c-0.9-0.4-1.7-0.9-2.3-1.7s-1.1-1.6-1.4-2.6c-0.3-1-0.5-2.2-0.5-3.4
			c0-1.3,0.2-2.4,0.5-3.4c0.3-1,0.8-1.9,1.4-2.6c0.6-0.7,1.4-1.3,2.3-1.7c0.9-0.4,2-0.6,3.1-0.6c1.6,0,2.9,0.4,4,1.1
			c1.1,0.7,1.8,1.7,2.3,3l-3.6,1.6c-0.1-0.6-0.4-1.1-0.9-1.5s-1-0.6-1.8-0.6c-0.9,0-1.6,0.3-2,0.9s-0.7,1.4-0.7,2.4v2.9
			c0,1,0.2,1.8,0.7,2.4s1.1,0.9,2,0.9c0.8,0,1.4-0.2,1.9-0.6c0.5-0.4,0.8-1,1-1.7l3.5,1.5c-0.5,1.5-1.3,2.6-2.4,3.3
			C838.1,754.7,836.8,755,835.2,755z"/>
		<path class="st0" d="M849.4,755c-1.2,0-2.2-0.2-3.1-0.6c-0.9-0.4-1.7-0.9-2.3-1.7c-0.6-0.7-1.1-1.6-1.5-2.6
			c-0.3-1-0.5-2.2-0.5-3.4c0-1.3,0.2-2.4,0.5-3.4c0.3-1,0.8-1.9,1.5-2.6c0.6-0.7,1.4-1.3,2.3-1.6c0.9-0.4,1.9-0.6,3.1-0.6
			s2.2,0.2,3.1,0.6c0.9,0.4,1.7,0.9,2.3,1.6c0.6,0.7,1.1,1.6,1.5,2.6c0.3,1,0.5,2.2,0.5,3.4c0,1.3-0.2,2.4-0.5,3.4
			c-0.3,1-0.8,1.9-1.5,2.6c-0.6,0.7-1.4,1.3-2.3,1.7C851.6,754.9,850.6,755,849.4,755z M849.4,751.5c0.9,0,1.6-0.3,2-0.8
			s0.7-1.3,0.7-2.3v-3.2c0-1-0.2-1.8-0.7-2.3s-1.2-0.8-2-0.8s-1.6,0.3-2,0.8c-0.5,0.5-0.7,1.3-0.7,2.3v3.2c0,1,0.2,1.8,0.7,2.3
			C847.9,751.3,848.5,751.5,849.4,751.5z"/>
		<path class="st0" d="M858.8,754.7v-15.8h4.4v2.7h0.2c0.3-0.8,0.8-1.5,1.5-2.1c0.7-0.6,1.7-0.9,2.9-0.9c1.6,0,2.8,0.5,3.7,1.6
			c0.8,1.1,1.2,2.6,1.2,4.6v9.9h-4.4v-9.5c0-1-0.2-1.8-0.5-2.3c-0.3-0.5-0.9-0.7-1.7-0.7c-0.4,0-0.7,0-1.1,0.1s-0.6,0.2-0.9,0.4
			c-0.3,0.2-0.5,0.4-0.6,0.7s-0.2,0.6-0.2,1v10.2H858.8z"/>
		<path class="st0" d="M890.6,752h-0.2c-0.1,0.4-0.3,0.8-0.6,1.1c-0.2,0.4-0.5,0.7-0.9,1c-0.4,0.3-0.8,0.5-1.3,0.7s-1.1,0.2-1.7,0.2
			c-1.6,0-2.8-0.5-3.7-1.6c-0.8-1.1-1.2-2.6-1.2-4.6v-9.9h4.4v9.5c0,1,0.2,1.7,0.5,2.2c0.3,0.5,0.9,0.8,1.7,0.8c0.3,0,0.7,0,1-0.1
			c0.3-0.1,0.6-0.2,0.9-0.4c0.3-0.2,0.5-0.4,0.6-0.7c0.2-0.3,0.2-0.6,0.2-1v-10.2h4.4v15.8h-4.4V752z"/>
		<path class="st0" d="M898,754.7v-15.8h4.4v2.7h0.2c0.3-0.8,0.8-1.5,1.5-2.1c0.7-0.6,1.7-0.9,2.9-0.9c1.6,0,2.8,0.5,3.7,1.6
			c0.8,1.1,1.2,2.6,1.2,4.6v9.9h-4.4v-9.5c0-1-0.2-1.8-0.5-2.3c-0.3-0.5-0.9-0.7-1.7-0.7c-0.4,0-0.7,0-1.1,0.1s-0.6,0.2-0.9,0.4
			c-0.3,0.2-0.5,0.4-0.6,0.7s-0.2,0.6-0.2,1v10.2H898z"/>
		<path class="st0" d="M927.1,755c-1.2,0-2.3-0.2-3.2-0.6c-0.9-0.4-1.7-0.9-2.4-1.7c-0.7-0.7-1.1-1.6-1.5-2.6
			c-0.3-1-0.5-2.2-0.5-3.4c0-1.2,0.2-2.4,0.5-3.4c0.3-1,0.8-1.9,1.4-2.6c0.6-0.7,1.4-1.3,2.3-1.7c0.9-0.4,2-0.6,3.2-0.6
			c1.3,0,2.4,0.2,3.3,0.7c0.9,0.4,1.7,1,2.3,1.8s1,1.6,1.3,2.6c0.3,1,0.4,2,0.4,3v1.3h-10.1v0.2c0,1,0.3,1.8,0.8,2.5
			c0.6,0.6,1.4,0.9,2.6,0.9c0.9,0,1.7-0.2,2.2-0.5c0.6-0.4,1.1-0.8,1.6-1.3l2.2,2.8c-0.7,0.8-1.6,1.5-2.7,1.9S928.6,755,927.1,755z
			 M927,741.8c-0.9,0-1.6,0.3-2.1,0.9c-0.5,0.6-0.8,1.4-0.8,2.4v0.2h5.5v-0.3c0-1-0.2-1.7-0.6-2.3
			C928.6,742.1,927.9,741.8,927,741.8z"/>
		<path class="st0" d="M936.2,754.7v-15.8h4.4v2.7h0.2c0.3-0.8,0.8-1.5,1.5-2.1c0.7-0.6,1.7-0.9,2.9-0.9c1.6,0,2.8,0.5,3.7,1.6
			c0.8,1.1,1.2,2.6,1.2,4.6v9.9h-4.4v-9.5c0-1-0.2-1.8-0.5-2.3c-0.3-0.5-0.9-0.7-1.7-0.7c-0.4,0-0.7,0-1.1,0.1s-0.6,0.2-0.9,0.4
			c-0.3,0.2-0.5,0.4-0.6,0.7s-0.2,0.6-0.2,1v10.2H936.2z"/>
		<path class="st0" d="M953.7,742.4h-2.2v-3.5h2.2v-1.9c0-1.5,0.4-2.7,1.2-3.4c0.8-0.8,2-1.2,3.5-1.2h2.9v3.5h-3.2v3h3.2v3.5h-3.2
			v12.3h-4.4V742.4z"/>
		<path class="st0" d="M968.8,755c-1.2,0-2.2-0.2-3.1-0.6c-0.9-0.4-1.7-0.9-2.3-1.7c-0.6-0.7-1.1-1.6-1.5-2.6
			c-0.3-1-0.5-2.2-0.5-3.4c0-1.3,0.2-2.4,0.5-3.4c0.3-1,0.8-1.9,1.5-2.6c0.6-0.7,1.4-1.3,2.3-1.6c0.9-0.4,1.9-0.6,3.1-0.6
			s2.2,0.2,3.1,0.6c0.9,0.4,1.7,0.9,2.3,1.6c0.6,0.7,1.1,1.6,1.5,2.6c0.3,1,0.5,2.2,0.5,3.4c0,1.3-0.2,2.4-0.5,3.4
			c-0.3,1-0.8,1.9-1.5,2.6c-0.6,0.7-1.4,1.3-2.3,1.7C971,754.9,970,755,968.8,755z M968.8,751.5c0.9,0,1.6-0.3,2-0.8
			s0.7-1.3,0.7-2.3v-3.2c0-1-0.2-1.8-0.7-2.3s-1.2-0.8-2-0.8s-1.6,0.3-2,0.8c-0.5,0.5-0.7,1.3-0.7,2.3v3.2c0,1,0.2,1.8,0.7,2.3
			C967.2,751.3,967.9,751.5,968.8,751.5z"/>
		<path class="st0" d="M987.8,752h-0.2c-0.1,0.4-0.3,0.8-0.6,1.2s-0.6,0.7-0.9,1c-0.4,0.3-0.8,0.5-1.3,0.6c-0.5,0.2-1,0.2-1.5,0.2
			c-2,0-3.5-0.7-4.5-2.1c-1-1.4-1.5-3.5-1.5-6.1c0-2.7,0.5-4.7,1.5-6.1c1-1.4,2.5-2.1,4.5-2.1c1,0,1.9,0.3,2.7,0.8
			c0.8,0.6,1.3,1.3,1.5,2.2h0.2v-2.6h4.4v21.8h-4.4V752z M984.9,751.4c0.8,0,1.5-0.2,2.1-0.6c0.5-0.4,0.8-1,0.8-1.7v-4.7
			c0-0.7-0.3-1.3-0.8-1.7c-0.6-0.4-1.2-0.6-2.1-0.6s-1.5,0.3-2.1,0.9c-0.6,0.6-0.8,1.4-0.8,2.4v2.7c0,1,0.3,1.8,0.8,2.4
			C983.3,751.1,984,751.4,984.9,751.4z"/>
		<path class="st0" d="M1004.5,752h-0.2c-0.1,0.4-0.3,0.8-0.6,1.1c-0.2,0.4-0.5,0.7-0.9,1c-0.4,0.3-0.8,0.5-1.3,0.7
			s-1.1,0.2-1.7,0.2c-1.6,0-2.8-0.5-3.7-1.6c-0.8-1.1-1.2-2.6-1.2-4.6v-9.9h4.4v9.5c0,1,0.2,1.7,0.5,2.2c0.3,0.5,0.9,0.8,1.7,0.8
			c0.3,0,0.7,0,1-0.1c0.3-0.1,0.6-0.2,0.9-0.4c0.3-0.2,0.5-0.4,0.6-0.7c0.2-0.3,0.2-0.6,0.2-1v-10.2h4.4v15.8h-4.4V752z"/>
		<path class="st0" d="M1018.4,755c-1.2,0-2.3-0.2-3.2-0.6c-0.9-0.4-1.7-0.9-2.4-1.7c-0.7-0.7-1.1-1.6-1.5-2.6
			c-0.3-1-0.5-2.2-0.5-3.4c0-1.2,0.2-2.4,0.5-3.4c0.3-1,0.8-1.9,1.4-2.6c0.6-0.7,1.4-1.3,2.3-1.7c0.9-0.4,2-0.6,3.2-0.6
			c1.3,0,2.4,0.2,3.3,0.7c0.9,0.4,1.7,1,2.3,1.8s1,1.6,1.3,2.6c0.3,1,0.4,2,0.4,3v1.3h-10.1v0.2c0,1,0.3,1.8,0.8,2.5
			c0.6,0.6,1.4,0.9,2.6,0.9c0.9,0,1.7-0.2,2.2-0.5c0.6-0.4,1.1-0.8,1.6-1.3l2.2,2.8c-0.7,0.8-1.6,1.5-2.7,1.9S1019.9,755,1018.4,755
			z M1018.3,741.8c-0.9,0-1.6,0.3-2.1,0.9c-0.5,0.6-0.8,1.4-0.8,2.4v0.2h5.5v-0.3c0-1-0.2-1.7-0.6-2.3
			C1019.9,742.1,1019.2,741.8,1018.3,741.8z"/>
		<path class="st0" d="M1038.7,755c-1.5,0-2.8-0.2-3.8-0.7c-1-0.5-2-1.2-2.8-2.1l2.6-2.6c0.6,0.6,1.2,1.1,1.9,1.5s1.5,0.5,2.3,0.5
			c0.9,0,1.5-0.1,1.8-0.4c0.3-0.3,0.5-0.6,0.5-1.1c0-0.7-0.5-1.2-1.6-1.3l-1.7-0.2c-3.5-0.4-5.3-2.1-5.3-4.9c0-0.8,0.1-1.5,0.4-2.1
			c0.3-0.6,0.7-1.2,1.2-1.6c0.5-0.5,1.2-0.8,1.9-1.1c0.8-0.2,1.6-0.4,2.5-0.4c0.8,0,1.5,0.1,2.2,0.2c0.6,0.1,1.2,0.3,1.7,0.5
			s0.9,0.5,1.4,0.8c0.4,0.3,0.8,0.7,1.2,1l-2.5,2.6c-0.5-0.5-1.1-0.9-1.7-1.2s-1.3-0.4-1.9-0.4c-0.8,0-1.3,0.1-1.6,0.4
			c-0.3,0.2-0.5,0.6-0.5,1c0,0.4,0.1,0.7,0.3,1c0.2,0.2,0.7,0.4,1.3,0.5l1.8,0.2c3.5,0.5,5.2,2,5.2,4.7c0,0.8-0.2,1.5-0.5,2.1
			c-0.3,0.6-0.8,1.2-1.4,1.7c-0.6,0.5-1.3,0.8-2.1,1.1S1039.7,755,1038.7,755z"/>
		<path class="st0" d="M1053.7,755c-1.2,0-2.2-0.2-3.1-0.6c-0.9-0.4-1.7-0.9-2.3-1.7c-0.6-0.7-1.1-1.6-1.5-2.6
			c-0.3-1-0.5-2.2-0.5-3.4c0-1.3,0.2-2.4,0.5-3.4c0.3-1,0.8-1.9,1.5-2.6c0.6-0.7,1.4-1.3,2.3-1.6c0.9-0.4,1.9-0.6,3.1-0.6
			s2.2,0.2,3.1,0.6c0.9,0.4,1.7,0.9,2.3,1.6c0.6,0.7,1.1,1.6,1.5,2.6c0.3,1,0.5,2.2,0.5,3.4c0,1.3-0.2,2.4-0.5,3.4
			c-0.3,1-0.8,1.9-1.5,2.6c-0.6,0.7-1.4,1.3-2.3,1.7C1055.9,754.9,1054.9,755,1053.7,755z M1053.7,751.5c0.9,0,1.6-0.3,2-0.8
			s0.7-1.3,0.7-2.3v-3.2c0-1-0.2-1.8-0.7-2.3s-1.2-0.8-2-0.8s-1.6,0.3-2,0.8c-0.5,0.5-0.7,1.3-0.7,2.3v3.2c0,1,0.2,1.8,0.7,2.3
			C1052.1,751.3,1052.8,751.5,1053.7,751.5z"/>
		<path class="st0" d="M1069.4,755c-1.2,0-2.2-0.2-3.1-0.6c-0.9-0.4-1.7-0.9-2.3-1.7s-1.1-1.6-1.4-2.6c-0.3-1-0.5-2.2-0.5-3.4
			c0-1.3,0.2-2.4,0.5-3.4c0.3-1,0.8-1.9,1.4-2.6c0.6-0.7,1.4-1.3,2.3-1.7c0.9-0.4,2-0.6,3.1-0.6c1.6,0,2.9,0.4,4,1.1
			c1.1,0.7,1.8,1.7,2.3,3l-3.6,1.6c-0.1-0.6-0.4-1.1-0.9-1.5s-1-0.6-1.8-0.6c-0.9,0-1.6,0.3-2,0.9s-0.7,1.4-0.7,2.4v2.9
			c0,1,0.2,1.8,0.7,2.4s1.1,0.9,2,0.9c0.8,0,1.4-0.2,1.9-0.6c0.5-0.4,0.8-1,1-1.7l3.5,1.5c-0.5,1.5-1.3,2.6-2.4,3.3
			C1072.3,754.7,1070.9,755,1069.4,755z"/>
		<path class="st0" d="M1079.6,737.3c-0.9,0-1.6-0.2-2-0.6c-0.4-0.4-0.6-0.9-0.6-1.6v-0.7c0-0.6,0.2-1.2,0.6-1.6
			c0.4-0.4,1.1-0.6,2-0.6s1.6,0.2,2,0.6c0.4,0.4,0.6,0.9,0.6,1.6v0.7c0,0.6-0.2,1.2-0.6,1.6S1080.5,737.3,1079.6,737.3z
			 M1077.3,738.9h4.4v15.8h-4.4V738.9z"/>
		<path class="st0" d="M1096.4,754.7c-0.8,0-1.5-0.2-2-0.8s-0.9-1.2-1-2h-0.2c-0.2,1-0.8,1.8-1.6,2.3c-0.8,0.5-1.8,0.8-3,0.8
			c-1.6,0-2.8-0.4-3.6-1.3c-0.8-0.8-1.3-1.9-1.3-3.3c0-1.7,0.6-2.9,1.8-3.7c1.2-0.8,2.9-1.2,4.9-1.2h2.5v-1c0-0.8-0.2-1.4-0.6-1.8
			c-0.4-0.5-1.1-0.7-2-0.7c-0.9,0-1.6,0.2-2.1,0.6c-0.5,0.4-1,0.8-1.3,1.3l-2.6-2.4c0.6-0.9,1.4-1.7,2.4-2.2c1-0.5,2.3-0.8,3.9-0.8
			c2.2,0,3.9,0.5,5,1.5c1.1,1,1.7,2.4,1.7,4.3v6.9h1.5v3.5H1096.4z M1090.2,752c0.7,0,1.4-0.2,1.9-0.5s0.8-0.8,0.8-1.5v-1.8h-2.2
			c-1.7,0-2.6,0.6-2.6,1.8v0.4c0,0.6,0.2,1,0.5,1.3C1089,751.8,1089.5,752,1090.2,752z"/>
		<path class="st0" d="M1105,754.7c-1.5,0-2.6-0.4-3.3-1.1c-0.7-0.7-1.1-1.8-1.1-3.2v-17.9h4.4v18.8h2v3.5H1105z"/>
		<path class="st0" d="M920.2,774.5h4.1l-6.1,18.2c-0.4,1.2-1,2.1-1.7,2.7c-0.7,0.6-1.8,0.9-3.1,0.9h-2.8v-3.5h3l0.5-1.7l-5.5-16.6
			h4.4l2.3,7.3l1.1,4.6h0.2l1.2-4.6L920.2,774.5z"/>
		<path class="st0" d="M931.2,774.5h4.4v2.6h0.2c0.2-0.9,0.7-1.6,1.5-2.2c0.8-0.6,1.7-0.8,2.7-0.8c2,0,3.5,0.7,4.5,2.1
			c1,1.4,1.5,3.4,1.5,6.1c0,2.7-0.5,4.7-1.5,6.1c-1,1.4-2.5,2.1-4.5,2.1c-0.5,0-1-0.1-1.5-0.2c-0.5-0.1-0.9-0.4-1.2-0.6
			c-0.4-0.3-0.7-0.6-0.9-1c-0.3-0.4-0.5-0.8-0.6-1.2h-0.2v8.6h-4.4V774.5z M938.6,787c0.8,0,1.5-0.3,2.1-0.9s0.8-1.4,0.8-2.4V781
			c0-1-0.3-1.8-0.8-2.4s-1.2-0.9-2.1-0.9s-1.5,0.2-2.1,0.6s-0.8,1-0.8,1.7v4.7c0,0.7,0.3,1.3,0.8,1.7C937,786.8,937.7,787,938.6,787
			z"/>
		<path class="st0" d="M954.7,790.6c-1.2,0-2.2-0.2-3.1-0.6c-0.9-0.4-1.7-0.9-2.3-1.7c-0.6-0.7-1.1-1.6-1.5-2.6
			c-0.3-1-0.5-2.2-0.5-3.4c0-1.3,0.2-2.4,0.5-3.4c0.3-1,0.8-1.9,1.5-2.6c0.6-0.7,1.4-1.3,2.3-1.6c0.9-0.4,1.9-0.6,3.1-0.6
			s2.2,0.2,3.1,0.6c0.9,0.4,1.7,0.9,2.3,1.6c0.6,0.7,1.1,1.6,1.5,2.6c0.3,1,0.5,2.2,0.5,3.4c0,1.3-0.2,2.4-0.5,3.4
			c-0.3,1-0.8,1.9-1.5,2.6c-0.6,0.7-1.4,1.3-2.3,1.7C956.9,790.4,955.8,790.6,954.7,790.6z M954.7,787.1c0.9,0,1.6-0.3,2-0.8
			s0.7-1.3,0.7-2.3v-3.2c0-1-0.2-1.8-0.7-2.3s-1.2-0.8-2-0.8s-1.6,0.3-2,0.8c-0.5,0.5-0.7,1.3-0.7,2.3v3.2c0,1,0.2,1.8,0.7,2.3
			C953.1,786.9,953.8,787.1,954.7,787.1z"/>
		<path class="st0" d="M968.4,790.3c-1.5,0-2.6-0.4-3.3-1.1c-0.7-0.7-1.1-1.8-1.1-3.2v-17.9h4.4v18.8h2v3.5H968.4z"/>
		<path class="st0" d="M971.9,790.3v-15.8h4.4v15.8H971.9z M974.6,772.9l-2.6-1.3l3-5.8l3.7,1.8L974.6,772.9z"/>
		<path class="st0" d="M984.8,790.3c-1.5,0-2.7-0.4-3.5-1.2s-1.2-1.9-1.2-3.4V778h-2.2v-3.5h1.1c0.6,0,1-0.1,1.2-0.4
			c0.2-0.3,0.3-0.7,0.3-1.2v-2.6h4v4.3h3.1v3.5h-3.1v8.8h2.9v3.5H984.8z"/>
		<path class="st0" d="M991.8,772.8c-0.9,0-1.6-0.2-2-0.6c-0.4-0.4-0.6-0.9-0.6-1.6V770c0-0.6,0.2-1.2,0.6-1.6
			c0.4-0.4,1.1-0.6,2-0.6s1.6,0.2,2,0.6c0.4,0.4,0.6,0.9,0.6,1.6v0.7c0,0.6-0.2,1.2-0.6,1.6S992.7,772.8,991.8,772.8z M989.6,774.5
			h4.4v15.8h-4.4V774.5z"/>
		<path class="st0" d="M1003.3,790.6c-1.2,0-2.2-0.2-3.1-0.6c-0.9-0.4-1.7-0.9-2.3-1.7s-1.1-1.6-1.4-2.6c-0.3-1-0.5-2.2-0.5-3.4
			c0-1.3,0.2-2.4,0.5-3.4c0.3-1,0.8-1.9,1.4-2.6c0.6-0.7,1.4-1.3,2.3-1.7c0.9-0.4,2-0.6,3.1-0.6c1.6,0,2.9,0.4,4,1.1
			c1.1,0.7,1.8,1.7,2.3,3l-3.6,1.6c-0.1-0.6-0.4-1.1-0.9-1.5s-1-0.6-1.8-0.6c-0.9,0-1.6,0.3-2,0.9s-0.7,1.4-0.7,2.4v2.9
			c0,1,0.2,1.8,0.7,2.4s1.1,0.9,2,0.9c0.8,0,1.4-0.2,1.9-0.6c0.5-0.4,0.8-1,1-1.7l3.5,1.5c-0.5,1.5-1.3,2.6-2.4,3.3
			C1006.2,790.3,1004.9,790.6,1003.3,790.6z"/>
		<path class="st0" d="M1017.5,790.6c-1.2,0-2.2-0.2-3.1-0.6c-0.9-0.4-1.7-0.9-2.3-1.7c-0.6-0.7-1.1-1.6-1.5-2.6
			c-0.3-1-0.5-2.2-0.5-3.4c0-1.3,0.2-2.4,0.5-3.4c0.3-1,0.8-1.9,1.5-2.6c0.6-0.7,1.4-1.3,2.3-1.6c0.9-0.4,1.9-0.6,3.1-0.6
			s2.2,0.2,3.1,0.6c0.9,0.4,1.7,0.9,2.3,1.6c0.6,0.7,1.1,1.6,1.5,2.6c0.3,1,0.5,2.2,0.5,3.4c0,1.3-0.2,2.4-0.5,3.4
			c-0.3,1-0.8,1.9-1.5,2.6c-0.6,0.7-1.4,1.3-2.3,1.7C1019.7,790.4,1018.6,790.6,1017.5,790.6z M1017.5,787.1c0.9,0,1.6-0.3,2-0.8
			s0.7-1.3,0.7-2.3v-3.2c0-1-0.2-1.8-0.7-2.3s-1.2-0.8-2-0.8s-1.6,0.3-2,0.8c-0.5,0.5-0.7,1.3-0.7,2.3v3.2c0,1,0.2,1.8,0.7,2.3
			C1015.9,786.9,1016.6,787.1,1017.5,787.1z"/>
	</g>
</g>
<path class="st3" d="M1117.1,834.7H817.3c-50.1,0-90.7-40.6-90.7-90.7v0c0-50.1,40.6-90.7,90.7-90.7h299.8
	c50.1,0,90.7,40.6,90.7,90.7v0C1207.8,794.1,1167.2,834.7,1117.1,834.7z"/>
<polyline class="st1" points="298.2,652.9 298.2,612.5 967.2,612.5 967.2,653.7 "/>
</svg>
