<?xml version="1.0" encoding="UTF-8"?>
<svg id="Capa_1" xmlns="http://www.w3.org/2000/svg" viewBox="0 0 414.89 940.85">
  <defs>
    <style>
      .cls-1, .cls-2, .cls-3, .cls-4 {
        fill: none;
        stroke-miterlimit: 10;
      }

      .cls-1, .cls-3 {
        stroke-width: 1.63px;
      }

      .cls-1, .cls-4 {
        stroke: #000;
      }

      .cls-2 {
        stroke-width: 1.58px;
      }

      .cls-2, .cls-3 {
        stroke: #1d1d1b;
      }

      .cls-5 {
        fill: #6843e1;
      }

      .cls-4 {
        stroke-width: 1.64px;
      }

      .cls-6 {
        fill: #1d1d1b;
      }
    </style>
  </defs>
  <line class="cls-4" x1="207.44" y1="315.14" x2="207.44" y2="275.07"/>
  <line class="cls-1" x1="207.44" y1="481.55" x2="207.44" y2="441.54"/>
  <line class="cls-1" x1="207.44" y1="647.25" x2="207.44" y2="607.24"/>
  <line class="cls-1" x1="207.44" y1="813.66" x2="207.44" y2="773.65"/>
  <g>
    <path class="cls-5" d="M120.14,52.61c-1.6,0-3.04-.23-4.32-.68-1.28-.45-2.39-1.09-3.33-1.9-.94-.81-1.65-1.8-2.15-2.94-.5-1.15-.75-2.42-.75-3.8,0-1.27.21-2.41.63-3.44.42-1.03,1-1.92,1.72-2.69.72-.77,1.57-1.4,2.54-1.88.97-.48,1.98-.81,3.03-1v-3.26h6.34v6.93c-2.38.09-4.17.49-5.37,1.2-1.19.71-1.79,1.91-1.79,3.6v.63c0,1.15.34,2.02,1.02,2.63.68.6,1.56.91,2.65.91,1.18,0,2.15-.36,2.92-1.09.77-.72,1.29-1.64,1.56-2.76l5.52,2.31c-.27.91-.66,1.8-1.18,2.67-.51.88-1.18,1.65-2.01,2.33-.83.68-1.83,1.22-2.99,1.63-1.16.41-2.51.61-4.05.61ZM120.59,27.89c-1.45,0-2.48-.33-3.1-1-.62-.66-.93-1.48-.93-2.44v-1.09c0-.97.31-1.78.93-2.45.62-.66,1.65-1,3.1-1s2.48.33,3.1,1c.62.66.93,1.48.93,2.45v1.09c0,.97-.31,1.78-.93,2.44-.62.66-1.65,1-3.1,1Z"/>
    <path class="cls-5" d="M132.41,44.24V12.63h14.94c1.48,0,2.81.25,3.98.75,1.18.5,2.18,1.19,3.01,2.06.83.88,1.47,1.94,1.92,3.19.45,1.25.68,2.62.68,4.1s-.23,2.88-.68,4.12c-.45,1.24-1.09,2.29-1.92,3.17s-1.83,1.56-3.01,2.06c-1.18.5-2.51.75-3.98.75h-8.06v11.41h-6.88ZM139.29,26.85h7.24c1.03,0,1.83-.26,2.42-.79.59-.53.88-1.31.88-2.33v-1.99c0-1.03-.29-1.8-.88-2.33-.59-.53-1.4-.79-2.42-.79h-7.24v8.24Z"/>
    <path class="cls-5" d="M172.98,44.78c-2.08,0-3.98-.35-5.71-1.04s-3.19-1.73-4.39-3.1c-1.21-1.37-2.14-3.08-2.81-5.12-.66-2.04-1-4.4-1-7.09s.33-5.05,1-7.09c.66-2.04,1.6-3.74,2.81-5.12,1.21-1.37,2.67-2.41,4.39-3.1,1.72-.69,3.62-1.04,5.71-1.04s3.98.35,5.7,1.04c1.72.69,3.18,1.73,4.39,3.1,1.21,1.37,2.14,3.08,2.81,5.12.66,2.04,1,4.4,1,7.09s-.33,5.05-1,7.09-1.6,3.74-2.81,5.12c-1.21,1.37-2.67,2.41-4.39,3.1-1.72.69-3.62,1.04-5.7,1.04ZM172.98,38.67c2.08,0,3.7-.68,4.87-2.04,1.16-1.36,1.74-3.31,1.74-5.84v-4.71c0-2.54-.58-4.48-1.74-5.84-1.16-1.36-2.79-2.04-4.87-2.04s-3.71.68-4.87,2.04c-1.16,1.36-1.74,3.31-1.74,5.84v4.71c0,2.54.58,4.48,1.74,5.84s2.79,2.04,4.87,2.04Z"/>
    <path class="cls-5" d="M197.7,44.24h-6.88V12.63h14.99c1.45,0,2.76.24,3.94.72,1.18.48,2.18,1.17,3.01,2.06.83.89,1.47,1.95,1.92,3.19.45,1.24.68,2.61.68,4.12,0,2.14-.47,4.01-1.43,5.61-.95,1.6-2.39,2.76-4.32,3.49l6.2,12.41h-7.65l-5.52-11.59h-4.93v11.59ZM204.94,26.85c1.03,0,1.83-.26,2.42-.79.59-.53.88-1.31.88-2.33v-1.99c0-1.03-.29-1.8-.88-2.33-.59-.53-1.4-.79-2.42-.79h-7.24v8.24h7.24Z"/>
    <path class="cls-5" d="M249.45,52.57h-4.26c-2.45,0-4.23-.57-5.34-1.72-1.12-1.15-1.68-2.81-1.68-4.98v-1.31c-3.38-.6-6.06-2.26-8.04-4.96-1.98-2.7-2.97-6.42-2.97-11.16,0-2.69.33-5.05,1-7.09.66-2.04,1.6-3.74,2.81-5.12,1.21-1.37,2.67-2.41,4.39-3.1,1.72-.69,3.62-1.04,5.71-1.04s3.98.35,5.71,1.04c1.72.69,3.18,1.73,4.39,3.1,1.21,1.37,2.14,3.08,2.81,5.12.66,2.04,1,4.4,1,7.09,0,4.59-.93,8.23-2.78,10.91-1.86,2.69-4.38,4.38-7.58,5.07v2.54h4.84v5.61ZM241.07,38.67c2.08,0,3.71-.68,4.87-2.04,1.16-1.36,1.74-3.31,1.74-5.84v-4.71c0-2.54-.58-4.48-1.74-5.84-1.16-1.36-2.79-2.04-4.87-2.04s-3.71.68-4.87,2.04c-1.16,1.36-1.74,3.31-1.74,5.84v4.71c0,2.54.58,4.48,1.74,5.84s2.79,2.04,4.87,2.04Z"/>
    <path class="cls-5" d="M265.43,12.63v19.38c0,2.23.44,3.9,1.31,5,.88,1.1,2.34,1.65,4.39,1.65s3.52-.55,4.39-1.65c.88-1.1,1.31-2.77,1.31-5V12.63h6.7v18.65c0,2.32-.22,4.34-.66,6.04-.44,1.71-1.16,3.11-2.15,4.21-1,1.1-2.28,1.92-3.85,2.44s-3.49.79-5.75.79-4.18-.26-5.75-.79c-1.57-.53-2.85-1.34-3.85-2.44-1-1.1-1.71-2.51-2.15-4.21-.44-1.71-.66-3.72-.66-6.04V12.63h6.7Z"/>
    <path class="cls-5" d="M288.52,44.24V12.63h21.51v6.11h-14.62v6.43h12.54v6.11h-12.54v6.84h14.62v6.11h-21.51ZM300.02,10.73l-3.98-1.95,4.48-8.78,5.57,2.76-6.07,7.97Z"/>
  </g>
  <g>
    <path class="cls-5" d="M47.52,98.72c-2.14,0-4.07-.34-5.79-1.02s-3.19-1.69-4.39-3.03c-1.21-1.34-2.14-3.02-2.81-5.03-.66-2.01-1-4.35-1-7.04s.33-5.02,1-7.09c.66-2.07,1.6-3.8,2.81-5.21,1.21-1.4,2.67-2.47,4.39-3.19s3.65-1.09,5.79-1.09c2.93,0,5.34.6,7.24,1.79,1.9,1.19,3.43,3.07,4.57,5.64l-5.93,3.08c-.42-1.33-1.08-2.39-1.97-3.19-.89-.8-2.2-1.2-3.92-1.2-2.02,0-3.64.66-4.87,1.97-1.22,1.31-1.83,3.22-1.83,5.73v5.07c0,2.51.61,4.41,1.83,5.73s2.84,1.97,4.87,1.97c1.69,0,3.04-.46,4.05-1.38,1.01-.92,1.76-2.03,2.24-3.33l5.61,3.26c-1.18,2.42-2.72,4.28-4.64,5.59-1.92,1.31-4.34,1.97-7.27,1.97Z"/>
    <path class="cls-5" d="M69.3,98.17h-6.88v-31.6h14.99c1.45,0,2.76.24,3.94.72,1.18.48,2.18,1.17,3.01,2.06.83.89,1.47,1.95,1.92,3.19.45,1.24.68,2.61.68,4.12,0,2.14-.47,4.01-1.43,5.61-.95,1.6-2.39,2.76-4.32,3.49l6.2,12.41h-7.65l-5.52-11.59h-4.93v11.59ZM76.54,80.79c1.03,0,1.83-.26,2.42-.79.59-.53.88-1.31.88-2.33v-1.99c0-1.03-.29-1.8-.88-2.33-.59-.53-1.4-.79-2.42-.79h-7.24v8.24h7.24Z"/>
    <path class="cls-5" d="M91.12,98.17v-31.6h21.51v6.11h-14.62v6.43h12.54v6.11h-12.54v6.84h14.62v6.11h-21.51Z"/>
    <path class="cls-5" d="M136.26,98.17l-2.26-7.52h-10.55l-2.26,7.52h-6.97l10.41-31.6h8.51l10.28,31.6h-7.15ZM128.79,72.82h-.23l-3.49,12h7.24l-3.53-12Z"/>
    <path class="cls-5" d="M169.63,77.44h-.14l-2.31,4.62-6.16,11.18-6.02-11.14-2.4-4.98h-.14v21.05h-6.47v-31.6h7.29l7.74,14.81h.09l7.65-14.81h7.33v31.6h-6.47v-20.74Z"/>
    <path class="cls-5" d="M193.94,98.72c-2.08,0-3.98-.35-5.71-1.04s-3.18-1.73-4.39-3.1c-1.21-1.37-2.14-3.08-2.81-5.12s-1-4.4-1-7.09.33-5.05,1-7.09c.66-2.04,1.6-3.74,2.81-5.12,1.21-1.37,2.67-2.41,4.39-3.1,1.72-.69,3.62-1.04,5.71-1.04s3.98.35,5.71,1.04c1.72.69,3.18,1.73,4.39,3.1,1.21,1.37,2.14,3.08,2.81,5.12.66,2.04,1,4.4,1,7.09s-.33,5.05-1,7.09-1.6,3.74-2.81,5.12c-1.21,1.37-2.67,2.41-4.39,3.1-1.72.69-3.62,1.04-5.71,1.04ZM193.94,92.61c2.08,0,3.71-.68,4.87-2.04,1.16-1.36,1.74-3.31,1.74-5.84v-4.71c0-2.54-.58-4.48-1.74-5.84-1.16-1.36-2.78-2.04-4.87-2.04s-3.71.68-4.87,2.04c-1.16,1.36-1.74,3.31-1.74,5.84v4.71c0,2.54.58,4.48,1.74,5.84,1.16,1.36,2.78,2.04,4.87,2.04Z"/>
    <path class="cls-5" d="M221.83,98.72c-2.78,0-5.13-.48-7.06-1.43-1.93-.95-3.58-2.18-4.93-3.7l4.53-4.58c2.14,2.39,4.78,3.59,7.92,3.59,1.69,0,2.94-.34,3.76-1.03s1.22-1.6,1.22-2.74c0-.87-.24-1.59-.72-2.18-.48-.58-1.46-.98-2.94-1.19l-3.12-.4c-3.35-.42-5.8-1.44-7.36-3.04s-2.33-3.73-2.33-6.39c0-1.42.27-2.72.82-3.9s1.32-2.19,2.33-3.04c1.01-.85,2.25-1.5,3.71-1.97,1.46-.47,3.13-.7,5-.7,2.38,0,4.48.38,6.29,1.13,1.81.76,3.37,1.86,4.66,3.31l-4.57,4.63c-.75-.87-1.67-1.58-2.74-2.13-1.07-.55-2.42-.83-4.05-.83-1.54,0-2.69.27-3.44.81-.75.54-1.13,1.28-1.13,2.24,0,1.08.29,1.85.88,2.33.59.48,1.55.82,2.88,1.03l3.12.5c3.26.51,5.67,1.52,7.24,3.01s2.35,3.62,2.35,6.37c0,1.51-.27,2.9-.81,4.17-.54,1.27-1.34,2.36-2.38,3.26-1.04.91-2.33,1.61-3.87,2.11-1.54.5-3.29.75-5.25.75Z"/>
    <path class="cls-5" d="M246.91,98.17v-31.6h14.94c1.48,0,2.81.25,3.98.75s2.18,1.19,3.01,2.06c.83.88,1.47,1.94,1.92,3.19.45,1.25.68,2.62.68,4.1s-.23,2.88-.68,4.12c-.45,1.24-1.09,2.29-1.92,3.17s-1.83,1.56-3.01,2.06-2.51.75-3.98.75h-8.06v11.41h-6.88ZM253.8,80.79h7.24c1.03,0,1.83-.26,2.42-.79.59-.53.88-1.31.88-2.33v-1.99c0-1.03-.29-1.8-.88-2.33-.59-.53-1.4-.79-2.42-.79h-7.24v8.24Z"/>
    <path class="cls-5" d="M290.97,98.17l-2.26-7.52h-10.55l-2.26,7.52h-6.97l10.41-31.6h8.51l10.28,31.6h-7.15ZM283.5,72.82h-.23l-3.49,12h7.24l-3.53-12Z"/>
    <path class="cls-5" d="M310.94,72.68v25.49h-6.88v-25.49h-8.56v-6.11h24v6.11h-8.56Z"/>
    <path class="cls-5" d="M320.99,98.17v-5.48h4.08v-20.65h-4.08v-5.48h15.03v5.48h-4.08v20.65h4.08v5.48h-15.03Z"/>
    <path class="cls-5" d="M352.63,98.72c-2.08,0-3.98-.35-5.71-1.04s-3.18-1.73-4.39-3.1c-1.21-1.37-2.14-3.08-2.81-5.12s-1-4.4-1-7.09.33-5.05,1-7.09c.66-2.04,1.6-3.74,2.81-5.12,1.21-1.37,2.67-2.41,4.39-3.1,1.72-.69,3.62-1.04,5.71-1.04s3.98.35,5.71,1.04c1.72.69,3.18,1.73,4.39,3.1,1.21,1.37,2.14,3.08,2.81,5.12.66,2.04,1,4.4,1,7.09s-.33,5.05-1,7.09-1.6,3.74-2.81,5.12c-1.21,1.37-2.67,2.41-4.39,3.1-1.72.69-3.62,1.04-5.71,1.04ZM352.63,92.61c2.08,0,3.71-.68,4.87-2.04,1.16-1.36,1.74-3.31,1.74-5.84v-4.71c0-2.54-.58-4.48-1.74-5.84-1.16-1.36-2.78-2.04-4.87-2.04s-3.71.68-4.87,2.04c-1.16,1.36-1.74,3.31-1.74,5.84v4.71c0,2.54.58,4.48,1.74,5.84,1.16,1.36,2.78,2.04,4.87,2.04Z"/>
    <path class="cls-5" d="M374.14,87.63v-6.93c2.38-.09,4.17-.49,5.37-1.2,1.19-.71,1.79-1.91,1.79-3.6v-.63c0-1.15-.34-2.02-1.02-2.63-.68-.6-1.56-.91-2.65-.91-1.18,0-2.15.36-2.92,1.09-.77.72-1.29,1.65-1.56,2.76l-5.52-2.31c.27-.91.66-1.79,1.18-2.65.51-.86,1.18-1.63,2.01-2.31.83-.68,1.83-1.23,2.99-1.65,1.16-.42,2.51-.63,4.05-.63s3,.23,4.3.68c1.3.45,2.41,1.09,3.35,1.9.93.81,1.65,1.8,2.15,2.94.5,1.15.75,2.42.75,3.8,0,1.27-.21,2.42-.63,3.44-.42,1.03-1,1.92-1.72,2.69s-1.57,1.4-2.54,1.88c-.97.48-1.98.81-3.03,1v3.26h-6.34ZM377.4,98.72c-1.45,0-2.48-.33-3.1-1-.62-.66-.93-1.48-.93-2.45v-1.09c0-.97.31-1.78.93-2.44.62-.66,1.65-1,3.1-1s2.48.33,3.1,1c.62.66.93,1.48.93,2.44v1.09c0,.97-.31,1.78-.93,2.45-.62.66-1.65,1-3.1,1Z"/>
  </g>
  <g>
    <path class="cls-6" d="M116.16,206.81l-1.42-4.72h-6.62l-1.42,4.72h-4.38l6.54-19.84h5.34l6.45,19.84h-4.49ZM111.47,190.9h-.14l-2.19,7.53h4.55l-2.22-7.53Z"/>
    <path class="cls-6" d="M122.05,206.81v-14.92h4.21v2.53h.17c.27-.8.72-1.47,1.36-2.03.64-.56,1.53-.84,2.64-.84,1.02,0,1.9.26,2.62.77s1.24,1.26,1.56,2.25h.09c.13-.42.34-.81.61-1.18.27-.37.61-.69,1.01-.95.4-.27.84-.48,1.34-.64.49-.16,1.02-.24,1.59-.24,1.44,0,2.54.51,3.31,1.54s1.15,2.48,1.15,4.38v9.35h-4.21v-9.01c0-1.9-.68-2.84-2.05-2.84-.63,0-1.19.18-1.71.54-.51.36-.77.91-.77,1.65v9.67h-4.21v-9.01c0-1.9-.68-2.84-2.05-2.84-.3,0-.6.04-.9.13-.29.09-.56.22-.8.41-.24.19-.43.42-.57.7-.14.27-.21.59-.21.95v9.67h-4.21Z"/>
    <path class="cls-6" d="M146.32,191.89h4.21v2.5h.14c.21-.83.69-1.52,1.44-2.05.75-.53,1.61-.8,2.57-.8,1.9,0,3.33.66,4.29,1.99.97,1.33,1.45,3.26,1.45,5.8s-.48,4.48-1.45,5.81-2.4,2-4.29,2c-.49,0-.96-.07-1.39-.21s-.83-.34-1.18-.6-.65-.56-.9-.91c-.25-.35-.43-.72-.54-1.12h-.14v8.19h-4.21v-20.61ZM153.29,203.74c.8,0,1.45-.28,1.98-.84.52-.56.78-1.31.78-2.26v-2.59c0-.95-.26-1.7-.78-2.26-.52-.56-1.18-.84-1.98-.84s-1.45.19-1.98.58c-.52.39-.78.92-.78,1.61v4.41c0,.68.26,1.22.78,1.61.52.39,1.18.58,1.98.58Z"/>
    <path class="cls-6" d="M166.65,206.81c-1.44,0-2.5-.35-3.17-1.05-.67-.7-1.01-1.71-1.01-3.04v-16.94h4.21v17.77h1.88v3.27h-1.9Z"/>
    <path class="cls-6" d="M172.05,190.3c-.85,0-1.47-.19-1.86-.58-.39-.39-.58-.89-.58-1.49v-.63c0-.61.19-1.1.58-1.49s1.01-.58,1.86-.58,1.47.19,1.86.58c.39.39.58.89.58,1.49v.63c0,.61-.19,1.1-.58,1.49s-1.01.58-1.86.58ZM169.94,191.89h4.21v14.92h-4.21v-14.92Z"/>
    <path class="cls-6" d="M182.99,207.16c-1.1,0-2.08-.18-2.94-.54-.86-.36-1.59-.88-2.19-1.56-.6-.68-1.06-1.51-1.38-2.47-.32-.97-.48-2.05-.48-3.24s.16-2.27.48-3.24c.32-.97.78-1.79,1.38-2.46.6-.67,1.33-1.19,2.19-1.55.86-.36,1.84-.54,2.94-.54s2.08.18,2.94.54c.86.36,1.59.88,2.19,1.55.6.67,1.06,1.49,1.38,2.46s.48,2.05.48,3.24-.16,2.27-.48,3.24c-.32.97-.78,1.79-1.38,2.47-.6.68-1.33,1.2-2.19,1.56-.86.36-1.84.54-2.94.54ZM182.99,203.83c.83,0,1.48-.26,1.93-.77.46-.51.68-1.24.68-2.19v-3.04c0-.95-.23-1.68-.68-2.19-.45-.51-1.1-.77-1.93-.77s-1.48.26-1.93.77c-.46.51-.68,1.24-.68,2.19v3.04c0,.95.23,1.68.68,2.19.45.51,1.1.77,1.93.77Z"/>
    <path class="cls-6" d="M197.4,191.89h4.21v2.5h.14c.21-.83.69-1.52,1.44-2.05.75-.53,1.61-.8,2.57-.8,1.9,0,3.33.66,4.29,1.99.97,1.33,1.45,3.26,1.45,5.8s-.48,4.48-1.45,5.81-2.4,2-4.29,2c-.49,0-.96-.07-1.39-.21s-.83-.34-1.18-.6-.65-.56-.9-.91c-.25-.35-.43-.72-.54-1.12h-.14v8.19h-4.21v-20.61ZM204.37,203.74c.8,0,1.45-.28,1.98-.84.52-.56.78-1.31.78-2.26v-2.59c0-.95-.26-1.7-.78-2.26-.52-.56-1.18-.84-1.98-.84s-1.45.19-1.98.58c-.52.39-.78.92-.78,1.61v4.41c0,.68.26,1.22.78,1.61.52.39,1.18.58,1.98.58Z"/>
    <path class="cls-6" d="M219.61,207.16c-1.1,0-2.08-.18-2.94-.54-.86-.36-1.59-.88-2.19-1.56-.6-.68-1.06-1.51-1.38-2.47-.32-.97-.48-2.05-.48-3.24s.16-2.27.48-3.24.78-1.79,1.38-2.46c.6-.67,1.33-1.19,2.19-1.55.86-.36,1.84-.54,2.94-.54s2.08.18,2.94.54c.86.36,1.59.88,2.19,1.55.6.67,1.06,1.49,1.38,2.46.32.97.48,2.05.48,3.24s-.16,2.27-.48,3.24c-.32.97-.78,1.79-1.38,2.47-.6.68-1.33,1.2-2.19,1.56-.86.36-1.84.54-2.94.54ZM219.61,203.83c.83,0,1.48-.26,1.93-.77s.68-1.24.68-2.19v-3.04c0-.95-.23-1.68-.68-2.19-.46-.51-1.1-.77-1.93-.77s-1.48.26-1.93.77c-.45.51-.68,1.24-.68,2.19v3.04c0,.95.23,1.68.68,2.19.46.51,1.1.77,1.93.77Z"/>
    <path class="cls-6" d="M228.45,206.81v-14.92h4.21v3.24h.14c.08-.42.21-.82.4-1.21.19-.39.44-.73.75-1.04.31-.3.69-.54,1.12-.72.44-.18.95-.27,1.54-.27h.74v3.92h-1.05c-1.23,0-2.15.16-2.74.48-.6.32-.9.92-.9,1.79v8.73h-4.21Z"/>
    <path class="cls-6" d="M244.14,206.81c-1.46,0-2.56-.37-3.31-1.11-.75-.74-1.12-1.82-1.12-3.24v-7.31h-2.1v-3.27h1.05c.57,0,.96-.14,1.17-.41.21-.27.31-.67.31-1.18v-2.44h3.78v4.04h2.96v3.27h-2.96v8.39h2.73v3.27h-2.5Z"/>
    <path class="cls-6" d="M259.69,206.81c-.76,0-1.39-.24-1.89-.71s-.82-1.11-.95-1.9h-.17c-.23.97-.73,1.7-1.51,2.2s-1.73.75-2.87.75c-1.5,0-2.64-.4-3.44-1.19-.8-.79-1.19-1.84-1.19-3.15,0-1.57.57-2.73,1.72-3.5,1.15-.76,2.71-1.15,4.68-1.15h2.36v-.94c0-.72-.19-1.29-.57-1.72-.38-.43-1.01-.64-1.9-.64-.83,0-1.5.18-1.99.54s-.9.77-1.22,1.22l-2.5-2.23c.61-.9,1.37-1.6,2.29-2.1s2.17-.76,3.74-.76c2.12,0,3.71.46,4.78,1.39,1.06.93,1.59,2.28,1.59,4.06v6.54h1.39v3.27h-2.33ZM253.86,204.23c.7,0,1.3-.15,1.81-.45.5-.3.75-.79.75-1.47v-1.75h-2.05c-1.65,0-2.47.55-2.47,1.66v.42c0,.55.17.94.51,1.2.34.25.82.38,1.45.38Z"/>
    <path class="cls-6" d="M264.43,195.16h-2.1v-3.27h2.1v-1.76c0-1.44.38-2.52,1.14-3.25.76-.73,1.87-1.09,3.33-1.09h2.73v3.27h-2.99v2.84h2.99v3.27h-2.99v11.65h-4.21v-11.65Z"/>
    <path class="cls-6" d="M278.76,207.16c-1.1,0-2.08-.18-2.94-.54-.86-.36-1.59-.88-2.19-1.56-.6-.68-1.06-1.51-1.38-2.47-.32-.97-.48-2.05-.48-3.24s.16-2.27.48-3.24.78-1.79,1.38-2.46c.6-.67,1.33-1.19,2.19-1.55.86-.36,1.84-.54,2.94-.54s2.08.18,2.94.54c.86.36,1.59.88,2.19,1.55.6.67,1.06,1.49,1.38,2.46.32.97.48,2.05.48,3.24s-.16,2.27-.48,3.24c-.32.97-.78,1.79-1.38,2.47-.6.68-1.33,1.2-2.19,1.56-.86.36-1.84.54-2.94.54ZM278.76,203.83c.83,0,1.48-.26,1.93-.77s.68-1.24.68-2.19v-3.04c0-.95-.23-1.68-.68-2.19-.46-.51-1.1-.77-1.93-.77s-1.48.26-1.93.77c-.45.51-.68,1.24-.68,2.19v3.04c0,.95.23,1.68.68,2.19.46.51,1.1.77,1.93.77Z"/>
    <path class="cls-6" d="M291.78,206.81c-1.44,0-2.5-.35-3.17-1.05-.67-.7-1.01-1.71-1.01-3.04v-16.94h4.21v17.77h1.88v3.27h-1.9Z"/>
    <path class="cls-6" d="M297.18,190.3c-.85,0-1.47-.19-1.86-.58-.39-.39-.58-.89-.58-1.49v-.63c0-.61.19-1.1.58-1.49.39-.39,1.01-.58,1.86-.58s1.47.19,1.86.58c.39.39.58.89.58,1.49v.63c0,.61-.19,1.1-.58,1.49-.39.39-1.01.58-1.86.58ZM295.08,191.89h4.21v14.92h-4.21v-14.92Z"/>
    <path class="cls-6" d="M308.13,207.16c-1.1,0-2.08-.18-2.94-.54-.86-.36-1.59-.88-2.19-1.56-.6-.68-1.06-1.51-1.38-2.47-.32-.97-.48-2.05-.48-3.24s.16-2.27.48-3.24.78-1.79,1.38-2.46c.6-.67,1.33-1.19,2.19-1.55.86-.36,1.84-.54,2.94-.54s2.08.18,2.94.54c.86.36,1.59.88,2.19,1.55.6.67,1.06,1.49,1.38,2.46.32.97.48,2.05.48,3.24s-.16,2.27-.48,3.24c-.32.97-.78,1.79-1.38,2.47-.6.68-1.33,1.2-2.19,1.56-.86.36-1.84.54-2.94.54ZM308.13,203.83c.83,0,1.48-.26,1.93-.77s.68-1.24.68-2.19v-3.04c0-.95-.23-1.68-.68-2.19-.46-.51-1.1-.77-1.93-.77s-1.48.26-1.93.77c-.45.51-.68,1.24-.68,2.19v3.04c0,.95.23,1.68.68,2.19.46.51,1.1.77,1.93.77Z"/>
    <path class="cls-6" d="M140.76,234.58h-.14c-.11.4-.29.77-.54,1.12-.25.35-.54.65-.9.91-.35.26-.75.46-1.19.6-.45.14-.91.21-1.38.21-1.9,0-3.33-.67-4.29-2-.97-1.34-1.45-3.27-1.45-5.81s.48-4.47,1.45-5.8c.97-1.33,2.4-1.99,4.29-1.99.97,0,1.82.27,2.57.8.75.53,1.23,1.21,1.44,2.05h.14v-8.61h4.21v21.04h-4.21v-2.5ZM138.01,234.01c.8,0,1.45-.19,1.98-.58.52-.39.78-.92.78-1.61v-4.41c0-.68-.26-1.22-.78-1.61-.52-.39-1.18-.58-1.98-.58s-1.45.28-1.98.84c-.52.56-.78,1.31-.78,2.26v2.59c0,.95.26,1.7.78,2.26.52.56,1.18.84,1.98.84Z"/>
    <path class="cls-6" d="M153.98,237.42c-1.14,0-2.15-.19-3.04-.55-.89-.37-1.64-.89-2.26-1.56-.62-.67-1.08-1.49-1.39-2.46-.31-.97-.47-2.05-.47-3.24s.15-2.24.45-3.2c.3-.96.75-1.78,1.35-2.46.6-.68,1.33-1.21,2.2-1.58.87-.37,1.87-.55,2.98-.55,1.23,0,2.29.21,3.17.63.88.42,1.6.98,2.16,1.68s.97,1.51,1.22,2.43c.26.92.38,1.88.38,2.89v1.25h-9.58v.23c0,.98.27,1.75.8,2.33.53.57,1.36.86,2.5.86.87,0,1.58-.17,2.13-.52.55-.35,1.06-.77,1.54-1.25l2.1,2.62c-.66.78-1.53,1.39-2.6,1.82-1.07.44-2.29.66-3.65.66ZM153.9,224.91c-.85,0-1.52.28-2,.84-.48.56-.73,1.3-.73,2.23v.23h5.23v-.26c0-.91-.2-1.64-.61-2.2-.41-.56-1.04-.84-1.89-.84Z"/>
    <path class="cls-6" d="M168.17,222.16h4.21v2.5h.14c.21-.83.69-1.52,1.44-2.05.75-.53,1.61-.8,2.57-.8,1.9,0,3.33.66,4.29,1.99.97,1.33,1.45,3.26,1.45,5.8s-.48,4.48-1.45,5.81-2.4,2-4.29,2c-.49,0-.96-.07-1.39-.21s-.83-.34-1.18-.6-.65-.56-.9-.91c-.25-.35-.43-.72-.54-1.12h-.14v8.19h-4.21v-20.61ZM175.13,234.01c.8,0,1.45-.28,1.98-.84.52-.56.78-1.31.78-2.26v-2.59c0-.95-.26-1.7-.78-2.26-.52-.56-1.18-.84-1.98-.84s-1.45.19-1.98.58c-.52.39-.78.92-.78,1.61v4.41c0,.68.26,1.22.78,1.61.52.39,1.18.58,1.98.58Z"/>
    <path class="cls-6" d="M184.31,237.08v-14.92h4.21v3.24h.14c.08-.42.21-.82.4-1.21.19-.39.44-.73.75-1.04.31-.3.69-.54,1.12-.72.44-.18.95-.27,1.54-.27h.74v3.92h-1.05c-1.23,0-2.15.16-2.74.48-.6.32-.9.92-.9,1.79v8.73h-4.21Z"/>
    <path class="cls-6" d="M200.57,237.42c-1.1,0-2.08-.18-2.94-.54-.86-.36-1.59-.88-2.19-1.56-.6-.68-1.06-1.51-1.38-2.47-.32-.97-.48-2.05-.48-3.24s.16-2.27.48-3.24c.32-.97.78-1.79,1.38-2.46.6-.67,1.33-1.19,2.19-1.55.86-.36,1.84-.54,2.94-.54s2.08.18,2.94.54c.86.36,1.59.88,2.19,1.55.6.67,1.06,1.49,1.38,2.46s.48,2.05.48,3.24-.16,2.27-.48,3.24c-.32.97-.78,1.79-1.38,2.47-.6.68-1.33,1.2-2.19,1.56-.86.36-1.84.54-2.94.54ZM200.57,234.1c.83,0,1.48-.26,1.93-.77.46-.51.68-1.24.68-2.19v-3.04c0-.95-.23-1.68-.68-2.19-.45-.51-1.1-.77-1.93-.77s-1.48.26-1.93.77c-.46.51-.68,1.24-.68,2.19v3.04c0,.95.23,1.68.68,2.19.45.51,1.1.77,1.93.77Z"/>
    <path class="cls-6" d="M218.25,222.16h3.92l-5.74,17.23c-.38,1.16-.92,2.01-1.61,2.56-.69.55-1.68.82-2.97.82h-2.62v-3.27h2.81l.51-1.65-5.23-15.69h4.18l2.19,6.96,1.08,4.32h.17l1.11-4.32,2.19-6.96Z"/>
    <path class="cls-6" d="M229.17,237.42c-1.14,0-2.15-.19-3.04-.55-.89-.37-1.64-.89-2.26-1.56-.62-.67-1.08-1.49-1.39-2.46-.31-.97-.47-2.05-.47-3.24s.15-2.24.46-3.2c.3-.96.75-1.78,1.35-2.46.6-.68,1.33-1.21,2.2-1.58s1.87-.55,2.99-.55c1.23,0,2.29.21,3.17.63.88.42,1.6.98,2.16,1.68.56.7.97,1.51,1.22,2.43.26.92.38,1.88.38,2.89v1.25h-9.58v.23c0,.98.26,1.75.8,2.33.53.57,1.36.86,2.5.86.87,0,1.58-.17,2.13-.52s1.06-.77,1.54-1.25l2.1,2.62c-.66.78-1.53,1.39-2.6,1.82-1.07.44-2.29.66-3.65.66ZM229.09,224.91c-.85,0-1.52.28-2,.84-.48.56-.72,1.3-.72,2.23v.23h5.23v-.26c0-.91-.2-1.64-.61-2.2-.41-.56-1.04-.84-1.89-.84Z"/>
    <path class="cls-6" d="M243.81,237.42c-1.12,0-2.11-.19-2.99-.55-.87-.37-1.6-.89-2.19-1.56-.59-.67-1.03-1.49-1.34-2.46-.3-.97-.46-2.05-.46-3.24s.15-2.27.46-3.23c.3-.96.75-1.78,1.34-2.46.59-.68,1.32-1.2,2.19-1.56.87-.36,1.87-.54,2.99-.54,1.52,0,2.78.34,3.79,1.02,1.01.68,1.74,1.64,2.17,2.87l-3.41,1.48c-.13-.57-.41-1.05-.82-1.45s-1-.6-1.73-.6c-.85,0-1.5.28-1.93.84-.44.56-.65,1.31-.65,2.26v2.79c0,.95.22,1.7.65,2.25.44.55,1.08.82,1.93.82.76,0,1.36-.2,1.8-.61.45-.41.77-.94.98-1.61l3.27,1.42c-.49,1.42-1.26,2.46-2.29,3.13-1.03.66-2.29,1-3.77,1Z"/>
    <path class="cls-6" d="M256.57,237.08c-1.46,0-2.56-.37-3.31-1.11-.75-.74-1.12-1.82-1.12-3.24v-7.31h-2.1v-3.27h1.05c.57,0,.96-.14,1.17-.41.21-.27.31-.67.31-1.18v-2.44h3.78v4.04h2.96v3.27h-2.96v8.39h2.73v3.27h-2.5Z"/>
    <path class="cls-6" d="M267.03,237.42c-1.1,0-2.08-.18-2.94-.54-.86-.36-1.59-.88-2.19-1.56-.6-.68-1.06-1.51-1.38-2.47-.32-.97-.48-2.05-.48-3.24s.16-2.27.48-3.24.78-1.79,1.38-2.46c.6-.67,1.33-1.19,2.19-1.55.86-.36,1.84-.54,2.94-.54s2.08.18,2.94.54c.86.36,1.59.88,2.19,1.55.6.67,1.06,1.49,1.38,2.46.32.97.48,2.05.48,3.24s-.16,2.27-.48,3.24c-.32.97-.78,1.79-1.38,2.47-.6.68-1.33,1.2-2.19,1.56-.86.36-1.84.54-2.94.54ZM267.03,234.1c.83,0,1.48-.26,1.93-.77s.68-1.24.68-2.19v-3.04c0-.95-.23-1.68-.68-2.19-.46-.51-1.1-.77-1.93-.77s-1.48.26-1.93.77c-.45.51-.68,1.24-.68,2.19v3.04c0,.95.23,1.68.68,2.19.46.51,1.1.77,1.93.77Z"/>
    <path class="cls-6" d="M280.93,237.42c-1.44,0-2.65-.23-3.64-.7-.99-.46-1.87-1.12-2.64-1.98l2.47-2.5c.53.59,1.12,1.05,1.76,1.39.64.34,1.37.51,2.19.51s1.41-.13,1.73-.38.48-.6.48-1.04c0-.7-.5-1.12-1.51-1.25l-1.62-.2c-3.35-.42-5.03-1.95-5.03-4.61,0-.72.14-1.38.41-1.98.27-.6.66-1.11,1.17-1.54.5-.43,1.11-.76,1.82-.99.71-.24,1.51-.36,2.4-.36.78,0,1.46.05,2.06.16.6.1,1.13.26,1.59.46.46.2.89.45,1.28.74.39.29.77.62,1.15.98l-2.42,2.47c-.47-.47-1.01-.85-1.61-1.12-.6-.27-1.21-.41-1.83-.41-.72,0-1.23.11-1.54.34-.3.23-.46.53-.46.91,0,.4.11.71.33.92s.63.37,1.24.47l1.68.23c3.28.44,4.92,1.93,4.92,4.49,0,.72-.15,1.38-.45,1.99-.3.61-.74,1.13-1.29,1.58s-1.23.79-2.02,1.04c-.79.25-1.66.37-2.63.37Z"/>
  </g>
  <rect class="cls-3" x="2.84" y="148.62" width="409.2" height="125.69" rx="62.85" ry="62.85"/>
  <rect class="cls-3" x="2.84" y="481.55" width="409.2" height="125.69" rx="62.85" ry="62.85"/>
  <g>
    <path class="cls-6" d="M89.37,522.72v16h-4.32v-16h-5.37v-3.84h15.07v3.84h-5.37Z"/>
    <path class="cls-6" d="M105.37,538.73c-.76,0-1.39-.24-1.89-.71-.5-.47-.82-1.11-.95-1.9h-.17c-.23.97-.73,1.7-1.51,2.2-.78.5-1.73.75-2.87.75-1.5,0-2.64-.4-3.44-1.19-.8-.79-1.19-1.84-1.19-3.15,0-1.57.57-2.73,1.72-3.5,1.15-.76,2.7-1.15,4.68-1.15h2.36v-.94c0-.72-.19-1.29-.57-1.72-.38-.43-1.01-.64-1.9-.64-.83,0-1.5.18-1.99.54-.49.36-.9.77-1.22,1.22l-2.5-2.23c.61-.9,1.37-1.6,2.29-2.1.92-.5,2.17-.76,3.74-.76,2.12,0,3.71.46,4.78,1.39,1.06.93,1.59,2.28,1.59,4.06v6.54h1.39v3.27h-2.33ZM99.55,536.14c.7,0,1.3-.15,1.81-.45.5-.3.75-.79.75-1.47v-1.75h-2.05c-1.65,0-2.47.55-2.47,1.66v.42c0,.54.17.94.51,1.2.34.25.82.38,1.45.38Z"/>
    <path class="cls-6" d="M109.38,538.73v-14.92h4.21v3.24h.14c.08-.42.21-.82.4-1.21.19-.39.44-.73.75-1.04.31-.3.69-.54,1.12-.73.44-.18.95-.27,1.54-.27h.74v3.92h-1.05c-1.23,0-2.15.16-2.74.48-.6.32-.9.92-.9,1.79v8.73h-4.21Z"/>
    <path class="cls-6" d="M121.83,522.21c-.85,0-1.47-.19-1.86-.58-.39-.39-.58-.89-.58-1.49v-.63c0-.61.19-1.1.58-1.49.39-.39,1.01-.58,1.86-.58s1.47.2,1.86.58c.39.39.58.89.58,1.49v.63c0,.61-.19,1.1-.58,1.49-.39.39-1.01.58-1.86.58ZM119.73,523.8h4.21v14.92h-4.21v-14.92Z"/>
    <path class="cls-6" d="M127.46,527.07h-2.1v-3.27h2.1v-1.76c0-1.44.38-2.53,1.14-3.25s1.87-1.09,3.33-1.09h2.73v3.27h-2.98v2.84h2.98v3.27h-2.98v11.66h-4.21v-11.66Z"/>
    <path class="cls-6" d="M146.87,538.73c-.76,0-1.39-.24-1.89-.71-.5-.47-.82-1.11-.95-1.9h-.17c-.23.97-.73,1.7-1.51,2.2-.78.5-1.73.75-2.87.75-1.5,0-2.64-.4-3.44-1.19-.8-.79-1.19-1.84-1.19-3.15,0-1.57.57-2.73,1.72-3.5,1.15-.76,2.7-1.15,4.68-1.15h2.36v-.94c0-.72-.19-1.29-.57-1.72-.38-.43-1.01-.64-1.9-.64-.83,0-1.5.18-1.99.54-.49.36-.9.77-1.22,1.22l-2.5-2.23c.61-.9,1.37-1.6,2.29-2.1.92-.5,2.17-.76,3.74-.76,2.12,0,3.71.46,4.78,1.39,1.06.93,1.59,2.28,1.59,4.06v6.54h1.39v3.27h-2.33ZM141.05,536.14c.7,0,1.3-.15,1.81-.45.5-.3.75-.79.75-1.47v-1.75h-2.05c-1.65,0-2.47.55-2.47,1.66v.42c0,.54.17.94.51,1.2.34.25.82.38,1.45.38Z"/>
    <path class="cls-6" d="M155.94,539.07c-1.44,0-2.65-.23-3.64-.7-.99-.46-1.87-1.12-2.64-1.98l2.47-2.5c.53.59,1.12,1.05,1.76,1.39.64.34,1.37.51,2.19.51s1.41-.13,1.73-.38.48-.6.48-1.04c0-.7-.5-1.12-1.51-1.25l-1.62-.2c-3.35-.42-5.03-1.95-5.03-4.61,0-.72.14-1.38.41-1.98.27-.6.66-1.11,1.17-1.54.5-.43,1.11-.76,1.82-1,.71-.24,1.51-.35,2.4-.35.78,0,1.46.05,2.06.16.6.1,1.13.26,1.59.45.46.2.89.45,1.28.74.39.29.77.62,1.15.98l-2.42,2.47c-.47-.47-1.01-.85-1.61-1.12-.6-.27-1.21-.41-1.83-.41-.72,0-1.23.11-1.54.34-.3.23-.46.53-.46.91,0,.4.11.71.33.92.22.22.63.37,1.24.47l1.68.23c3.28.44,4.92,1.93,4.92,4.49,0,.72-.15,1.38-.46,1.99s-.73,1.13-1.29,1.58c-.56.45-1.23.79-2.02,1.04-.79.25-1.66.37-2.63.37Z"/>
    <path class="cls-6" d="M175.67,539.07c-1.12,0-2.11-.18-2.98-.55-.87-.37-1.6-.89-2.19-1.56-.59-.67-1.03-1.49-1.34-2.46-.3-.97-.45-2.05-.45-3.24s.15-2.27.45-3.23.75-1.78,1.34-2.46c.59-.68,1.32-1.2,2.19-1.56.87-.36,1.87-.54,2.98-.54,1.52,0,2.78.34,3.79,1.02,1.01.68,1.74,1.64,2.17,2.87l-3.41,1.48c-.13-.57-.41-1.05-.82-1.45-.42-.4-.99-.6-1.73-.6-.85,0-1.5.28-1.93.84-.44.56-.65,1.31-.65,2.26v2.79c0,.95.22,1.7.65,2.25.44.55,1.08.83,1.93.83.76,0,1.36-.2,1.81-.61.44-.41.77-.94.98-1.61l3.27,1.42c-.49,1.42-1.26,2.46-2.29,3.13-1.03.66-2.29,1-3.77,1Z"/>
    <path class="cls-6" d="M189.12,539.07c-1.1,0-2.08-.18-2.94-.54-.86-.36-1.59-.88-2.19-1.56-.6-.68-1.06-1.51-1.38-2.47-.32-.97-.48-2.05-.48-3.24s.16-2.27.48-3.24c.32-.97.78-1.79,1.38-2.46.6-.67,1.33-1.19,2.19-1.55.86-.36,1.84-.54,2.94-.54s2.08.18,2.94.54c.86.36,1.59.88,2.19,1.55.6.67,1.06,1.49,1.38,2.46s.48,2.05.48,3.24-.16,2.27-.48,3.24c-.32.97-.78,1.79-1.38,2.47-.6.68-1.33,1.2-2.19,1.56-.86.36-1.84.54-2.94.54ZM189.12,535.74c.83,0,1.48-.26,1.93-.77.46-.51.68-1.24.68-2.19v-3.04c0-.95-.23-1.68-.68-2.19-.45-.51-1.1-.77-1.93-.77s-1.48.26-1.93.77c-.46.51-.68,1.24-.68,2.19v3.04c0,.95.23,1.68.68,2.19.45.51,1.1.77,1.93.77Z"/>
    <path class="cls-6" d="M197.96,538.73v-14.92h4.21v2.53h.17c.27-.8.72-1.47,1.36-2.03.64-.56,1.53-.84,2.64-.84,1.02,0,1.9.26,2.62.77.72.51,1.24,1.26,1.56,2.25h.08c.13-.42.34-.81.61-1.18.27-.37.61-.69,1.01-.95.4-.27.84-.48,1.34-.64s1.02-.24,1.59-.24c1.44,0,2.54.51,3.31,1.53s1.15,2.48,1.15,4.38v9.35h-4.21v-9.01c0-1.89-.68-2.84-2.05-2.84-.63,0-1.19.18-1.71.54s-.77.91-.77,1.65v9.67h-4.21v-9.01c0-1.89-.68-2.84-2.05-2.84-.3,0-.6.04-.9.13-.29.08-.56.22-.8.41-.24.19-.43.42-.57.7s-.21.59-.21.95v9.67h-4.21Z"/>
    <path class="cls-6" d="M222.23,523.8h4.21v2.5h.14c.21-.83.69-1.52,1.44-2.05s1.61-.8,2.57-.8c1.89,0,3.33.66,4.29,1.99.97,1.33,1.45,3.26,1.45,5.8s-.48,4.48-1.45,5.81-2.4,2-4.29,2c-.49,0-.96-.07-1.39-.21s-.83-.34-1.18-.6-.65-.56-.9-.91c-.25-.35-.43-.72-.54-1.12h-.14v8.19h-4.21v-20.61ZM229.2,535.66c.8,0,1.45-.28,1.98-.84.52-.56.78-1.31.78-2.26v-2.59c0-.95-.26-1.7-.78-2.26-.52-.56-1.18-.84-1.98-.84s-1.45.19-1.98.58c-.52.39-.78.92-.78,1.61v4.41c0,.68.26,1.22.78,1.61.52.39,1.18.58,1.98.58Z"/>
    <path class="cls-6" d="M244.6,539.07c-1.14,0-2.15-.18-3.04-.55-.89-.37-1.64-.89-2.26-1.56-.62-.67-1.08-1.49-1.39-2.46-.31-.97-.47-2.05-.47-3.24s.15-2.24.46-3.2c.3-.96.75-1.78,1.35-2.46.6-.68,1.33-1.21,2.2-1.58.87-.37,1.87-.55,2.99-.55,1.23,0,2.29.21,3.17.62.88.42,1.6.98,2.16,1.68.56.7.97,1.51,1.22,2.43.26.92.38,1.88.38,2.89v1.25h-9.58v.23c0,.98.26,1.75.8,2.33.53.57,1.36.86,2.5.86.87,0,1.58-.17,2.13-.52.55-.35,1.06-.77,1.54-1.25l2.1,2.62c-.66.78-1.53,1.39-2.6,1.82-1.07.44-2.29.66-3.65.66ZM244.52,526.56c-.85,0-1.52.28-2,.84-.48.56-.72,1.3-.72,2.23v.23h5.23v-.26c0-.91-.2-1.64-.61-2.2-.41-.56-1.04-.84-1.89-.84Z"/>
    <path class="cls-6" d="M258.45,538.73c-1.46,0-2.56-.37-3.31-1.11-.75-.74-1.12-1.82-1.12-3.24v-7.31h-2.1v-3.27h1.05c.57,0,.96-.14,1.17-.41.21-.27.31-.67.31-1.18v-2.45h3.78v4.04h2.96v3.27h-2.96v8.39h2.73v3.27h-2.5Z"/>
    <path class="cls-6" d="M265.07,522.21c-.85,0-1.47-.19-1.86-.58-.39-.39-.58-.89-.58-1.49v-.63c0-.61.19-1.1.58-1.49s1.01-.58,1.86-.58,1.47.2,1.86.58c.39.39.58.89.58,1.49v.63c0,.61-.19,1.1-.58,1.49s-1.01.58-1.86.58ZM262.97,523.8h4.21v14.92h-4.21v-14.92Z"/>
    <path class="cls-6" d="M275.19,538.73c-1.46,0-2.56-.37-3.31-1.11-.75-.74-1.12-1.82-1.12-3.24v-7.31h-2.1v-3.27h1.05c.57,0,.96-.14,1.17-.41.21-.27.31-.67.31-1.18v-2.45h3.78v4.04h2.96v3.27h-2.96v8.39h2.73v3.27h-2.5Z"/>
    <path class="cls-6" d="M281.81,522.21c-.85,0-1.47-.19-1.86-.58-.39-.39-.58-.89-.58-1.49v-.63c0-.61.19-1.1.58-1.49s1.01-.58,1.86-.58,1.47.2,1.86.58c.39.39.58.89.58,1.49v.63c0,.61-.19,1.1-.58,1.49s-1.01.58-1.86.58ZM279.71,523.8h4.21v14.92h-4.21v-14.92Z"/>
    <path class="cls-6" d="M289.89,538.73l-4.89-14.92h4.15l1.85,6.03,1.39,5.4h.23l1.39-5.4,1.79-6.03h3.98l-4.89,14.92h-5Z"/>
    <path class="cls-6" d="M311.63,538.73c-.76,0-1.39-.24-1.89-.71-.5-.47-.82-1.11-.95-1.9h-.17c-.23.97-.73,1.7-1.51,2.2s-1.73.75-2.87.75c-1.5,0-2.64-.4-3.44-1.19s-1.19-1.84-1.19-3.15c0-1.57.57-2.73,1.72-3.5,1.15-.76,2.71-1.15,4.68-1.15h2.36v-.94c0-.72-.19-1.29-.57-1.72-.38-.43-1.01-.64-1.9-.64-.83,0-1.5.18-1.99.54-.49.36-.9.77-1.22,1.22l-2.5-2.23c.61-.9,1.37-1.6,2.29-2.1.92-.5,2.17-.76,3.74-.76,2.12,0,3.71.46,4.78,1.39s1.59,2.28,1.59,4.06v6.54h1.39v3.27h-2.33ZM305.81,536.14c.7,0,1.3-.15,1.81-.45.5-.3.75-.79.75-1.47v-1.75h-2.05c-1.65,0-2.47.55-2.47,1.66v.42c0,.54.17.94.51,1.2s.82.38,1.45.38Z"/>
    <path class="cls-6" d="M320.7,539.07c-1.44,0-2.65-.23-3.64-.7s-1.87-1.12-2.64-1.98l2.47-2.5c.53.59,1.12,1.05,1.76,1.39s1.37.51,2.19.51,1.41-.13,1.73-.38.48-.6.48-1.04c0-.7-.5-1.12-1.51-1.25l-1.62-.2c-3.35-.42-5.03-1.95-5.03-4.61,0-.72.14-1.38.41-1.98.27-.6.66-1.11,1.17-1.54.5-.43,1.11-.76,1.82-1,.71-.24,1.51-.35,2.4-.35.78,0,1.46.05,2.06.16.6.1,1.13.26,1.59.45.46.2.89.45,1.28.74.39.29.77.62,1.15.98l-2.42,2.47c-.47-.47-1.01-.85-1.61-1.12-.6-.27-1.21-.41-1.83-.41-.72,0-1.23.11-1.54.34-.3.23-.46.53-.46.91,0,.4.11.71.33.92s.63.37,1.24.47l1.68.23c3.28.44,4.92,1.93,4.92,4.49,0,.72-.15,1.38-.45,1.99-.3.61-.74,1.13-1.29,1.58-.56.45-1.23.79-2.02,1.04-.79.25-1.66.37-2.63.37Z"/>
    <path class="cls-6" d="M135.48,568.99c-.76,0-1.39-.24-1.89-.71-.5-.47-.82-1.11-.95-1.9h-.17c-.23.97-.73,1.7-1.51,2.2-.78.5-1.73.75-2.87.75-1.5,0-2.64-.4-3.44-1.19-.8-.79-1.19-1.84-1.19-3.15,0-1.57.57-2.73,1.72-3.5,1.15-.76,2.7-1.15,4.68-1.15h2.36v-.94c0-.72-.19-1.29-.57-1.72-.38-.43-1.01-.64-1.9-.64-.83,0-1.5.18-1.99.54-.49.36-.9.77-1.22,1.22l-2.5-2.23c.61-.9,1.37-1.6,2.29-2.1.92-.5,2.17-.76,3.74-.76,2.12,0,3.71.46,4.78,1.39,1.06.93,1.59,2.28,1.59,4.06v6.54h1.39v3.27h-2.33ZM129.65,566.41c.7,0,1.3-.15,1.81-.45.5-.3.75-.79.75-1.47v-1.75h-2.05c-1.65,0-2.47.55-2.47,1.66v.42c0,.54.17.94.51,1.2.34.25.82.38,1.45.38Z"/>
    <path class="cls-6" d="M145.06,568.99v-14.92h4.21v2.53h.17c.27-.78.73-1.45,1.39-2.02.66-.57,1.58-.85,2.76-.85,1.54,0,2.7.51,3.48,1.53.79,1.02,1.18,2.48,1.18,4.38v9.35h-4.21v-9.01c0-.97-.15-1.68-.46-2.15s-.84-.7-1.62-.7c-.34,0-.67.04-1,.13-.32.08-.61.22-.87.41s-.46.42-.61.7c-.15.27-.23.59-.23.95v9.67h-4.21Z"/>
    <path class="cls-6" d="M162.96,552.48c-.85,0-1.47-.19-1.86-.58-.39-.39-.58-.89-.58-1.49v-.63c0-.61.19-1.1.58-1.49.39-.39,1.01-.58,1.86-.58s1.47.2,1.86.58c.39.39.58.89.58,1.49v.63c0,.61-.19,1.1-.58,1.49-.39.39-1.01.58-1.86.58ZM160.86,554.07h4.21v14.92h-4.21v-14.92Z"/>
    <path class="cls-6" d="M171.04,568.99l-4.89-14.92h4.15l1.85,6.03,1.39,5.4h.23l1.39-5.4,1.79-6.03h3.98l-4.89,14.92h-5Z"/>
    <path class="cls-6" d="M188.01,569.33c-1.14,0-2.15-.18-3.04-.55-.89-.37-1.64-.89-2.26-1.56-.62-.67-1.08-1.49-1.39-2.46-.31-.97-.47-2.05-.47-3.24s.15-2.24.45-3.2.75-1.78,1.35-2.46c.6-.68,1.33-1.21,2.2-1.58.87-.37,1.87-.55,2.98-.55,1.23,0,2.29.21,3.17.62.88.42,1.6.98,2.16,1.68.56.7.97,1.51,1.22,2.43.26.92.38,1.88.38,2.89v1.25h-9.58v.23c0,.98.27,1.75.8,2.33.53.57,1.36.86,2.5.86.87,0,1.58-.17,2.13-.52.55-.35,1.06-.77,1.54-1.25l2.1,2.62c-.66.78-1.53,1.39-2.6,1.82-1.07.44-2.29.66-3.65.66ZM187.92,556.83c-.85,0-1.52.28-2,.84-.48.56-.73,1.3-.73,2.23v.23h5.23v-.26c0-.91-.2-1.64-.61-2.2-.41-.56-1.04-.84-1.89-.84Z"/>
    <path class="cls-6" d="M200.8,568.99c-1.44,0-2.5-.35-3.17-1.05-.67-.7-1.01-1.71-1.01-3.04v-16.94h4.21v17.77h1.88v3.27h-1.9Z"/>
    <path class="cls-6" d="M223.48,570.07c0,.8-.14,1.5-.41,2.1s-.72,1.12-1.35,1.55c-.63.43-1.46.75-2.49.97-1.03.22-2.31.33-3.82.33-1.29,0-2.38-.08-3.28-.24-.9-.16-1.63-.39-2.19-.68-.56-.29-.97-.65-1.22-1.08s-.38-.92-.38-1.46c0-.83.25-1.49.74-1.96s1.17-.77,2.05-.88v-.31c-.72-.13-1.26-.44-1.62-.93-.36-.48-.54-1.05-.54-1.69,0-.4.08-.75.24-1.04s.37-.55.63-.77c.26-.22.55-.39.9-.53.34-.13.68-.24,1.02-.31v-.11c-.91-.42-1.58-.99-2.02-1.72-.44-.73-.65-1.58-.65-2.54,0-1.51.53-2.73,1.58-3.65,1.05-.92,2.66-1.38,4.82-1.38.99,0,1.83.09,2.53.28v-.57c0-.8.19-1.37.58-1.72.39-.35.94-.53,1.66-.53h2.36v3.13h-3.3v.17c.87.42,1.52.99,1.93,1.72.42.73.62,1.58.62,2.54,0,1.5-.53,2.7-1.58,3.6-1.05.9-2.66,1.35-4.82,1.35-.97,0-1.85-.1-2.64-.31-.44.28-.65.68-.65,1.19,0,.36.14.64.41.84s.73.3,1.38.3h4.32c1.82,0,3.14.38,3.96,1.14s1.24,1.83,1.24,3.21ZM219.53,570.64c0-.44-.17-.77-.51-.99-.34-.23-.94-.34-1.79-.34h-5.12c-.19.19-.33.4-.41.64-.09.24-.13.47-.13.7,0,.55.24.95.71,1.21.47.26,1.28.38,2.42.38h1.71c1.14,0,1.94-.13,2.42-.38.47-.26.71-.66.71-1.21ZM215.47,560.92c.83,0,1.45-.17,1.86-.52.41-.35.61-.85.61-1.51v-.34c0-.66-.2-1.16-.61-1.51-.41-.35-1.03-.52-1.86-.52s-1.46.17-1.86.52c-.41.35-.61.85-.61,1.51v.34c0,.66.2,1.16.61,1.51.41.35,1.03.52,1.86.52Z"/>
    <path class="cls-6" d="M228.4,568.99c-1.44,0-2.5-.35-3.17-1.05-.67-.7-1.01-1.71-1.01-3.04v-16.94h4.21v17.77h1.88v3.27h-1.9Z"/>
    <path class="cls-6" d="M237.75,569.33c-1.1,0-2.08-.18-2.94-.54-.86-.36-1.59-.88-2.19-1.56-.6-.68-1.06-1.51-1.38-2.47-.32-.97-.48-2.05-.48-3.24s.16-2.27.48-3.24.78-1.79,1.38-2.46c.6-.67,1.33-1.19,2.19-1.55.86-.36,1.84-.54,2.94-.54s2.08.18,2.94.54c.86.36,1.59.88,2.19,1.55s1.06,1.49,1.38,2.46c.32.97.48,2.05.48,3.24s-.16,2.27-.48,3.24c-.32.97-.78,1.79-1.38,2.47-.6.68-1.33,1.2-2.19,1.56-.86.36-1.84.54-2.94.54ZM237.75,566.01c.83,0,1.48-.26,1.93-.77s.68-1.24.68-2.19v-3.04c0-.95-.23-1.68-.68-2.19s-1.1-.77-1.93-.77-1.48.26-1.93.77c-.45.51-.68,1.24-.68,2.19v3.04c0,.95.23,1.68.68,2.19.46.51,1.1.77,1.93.77Z"/>
    <path class="cls-6" d="M246.59,547.96h4.21v8.61h.14c.21-.83.69-1.52,1.44-2.05s1.61-.8,2.57-.8c1.89,0,3.33.66,4.29,1.99.97,1.33,1.45,3.26,1.45,5.8s-.48,4.48-1.45,5.81-2.4,2-4.29,2c-.49,0-.96-.07-1.39-.21s-.83-.34-1.18-.6-.65-.56-.9-.91c-.25-.35-.43-.72-.54-1.12h-.14v2.5h-4.21v-21.04ZM253.56,565.92c.8,0,1.45-.28,1.98-.84.52-.56.78-1.31.78-2.26v-2.59c0-.95-.26-1.7-.78-2.26-.52-.56-1.18-.84-1.98-.84s-1.45.19-1.98.58c-.52.39-.78.92-.78,1.61v4.41c0,.68.26,1.22.78,1.61.52.39,1.18.58,1.98.58Z"/>
    <path class="cls-6" d="M273.77,568.99c-.76,0-1.39-.24-1.89-.71-.5-.47-.82-1.11-.95-1.9h-.17c-.23.97-.73,1.7-1.51,2.2s-1.73.75-2.87.75c-1.5,0-2.64-.4-3.44-1.19s-1.19-1.84-1.19-3.15c0-1.57.57-2.73,1.72-3.5,1.15-.76,2.71-1.15,4.68-1.15h2.36v-.94c0-.72-.19-1.29-.57-1.72-.38-.43-1.01-.64-1.9-.64-.83,0-1.5.18-1.99.54-.49.36-.9.77-1.22,1.22l-2.5-2.23c.61-.9,1.37-1.6,2.29-2.1.92-.5,2.17-.76,3.74-.76,2.12,0,3.71.46,4.78,1.39s1.59,2.28,1.59,4.06v6.54h1.39v3.27h-2.33ZM267.94,566.41c.7,0,1.3-.15,1.81-.45.5-.3.75-.79.75-1.47v-1.75h-2.05c-1.65,0-2.47.55-2.47,1.66v.42c0,.54.17.94.51,1.2s.82.38,1.45.38Z"/>
    <path class="cls-6" d="M281.96,568.99c-1.44,0-2.5-.35-3.17-1.05-.67-.7-1.01-1.71-1.01-3.04v-16.94h4.21v17.77h1.88v3.27h-1.9Z"/>
  </g>
  <rect class="cls-3" x="2.84" y="647.25" width="409.2" height="125.69" rx="62.85" ry="62.85"/>
  <g>
    <path class="cls-6" d="M130.62,701.27h-.14c-.15,1-.66,1.84-1.54,2.5-.87.66-2.06,1-3.55,1-1.14,0-2.2-.22-3.18-.65-.99-.44-1.85-1.08-2.59-1.93-.74-.85-1.32-1.91-1.73-3.18-.42-1.27-.63-2.74-.63-4.41s.22-3.15.65-4.43c.44-1.29,1.05-2.37,1.83-3.24.79-.87,1.73-1.54,2.83-1.99,1.1-.45,2.32-.68,3.67-.68,1.78,0,3.32.38,4.6,1.15,1.29.77,2.3,1.92,3.04,3.45l-3.52,2.02c-.3-.78-.78-1.44-1.42-1.98-.64-.54-1.54-.81-2.7-.81-1.35,0-2.42.39-3.21,1.17s-1.19,2-1.19,3.67v3.18c0,1.65.4,2.87,1.19,3.65s1.87,1.18,3.21,1.18c.53,0,1.03-.06,1.51-.19.47-.12.89-.31,1.25-.57.36-.26.64-.56.84-.92.2-.36.3-.79.3-1.28v-1h-3.7v-3.61h7.82v11.06h-3.64v-3.16Z"/>
    <path class="cls-6" d="M137.1,704.43v-14.92h4.21v3.24h.14c.08-.42.21-.82.4-1.21.19-.39.44-.73.75-1.04.31-.3.69-.54,1.12-.73.44-.18.95-.27,1.54-.27h.74v3.92h-1.05c-1.23,0-2.15.16-2.74.48-.6.32-.9.92-.9,1.79v8.73h-4.21Z"/>
    <path class="cls-6" d="M158.08,704.43c-.76,0-1.39-.24-1.89-.71-.5-.47-.82-1.11-.95-1.9h-.17c-.23.97-.73,1.7-1.51,2.2-.78.5-1.73.75-2.87.75-1.5,0-2.64-.4-3.44-1.19-.8-.79-1.19-1.84-1.19-3.15,0-1.57.57-2.73,1.72-3.5,1.15-.76,2.7-1.15,4.68-1.15h2.36v-.94c0-.72-.19-1.29-.57-1.72-.38-.43-1.01-.64-1.9-.64-.83,0-1.5.18-1.99.54-.49.36-.9.77-1.22,1.22l-2.5-2.23c.61-.9,1.37-1.6,2.29-2.1.92-.5,2.17-.76,3.74-.76,2.12,0,3.71.46,4.78,1.39,1.06.93,1.59,2.28,1.59,4.06v6.54h1.39v3.27h-2.33ZM152.25,701.84c.7,0,1.3-.15,1.81-.45.5-.3.75-.79.75-1.47v-1.75h-2.05c-1.65,0-2.47.55-2.47,1.66v.42c0,.54.17.94.51,1.2.34.25.82.38,1.45.38Z"/>
    <path class="cls-6" d="M162.08,704.43v-14.92h4.21v2.53h.17c.27-.78.73-1.45,1.39-2.02.66-.57,1.58-.85,2.76-.85,1.54,0,2.7.51,3.48,1.53.79,1.02,1.18,2.48,1.18,4.38v9.35h-4.21v-9.01c0-.97-.15-1.68-.46-2.15s-.84-.7-1.62-.7c-.34,0-.67.04-1,.13-.32.08-.61.22-.87.41s-.46.42-.61.7c-.15.27-.23.59-.23.95v9.67h-4.21Z"/>
    <path class="cls-6" d="M186.64,704.43l-4.89-14.92h4.15l1.85,6.03,1.39,5.4h.23l1.39-5.4,1.79-6.03h3.98l-4.89,14.92h-5Z"/>
    <path class="cls-6" d="M208.39,704.43c-.76,0-1.39-.24-1.89-.71-.5-.47-.82-1.11-.95-1.9h-.17c-.23.97-.73,1.7-1.51,2.2-.78.5-1.73.75-2.87.75-1.5,0-2.64-.4-3.44-1.19-.8-.79-1.19-1.84-1.19-3.15,0-1.57.57-2.73,1.72-3.5,1.15-.76,2.7-1.15,4.68-1.15h2.36v-.94c0-.72-.19-1.29-.57-1.72-.38-.43-1.01-.64-1.9-.64-.83,0-1.5.18-1.99.54-.49.36-.9.77-1.22,1.22l-2.5-2.23c.61-.9,1.37-1.6,2.29-2.1.92-.5,2.17-.76,3.74-.76,2.12,0,3.71.46,4.78,1.39,1.06.93,1.59,2.28,1.59,4.06v6.54h1.39v3.27h-2.33ZM202.56,701.84c.7,0,1.3-.15,1.81-.45.5-.3.75-.79.75-1.47v-1.75h-2.05c-1.65,0-2.47.55-2.47,1.66v.42c0,.54.17.94.51,1.2.34.25.82.38,1.45.38Z"/>
    <path class="cls-6" d="M212.4,704.43v-14.92h4.21v3.24h.14c.08-.42.21-.82.4-1.21.19-.39.44-.73.75-1.04.31-.3.69-.54,1.12-.73.44-.18.95-.27,1.54-.27h.74v3.92h-1.05c-1.23,0-2.15.16-2.74.48-.6.32-.9.92-.9,1.79v8.73h-4.21Z"/>
    <path class="cls-6" d="M224.85,687.91c-.85,0-1.47-.19-1.86-.58-.39-.39-.58-.89-.58-1.49v-.63c0-.61.19-1.1.58-1.49s1.01-.58,1.86-.58,1.47.2,1.86.58c.39.39.58.89.58,1.49v.63c0,.61-.19,1.1-.58,1.49s-1.01.58-1.86.58ZM222.75,689.5h4.21v14.92h-4.21v-14.92Z"/>
    <path class="cls-6" d="M235.96,704.77c-1.14,0-2.15-.18-3.04-.55-.89-.37-1.64-.89-2.26-1.56-.62-.67-1.08-1.49-1.39-2.46-.31-.97-.47-2.05-.47-3.24s.15-2.24.46-3.2c.3-.96.75-1.78,1.35-2.46.6-.68,1.33-1.21,2.2-1.58.87-.37,1.87-.55,2.99-.55,1.23,0,2.29.21,3.17.62.88.42,1.6.98,2.16,1.68.56.7.97,1.51,1.22,2.43.26.92.38,1.88.38,2.89v1.25h-9.58v.23c0,.98.26,1.75.8,2.33.53.57,1.36.86,2.5.86.87,0,1.58-.17,2.13-.52.55-.35,1.06-.77,1.54-1.25l2.1,2.62c-.66.78-1.53,1.39-2.6,1.82-1.07.44-2.29.66-3.65.66ZM235.88,692.26c-.85,0-1.52.28-2,.84-.48.56-.72,1.3-.72,2.23v.23h5.23v-.26c0-.91-.2-1.64-.61-2.2-.41-.56-1.04-.84-1.89-.84Z"/>
    <path class="cls-6" d="M253.73,701.92h-.14c-.11.4-.29.77-.54,1.12-.25.35-.54.65-.9.91s-.75.45-1.19.6-.9.21-1.38.21c-1.9,0-3.33-.67-4.29-2-.97-1.34-1.45-3.27-1.45-5.81s.48-4.47,1.45-5.8c.97-1.33,2.4-1.99,4.29-1.99.97,0,1.82.27,2.57.8.75.53,1.23,1.21,1.44,2.05h.14v-8.61h4.21v21.04h-4.21v-2.5ZM250.97,701.35c.8,0,1.45-.19,1.98-.58.52-.39.78-.92.78-1.61v-4.41c0-.68-.26-1.22-.78-1.61-.52-.39-1.18-.58-1.98-.58s-1.46.28-1.98.84c-.52.56-.78,1.31-.78,2.26v2.59c0,.95.26,1.7.78,2.26.52.56,1.18.84,1.98.84Z"/>
    <path class="cls-6" d="M271.75,704.43c-.76,0-1.39-.24-1.89-.71-.5-.47-.82-1.11-.95-1.9h-.17c-.23.97-.73,1.7-1.51,2.2s-1.73.75-2.87.75c-1.5,0-2.64-.4-3.44-1.19s-1.19-1.84-1.19-3.15c0-1.57.57-2.73,1.72-3.5,1.15-.76,2.71-1.15,4.68-1.15h2.36v-.94c0-.72-.19-1.29-.57-1.72-.38-.43-1.01-.64-1.9-.64-.83,0-1.5.18-1.99.54-.49.36-.9.77-1.22,1.22l-2.5-2.23c.61-.9,1.37-1.6,2.29-2.1.92-.5,2.17-.76,3.74-.76,2.12,0,3.71.46,4.78,1.39s1.59,2.28,1.59,4.06v6.54h1.39v3.27h-2.33ZM265.92,701.84c.7,0,1.3-.15,1.81-.45.5-.3.75-.79.75-1.47v-1.75h-2.05c-1.65,0-2.47.55-2.47,1.66v.42c0,.54.17.94.51,1.2s.82.38,1.45.38Z"/>
    <path class="cls-6" d="M284.91,701.92h-.14c-.11.4-.29.77-.54,1.12-.25.35-.54.65-.9.91s-.75.45-1.19.6-.9.21-1.38.21c-1.9,0-3.33-.67-4.29-2-.97-1.34-1.45-3.27-1.45-5.81s.48-4.47,1.45-5.8c.97-1.33,2.4-1.99,4.29-1.99.97,0,1.82.27,2.57.8.75.53,1.23,1.21,1.44,2.05h.14v-8.61h4.21v21.04h-4.21v-2.5ZM282.16,701.35c.8,0,1.45-.19,1.98-.58.52-.39.78-.92.78-1.61v-4.41c0-.68-.26-1.22-.78-1.61-.52-.39-1.18-.58-1.98-.58s-1.46.28-1.98.84c-.52.56-.78,1.31-.78,2.26v2.59c0,.95.26,1.7.78,2.26.52.56,1.18.84,1.98.84Z"/>
    <path class="cls-6" d="M125.29,732.19h-.14c-.11.4-.29.77-.54,1.12-.25.35-.54.65-.9.91-.35.26-.75.45-1.19.6-.45.14-.91.21-1.38.21-1.9,0-3.33-.67-4.29-2-.97-1.34-1.45-3.27-1.45-5.81s.48-4.47,1.45-5.8c.97-1.33,2.4-1.99,4.29-1.99.97,0,1.82.27,2.57.8.75.53,1.23,1.21,1.44,2.05h.14v-8.61h4.21v21.04h-4.21v-2.5ZM122.53,731.62c.8,0,1.45-.19,1.98-.58.52-.39.78-.92.78-1.61v-4.41c0-.68-.26-1.22-.78-1.61-.52-.39-1.18-.58-1.98-.58s-1.45.28-1.98.84c-.52.56-.78,1.31-.78,2.26v2.59c0,.95.26,1.7.78,2.26.52.56,1.18.84,1.98.84Z"/>
    <path class="cls-6" d="M138.5,735.03c-1.14,0-2.15-.18-3.04-.55-.89-.37-1.64-.89-2.26-1.56-.62-.67-1.08-1.49-1.39-2.46-.31-.97-.47-2.05-.47-3.24s.15-2.24.45-3.2.75-1.78,1.35-2.46c.6-.68,1.33-1.21,2.2-1.58.87-.37,1.87-.55,2.98-.55,1.23,0,2.29.21,3.17.62.88.42,1.6.98,2.16,1.68.56.7.97,1.51,1.22,2.43.26.92.38,1.88.38,2.89v1.25h-9.58v.23c0,.98.27,1.75.8,2.33.53.57,1.36.86,2.5.86.87,0,1.58-.17,2.13-.52.55-.35,1.06-.77,1.54-1.25l2.1,2.62c-.66.78-1.53,1.39-2.6,1.82-1.07.44-2.29.66-3.65.66ZM138.42,722.52c-.85,0-1.52.28-2,.84-.48.56-.73,1.3-.73,2.23v.23h5.23v-.26c0-.91-.2-1.64-.61-2.2-.41-.56-1.04-.84-1.89-.84Z"/>
    <path class="cls-6" d="M157.92,734.69c-1.46,0-2.56-.37-3.31-1.11-.75-.74-1.12-1.82-1.12-3.24v-7.31h-2.1v-3.27h1.05c.57,0,.96-.14,1.17-.41.21-.27.31-.67.31-1.18v-2.45h3.78v4.04h2.96v3.27h-2.96v8.39h2.73v3.27h-2.5Z"/>
    <path class="cls-6" d="M168.55,735.03c-1.14,0-2.15-.18-3.04-.55-.89-.37-1.64-.89-2.26-1.56-.62-.67-1.08-1.49-1.39-2.46-.31-.97-.47-2.05-.47-3.24s.15-2.24.45-3.2.75-1.78,1.35-2.46c.6-.68,1.33-1.21,2.2-1.58.87-.37,1.87-.55,2.98-.55,1.23,0,2.29.21,3.17.62.88.42,1.6.98,2.16,1.68.56.7.97,1.51,1.22,2.43.26.92.38,1.88.38,2.89v1.25h-9.58v.23c0,.98.27,1.75.8,2.33.53.57,1.36.86,2.5.86.87,0,1.58-.17,2.13-.52.55-.35,1.06-.77,1.54-1.25l2.1,2.62c-.66.78-1.53,1.39-2.6,1.82-1.07.44-2.29.66-3.65.66ZM168.46,722.52c-.85,0-1.52.28-2,.84-.48.56-.73,1.3-.73,2.23v.23h5.23v-.26c0-.91-.2-1.64-.61-2.2-.41-.56-1.04-.84-1.89-.84Z"/>
    <path class="cls-6" d="M183.19,735.03c-1.12,0-2.11-.18-2.98-.55-.87-.37-1.6-.89-2.19-1.56-.59-.67-1.03-1.49-1.34-2.46-.3-.97-.45-2.05-.45-3.24s.15-2.27.45-3.23.75-1.78,1.34-2.46c.59-.68,1.32-1.2,2.19-1.56.87-.36,1.87-.54,2.98-.54,1.52,0,2.78.34,3.79,1.02,1.01.68,1.74,1.64,2.17,2.87l-3.41,1.48c-.13-.57-.41-1.05-.82-1.45-.42-.4-.99-.6-1.73-.6-.85,0-1.5.28-1.93.84-.44.56-.65,1.31-.65,2.26v2.79c0,.95.22,1.7.65,2.25.44.55,1.08.83,1.93.83.76,0,1.36-.2,1.81-.61.44-.41.77-.94.98-1.61l3.27,1.42c-.49,1.42-1.26,2.46-2.29,3.13-1.03.66-2.29,1-3.77,1Z"/>
    <path class="cls-6" d="M190.72,734.69v-14.92h4.21v2.53h.17c.27-.78.73-1.45,1.39-2.02.66-.57,1.58-.85,2.76-.85,1.54,0,2.7.51,3.48,1.53.79,1.02,1.18,2.48,1.18,4.38v9.35h-4.21v-9.01c0-.97-.15-1.68-.46-2.15s-.84-.7-1.62-.7c-.34,0-.67.04-1,.13-.32.08-.61.22-.87.41s-.46.42-.61.7c-.15.27-.23.59-.23.95v9.67h-4.21Z"/>
    <path class="cls-6" d="M212.58,735.03c-1.1,0-2.08-.18-2.94-.54-.86-.36-1.59-.88-2.19-1.56-.6-.68-1.06-1.51-1.38-2.47-.32-.97-.48-2.05-.48-3.24s.16-2.27.48-3.24c.32-.97.78-1.79,1.38-2.46.6-.67,1.33-1.19,2.19-1.55.86-.36,1.84-.54,2.94-.54s2.08.18,2.94.54c.86.36,1.59.88,2.19,1.55.6.67,1.05,1.49,1.38,2.46.32.97.48,2.05.48,3.24s-.16,2.27-.48,3.24c-.32.97-.78,1.79-1.38,2.47-.6.68-1.33,1.2-2.19,1.56-.86.36-1.84.54-2.94.54ZM212.58,731.71c.83,0,1.48-.26,1.93-.77s.68-1.24.68-2.19v-3.04c0-.95-.23-1.68-.68-2.19s-1.1-.77-1.93-.77-1.48.26-1.93.77-.68,1.24-.68,2.19v3.04c0,.95.23,1.68.68,2.19s1.1.77,1.93.77Z"/>
    <path class="cls-6" d="M225.6,734.69c-1.44,0-2.5-.35-3.17-1.05-.67-.7-1.01-1.71-1.01-3.04v-16.94h4.21v17.77h1.88v3.27h-1.9Z"/>
    <path class="cls-6" d="M234.95,735.03c-1.1,0-2.08-.18-2.94-.54-.86-.36-1.59-.88-2.19-1.56-.6-.68-1.06-1.51-1.38-2.47-.32-.97-.48-2.05-.48-3.24s.16-2.27.48-3.24.78-1.79,1.38-2.46c.6-.67,1.33-1.19,2.19-1.55.86-.36,1.84-.54,2.94-.54s2.08.18,2.94.54c.86.36,1.59.88,2.19,1.55s1.06,1.49,1.38,2.46c.32.97.48,2.05.48,3.24s-.16,2.27-.48,3.24c-.32.97-.78,1.79-1.38,2.47-.6.68-1.33,1.2-2.19,1.56-.86.36-1.84.54-2.94.54ZM234.95,731.71c.83,0,1.48-.26,1.93-.77s.68-1.24.68-2.19v-3.04c0-.95-.23-1.68-.68-2.19s-1.1-.77-1.93-.77-1.48.26-1.93.77c-.45.51-.68,1.24-.68,2.19v3.04c0,.95.23,1.68.68,2.19.46.51,1.1.77,1.93.77Z"/>
    <path class="cls-6" d="M257.61,735.77c0,.8-.14,1.5-.41,2.1s-.72,1.12-1.35,1.55c-.63.43-1.46.75-2.49.97-1.03.22-2.31.33-3.82.33-1.29,0-2.38-.08-3.28-.24-.9-.16-1.63-.39-2.19-.68-.56-.29-.97-.65-1.22-1.08s-.38-.92-.38-1.46c0-.83.25-1.49.74-1.96s1.17-.77,2.05-.88v-.31c-.72-.13-1.26-.44-1.62-.93-.36-.48-.54-1.05-.54-1.69,0-.4.08-.75.24-1.04s.37-.55.63-.77c.26-.22.55-.39.9-.53.34-.13.68-.24,1.02-.31v-.11c-.91-.42-1.58-.99-2.02-1.72-.44-.73-.65-1.58-.65-2.54,0-1.51.53-2.73,1.58-3.65,1.05-.92,2.66-1.38,4.82-1.38.99,0,1.83.09,2.53.28v-.57c0-.8.19-1.37.58-1.72.39-.35.94-.53,1.66-.53h2.36v3.13h-3.3v.17c.87.42,1.52.99,1.93,1.72.42.73.62,1.58.62,2.54,0,1.5-.53,2.7-1.58,3.6-1.05.9-2.66,1.35-4.82,1.35-.97,0-1.85-.1-2.64-.31-.44.28-.65.68-.65,1.19,0,.36.14.64.41.84s.73.3,1.38.3h4.32c1.82,0,3.14.38,3.96,1.14s1.24,1.83,1.24,3.21ZM253.66,736.34c0-.44-.17-.77-.51-.99-.34-.23-.94-.34-1.79-.34h-5.12c-.19.19-.33.4-.41.64-.09.24-.13.47-.13.7,0,.55.24.95.71,1.21.47.26,1.28.38,2.42.38h1.71c1.14,0,1.94-.13,2.42-.38.47-.26.71-.66.71-1.21ZM249.59,726.62c.83,0,1.45-.17,1.86-.52.41-.35.61-.85.61-1.51v-.34c0-.66-.2-1.16-.61-1.51-.41-.35-1.03-.52-1.86-.52s-1.46.17-1.86.52c-.41.35-.61.85-.61,1.51v.34c0,.66.2,1.16.61,1.51.41.35,1.03.52,1.86.52Z"/>
    <path class="cls-6" d="M258.35,734.69v-14.92h4.21v14.92h-4.21ZM260.93,718.23l-2.5-1.22,2.81-5.51,3.5,1.73-3.81,5Z"/>
    <path class="cls-6" d="M276.37,734.69c-.76,0-1.39-.24-1.89-.71-.5-.47-.82-1.11-.95-1.9h-.17c-.23.97-.73,1.7-1.51,2.2s-1.73.75-2.87.75c-1.5,0-2.64-.4-3.44-1.19s-1.19-1.84-1.19-3.15c0-1.57.57-2.73,1.72-3.5,1.15-.76,2.71-1.15,4.68-1.15h2.36v-.94c0-.72-.19-1.29-.57-1.72-.38-.43-1.01-.64-1.9-.64-.83,0-1.5.18-1.99.54-.49.36-.9.77-1.22,1.22l-2.5-2.23c.61-.9,1.37-1.6,2.29-2.1.92-.5,2.17-.76,3.74-.76,2.12,0,3.71.46,4.78,1.39s1.59,2.28,1.59,4.06v6.54h1.39v3.27h-2.33ZM270.54,732.1c.7,0,1.3-.15,1.81-.45.5-.3.75-.79.75-1.47v-1.75h-2.05c-1.65,0-2.47.55-2.47,1.66v.42c0,.54.17.94.51,1.2s.82.38,1.45.38Z"/>
    <path class="cls-6" d="M285.44,735.03c-1.44,0-2.65-.23-3.64-.7s-1.87-1.12-2.64-1.98l2.47-2.5c.53.59,1.12,1.05,1.76,1.39s1.37.51,2.19.51,1.41-.13,1.73-.38.48-.6.48-1.04c0-.7-.5-1.12-1.51-1.25l-1.62-.2c-3.35-.42-5.03-1.95-5.03-4.61,0-.72.14-1.38.41-1.98.27-.6.66-1.11,1.17-1.54.5-.43,1.11-.76,1.82-1,.71-.24,1.51-.35,2.4-.35.78,0,1.46.05,2.06.16.6.1,1.13.26,1.59.45.46.2.89.45,1.28.74.39.29.77.62,1.15.98l-2.42,2.47c-.47-.47-1.01-.85-1.61-1.12-.6-.27-1.21-.41-1.83-.41-.72,0-1.23.11-1.54.34-.3.23-.46.53-.46.91,0,.4.11.71.33.92s.63.37,1.24.47l1.68.23c3.28.44,4.92,1.93,4.92,4.49,0,.72-.15,1.38-.45,1.99-.3.61-.74,1.13-1.29,1.58-.56.45-1.23.79-2.02,1.04-.79.25-1.66.37-2.63.37Z"/>
  </g>
  <rect class="cls-3" x="2.84" y="315.93" width="409.2" height="125.69" rx="62.85" ry="62.85"/>
  <g>
    <path class="cls-6" d="M57.66,373.11v-19.84h13.5v3.84h-9.18v4.04h7.87v3.84h-7.87v4.29h9.18v3.84h-13.5Z"/>
    <path class="cls-6" d="M82.42,370.61h-.14c-.11.4-.29.77-.54,1.12-.25.35-.54.65-.9.91-.35.26-.75.46-1.19.6-.45.14-.91.21-1.38.21-1.9,0-3.33-.67-4.29-2-.97-1.34-1.45-3.27-1.45-5.81s.48-4.47,1.45-5.8c.97-1.33,2.4-1.99,4.29-1.99.97,0,1.82.27,2.57.8.75.53,1.23,1.21,1.44,2.05h.14v-2.5h4.21v20.61h-4.21v-8.19ZM79.66,370.04c.8,0,1.45-.19,1.98-.58.52-.39.78-.92.78-1.61v-4.41c0-.68-.26-1.22-.78-1.61-.52-.39-1.18-.58-1.98-.58s-1.45.28-1.98.84c-.52.56-.78,1.31-.78,2.26v2.59c0,.95.26,1.7.78,2.26.52.56,1.18.84,1.98.84Z"/>
    <path class="cls-6" d="M98.22,370.61h-.14c-.13.38-.31.74-.53,1.08s-.5.64-.84.91c-.34.27-.74.47-1.21.63-.46.15-1,.23-1.61.23-1.53,0-2.7-.51-3.48-1.52-.79-1.01-1.18-2.47-1.18-4.36v-9.38h4.21v9.01c0,.91.16,1.61.48,2.1.32.49.87.74,1.65.74.32,0,.64-.05.97-.14.32-.09.61-.23.85-.41.25-.18.45-.4.6-.67.15-.27.23-.58.23-.94v-9.69h4.21v14.92h-4.21v-2.5Z"/>
    <path class="cls-6" d="M107.32,356.59c-.85,0-1.47-.19-1.86-.58-.39-.39-.58-.89-.58-1.49v-.63c0-.61.19-1.1.58-1.49s1.01-.58,1.86-.58,1.47.19,1.86.58c.39.39.58.89.58,1.49v.63c0,.61-.19,1.1-.58,1.49s-1.01.58-1.86.58ZM105.22,358.18h4.21v14.92h-4.21v-14.92Z"/>
    <path class="cls-6" d="M112.21,358.18h4.21v2.5h.14c.21-.83.69-1.52,1.44-2.05.75-.53,1.61-.8,2.57-.8,1.9,0,3.33.66,4.29,1.99.97,1.33,1.45,3.26,1.45,5.8s-.48,4.48-1.45,5.81-2.4,2-4.29,2c-.49,0-.96-.07-1.39-.21s-.83-.34-1.18-.6-.65-.56-.9-.91c-.25-.35-.43-.72-.54-1.12h-.14v8.19h-4.21v-20.61ZM119.17,370.04c.8,0,1.45-.28,1.98-.84.52-.56.78-1.31.78-2.26v-2.59c0-.95-.26-1.7-.78-2.26-.52-.56-1.18-.84-1.98-.84s-1.45.19-1.98.58c-.52.39-.78.92-.78,1.61v4.41c0,.68.26,1.22.78,1.61.52.39,1.18.58,1.98.58Z"/>
    <path class="cls-6" d="M134.41,373.45c-1.1,0-2.08-.18-2.94-.54-.86-.36-1.59-.88-2.19-1.56-.6-.68-1.06-1.51-1.38-2.47-.32-.97-.48-2.05-.48-3.24s.16-2.27.48-3.24c.32-.97.78-1.79,1.38-2.46.6-.67,1.33-1.19,2.19-1.55.86-.36,1.84-.54,2.94-.54s2.08.18,2.94.54c.86.36,1.59.88,2.19,1.55.6.67,1.06,1.49,1.38,2.46s.48,2.05.48,3.24-.16,2.27-.48,3.24c-.32.97-.78,1.79-1.38,2.47-.6.68-1.33,1.2-2.19,1.56-.86.36-1.84.54-2.94.54ZM134.41,370.12c.83,0,1.48-.26,1.93-.77.46-.51.68-1.24.68-2.19v-3.04c0-.95-.23-1.68-.68-2.19-.45-.51-1.1-.77-1.93-.77s-1.48.26-1.93.77c-.46.51-.68,1.24-.68,2.19v3.04c0,.95.23,1.68.68,2.19.45.51,1.1.77,1.93.77Z"/>
    <path class="cls-6" d="M148.31,373.45c-1.44,0-2.65-.23-3.64-.7-.99-.46-1.87-1.12-2.64-1.98l2.47-2.5c.53.59,1.12,1.05,1.76,1.39.64.34,1.37.51,2.19.51s1.41-.13,1.73-.38.48-.6.48-1.04c0-.7-.5-1.12-1.51-1.25l-1.62-.2c-3.35-.42-5.03-1.95-5.03-4.61,0-.72.14-1.38.41-1.98.27-.6.66-1.11,1.17-1.54.5-.43,1.11-.76,1.82-.99.71-.24,1.51-.36,2.4-.36.78,0,1.46.05,2.06.16.6.1,1.13.26,1.59.46.46.2.89.45,1.28.74.39.29.77.62,1.15.98l-2.42,2.47c-.47-.47-1.01-.85-1.61-1.12-.6-.27-1.21-.41-1.83-.41-.72,0-1.23.11-1.54.34-.3.23-.46.53-.46.91,0,.4.11.71.33.92.22.22.63.37,1.24.47l1.68.23c3.28.44,4.92,1.93,4.92,4.49,0,.72-.15,1.38-.46,1.99s-.73,1.13-1.29,1.58-1.23.79-2.02,1.04c-.79.25-1.66.37-2.63.37Z"/>
    <path class="cls-6" d="M164.12,356.59c-.85,0-1.47-.19-1.86-.58-.39-.39-.58-.89-.58-1.49v-.63c0-.61.19-1.1.58-1.49s1.01-.58,1.86-.58,1.47.19,1.86.58c.39.39.58.89.58,1.49v.63c0,.61-.19,1.1-.58,1.49s-1.01.58-1.86.58ZM162.01,358.18h4.21v14.92h-4.21v-14.92Z"/>
    <path class="cls-6" d="M169,373.11v-14.92h4.21v2.53h.17c.27-.78.73-1.45,1.39-2.02.66-.57,1.58-.85,2.76-.85,1.54,0,2.7.51,3.48,1.54.79,1.02,1.18,2.48,1.18,4.38v9.35h-4.21v-9.01c0-.97-.15-1.68-.46-2.15s-.84-.7-1.62-.7c-.34,0-.67.04-1,.13-.32.09-.61.22-.87.41-.26.19-.46.42-.61.7-.15.27-.23.59-.23.95v9.67h-4.21Z"/>
    <path class="cls-6" d="M190.04,373.11c-1.46,0-2.56-.37-3.31-1.11-.75-.74-1.12-1.82-1.12-3.24v-7.31h-2.1v-3.27h1.05c.57,0,.96-.14,1.17-.41.21-.27.31-.67.31-1.18v-2.44h3.78v4.04h2.96v3.27h-2.96v8.39h2.73v3.27h-2.5Z"/>
    <path class="cls-6" d="M200.67,373.45c-1.14,0-2.15-.19-3.04-.55-.89-.37-1.64-.89-2.26-1.56-.62-.67-1.08-1.49-1.39-2.46-.31-.97-.47-2.05-.47-3.24s.15-2.24.45-3.2c.3-.96.75-1.78,1.35-2.46.6-.68,1.33-1.21,2.2-1.58.87-.37,1.87-.55,2.98-.55,1.23,0,2.29.21,3.17.63.88.42,1.6.98,2.16,1.68s.97,1.51,1.22,2.43c.26.92.38,1.88.38,2.89v1.25h-9.58v.23c0,.98.27,1.75.8,2.33.53.57,1.36.86,2.5.86.87,0,1.58-.17,2.13-.52.55-.35,1.06-.77,1.54-1.25l2.1,2.62c-.66.78-1.53,1.39-2.6,1.82-1.07.44-2.29.66-3.65.66ZM200.59,360.94c-.85,0-1.52.28-2,.84-.48.56-.73,1.3-.73,2.23v.23h5.23v-.26c0-.91-.2-1.64-.61-2.2-.41-.56-1.04-.84-1.89-.84Z"/>
    <path class="cls-6" d="M209.28,373.11v-14.92h4.21v3.24h.14c.08-.42.21-.82.4-1.21.19-.39.44-.73.75-1.04.31-.3.69-.54,1.12-.72.44-.18.95-.27,1.54-.27h.74v3.92h-1.05c-1.23,0-2.15.16-2.74.48-.6.32-.9.92-.9,1.79v8.73h-4.21Z"/>
    <path class="cls-6" d="M219.63,373.11v-14.92h4.21v2.53h.17c.27-.78.73-1.45,1.39-2.02.66-.57,1.58-.85,2.76-.85,1.54,0,2.7.51,3.48,1.54s1.18,2.48,1.18,4.38v9.35h-4.21v-9.01c0-.97-.15-1.68-.46-2.15s-.84-.7-1.62-.7c-.34,0-.67.04-1,.13-.32.09-.61.22-.87.41-.26.19-.46.42-.61.7-.15.27-.23.59-.23.95v9.67h-4.21Z"/>
    <path class="cls-6" d="M246.47,373.11c-.76,0-1.39-.24-1.89-.71s-.82-1.11-.95-1.9h-.17c-.23.97-.73,1.7-1.51,2.2s-1.73.75-2.87.75c-1.5,0-2.64-.4-3.44-1.19-.8-.79-1.19-1.84-1.19-3.15,0-1.57.57-2.73,1.72-3.5,1.15-.76,2.71-1.15,4.68-1.15h2.36v-.94c0-.72-.19-1.29-.57-1.72-.38-.43-1.01-.64-1.9-.64-.83,0-1.5.18-1.99.54s-.9.77-1.22,1.22l-2.5-2.23c.61-.9,1.37-1.6,2.29-2.1s2.17-.76,3.74-.76c2.12,0,3.71.46,4.78,1.39,1.06.93,1.59,2.28,1.59,4.06v6.54h1.39v3.27h-2.33ZM240.64,370.52c.7,0,1.3-.15,1.81-.45.5-.3.75-.79.75-1.47v-1.75h-2.05c-1.65,0-2.47.55-2.47,1.66v.42c0,.55.17.94.51,1.2.34.25.82.38,1.45.38Z"/>
    <path class="cls-6" d="M256.5,373.45c-1.12,0-2.11-.19-2.99-.55-.87-.37-1.6-.89-2.19-1.56-.59-.67-1.03-1.49-1.34-2.46-.3-.97-.46-2.05-.46-3.24s.15-2.27.46-3.23c.3-.96.75-1.78,1.34-2.46.59-.68,1.32-1.2,2.19-1.56.87-.36,1.87-.54,2.99-.54,1.52,0,2.78.34,3.79,1.02,1.01.68,1.74,1.64,2.17,2.87l-3.41,1.48c-.13-.57-.41-1.05-.82-1.45s-1-.6-1.73-.6c-.85,0-1.5.28-1.93.84-.44.56-.65,1.31-.65,2.26v2.79c0,.95.22,1.7.65,2.25.44.55,1.08.82,1.93.82.76,0,1.36-.2,1.8-.61.45-.41.77-.94.98-1.61l3.27,1.42c-.49,1.42-1.26,2.46-2.29,3.13-1.03.66-2.29,1-3.77,1Z"/>
    <path class="cls-6" d="M266.14,356.59c-.85,0-1.47-.19-1.86-.58-.39-.39-.58-.89-.58-1.49v-.63c0-.61.19-1.1.58-1.49.39-.39,1.01-.58,1.86-.58s1.47.19,1.86.58c.39.39.58.89.58,1.49v.63c0,.61-.19,1.1-.58,1.49-.39.39-1.01.58-1.86.58ZM264.03,358.18h4.21v14.92h-4.21v-14.92Z"/>
    <path class="cls-6" d="M277.08,373.45c-1.1,0-2.08-.18-2.94-.54-.86-.36-1.59-.88-2.19-1.56-.6-.68-1.06-1.51-1.38-2.47-.32-.97-.48-2.05-.48-3.24s.16-2.27.48-3.24.78-1.79,1.38-2.46c.6-.67,1.33-1.19,2.19-1.55.86-.36,1.84-.54,2.94-.54s2.08.18,2.94.54c.86.36,1.59.88,2.19,1.55.6.67,1.06,1.49,1.38,2.46.32.97.48,2.05.48,3.24s-.16,2.27-.48,3.24c-.32.97-.78,1.79-1.38,2.47-.6.68-1.33,1.2-2.19,1.56-.86.36-1.84.54-2.94.54ZM277.08,370.12c.83,0,1.48-.26,1.93-.77s.68-1.24.68-2.19v-3.04c0-.95-.23-1.68-.68-2.19-.46-.51-1.1-.77-1.93-.77s-1.48.26-1.93.77c-.45.51-.68,1.24-.68,2.19v3.04c0,.95.23,1.68.68,2.19.46.51,1.1.77,1.93.77Z"/>
    <path class="cls-6" d="M285.92,373.11v-14.92h4.21v2.53h.17c.27-.78.73-1.45,1.39-2.02.66-.57,1.58-.85,2.76-.85,1.54,0,2.7.51,3.48,1.54s1.18,2.48,1.18,4.38v9.35h-4.21v-9.01c0-.97-.15-1.68-.46-2.15s-.84-.7-1.62-.7c-.34,0-.67.04-1,.13-.32.09-.61.22-.87.41-.26.19-.46.42-.61.7-.15.27-.23.59-.23.95v9.67h-4.21Z"/>
    <path class="cls-6" d="M312.76,373.11c-.76,0-1.39-.24-1.89-.71s-.82-1.11-.95-1.9h-.17c-.23.97-.73,1.7-1.51,2.2s-1.73.75-2.87.75c-1.5,0-2.64-.4-3.44-1.19-.8-.79-1.19-1.84-1.19-3.15,0-1.57.57-2.73,1.72-3.5,1.15-.76,2.71-1.15,4.68-1.15h2.36v-.94c0-.72-.19-1.29-.57-1.72-.38-.43-1.01-.64-1.9-.64-.83,0-1.5.18-1.99.54s-.9.77-1.22,1.22l-2.5-2.23c.61-.9,1.37-1.6,2.29-2.1s2.17-.76,3.74-.76c2.12,0,3.71.46,4.78,1.39,1.06.93,1.59,2.28,1.59,4.06v6.54h1.39v3.27h-2.33ZM306.93,370.52c.7,0,1.3-.15,1.81-.45.5-.3.75-.79.75-1.47v-1.75h-2.05c-1.65,0-2.47.55-2.47,1.66v.42c0,.55.17.94.51,1.2.34.25.82.38,1.45.38Z"/>
    <path class="cls-6" d="M320.94,373.11c-1.44,0-2.5-.35-3.17-1.05-.67-.7-1.01-1.71-1.01-3.04v-16.94h4.21v17.77h1.88v3.27h-1.9Z"/>
    <path class="cls-6" d="M330.46,373.45c-1.14,0-2.15-.19-3.04-.55-.89-.37-1.64-.89-2.26-1.56-.62-.67-1.08-1.49-1.39-2.46-.31-.97-.47-2.05-.47-3.24s.15-2.24.46-3.2c.3-.96.75-1.78,1.35-2.46.6-.68,1.33-1.21,2.2-1.58s1.87-.55,2.99-.55c1.23,0,2.29.21,3.17.63.88.42,1.6.98,2.16,1.68.56.7.97,1.51,1.22,2.43.26.92.38,1.88.38,2.89v1.25h-9.58v.23c0,.98.26,1.75.8,2.33.53.57,1.36.86,2.5.86.87,0,1.58-.17,2.13-.52s1.06-.77,1.54-1.25l2.1,2.62c-.66.78-1.53,1.39-2.6,1.82-1.07.44-2.29.66-3.65.66ZM330.38,360.94c-.85,0-1.52.28-2,.84-.48.56-.72,1.3-.72,2.23v.23h5.23v-.26c0-.91-.2-1.64-.61-2.2-.41-.56-1.04-.84-1.89-.84Z"/>
    <path class="cls-6" d="M344.14,373.45c-1.44,0-2.65-.23-3.64-.7-.99-.46-1.87-1.12-2.64-1.98l2.47-2.5c.53.59,1.12,1.05,1.76,1.39.64.34,1.37.51,2.19.51s1.41-.13,1.73-.38.48-.6.48-1.04c0-.7-.5-1.12-1.51-1.25l-1.62-.2c-3.35-.42-5.03-1.95-5.03-4.61,0-.72.14-1.38.41-1.98.27-.6.66-1.11,1.17-1.54.5-.43,1.11-.76,1.82-.99.71-.24,1.51-.36,2.4-.36.78,0,1.46.05,2.06.16.6.1,1.13.26,1.59.46.46.2.89.45,1.28.74.39.29.77.62,1.15.98l-2.42,2.47c-.47-.47-1.01-.85-1.61-1.12-.6-.27-1.21-.41-1.83-.41-.72,0-1.23.11-1.54.34-.3.23-.46.53-.46.91,0,.4.11.71.33.92s.63.37,1.24.47l1.68.23c3.28.44,4.92,1.93,4.92,4.49,0,.72-.15,1.38-.45,1.99-.3.61-.74,1.13-1.29,1.58s-1.23.79-2.02,1.04c-.79.25-1.66.37-2.63.37Z"/>
    <path class="cls-6" d="M89.14,388.45h3.92l-5.74,17.23c-.38,1.16-.91,2.01-1.61,2.56-.69.55-1.68.82-2.97.82h-2.62v-3.27h2.81l.51-1.65-5.23-15.69h4.18l2.19,6.96,1.08,4.32h.17l1.11-4.32,2.19-6.96Z"/>
    <path class="cls-6" d="M108.78,400.87h-.14c-.11.4-.29.77-.54,1.12-.25.35-.54.65-.9.91-.35.26-.75.46-1.19.6-.45.14-.91.21-1.38.21-1.9,0-3.33-.67-4.29-2-.97-1.34-1.45-3.27-1.45-5.81s.48-4.47,1.45-5.8c.97-1.33,2.4-1.99,4.29-1.99.97,0,1.82.27,2.57.8.75.53,1.23,1.21,1.44,2.05h.14v-8.61h4.21v21.04h-4.21v-2.5ZM106.03,400.3c.8,0,1.45-.19,1.98-.58.52-.39.78-.92.78-1.61v-4.41c0-.68-.26-1.22-.78-1.61-.52-.39-1.18-.58-1.98-.58s-1.45.28-1.98.84c-.52.56-.78,1.31-.78,2.26v2.59c0,.95.26,1.7.78,2.26.52.56,1.18.84,1.98.84Z"/>
    <path class="cls-6" d="M117.88,386.86c-.85,0-1.47-.19-1.86-.58-.39-.39-.58-.89-.58-1.49v-.63c0-.61.19-1.1.58-1.49s1.01-.58,1.86-.58,1.47.19,1.86.58c.39.39.58.89.58,1.49v.63c0,.61-.19,1.1-.58,1.49s-1.01.58-1.86.58ZM115.78,388.45h4.21v14.92h-4.21v-14.92Z"/>
    <path class="cls-6" d="M125.95,403.37l-4.89-14.92h4.15l1.85,6.03,1.39,5.4h.23l1.39-5.4,1.79-6.03h3.98l-4.89,14.92h-5Z"/>
    <path class="cls-6" d="M142.92,403.72c-1.14,0-2.15-.19-3.04-.55-.89-.37-1.64-.89-2.26-1.56-.62-.67-1.08-1.49-1.39-2.46-.31-.97-.47-2.05-.47-3.24s.15-2.24.45-3.2c.3-.96.75-1.78,1.35-2.46.6-.68,1.33-1.21,2.2-1.58.87-.37,1.87-.55,2.98-.55,1.23,0,2.29.21,3.17.63.88.42,1.6.98,2.16,1.68s.97,1.51,1.22,2.43c.26.92.38,1.88.38,2.89v1.25h-9.58v.23c0,.98.27,1.75.8,2.33.53.57,1.36.86,2.5.86.87,0,1.58-.17,2.13-.52.55-.35,1.06-.77,1.54-1.25l2.1,2.62c-.66.78-1.53,1.39-2.6,1.82-1.07.44-2.29.66-3.65.66ZM142.84,391.21c-.85,0-1.52.28-2,.84-.48.56-.73,1.3-.73,2.23v.23h5.23v-.26c0-.91-.2-1.64-.61-2.2-.41-.56-1.04-.84-1.89-.84Z"/>
    <path class="cls-6" d="M151.54,403.37v-14.92h4.21v3.24h.14c.08-.42.21-.82.4-1.21.19-.39.44-.73.75-1.04.31-.3.69-.54,1.12-.72.44-.18.95-.27,1.54-.27h.74v3.92h-1.05c-1.23,0-2.15.16-2.74.48-.6.32-.9.92-.9,1.79v8.73h-4.21Z"/>
    <path class="cls-6" d="M166.94,403.72c-1.44,0-2.65-.23-3.64-.7-.99-.46-1.87-1.12-2.64-1.98l2.47-2.5c.53.59,1.12,1.05,1.76,1.39.64.34,1.37.51,2.19.51s1.41-.13,1.73-.38.48-.6.48-1.04c0-.7-.5-1.12-1.51-1.25l-1.62-.2c-3.35-.42-5.03-1.95-5.03-4.61,0-.72.14-1.38.41-1.98.27-.6.66-1.11,1.17-1.54.5-.43,1.11-.76,1.82-.99.71-.24,1.51-.36,2.4-.36.78,0,1.46.05,2.06.16.6.1,1.13.26,1.59.46.46.2.89.45,1.28.74.39.29.77.62,1.15.98l-2.42,2.47c-.47-.47-1.01-.85-1.61-1.12-.6-.27-1.21-.41-1.83-.41-.72,0-1.23.11-1.54.34-.3.23-.46.53-.46.91,0,.4.11.71.33.92.22.22.63.37,1.24.47l1.68.23c3.28.44,4.92,1.93,4.92,4.49,0,.72-.15,1.38-.46,1.99s-.73,1.13-1.29,1.58-1.23.79-2.02,1.04c-.79.25-1.66.37-2.63.37Z"/>
    <path class="cls-6" d="M177.18,386.86c-.85,0-1.47-.19-1.86-.58-.39-.39-.58-.89-.58-1.49v-.63c0-.61.19-1.1.58-1.49s1.01-.58,1.86-.58,1.47.19,1.86.58c.39.39.58.89.58,1.49v.63c0,.61-.19,1.1-.58,1.49s-1.01.58-1.86.58ZM175.07,388.45h4.21v14.92h-4.21v-14.92Z"/>
    <path class="cls-6" d="M191.22,400.87h-.14c-.11.4-.29.77-.54,1.12-.25.35-.54.65-.9.91-.35.26-.75.46-1.19.6-.45.14-.91.21-1.38.21-1.9,0-3.33-.67-4.29-2-.97-1.34-1.45-3.27-1.45-5.81s.48-4.47,1.45-5.8c.97-1.33,2.4-1.99,4.29-1.99.97,0,1.82.27,2.57.8.75.53,1.23,1.21,1.44,2.05h.14v-8.61h4.21v21.04h-4.21v-2.5ZM188.46,400.3c.8,0,1.45-.19,1.98-.58.52-.39.78-.92.78-1.61v-4.41c0-.68-.26-1.22-.78-1.61-.52-.39-1.18-.58-1.98-.58s-1.45.28-1.98.84c-.52.56-.78,1.31-.78,2.26v2.59c0,.95.26,1.7.78,2.26.52.56,1.18.84,1.98.84Z"/>
    <path class="cls-6" d="M209.24,403.37c-.76,0-1.39-.24-1.89-.71-.5-.47-.82-1.11-.95-1.9h-.17c-.23.97-.73,1.7-1.51,2.2-.78.5-1.73.75-2.87.75-1.5,0-2.64-.4-3.44-1.19-.8-.79-1.19-1.84-1.19-3.15,0-1.57.57-2.73,1.72-3.5,1.15-.76,2.7-1.15,4.68-1.15h2.36v-.94c0-.72-.19-1.29-.57-1.72-.38-.43-1.01-.64-1.9-.64-.83,0-1.5.18-1.99.54s-.9.77-1.22,1.22l-2.5-2.23c.61-.9,1.37-1.6,2.29-2.1.92-.5,2.17-.76,3.74-.76,2.12,0,3.71.46,4.78,1.39,1.06.93,1.59,2.28,1.59,4.06v6.54h1.39v3.27h-2.33ZM203.41,400.79c.7,0,1.3-.15,1.81-.45.5-.3.75-.79.75-1.47v-1.75h-2.05c-1.65,0-2.47.55-2.47,1.66v.42c0,.55.17.94.51,1.2.34.25.82.38,1.45.38Z"/>
    <path class="cls-6" d="M222.4,400.87h-.14c-.11.4-.29.77-.54,1.12-.25.35-.54.65-.9.91s-.75.46-1.19.6-.9.21-1.38.21c-1.9,0-3.33-.67-4.29-2-.97-1.34-1.45-3.27-1.45-5.81s.48-4.47,1.45-5.8c.97-1.33,2.4-1.99,4.29-1.99.97,0,1.82.27,2.57.8.75.53,1.23,1.21,1.44,2.05h.14v-8.61h4.21v21.04h-4.21v-2.5ZM219.65,400.3c.8,0,1.45-.19,1.98-.58.52-.39.78-.92.78-1.61v-4.41c0-.68-.26-1.22-.78-1.61-.52-.39-1.18-.58-1.98-.58s-1.46.28-1.98.84c-.52.56-.78,1.31-.78,2.26v2.59c0,.95.26,1.7.78,2.26.52.56,1.18.84,1.98.84Z"/>
    <path class="cls-6" d="M240.99,403.72c-1.12,0-2.11-.19-2.99-.55-.87-.37-1.6-.89-2.19-1.56-.59-.67-1.03-1.49-1.34-2.46-.3-.97-.46-2.05-.46-3.24s.15-2.27.46-3.23c.3-.96.75-1.78,1.34-2.46.59-.68,1.32-1.2,2.19-1.56.87-.36,1.87-.54,2.99-.54,1.52,0,2.78.34,3.79,1.02,1.01.68,1.74,1.64,2.17,2.87l-3.41,1.48c-.13-.57-.41-1.05-.82-1.45s-1-.6-1.73-.6c-.85,0-1.5.28-1.93.84-.44.56-.65,1.31-.65,2.26v2.79c0,.95.22,1.7.65,2.25.44.55,1.08.82,1.93.82.76,0,1.36-.2,1.8-.61.45-.41.77-.94.98-1.61l3.27,1.42c-.49,1.42-1.26,2.46-2.29,3.13-1.03.66-2.29,1-3.77,1Z"/>
    <path class="cls-6" d="M257.34,400.87h-.14c-.13.38-.31.74-.53,1.08s-.5.64-.84.91c-.34.27-.74.47-1.21.63-.46.15-1,.23-1.61.23-1.54,0-2.7-.51-3.48-1.52-.79-1.01-1.18-2.47-1.18-4.36v-9.38h4.21v9.01c0,.91.16,1.61.48,2.1.32.49.87.74,1.65.74.32,0,.64-.05.97-.14.32-.09.61-.23.85-.41.25-.18.45-.4.6-.67.15-.27.23-.58.23-.94v-9.69h4.21v14.92h-4.21v-2.5Z"/>
    <path class="cls-6" d="M268.51,403.37c-1.44,0-2.5-.35-3.17-1.05-.67-.7-1.01-1.71-1.01-3.04v-16.94h4.21v17.77h1.88v3.27h-1.9Z"/>
    <path class="cls-6" d="M276.9,403.37c-1.46,0-2.56-.37-3.31-1.11-.75-.74-1.12-1.82-1.12-3.24v-7.31h-2.1v-3.27h1.05c.57,0,.96-.14,1.17-.41.21-.27.31-.67.31-1.18v-2.44h3.78v4.04h2.96v3.27h-2.96v8.39h2.73v3.27h-2.5Z"/>
    <path class="cls-6" d="M290.23,400.87h-.14c-.13.38-.31.74-.53,1.08s-.5.64-.84.91c-.34.27-.74.47-1.21.63-.46.15-1,.23-1.61.23-1.54,0-2.7-.51-3.48-1.52-.79-1.01-1.18-2.47-1.18-4.36v-9.38h4.21v9.01c0,.91.16,1.61.48,2.1.32.49.87.74,1.65.74.32,0,.64-.05.97-.14.32-.09.61-.23.85-.41.25-.18.45-.4.6-.67.15-.27.23-.58.23-.94v-9.69h4.21v14.92h-4.21v-2.5Z"/>
    <path class="cls-6" d="M297.22,403.37v-14.92h4.21v3.24h.14c.08-.42.21-.82.4-1.21.19-.39.44-.73.75-1.04.31-.3.69-.54,1.12-.72.44-.18.95-.27,1.54-.27h.74v3.92h-1.05c-1.23,0-2.15.16-2.74.48-.6.32-.9.92-.9,1.79v8.73h-4.21Z"/>
    <path class="cls-6" d="M318.2,403.37c-.76,0-1.39-.24-1.89-.71s-.82-1.11-.95-1.9h-.17c-.23.97-.73,1.7-1.51,2.2s-1.73.75-2.87.75c-1.5,0-2.64-.4-3.44-1.19-.8-.79-1.19-1.84-1.19-3.15,0-1.57.57-2.73,1.72-3.5,1.15-.76,2.71-1.15,4.68-1.15h2.36v-.94c0-.72-.19-1.29-.57-1.72-.38-.43-1.01-.64-1.9-.64-.83,0-1.5.18-1.99.54s-.9.77-1.22,1.22l-2.5-2.23c.61-.9,1.37-1.6,2.29-2.1s2.17-.76,3.74-.76c2.12,0,3.71.46,4.78,1.39,1.06.93,1.59,2.28,1.59,4.06v6.54h1.39v3.27h-2.33ZM312.37,400.79c.7,0,1.3-.15,1.81-.45.5-.3.75-.79.75-1.47v-1.75h-2.05c-1.65,0-2.47.55-2.47,1.66v.42c0,.55.17.94.51,1.2.34.25.82.38,1.45.38Z"/>
    <path class="cls-6" d="M326.39,403.37c-1.44,0-2.5-.35-3.17-1.05-.67-.7-1.01-1.71-1.01-3.04v-16.94h4.21v17.77h1.88v3.27h-1.9Z"/>
  </g>
  <rect class="cls-2" x=".79" y="814.37" width="413.31" height="125.69" rx="60.71" ry="60.71"/>
  <g>
    <path class="cls-6" d="M30.73,871.55h-4.32v-19.84h9.41c.91,0,1.73.15,2.47.46.74.3,1.37.73,1.89,1.29.52.56.92,1.23,1.21,2,.28.78.43,1.64.43,2.59,0,1.35-.3,2.52-.9,3.53s-1.5,1.73-2.71,2.19l3.89,7.79h-4.8l-3.47-7.28h-3.1v7.28ZM35.28,860.63c.64,0,1.15-.17,1.52-.5.37-.33.55-.82.55-1.46v-1.25c0-.64-.19-1.13-.55-1.46-.37-.33-.88-.5-1.52-.5h-4.55v5.17h4.55Z"/>
    <path class="cls-6" d="M50.01,871.89c-1.14,0-2.15-.18-3.04-.55-.89-.37-1.64-.89-2.26-1.56-.62-.67-1.08-1.49-1.39-2.46-.31-.97-.47-2.05-.47-3.24s.15-2.24.45-3.2.75-1.78,1.35-2.46c.6-.68,1.33-1.21,2.2-1.58.87-.37,1.87-.55,2.98-.55,1.23,0,2.29.21,3.17.62.88.42,1.6.98,2.16,1.68.56.7.97,1.51,1.22,2.43.26.92.38,1.88.38,2.89v1.25h-9.58v.23c0,.98.27,1.75.8,2.33.53.57,1.36.86,2.5.86.87,0,1.58-.17,2.13-.52.55-.35,1.06-.77,1.54-1.25l2.1,2.62c-.66.78-1.53,1.39-2.6,1.82-1.07.44-2.29.66-3.65.66ZM49.92,859.38c-.85,0-1.52.28-2,.84-.48.56-.73,1.3-.73,2.23v.23h5.23v-.26c0-.91-.2-1.64-.61-2.2-.41-.56-1.04-.84-1.89-.84Z"/>
    <path class="cls-6" d="M63.68,871.89c-1.44,0-2.65-.23-3.64-.7-.99-.46-1.87-1.12-2.64-1.98l2.47-2.5c.53.59,1.12,1.05,1.76,1.39.64.34,1.37.51,2.19.51s1.41-.13,1.73-.38.48-.6.48-1.04c0-.7-.5-1.12-1.51-1.25l-1.62-.2c-3.35-.42-5.03-1.95-5.03-4.61,0-.72.14-1.38.41-1.98.27-.6.66-1.11,1.17-1.54.5-.43,1.11-.76,1.82-1,.71-.24,1.51-.35,2.4-.35.78,0,1.46.05,2.06.16.6.1,1.13.26,1.59.45.46.2.89.45,1.28.74.39.29.77.62,1.15.98l-2.42,2.47c-.47-.47-1.01-.85-1.61-1.12-.6-.27-1.21-.41-1.83-.41-.72,0-1.23.11-1.54.34-.3.23-.46.53-.46.91,0,.4.11.71.33.92.22.22.63.37,1.24.47l1.68.23c3.28.44,4.92,1.93,4.92,4.49,0,.72-.15,1.38-.46,1.99s-.73,1.13-1.29,1.58c-.56.45-1.23.79-2.02,1.04-.79.25-1.66.37-2.63.37Z"/>
    <path class="cls-6" d="M71.81,856.63h4.21v2.5h.14c.21-.83.69-1.52,1.44-2.05s1.61-.8,2.57-.8c1.9,0,3.33.66,4.29,1.99.97,1.33,1.45,3.26,1.45,5.8s-.48,4.48-1.45,5.81-2.4,2-4.29,2c-.49,0-.96-.07-1.39-.21s-.83-.34-1.18-.6-.65-.56-.9-.91c-.25-.35-.43-.72-.54-1.12h-.14v8.19h-4.21v-20.61ZM78.77,868.48c.8,0,1.45-.28,1.98-.84.52-.56.78-1.31.78-2.26v-2.59c0-.95-.26-1.7-.78-2.26-.52-.56-1.18-.84-1.98-.84s-1.45.19-1.98.58c-.52.39-.78.92-.78,1.61v4.41c0,.68.26,1.22.78,1.61.52.39,1.18.58,1.98.58Z"/>
    <path class="cls-6" d="M94.01,871.89c-1.1,0-2.08-.18-2.94-.54-.86-.36-1.59-.88-2.19-1.56-.6-.68-1.06-1.51-1.38-2.47-.32-.97-.48-2.05-.48-3.24s.16-2.27.48-3.24c.32-.97.78-1.79,1.38-2.46.6-.67,1.33-1.19,2.19-1.55.86-.36,1.84-.54,2.94-.54s2.08.18,2.94.54c.86.36,1.59.88,2.19,1.55.6.67,1.06,1.49,1.38,2.46s.48,2.05.48,3.24-.16,2.27-.48,3.24c-.32.97-.78,1.79-1.38,2.47-.6.68-1.33,1.2-2.19,1.56-.86.36-1.84.54-2.94.54ZM94.01,868.56c.83,0,1.48-.26,1.93-.77.46-.51.68-1.24.68-2.19v-3.04c0-.95-.23-1.68-.68-2.19-.45-.51-1.1-.77-1.93-.77s-1.48.26-1.93.77c-.46.51-.68,1.24-.68,2.19v3.04c0,.95.23,1.68.68,2.19.45.51,1.1.77,1.93.77Z"/>
    <path class="cls-6" d="M102.85,871.55v-14.92h4.21v2.53h.17c.27-.78.73-1.45,1.39-2.02.66-.57,1.58-.85,2.76-.85,1.54,0,2.7.51,3.48,1.53.79,1.02,1.18,2.48,1.18,4.38v9.35h-4.21v-9.01c0-.97-.15-1.68-.46-2.15s-.84-.7-1.62-.7c-.34,0-.67.04-1,.13-.32.08-.61.22-.87.41s-.46.42-.61.7c-.15.27-.23.59-.23.95v9.67h-4.21Z"/>
    <path class="cls-6" d="M123.71,871.89c-1.44,0-2.65-.23-3.64-.7-.99-.46-1.87-1.12-2.64-1.98l2.47-2.5c.53.59,1.12,1.05,1.76,1.39.64.34,1.37.51,2.19.51s1.41-.13,1.73-.38.48-.6.48-1.04c0-.7-.5-1.12-1.51-1.25l-1.62-.2c-3.35-.42-5.03-1.95-5.03-4.61,0-.72.14-1.38.41-1.98.27-.6.66-1.11,1.17-1.54.5-.43,1.11-.76,1.82-1,.71-.24,1.51-.35,2.4-.35.78,0,1.46.05,2.06.16.6.1,1.13.26,1.59.45.46.2.89.45,1.28.74.39.29.77.62,1.15.98l-2.42,2.47c-.47-.47-1.01-.85-1.61-1.12-.6-.27-1.21-.41-1.83-.41-.72,0-1.23.11-1.54.34-.3.23-.46.53-.46.91,0,.4.11.71.33.92.22.22.63.37,1.24.47l1.68.23c3.28.44,4.92,1.93,4.92,4.49,0,.72-.15,1.38-.46,1.99s-.73,1.13-1.29,1.58c-.56.45-1.23.79-2.02,1.04-.79.25-1.66.37-2.63.37Z"/>
    <path class="cls-6" d="M142.87,871.55c-.76,0-1.39-.24-1.89-.71-.5-.47-.82-1.11-.95-1.9h-.17c-.23.97-.73,1.7-1.51,2.2-.78.5-1.73.75-2.87.75-1.5,0-2.64-.4-3.44-1.19-.8-.79-1.19-1.84-1.19-3.15,0-1.57.57-2.73,1.72-3.5,1.15-.76,2.7-1.15,4.68-1.15h2.36v-.94c0-.72-.19-1.29-.57-1.72-.38-.43-1.01-.64-1.9-.64-.83,0-1.5.18-1.99.54-.49.36-.9.77-1.22,1.22l-2.5-2.23c.61-.9,1.37-1.6,2.29-2.1.92-.5,2.17-.76,3.74-.76,2.12,0,3.71.46,4.78,1.39,1.06.93,1.59,2.28,1.59,4.06v6.54h1.39v3.27h-2.33ZM137.05,868.96c.7,0,1.3-.15,1.81-.45.5-.3.75-.79.75-1.47v-1.75h-2.05c-1.65,0-2.47.55-2.47,1.66v.42c0,.54.17.94.51,1.2.34.25.82.38,1.45.38Z"/>
    <path class="cls-6" d="M146.88,850.51h4.21v8.61h.14c.21-.83.69-1.52,1.44-2.05s1.61-.8,2.57-.8c1.9,0,3.33.66,4.29,1.99.97,1.33,1.45,3.26,1.45,5.8s-.48,4.48-1.45,5.81-2.4,2-4.29,2c-.49,0-.96-.07-1.39-.21s-.83-.34-1.18-.6-.65-.56-.9-.91c-.25-.35-.43-.72-.54-1.12h-.14v2.5h-4.21v-21.04ZM153.85,868.48c.8,0,1.45-.28,1.98-.84.52-.56.78-1.31.78-2.26v-2.59c0-.95-.26-1.7-.78-2.26-.52-.56-1.18-.84-1.98-.84s-1.45.19-1.98.58c-.52.39-.78.92-.78,1.61v4.41c0,.68.26,1.22.78,1.61.52.39,1.18.58,1.98.58Z"/>
    <path class="cls-6" d="M165.13,855.03c-.85,0-1.47-.19-1.86-.58-.39-.39-.58-.89-.58-1.49v-.63c0-.61.19-1.1.58-1.49.39-.39,1.01-.58,1.86-.58s1.47.2,1.86.58c.39.39.58.89.58,1.49v.63c0,.61-.19,1.1-.58,1.49-.39.39-1.01.58-1.86.58ZM163.03,856.63h4.21v14.92h-4.21v-14.92Z"/>
    <path class="cls-6" d="M174.2,871.55c-1.44,0-2.5-.35-3.17-1.05-.67-.7-1.01-1.71-1.01-3.04v-16.94h4.21v17.77h1.88v3.27h-1.9Z"/>
    <path class="cls-6" d="M179.6,855.03c-.85,0-1.47-.19-1.86-.58-.39-.39-.58-.89-.58-1.49v-.63c0-.61.19-1.1.58-1.49.39-.39,1.01-.58,1.86-.58s1.47.2,1.86.58c.39.39.58.89.58,1.49v.63c0,.61-.19,1.1-.58,1.49-.39.39-1.01.58-1.86.58ZM177.5,856.63h4.21v14.92h-4.21v-14.92Z"/>
    <path class="cls-6" d="M193.64,869.05h-.14c-.11.4-.29.77-.54,1.12-.25.35-.54.65-.9.91-.35.26-.75.45-1.19.6-.45.14-.91.21-1.38.21-1.9,0-3.33-.67-4.29-2-.97-1.34-1.45-3.27-1.45-5.81s.48-4.47,1.45-5.8c.97-1.33,2.4-1.99,4.29-1.99.97,0,1.82.27,2.57.8.75.53,1.23,1.21,1.44,2.05h.14v-8.61h4.21v21.04h-4.21v-2.5ZM190.88,868.48c.8,0,1.45-.19,1.98-.58.52-.39.78-.92.78-1.61v-4.41c0-.68-.26-1.22-.78-1.61-.52-.39-1.18-.58-1.98-.58s-1.45.28-1.98.84c-.52.56-.78,1.31-.78,2.26v2.59c0,.95.26,1.7.78,2.26.52.56,1.18.84,1.98.84Z"/>
    <path class="cls-6" d="M211.67,871.55c-.76,0-1.39-.24-1.89-.71-.5-.47-.82-1.11-.95-1.9h-.17c-.23.97-.73,1.7-1.51,2.2-.78.5-1.73.75-2.87.75-1.5,0-2.64-.4-3.44-1.19-.8-.79-1.19-1.84-1.19-3.15,0-1.57.57-2.73,1.72-3.5,1.15-.76,2.7-1.15,4.68-1.15h2.36v-.94c0-.72-.19-1.29-.57-1.72-.38-.43-1.01-.64-1.9-.64-.83,0-1.5.18-1.99.54-.49.36-.9.77-1.22,1.22l-2.5-2.23c.61-.9,1.37-1.6,2.29-2.1.92-.5,2.17-.76,3.74-.76,2.12,0,3.71.46,4.78,1.39,1.06.93,1.59,2.28,1.59,4.06v6.54h1.39v3.27h-2.33ZM205.84,868.96c.7,0,1.3-.15,1.81-.45.5-.3.75-.79.75-1.47v-1.75h-2.05c-1.65,0-2.47.55-2.47,1.66v.42c0,.54.17.94.51,1.2.34.25.82.38,1.45.38Z"/>
    <path class="cls-6" d="M224.83,869.05h-.14c-.11.4-.29.77-.54,1.12-.25.35-.54.65-.9.91s-.75.45-1.19.6-.9.21-1.38.21c-1.9,0-3.33-.67-4.29-2-.97-1.34-1.45-3.27-1.45-5.81s.48-4.47,1.45-5.8c.97-1.33,2.4-1.99,4.29-1.99.97,0,1.82.27,2.57.8.75.53,1.23,1.21,1.44,2.05h.14v-8.61h4.21v21.04h-4.21v-2.5ZM222.07,868.48c.8,0,1.45-.19,1.98-.58.52-.39.78-.92.78-1.61v-4.41c0-.68-.26-1.22-.78-1.61-.52-.39-1.18-.58-1.98-.58s-1.46.28-1.98.84c-.52.56-.78,1.31-.78,2.26v2.59c0,.95.26,1.7.78,2.26.52.56,1.18.84,1.98.84Z"/>
    <path class="cls-6" d="M242.45,871.89c-1.44,0-2.65-.23-3.64-.7s-1.87-1.12-2.64-1.98l2.47-2.5c.53.59,1.12,1.05,1.76,1.39s1.37.51,2.19.51,1.41-.13,1.73-.38.48-.6.48-1.04c0-.7-.5-1.12-1.51-1.25l-1.62-.2c-3.35-.42-5.03-1.95-5.03-4.61,0-.72.14-1.38.41-1.98.27-.6.66-1.11,1.17-1.54.5-.43,1.11-.76,1.82-1,.71-.24,1.51-.35,2.4-.35.78,0,1.46.05,2.06.16.6.1,1.13.26,1.59.45.46.2.89.45,1.28.74.39.29.77.62,1.15.98l-2.42,2.47c-.47-.47-1.01-.85-1.61-1.12-.6-.27-1.21-.41-1.83-.41-.72,0-1.23.11-1.54.34-.3.23-.46.53-.46.91,0,.4.11.71.33.92s.63.37,1.24.47l1.68.23c3.28.44,4.92,1.93,4.92,4.49,0,.72-.15,1.38-.45,1.99-.3.61-.74,1.13-1.29,1.58-.56.45-1.23.79-2.02,1.04-.79.25-1.66.37-2.63.37Z"/>
    <path class="cls-6" d="M256.63,871.89c-1.1,0-2.08-.18-2.94-.54-.86-.36-1.59-.88-2.19-1.56-.6-.68-1.06-1.51-1.38-2.47-.32-.97-.48-2.05-.48-3.24s.16-2.27.48-3.24.78-1.79,1.38-2.46c.6-.67,1.33-1.19,2.19-1.55.86-.36,1.84-.54,2.94-.54s2.08.18,2.94.54c.86.36,1.59.88,2.19,1.55s1.06,1.49,1.38,2.46c.32.97.48,2.05.48,3.24s-.16,2.27-.48,3.24c-.32.97-.78,1.79-1.38,2.47-.6.68-1.33,1.2-2.19,1.56-.86.36-1.84.54-2.94.54ZM256.63,868.56c.83,0,1.48-.26,1.93-.77s.68-1.24.68-2.19v-3.04c0-.95-.23-1.68-.68-2.19s-1.1-.77-1.93-.77-1.48.26-1.93.77c-.45.51-.68,1.24-.68,2.19v3.04c0,.95.23,1.68.68,2.19.46.51,1.1.77,1.93.77Z"/>
    <path class="cls-6" d="M271.5,871.89c-1.12,0-2.11-.18-2.99-.55-.87-.37-1.6-.89-2.19-1.56-.59-.67-1.03-1.49-1.34-2.46-.3-.97-.46-2.05-.46-3.24s.15-2.27.46-3.23c.3-.96.75-1.78,1.34-2.46.59-.68,1.32-1.2,2.19-1.56.87-.36,1.87-.54,2.99-.54,1.52,0,2.78.34,3.79,1.02,1.01.68,1.74,1.64,2.17,2.87l-3.41,1.48c-.13-.57-.41-1.05-.82-1.45-.42-.4-1-.6-1.73-.6-.85,0-1.5.28-1.93.84-.44.56-.65,1.31-.65,2.26v2.79c0,.95.22,1.7.65,2.25.44.55,1.08.83,1.93.83.76,0,1.36-.2,1.8-.61s.77-.94.98-1.61l3.27,1.42c-.49,1.42-1.26,2.46-2.29,3.13-1.03.66-2.29,1-3.77,1Z"/>
    <path class="cls-6" d="M281.14,855.03c-.85,0-1.47-.19-1.86-.58-.39-.39-.58-.89-.58-1.49v-.63c0-.61.19-1.1.58-1.49s1.01-.58,1.86-.58,1.47.2,1.86.58c.39.39.58.89.58,1.49v.63c0,.61-.19,1.1-.58,1.49s-1.01.58-1.86.58ZM279.03,856.63h4.21v14.92h-4.21v-14.92Z"/>
    <path class="cls-6" d="M297.06,871.55c-.76,0-1.39-.24-1.89-.71-.5-.47-.82-1.11-.95-1.9h-.17c-.23.97-.73,1.7-1.51,2.2s-1.73.75-2.87.75c-1.5,0-2.64-.4-3.44-1.19s-1.19-1.84-1.19-3.15c0-1.57.57-2.73,1.72-3.5,1.15-.76,2.71-1.15,4.68-1.15h2.36v-.94c0-.72-.19-1.29-.57-1.72-.38-.43-1.01-.64-1.9-.64-.83,0-1.5.18-1.99.54-.49.36-.9.77-1.22,1.22l-2.5-2.23c.61-.9,1.37-1.6,2.29-2.1.92-.5,2.17-.76,3.74-.76,2.12,0,3.71.46,4.78,1.39s1.59,2.28,1.59,4.06v6.54h1.39v3.27h-2.33ZM291.23,868.96c.7,0,1.3-.15,1.81-.45.5-.3.75-.79.75-1.47v-1.75h-2.05c-1.65,0-2.47.55-2.47,1.66v.42c0,.54.17.94.51,1.2s.82.38,1.45.38Z"/>
    <path class="cls-6" d="M305.24,871.55c-1.44,0-2.5-.35-3.17-1.05-.67-.7-1.01-1.71-1.01-3.04v-16.94h4.21v17.77h1.88v3.27h-1.9Z"/>
    <path class="cls-6" d="M327.93,872.63c0,.8-.14,1.5-.41,2.1s-.72,1.12-1.35,1.55c-.63.43-1.46.75-2.49.97-1.03.22-2.31.33-3.82.33-1.29,0-2.38-.08-3.28-.24-.9-.16-1.63-.39-2.19-.68-.56-.29-.97-.65-1.22-1.08s-.38-.92-.38-1.46c0-.83.25-1.49.74-1.96s1.17-.77,2.05-.88v-.31c-.72-.13-1.26-.44-1.62-.93-.36-.48-.54-1.05-.54-1.69,0-.4.08-.75.24-1.04s.37-.55.63-.77c.26-.22.55-.39.9-.53.34-.13.68-.24,1.02-.31v-.11c-.91-.42-1.58-.99-2.02-1.72-.44-.73-.65-1.58-.65-2.54,0-1.51.53-2.73,1.58-3.65,1.05-.92,2.66-1.38,4.82-1.38.99,0,1.83.09,2.53.28v-.57c0-.8.19-1.37.58-1.72.39-.35.94-.53,1.66-.53h2.36v3.13h-3.3v.17c.87.42,1.52.99,1.93,1.72.42.73.62,1.58.62,2.54,0,1.5-.53,2.7-1.58,3.6-1.05.9-2.66,1.35-4.82,1.35-.97,0-1.85-.1-2.64-.31-.44.28-.65.68-.65,1.19,0,.36.14.64.41.84s.73.3,1.38.3h4.32c1.82,0,3.14.38,3.96,1.14s1.24,1.83,1.24,3.21ZM323.98,873.2c0-.44-.17-.77-.51-.99-.34-.23-.94-.34-1.79-.34h-5.12c-.19.19-.33.4-.41.64-.09.24-.13.47-.13.7,0,.55.24.95.71,1.21.47.26,1.28.38,2.42.38h1.71c1.14,0,1.94-.13,2.42-.38.47-.26.71-.66.71-1.21ZM319.91,863.48c.83,0,1.45-.17,1.86-.52.41-.35.61-.85.61-1.51v-.34c0-.66-.2-1.16-.61-1.51-.41-.35-1.03-.52-1.86-.52s-1.46.17-1.86.52c-.41.35-.61.85-.61,1.51v.34c0,.66.2,1.16.61,1.51.41.35,1.03.52,1.86.52Z"/>
    <path class="cls-6" d="M332.84,871.55c-1.44,0-2.5-.35-3.17-1.05-.67-.7-1.01-1.71-1.01-3.04v-16.94h4.21v17.77h1.88v3.27h-1.9Z"/>
    <path class="cls-6" d="M342.2,871.89c-1.1,0-2.08-.18-2.94-.54-.86-.36-1.59-.88-2.19-1.56-.6-.68-1.06-1.51-1.38-2.47-.32-.97-.48-2.05-.48-3.24s.16-2.27.48-3.24.78-1.79,1.38-2.46c.6-.67,1.33-1.19,2.19-1.55.86-.36,1.84-.54,2.94-.54s2.08.18,2.94.54c.86.36,1.59.88,2.19,1.55s1.06,1.49,1.38,2.46c.32.97.48,2.05.48,3.24s-.16,2.27-.48,3.24c-.32.97-.78,1.79-1.38,2.47-.6.68-1.33,1.2-2.19,1.56-.86.36-1.84.54-2.94.54ZM342.2,868.56c.83,0,1.48-.26,1.93-.77s.68-1.24.68-2.19v-3.04c0-.95-.23-1.68-.68-2.19s-1.1-.77-1.93-.77-1.48.26-1.93.77c-.45.51-.68,1.24-.68,2.19v3.04c0,.95.23,1.68.68,2.19.46.51,1.1.77,1.93.77Z"/>
    <path class="cls-6" d="M351.04,850.51h4.21v8.61h.14c.21-.83.69-1.52,1.44-2.05s1.61-.8,2.57-.8c1.89,0,3.33.66,4.29,1.99.97,1.33,1.45,3.26,1.45,5.8s-.48,4.48-1.45,5.81-2.4,2-4.29,2c-.49,0-.96-.07-1.39-.21s-.83-.34-1.18-.6-.65-.56-.9-.91c-.25-.35-.43-.72-.54-1.12h-.14v2.5h-4.21v-21.04ZM358,868.48c.8,0,1.45-.28,1.98-.84.52-.56.78-1.31.78-2.26v-2.59c0-.95-.26-1.7-.78-2.26-.52-.56-1.18-.84-1.98-.84s-1.45.19-1.98.58c-.52.39-.78.92-.78,1.61v4.41c0,.68.26,1.22.78,1.61.52.39,1.18.58,1.98.58Z"/>
    <path class="cls-6" d="M378.21,871.55c-.76,0-1.39-.24-1.89-.71-.5-.47-.82-1.11-.95-1.9h-.17c-.23.97-.73,1.7-1.51,2.2s-1.73.75-2.87.75c-1.5,0-2.64-.4-3.44-1.19s-1.19-1.84-1.19-3.15c0-1.57.57-2.73,1.72-3.5,1.15-.76,2.71-1.15,4.68-1.15h2.36v-.94c0-.72-.19-1.29-.57-1.72-.38-.43-1.01-.64-1.9-.64-.83,0-1.5.18-1.99.54-.49.36-.9.77-1.22,1.22l-2.5-2.23c.61-.9,1.37-1.6,2.29-2.1.92-.5,2.17-.76,3.74-.76,2.12,0,3.71.46,4.78,1.39s1.59,2.28,1.59,4.06v6.54h1.39v3.27h-2.33ZM372.38,868.96c.7,0,1.3-.15,1.81-.45.5-.3.75-.79.75-1.47v-1.75h-2.05c-1.65,0-2.47.55-2.47,1.66v.42c0,.54.17.94.51,1.2s.82.38,1.45.38Z"/>
    <path class="cls-6" d="M386.4,871.55c-1.44,0-2.5-.35-3.17-1.05-.67-.7-1.01-1.71-1.01-3.04v-16.94h4.21v17.77h1.88v3.27h-1.9Z"/>
    <path class="cls-6" d="M91.69,902.16c-1.12,0-2.11-.18-2.98-.55-.87-.37-1.6-.89-2.19-1.56-.59-.67-1.03-1.49-1.34-2.46-.3-.97-.45-2.05-.45-3.24s.15-2.27.45-3.23.75-1.78,1.34-2.46c.59-.68,1.32-1.2,2.19-1.56.87-.36,1.87-.54,2.98-.54,1.52,0,2.78.34,3.79,1.02,1.01.68,1.74,1.64,2.17,2.87l-3.41,1.48c-.13-.57-.41-1.05-.82-1.45-.42-.4-.99-.6-1.73-.6-.85,0-1.5.28-1.93.84-.44.56-.65,1.31-.65,2.26v2.79c0,.95.22,1.7.65,2.25.44.55,1.08.83,1.93.83.76,0,1.36-.2,1.81-.61.44-.41.77-.94.98-1.61l3.27,1.42c-.49,1.42-1.26,2.46-2.29,3.13-1.03.66-2.29,1-3.77,1Z"/>
    <path class="cls-6" d="M105.14,902.16c-1.1,0-2.08-.18-2.94-.54-.86-.36-1.59-.88-2.19-1.56-.6-.68-1.06-1.51-1.38-2.47-.32-.97-.48-2.05-.48-3.24s.16-2.27.48-3.24c.32-.97.78-1.79,1.38-2.46.6-.67,1.33-1.19,2.19-1.55.86-.36,1.84-.54,2.94-.54s2.08.18,2.94.54c.86.36,1.59.88,2.19,1.55.6.67,1.06,1.49,1.38,2.46s.48,2.05.48,3.24-.16,2.27-.48,3.24c-.32.97-.78,1.79-1.38,2.47-.6.68-1.33,1.2-2.19,1.56-.86.36-1.84.54-2.94.54ZM105.14,898.83c.83,0,1.48-.26,1.93-.77.46-.51.68-1.24.68-2.19v-3.04c0-.95-.23-1.68-.68-2.19-.45-.51-1.1-.77-1.93-.77s-1.48.26-1.93.77c-.46.51-.68,1.24-.68,2.19v3.04c0,.95.23,1.68.68,2.19.45.51,1.1.77,1.93.77Z"/>
    <path class="cls-6" d="M113.98,901.82v-14.92h4.21v2.53h.17c.27-.78.73-1.45,1.39-2.02.66-.57,1.58-.85,2.76-.85,1.54,0,2.7.51,3.48,1.53.79,1.02,1.18,2.48,1.18,4.38v9.35h-4.21v-9.01c0-.97-.15-1.68-.46-2.15s-.84-.7-1.62-.7c-.34,0-.67.04-1,.13-.32.08-.61.22-.87.41s-.46.42-.61.7c-.15.27-.23.59-.23.95v9.67h-4.21Z"/>
    <path class="cls-6" d="M138.54,901.82l-4.89-14.92h4.15l1.85,6.03,1.39,5.4h.23l1.39-5.4,1.79-6.03h3.98l-4.89,14.92h-5Z"/>
    <path class="cls-6" d="M149.51,901.82v-14.92h4.21v14.92h-4.21ZM152.1,885.36l-2.5-1.22,2.81-5.51,3.5,1.73-3.81,5Z"/>
    <path class="cls-6" d="M156.5,901.82v-14.92h4.21v2.53h.17c.27-.78.73-1.45,1.39-2.02.66-.57,1.58-.85,2.76-.85,1.54,0,2.7.51,3.48,1.53.79,1.02,1.18,2.48,1.18,4.38v9.35h-4.21v-9.01c0-.97-.15-1.68-.46-2.15s-.84-.7-1.62-.7c-.34,0-.67.04-1,.13-.32.08-.61.22-.87.41s-.46.42-.61.7c-.15.27-.23.59-.23.95v9.67h-4.21Z"/>
    <path class="cls-6" d="M178.33,902.16c-1.12,0-2.11-.18-2.98-.55-.87-.37-1.6-.89-2.19-1.56-.59-.67-1.03-1.49-1.34-2.46-.3-.97-.45-2.05-.45-3.24s.15-2.27.45-3.23.75-1.78,1.34-2.46c.59-.68,1.32-1.2,2.19-1.56.87-.36,1.87-.54,2.98-.54,1.52,0,2.78.34,3.79,1.02,1.01.68,1.74,1.64,2.17,2.87l-3.41,1.48c-.13-.57-.41-1.05-.82-1.45-.42-.4-.99-.6-1.73-.6-.85,0-1.5.28-1.93.84-.44.56-.65,1.31-.65,2.26v2.79c0,.95.22,1.7.65,2.25.44.55,1.08.83,1.93.83.76,0,1.36-.2,1.81-.61.44-.41.77-.94.98-1.61l3.27,1.42c-.49,1.42-1.26,2.46-2.29,3.13-1.03.66-2.29,1-3.77,1Z"/>
    <path class="cls-6" d="M194.68,899.31h-.14c-.13.38-.31.74-.53,1.08-.22.34-.5.64-.84.91-.34.27-.74.47-1.21.62-.46.15-1,.23-1.61.23-1.53,0-2.7-.51-3.48-1.52-.79-1.01-1.18-2.47-1.18-4.36v-9.38h4.21v9.01c0,.91.16,1.61.48,2.1.32.49.87.74,1.65.74.32,0,.64-.05.97-.14.32-.09.61-.23.85-.41.25-.18.45-.4.6-.67.15-.27.23-.58.23-.94v-9.69h4.21v14.92h-4.21v-2.5Z"/>
    <path class="cls-6" d="M205.85,901.82c-1.44,0-2.5-.35-3.17-1.05-.67-.7-1.01-1.71-1.01-3.04v-16.94h4.21v17.77h1.88v3.27h-1.9Z"/>
    <path class="cls-6" d="M215.2,902.16c-1.1,0-2.08-.18-2.94-.54-.86-.36-1.59-.88-2.19-1.56-.6-.68-1.06-1.51-1.38-2.47-.32-.97-.48-2.05-.48-3.24s.16-2.27.48-3.24c.32-.97.78-1.79,1.38-2.46.6-.67,1.33-1.19,2.19-1.55.86-.36,1.84-.54,2.94-.54s2.08.18,2.94.54c.86.36,1.59.88,2.19,1.55s1.06,1.49,1.38,2.46c.32.97.48,2.05.48,3.24s-.16,2.27-.48,3.24c-.32.97-.78,1.79-1.38,2.47-.6.68-1.33,1.2-2.19,1.56-.86.36-1.84.54-2.94.54ZM215.2,898.83c.83,0,1.48-.26,1.93-.77s.68-1.24.68-2.19v-3.04c0-.95-.23-1.68-.68-2.19s-1.1-.77-1.93-.77-1.48.26-1.93.77c-.45.51-.68,1.24-.68,2.19v3.04c0,.95.23,1.68.68,2.19.46.51,1.1.77,1.93.77Z"/>
    <path class="cls-6" d="M229.1,902.16c-1.44,0-2.65-.23-3.64-.7s-1.87-1.12-2.64-1.98l2.47-2.5c.53.59,1.12,1.05,1.76,1.39s1.37.51,2.19.51,1.41-.13,1.73-.38.48-.6.48-1.04c0-.7-.5-1.12-1.51-1.25l-1.62-.2c-3.35-.42-5.03-1.95-5.03-4.61,0-.72.14-1.38.41-1.98.27-.6.66-1.11,1.17-1.54.5-.43,1.11-.76,1.82-1,.71-.24,1.51-.35,2.4-.35.78,0,1.46.05,2.06.16.6.1,1.13.26,1.59.45.46.2.89.45,1.28.74.39.29.77.62,1.15.98l-2.42,2.47c-.47-.47-1.01-.85-1.61-1.12-.6-.27-1.21-.41-1.83-.41-.72,0-1.23.11-1.54.34-.3.23-.46.53-.46.91,0,.4.11.71.33.92s.63.37,1.24.47l1.68.23c3.28.44,4.92,1.93,4.92,4.49,0,.72-.15,1.38-.45,1.99-.3.61-.74,1.13-1.29,1.58-.56.45-1.23.79-2.02,1.04-.79.25-1.66.37-2.63.37Z"/>
    <path class="cls-6" d="M246.98,901.82c-1.44,0-2.5-.35-3.17-1.05-.67-.7-1.01-1.71-1.01-3.04v-16.94h4.21v17.77h1.88v3.27h-1.9Z"/>
    <path class="cls-6" d="M256.34,902.16c-1.1,0-2.08-.18-2.94-.54-.86-.36-1.59-.88-2.19-1.56-.6-.68-1.06-1.51-1.38-2.47-.32-.97-.48-2.05-.48-3.24s.16-2.27.48-3.24.78-1.79,1.38-2.46c.6-.67,1.33-1.19,2.19-1.55.86-.36,1.84-.54,2.94-.54s2.08.18,2.94.54c.86.36,1.59.88,2.19,1.55s1.06,1.49,1.38,2.46c.32.97.48,2.05.48,3.24s-.16,2.27-.48,3.24c-.32.97-.78,1.79-1.38,2.47-.6.68-1.33,1.2-2.19,1.56-.86.36-1.84.54-2.94.54ZM256.34,898.83c.83,0,1.48-.26,1.93-.77s.68-1.24.68-2.19v-3.04c0-.95-.23-1.68-.68-2.19s-1.1-.77-1.93-.77-1.48.26-1.93.77c-.45.51-.68,1.24-.68,2.19v3.04c0,.95.23,1.68.68,2.19.46.51,1.1.77,1.93.77Z"/>
    <path class="cls-6" d="M278.99,902.9c0,.8-.14,1.5-.41,2.1s-.72,1.12-1.35,1.55c-.63.43-1.46.75-2.49.97-1.03.22-2.31.33-3.82.33-1.29,0-2.38-.08-3.28-.24-.9-.16-1.63-.39-2.19-.68-.56-.29-.97-.65-1.22-1.08s-.38-.92-.38-1.46c0-.83.25-1.49.74-1.96s1.17-.77,2.05-.88v-.31c-.72-.13-1.26-.44-1.62-.93-.36-.48-.54-1.05-.54-1.69,0-.4.08-.75.24-1.04s.37-.55.63-.77c.26-.22.55-.39.9-.53.34-.13.68-.24,1.02-.31v-.11c-.91-.42-1.58-.99-2.02-1.72-.44-.73-.65-1.58-.65-2.54,0-1.51.53-2.73,1.58-3.65,1.05-.92,2.66-1.38,4.82-1.38.99,0,1.83.09,2.53.28v-.57c0-.8.19-1.37.58-1.72.39-.35.94-.53,1.66-.53h2.36v3.13h-3.3v.17c.87.42,1.52.99,1.93,1.72.42.73.62,1.58.62,2.54,0,1.5-.53,2.7-1.58,3.6-1.05.9-2.66,1.35-4.82,1.35-.97,0-1.85-.1-2.64-.31-.44.28-.65.68-.65,1.19,0,.36.14.64.41.84s.73.3,1.38.3h4.32c1.82,0,3.14.38,3.96,1.14s1.24,1.83,1.24,3.21ZM275.04,903.46c0-.44-.17-.77-.51-.99-.34-.23-.94-.34-1.79-.34h-5.12c-.19.19-.33.4-.41.64-.09.24-.13.47-.13.7,0,.55.24.95.71,1.21.47.26,1.28.38,2.42.38h1.71c1.14,0,1.94-.13,2.42-.38.47-.26.71-.66.71-1.21ZM270.98,893.74c.83,0,1.45-.17,1.86-.52.41-.35.61-.85.61-1.51v-.34c0-.66-.2-1.16-.61-1.51-.41-.35-1.03-.52-1.86-.52s-1.46.17-1.86.52c-.41.35-.61.85-.61,1.51v.34c0,.66.2,1.16.61,1.51.41.35,1.03.52,1.86.52Z"/>
    <path class="cls-6" d="M290.7,901.82c-.76,0-1.39-.24-1.89-.71-.5-.47-.82-1.11-.95-1.9h-.17c-.23.97-.73,1.7-1.51,2.2s-1.73.75-2.87.75c-1.5,0-2.64-.4-3.44-1.19s-1.19-1.84-1.19-3.15c0-1.57.57-2.73,1.72-3.5,1.15-.76,2.71-1.15,4.68-1.15h2.36v-.94c0-.72-.19-1.29-.57-1.72-.38-.43-1.01-.64-1.9-.64-.83,0-1.5.18-1.99.54-.49.36-.9.77-1.22,1.22l-2.5-2.23c.61-.9,1.37-1.6,2.29-2.1.92-.5,2.17-.76,3.74-.76,2.12,0,3.71.46,4.78,1.39s1.59,2.28,1.59,4.06v6.54h1.39v3.27h-2.33ZM284.88,899.23c.7,0,1.3-.15,1.81-.45.5-.3.75-.79.75-1.47v-1.75h-2.05c-1.65,0-2.47.55-2.47,1.66v.42c0,.54.17.94.51,1.2s.82.38,1.45.38Z"/>
    <path class="cls-6" d="M298.89,901.82c-1.44,0-2.5-.35-3.17-1.05-.67-.7-1.01-1.71-1.01-3.04v-16.94h4.21v17.77h1.88v3.27h-1.9Z"/>
    <path class="cls-6" d="M308.41,902.16c-1.14,0-2.15-.18-3.04-.55-.89-.37-1.64-.89-2.26-1.56-.62-.67-1.08-1.49-1.39-2.46-.31-.97-.47-2.05-.47-3.24s.15-2.24.46-3.2c.3-.96.75-1.78,1.35-2.46.6-.68,1.33-1.21,2.2-1.58.87-.37,1.87-.55,2.99-.55,1.23,0,2.29.21,3.17.62.88.42,1.6.98,2.16,1.68.56.7.97,1.51,1.22,2.43.26.92.38,1.88.38,2.89v1.25h-9.58v.23c0,.98.26,1.75.8,2.33.53.57,1.36.86,2.5.86.87,0,1.58-.17,2.13-.52.55-.35,1.06-.77,1.54-1.25l2.1,2.62c-.66.78-1.53,1.39-2.6,1.82-1.07.44-2.29.66-3.65.66ZM308.33,889.65c-.85,0-1.52.28-2,.84-.48.56-.72,1.3-.72,2.23v.23h5.23v-.26c0-.91-.2-1.64-.61-2.2-.41-.56-1.04-.84-1.89-.84Z"/>
    <path class="cls-6" d="M322.09,902.16c-1.44,0-2.65-.23-3.64-.7s-1.87-1.12-2.64-1.98l2.47-2.5c.53.59,1.12,1.05,1.76,1.39s1.37.51,2.19.51,1.41-.13,1.73-.38.48-.6.48-1.04c0-.7-.5-1.12-1.51-1.25l-1.62-.2c-3.35-.42-5.03-1.95-5.03-4.61,0-.72.14-1.38.41-1.98.27-.6.66-1.11,1.17-1.54.5-.43,1.11-.76,1.82-1,.71-.24,1.51-.35,2.4-.35.78,0,1.46.05,2.06.16.6.1,1.13.26,1.59.45.46.2.89.45,1.28.74.39.29.77.62,1.15.98l-2.42,2.47c-.47-.47-1.01-.85-1.61-1.12-.6-.27-1.21-.41-1.83-.41-.72,0-1.23.11-1.54.34-.3.23-.46.53-.46.91,0,.4.11.71.33.92s.63.37,1.24.47l1.68.23c3.28.44,4.92,1.93,4.92,4.49,0,.72-.15,1.38-.45,1.99-.3.61-.74,1.13-1.29,1.58-.56.45-1.23.79-2.02,1.04-.79.25-1.66.37-2.63.37Z"/>
  </g>
</svg>