<?xml version="1.0" encoding="UTF-8"?>
<svg id="Capa_1" data-name="Capa 1" xmlns="http://www.w3.org/2000/svg" viewBox="0 0 1224.75 525.58">
  <defs>
    <style>
      .cls-1 {
        stroke-width: .91px;
      }

      .cls-1, .cls-2, .cls-3 {
        fill: none;
        stroke: #1d1d1b;
        stroke-miterlimit: 10;
      }

      .cls-4 {
        fill: #6843e1;
      }

      .cls-5 {
        isolation: isolate;
      }

      .cls-2 {
        stroke-width: .9px;
      }

      .cls-3 {
        stroke-width: .9px;
      }

      .cls-6 {
        fill: #1d1d1b;
      }
    </style>
  </defs>
  <g class="cls-5">
    <g class="cls-5">
      <path class="cls-6" d="m233.72,43.83h9.29c1.59,0,2.83.45,3.71,1.34.89.9,1.33,2.08,1.33,3.56,0,.73-.1,1.35-.29,1.86-.19.51-.45.93-.77,1.26-.32.33-.69.57-1.12.73s-.89.24-1.38.26v.16c.46,0,.94.08,1.44.25.5.16.96.42,1.38.78.42.36.77.82,1.06,1.38.28.57.42,1.26.42,2.08,0,.75-.12,1.46-.37,2.12s-.59,1.25-1.03,1.74c-.44.49-.96.88-1.56,1.16-.6.28-1.26.42-1.97.42h-10.14v-19.13Zm4.17,7.84h4.14c.55,0,.98-.15,1.29-.47.31-.31.47-.74.47-1.29v-.82c0-.55-.16-.98-.47-1.29-.31-.31-.74-.47-1.29-.47h-4.14v4.33Zm0,7.78h4.8c.55,0,.98-.15,1.3-.45.32-.3.48-.73.48-1.27v-.93c0-.55-.16-.97-.48-1.27-.32-.3-.75-.45-1.3-.45h-4.8v4.39Z"/>
      <path class="cls-6" d="m256.55,63.29c-1.06,0-2.01-.17-2.84-.52-.83-.35-1.53-.85-2.11-1.51s-1.02-1.45-1.33-2.38c-.31-.93-.47-1.97-.47-3.12s.15-2.19.47-3.12c.31-.93.75-1.72,1.33-2.37.58-.65,1.28-1.15,2.11-1.49.83-.35,1.78-.52,2.84-.52s2,.17,2.84.52c.83.35,1.53.85,2.11,1.49.58.65,1.02,1.44,1.33,2.37.31.93.47,1.97.47,3.12s-.16,2.19-.47,3.12c-.31.93-.75,1.73-1.33,2.38s-1.28,1.16-2.11,1.51c-.83.35-1.78.52-2.84.52Zm0-3.21c.8,0,1.43-.25,1.86-.74s.66-1.2.66-2.11v-2.93c0-.91-.22-1.62-.66-2.11s-1.06-.74-1.86-.74-1.43.25-1.86.74-.66,1.2-.66,2.11v2.93c0,.91.22,1.62.66,2.11s1.06.74,1.86.74Z"/>
      <path class="cls-6" d="m275.73,62.96c-.73,0-1.34-.23-1.82-.69-.48-.46-.79-1.07-.92-1.84h-.16c-.22.93-.7,1.64-1.45,2.12-.75.48-1.67.73-2.77.73-1.44,0-2.55-.38-3.32-1.15-.77-.76-1.15-1.78-1.15-3.03,0-1.51.55-2.64,1.66-3.37,1.11-.74,2.61-1.11,4.51-1.11h2.27v-.9c0-.69-.18-1.25-.55-1.66-.37-.41-.98-.62-1.84-.62-.8,0-1.44.17-1.92.52-.48.35-.87.74-1.18,1.18l-2.41-2.15c.58-.86,1.32-1.54,2.21-2.03s2.09-.73,3.6-.73c2.05,0,3.58.45,4.6,1.34,1.02.9,1.53,2.2,1.53,3.92v6.3h1.34v3.15h-2.25Zm-5.62-2.49c.68,0,1.26-.14,1.74-.44.48-.29.73-.76.73-1.41v-1.69h-1.97c-1.59,0-2.38.53-2.38,1.6v.41c0,.53.16.91.49,1.16.33.24.79.37,1.4.37Z"/>
    </g>
    <g class="cls-5">
      <path class="cls-6" d="m279.54,62.96v-14.39h4.06v3.12h.14c.07-.4.2-.79.38-1.17.18-.37.42-.71.73-1,.3-.29.66-.53,1.08-.7.42-.17.91-.26,1.48-.26h.71v3.78h-1.01c-1.19,0-2.07.16-2.64.47-.58.31-.86.89-.86,1.73v8.41h-4.06Z"/>
    </g>
    <g class="cls-5">
      <path class="cls-6" d="m298.23,60.55h-.14c-.11.38-.28.74-.52,1.08-.24.34-.53.63-.86.88-.34.25-.72.44-1.15.58-.43.14-.87.21-1.33.21-1.83,0-3.21-.64-4.14-1.93s-1.4-3.16-1.4-5.6.47-4.31,1.4-5.59c.93-1.28,2.31-1.92,4.14-1.92.93,0,1.76.26,2.48.77.72.51,1.18,1.17,1.38,1.97h.14v-8.3h4.06v20.28h-4.06v-2.41Zm-2.66-.55c.77,0,1.4-.19,1.9-.56s.75-.89.75-1.55v-4.25c0-.66-.25-1.17-.75-1.55-.5-.37-1.14-.56-1.9-.56s-1.4.27-1.9.81c-.5.54-.75,1.27-.75,2.18v2.49c0,.91.25,1.64.75,2.18.5.54,1.14.81,1.9.81Z"/>
      <path class="cls-6" d="m310.4,48.57h4.06v2.41h.14c.2-.8.66-1.46,1.38-1.97.72-.51,1.55-.77,2.48-.77,1.83,0,3.21.64,4.14,1.92.93,1.28,1.4,3.14,1.4,5.59s-.47,4.32-1.4,5.6c-.93,1.29-2.31,1.93-4.14,1.93-.48,0-.92-.07-1.34-.21-.42-.14-.8-.33-1.14-.58-.34-.25-.63-.54-.86-.88-.24-.34-.41-.7-.52-1.08h-.14v7.89h-4.06v-19.87Zm6.71,11.43c.77,0,1.4-.27,1.9-.81.5-.54.75-1.26.75-2.18v-2.49c0-.91-.25-1.64-.75-2.18-.5-.54-1.14-.81-1.9-.81s-1.4.19-1.9.56c-.5.38-.75.89-.75,1.55v4.25c0,.66.25,1.17.75,1.55s1.14.56,1.9.56Z"/>
      <path class="cls-6" d="m331.83,63.29c-1.06,0-2.01-.17-2.84-.52-.83-.35-1.53-.85-2.11-1.51s-1.02-1.45-1.33-2.38c-.31-.93-.47-1.97-.47-3.12s.15-2.19.47-3.12c.31-.93.75-1.72,1.33-2.37.58-.65,1.28-1.15,2.11-1.49.83-.35,1.78-.52,2.84-.52s2,.17,2.84.52c.83.35,1.53.85,2.11,1.49.58.65,1.02,1.44,1.33,2.37.31.93.47,1.97.47,3.12s-.16,2.19-.47,3.12c-.31.93-.75,1.73-1.33,2.38s-1.28,1.16-2.11,1.51c-.83.35-1.78.52-2.84.52Zm0-3.21c.8,0,1.43-.25,1.86-.74s.66-1.2.66-2.11v-2.93c0-.91-.22-1.62-.66-2.11s-1.06-.74-1.86-.74-1.43.25-1.86.74-.66,1.2-.66,2.11v2.93c0,.91.22,1.62.66,2.11s1.06.74,1.86.74Z"/>
    </g>
    <g class="cls-5">
      <path class="cls-6" d="m340.27,62.96v-14.39h4.06v3.12h.14c.07-.4.2-.79.38-1.17.18-.37.42-.71.73-1,.3-.29.66-.53,1.08-.7.42-.17.91-.26,1.48-.26h.71v3.78h-1.01c-1.19,0-2.07.16-2.64.47-.58.31-.86.89-.86,1.73v8.41h-4.06Z"/>
    </g>
    <g class="cls-5">
      <path class="cls-6" d="m355.4,62.96c-1.41,0-2.47-.36-3.19-1.07s-1.08-1.75-1.08-3.12v-7.04h-2.03v-3.15h1.01c.55,0,.92-.13,1.12-.4.2-.26.3-.64.3-1.14v-2.36h3.65v3.89h2.85v3.15h-2.85v8.08h2.63v3.15h-2.41Z"/>
    </g>
    <g class="cls-5">
      <path class="cls-6" d="m360.47,51.72h-2.03v-3.15h2.03v-1.7c0-1.39.37-2.43,1.1-3.14.73-.7,1.8-1.06,3.21-1.06h2.63v3.15h-2.88v2.74h2.88v3.15h-2.88v11.24h-4.06v-11.24Z"/>
    </g>
    <g class="cls-5">
      <path class="cls-6" d="m374.28,63.29c-1.06,0-2.01-.17-2.84-.52-.83-.35-1.53-.85-2.11-1.51s-1.02-1.45-1.33-2.38c-.31-.93-.47-1.97-.47-3.12s.15-2.19.47-3.12c.31-.93.75-1.72,1.33-2.37.58-.65,1.28-1.15,2.11-1.49.83-.35,1.78-.52,2.84-.52s2,.17,2.84.52c.83.35,1.53.85,2.11,1.49.58.65,1.02,1.44,1.33,2.37.31.93.47,1.97.47,3.12s-.16,2.19-.47,3.12c-.31.93-.75,1.73-1.33,2.38s-1.28,1.16-2.11,1.51c-.83.35-1.78.52-2.84.52Zm0-3.21c.8,0,1.43-.25,1.86-.74s.66-1.2.66-2.11v-2.93c0-.91-.22-1.62-.66-2.11s-1.06-.74-1.86-.74-1.43.25-1.86.74-.66,1.2-.66,2.11v2.93c0,.91.22,1.62.66,2.11s1.06.74,1.86.74Z"/>
      <path class="cls-6" d="m386.86,62.96c-1.39,0-2.41-.34-3.06-1.01-.65-.68-.97-1.65-.97-2.93v-16.33h4.06v17.13h1.81v3.15h-1.84Z"/>
      <path class="cls-6" d="m392.1,47.04c-.82,0-1.42-.19-1.79-.56-.37-.37-.56-.85-.56-1.44v-.6c0-.58.19-1.06.56-1.44s.97-.56,1.79-.56,1.42.19,1.8.56c.37.37.56.85.56,1.44v.6c0,.58-.19,1.06-.56,1.44s-.97.56-1.8.56Zm-2.03,1.53h4.06v14.39h-4.06v-14.39Z"/>
      <path class="cls-6" d="m402.68,63.29c-1.06,0-2.01-.17-2.84-.52-.83-.35-1.53-.85-2.11-1.51s-1.02-1.45-1.33-2.38c-.31-.93-.47-1.97-.47-3.12s.15-2.19.47-3.12c.31-.93.75-1.72,1.33-2.37.58-.65,1.28-1.15,2.11-1.49.83-.35,1.78-.52,2.84-.52s2,.17,2.84.52c.83.35,1.53.85,2.11,1.49.58.65,1.02,1.44,1.33,2.37.31.93.47,1.97.47,3.12s-.16,2.19-.47,3.12c-.31.93-.75,1.73-1.33,2.38s-1.28,1.16-2.11,1.51c-.83.35-1.78.52-2.84.52Zm0-3.21c.8,0,1.43-.25,1.86-.74s.66-1.2.66-2.11v-2.93c0-.91-.22-1.62-.66-2.11s-1.06-.74-1.86-.74-1.43.25-1.86.74-.66,1.2-.66,2.11v2.93c0,.91.22,1.62.66,2.11s1.06.74,1.86.74Z"/>
    </g>
  </g>
  <rect class="cls-1" x="140.04" y=".86" width="361.84" height="111.14" rx="55.57" ry="55.57"/>
  <path class="cls-1" d="m760.02.46h250.7c30.69,0,55.57,24.88,55.57,55.57h0c0,30.69-24.88,55.57-55.57,55.57h-250.7c-30.69,0-55.57-24.88-55.57-55.57h0c0-30.69,24.88-55.57,55.57-55.57Z"/>
  <g class="cls-5">
    <g class="cls-5">
      <path class="cls-6" d="m790.1,47.97c-1.3,0-2.47-.21-3.51-.62-1.04-.41-1.93-1.02-2.66-1.84-.73-.81-1.3-1.83-1.7-3.04-.4-1.21-.6-2.64-.6-4.26s.2-3.04.6-4.29c.4-1.25.97-2.3,1.7-3.15.73-.85,1.62-1.49,2.66-1.93,1.04-.44,2.21-.66,3.51-.66,1.77,0,3.23.36,4.38,1.08,1.15.72,2.07,1.86,2.77,3.41l-3.59,1.86c-.26-.8-.65-1.45-1.19-1.93-.54-.48-1.33-.73-2.37-.73-1.22,0-2.21.4-2.95,1.19-.74.79-1.11,1.95-1.11,3.47v3.07c0,1.52.37,2.67,1.11,3.47.74.79,1.72,1.19,2.95,1.19,1.02,0,1.84-.28,2.45-.84.61-.56,1.06-1.23,1.36-2.01l3.4,1.97c-.71,1.46-1.65,2.59-2.81,3.38s-2.63,1.19-4.4,1.19Z"/>
      <path class="cls-6" d="m804.76,47.97c-1.06,0-2-.17-2.84-.52-.83-.35-1.53-.85-2.11-1.51-.58-.66-1.02-1.45-1.33-2.38s-.47-1.97-.47-3.12.16-2.19.47-3.12.75-1.72,1.33-2.37c.58-.65,1.28-1.15,2.11-1.49.83-.35,1.78-.52,2.84-.52s2,.17,2.84.52c.83.35,1.53.85,2.11,1.49.58.65,1.02,1.44,1.33,2.37.31.93.47,1.97.47,3.12s-.16,2.19-.47,3.12c-.31.93-.75,1.73-1.33,2.38-.58.66-1.28,1.16-2.11,1.51-.83.35-1.78.52-2.84.52Zm0-3.21c.8,0,1.42-.25,1.86-.74s.66-1.2.66-2.11v-2.93c0-.91-.22-1.62-.66-2.11s-1.06-.74-1.86-.74-1.42.25-1.86.74-.66,1.2-.66,2.11v2.93c0,.91.22,1.62.66,2.11s1.06.74,1.86.74Z"/>
      <path class="cls-6" d="m813.31,47.64v-14.39h4.06v2.44h.16c.26-.77.69-1.42,1.32-1.96.62-.54,1.47-.81,2.55-.81.99,0,1.83.25,2.52.74s1.2,1.22,1.51,2.17h.08c.13-.4.32-.78.59-1.14.26-.36.59-.66.97-.92.38-.26.81-.46,1.29-.62.48-.16.99-.23,1.54-.23,1.39,0,2.45.49,3.19,1.48.74.99,1.11,2.39,1.11,4.22v9.02h-4.06v-8.69c0-1.83-.66-2.74-1.97-2.74-.6,0-1.15.17-1.64.52-.49.35-.74.88-.74,1.59v9.32h-4.06v-8.69c0-1.83-.66-2.74-1.97-2.74-.29,0-.58.04-.86.12-.28.08-.54.22-.77.4-.23.18-.41.41-.55.67-.14.27-.21.57-.21.92v9.32h-4.06Z"/>
      <path class="cls-6" d="m836.74,33.25h4.06v2.41h.14c.2-.8.66-1.46,1.38-1.97.72-.51,1.55-.77,2.48-.77,1.83,0,3.21.64,4.14,1.92.93,1.28,1.4,3.14,1.4,5.59s-.47,4.32-1.4,5.6-2.31,1.93-4.14,1.93c-.48,0-.92-.07-1.34-.21-.42-.14-.8-.33-1.14-.58s-.63-.54-.86-.88c-.24-.34-.41-.7-.52-1.08h-.14v7.89h-4.06v-19.87Zm6.71,11.43c.77,0,1.4-.27,1.9-.81.5-.54.75-1.26.75-2.18v-2.49c0-.91-.25-1.64-.75-2.18-.5-.54-1.14-.81-1.9-.81s-1.4.19-1.9.56c-.5.38-.75.89-.75,1.55v4.25c0,.66.25,1.17.75,1.55.5.37,1.14.56,1.9.56Z"/>
      <path class="cls-6" d="m858.34,47.97c-1.1,0-2.07-.18-2.93-.53-.86-.36-1.59-.86-2.18-1.51-.59-.65-1.04-1.44-1.34-2.37-.3-.93-.45-1.97-.45-3.12s.15-2.16.44-3.08c.29-.92.73-1.71,1.3-2.37.58-.66,1.28-1.16,2.12-1.52.84-.36,1.8-.53,2.88-.53,1.19,0,2.21.2,3.06.6.85.4,1.54.94,2.08,1.62.54.68.93,1.46,1.18,2.34.25.89.37,1.81.37,2.78v1.21h-9.24v.22c0,.94.26,1.69.77,2.24.51.55,1.32.83,2.41.83.84,0,1.53-.17,2.06-.5s1.02-.74,1.48-1.21l2.03,2.53c-.64.75-1.48,1.34-2.51,1.76-1.03.42-2.21.63-3.52.63Zm-.08-12.06c-.82,0-1.47.27-1.93.81-.47.54-.7,1.26-.7,2.15v.22h5.04v-.25c0-.88-.2-1.58-.59-2.12-.39-.54-1-.81-1.82-.81Z"/>
      <path class="cls-6" d="m871.71,47.64c-1.41,0-2.47-.36-3.19-1.07-.72-.71-1.08-1.75-1.08-3.12v-7.04h-2.03v-3.15h1.01c.55,0,.92-.13,1.12-.4.2-.26.3-.64.3-1.14v-2.36h3.65v3.89h2.85v3.15h-2.85v8.08h2.63v3.15h-2.41Z"/>
      <path class="cls-6" d="m878.12,31.72c-.82,0-1.42-.19-1.79-.56-.38-.37-.56-.85-.56-1.44v-.6c0-.58.19-1.06.56-1.44.37-.37.97-.56,1.79-.56s1.42.19,1.79.56c.38.37.56.85.56,1.44v.6c0,.58-.19,1.06-.56,1.44-.37.38-.97.56-1.79.56Zm-2.03,1.53h4.06v14.39h-4.06v-14.39Z"/>
      <path class="cls-6" d="m887.91,47.64c-1.41,0-2.47-.36-3.19-1.07-.72-.71-1.08-1.75-1.08-3.12v-7.04h-2.03v-3.15h1.01c.55,0,.92-.13,1.12-.4.2-.26.3-.64.3-1.14v-2.36h3.65v3.89h2.85v3.15h-2.85v8.08h2.63v3.15h-2.41Z"/>
      <path class="cls-6" d="m894.32,31.72c-.82,0-1.42-.19-1.79-.56-.38-.37-.56-.85-.56-1.44v-.6c0-.58.19-1.06.56-1.44.37-.37.97-.56,1.79-.56s1.42.19,1.79.56c.38.37.56.85.56,1.44v.6c0,.58-.19,1.06-.56,1.44-.37.38-.97.56-1.79.56Zm-2.03,1.53h4.06v14.39h-4.06v-14.39Z"/>
    </g>
    <g class="cls-5">
      <path class="cls-6" d="m901.89,47.64l-4.71-14.39h4l1.78,5.81,1.34,5.21h.22l1.34-5.21,1.73-5.81h3.84l-4.71,14.39h-4.82Z"/>
    </g>
    <g class="cls-5">
      <path class="cls-6" d="m918.25,47.97c-1.1,0-2.07-.18-2.93-.53-.86-.36-1.59-.86-2.18-1.51-.59-.65-1.04-1.44-1.34-2.37-.3-.93-.45-1.97-.45-3.12s.15-2.16.44-3.08c.29-.92.73-1.71,1.3-2.37.58-.66,1.28-1.16,2.12-1.52.84-.36,1.8-.53,2.88-.53,1.19,0,2.21.2,3.06.6.85.4,1.54.94,2.08,1.62.54.68.93,1.46,1.18,2.34.25.89.37,1.81.37,2.78v1.21h-9.24v.22c0,.94.26,1.69.77,2.24.51.55,1.32.83,2.41.83.84,0,1.53-.17,2.06-.5s1.02-.74,1.48-1.21l2.03,2.53c-.64.75-1.48,1.34-2.51,1.76-1.03.42-2.21.63-3.52.63Zm-.08-12.06c-.82,0-1.47.27-1.93.81-.47.54-.7,1.26-.7,2.15v.22h5.04v-.25c0-.88-.2-1.58-.59-2.12-.39-.54-1-.81-1.82-.81Z"/>
    </g>
    <g class="cls-5">
      <path class="cls-6" d="m931.92,47.64v-14.39h4.06v3.12h.14c.07-.4.2-.79.38-1.17.18-.37.42-.71.73-1,.3-.29.66-.53,1.08-.7.42-.17.91-.26,1.48-.26h.71v3.78h-1.01c-1.19,0-2.07.16-2.64.47-.58.31-.86.89-.86,1.73v8.41h-4.06Z"/>
    </g>
    <g class="cls-5">
      <path class="cls-6" d="m952.15,47.64c-.73,0-1.34-.23-1.82-.69-.48-.46-.79-1.07-.92-1.84h-.17c-.22.93-.7,1.64-1.45,2.12s-1.67.73-2.77.73c-1.44,0-2.55-.38-3.32-1.15s-1.15-1.78-1.15-3.03c0-1.51.55-2.64,1.66-3.37,1.11-.74,2.61-1.11,4.51-1.11h2.27v-.9c0-.69-.18-1.25-.55-1.66-.37-.41-.98-.62-1.84-.62-.8,0-1.44.17-1.92.52-.48.35-.87.74-1.18,1.18l-2.41-2.15c.58-.86,1.32-1.54,2.21-2.03.89-.49,2.09-.73,3.6-.73,2.05,0,3.58.45,4.6,1.34,1.02.9,1.53,2.2,1.53,3.92v6.3h1.34v3.15h-2.25Zm-5.62-2.49c.68,0,1.26-.14,1.74-.44.48-.29.73-.76.73-1.41v-1.69h-1.97c-1.59,0-2.38.53-2.38,1.6v.41c0,.53.16.91.49,1.16.33.24.79.37,1.4.37Z"/>
    </g>
    <g class="cls-5">
      <path class="cls-6" d="m960.89,47.64c-1.41,0-2.47-.36-3.19-1.07-.72-.71-1.08-1.75-1.08-3.12v-7.04h-2.03v-3.15h1.01c.55,0,.92-.13,1.12-.4.2-.26.3-.64.3-1.14v-2.36h3.65v3.89h2.85v3.15h-2.85v8.08h2.63v3.15h-2.41Z"/>
    </g>
    <g class="cls-5">
      <path class="cls-6" d="m971.14,47.97c-1.1,0-2.07-.18-2.93-.53-.86-.36-1.59-.86-2.18-1.51-.59-.65-1.04-1.44-1.34-2.37-.3-.93-.45-1.97-.45-3.12s.15-2.16.44-3.08c.29-.92.73-1.71,1.3-2.37.58-.66,1.28-1.16,2.12-1.52.84-.36,1.8-.53,2.88-.53,1.19,0,2.21.2,3.06.6.85.4,1.54.94,2.08,1.62.54.68.93,1.46,1.18,2.34.25.89.37,1.81.37,2.78v1.21h-9.24v.22c0,.94.26,1.69.77,2.24.51.55,1.32.83,2.41.83.84,0,1.53-.17,2.06-.5s1.02-.74,1.48-1.21l2.03,2.53c-.64.75-1.48,1.34-2.51,1.76-1.03.42-2.21.63-3.52.63Zm-.08-12.06c-.82,0-1.47.27-1.93.81-.47.54-.7,1.26-.7,2.15v.22h5.04v-.25c0-.88-.2-1.58-.59-2.12-.39-.54-1-.81-1.82-.81Z"/>
      <path class="cls-6" d="m984.35,47.97c-1.39,0-2.56-.22-3.51-.67-.95-.45-1.8-1.08-2.55-1.9l2.38-2.41c.51.57,1.08,1.01,1.7,1.34.62.33,1.32.49,2.11.49s1.36-.12,1.67-.37.47-.58.47-1c0-.68-.48-1.08-1.45-1.21l-1.56-.19c-3.23-.4-4.85-1.88-4.85-4.44,0-.69.13-1.33.4-1.9.26-.58.64-1.07,1.12-1.48.48-.41,1.07-.73,1.75-.96.69-.23,1.46-.34,2.32-.34.75,0,1.41.05,1.99.15.58.1,1.09.25,1.54.44.45.19.86.43,1.23.71.37.28.74.6,1.11.95l-2.33,2.38c-.46-.46-.97-.82-1.55-1.08-.58-.26-1.16-.4-1.77-.4-.69,0-1.19.11-1.48.33-.29.22-.44.51-.44.88,0,.38.1.68.32.89.21.21.61.36,1.19.45l1.62.22c3.16.42,4.74,1.86,4.74,4.33,0,.69-.15,1.33-.44,1.92-.29.58-.71,1.09-1.25,1.52-.54.43-1.19.76-1.95,1-.76.24-1.6.36-2.54.36Z"/>
    </g>
    <g class="cls-5">
      <path class="cls-6" d="m797.84,80.15c-.73,0-1.34-.23-1.82-.69-.48-.46-.79-1.07-.92-1.84h-.17c-.22.93-.7,1.64-1.45,2.12s-1.67.73-2.77.73c-1.44,0-2.55-.38-3.32-1.15s-1.15-1.78-1.15-3.03c0-1.51.55-2.64,1.66-3.37,1.11-.74,2.61-1.11,4.51-1.11h2.27v-.9c0-.69-.18-1.25-.55-1.66-.37-.41-.98-.62-1.84-.62-.8,0-1.44.17-1.92.52-.48.35-.87.74-1.18,1.18l-2.41-2.15c.58-.86,1.32-1.54,2.21-2.03.89-.49,2.09-.73,3.6-.73,2.05,0,3.58.45,4.6,1.34,1.02.9,1.53,2.2,1.53,3.92v6.3h1.34v3.15h-2.25Zm-5.62-2.49c.68,0,1.26-.14,1.74-.44.48-.29.73-.76.73-1.41v-1.69h-1.97c-1.59,0-2.38.53-2.38,1.6v.41c0,.53.16.91.49,1.16.33.24.79.37,1.4.37Z"/>
    </g>
    <g class="cls-5">
      <path class="cls-6" d="m801.71,80.15v-14.39h4.06v3.12h.14c.07-.4.2-.79.38-1.17.18-.37.42-.71.73-1,.3-.29.66-.53,1.08-.7.42-.17.91-.26,1.48-.26h.71v3.78h-1.01c-1.19,0-2.07.16-2.64.47-.58.31-.86.89-.86,1.73v8.41h-4.06Z"/>
    </g>
    <g class="cls-5">
      <path class="cls-6" d="m817.38,80.48c-1.06,0-2-.17-2.84-.52-.83-.35-1.53-.85-2.11-1.51-.58-.66-1.02-1.45-1.33-2.38s-.47-1.97-.47-3.12.16-2.19.47-3.12.75-1.72,1.33-2.37c.58-.65,1.28-1.15,2.11-1.49.83-.35,1.78-.52,2.84-.52s2,.17,2.84.52c.83.35,1.53.85,2.11,1.49.58.65,1.02,1.44,1.33,2.37.31.93.47,1.97.47,3.12s-.16,2.19-.47,3.12c-.31.93-.75,1.73-1.33,2.38-.58.66-1.28,1.16-2.11,1.51-.83.35-1.78.52-2.84.52Zm0-3.21c.8,0,1.42-.25,1.86-.74s.66-1.2.66-2.11v-2.93c0-.91-.22-1.62-.66-2.11s-1.06-.74-1.86-.74-1.42.25-1.86.74-.66,1.2-.66,2.11v2.93c0,.91.22,1.62.66,2.11s1.06.74,1.86.74Z"/>
      <path class="cls-6" d="m834.43,77.74h-.14c-.13.37-.3.71-.51,1.04-.21.33-.48.62-.81.88s-.72.46-1.17.6c-.45.15-.96.22-1.55.22-1.48,0-2.6-.49-3.36-1.47-.76-.98-1.14-2.38-1.14-4.21v-9.04h4.06v8.69c0,.88.16,1.55.47,2.03.31.48.84.71,1.59.71.31,0,.62-.05.93-.14s.58-.22.82-.4c.24-.17.43-.39.58-.64.15-.26.22-.56.22-.9v-9.35h4.06v14.39h-4.06v-2.41Z"/>
      <path class="cls-6" d="m841.2,80.15v-14.39h4.06v2.44h.16c.26-.75.7-1.4,1.34-1.95.64-.55,1.53-.82,2.66-.82,1.48,0,2.6.49,3.36,1.48.76.99,1.14,2.39,1.14,4.22v9.02h-4.06v-8.69c0-.93-.15-1.62-.44-2.07-.29-.45-.81-.67-1.56-.67-.33,0-.65.04-.96.12-.31.08-.59.22-.84.4-.25.18-.44.41-.59.67-.15.27-.22.57-.22.92v9.32h-4.06Z"/>
      <path class="cls-6" d="m865.29,77.74h-.14c-.11.38-.28.74-.52,1.08-.24.34-.53.63-.86.88s-.72.44-1.15.58c-.43.14-.87.21-1.33.21-1.83,0-3.21-.64-4.14-1.93s-1.4-3.16-1.4-5.6.47-4.31,1.4-5.59c.93-1.28,2.31-1.92,4.14-1.92.93,0,1.76.26,2.48.77.72.51,1.18,1.17,1.38,1.97h.14v-8.3h4.06v20.28h-4.06v-2.41Zm-2.66-.55c.77,0,1.4-.19,1.9-.56s.75-.89.75-1.55v-4.25c0-.66-.25-1.17-.75-1.55-.5-.37-1.14-.56-1.9-.56s-1.4.27-1.91.81c-.5.54-.75,1.27-.75,2.18v2.49c0,.91.25,1.64.75,2.18.5.54,1.14.81,1.91.81Z"/>
      <path class="cls-6" d="m882.5,80.15c-1.41,0-2.47-.36-3.19-1.07-.72-.71-1.08-1.75-1.08-3.12v-7.04h-2.03v-3.15h1.01c.55,0,.92-.13,1.12-.4.2-.26.3-.64.3-1.14v-2.36h3.65v3.89h2.85v3.15h-2.85v8.08h2.63v3.15h-2.41Z"/>
      <path class="cls-6" d="m886.88,59.87h4.06v8.33h.16c.26-.75.7-1.4,1.34-1.95.64-.55,1.53-.82,2.66-.82,1.48,0,2.6.49,3.36,1.48.76.99,1.14,2.39,1.14,4.22v9.02h-4.06v-8.69c0-.93-.15-1.62-.44-2.07-.29-.45-.81-.67-1.56-.67-.33,0-.65.04-.96.12-.31.08-.59.22-.84.4-.25.18-.44.41-.59.67-.15.27-.22.57-.22.92v9.32h-4.06v-20.28Z"/>
      <path class="cls-6" d="m908.15,80.48c-1.1,0-2.07-.18-2.93-.53-.86-.36-1.59-.86-2.18-1.51-.59-.65-1.04-1.44-1.34-2.37-.3-.93-.45-1.97-.45-3.12s.15-2.16.44-3.08c.29-.92.73-1.71,1.3-2.37.58-.66,1.28-1.16,2.12-1.52.84-.36,1.8-.53,2.88-.53,1.19,0,2.21.2,3.06.6.85.4,1.54.94,2.08,1.62.54.68.93,1.46,1.18,2.34.25.89.37,1.81.37,2.78v1.21h-9.24v.22c0,.94.26,1.69.77,2.24.51.55,1.32.83,2.41.83.84,0,1.53-.17,2.06-.5s1.02-.74,1.48-1.21l2.03,2.53c-.64.75-1.48,1.34-2.51,1.76-1.03.42-2.21.63-3.52.63Zm-.08-12.06c-.82,0-1.47.27-1.93.81-.47.54-.7,1.26-.7,2.15v.22h5.04v-.25c0-.88-.2-1.58-.59-2.12-.39-.54-1-.81-1.82-.81Z"/>
      <path class="cls-6" d="m935.2,81.2c0,.77-.13,1.44-.4,2.03-.26.58-.7,1.08-1.3,1.49-.6.41-1.4.72-2.4.93-1,.21-2.22.31-3.69.31-1.24,0-2.3-.08-3.17-.23-.87-.16-1.57-.37-2.11-.66-.54-.28-.93-.63-1.18-1.04-.25-.41-.37-.88-.37-1.41,0-.8.24-1.43.71-1.89.47-.46,1.13-.74,1.97-.85v-.3c-.7-.13-1.22-.43-1.56-.89-.35-.47-.52-1.01-.52-1.63,0-.38.08-.72.23-1,.16-.28.36-.53.6-.74.25-.21.53-.38.86-.51s.66-.23.99-.3v-.11c-.88-.4-1.53-.95-1.95-1.66-.42-.7-.63-1.52-.63-2.45,0-1.46.51-2.63,1.52-3.52,1.01-.89,2.56-1.33,4.64-1.33.95,0,1.76.09,2.44.27v-.55c0-.77.19-1.32.56-1.66.38-.34.91-.51,1.6-.51h2.27v3.01h-3.18v.16c.84.4,1.46.96,1.86,1.66.4.7.6,1.52.6,2.45,0,1.44-.51,2.6-1.52,3.47-1.01.87-2.56,1.3-4.65,1.3-.93,0-1.78-.1-2.55-.3-.42.27-.63.66-.63,1.15,0,.35.13.62.4.81s.71.29,1.33.29h4.17c1.75,0,3.03.37,3.82,1.1.79.73,1.19,1.76,1.19,3.1Zm-3.81.55c0-.42-.17-.74-.49-.96-.33-.22-.9-.33-1.73-.33h-4.93c-.18.18-.32.39-.4.62s-.12.45-.12.67c0,.53.23.92.68,1.17s1.23.37,2.33.37h1.64c1.1,0,1.87-.12,2.33-.37.46-.25.69-.64.69-1.17Zm-3.92-9.37c.8,0,1.4-.17,1.8-.5.39-.34.59-.82.59-1.46v-.33c0-.64-.2-1.12-.59-1.46-.39-.34-.99-.5-1.8-.5s-1.4.17-1.79.5c-.39.34-.59.82-.59,1.46v.33c0,.64.2,1.12.59,1.46.39.34.99.5,1.79.5Z"/>
      <path class="cls-6" d="m939.97,80.15c-1.39,0-2.41-.34-3.06-1.01-.65-.68-.97-1.65-.97-2.93v-16.33h4.06v17.13h1.81v3.15h-1.84Z"/>
      <path class="cls-6" d="m949.01,80.48c-1.06,0-2-.17-2.84-.52-.83-.35-1.53-.85-2.11-1.51-.58-.66-1.02-1.45-1.33-2.38s-.47-1.97-.47-3.12.16-2.19.47-3.12.75-1.72,1.33-2.37c.58-.65,1.28-1.15,2.11-1.49.83-.35,1.78-.52,2.84-.52s2,.17,2.84.52c.83.35,1.53.85,2.11,1.49.58.65,1.02,1.44,1.33,2.37.31.93.47,1.97.47,3.12s-.16,2.19-.47,3.12c-.31.93-.75,1.73-1.33,2.38-.58.66-1.28,1.16-2.11,1.51-.83.35-1.78.52-2.84.52Zm0-3.21c.8,0,1.42-.25,1.86-.74s.66-1.2.66-2.11v-2.93c0-.91-.22-1.62-.66-2.11s-1.06-.74-1.86-.74-1.42.25-1.86.74-.66,1.2-.66,2.11v2.93c0,.91.22,1.62.66,2.11s1.06.74,1.86.74Z"/>
      <path class="cls-6" d="m957.56,59.87h4.06v8.3h.14c.2-.8.66-1.46,1.38-1.97.72-.51,1.55-.77,2.48-.77,1.83,0,3.21.64,4.14,1.92.93,1.28,1.4,3.14,1.4,5.59s-.47,4.32-1.4,5.6-2.31,1.93-4.14,1.93c-.48,0-.92-.07-1.34-.21-.42-.14-.8-.33-1.14-.58s-.63-.54-.86-.88c-.24-.34-.41-.7-.52-1.08h-.14v2.41h-4.06v-20.28Zm6.71,17.32c.77,0,1.4-.27,1.9-.81.5-.54.75-1.26.75-2.18v-2.49c0-.91-.25-1.64-.75-2.18-.5-.54-1.14-.81-1.9-.81s-1.4.19-1.9.56c-.5.38-.75.89-.75,1.55v4.25c0,.66.25,1.17.75,1.55.5.37,1.14.56,1.9.56Z"/>
      <path class="cls-6" d="m979.16,80.48c-1.1,0-2.07-.18-2.93-.53-.86-.36-1.59-.86-2.18-1.51-.59-.65-1.04-1.44-1.34-2.37-.3-.93-.45-1.97-.45-3.12s.15-2.16.44-3.08c.29-.92.73-1.71,1.3-2.37.58-.66,1.28-1.16,2.12-1.52.84-.36,1.8-.53,2.88-.53,1.19,0,2.21.2,3.06.6.85.4,1.54.94,2.08,1.62.54.68.93,1.46,1.18,2.34.25.89.37,1.81.37,2.78v1.21h-9.24v.22c0,.94.26,1.69.77,2.24.51.55,1.32.83,2.41.83.84,0,1.53-.17,2.06-.5s1.02-.74,1.48-1.21l2.03,2.53c-.64.75-1.48,1.34-2.51,1.76-1.03.42-2.21.63-3.52.63Zm-.08-12.06c-.82,0-1.47.27-1.93.81-.47.54-.7,1.26-.7,2.15v.22h5.04v-.25c0-.88-.2-1.58-.59-2.12-.39-.54-1-.81-1.82-.81Z"/>
    </g>
  </g>
  <path class="cls-1" d="m918.02,214.36h250.7c30.69,0,55.57,24.88,55.57,55.57h0c0,30.69-24.88,55.57-55.57,55.57h-250.7c-30.69,0-55.57-24.88-55.57-55.57h0c0-30.69,24.88-55.57,55.57-55.57Z"/>
  <g class="cls-5">
    <g class="cls-5">
      <path class="cls-6" d="m966.42,261.54l-4.33-19.13h4.11l1.81,9.18,1.01,5.32h.08l1.21-5.32,2.11-9.18h4.55l2.14,9.18,1.18,5.32h.08l1.01-5.32,1.84-9.18h3.95l-4.44,19.13h-4.74l-2.41-10.36-.93-4.19h-.08l-.96,4.19-2.41,10.36h-4.77Z"/>
      <path class="cls-6" d="m990.81,245.61c-.82,0-1.42-.19-1.79-.56-.38-.37-.56-.85-.56-1.44v-.6c0-.58.19-1.06.56-1.44.37-.37.97-.56,1.79-.56s1.42.19,1.79.56c.38.37.56.85.56,1.44v.6c0,.58-.19,1.06-.56,1.44-.37.38-.97.56-1.79.56Zm-2.03,1.53h4.06v14.39h-4.06v-14.39Z"/>
      <path class="cls-6" d="m1004.38,259.12h-.14c-.11.38-.28.74-.52,1.08-.24.34-.53.63-.86.88s-.72.44-1.15.58c-.43.14-.87.21-1.33.21-1.83,0-3.21-.64-4.14-1.93s-1.4-3.16-1.4-5.6.47-4.31,1.4-5.59c.93-1.28,2.31-1.92,4.14-1.92.93,0,1.76.26,2.48.77.72.51,1.18,1.17,1.38,1.97h.14v-8.3h4.06v20.28h-4.06v-2.41Zm-2.66-.55c.77,0,1.4-.19,1.9-.56s.75-.89.75-1.55v-4.25c0-.66-.25-1.17-.75-1.55-.5-.37-1.14-.56-1.9-.56s-1.4.27-1.91.81c-.5.54-.75,1.27-.75,2.18v2.49c0,.91.25,1.64.75,2.18.5.54,1.14.81,1.91.81Z"/>
      <path class="cls-6" d="m1017.15,261.87c-1.1,0-2.07-.18-2.93-.53-.86-.36-1.59-.86-2.18-1.51-.59-.65-1.04-1.44-1.34-2.37-.3-.93-.45-1.97-.45-3.12s.15-2.16.44-3.08c.29-.92.73-1.71,1.3-2.37.58-.66,1.28-1.16,2.12-1.52.84-.36,1.8-.53,2.88-.53,1.19,0,2.21.2,3.06.6.85.4,1.54.94,2.08,1.62.54.68.93,1.46,1.18,2.34.25.89.37,1.81.37,2.78v1.21h-9.24v.22c0,.94.26,1.69.77,2.24.51.55,1.32.83,2.41.83.84,0,1.53-.17,2.06-.5s1.02-.74,1.48-1.21l2.03,2.53c-.64.75-1.48,1.34-2.51,1.76-1.03.42-2.21.63-3.52.63Zm-.08-12.06c-.82,0-1.47.27-1.93.81-.47.54-.7,1.26-.7,2.15v.22h5.04v-.25c0-.88-.2-1.58-.59-2.12-.39-.54-1-.81-1.82-.81Z"/>
    </g>
    <g class="cls-5">
      <path class="cls-6" d="m1030.74,261.54v-14.39h4.06v3.12h.14c.07-.4.2-.79.38-1.17.18-.37.42-.71.73-1,.3-.29.66-.53,1.08-.7.42-.17.91-.26,1.48-.26h.71v3.78h-1.01c-1.19,0-2.07.16-2.64.47-.58.31-.86.89-.86,1.73v8.41h-4.06Z"/>
    </g>
    <g class="cls-5">
      <path class="cls-6" d="m1050.97,261.54c-.73,0-1.34-.23-1.82-.69-.48-.46-.79-1.07-.92-1.84h-.17c-.22.93-.7,1.64-1.45,2.12s-1.67.73-2.77.73c-1.44,0-2.55-.38-3.32-1.15s-1.15-1.78-1.15-3.03c0-1.51.55-2.64,1.66-3.37,1.11-.74,2.61-1.11,4.51-1.11h2.27v-.9c0-.69-.18-1.25-.55-1.66-.37-.41-.98-.62-1.84-.62-.8,0-1.44.17-1.92.52-.48.35-.87.74-1.18,1.18l-2.41-2.15c.58-.86,1.32-1.54,2.21-2.03.89-.49,2.09-.73,3.6-.73,2.05,0,3.58.45,4.6,1.34,1.02.9,1.53,2.2,1.53,3.92v6.3h1.34v3.15h-2.25Zm-5.62-2.49c.68,0,1.26-.14,1.74-.44.48-.29.73-.76.73-1.41v-1.69h-1.97c-1.59,0-2.38.53-2.38,1.6v.41c0,.53.16.91.49,1.16.33.24.79.37,1.4.37Z"/>
      <path class="cls-6" d="m1054.86,261.54v-14.39h4.06v2.44h.16c.26-.75.7-1.4,1.34-1.95.64-.55,1.53-.82,2.66-.82,1.48,0,2.6.49,3.36,1.48.76.99,1.14,2.39,1.14,4.22v9.02h-4.06v-8.69c0-.93-.15-1.62-.44-2.07-.29-.45-.81-.67-1.56-.67-.33,0-.65.04-.96.12-.31.08-.59.22-.84.4-.25.18-.44.41-.59.67-.15.27-.22.57-.22.92v9.32h-4.06Z"/>
    </g>
    <g class="cls-5">
      <path class="cls-6" d="m1083.39,262.58c0,.77-.13,1.44-.4,2.03s-.7,1.08-1.3,1.49c-.6.41-1.4.72-2.4.93-1,.21-2.22.32-3.69.32-1.24,0-2.3-.08-3.17-.23-.87-.16-1.57-.38-2.11-.66s-.93-.63-1.18-1.04c-.25-.41-.37-.88-.37-1.41,0-.8.24-1.43.71-1.89.47-.46,1.13-.74,1.97-.85v-.3c-.7-.13-1.22-.43-1.56-.89-.35-.47-.52-1.01-.52-1.63,0-.38.08-.72.23-1,.16-.28.36-.53.6-.74.25-.21.53-.38.86-.51s.66-.23.99-.3v-.11c-.88-.4-1.53-.95-1.95-1.66-.42-.7-.63-1.52-.63-2.45,0-1.46.51-2.63,1.52-3.52,1.01-.89,2.56-1.33,4.64-1.33.95,0,1.76.09,2.44.27v-.55c0-.77.19-1.32.56-1.66.38-.34.91-.51,1.6-.51h2.27v3.01h-3.18v.16c.84.4,1.46.96,1.86,1.66.4.7.6,1.52.6,2.45,0,1.44-.51,2.6-1.52,3.47-1.01.87-2.56,1.3-4.65,1.3-.93,0-1.78-.1-2.55-.3-.42.27-.63.66-.63,1.15,0,.35.13.62.4.81s.71.29,1.33.29h4.17c1.75,0,3.03.37,3.82,1.1.79.73,1.19,1.76,1.19,3.1Zm-3.81.55c0-.42-.17-.74-.49-.96-.33-.22-.9-.33-1.73-.33h-4.93c-.18.18-.32.39-.4.62s-.12.45-.12.67c0,.53.23.92.68,1.17.46.25,1.23.37,2.33.37h1.64c1.1,0,1.87-.12,2.33-.37.46-.25.69-.64.69-1.17Zm-3.92-9.37c.8,0,1.4-.17,1.8-.5.39-.34.59-.82.59-1.46v-.33c0-.64-.2-1.12-.59-1.46-.39-.34-.99-.5-1.8-.5s-1.4.17-1.79.5c-.39.34-.59.82-.59,1.46v.33c0,.64.2,1.12.59,1.46.39.34.99.5,1.79.5Z"/>
    </g>
    <g class="cls-5">
      <path class="cls-6" d="m1089.94,261.87c-1.1,0-2.07-.18-2.93-.53-.86-.36-1.59-.86-2.18-1.51-.59-.65-1.04-1.44-1.34-2.37-.3-.93-.45-1.97-.45-3.12s.15-2.16.44-3.08c.29-.92.73-1.71,1.3-2.37.58-.66,1.28-1.16,2.12-1.52.84-.36,1.8-.53,2.88-.53,1.19,0,2.21.2,3.06.6.85.4,1.54.94,2.08,1.62.54.68.93,1.46,1.18,2.34.25.89.37,1.81.37,2.78v1.21h-9.24v.22c0,.94.26,1.69.77,2.24.51.55,1.32.83,2.41.83.84,0,1.53-.17,2.06-.5s1.02-.74,1.48-1.21l2.03,2.53c-.64.75-1.48,1.34-2.51,1.76-1.03.42-2.21.63-3.52.63Zm-.08-12.06c-.82,0-1.47.27-1.93.81-.47.54-.7,1.26-.7,2.15v.22h5.04v-.25c0-.88-.2-1.58-.59-2.12-.39-.54-1-.81-1.82-.81Z"/>
    </g>
    <g class="cls-5">
      <path class="cls-6" d="m1109.45,261.87c-1.06,0-2-.17-2.84-.52-.83-.35-1.53-.85-2.11-1.51-.58-.66-1.02-1.45-1.33-2.38s-.47-1.97-.47-3.12.16-2.19.47-3.12.75-1.72,1.33-2.37c.58-.65,1.28-1.15,2.11-1.49.83-.35,1.78-.52,2.84-.52s2,.17,2.84.52c.83.35,1.53.85,2.11,1.49.58.65,1.02,1.44,1.33,2.37.31.93.47,1.97.47,3.12s-.16,2.19-.47,3.12c-.31.93-.75,1.73-1.33,2.38-.58.66-1.28,1.16-2.11,1.51-.83.35-1.78.52-2.84.52Zm0-3.21c.8,0,1.42-.25,1.86-.74s.66-1.2.66-2.11v-2.93c0-.91-.22-1.62-.66-2.11s-1.06-.74-1.86-.74-1.42.25-1.86.74-.66,1.2-.66,2.11v2.93c0,.91.22,1.62.66,2.11s1.06.74,1.86.74Z"/>
    </g>
    <g class="cls-5">
      <path class="cls-6" d="m1118.52,250.3h-2.03v-3.15h2.03v-1.7c0-1.39.37-2.43,1.1-3.14.73-.7,1.8-1.06,3.21-1.06h2.63v3.15h-2.88v2.74h2.88v3.15h-2.88v11.24h-4.06v-11.24Z"/>
    </g>
    <g class="cls-5">
      <path class="cls-6" d="m974.5,294.05c-1.41,0-2.47-.36-3.19-1.07-.72-.71-1.08-1.75-1.08-3.12v-7.04h-2.03v-3.15h1.01c.55,0,.92-.13,1.12-.4s.3-.64.3-1.14v-2.36h3.65v3.89h2.85v3.15h-2.85v8.08h2.63v3.15h-2.41Z"/>
    </g>
    <g class="cls-5">
      <path class="cls-6" d="m984.75,294.38c-1.1,0-2.07-.18-2.93-.53-.86-.36-1.59-.86-2.18-1.51s-1.04-1.44-1.34-2.37c-.3-.93-.45-1.97-.45-3.12s.15-2.16.44-3.08c.29-.92.73-1.71,1.3-2.37.58-.66,1.28-1.17,2.12-1.52.84-.36,1.8-.53,2.88-.53,1.19,0,2.21.2,3.06.6.85.4,1.54.94,2.08,1.62s.93,1.46,1.18,2.34c.25.89.37,1.81.37,2.78v1.21h-9.24v.22c0,.94.26,1.69.77,2.24.51.55,1.32.83,2.41.83.84,0,1.53-.17,2.06-.5.53-.34,1.02-.74,1.48-1.21l2.03,2.53c-.64.75-1.48,1.34-2.51,1.76-1.03.42-2.21.63-3.52.63Zm-.08-12.06c-.82,0-1.47.27-1.93.81s-.7,1.26-.7,2.15v.22h5.04v-.25c0-.88-.2-1.58-.59-2.12-.39-.54-1-.81-1.82-.81Z"/>
      <path class="cls-6" d="m998.89,294.38c-1.08,0-2.04-.18-2.88-.53-.84-.36-1.54-.86-2.11-1.51s-1-1.44-1.29-2.37c-.29-.93-.44-1.97-.44-3.12s.15-2.19.44-3.11.72-1.71,1.29-2.37c.57-.66,1.27-1.16,2.11-1.51.84-.35,1.8-.52,2.88-.52,1.46,0,2.68.33,3.66.99.98.66,1.68,1.58,2.1,2.77l-3.29,1.43c-.13-.55-.39-1.01-.79-1.4-.4-.38-.96-.58-1.67-.58-.82,0-1.44.27-1.86.81-.42.54-.63,1.27-.63,2.18v2.69c0,.91.21,1.64.63,2.17.42.53,1.04.79,1.86.79.73,0,1.31-.2,1.74-.59.43-.39.74-.91.95-1.55l3.15,1.37c-.48,1.37-1.21,2.38-2.21,3.01-1,.64-2.21.96-3.63.96Z"/>
      <path class="cls-6" d="m1006.18,273.77h4.06v8.33h.16c.26-.75.7-1.4,1.34-1.95.64-.55,1.53-.82,2.66-.82,1.48,0,2.6.49,3.36,1.48s1.14,2.39,1.14,4.22v9.02h-4.06v-8.69c0-.93-.15-1.62-.44-2.07-.29-.45-.81-.67-1.56-.67-.33,0-.65.04-.96.12-.31.08-.59.21-.84.4-.25.18-.44.41-.59.67-.15.27-.22.57-.22.92v9.32h-4.06v-20.28Z"/>
      <path class="cls-6" d="m1021.45,294.05v-14.39h4.06v2.44h.16c.26-.75.7-1.4,1.34-1.95.64-.55,1.53-.82,2.66-.82,1.48,0,2.6.49,3.36,1.48s1.14,2.39,1.14,4.22v9.02h-4.06v-8.69c0-.93-.15-1.62-.44-2.07-.29-.45-.81-.67-1.56-.67-.33,0-.65.04-.96.12-.31.08-.59.21-.84.4-.25.18-.44.41-.59.67-.15.27-.22.57-.22.92v9.32h-4.06Z"/>
      <path class="cls-6" d="m1042.55,294.38c-1.06,0-2-.17-2.84-.52-.83-.35-1.53-.85-2.11-1.51-.58-.66-1.02-1.45-1.33-2.38-.31-.93-.47-1.97-.47-3.12s.16-2.19.47-3.12.75-1.72,1.33-2.37c.58-.65,1.28-1.15,2.11-1.49.83-.35,1.78-.52,2.84-.52s2,.17,2.84.52c.83.35,1.53.85,2.11,1.49.58.65,1.02,1.44,1.33,2.37.31.93.47,1.97.47,3.12s-.16,2.19-.47,3.12c-.31.93-.75,1.73-1.33,2.38-.58.66-1.28,1.16-2.11,1.51-.83.35-1.78.52-2.84.52Zm0-3.21c.8,0,1.42-.25,1.86-.74.44-.49.66-1.2.66-2.11v-2.93c0-.91-.22-1.62-.66-2.11s-1.06-.74-1.86-.74-1.42.25-1.86.74-.66,1.2-.66,2.11v2.93c0,.91.22,1.62.66,2.11.44.49,1.06.74,1.86.74Z"/>
      <path class="cls-6" d="m1055.13,294.05c-1.39,0-2.41-.34-3.06-1.01-.65-.68-.97-1.65-.97-2.93v-16.33h4.06v17.13h1.81v3.15h-1.84Z"/>
      <path class="cls-6" d="m1064.17,294.38c-1.06,0-2-.17-2.84-.52-.83-.35-1.53-.85-2.11-1.51-.58-.66-1.02-1.45-1.33-2.38-.31-.93-.47-1.97-.47-3.12s.16-2.19.47-3.12.75-1.72,1.33-2.37c.58-.65,1.28-1.15,2.11-1.49.83-.35,1.78-.52,2.84-.52s2,.17,2.84.52c.83.35,1.53.85,2.11,1.49.58.65,1.02,1.44,1.33,2.37.31.93.47,1.97.47,3.12s-.16,2.19-.47,3.12c-.31.93-.75,1.73-1.33,2.38-.58.66-1.28,1.16-2.11,1.51-.83.35-1.78.52-2.84.52Zm0-3.21c.8,0,1.42-.25,1.86-.74.44-.49.66-1.2.66-2.11v-2.93c0-.91-.22-1.62-.66-2.11s-1.06-.74-1.86-.74-1.42.25-1.86.74-.66,1.2-.66,2.11v2.93c0,.91.22,1.62.66,2.11.44.49,1.06.74,1.86.74Z"/>
      <path class="cls-6" d="m1086.04,295.09c0,.77-.13,1.44-.4,2.03s-.7,1.08-1.3,1.49c-.6.41-1.4.72-2.4.93-1,.21-2.22.32-3.69.32-1.24,0-2.3-.08-3.17-.23-.87-.16-1.57-.38-2.11-.66s-.93-.63-1.18-1.04c-.25-.41-.37-.88-.37-1.41,0-.8.24-1.43.71-1.89.47-.46,1.13-.74,1.97-.85v-.3c-.7-.13-1.22-.43-1.56-.89-.35-.47-.52-1.01-.52-1.63,0-.38.08-.72.23-1,.16-.28.36-.53.6-.74.25-.21.53-.38.86-.51.33-.13.66-.23.99-.3v-.11c-.88-.4-1.53-.95-1.95-1.66-.42-.7-.63-1.52-.63-2.45,0-1.46.51-2.63,1.52-3.52,1.01-.89,2.56-1.33,4.64-1.33.95,0,1.76.09,2.44.27v-.55c0-.77.19-1.32.56-1.66.38-.34.91-.51,1.6-.51h2.27v3.01h-3.18v.16c.84.4,1.46.96,1.86,1.66.4.7.6,1.52.6,2.45,0,1.44-.51,2.6-1.52,3.47-1.01.87-2.56,1.3-4.65,1.3-.93,0-1.78-.1-2.55-.3-.42.27-.63.66-.63,1.15,0,.35.13.62.4.81s.71.29,1.33.29h4.17c1.75,0,3.03.37,3.82,1.1.79.73,1.19,1.76,1.19,3.1Zm-3.81.55c0-.42-.17-.74-.49-.96-.33-.22-.9-.33-1.73-.33h-4.93c-.18.18-.32.39-.4.62s-.12.45-.12.67c0,.53.23.92.68,1.16.46.25,1.23.37,2.33.37h1.64c1.1,0,1.87-.12,2.33-.37.46-.25.69-.63.69-1.16Zm-3.92-9.37c.8,0,1.4-.17,1.8-.5.39-.34.59-.82.59-1.46v-.33c0-.63-.2-1.12-.59-1.46-.39-.34-.99-.5-1.8-.5s-1.4.17-1.79.5-.59.82-.59,1.46v.33c0,.64.2,1.12.59,1.46s.99.5,1.79.5Z"/>
      <path class="cls-6" d="m1088.81,278.13c-.82,0-1.42-.19-1.79-.56s-.56-.85-.56-1.44v-.6c0-.58.19-1.06.56-1.44.37-.38.97-.56,1.79-.56s1.42.19,1.79.56c.38.37.56.85.56,1.44v.6c0,.58-.19,1.06-.56,1.44s-.97.56-1.79.56Zm-2.03,1.54h4.06v14.39h-4.06v-14.39Z"/>
      <path class="cls-6" d="m1099.56,294.38c-1.1,0-2.07-.18-2.93-.53-.86-.36-1.59-.86-2.18-1.51s-1.04-1.44-1.34-2.37c-.3-.93-.45-1.97-.45-3.12s.15-2.16.44-3.08c.29-.92.73-1.71,1.3-2.37.58-.66,1.28-1.17,2.12-1.52.84-.36,1.8-.53,2.88-.53,1.19,0,2.21.2,3.06.6.85.4,1.54.94,2.08,1.62s.93,1.46,1.18,2.34c.25.89.37,1.81.37,2.78v1.21h-9.24v.22c0,.94.26,1.69.77,2.24.51.55,1.32.83,2.41.83.84,0,1.53-.17,2.06-.5.53-.34,1.02-.74,1.48-1.21l2.03,2.53c-.64.75-1.48,1.34-2.51,1.76-1.03.42-2.21.63-3.52.63Zm-.08-12.06c-.82,0-1.47.27-1.93.81s-.7,1.26-.7,2.15v.22h5.04v-.25c0-.88-.2-1.58-.59-2.12-.39-.54-1-.81-1.82-.81Z"/>
      <path class="cls-6" d="m1112.77,294.38c-1.39,0-2.56-.22-3.51-.67-.95-.45-1.8-1.08-2.55-1.9l2.38-2.41c.51.57,1.08,1.01,1.7,1.34.62.33,1.32.49,2.11.49s1.36-.12,1.67-.37c.31-.25.47-.58.47-1,0-.68-.48-1.08-1.45-1.21l-1.56-.19c-3.23-.4-4.85-1.88-4.85-4.44,0-.69.13-1.33.4-1.91.26-.58.64-1.07,1.12-1.48s1.07-.73,1.75-.96c.69-.23,1.46-.34,2.32-.34.75,0,1.41.05,1.99.15.58.1,1.09.25,1.54.44.45.19.86.43,1.23.71.37.28.74.6,1.11.95l-2.33,2.38c-.46-.46-.97-.82-1.55-1.08-.58-.26-1.16-.4-1.77-.4-.69,0-1.19.11-1.48.33-.29.22-.44.51-.44.88,0,.38.1.68.32.89.21.21.61.36,1.19.45l1.62.22c3.16.42,4.74,1.86,4.74,4.33,0,.69-.15,1.33-.44,1.92-.29.58-.71,1.09-1.25,1.52-.54.43-1.19.76-1.95,1-.76.24-1.6.36-2.54.36Z"/>
    </g>
  </g>
  <path class="cls-1" d="m56.03,214.36h250.7c30.69,0,55.57,24.88,55.57,55.57h0c0,30.69-24.88,55.57-55.57,55.57H56.03c-30.69,0-55.57-24.88-55.57-55.57H.46c0-30.69,24.88-55.57,55.57-55.57Z"/>
  <g class="cls-5">
    <g class="cls-5">
      <path class="cls-6" d="m64.2,261.54v-3.32h2.47v-12.5h-2.47v-3.32h9.1v3.32h-2.47v12.5h2.47v3.32h-9.1Z"/>
      <path class="cls-6" d="m75.49,261.54v-14.39h4.06v2.44h.16c.26-.75.7-1.4,1.34-1.95.64-.55,1.53-.82,2.66-.82,1.48,0,2.6.49,3.36,1.48.76.99,1.14,2.39,1.14,4.22v9.02h-4.06v-8.69c0-.93-.15-1.62-.44-2.07-.29-.45-.81-.67-1.56-.67-.33,0-.65.04-.96.12-.31.08-.59.22-.84.4-.25.18-.44.41-.59.67-.15.27-.22.57-.22.92v9.32h-4.06Z"/>
    </g>
    <g class="cls-5">
      <path class="cls-6" d="m95.75,261.54c-1.41,0-2.47-.36-3.19-1.07s-1.08-1.75-1.08-3.12v-7.04h-2.03v-3.15h1.01c.55,0,.92-.13,1.12-.4.2-.26.3-.64.3-1.14v-2.36h3.65v3.89h2.85v3.15h-2.85v8.08h2.63v3.15h-2.41Z"/>
    </g>
    <g class="cls-5">
      <path class="cls-6" d="m106,261.87c-1.1,0-2.07-.18-2.93-.53-.86-.36-1.59-.86-2.18-1.51-.59-.65-1.04-1.44-1.34-2.37-.3-.93-.45-1.97-.45-3.12s.15-2.16.44-3.08c.29-.92.73-1.71,1.3-2.37.58-.66,1.28-1.16,2.12-1.52.84-.36,1.8-.53,2.88-.53,1.19,0,2.21.2,3.06.6.85.4,1.54.94,2.08,1.62.54.68.93,1.46,1.18,2.34.25.89.37,1.81.37,2.78v1.21h-9.24v.22c0,.94.26,1.69.77,2.24.51.55,1.32.83,2.41.83.84,0,1.53-.17,2.06-.5s1.02-.74,1.48-1.21l2.03,2.53c-.64.75-1.48,1.34-2.51,1.76s-2.21.63-3.52.63Zm-.08-12.06c-.82,0-1.47.27-1.93.81-.47.54-.7,1.26-.7,2.15v.22h5.04v-.25c0-.88-.2-1.58-.59-2.12-.39-.54-1-.81-1.82-.81Z"/>
      <path class="cls-6" d="m114.33,261.54v-14.39h4.06v3.12h.14c.07-.4.2-.79.38-1.17.18-.37.42-.71.73-1,.3-.29.66-.53,1.08-.7.42-.17.91-.26,1.48-.26h.71v3.78h-1.01c-1.19,0-2.07.16-2.64.47-.58.31-.86.89-.86,1.73v8.41h-4.06Z"/>
      <path class="cls-6" d="m124.33,261.54v-14.39h4.06v2.44h.16c.26-.75.7-1.4,1.34-1.95.64-.55,1.53-.82,2.66-.82,1.48,0,2.6.49,3.36,1.48.76.99,1.14,2.39,1.14,4.22v9.02h-4.06v-8.69c0-.93-.15-1.62-.44-2.07-.29-.45-.81-.67-1.56-.67-.33,0-.65.04-.96.12-.31.08-.59.22-.84.4-.25.18-.44.41-.59.67-.15.27-.22.57-.22.92v9.32h-4.06Z"/>
    </g>
    <g class="cls-5">
      <path class="cls-6" d="m150.15,261.54c-.73,0-1.34-.23-1.82-.69-.48-.46-.79-1.07-.92-1.84h-.16c-.22.93-.7,1.64-1.45,2.12-.75.48-1.67.73-2.77.73-1.44,0-2.55-.38-3.32-1.15-.77-.76-1.15-1.78-1.15-3.03,0-1.51.55-2.64,1.66-3.37,1.11-.74,2.61-1.11,4.51-1.11h2.27v-.9c0-.69-.18-1.25-.55-1.66-.37-.41-.98-.62-1.84-.62-.8,0-1.44.17-1.92.52-.48.35-.87.74-1.18,1.18l-2.41-2.15c.58-.86,1.32-1.54,2.21-2.03s2.09-.73,3.6-.73c2.05,0,3.58.45,4.6,1.34,1.02.9,1.53,2.2,1.53,3.92v6.3h1.34v3.15h-2.25Zm-5.62-2.49c.68,0,1.26-.14,1.74-.44.48-.29.73-.76.73-1.41v-1.69h-1.97c-1.59,0-2.38.53-2.38,1.6v.41c0,.53.16.91.49,1.16.33.24.79.37,1.4.37Z"/>
    </g>
    <g class="cls-5">
      <path class="cls-6" d="m158.89,261.54c-1.41,0-2.47-.36-3.19-1.07s-1.08-1.75-1.08-3.12v-7.04h-2.03v-3.15h1.01c.55,0,.92-.13,1.12-.4.2-.26.3-.64.3-1.14v-2.36h3.65v3.89h2.85v3.15h-2.85v8.08h2.63v3.15h-2.41Z"/>
      <path class="cls-6" d="m165.3,245.61c-.82,0-1.42-.19-1.79-.56-.37-.37-.56-.85-.56-1.44v-.6c0-.58.19-1.06.56-1.44s.97-.56,1.79-.56,1.42.19,1.8.56c.37.37.56.85.56,1.44v.6c0,.58-.19,1.06-.56,1.44s-.97.56-1.8.56Zm-2.03,1.53h4.06v14.39h-4.06v-14.39Z"/>
      <path class="cls-6" d="m175.88,261.87c-1.06,0-2.01-.17-2.84-.52-.83-.35-1.53-.85-2.11-1.51s-1.02-1.45-1.33-2.38c-.31-.93-.47-1.97-.47-3.12s.15-2.19.47-3.12c.31-.93.75-1.72,1.33-2.37.58-.65,1.28-1.15,2.11-1.49.83-.35,1.78-.52,2.84-.52s2,.17,2.84.52c.83.35,1.53.85,2.11,1.49.58.65,1.02,1.44,1.33,2.37.31.93.47,1.97.47,3.12s-.16,2.19-.47,3.12c-.31.93-.75,1.73-1.33,2.38s-1.28,1.16-2.11,1.51c-.83.35-1.78.52-2.84.52Zm0-3.21c.8,0,1.43-.25,1.86-.74s.66-1.2.66-2.11v-2.93c0-.91-.22-1.62-.66-2.11s-1.06-.74-1.86-.74-1.43.25-1.86.74-.66,1.2-.66,2.11v2.93c0,.91.22,1.62.66,2.11s1.06.74,1.86.74Z"/>
      <path class="cls-6" d="m184.43,261.54v-14.39h4.06v2.44h.16c.26-.75.7-1.4,1.34-1.95.64-.55,1.53-.82,2.66-.82,1.48,0,2.6.49,3.36,1.48.76.99,1.14,2.39,1.14,4.22v9.02h-4.06v-8.69c0-.93-.15-1.62-.44-2.07-.29-.45-.81-.67-1.56-.67-.33,0-.65.04-.96.12-.31.08-.59.22-.84.4-.25.18-.44.41-.59.67-.15.27-.22.57-.22.92v9.32h-4.06Z"/>
      <path class="cls-6" d="m210.33,261.54c-.73,0-1.34-.23-1.82-.69-.48-.46-.79-1.07-.92-1.84h-.16c-.22.93-.7,1.64-1.45,2.12-.75.48-1.67.73-2.77.73-1.44,0-2.55-.38-3.32-1.15-.77-.76-1.15-1.78-1.15-3.03,0-1.51.55-2.64,1.66-3.37,1.11-.74,2.61-1.11,4.51-1.11h2.27v-.9c0-.69-.18-1.25-.55-1.66-.37-.41-.98-.62-1.84-.62-.8,0-1.44.17-1.92.52-.48.35-.87.74-1.18,1.18l-2.41-2.15c.58-.86,1.32-1.54,2.21-2.03s2.09-.73,3.6-.73c2.05,0,3.58.45,4.6,1.34,1.02.9,1.53,2.2,1.53,3.92v6.3h1.34v3.15h-2.25Zm-5.62-2.49c.68,0,1.26-.14,1.74-.44.48-.29.73-.76.73-1.41v-1.69h-1.97c-1.59,0-2.38.53-2.38,1.6v.41c0,.53.16.91.49,1.16.33.24.79.37,1.4.37Z"/>
      <path class="cls-6" d="m218.25,261.54c-1.39,0-2.41-.34-3.06-1.01-.65-.68-.97-1.65-.97-2.93v-16.33h4.06v17.13h1.81v3.15h-1.84Z"/>
    </g>
    <g class="cls-5">
      <path class="cls-6" d="m231.71,261.54c-1.41,0-2.47-.36-3.19-1.07s-1.08-1.75-1.08-3.12v-7.04h-2.03v-3.15h1.01c.55,0,.92-.13,1.12-.4.2-.26.3-.64.3-1.14v-2.36h3.65v3.89h2.85v3.15h-2.85v8.08h2.63v3.15h-2.41Z"/>
    </g>
    <g class="cls-5">
      <path class="cls-6" d="m241.96,261.87c-1.1,0-2.07-.18-2.93-.53-.86-.36-1.59-.86-2.18-1.51-.59-.65-1.04-1.44-1.34-2.37-.3-.93-.45-1.97-.45-3.12s.15-2.16.44-3.08c.29-.92.73-1.71,1.3-2.37.58-.66,1.28-1.16,2.12-1.52.84-.36,1.8-.53,2.88-.53,1.19,0,2.21.2,3.06.6.85.4,1.54.94,2.08,1.62.54.68.93,1.46,1.18,2.34.25.89.37,1.81.37,2.78v1.21h-9.24v.22c0,.94.26,1.69.77,2.24.51.55,1.32.83,2.41.83.84,0,1.53-.17,2.06-.5s1.02-.74,1.48-1.21l2.03,2.53c-.64.75-1.48,1.34-2.51,1.76s-2.21.63-3.52.63Zm-.08-12.06c-.82,0-1.47.27-1.93.81-.47.54-.7,1.26-.7,2.15v.22h5.04v-.25c0-.88-.2-1.58-.59-2.12-.39-.54-1-.81-1.82-.81Z"/>
      <path class="cls-6" d="m260.92,261.54c-.73,0-1.34-.23-1.82-.69-.48-.46-.79-1.07-.92-1.84h-.16c-.22.93-.7,1.64-1.45,2.12-.75.48-1.67.73-2.77.73-1.44,0-2.55-.38-3.32-1.15-.77-.76-1.15-1.78-1.15-3.03,0-1.51.55-2.64,1.66-3.37,1.11-.74,2.61-1.11,4.51-1.11h2.27v-.9c0-.69-.18-1.25-.55-1.66-.37-.41-.98-.62-1.84-.62-.8,0-1.44.17-1.92.52-.48.35-.87.74-1.18,1.18l-2.41-2.15c.58-.86,1.32-1.54,2.21-2.03s2.09-.73,3.6-.73c2.05,0,3.58.45,4.6,1.34,1.02.9,1.53,2.2,1.53,3.92v6.3h1.34v3.15h-2.25Zm-5.62-2.49c.68,0,1.26-.14,1.74-.44.48-.29.73-.76.73-1.41v-1.69h-1.97c-1.59,0-2.38.53-2.38,1.6v.41c0,.53.16.91.49,1.16.33.24.79.37,1.4.37Z"/>
      <path class="cls-6" d="m264.81,261.54v-14.39h4.06v2.44h.16c.26-.77.69-1.42,1.32-1.96.62-.54,1.47-.81,2.55-.81.99,0,1.83.25,2.52.74s1.2,1.22,1.51,2.17h.08c.13-.4.32-.78.59-1.14.26-.36.59-.66.97-.92.38-.26.81-.46,1.29-.62.47-.16.99-.23,1.53-.23,1.39,0,2.45.49,3.19,1.48.74.99,1.11,2.39,1.11,4.22v9.02h-4.06v-8.69c0-1.83-.66-2.74-1.97-2.74-.6,0-1.15.17-1.64.52-.49.35-.74.88-.74,1.59v9.32h-4.06v-8.69c0-1.83-.66-2.74-1.97-2.74-.29,0-.58.04-.86.12-.28.08-.54.22-.77.4-.23.18-.41.41-.55.67-.14.27-.21.57-.21.92v9.32h-4.06Z"/>
      <path class="cls-6" d="m293.13,261.87c-1.39,0-2.56-.22-3.51-.67-.95-.45-1.8-1.08-2.55-1.9l2.38-2.41c.51.57,1.08,1.01,1.7,1.34.62.33,1.32.49,2.11.49s1.36-.12,1.67-.37c.31-.25.47-.58.47-1,0-.68-.48-1.08-1.45-1.21l-1.56-.19c-3.23-.4-4.85-1.88-4.85-4.44,0-.69.13-1.33.4-1.9.26-.58.64-1.07,1.12-1.48.48-.41,1.07-.73,1.75-.96.69-.23,1.46-.34,2.32-.34.75,0,1.41.05,1.99.15.58.1,1.09.25,1.53.44.45.19.86.43,1.23.71.37.28.74.6,1.11.95l-2.33,2.38c-.46-.46-.97-.82-1.55-1.08-.58-.26-1.17-.4-1.77-.4-.69,0-1.19.11-1.48.33-.29.22-.44.51-.44.88,0,.38.1.68.31.89.21.21.61.36,1.19.45l1.62.22c3.16.42,4.74,1.86,4.74,4.33,0,.69-.15,1.33-.44,1.92-.29.58-.71,1.09-1.25,1.52-.54.43-1.19.76-1.95,1s-1.6.36-2.53.36Z"/>
    </g>
    <g class="cls-5">
      <path class="cls-6" d="m68.54,294.05c-.73,0-1.34-.23-1.82-.69-.48-.46-.79-1.07-.92-1.84h-.16c-.22.93-.7,1.64-1.45,2.12-.75.48-1.67.73-2.77.73-1.44,0-2.55-.38-3.32-1.15-.77-.76-1.15-1.78-1.15-3.03,0-1.51.55-2.64,1.66-3.37s2.61-1.11,4.51-1.11h2.27v-.9c0-.69-.18-1.25-.55-1.66-.37-.41-.98-.62-1.84-.62-.8,0-1.44.17-1.92.52-.48.35-.87.74-1.18,1.18l-2.41-2.15c.58-.86,1.32-1.54,2.21-2.03.89-.49,2.09-.73,3.6-.73,2.05,0,3.58.45,4.6,1.34,1.02.9,1.53,2.2,1.53,3.92v6.3h1.34v3.15h-2.25Zm-5.62-2.49c.68,0,1.26-.14,1.74-.43.48-.29.73-.76.73-1.42v-1.69h-1.97c-1.59,0-2.38.54-2.38,1.6v.41c0,.53.16.91.49,1.16.33.25.79.37,1.4.37Z"/>
      <path class="cls-6" d="m72.43,294.05v-14.39h4.06v2.44h.16c.26-.75.7-1.4,1.34-1.95.64-.55,1.53-.82,2.66-.82,1.48,0,2.6.49,3.36,1.48.76.99,1.14,2.39,1.14,4.22v9.02h-4.06v-8.69c0-.93-.15-1.62-.44-2.07-.29-.45-.81-.67-1.56-.67-.33,0-.65.04-.96.12s-.59.21-.84.4c-.25.18-.44.41-.59.67-.15.27-.22.57-.22.92v9.32h-4.06Z"/>
      <path class="cls-6" d="m96.52,291.64h-.14c-.11.38-.28.75-.52,1.08-.24.34-.53.63-.86.88-.34.25-.72.44-1.15.58-.43.14-.87.21-1.33.21-1.83,0-3.21-.64-4.14-1.93s-1.4-3.16-1.4-5.6.47-4.31,1.4-5.59c.93-1.28,2.31-1.92,4.14-1.92.93,0,1.76.26,2.48.77.72.51,1.18,1.17,1.38,1.97h.14v-8.3h4.06v20.28h-4.06v-2.41Zm-2.66-.55c.77,0,1.4-.19,1.9-.56s.75-.89.75-1.55v-4.25c0-.66-.25-1.17-.75-1.55-.5-.38-1.14-.56-1.9-.56s-1.4.27-1.9.81c-.5.54-.75,1.27-.75,2.18v2.49c0,.91.25,1.64.75,2.18.5.54,1.14.81,1.9.81Z"/>
      <path class="cls-6" d="m114.5,294.38c-1.08,0-2.04-.18-2.88-.53-.84-.36-1.54-.86-2.11-1.51-.57-.65-1-1.44-1.29-2.37-.29-.93-.44-1.97-.44-3.12s.15-2.19.44-3.11c.29-.92.72-1.71,1.29-2.37.57-.66,1.27-1.16,2.11-1.51.84-.35,1.8-.52,2.88-.52,1.46,0,2.68.33,3.66.99.98.66,1.68,1.58,2.1,2.77l-3.29,1.43c-.13-.55-.39-1.01-.79-1.4-.4-.38-.96-.58-1.67-.58-.82,0-1.44.27-1.86.81-.42.54-.63,1.27-.63,2.18v2.69c0,.91.21,1.64.63,2.17.42.53,1.04.79,1.86.79.73,0,1.31-.2,1.74-.59.43-.39.74-.91.95-1.55l3.15,1.37c-.48,1.37-1.21,2.38-2.21,3.01-1,.64-2.21.96-3.63.96Z"/>
      <path class="cls-6" d="m130.29,291.64h-.14c-.13.37-.3.71-.51,1.04s-.48.62-.81.88c-.33.26-.72.46-1.17.6-.45.15-.96.22-1.55.22-1.48,0-2.6-.49-3.36-1.47-.76-.98-1.14-2.38-1.14-4.21v-9.04h4.06v8.69c0,.88.15,1.55.47,2.03.31.48.84.71,1.59.71.31,0,.62-.04.93-.14.31-.09.58-.22.82-.4.24-.17.43-.39.58-.64.15-.25.22-.56.22-.9v-9.34h4.06v14.39h-4.06v-2.41Z"/>
    </g>
    <g class="cls-5">
      <path class="cls-6" d="m140.92,294.05c-1.39,0-2.41-.34-3.06-1.01s-.97-1.65-.97-2.93v-16.33h4.06v17.13h1.81v3.15h-1.84Z"/>
    </g>
    <g class="cls-5">
      <path class="cls-6" d="m149.01,294.05c-1.41,0-2.47-.36-3.19-1.07-.72-.71-1.08-1.75-1.08-3.12v-7.04h-2.03v-3.15h1.01c.55,0,.92-.13,1.12-.4.2-.26.3-.64.3-1.14v-2.36h3.65v3.89h2.85v3.15h-2.85v8.08h2.63v3.15h-2.41Z"/>
      <path class="cls-6" d="m161.89,291.64h-.14c-.13.37-.3.71-.51,1.04s-.48.62-.81.88c-.33.26-.72.46-1.17.6-.45.15-.96.22-1.55.22-1.48,0-2.6-.49-3.36-1.47-.76-.98-1.14-2.38-1.14-4.21v-9.04h4.06v8.69c0,.88.15,1.55.47,2.03.31.48.84.71,1.59.71.31,0,.62-.04.93-.14.31-.09.58-.22.82-.4.24-.17.43-.39.58-.64.15-.25.22-.56.22-.9v-9.34h4.06v14.39h-4.06v-2.41Z"/>
    </g>
    <g class="cls-5">
      <path class="cls-6" d="m168.6,294.05v-14.39h4.06v3.12h.14c.07-.4.2-.79.38-1.17.18-.37.42-.71.73-1,.3-.29.66-.53,1.08-.7.42-.17.91-.26,1.48-.26h.71v3.78h-1.01c-1.19,0-2.07.16-2.64.47-.58.31-.86.89-.86,1.73v8.41h-4.06Z"/>
    </g>
    <g class="cls-5">
      <path class="cls-6" d="m188.83,294.05c-.73,0-1.34-.23-1.82-.69-.48-.46-.79-1.07-.92-1.84h-.16c-.22.93-.7,1.64-1.45,2.12-.75.48-1.67.73-2.77.73-1.44,0-2.55-.38-3.32-1.15-.77-.76-1.15-1.78-1.15-3.03,0-1.51.55-2.64,1.66-3.37s2.61-1.11,4.51-1.11h2.27v-.9c0-.69-.18-1.25-.55-1.66-.37-.41-.98-.62-1.84-.62-.8,0-1.44.17-1.92.52-.48.35-.87.74-1.18,1.18l-2.41-2.15c.58-.86,1.32-1.54,2.21-2.03.89-.49,2.09-.73,3.6-.73,2.05,0,3.58.45,4.6,1.34,1.02.9,1.53,2.2,1.53,3.92v6.3h1.34v3.15h-2.25Zm-5.62-2.49c.68,0,1.26-.14,1.74-.43.48-.29.73-.76.73-1.42v-1.69h-1.97c-1.59,0-2.38.54-2.38,1.6v.41c0,.53.16.91.49,1.16.33.25.79.37,1.4.37Z"/>
      <path class="cls-6" d="m196.75,294.05c-1.39,0-2.41-.34-3.06-1.01s-.97-1.65-.97-2.93v-16.33h4.06v17.13h1.81v3.15h-1.84Z"/>
      <path class="cls-6" d="m214.18,291.64h-.14c-.11.38-.28.75-.52,1.08-.24.34-.53.63-.86.88-.34.25-.72.44-1.15.58-.43.14-.87.21-1.33.21-1.83,0-3.21-.64-4.14-1.93s-1.4-3.16-1.4-5.6.47-4.31,1.4-5.59c.93-1.28,2.31-1.92,4.14-1.92.93,0,1.76.26,2.48.77.72.51,1.18,1.17,1.38,1.97h.14v-8.3h4.06v20.28h-4.06v-2.41Zm-2.66-.55c.77,0,1.4-.19,1.9-.56s.75-.89.75-1.55v-4.25c0-.66-.25-1.17-.75-1.55-.5-.38-1.14-.56-1.9-.56s-1.4.27-1.9.81c-.5.54-.75,1.27-.75,2.18v2.49c0,.91.25,1.64.75,2.18.5.54,1.14.81,1.9.81Z"/>
      <path class="cls-6" d="m222.97,278.13c-.82,0-1.42-.19-1.79-.56-.37-.38-.56-.85-.56-1.44v-.6c0-.58.19-1.06.56-1.44.37-.38.97-.56,1.79-.56s1.42.19,1.8.56.56.85.56,1.44v.6c0,.58-.19,1.06-.56,1.44-.38.37-.97.56-1.8.56Zm-2.03,1.54h4.06v14.39h-4.06v-14.39Z"/>
    </g>
    <g class="cls-5">
      <path class="cls-6" d="m230.65,294.05l-4.71-14.39h4l1.78,5.81,1.34,5.21h.22l1.34-5.21,1.73-5.81h3.84l-4.71,14.39h-4.82Z"/>
    </g>
    <g class="cls-5">
      <path class="cls-6" d="m247.01,294.38c-1.1,0-2.07-.18-2.93-.53-.86-.36-1.59-.86-2.18-1.51-.59-.65-1.04-1.44-1.34-2.37-.3-.93-.45-1.97-.45-3.12s.15-2.16.44-3.08c.29-.92.73-1.71,1.3-2.37.58-.66,1.28-1.17,2.12-1.52.84-.36,1.8-.53,2.88-.53,1.19,0,2.21.2,3.06.6.85.4,1.54.94,2.08,1.62.54.68.93,1.46,1.18,2.34.25.89.37,1.81.37,2.78v1.21h-9.24v.22c0,.94.26,1.69.77,2.24.51.55,1.32.83,2.41.83.84,0,1.53-.17,2.06-.5.53-.34,1.02-.74,1.48-1.21l2.03,2.53c-.64.75-1.48,1.34-2.51,1.76-1.03.42-2.21.63-3.52.63Zm-.08-12.06c-.82,0-1.47.27-1.93.81-.47.54-.7,1.26-.7,2.15v.22h5.04v-.25c0-.88-.2-1.58-.59-2.12-.39-.54-1-.81-1.82-.81Z"/>
      <path class="cls-6" d="m255.34,294.05v-14.39h4.06v3.12h.14c.07-.4.2-.79.38-1.17.18-.37.42-.71.73-1,.3-.29.66-.53,1.08-.7.42-.17.91-.26,1.48-.26h.71v3.78h-1.01c-1.19,0-2.07.16-2.64.47-.58.31-.86.89-.86,1.73v8.41h-4.06Z"/>
      <path class="cls-6" d="m270.22,294.38c-1.39,0-2.56-.22-3.51-.67-.95-.45-1.8-1.08-2.55-1.9l2.38-2.41c.51.57,1.08,1.01,1.7,1.34.62.33,1.32.49,2.11.49s1.36-.12,1.67-.37c.31-.25.47-.58.47-1,0-.68-.48-1.08-1.45-1.21l-1.56-.19c-3.23-.4-4.85-1.88-4.85-4.44,0-.69.13-1.33.4-1.91.26-.58.64-1.07,1.12-1.48.48-.41,1.07-.73,1.75-.96s1.46-.34,2.32-.34c.75,0,1.41.05,1.99.15.58.1,1.09.25,1.53.44.45.19.86.43,1.23.71.37.28.74.6,1.11.95l-2.33,2.38c-.46-.46-.97-.82-1.55-1.08-.58-.26-1.17-.4-1.77-.4-.69,0-1.19.11-1.48.33-.29.22-.44.51-.44.88,0,.38.1.68.31.89.21.21.61.36,1.19.45l1.62.22c3.16.42,4.74,1.86,4.74,4.33,0,.69-.15,1.33-.44,1.92s-.71,1.09-1.25,1.52c-.54.43-1.19.76-1.95,1s-1.6.36-2.53.36Z"/>
      <path class="cls-6" d="m280.12,278.13c-.82,0-1.42-.19-1.79-.56-.37-.38-.56-.85-.56-1.44v-.6c0-.58.19-1.06.56-1.44.37-.38.97-.56,1.79-.56s1.42.19,1.8.56.56.85.56,1.44v.6c0,.58-.19,1.06-.56,1.44-.38.37-.97.56-1.8.56Zm-2.03,1.54h4.06v14.39h-4.06v-14.39Z"/>
      <path class="cls-6" d="m289.9,294.05c-1.41,0-2.47-.36-3.19-1.07-.72-.71-1.08-1.75-1.08-3.12v-7.04h-2.03v-3.15h1.01c.55,0,.92-.13,1.12-.4.2-.26.3-.64.3-1.14v-2.36h3.65v3.89h2.85v3.15h-2.85v8.08h2.63v3.15h-2.41Z"/>
      <path class="cls-6" d="m303.08,279.66h3.78l-5.54,16.61c-.37,1.11-.88,1.94-1.55,2.47-.67.53-1.62.79-2.86.79h-2.52v-3.15h2.71l.49-1.59-5.04-15.13h4.03l2.11,6.71,1.04,4.17h.16l1.07-4.17,2.11-6.71Z"/>
    </g>
  </g>
  <g>
    <path class="cls-1" d="m463.27,413.99h280.45c30.69,0,55.57,24.88,55.57,55.57h0c0,30.69-24.88,55.57-55.57,55.57h-280.45c-30.69,0-55.57-24.88-55.57-55.57h0c0-30.69,24.88-55.57,55.57-55.57Z"/>
    <g class="cls-5">
      <g class="cls-5">
        <path class="cls-6" d="m455.03,458.13h-.14c-.15.97-.64,1.77-1.48,2.41-.84.64-1.98.96-3.43.96-1.1,0-2.12-.21-3.07-.63-.95-.42-1.78-1.04-2.49-1.86s-1.27-1.85-1.67-3.07-.6-2.64-.6-4.25.21-3.03.63-4.28c.42-1.24,1.01-2.28,1.77-3.12.76-.84,1.67-1.48,2.73-1.92s2.24-.66,3.54-.66c1.72,0,3.2.37,4.44,1.11,1.24.74,2.22,1.85,2.93,3.33l-3.4,1.95c-.29-.75-.75-1.38-1.37-1.91-.62-.52-1.49-.78-2.6-.78-1.3,0-2.33.38-3.1,1.12-.77.75-1.15,1.93-1.15,3.54v3.07c0,1.59.38,2.76,1.15,3.52.77.76,1.8,1.14,3.1,1.14.51,0,1-.06,1.45-.18s.86-.3,1.21-.55c.35-.25.62-.54.81-.89.19-.35.29-.76.29-1.23v-.96h-3.56v-3.48h7.54v10.66h-3.51v-3.04Z"/>
        <path class="cls-6" d="m465.34,461.17c-1.39,0-2.41-.34-3.06-1.01s-.97-1.65-.97-2.93v-16.33h4.06v17.13h1.81v3.15h-1.84Z"/>
        <path class="cls-6" d="m474.38,461.5c-1.06,0-2.01-.17-2.84-.52-.83-.35-1.53-.85-2.11-1.51-.58-.66-1.02-1.45-1.33-2.38-.31-.93-.47-1.97-.47-3.12s.15-2.19.47-3.12c.31-.93.75-1.72,1.33-2.37.58-.65,1.28-1.15,2.11-1.49.83-.35,1.78-.52,2.84-.52s2,.17,2.84.52c.83.35,1.53.85,2.11,1.49.58.65,1.02,1.44,1.33,2.37.31.93.47,1.97.47,3.12s-.16,2.19-.47,3.12c-.31.93-.75,1.73-1.33,2.38-.58.66-1.28,1.16-2.11,1.51-.83.35-1.78.52-2.84.52Zm0-3.21c.8,0,1.43-.25,1.86-.74.44-.49.66-1.2.66-2.11v-2.93c0-.91-.22-1.62-.66-2.11s-1.06-.74-1.86-.74-1.43.25-1.86.74-.66,1.2-.66,2.11v2.93c0,.91.22,1.62.66,2.11.44.49,1.06.74,1.86.74Z"/>
        <path class="cls-6" d="m482.93,440.89h4.06v8.3h.14c.2-.8.66-1.46,1.38-1.97.72-.51,1.55-.77,2.48-.77,1.83,0,3.21.64,4.14,1.92.93,1.28,1.4,3.14,1.4,5.59s-.47,4.32-1.4,5.6c-.93,1.29-2.31,1.93-4.14,1.93-.48,0-.92-.07-1.34-.21-.42-.14-.8-.33-1.14-.58-.34-.25-.63-.54-.86-.88-.24-.34-.41-.7-.52-1.08h-.14v2.41h-4.06v-20.28Zm6.71,17.32c.77,0,1.4-.27,1.9-.81.5-.54.75-1.26.75-2.18v-2.49c0-.91-.25-1.64-.75-2.18-.5-.54-1.14-.81-1.9-.81s-1.4.19-1.9.56c-.5.37-.75.89-.75,1.55v4.25c0,.66.25,1.17.75,1.55s1.14.56,1.9.56Z"/>
        <path class="cls-6" d="m509.16,461.17c-.73,0-1.34-.23-1.82-.69-.48-.46-.79-1.07-.92-1.84h-.16c-.22.93-.7,1.64-1.45,2.12-.75.48-1.67.73-2.77.73-1.44,0-2.55-.38-3.32-1.15-.77-.76-1.15-1.78-1.15-3.03,0-1.51.55-2.64,1.66-3.37s2.61-1.11,4.51-1.11h2.27v-.9c0-.69-.18-1.25-.55-1.66-.37-.41-.98-.62-1.84-.62-.8,0-1.44.17-1.92.52-.48.35-.87.74-1.18,1.18l-2.41-2.15c.58-.86,1.32-1.54,2.21-2.03.89-.49,2.09-.73,3.6-.73,2.05,0,3.58.45,4.6,1.34,1.02.9,1.53,2.2,1.53,3.92v6.3h1.34v3.15h-2.25Zm-5.62-2.49c.68,0,1.26-.14,1.74-.43.48-.29.73-.76.73-1.42v-1.69h-1.97c-1.59,0-2.38.54-2.38,1.6v.41c0,.53.16.91.49,1.16.33.25.79.37,1.4.37Z"/>
        <path class="cls-6" d="m517.08,461.17c-1.39,0-2.41-.34-3.06-1.01s-.97-1.65-.97-2.93v-16.33h4.06v17.13h1.81v3.15h-1.84Z"/>
        <path class="cls-6" d="m530.56,461.5c-1.39,0-2.56-.22-3.51-.67-.95-.45-1.8-1.08-2.55-1.9l2.38-2.41c.51.57,1.08,1.01,1.7,1.34.62.33,1.32.49,2.11.49s1.36-.12,1.67-.37c.31-.25.47-.58.47-1,0-.68-.48-1.08-1.45-1.21l-1.56-.19c-3.23-.4-4.85-1.88-4.85-4.44,0-.69.13-1.33.4-1.91.26-.58.64-1.07,1.12-1.48.48-.41,1.07-.73,1.75-.96s1.46-.34,2.32-.34c.75,0,1.41.05,1.99.15.58.1,1.09.25,1.53.44.45.19.86.43,1.23.71.37.28.74.6,1.11.95l-2.33,2.38c-.46-.46-.97-.82-1.55-1.08-.58-.26-1.17-.4-1.77-.4-.69,0-1.19.11-1.48.33-.29.22-.44.51-.44.88,0,.38.1.68.31.89.21.21.61.36,1.19.45l1.62.22c3.16.42,4.74,1.86,4.74,4.33,0,.69-.15,1.33-.44,1.92s-.71,1.09-1.25,1.52c-.54.43-1.19.76-1.95,1s-1.6.36-2.53.36Z"/>
        <path class="cls-6" d="m544.26,461.5c-1.06,0-2.01-.17-2.84-.52-.83-.35-1.53-.85-2.11-1.51-.58-.66-1.02-1.45-1.33-2.38-.31-.93-.47-1.97-.47-3.12s.15-2.19.47-3.12c.31-.93.75-1.72,1.33-2.37.58-.65,1.28-1.15,2.11-1.49.83-.35,1.78-.52,2.84-.52s2,.17,2.84.52c.83.35,1.53.85,2.11,1.49.58.65,1.02,1.44,1.33,2.37.31.93.47,1.97.47,3.12s-.16,2.19-.47,3.12c-.31.93-.75,1.73-1.33,2.38-.58.66-1.28,1.16-2.11,1.51-.83.35-1.78.52-2.84.52Zm0-3.21c.8,0,1.43-.25,1.86-.74.44-.49.66-1.2.66-2.11v-2.93c0-.91-.22-1.62-.66-2.11s-1.06-.74-1.86-.74-1.43.25-1.86.74-.66,1.2-.66,2.11v2.93c0,.91.22,1.62.66,2.11.44.49,1.06.74,1.86.74Z"/>
        <path class="cls-6" d="m558.62,461.5c-1.08,0-2.04-.18-2.88-.53-.84-.36-1.54-.86-2.11-1.51-.57-.65-1-1.44-1.29-2.37-.29-.93-.44-1.97-.44-3.12s.15-2.19.44-3.11c.29-.92.72-1.71,1.29-2.37.57-.66,1.27-1.16,2.11-1.51.84-.35,1.8-.52,2.88-.52,1.46,0,2.68.33,3.66.99.98.66,1.68,1.58,2.1,2.77l-3.29,1.43c-.13-.55-.39-1.01-.79-1.4-.4-.38-.96-.58-1.67-.58-.82,0-1.44.27-1.86.81-.42.54-.63,1.27-.63,2.18v2.69c0,.91.21,1.64.63,2.17.42.53,1.04.79,1.86.79.73,0,1.31-.2,1.74-.59.43-.39.74-.91.95-1.55l3.15,1.37c-.48,1.37-1.21,2.38-2.21,3.01-1,.64-2.21.96-3.63.96Z"/>
        <path class="cls-6" d="m567.94,445.25c-.82,0-1.42-.19-1.79-.56-.37-.38-.56-.85-.56-1.44v-.6c0-.58.19-1.06.56-1.44.37-.38.97-.56,1.79-.56s1.42.19,1.8.56.56.85.56,1.44v.6c0,.58-.19,1.06-.56,1.44-.38.37-.97.56-1.8.56Zm-2.03,1.54h4.06v14.39h-4.06v-14.39Z"/>
        <path class="cls-6" d="m583.32,461.17c-.73,0-1.34-.23-1.82-.69-.48-.46-.79-1.07-.92-1.84h-.16c-.22.93-.7,1.64-1.45,2.12-.75.48-1.67.73-2.77.73-1.44,0-2.55-.38-3.32-1.15-.77-.76-1.15-1.78-1.15-3.03,0-1.51.55-2.64,1.66-3.37s2.61-1.11,4.51-1.11h2.27v-.9c0-.69-.18-1.25-.55-1.66-.37-.41-.98-.62-1.84-.62-.8,0-1.44.17-1.92.52-.48.35-.87.74-1.18,1.18l-2.41-2.15c.58-.86,1.32-1.54,2.21-2.03.89-.49,2.09-.73,3.6-.73,2.05,0,3.58.45,4.6,1.34,1.02.9,1.53,2.2,1.53,3.92v6.3h1.34v3.15h-2.25Zm-5.62-2.49c.68,0,1.26-.14,1.74-.43.48-.29.73-.76.73-1.42v-1.69h-1.97c-1.59,0-2.38.54-2.38,1.6v.41c0,.53.16.91.49,1.16.33.25.79.37,1.4.37Z"/>
        <path class="cls-6" d="m591.24,461.17c-1.39,0-2.41-.34-3.06-1.01s-.97-1.65-.97-2.93v-16.33h4.06v17.13h1.81v3.15h-1.84Z"/>
      </g>
      <g class="cls-5">
        <path class="cls-6" d="m599.46,461.17v-14.39h4.06v3.12h.14c.07-.4.2-.79.38-1.17.18-.37.42-.71.73-1,.3-.29.66-.53,1.08-.7.42-.17.91-.26,1.48-.26h.71v3.78h-1.01c-1.19,0-2.07.16-2.64.47-.58.31-.86.89-.86,1.73v8.41h-4.06Z"/>
      </g>
      <g class="cls-5">
        <path class="cls-6" d="m615.3,461.5c-1.1,0-2.07-.18-2.93-.53-.86-.36-1.58-.86-2.18-1.51-.59-.65-1.04-1.44-1.34-2.37-.3-.93-.45-1.97-.45-3.12s.15-2.16.44-3.08c.29-.92.73-1.71,1.3-2.37.58-.66,1.28-1.17,2.12-1.52.84-.36,1.8-.53,2.88-.53,1.19,0,2.21.2,3.06.6.85.4,1.54.94,2.08,1.62s.93,1.46,1.18,2.34c.25.89.37,1.81.37,2.78v1.21h-9.24v.22c0,.94.26,1.69.77,2.24.51.55,1.32.83,2.41.83.84,0,1.53-.17,2.06-.5.53-.34,1.02-.74,1.48-1.21l2.03,2.53c-.64.75-1.48,1.34-2.51,1.76-1.03.42-2.21.63-3.52.63Zm-.08-12.06c-.82,0-1.47.27-1.93.81s-.7,1.26-.7,2.15v.22h5.04v-.25c0-.88-.2-1.58-.59-2.12-.39-.54-1-.81-1.82-.81Z"/>
        <path class="cls-6" d="m628.51,461.5c-1.39,0-2.56-.22-3.51-.67-.95-.45-1.8-1.08-2.55-1.9l2.38-2.41c.51.57,1.08,1.01,1.7,1.34.62.33,1.32.49,2.11.49s1.36-.12,1.67-.37c.31-.25.47-.58.47-1,0-.68-.48-1.08-1.45-1.21l-1.56-.19c-3.23-.4-4.85-1.88-4.85-4.44,0-.69.13-1.33.4-1.91.26-.58.64-1.07,1.12-1.48s1.07-.73,1.75-.96c.69-.23,1.46-.34,2.32-.34.75,0,1.41.05,1.99.15.58.1,1.09.25,1.54.44.45.19.86.43,1.23.71.37.28.74.6,1.11.95l-2.33,2.38c-.46-.46-.97-.82-1.55-1.08-.58-.26-1.16-.4-1.77-.4-.69,0-1.19.11-1.48.33-.29.22-.44.51-.44.88,0,.38.1.68.32.89.21.21.61.36,1.19.45l1.62.22c3.16.42,4.74,1.86,4.74,4.33,0,.69-.15,1.33-.44,1.92-.29.58-.71,1.09-1.25,1.52-.54.43-1.19.76-1.95,1-.76.24-1.6.36-2.54.36Z"/>
        <path class="cls-6" d="m636.38,446.78h4.06v2.41h.14c.2-.8.66-1.46,1.38-1.97s1.55-.77,2.48-.77c1.83,0,3.21.64,4.14,1.92.93,1.28,1.4,3.14,1.4,5.59s-.47,4.32-1.4,5.6-2.31,1.93-4.14,1.93c-.48,0-.92-.07-1.34-.21-.42-.14-.8-.33-1.14-.58s-.63-.54-.86-.88-.41-.7-.52-1.08h-.14v7.89h-4.06v-19.87Zm6.71,11.43c.77,0,1.4-.27,1.9-.81.5-.54.75-1.26.75-2.18v-2.49c0-.91-.25-1.64-.75-2.18-.5-.54-1.14-.81-1.9-.81s-1.4.19-1.9.56c-.5.37-.75.89-.75,1.55v4.25c0,.66.25,1.17.75,1.55.5.37,1.14.56,1.9.56Z"/>
        <path class="cls-6" d="m657.81,461.5c-1.06,0-2-.17-2.84-.52-.83-.35-1.53-.85-2.11-1.51-.58-.66-1.02-1.45-1.33-2.38-.31-.93-.47-1.97-.47-3.12s.16-2.19.47-3.12.75-1.72,1.33-2.37c.58-.65,1.28-1.15,2.11-1.49.83-.35,1.78-.52,2.84-.52s2,.17,2.84.52c.83.35,1.53.85,2.11,1.49.58.65,1.02,1.44,1.33,2.37.31.93.47,1.97.47,3.12s-.16,2.19-.47,3.12c-.31.93-.75,1.73-1.33,2.38-.58.66-1.28,1.16-2.11,1.51-.83.35-1.78.52-2.84.52Zm0-3.21c.8,0,1.42-.25,1.86-.74.44-.49.66-1.2.66-2.11v-2.93c0-.91-.22-1.62-.66-2.11s-1.06-.74-1.86-.74-1.42.25-1.86.74-.66,1.2-.66,2.11v2.93c0,.91.22,1.62.66,2.11.44.49,1.06.74,1.86.74Z"/>
        <path class="cls-6" d="m666.36,461.17v-14.39h4.06v2.44h.16c.26-.75.7-1.4,1.34-1.95.64-.55,1.53-.82,2.66-.82,1.48,0,2.6.49,3.36,1.48s1.14,2.39,1.14,4.22v9.02h-4.06v-8.69c0-.93-.15-1.62-.44-2.07-.29-.45-.81-.67-1.56-.67-.33,0-.65.04-.96.12-.31.08-.59.21-.84.4-.25.18-.44.41-.59.67-.15.27-.22.57-.22.92v9.32h-4.06Z"/>
        <path class="cls-6" d="m686.5,461.5c-1.39,0-2.56-.22-3.51-.67-.95-.45-1.8-1.08-2.55-1.9l2.38-2.41c.51.57,1.08,1.01,1.7,1.34.62.33,1.32.49,2.11.49s1.36-.12,1.67-.37c.31-.25.47-.58.47-1,0-.68-.48-1.08-1.45-1.21l-1.56-.19c-3.23-.4-4.85-1.88-4.85-4.44,0-.69.13-1.33.4-1.91.26-.58.64-1.07,1.12-1.48s1.07-.73,1.75-.96c.69-.23,1.46-.34,2.32-.34.75,0,1.41.05,1.99.15.58.1,1.09.25,1.54.44.45.19.86.43,1.23.71.37.28.74.6,1.11.95l-2.33,2.38c-.46-.46-.97-.82-1.55-1.08-.58-.26-1.16-.4-1.77-.4-.69,0-1.19.11-1.48.33-.29.22-.44.51-.44.88,0,.38.1.68.32.89.21.21.61.36,1.19.45l1.62.22c3.16.42,4.74,1.86,4.74,4.33,0,.69-.15,1.33-.44,1.92-.29.58-.71,1.09-1.25,1.52-.54.43-1.19.76-1.95,1-.76.24-1.6.36-2.54.36Z"/>
        <path class="cls-6" d="m705,461.17c-.73,0-1.34-.23-1.82-.69-.48-.46-.79-1.07-.92-1.84h-.17c-.22.93-.7,1.64-1.45,2.12-.75.48-1.67.73-2.77.73-1.44,0-2.55-.38-3.32-1.15s-1.15-1.78-1.15-3.03c0-1.51.55-2.64,1.66-3.37s2.61-1.11,4.51-1.11h2.27v-.9c0-.69-.18-1.25-.55-1.66-.37-.41-.98-.62-1.84-.62-.8,0-1.44.17-1.92.52-.48.35-.87.74-1.18,1.18l-2.41-2.15c.58-.86,1.32-1.54,2.21-2.03.89-.49,2.09-.73,3.6-.73,2.05,0,3.58.45,4.6,1.34,1.02.9,1.53,2.2,1.53,3.92v6.3h1.34v3.15h-2.25Zm-5.62-2.49c.68,0,1.26-.14,1.74-.43s.73-.76.73-1.42v-1.69h-1.97c-1.59,0-2.38.54-2.38,1.6v.41c0,.53.16.91.49,1.16.33.25.79.37,1.4.37Z"/>
        <path class="cls-6" d="m708.89,440.89h4.06v8.3h.14c.2-.8.66-1.46,1.38-1.97s1.55-.77,2.48-.77c1.83,0,3.21.64,4.14,1.92.93,1.28,1.4,3.14,1.4,5.59s-.47,4.32-1.4,5.6-2.31,1.93-4.14,1.93c-.48,0-.92-.07-1.34-.21-.42-.14-.8-.33-1.14-.58s-.63-.54-.86-.88-.41-.7-.52-1.08h-.14v2.41h-4.06v-20.28Zm6.71,17.32c.77,0,1.4-.27,1.9-.81.5-.54.75-1.26.75-2.18v-2.49c0-.91-.25-1.64-.75-2.18-.5-.54-1.14-.81-1.9-.81s-1.4.19-1.9.56c-.5.37-.75.89-.75,1.55v4.25c0,.66.25,1.17.75,1.55.5.37,1.14.56,1.9.56Z"/>
        <path class="cls-6" d="m726.51,445.25c-.82,0-1.42-.19-1.79-.56s-.56-.85-.56-1.44v-.6c0-.58.19-1.06.56-1.44.37-.38.97-.56,1.79-.56s1.42.19,1.79.56c.38.37.56.85.56,1.44v.6c0,.58-.19,1.06-.56,1.44s-.97.56-1.79.56Zm-2.03,1.54h4.06v14.39h-4.06v-14.39Z"/>
        <path class="cls-6" d="m735.28,461.17c-1.39,0-2.41-.34-3.06-1.01-.65-.68-.97-1.65-.97-2.93v-16.33h4.06v17.13h1.81v3.15h-1.84Z"/>
        <path class="cls-6" d="m740.52,445.25c-.82,0-1.42-.19-1.79-.56s-.56-.85-.56-1.44v-.6c0-.58.19-1.06.56-1.44.37-.38.97-.56,1.79-.56s1.42.19,1.79.56c.38.37.56.85.56,1.44v.6c0,.58-.19,1.06-.56,1.44s-.97.56-1.79.56Zm-2.03,1.54h4.06v14.39h-4.06v-14.39Z"/>
        <path class="cls-6" d="m750.3,461.17c-1.41,0-2.47-.36-3.19-1.07-.72-.71-1.08-1.75-1.08-3.12v-7.04h-2.03v-3.15h1.01c.55,0,.92-.13,1.12-.4s.3-.64.3-1.14v-2.36h3.65v3.89h2.85v3.15h-2.85v8.08h2.63v3.15h-2.41Z"/>
        <path class="cls-6" d="m763.48,446.78h3.78l-5.54,16.61c-.37,1.11-.88,1.94-1.55,2.47-.67.53-1.62.79-2.86.79h-2.52v-3.15h2.71l.49-1.59-5.04-15.13h4.03l2.11,6.71,1.04,4.17h.16l1.07-4.17,2.11-6.71Z"/>
      </g>
      <g class="cls-5">
        <path class="cls-6" d="m435.6,479.3h3.92l1.4,5.81.99,4.38h.11l1.15-4.38,1.64-5.81h3.7l1.67,5.81,1.18,4.38h.11l.99-4.38,1.4-5.81h3.75l-3.97,14.39h-4.25l-1.75-6.08-1.01-3.73h-.08l-.99,3.73-1.75,6.08h-4.17l-4.03-14.39Z"/>
        <path class="cls-6" d="m460.98,477.76c-.82,0-1.42-.19-1.79-.56-.37-.38-.56-.85-.56-1.44v-.6c0-.58.19-1.06.56-1.44.37-.38.97-.56,1.79-.56s1.42.19,1.8.56.56.85.56,1.44v.6c0,.58-.19,1.06-.56,1.44-.38.37-.97.56-1.8.56Zm-2.03,1.54h4.06v14.39h-4.06v-14.39Z"/>
        <path class="cls-6" d="m470.76,493.68c-1.41,0-2.47-.36-3.19-1.07-.72-.71-1.08-1.75-1.08-3.12v-7.04h-2.03v-3.15h1.01c.55,0,.92-.13,1.12-.4.2-.26.3-.64.3-1.14v-2.36h3.65v3.89h2.85v3.15h-2.85v8.08h2.63v3.15h-2.41Z"/>
        <path class="cls-6" d="m475.15,473.4h4.06v8.33h.16c.26-.75.7-1.4,1.34-1.95.64-.55,1.53-.82,2.66-.82,1.48,0,2.6.49,3.36,1.48.76.99,1.14,2.39,1.14,4.22v9.02h-4.06v-8.69c0-.93-.15-1.62-.44-2.07-.29-.45-.81-.67-1.56-.67-.33,0-.65.04-.96.12s-.59.21-.84.4c-.25.18-.44.41-.59.67-.15.27-.22.57-.22.92v9.32h-4.06v-20.28Z"/>
        <path class="cls-6" d="m499.84,493.68c-1.39,0-2.41-.34-3.06-1.01s-.97-1.65-.97-2.93v-16.33h4.06v17.13h1.81v3.15h-1.84Z"/>
        <path class="cls-6" d="m508.88,494.01c-1.06,0-2.01-.17-2.84-.52-.83-.35-1.53-.85-2.11-1.51-.58-.66-1.02-1.45-1.33-2.38-.31-.93-.47-1.97-.47-3.12s.15-2.19.47-3.12c.31-.93.75-1.72,1.33-2.37.58-.65,1.28-1.15,2.11-1.49.83-.35,1.78-.52,2.84-.52s2,.17,2.84.52c.83.35,1.53.85,2.11,1.49.58.65,1.02,1.44,1.33,2.37.31.93.47,1.97.47,3.12s-.16,2.19-.47,3.12c-.31.93-.75,1.73-1.33,2.38-.58.66-1.28,1.16-2.11,1.51-.83.35-1.78.52-2.84.52Zm0-3.21c.8,0,1.43-.25,1.86-.74.44-.49.66-1.2.66-2.11v-2.93c0-.91-.22-1.62-.66-2.11s-1.06-.74-1.86-.74-1.43.25-1.86.74-.66,1.2-.66,2.11v2.93c0,.91.22,1.62.66,2.11.44.49,1.06.74,1.86.74Z"/>
        <path class="cls-6" d="m523.24,494.01c-1.08,0-2.04-.18-2.88-.53-.84-.36-1.54-.86-2.11-1.51-.57-.65-1-1.44-1.29-2.37-.29-.93-.44-1.97-.44-3.12s.15-2.19.44-3.11c.29-.92.72-1.71,1.29-2.37.57-.66,1.27-1.16,2.11-1.51.84-.35,1.8-.52,2.88-.52,1.46,0,2.68.33,3.66.99.98.66,1.68,1.58,2.1,2.77l-3.29,1.43c-.13-.55-.39-1.01-.79-1.4-.4-.38-.96-.58-1.67-.58-.82,0-1.44.27-1.86.81-.42.54-.63,1.27-.63,2.18v2.69c0,.91.21,1.64.63,2.17.42.53,1.04.79,1.86.79.73,0,1.31-.2,1.74-.59.43-.39.74-.91.95-1.55l3.15,1.37c-.48,1.37-1.21,2.38-2.21,3.01-1,.64-2.21.96-3.63.96Z"/>
        <path class="cls-6" d="m541.17,493.68c-.73,0-1.34-.23-1.82-.69-.48-.46-.79-1.07-.92-1.84h-.16c-.22.93-.7,1.64-1.45,2.12-.75.48-1.67.73-2.77.73-1.44,0-2.55-.38-3.32-1.15-.77-.76-1.15-1.78-1.15-3.03,0-1.51.55-2.64,1.66-3.37s2.61-1.11,4.51-1.11h2.27v-.9c0-.69-.18-1.25-.55-1.66-.37-.41-.98-.62-1.84-.62-.8,0-1.44.17-1.92.52-.48.35-.87.74-1.18,1.18l-2.41-2.15c.58-.86,1.32-1.54,2.21-2.03.89-.49,2.09-.73,3.6-.73,2.05,0,3.58.45,4.6,1.34,1.02.9,1.53,2.2,1.53,3.92v6.3h1.34v3.15h-2.25Zm-5.62-2.49c.68,0,1.26-.14,1.74-.43.48-.29.73-.76.73-1.42v-1.69h-1.97c-1.59,0-2.38.54-2.38,1.6v.41c0,.53.16.91.49,1.16.33.25.79.37,1.4.37Z"/>
        <path class="cls-6" d="m549.09,493.68c-1.39,0-2.41-.34-3.06-1.01s-.97-1.65-.97-2.93v-16.33h4.06v17.13h1.81v3.15h-1.84Z"/>
      </g>
      <g class="cls-5">
        <path class="cls-6" d="m563.2,494.01c-1.08,0-2.04-.18-2.88-.53-.84-.36-1.54-.86-2.11-1.51-.57-.65-1-1.44-1.29-2.37-.29-.93-.44-1.97-.44-3.12s.15-2.19.44-3.11c.29-.92.72-1.71,1.29-2.37.57-.66,1.27-1.16,2.11-1.51.84-.35,1.8-.52,2.88-.52,1.46,0,2.68.33,3.66.99.98.66,1.68,1.58,2.1,2.77l-3.29,1.43c-.13-.55-.39-1.01-.79-1.4-.4-.38-.96-.58-1.67-.58-.82,0-1.44.27-1.86.81-.42.54-.63,1.27-.63,2.18v2.69c0,.91.21,1.64.63,2.17.42.53,1.04.79,1.86.79.73,0,1.31-.2,1.74-.59.43-.39.74-.91.95-1.55l3.15,1.37c-.48,1.37-1.21,2.38-2.21,3.01-1,.64-2.21.96-3.63.96Z"/>
      </g>
      <g class="cls-5">
        <path class="cls-6" d="m576.17,494.01c-1.06,0-2.01-.17-2.84-.52-.83-.35-1.53-.85-2.11-1.51-.58-.66-1.02-1.45-1.33-2.38-.31-.93-.47-1.97-.47-3.12s.15-2.19.47-3.12c.31-.93.75-1.72,1.33-2.37.58-.65,1.28-1.15,2.11-1.49.83-.35,1.78-.52,2.84-.52s2,.17,2.84.52c.83.35,1.53.85,2.11,1.49.58.65,1.02,1.44,1.33,2.37.31.93.47,1.97.47,3.12s-.16,2.19-.47,3.12c-.31.93-.75,1.73-1.33,2.38-.58.66-1.28,1.16-2.11,1.51-.83.35-1.78.52-2.84.52Zm0-3.21c.8,0,1.43-.25,1.86-.74.44-.49.66-1.2.66-2.11v-2.93c0-.91-.22-1.62-.66-2.11s-1.06-.74-1.86-.74-1.43.25-1.86.74-.66,1.2-.66,2.11v2.93c0,.91.22,1.62.66,2.11.44.49,1.06.74,1.86.74Z"/>
        <path class="cls-6" d="m584.72,493.68v-14.39h4.06v2.44h.16c.26-.77.69-1.42,1.32-1.96.62-.54,1.47-.81,2.55-.81.99,0,1.83.25,2.52.74.69.49,1.2,1.22,1.51,2.17h.08c.13-.4.32-.78.59-1.14.26-.36.59-.66.97-.92s.81-.46,1.29-.62c.47-.15.99-.23,1.53-.23,1.39,0,2.45.49,3.19,1.48.74.99,1.11,2.39,1.11,4.22v9.02h-4.06v-8.69c0-1.83-.66-2.74-1.97-2.74-.6,0-1.15.17-1.64.52-.49.35-.74.88-.74,1.59v9.32h-4.06v-8.69c0-1.83-.66-2.74-1.97-2.74-.29,0-.58.04-.86.12-.28.08-.54.21-.77.4s-.41.41-.55.67c-.14.27-.21.57-.21.92v9.32h-4.06Z"/>
        <path class="cls-6" d="m608.15,493.68v-14.39h4.06v2.44h.16c.26-.77.69-1.42,1.32-1.96s1.47-.81,2.55-.81c.99,0,1.83.25,2.52.74.69.49,1.2,1.22,1.51,2.17h.08c.13-.4.32-.78.59-1.14s.59-.66.97-.92c.38-.26.81-.46,1.29-.62.48-.15.99-.23,1.54-.23,1.39,0,2.45.49,3.19,1.48.74.99,1.11,2.39,1.11,4.22v9.02h-4.06v-8.69c0-1.83-.66-2.74-1.97-2.74-.6,0-1.15.17-1.64.52-.49.35-.74.88-.74,1.59v9.32h-4.06v-8.69c0-1.83-.66-2.74-1.97-2.74-.29,0-.58.04-.86.12s-.54.21-.77.4c-.23.18-.41.41-.55.67-.14.27-.21.57-.21.92v9.32h-4.06Z"/>
        <path class="cls-6" d="m640.08,491.27h-.14c-.13.37-.3.71-.51,1.04-.21.33-.48.62-.81.88s-.72.46-1.17.6c-.45.15-.96.22-1.55.22-1.48,0-2.6-.49-3.36-1.47-.76-.98-1.14-2.38-1.14-4.21v-9.04h4.06v8.69c0,.88.16,1.55.47,2.03.31.48.84.71,1.59.71.31,0,.62-.04.93-.14s.58-.22.82-.4.43-.39.58-.64c.15-.25.22-.56.22-.9v-9.34h4.06v14.39h-4.06v-2.41Z"/>
        <path class="cls-6" d="m646.85,493.68v-14.39h4.06v2.44h.16c.26-.75.7-1.4,1.34-1.95.64-.55,1.53-.82,2.66-.82,1.48,0,2.6.49,3.36,1.48s1.14,2.39,1.14,4.22v9.02h-4.06v-8.69c0-.93-.15-1.62-.44-2.07-.29-.45-.81-.67-1.56-.67-.33,0-.65.04-.96.12-.31.08-.59.21-.84.4-.25.18-.44.41-.59.67-.15.27-.22.57-.22.92v9.32h-4.06Z"/>
        <path class="cls-6" d="m664.14,477.76c-.82,0-1.42-.19-1.79-.56s-.56-.85-.56-1.44v-.6c0-.58.19-1.06.56-1.44.37-.38.97-.56,1.79-.56s1.42.19,1.79.56c.38.37.56.85.56,1.44v.6c0,.58-.19,1.06-.56,1.44s-.97.56-1.79.56Zm-2.03,1.54h4.06v14.39h-4.06v-14.39Z"/>
        <path class="cls-6" d="m673.92,493.68c-1.41,0-2.47-.36-3.19-1.07-.72-.71-1.08-1.75-1.08-3.12v-7.04h-2.03v-3.15h1.01c.55,0,.92-.13,1.12-.4s.3-.64.3-1.14v-2.36h3.65v3.89h2.85v3.15h-2.85v8.08h2.63v3.15h-2.41Z"/>
        <path class="cls-6" d="m680.33,477.76c-.82,0-1.42-.19-1.79-.56s-.56-.85-.56-1.44v-.6c0-.58.19-1.06.56-1.44.37-.38.97-.56,1.79-.56s1.42.19,1.79.56c.38.37.56.85.56,1.44v.6c0,.58-.19,1.06-.56,1.44s-.97.56-1.79.56Zm-2.03,1.54h4.06v14.39h-4.06v-14.39Z"/>
        <path class="cls-6" d="m691.08,494.01c-1.1,0-2.07-.18-2.93-.53-.86-.36-1.59-.86-2.18-1.51s-1.04-1.44-1.34-2.37c-.3-.93-.45-1.97-.45-3.12s.15-2.16.44-3.08c.29-.92.73-1.71,1.3-2.37.58-.66,1.28-1.17,2.12-1.52.84-.36,1.8-.53,2.88-.53,1.19,0,2.21.2,3.06.6.85.4,1.54.94,2.08,1.62s.93,1.46,1.18,2.34c.25.89.37,1.81.37,2.78v1.21h-9.24v.22c0,.94.26,1.69.77,2.24.51.55,1.32.83,2.41.83.84,0,1.53-.17,2.06-.5.53-.34,1.02-.74,1.48-1.21l2.03,2.53c-.64.75-1.48,1.34-2.51,1.76-1.03.42-2.21.63-3.52.63Zm-.08-12.06c-.82,0-1.47.27-1.93.81s-.7,1.26-.7,2.15v.22h5.04v-.25c0-.88-.2-1.58-.59-2.12-.39-.54-1-.81-1.82-.81Z"/>
        <path class="cls-6" d="m704.29,494.01c-1.39,0-2.56-.22-3.51-.67-.95-.45-1.8-1.08-2.55-1.9l2.38-2.41c.51.57,1.08,1.01,1.7,1.34.62.33,1.32.49,2.11.49s1.36-.12,1.67-.37c.31-.25.47-.58.47-1,0-.68-.48-1.08-1.45-1.21l-1.56-.19c-3.23-.4-4.85-1.88-4.85-4.44,0-.69.13-1.33.4-1.91.26-.58.64-1.07,1.12-1.48s1.07-.73,1.75-.96c.69-.23,1.46-.34,2.32-.34.75,0,1.41.05,1.99.15.58.1,1.09.25,1.54.44.45.19.86.43,1.23.71.37.28.74.6,1.11.95l-2.33,2.38c-.46-.46-.97-.82-1.55-1.08-.58-.26-1.16-.4-1.77-.4-.69,0-1.19.11-1.48.33-.29.22-.44.51-.44.88,0,.38.1.68.32.89.21.21.61.36,1.19.45l1.62.22c3.16.42,4.74,1.86,4.74,4.33,0,.69-.15,1.33-.44,1.92-.29.58-.71,1.09-1.25,1.52-.54.43-1.19.76-1.95,1-.76.24-1.6.36-2.54.36Z"/>
        <path class="cls-6" d="m721.58,493.68c-1.39,0-2.41-.34-3.06-1.01-.65-.68-.97-1.65-.97-2.93v-16.33h4.06v17.13h1.81v3.15h-1.84Z"/>
        <path class="cls-6" d="m726.82,477.76c-.82,0-1.42-.19-1.79-.56s-.56-.85-.56-1.44v-.6c0-.58.19-1.06.56-1.44.37-.38.97-.56,1.79-.56s1.42.19,1.79.56c.38.37.56.85.56,1.44v.6c0,.58-.19,1.06-.56,1.44s-.97.56-1.79.56Zm-2.03,1.54h4.06v14.39h-4.06v-14.39Z"/>
        <path class="cls-6" d="m731.56,493.68v-14.39h4.06v2.44h.16c.26-.75.7-1.4,1.34-1.95.64-.55,1.53-.82,2.66-.82,1.48,0,2.6.49,3.36,1.48s1.14,2.39,1.14,4.22v9.02h-4.06v-8.69c0-.93-.15-1.62-.44-2.07-.29-.45-.81-.67-1.56-.67-.33,0-.65.04-.96.12-.31.08-.59.21-.84.4-.25.18-.44.41-.59.67-.15.27-.22.57-.22.92v9.32h-4.06Z"/>
      </g>
      <g class="cls-5">
        <path class="cls-6" d="m746.44,473.4h4.06v11.98h.16l1.78-2.66,2.88-3.42h4.5l-4.8,5.51,5.34,8.88h-4.82l-3.23-6.08-1.81,2.03v4.06h-4.06v-20.28Z"/>
      </g>
      <g class="cls-5">
        <path class="cls-6" d="m765.76,494.01c-1.39,0-2.56-.22-3.51-.67-.95-.45-1.8-1.08-2.55-1.9l2.38-2.41c.51.57,1.08,1.01,1.7,1.34.62.33,1.32.49,2.11.49s1.36-.12,1.67-.37c.31-.25.47-.58.47-1,0-.68-.48-1.08-1.45-1.21l-1.56-.19c-3.23-.4-4.85-1.88-4.85-4.44,0-.69.13-1.33.4-1.91.26-.58.64-1.07,1.12-1.48s1.07-.73,1.75-.96c.69-.23,1.46-.34,2.32-.34.75,0,1.41.05,1.99.15.58.1,1.09.25,1.54.44.45.19.86.43,1.23.71.37.28.74.6,1.11.95l-2.33,2.38c-.46-.46-.97-.82-1.55-1.08-.58-.26-1.16-.4-1.77-.4-.69,0-1.19.11-1.48.33-.29.22-.44.51-.44.88,0,.38.1.68.32.89.21.21.61.36,1.19.45l1.62.22c3.16.42,4.74,1.86,4.74,4.33,0,.69-.15,1.33-.44,1.92-.29.58-.71,1.09-1.25,1.52-.54.43-1.19.76-1.95,1-.76.24-1.6.36-2.54.36Z"/>
      </g>
    </g>
  </g>
  <polyline class="cls-1" points="420.65 111.94 420.65 254.81 480.79 254.81"/>
  <polyline class="cls-3" points="420.65 433.9 420.65 285.16 480.79 285.16"/>
  <polyline class="cls-1" points="785.22 111.44 785.22 254.81 725.07 254.81"/>
  <g>
    <g class="cls-5">
      <g class="cls-5">
        <path class="cls-4" d="m485.24,279.14h13.01c2.23,0,3.96.63,5.2,1.88,1.24,1.25,1.86,2.92,1.86,4.99,0,1.02-.13,1.89-.4,2.61s-.63,1.3-1.07,1.76c-.45.46-.97.8-1.57,1.02-.6.22-1.25.34-1.94.36v.23c.64,0,1.31.12,2.01.35.7.23,1.35.59,1.94,1.09.59.5,1.08,1.15,1.48,1.94.4.79.59,1.77.59,2.92,0,1.05-.17,2.04-.52,2.97-.35.93-.83,1.75-1.44,2.44s-1.34,1.23-2.19,1.63c-.84.4-1.76.59-2.76.59h-14.2v-26.78Zm5.83,10.97h5.79c.77,0,1.37-.22,1.8-.65.43-.43.65-1.04.65-1.8v-1.15c0-.77-.22-1.37-.65-1.8-.44-.43-1.04-.65-1.8-.65h-5.79v6.06Zm0,10.9h6.71c.77,0,1.37-.21,1.82-.63.45-.42.67-1.02.67-1.78v-1.3c0-.77-.22-1.36-.67-1.78-.45-.42-1.06-.63-1.82-.63h-6.71v6.14Z"/>
        <path class="cls-4" d="m514.82,279.14v16.42c0,1.89.37,3.31,1.11,4.24.74.93,1.98,1.4,3.72,1.4s2.98-.47,3.72-1.4c.74-.93,1.11-2.35,1.11-4.24v-16.42h5.68v15.81c0,1.97-.19,3.68-.56,5.12-.37,1.45-.98,2.63-1.82,3.57-.84.93-1.93,1.62-3.26,2.07-1.33.45-2.95.67-4.87.67s-3.54-.22-4.87-.67-2.42-1.14-3.26-2.07c-.84-.93-1.45-2.12-1.82-3.57-.37-1.44-.56-3.15-.56-5.12v-15.81h5.68Z"/>
        <path class="cls-4" d="m533.35,305.92v-4.64h3.45v-17.5h-3.45v-4.64h12.74v4.64h-3.45v17.5h3.45v4.64h-12.74Z"/>
        <path class="cls-4" d="m549.43,305.92v-26.78h5.83v21.6h10.21v5.18h-16.04Z"/>
        <path class="cls-4" d="m568.23,279.14h10.09c1.76,0,3.38.28,4.83.84,1.46.56,2.7,1.4,3.72,2.51,1.02,1.11,1.82,2.51,2.38,4.18.56,1.68.84,3.63.84,5.85s-.28,4.18-.84,5.85c-.56,1.67-1.36,3.07-2.38,4.18-1.02,1.11-2.26,1.95-3.72,2.51s-3.07.84-4.83.84h-10.09v-26.78Zm10.09,21.6c1.74,0,3.11-.49,4.11-1.46,1-.97,1.5-2.53,1.5-4.68v-4.14c0-2.15-.5-3.71-1.5-4.68-1-.97-2.37-1.46-4.11-1.46h-4.26v16.42h4.26Z"/>
      </g>
      <g class="cls-5">
        <path class="cls-4" d="m600.95,305.92v-26.78h12.66c1.25,0,2.38.21,3.38.63,1,.42,1.85,1,2.55,1.75.7.74,1.25,1.64,1.63,2.71.38,1.06.58,2.22.58,3.47s-.19,2.44-.58,3.49c-.38,1.05-.93,1.94-1.63,2.69-.7.74-1.55,1.32-2.55,1.75s-2.12.63-3.38.63h-6.83v9.67h-5.83Zm5.83-14.73h6.14c.87,0,1.55-.22,2.05-.67.5-.45.75-1.11.75-1.98v-1.69c0-.87-.25-1.53-.75-1.98-.5-.45-1.18-.67-2.05-.67h-6.14v6.98Z"/>
      </g>
      <g class="cls-5">
        <path class="cls-4" d="m638.29,305.92l-1.92-6.37h-8.94l-1.92,6.37h-5.91l8.82-26.78h7.21l8.71,26.78h-6.06Zm-6.33-21.49h-.19l-2.95,10.17h6.14l-2.99-10.17Z"/>
      </g>
      <g class="cls-5">
        <path class="cls-4" d="m655.21,284.32v21.6h-5.83v-21.6h-7.25v-5.18h20.33v5.18h-7.25Z"/>
      </g>
      <g class="cls-5">
        <path class="cls-4" d="m663.73,305.92v-4.64h3.45v-17.5h-3.45v-4.64h12.74v4.64h-3.45v17.5h3.45v4.64h-12.74Z"/>
        <path class="cls-4" d="m690.55,306.38c-1.76,0-3.38-.29-4.83-.88s-2.7-1.46-3.72-2.63c-1.02-1.16-1.82-2.61-2.38-4.34-.56-1.73-.84-3.73-.84-6s.28-4.28.84-6c.56-1.73,1.36-3.17,2.38-4.33,1.02-1.16,2.26-2.04,3.72-2.63,1.46-.59,3.07-.88,4.83-.88s3.38.29,4.83.88c1.46.59,2.7,1.46,3.72,2.63,1.02,1.16,1.82,2.61,2.38,4.33.56,1.73.84,3.73.84,6s-.28,4.28-.84,6c-.56,1.73-1.36,3.17-2.38,4.34-1.02,1.16-2.26,2.04-3.72,2.63s-3.07.88-4.83.88Zm0-5.18c1.77,0,3.14-.58,4.12-1.73.98-1.15,1.48-2.8,1.48-4.95v-3.99c0-2.15-.49-3.8-1.48-4.95-.99-1.15-2.36-1.73-4.12-1.73s-3.14.58-4.12,1.73c-.99,1.15-1.48,2.8-1.48,4.95v3.99c0,2.15.49,3.8,1.48,4.95.98,1.15,2.36,1.73,4.12,1.73Z"/>
        <path class="cls-4" d="m708.77,296.99v-5.87c2.02-.08,3.54-.42,4.55-1.02,1.01-.6,1.52-1.62,1.52-3.05v-.54c0-.97-.29-1.71-.86-2.23-.58-.51-1.32-.77-2.24-.77-1,0-1.82.31-2.47.92s-1.09,1.39-1.32,2.34l-4.68-1.96c.23-.77.56-1.52,1-2.25.43-.73,1-1.38,1.71-1.96.7-.58,1.55-1.04,2.53-1.4.98-.36,2.13-.54,3.43-.54s2.54.19,3.65.58c1.1.38,2.05.92,2.84,1.61s1.4,1.52,1.82,2.49c.42.97.63,2.05.63,3.22,0,1.07-.18,2.05-.54,2.92-.36.87-.84,1.63-1.46,2.28-.61.65-1.33,1.18-2.15,1.59-.82.41-1.68.69-2.57.84v2.76h-5.37Zm2.76,9.4c-1.23,0-2.1-.28-2.63-.84s-.79-1.25-.79-2.07v-.92c0-.82.26-1.51.79-2.07s1.4-.84,2.63-.84,2.1.28,2.63.84c.52.56.79,1.25.79,2.07v.92c0,.82-.26,1.51-.79,2.07-.52.56-1.4.84-2.63.84Z"/>
      </g>
    </g>
    <g class="cls-5">
      <g class="cls-5">
        <path class="cls-4" d="m497.34,266.46l-6.06-26.78h5.76l2.53,12.85,1.42,7.44h.12l1.69-7.44,2.95-12.85h6.37l2.99,12.85,1.65,7.44h.12l1.42-7.44,2.57-12.85h5.52l-6.22,26.78h-6.64l-3.38-14.5-1.3-5.87h-.12l-1.34,5.87-3.38,14.5h-6.68Z"/>
        <path class="cls-4" d="m544.96,255.49h-10.21v10.97h-5.83v-26.78h5.83v10.63h10.21v-10.63h5.83v26.78h-5.83v-10.97Z"/>
        <path class="cls-4" d="m561.72,266.46v-10.47l-9.17-16.31h6.52l5.75,10.67h.08l5.53-10.67h6.33l-9.17,16.27v10.51h-5.87Z"/>
        <path class="cls-4" d="m586.05,239.68h10.09c1.76,0,3.38.28,4.83.84,1.46.56,2.7,1.4,3.72,2.51,1.02,1.11,1.82,2.51,2.38,4.18.56,1.68.84,3.63.84,5.85s-.28,4.18-.84,5.85c-.56,1.68-1.36,3.07-2.38,4.18-1.02,1.11-2.26,1.95-3.72,2.51s-3.07.84-4.83.84h-10.09v-26.78Zm10.09,21.6c1.74,0,3.11-.49,4.11-1.46,1-.97,1.5-2.53,1.5-4.68v-4.14c0-2.15-.5-3.71-1.5-4.68-1-.97-2.37-1.46-4.11-1.46h-4.26v16.42h4.26Z"/>
        <path class="cls-4" d="m610.22,266.46v-4.64h3.45v-17.5h-3.45v-4.64h12.74v4.64h-3.45v17.5h3.45v4.64h-12.74Z"/>
        <path class="cls-4" d="m626.29,239.68h10.09c1.77,0,3.38.28,4.83.84,1.46.56,2.7,1.4,3.72,2.51,1.02,1.11,1.82,2.51,2.38,4.18.56,1.68.84,3.63.84,5.85s-.28,4.18-.84,5.85c-.56,1.68-1.36,3.07-2.38,4.18-1.02,1.11-2.26,1.95-3.72,2.51s-3.07.84-4.83.84h-10.09v-26.78Zm10.09,21.6c1.74,0,3.11-.49,4.11-1.46,1-.97,1.5-2.53,1.5-4.68v-4.14c0-2.15-.5-3.71-1.5-4.68-1-.97-2.37-1.46-4.11-1.46h-4.26v16.42h4.26Z"/>
        <path class="cls-4" d="m663.24,266.46l-6.06-26.78h5.76l2.53,12.85,1.42,7.44h.11l1.69-7.44,2.95-12.85h6.37l2.99,12.85,1.65,7.44h.12l1.42-7.44,2.57-12.85h5.53l-6.22,26.78h-6.64l-3.38-14.5-1.3-5.87h-.12l-1.34,5.87-3.38,14.5h-6.68Z"/>
        <path class="cls-4" d="m694.82,266.46v-26.78h18.23v5.18h-12.39v5.45h10.63v5.18h-10.63v5.79h12.39v5.18h-18.23Z"/>
      </g>
    </g>
  </g>
  <polyline class="cls-2" points="785.41 432.8 785.41 285.07 725.27 285.07"/>
  <line class="cls-1" x1="362.3" y1="269.93" x2="480.79" y2="269.93"/>
  <line class="cls-1" x1="862.45" y1="269.93" x2="725.07" y2="269.93"/>
</svg>