<?xml version="1.0" encoding="UTF-8"?>
<svg id="Capa_1" xmlns="http://www.w3.org/2000/svg" viewBox="0 0 472.6 722.69">
  <defs>
    <style>
      .cls-1 {
        stroke: #1d1d1b;
      }

      .cls-1, .cls-2 {
        fill: none;
        stroke-miterlimit: 10;
        stroke-width: 2.06px;
      }

      .cls-3 {
        fill: #6843e1;
      }

      .cls-4 {
        fill: #1d1d1b;
      }

      .cls-2 {
        stroke: #000;
      }
    </style>
  </defs>
  <g>
    <path class="cls-4" d="M64.08,157.62v-22.5h10.64c1.05,0,2,.18,2.84.53s1.55.84,2.14,1.47c.59.62,1.05,1.38,1.37,2.27.32.89.48,1.86.48,2.92s-.16,2.05-.48,2.93c-.32.88-.78,1.63-1.37,2.26-.59.62-1.31,1.11-2.14,1.47s-1.78.53-2.84.53h-5.74v8.12h-4.9ZM68.98,145.24h5.16c.73,0,1.31-.19,1.72-.56.42-.38.63-.93.63-1.66v-1.42c0-.73-.21-1.28-.63-1.66-.42-.38-.99-.56-1.72-.56h-5.16v5.87Z"/>
    <path class="cls-4" d="M95.7,157.62c-.86,0-1.57-.27-2.14-.81-.57-.54-.93-1.26-1.08-2.16h-.19c-.26,1.1-.83,1.93-1.71,2.5-.88.57-1.97.85-3.26.85-1.7,0-3-.45-3.9-1.35-.9-.9-1.35-2.09-1.35-3.57,0-1.78.65-3.1,1.95-3.97,1.3-.87,3.07-1.3,5.3-1.3h2.68v-1.06c0-.82-.22-1.47-.65-1.95-.43-.48-1.15-.73-2.16-.73-.95,0-1.7.2-2.26.61-.56.41-1.02.87-1.39,1.39l-2.84-2.53c.69-1.02,1.55-1.81,2.59-2.38,1.04-.57,2.45-.86,4.24-.86,2.41,0,4.21.53,5.41,1.58,1.2,1.05,1.81,2.59,1.81,4.61v7.41h1.58v3.71h-2.64ZM89.1,154.69c.79,0,1.48-.17,2.05-.51.57-.34.85-.9.85-1.66v-1.98h-2.32c-1.87,0-2.8.63-2.8,1.89v.48c0,.62.19,1.07.58,1.36s.93.43,1.64.43Z"/>
    <path class="cls-4" d="M100.25,157.62v-16.92h4.77v3.67h.16c.09-.47.24-.93.45-1.37.21-.44.5-.83.85-1.18.35-.34.78-.62,1.27-.82.49-.2,1.07-.31,1.74-.31h.84v4.45h-1.19c-1.4,0-2.43.18-3.11.55-.68.37-1.02,1.04-1.02,2.03v9.9h-4.77Z"/>
    <path class="cls-4" d="M124.03,157.62c-.86,0-1.57-.27-2.14-.81-.57-.54-.93-1.26-1.08-2.16h-.19c-.26,1.1-.83,1.93-1.71,2.5-.88.57-1.97.85-3.26.85-1.7,0-3-.45-3.9-1.35-.9-.9-1.35-2.09-1.35-3.57,0-1.78.65-3.1,1.95-3.97,1.3-.87,3.07-1.3,5.3-1.3h2.68v-1.06c0-.82-.22-1.47-.65-1.95-.43-.48-1.15-.73-2.16-.73-.95,0-1.7.2-2.26.61-.56.41-1.02.87-1.39,1.39l-2.84-2.53c.69-1.02,1.55-1.81,2.59-2.38,1.04-.57,2.45-.86,4.24-.86,2.41,0,4.21.53,5.41,1.58,1.2,1.05,1.81,2.59,1.81,4.61v7.41h1.58v3.71h-2.64ZM117.43,154.69c.79,0,1.48-.17,2.05-.51.57-.34.85-.9.85-1.66v-1.98h-2.32c-1.87,0-2.8.63-2.8,1.89v.48c0,.62.19,1.07.58,1.36s.93.43,1.64.43Z"/>
    <path class="cls-4" d="M137.28,138.89c-.97,0-1.67-.22-2.11-.66-.44-.44-.66-1-.66-1.69v-.71c0-.69.22-1.25.66-1.69s1.14-.66,2.11-.66,1.67.22,2.11.66c.44.44.66,1,.66,1.69v.71c0,.69-.22,1.25-.66,1.69s-1.14.66-2.11.66ZM134.89,140.7h4.77v16.92h-4.77v-16.92Z"/>
    <path class="cls-4" d="M142.82,157.62v-16.92h4.77v2.87h.19c.3-.9.82-1.67,1.55-2.3.73-.63,1.73-.95,3-.95,1.16,0,2.15.29,2.97.87.82.58,1.41,1.43,1.77,2.55h.1c.15-.47.38-.92.69-1.34.31-.42.69-.78,1.14-1.08.45-.3.96-.54,1.51-.73s1.16-.27,1.81-.27c1.63,0,2.88.58,3.75,1.74s1.31,2.82,1.31,4.96v10.6h-4.77v-10.22c0-2.15-.77-3.22-2.32-3.22-.71,0-1.35.2-1.93.61-.58.41-.87,1.03-.87,1.87v10.96h-4.77v-10.22c0-2.15-.77-3.22-2.32-3.22-.34,0-.68.05-1.02.15-.33.1-.63.25-.9.47-.27.21-.48.48-.65.79-.16.31-.24.67-.24,1.08v10.96h-4.77Z"/>
    <path class="cls-4" d="M170.35,140.7h4.77v2.84h.16c.24-.95.78-1.72,1.63-2.32.85-.6,1.82-.9,2.92-.9,2.15,0,3.77.75,4.87,2.26,1.1,1.5,1.64,3.7,1.64,6.58s-.55,5.08-1.64,6.59c-1.1,1.52-2.72,2.27-4.87,2.27-.56,0-1.09-.08-1.58-.24-.49-.16-.94-.39-1.34-.68-.4-.29-.74-.63-1.02-1.03s-.48-.82-.61-1.27h-.16v9.28h-4.77v-23.37ZM178.25,154.14c.9,0,1.65-.32,2.24-.95.59-.63.89-1.49.89-2.56v-2.93c0-1.07-.3-1.93-.89-2.56-.59-.63-1.34-.95-2.24-.95s-1.65.22-2.24.66c-.59.44-.89,1.05-.89,1.82v5c0,.77.3,1.38.89,1.82.59.44,1.34.66,2.24.66Z"/>
    <path class="cls-4" d="M198.65,154.78h-.16c-.15.43-.35.84-.6,1.22-.25.39-.56.73-.95,1.03-.39.3-.84.54-1.37.71-.53.17-1.13.26-1.82.26-1.74,0-3.06-.57-3.95-1.72-.89-1.15-1.34-2.8-1.34-4.95v-10.64h4.77v10.22c0,1.03.18,1.83.55,2.39s.99.84,1.87.84c.37,0,.73-.05,1.1-.16.37-.11.69-.26.97-.47.28-.2.5-.46.68-.76.17-.3.26-.65.26-1.06v-10.99h4.77v16.92h-4.77v-2.84Z"/>
    <path class="cls-4" d="M211.31,157.62c-1.63,0-2.83-.4-3.59-1.19-.76-.79-1.14-1.94-1.14-3.45v-19.21h4.77v20.15h2.13v3.71h-2.16Z"/>
    <path class="cls-4" d="M220.79,158.01c-1.63,0-3.01-.26-4.13-.79s-2.12-1.27-3-2.24l2.8-2.84c.6.67,1.27,1.19,2,1.58.73.39,1.56.58,2.48.58s1.6-.15,1.97-.44c.37-.29.55-.68.55-1.18,0-.79-.57-1.27-1.71-1.42l-1.84-.23c-3.8-.47-5.71-2.21-5.71-5.22,0-.82.16-1.56.47-2.24.31-.68.75-1.26,1.32-1.74.57-.48,1.26-.86,2.06-1.13.81-.27,1.71-.4,2.72-.4.88,0,1.66.06,2.34.18.68.12,1.28.29,1.81.52.53.23,1.01.5,1.45.84.44.33.88.7,1.31,1.11l-2.74,2.8c-.54-.54-1.14-.96-1.82-1.27-.68-.31-1.37-.47-2.08-.47-.82,0-1.4.13-1.74.39-.34.26-.52.6-.52,1.03,0,.45.12.8.37,1.05.25.25.71.42,1.4.53l1.9.26c3.72.49,5.58,2.19,5.58,5.09,0,.82-.17,1.57-.52,2.26-.34.69-.83,1.28-1.47,1.79s-1.4.9-2.29,1.18-1.89.42-2.98.42Z"/>
    <path class="cls-4" d="M242.51,157.62c-.86,0-1.57-.27-2.14-.81-.57-.54-.93-1.26-1.08-2.16h-.19c-.26,1.1-.83,1.93-1.71,2.5-.88.57-1.97.85-3.26.85-1.7,0-3-.45-3.9-1.35-.9-.9-1.35-2.09-1.35-3.57,0-1.78.65-3.1,1.95-3.97,1.3-.87,3.07-1.3,5.3-1.3h2.68v-1.06c0-.82-.21-1.47-.64-1.95-.43-.48-1.15-.73-2.16-.73-.95,0-1.7.2-2.26.61-.56.41-1.02.87-1.39,1.39l-2.84-2.53c.69-1.02,1.55-1.81,2.59-2.38,1.04-.57,2.45-.86,4.24-.86,2.41,0,4.21.53,5.42,1.58,1.2,1.05,1.8,2.59,1.8,4.61v7.41h1.58v3.71h-2.64ZM235.91,154.69c.79,0,1.48-.17,2.05-.51.57-.34.86-.9.86-1.66v-1.98h-2.32c-1.87,0-2.8.63-2.8,1.89v.48c0,.62.19,1.07.58,1.36s.93.43,1.64.43Z"/>
    <path class="cls-4" d="M247.06,157.62v-16.92h4.77v3.67h.16c.09-.47.24-.93.45-1.37.21-.44.5-.83.85-1.18.35-.34.78-.62,1.27-.82.49-.2,1.07-.31,1.74-.31h.84v4.45h-1.19c-1.4,0-2.43.18-3.11.55-.68.37-1.02,1.04-1.02,2.03v9.9h-4.77Z"/>
    <path class="cls-4" d="M272.17,158.01c-1.29,0-2.44-.21-3.45-.63-1.01-.42-1.86-1.01-2.56-1.77-.7-.76-1.22-1.69-1.58-2.79-.35-1.1-.53-2.32-.53-3.67s.17-2.54.52-3.63c.34-1.08.85-2.01,1.53-2.79s1.51-1.37,2.5-1.79,2.12-.63,3.38-.63c1.4,0,2.59.24,3.59.71,1,.47,1.82,1.11,2.45,1.9.63.8,1.1,1.71,1.39,2.76.29,1.04.44,2.13.44,3.27v1.42h-10.86v.26c0,1.11.3,1.99.9,2.64.6.65,1.55.98,2.84.98.99,0,1.79-.2,2.42-.59s1.2-.87,1.74-1.42l2.39,2.97c-.75.88-1.74,1.57-2.95,2.07-1.21.5-2.59.74-4.14.74ZM272.07,143.83c-.97,0-1.72.32-2.27.95s-.82,1.48-.82,2.53v.26h5.93v-.29c0-1.03-.23-1.86-.69-2.5s-1.18-.95-2.14-.95Z"/>
    <path class="cls-4" d="M286.67,157.62c-1.63,0-2.83-.4-3.59-1.19s-1.14-1.94-1.14-3.45v-19.21h4.77v20.15h2.13v3.71h-2.16Z"/>
    <path class="cls-4" d="M299.11,138.89c-.97,0-1.67-.22-2.11-.66s-.66-1-.66-1.69v-.71c0-.69.22-1.25.66-1.69.44-.44,1.14-.66,2.11-.66s1.67.22,2.11.66c.44.44.66,1,.66,1.69v.71c0,.69-.22,1.25-.66,1.69-.44.44-1.14.66-2.11.66ZM296.73,140.7h4.77v16.92h-4.77v-16.92Z"/>
    <path class="cls-4" d="M304.65,157.62v-16.92h4.77v2.87h.19c.3-.9.82-1.67,1.55-2.3s1.73-.95,3-.95c1.16,0,2.15.29,2.96.87s1.41,1.43,1.77,2.55h.1c.15-.47.38-.92.69-1.34s.69-.78,1.14-1.08c.45-.3.96-.54,1.51-.73s1.16-.27,1.8-.27c1.63,0,2.88.58,3.76,1.74.87,1.16,1.3,2.82,1.3,4.96v10.6h-4.77v-10.22c0-2.15-.77-3.22-2.32-3.22-.71,0-1.35.2-1.93.61s-.87,1.03-.87,1.87v10.96h-4.77v-10.22c0-2.15-.77-3.22-2.32-3.22-.34,0-.68.05-1.02.15s-.63.25-.9.47c-.27.21-.48.48-.64.79-.16.31-.24.67-.24,1.08v10.96h-4.77Z"/>
    <path class="cls-4" d="M332.18,140.7h4.77v2.84h.16c.24-.95.78-1.72,1.63-2.32.85-.6,1.82-.9,2.92-.9,2.15,0,3.77.75,4.87,2.26,1.1,1.5,1.64,3.7,1.64,6.58s-.55,5.08-1.64,6.59c-1.1,1.52-2.72,2.27-4.87,2.27-.56,0-1.08-.08-1.58-.24-.5-.16-.94-.39-1.34-.68-.4-.29-.74-.63-1.02-1.03s-.48-.82-.61-1.27h-.16v9.28h-4.77v-23.37ZM340.08,154.14c.9,0,1.65-.32,2.24-.95s.89-1.49.89-2.56v-2.93c0-1.07-.3-1.93-.89-2.56-.59-.63-1.34-.95-2.24-.95s-1.65.22-2.24.66c-.59.44-.89,1.05-.89,1.82v5c0,.77.29,1.38.89,1.82.59.44,1.34.66,2.24.66Z"/>
    <path class="cls-4" d="M362.99,157.62c-.86,0-1.57-.27-2.14-.81-.57-.54-.93-1.26-1.08-2.16h-.19c-.26,1.1-.83,1.93-1.71,2.5-.88.57-1.97.85-3.26.85-1.7,0-3-.45-3.9-1.35-.9-.9-1.35-2.09-1.35-3.57,0-1.78.65-3.1,1.95-3.97,1.3-.87,3.07-1.3,5.3-1.3h2.68v-1.06c0-.82-.21-1.47-.64-1.95-.43-.48-1.15-.73-2.16-.73-.95,0-1.7.2-2.26.61s-1.02.87-1.39,1.39l-2.84-2.53c.69-1.02,1.55-1.81,2.59-2.38s2.46-.86,4.24-.86c2.41,0,4.21.53,5.42,1.58,1.2,1.05,1.81,2.59,1.81,4.61v7.41h1.58v3.71h-2.64ZM356.39,154.69c.79,0,1.48-.17,2.05-.51.57-.34.85-.9.85-1.66v-1.98h-2.32c-1.87,0-2.8.63-2.8,1.89v.48c0,.62.19,1.07.58,1.36s.93.43,1.64.43Z"/>
    <path class="cls-4" d="M374.37,158.01c-1.27,0-2.4-.21-3.38-.63s-1.82-1.01-2.48-1.77c-.67-.76-1.17-1.69-1.52-2.79-.34-1.1-.52-2.32-.52-3.67s.17-2.57.52-3.66c.34-1.08.85-2.01,1.52-2.79.67-.77,1.49-1.36,2.48-1.77s2.12-.61,3.38-.61c1.72,0,3.15.39,4.3,1.16,1.15.77,1.97,1.86,2.47,3.26l-3.87,1.68c-.15-.64-.46-1.19-.93-1.64-.47-.45-1.13-.68-1.97-.68-.97,0-1.7.32-2.19.95-.49.63-.74,1.49-.74,2.56v3.16c0,1.07.25,1.92.74,2.55.49.62,1.22.93,2.19.93.86,0,1.54-.23,2.05-.69.5-.46.88-1.07,1.11-1.82l3.71,1.61c-.56,1.61-1.42,2.79-2.59,3.55-1.17.75-2.59,1.13-4.27,1.13Z"/>
    <path class="cls-4" d="M388.84,157.62c-1.65,0-2.91-.42-3.75-1.26-.85-.84-1.27-2.06-1.27-3.67v-8.28h-2.38v-3.71h1.19c.64,0,1.08-.16,1.32-.47.24-.31.35-.76.35-1.34v-2.77h4.29v4.58h3.35v3.71h-3.35v9.51h3.09v3.71h-2.84Z"/>
    <path class="cls-4" d="M400.7,158.01c-1.25,0-2.36-.2-3.34-.61-.98-.41-1.8-1-2.48-1.77-.68-.77-1.2-1.71-1.56-2.8-.37-1.1-.55-2.32-.55-3.67s.18-2.58.55-3.67.89-2.02,1.56-2.79c.68-.76,1.5-1.35,2.48-1.76s2.09-.61,3.34-.61,2.36.2,3.34.61,1.81.99,2.48,1.76c.68.76,1.2,1.69,1.56,2.79.37,1.1.55,2.32.55,3.67s-.18,2.58-.55,3.67c-.37,1.1-.89,2.03-1.56,2.8-.68.77-1.5,1.36-2.48,1.77-.98.41-2.09.61-3.34.61ZM400.7,154.24c.95,0,1.68-.29,2.19-.87.52-.58.77-1.41.77-2.48v-3.45c0-1.07-.26-1.9-.77-2.48s-1.25-.87-2.19-.87-1.68.29-2.19.87-.77,1.41-.77,2.48v3.45c0,1.07.26,1.9.77,2.48.52.58,1.25.87,2.19.87Z"/>
    <path class="cls-4" d="M102.39,192.33c-1.29,0-2.44-.21-3.45-.63-1.01-.42-1.86-1.01-2.56-1.77-.7-.76-1.22-1.69-1.58-2.79-.35-1.1-.53-2.32-.53-3.67s.17-2.54.52-3.63c.34-1.08.85-2.01,1.53-2.79s1.51-1.37,2.5-1.79c.99-.42,2.12-.63,3.38-.63,1.4,0,2.59.24,3.59.71s1.82,1.11,2.45,1.9c.63.8,1.1,1.71,1.39,2.76.29,1.04.44,2.13.44,3.27v1.42h-10.86v.26c0,1.11.3,1.99.9,2.64.6.65,1.55.98,2.84.98.99,0,1.79-.2,2.42-.59.62-.39,1.2-.87,1.74-1.42l2.39,2.97c-.75.88-1.74,1.57-2.95,2.07s-2.59.74-4.14.74ZM102.29,178.14c-.97,0-1.72.32-2.27.95s-.82,1.48-.82,2.53v.26h5.93v-.29c0-1.03-.23-1.86-.69-2.5-.46-.63-1.18-.95-2.14-.95Z"/>
    <path class="cls-4" d="M118.99,192.33c-1.27,0-2.4-.21-3.38-.63-.99-.42-1.82-1.01-2.48-1.77-.67-.76-1.17-1.69-1.51-2.79-.34-1.1-.52-2.32-.52-3.67s.17-2.57.52-3.66c.34-1.08.85-2.01,1.51-2.79.67-.77,1.49-1.36,2.48-1.77.99-.41,2.12-.61,3.38-.61,1.72,0,3.15.39,4.3,1.16s1.97,1.86,2.47,3.26l-3.87,1.68c-.15-.64-.46-1.19-.93-1.64-.47-.45-1.13-.68-1.97-.68-.97,0-1.7.32-2.19.95-.49.63-.74,1.49-.74,2.56v3.16c0,1.07.25,1.92.74,2.55.49.62,1.23.93,2.19.93.86,0,1.54-.23,2.05-.69.5-.46.88-1.07,1.11-1.82l3.71,1.61c-.56,1.61-1.42,2.79-2.59,3.55-1.17.75-2.59,1.13-4.27,1.13Z"/>
    <path class="cls-4" d="M134.23,192.33c-1.25,0-2.36-.2-3.34-.61-.98-.41-1.81-1-2.48-1.77-.68-.77-1.2-1.71-1.56-2.8-.37-1.1-.55-2.32-.55-3.67s.18-2.58.55-3.67c.36-1.1.89-2.02,1.56-2.79.68-.76,1.5-1.35,2.48-1.76.98-.41,2.09-.61,3.34-.61s2.36.2,3.34.61c.98.41,1.81.99,2.48,1.76.68.76,1.2,1.69,1.56,2.79.37,1.1.55,2.32.55,3.67s-.18,2.58-.55,3.67c-.37,1.1-.89,2.03-1.56,2.8-.68.77-1.5,1.36-2.48,1.77-.98.41-2.09.61-3.34.61ZM134.23,188.55c.95,0,1.68-.29,2.19-.87.52-.58.77-1.41.77-2.48v-3.45c0-1.07-.26-1.9-.77-2.48-.52-.58-1.25-.87-2.19-.87s-1.68.29-2.19.87-.77,1.41-.77,2.48v3.45c0,1.07.26,1.9.77,2.48.52.58,1.25.87,2.19.87Z"/>
    <path class="cls-4" d="M144.26,191.94v-16.92h4.77v2.87h.19c.3-.88.83-1.64,1.58-2.29.75-.64,1.79-.97,3.13-.97,1.74,0,3.06.58,3.95,1.74.89,1.16,1.34,2.82,1.34,4.96v10.6h-4.77v-10.22c0-1.1-.17-1.91-.52-2.43-.34-.53-.96-.79-1.84-.79-.39,0-.76.05-1.13.15-.37.1-.69.25-.98.47-.29.21-.52.48-.69.79-.17.31-.26.67-.26,1.08v10.96h-4.77Z"/>
    <path class="cls-4" d="M169.04,192.33c-1.25,0-2.36-.2-3.34-.61-.98-.41-1.81-1-2.48-1.77-.68-.77-1.2-1.71-1.56-2.8-.37-1.1-.55-2.32-.55-3.67s.18-2.58.55-3.67c.36-1.1.89-2.02,1.56-2.79.68-.76,1.5-1.35,2.48-1.76.98-.41,2.09-.61,3.34-.61s2.36.2,3.34.61c.98.41,1.81.99,2.48,1.76.68.76,1.2,1.69,1.56,2.79.37,1.1.55,2.32.55,3.67s-.18,2.58-.55,3.67c-.37,1.1-.89,2.03-1.56,2.8-.68.77-1.5,1.36-2.48,1.77-.98.41-2.09.61-3.34.61ZM169.04,188.55c.95,0,1.68-.29,2.19-.87.52-.58.77-1.41.77-2.48v-3.45c0-1.07-.26-1.9-.77-2.48-.52-.58-1.25-.87-2.19-.87s-1.68.29-2.19.87-.77,1.41-.77,2.48v3.45c0,1.07.26,1.9.77,2.48.52.58,1.25.87,2.19.87ZM169.56,173.28l-2.84-1.39,3.19-6.25,3.96,1.97-4.32,5.67Z"/>
    <path class="cls-4" d="M179.07,191.94v-16.92h4.77v2.87h.19c.3-.9.82-1.67,1.55-2.3.73-.63,1.73-.95,3-.95,1.16,0,2.15.29,2.97.87.82.58,1.41,1.43,1.77,2.55h.1c.15-.47.38-.92.69-1.34.31-.42.69-.78,1.14-1.08.45-.3.96-.54,1.51-.73s1.16-.27,1.81-.27c1.63,0,2.88.58,3.75,1.74s1.31,2.82,1.31,4.96v10.6h-4.77v-10.22c0-2.15-.77-3.22-2.32-3.22-.71,0-1.35.2-1.93.61-.58.41-.87,1.03-.87,1.87v10.96h-4.77v-10.22c0-2.15-.77-3.22-2.32-3.22-.34,0-.68.05-1.02.15-.33.1-.63.25-.9.47-.27.21-.48.48-.65.79-.16.31-.24.67-.24,1.08v10.96h-4.77Z"/>
    <path class="cls-4" d="M208.98,173.21c-.97,0-1.67-.22-2.11-.66-.44-.44-.66-1-.66-1.69v-.71c0-.69.22-1.25.66-1.69s1.14-.66,2.11-.66,1.67.22,2.11.66c.44.44.66,1,.66,1.69v.71c0,.69-.22,1.25-.66,1.69s-1.14.66-2.11.66ZM206.59,175.02h4.77v16.92h-4.77v-16.92Z"/>
    <path class="cls-4" d="M221.36,192.33c-1.27,0-2.4-.21-3.38-.63-.99-.42-1.82-1.01-2.48-1.77-.67-.76-1.17-1.69-1.51-2.79-.34-1.1-.52-2.32-.52-3.67s.17-2.57.52-3.66c.34-1.08.85-2.01,1.51-2.79.67-.77,1.49-1.36,2.48-1.77.99-.41,2.12-.61,3.38-.61,1.72,0,3.15.39,4.3,1.16s1.97,1.86,2.47,3.26l-3.87,1.68c-.15-.64-.46-1.19-.93-1.64-.47-.45-1.13-.68-1.97-.68-.97,0-1.7.32-2.19.95-.49.63-.74,1.49-.74,2.56v3.16c0,1.07.25,1.92.74,2.55.49.62,1.23.93,2.19.93.86,0,1.54-.23,2.05-.69.5-.46.88-1.07,1.11-1.82l3.71,1.61c-.56,1.61-1.42,2.79-2.59,3.55-1.17.75-2.59,1.13-4.27,1.13Z"/>
    <path class="cls-4" d="M236.6,192.33c-1.25,0-2.36-.2-3.34-.61-.98-.41-1.81-1-2.48-1.77-.68-.77-1.2-1.71-1.56-2.8-.37-1.1-.55-2.32-.55-3.67s.18-2.58.55-3.67c.36-1.1.89-2.02,1.56-2.79.68-.76,1.5-1.35,2.48-1.76.98-.41,2.09-.61,3.34-.61s2.36.2,3.33.61c.98.41,1.81.99,2.48,1.76.68.76,1.2,1.69,1.56,2.79.37,1.1.55,2.32.55,3.67s-.18,2.58-.55,3.67c-.37,1.1-.89,2.03-1.56,2.8-.68.77-1.5,1.36-2.48,1.77-.98.41-2.09.61-3.33.61ZM236.6,188.55c.94,0,1.68-.29,2.19-.87.52-.58.77-1.41.77-2.48v-3.45c0-1.07-.26-1.9-.77-2.48s-1.25-.87-2.19-.87-1.68.29-2.19.87-.77,1.41-.77,2.48v3.45c0,1.07.26,1.9.77,2.48.52.58,1.25.87,2.19.87Z"/>
    <path class="cls-4" d="M263.29,175.02h4.45l-6.51,19.53c-.43,1.31-1.04,2.28-1.82,2.9-.79.62-1.91.93-3.37.93h-2.97v-3.71h3.19l.58-1.87-5.93-17.79h4.74l2.48,7.9,1.22,4.9h.19l1.26-4.9,2.48-7.9Z"/>
    <path class="cls-4" d="M280.92,192.33c-1.63,0-3.01-.26-4.12-.79-1.12-.53-2.12-1.27-3-2.24l2.8-2.84c.6.67,1.27,1.19,2,1.58s1.56.58,2.48.58,1.6-.15,1.97-.44c.36-.29.55-.68.55-1.18,0-.79-.57-1.27-1.71-1.42l-1.84-.23c-3.8-.47-5.71-2.21-5.71-5.22,0-.82.16-1.56.47-2.24.31-.68.75-1.26,1.32-1.74s1.26-.86,2.06-1.13,1.71-.4,2.72-.4c.88,0,1.66.06,2.34.18s1.28.29,1.8.52,1.01.5,1.45.84c.44.33.88.7,1.3,1.11l-2.74,2.8c-.54-.54-1.14-.96-1.82-1.27s-1.37-.47-2.08-.47c-.82,0-1.4.13-1.74.39s-.52.6-.52,1.03c0,.45.12.8.37,1.05.25.25.71.42,1.4.53l1.9.26c3.72.49,5.58,2.19,5.58,5.09,0,.82-.17,1.57-.52,2.26-.34.69-.83,1.28-1.47,1.79-.63.5-1.4.9-2.29,1.18s-1.89.42-2.98.42Z"/>
    <path class="cls-4" d="M297,192.33c-1.25,0-2.36-.2-3.34-.61-.98-.41-1.8-1-2.48-1.77-.68-.77-1.2-1.71-1.56-2.8-.37-1.1-.55-2.32-.55-3.67s.18-2.58.55-3.67.89-2.02,1.56-2.79c.68-.76,1.5-1.35,2.48-1.76s2.09-.61,3.34-.61,2.36.2,3.34.61,1.81.99,2.48,1.76c.68.76,1.2,1.69,1.56,2.79.37,1.1.55,2.32.55,3.67s-.18,2.58-.55,3.67c-.37,1.1-.89,2.03-1.56,2.8-.68.77-1.5,1.36-2.48,1.77-.98.41-2.09.61-3.34.61ZM297,188.55c.95,0,1.68-.29,2.19-.87.52-.58.77-1.41.77-2.48v-3.45c0-1.07-.26-1.9-.77-2.48s-1.25-.87-2.19-.87-1.68.29-2.19.87-.77,1.41-.77,2.48v3.45c0,1.07.26,1.9.77,2.48.52.58,1.25.87,2.19.87Z"/>
    <path class="cls-4" d="M313.86,192.33c-1.27,0-2.4-.21-3.38-.63s-1.82-1.01-2.48-1.77c-.67-.76-1.17-1.69-1.52-2.79-.34-1.1-.52-2.32-.52-3.67s.17-2.57.52-3.66c.34-1.08.85-2.01,1.52-2.79.67-.77,1.49-1.36,2.48-1.77s2.12-.61,3.38-.61c1.72,0,3.15.39,4.3,1.16,1.15.77,1.97,1.86,2.47,3.26l-3.87,1.68c-.15-.64-.46-1.19-.93-1.64-.47-.45-1.13-.68-1.97-.68-.97,0-1.7.32-2.19.95-.49.63-.74,1.49-.74,2.56v3.16c0,1.07.25,1.92.74,2.55.49.62,1.22.93,2.19.93.86,0,1.54-.23,2.05-.69.5-.46.88-1.07,1.11-1.82l3.71,1.61c-.56,1.61-1.42,2.79-2.59,3.55-1.17.75-2.59,1.13-4.27,1.13Z"/>
    <path class="cls-4" d="M324.79,173.21c-.97,0-1.67-.22-2.11-.66s-.66-1-.66-1.69v-.71c0-.69.22-1.25.66-1.69.44-.44,1.14-.66,2.11-.66s1.67.22,2.11.66c.44.44.66,1,.66,1.69v.71c0,.69-.22,1.25-.66,1.69-.44.44-1.14.66-2.11.66ZM322.4,175.02h4.77v16.92h-4.77v-16.92Z"/>
    <path class="cls-4" d="M342.84,191.94c-.86,0-1.57-.27-2.14-.81-.57-.54-.93-1.26-1.08-2.16h-.19c-.26,1.1-.83,1.93-1.71,2.5-.88.57-1.97.85-3.26.85-1.7,0-3-.45-3.9-1.35-.9-.9-1.35-2.09-1.35-3.57,0-1.78.65-3.1,1.95-3.97,1.3-.87,3.07-1.3,5.3-1.3h2.68v-1.06c0-.82-.21-1.47-.64-1.95-.43-.48-1.15-.73-2.16-.73-.95,0-1.7.2-2.26.61s-1.02.87-1.39,1.39l-2.84-2.53c.69-1.02,1.55-1.81,2.59-2.38s2.46-.86,4.24-.86c2.41,0,4.21.53,5.42,1.58,1.2,1.05,1.81,2.59,1.81,4.61v7.41h1.58v3.71h-2.64ZM336.23,189.01c.79,0,1.48-.17,2.05-.51.57-.34.85-.9.85-1.66v-1.98h-2.32c-1.87,0-2.8.63-2.8,1.89v.48c0,.62.19,1.07.58,1.36s.93.43,1.64.43Z"/>
    <path class="cls-4" d="M352.12,191.94c-1.63,0-2.83-.4-3.59-1.19s-1.14-1.94-1.14-3.45v-19.21h4.77v20.15h2.13v3.71h-2.16Z"/>
    <path class="cls-4" d="M374.68,191.94c-.86,0-1.57-.27-2.14-.81-.57-.54-.93-1.26-1.08-2.16h-.19c-.26,1.1-.83,1.93-1.71,2.5-.88.57-1.97.85-3.26.85-1.7,0-3-.45-3.9-1.35-.9-.9-1.35-2.09-1.35-3.57,0-1.78.65-3.1,1.95-3.97,1.3-.87,3.07-1.3,5.3-1.3h2.68v-1.06c0-.82-.21-1.47-.64-1.95-.43-.48-1.15-.73-2.16-.73-.95,0-1.7.2-2.26.61s-1.02.87-1.39,1.39l-2.84-2.53c.69-1.02,1.55-1.81,2.59-2.38s2.46-.86,4.24-.86c2.41,0,4.21.53,5.42,1.58,1.2,1.05,1.81,2.59,1.81,4.61v7.41h1.58v3.71h-2.64ZM368.07,189.01c.79,0,1.48-.17,2.05-.51.57-.34.85-.9.85-1.66v-1.98h-2.32c-1.87,0-2.8.63-2.8,1.89v.48c0,.62.19,1.07.58,1.36s.93.43,1.64.43Z"/>
    <path class="cls-4" d="M87.69,226.26c-1.66,0-2.91-.42-3.76-1.26-.85-.84-1.27-2.06-1.27-3.67v-8.28h-2.39v-3.71h1.19c.64,0,1.08-.16,1.32-.47.24-.31.35-.76.35-1.34v-2.77h4.29v4.58h3.35v3.71h-3.35v9.51h3.09v3.71h-2.84Z"/>
    <path class="cls-4" d="M92.82,226.26v-16.92h4.77v3.67h.16c.09-.47.24-.93.45-1.37.21-.44.5-.83.85-1.18.35-.34.78-.62,1.27-.82.49-.2,1.07-.31,1.74-.31h.84v4.45h-1.19c-1.4,0-2.43.18-3.11.55-.68.37-1.02,1.04-1.02,2.03v9.9h-4.77Z"/>
    <path class="cls-4" d="M116.6,226.26c-.86,0-1.57-.27-2.14-.81-.57-.54-.93-1.26-1.08-2.16h-.19c-.26,1.1-.83,1.93-1.71,2.5-.88.57-1.97.85-3.26.85-1.7,0-3-.45-3.9-1.35-.9-.9-1.35-2.09-1.35-3.57,0-1.78.65-3.1,1.95-3.97,1.3-.87,3.07-1.3,5.3-1.3h2.68v-1.06c0-.82-.22-1.47-.65-1.95-.43-.48-1.15-.73-2.16-.73-.95,0-1.7.2-2.26.61-.56.41-1.02.87-1.39,1.39l-2.84-2.53c.69-1.02,1.55-1.81,2.59-2.38,1.04-.57,2.45-.86,4.24-.86,2.41,0,4.21.53,5.41,1.58,1.2,1.05,1.81,2.59,1.81,4.61v7.41h1.58v3.71h-2.64ZM110,223.32c.79,0,1.48-.17,2.05-.51.57-.34.85-.9.85-1.66v-1.98h-2.32c-1.87,0-2.8.63-2.8,1.89v.48c0,.62.19,1.07.58,1.36s.93.43,1.64.43Z"/>
    <path class="cls-4" d="M124.44,226.26l-5.54-16.92h4.71l2.09,6.83,1.58,6.12h.26l1.58-6.12,2.03-6.83h4.51l-5.54,16.92h-5.67Z"/>
    <path class="cls-4" d="M143.68,226.64c-1.29,0-2.44-.21-3.45-.63-1.01-.42-1.86-1.01-2.56-1.77-.7-.76-1.22-1.69-1.58-2.79-.35-1.1-.53-2.32-.53-3.67s.17-2.54.52-3.63c.34-1.08.85-2.01,1.53-2.79s1.51-1.37,2.5-1.79c.99-.42,2.12-.63,3.38-.63,1.4,0,2.59.24,3.59.71s1.82,1.11,2.45,1.9c.63.8,1.1,1.71,1.39,2.76.29,1.04.44,2.13.44,3.27v1.42h-10.86v.26c0,1.11.3,1.99.9,2.64.6.65,1.55.98,2.84.98.99,0,1.79-.2,2.42-.59.62-.39,1.2-.87,1.74-1.42l2.39,2.97c-.75.88-1.74,1.57-2.95,2.07s-2.59.74-4.14.74ZM143.58,212.46c-.97,0-1.72.32-2.27.95s-.82,1.48-.82,2.53v.26h5.93v-.29c0-1.03-.23-1.86-.69-2.5-.46-.63-1.18-.95-2.14-.95ZM144.19,207.59l-2.84-1.39,3.19-6.25,3.96,1.97-4.32,5.67Z"/>
    <path class="cls-4" d="M159.18,226.64c-1.63,0-3.01-.26-4.13-.79s-2.12-1.27-3-2.24l2.8-2.84c.6.67,1.27,1.19,2,1.58.73.39,1.56.58,2.48.58s1.6-.15,1.97-.44c.37-.29.55-.68.55-1.18,0-.79-.57-1.27-1.71-1.42l-1.84-.23c-3.8-.47-5.71-2.21-5.71-5.22,0-.82.16-1.56.47-2.24.31-.68.75-1.26,1.32-1.74.57-.48,1.26-.86,2.06-1.13.81-.27,1.71-.4,2.72-.4.88,0,1.66.06,2.34.18.68.12,1.28.29,1.81.52.53.23,1.01.5,1.45.84.44.33.88.7,1.31,1.11l-2.74,2.8c-.54-.54-1.14-.96-1.82-1.27-.68-.31-1.37-.47-2.08-.47-.82,0-1.4.13-1.74.39-.34.26-.52.6-.52,1.03,0,.45.12.8.37,1.05.25.25.71.42,1.4.53l1.9.26c3.72.49,5.58,2.19,5.58,5.09,0,.82-.17,1.57-.52,2.26-.34.69-.83,1.28-1.47,1.79s-1.4.9-2.29,1.18-1.89.42-2.98.42Z"/>
    <path class="cls-4" d="M185.1,223.42h-.16c-.13.45-.33.88-.61,1.27-.28.4-.62.74-1.02,1.03s-.85.52-1.35.68c-.5.16-1.03.24-1.56.24-2.15,0-3.77-.76-4.87-2.27-1.1-1.51-1.64-3.71-1.64-6.59s.55-5.07,1.64-6.58c1.1-1.5,2.72-2.26,4.87-2.26,1.1,0,2.07.3,2.92.9.85.6,1.39,1.38,1.63,2.32h.16v-9.77h4.77v23.85h-4.77v-2.84ZM181.97,222.78c.9,0,1.65-.22,2.24-.66.59-.44.89-1.05.89-1.82v-5c0-.77-.3-1.38-.89-1.82-.59-.44-1.34-.66-2.24-.66s-1.65.32-2.24.95c-.59.63-.89,1.49-.89,2.56v2.93c0,1.07.29,1.93.89,2.56.59.63,1.34.95,2.24.95Z"/>
    <path class="cls-4" d="M200.08,226.64c-1.29,0-2.44-.21-3.45-.63-1.01-.42-1.86-1.01-2.56-1.77-.7-.76-1.22-1.69-1.58-2.79-.35-1.1-.53-2.32-.53-3.67s.17-2.54.52-3.63c.34-1.08.85-2.01,1.53-2.79s1.51-1.37,2.5-1.79c.99-.42,2.12-.63,3.38-.63,1.4,0,2.59.24,3.59.71s1.82,1.11,2.45,1.9c.63.8,1.1,1.71,1.39,2.76.29,1.04.44,2.13.44,3.27v1.42h-10.86v.26c0,1.11.3,1.99.9,2.64.6.65,1.55.98,2.84.98.99,0,1.79-.2,2.42-.59.62-.39,1.2-.87,1.74-1.42l2.39,2.97c-.75.88-1.74,1.57-2.95,2.07s-2.59.74-4.14.74ZM199.99,212.46c-.97,0-1.72.32-2.27.95s-.82,1.48-.82,2.53v.26h5.93v-.29c0-1.03-.23-1.86-.69-2.5-.46-.63-1.18-.95-2.14-.95Z"/>
    <path class="cls-4" d="M220.9,226.26c-1.63,0-2.83-.4-3.59-1.19-.76-.79-1.14-1.94-1.14-3.45v-19.21h4.77v20.15h2.13v3.71h-2.16Z"/>
    <path class="cls-4" d="M237.15,226.26c-.86,0-1.57-.27-2.14-.81-.57-.54-.93-1.26-1.08-2.16h-.19c-.26,1.1-.83,1.93-1.71,2.5-.88.57-1.97.85-3.26.85-1.7,0-3-.45-3.9-1.35-.9-.9-1.35-2.09-1.35-3.57,0-1.78.65-3.1,1.95-3.97,1.3-.87,3.07-1.3,5.3-1.3h2.68v-1.06c0-.82-.22-1.47-.65-1.95-.43-.48-1.15-.73-2.16-.73-.95,0-1.7.2-2.26.61-.56.41-1.02.87-1.39,1.39l-2.84-2.53c.69-1.02,1.55-1.81,2.59-2.38,1.04-.57,2.45-.86,4.24-.86,2.41,0,4.21.53,5.41,1.58,1.2,1.05,1.81,2.59,1.81,4.61v7.41h1.58v3.71h-2.64ZM230.54,223.32c.79,0,1.48-.17,2.05-.51.57-.34.85-.9.85-1.66v-1.98h-2.32c-1.87,0-2.8.63-2.8,1.89v.48c0,.62.19,1.07.58,1.36s.93.43,1.64.43Z"/>
    <path class="cls-4" d="M253.94,226.26c-1.65,0-2.91-.42-3.75-1.26-.85-.84-1.27-2.06-1.27-3.67v-8.28h-2.38v-3.71h1.19c.64,0,1.08-.16,1.32-.47.24-.31.35-.76.35-1.34v-2.77h4.29v4.58h3.35v3.71h-3.35v9.51h3.09v3.71h-2.84Z"/>
    <path class="cls-4" d="M265.99,226.64c-1.29,0-2.44-.21-3.45-.63-1.01-.42-1.86-1.01-2.56-1.77-.7-.76-1.22-1.69-1.58-2.79-.35-1.1-.53-2.32-.53-3.67s.17-2.54.52-3.63c.34-1.08.85-2.01,1.53-2.79s1.51-1.37,2.5-1.79,2.12-.63,3.38-.63c1.4,0,2.59.24,3.59.71,1,.47,1.82,1.11,2.45,1.9.63.8,1.1,1.71,1.39,2.76.29,1.04.44,2.13.44,3.27v1.42h-10.86v.26c0,1.11.3,1.99.9,2.64.6.65,1.55.98,2.84.98.99,0,1.79-.2,2.42-.59s1.2-.87,1.74-1.42l2.39,2.97c-.75.88-1.74,1.57-2.95,2.07-1.21.5-2.59.74-4.14.74ZM265.9,212.46c-.97,0-1.72.32-2.27.95s-.82,1.48-.82,2.53v.26h5.93v-.29c0-1.03-.23-1.86-.69-2.5s-1.18-.95-2.14-.95Z"/>
    <path class="cls-4" d="M282.6,226.64c-1.27,0-2.4-.21-3.38-.63s-1.82-1.01-2.48-1.77c-.67-.76-1.17-1.69-1.52-2.79-.34-1.1-.52-2.32-.52-3.67s.17-2.57.52-3.66c.34-1.08.85-2.01,1.52-2.79.67-.77,1.49-1.36,2.48-1.77s2.12-.61,3.38-.61c1.72,0,3.15.39,4.3,1.16,1.15.77,1.97,1.86,2.47,3.26l-3.87,1.68c-.15-.64-.46-1.19-.93-1.64-.47-.45-1.13-.68-1.97-.68-.97,0-1.7.32-2.19.95-.49.63-.74,1.49-.74,2.56v3.16c0,1.07.25,1.92.74,2.55.49.62,1.22.93,2.19.93.86,0,1.54-.23,2.05-.69.5-.46.88-1.07,1.11-1.82l3.71,1.61c-.56,1.61-1.42,2.79-2.59,3.55-1.17.75-2.59,1.13-4.27,1.13Z"/>
    <path class="cls-4" d="M291.14,226.26v-16.92h4.77v2.87h.19c.3-.88.83-1.64,1.58-2.29s1.79-.97,3.13-.97c1.74,0,3.06.58,3.95,1.74s1.34,2.82,1.34,4.96v10.6h-4.77v-10.22c0-1.1-.17-1.91-.52-2.43-.34-.53-.96-.79-1.84-.79-.39,0-.76.05-1.13.15s-.69.25-.98.47c-.29.21-.52.48-.69.79-.17.31-.26.67-.26,1.08v10.96h-4.77Z"/>
    <path class="cls-4" d="M315.92,226.64c-1.25,0-2.36-.2-3.34-.61-.98-.41-1.8-1-2.48-1.77-.68-.77-1.2-1.71-1.56-2.8-.37-1.1-.55-2.32-.55-3.67s.18-2.58.55-3.67.89-2.02,1.56-2.79c.68-.76,1.5-1.35,2.48-1.76s2.09-.61,3.34-.61,2.36.2,3.34.61,1.81.99,2.48,1.76c.68.76,1.2,1.69,1.56,2.79.37,1.1.55,2.32.55,3.67s-.18,2.58-.55,3.67c-.37,1.1-.89,2.03-1.56,2.8-.68.77-1.5,1.36-2.48,1.77-.98.41-2.09.61-3.34.61ZM315.92,222.87c.95,0,1.68-.29,2.19-.87.52-.58.77-1.41.77-2.48v-3.45c0-1.07-.26-1.9-.77-2.48s-1.25-.87-2.19-.87-1.68.29-2.19.87-.77,1.41-.77,2.48v3.45c0,1.07.26,1.9.77,2.48.52.58,1.25.87,2.19.87Z"/>
    <path class="cls-4" d="M330.68,226.26c-1.63,0-2.83-.4-3.59-1.19s-1.14-1.94-1.14-3.45v-19.21h4.77v20.15h2.13v3.71h-2.16Z"/>
    <path class="cls-4" d="M341.29,226.64c-1.25,0-2.36-.2-3.34-.61-.98-.41-1.8-1-2.48-1.77-.68-.77-1.2-1.71-1.56-2.8-.37-1.1-.55-2.32-.55-3.67s.18-2.58.55-3.67.89-2.02,1.56-2.79c.68-.76,1.5-1.35,2.48-1.76s2.09-.61,3.34-.61,2.36.2,3.34.61,1.81.99,2.48,1.76c.68.76,1.2,1.69,1.56,2.79.37,1.1.55,2.32.55,3.67s-.18,2.58-.55,3.67c-.37,1.1-.89,2.03-1.56,2.8-.68.77-1.5,1.36-2.48,1.77-.98.41-2.09.61-3.34.61ZM341.29,222.87c.95,0,1.68-.29,2.19-.87.52-.58.77-1.41.77-2.48v-3.45c0-1.07-.26-1.9-.77-2.48s-1.25-.87-2.19-.87-1.68.29-2.19.87-.77,1.41-.77,2.48v3.45c0,1.07.26,1.9.77,2.48.52.58,1.25.87,2.19.87Z"/>
    <path class="cls-4" d="M366.98,227.48c0,.9-.16,1.7-.47,2.39-.31.69-.82,1.27-1.53,1.76-.71.48-1.65.85-2.82,1.1-1.17.25-2.62.37-4.34.37-1.46,0-2.7-.09-3.72-.27-1.02-.18-1.85-.44-2.48-.77-.63-.33-1.1-.74-1.39-1.23-.29-.48-.44-1.04-.44-1.66,0-.95.28-1.69.84-2.22s1.33-.87,2.32-1v-.35c-.82-.15-1.43-.5-1.84-1.05-.41-.55-.61-1.19-.61-1.92,0-.45.09-.84.27-1.18.18-.33.42-.62.71-.87s.63-.45,1.02-.6c.39-.15.77-.27,1.16-.36v-.13c-1.03-.47-1.79-1.12-2.29-1.95s-.74-1.79-.74-2.88c0-1.72.6-3.1,1.79-4.14s3.01-1.56,5.46-1.56c1.12,0,2.07.11,2.87.32v-.65c0-.9.22-1.55.66-1.95.44-.4,1.07-.6,1.89-.6h2.68v3.55h-3.74v.19c.99.47,1.72,1.12,2.19,1.95.47.83.71,1.79.71,2.88,0,1.7-.6,3.06-1.79,4.08s-3.01,1.53-5.46,1.53c-1.1,0-2.09-.12-3-.35-.49.32-.74.77-.74,1.35,0,.41.16.73.47.95s.83.34,1.56.34h4.9c2.06,0,3.56.43,4.5,1.29.93.86,1.4,2.07,1.4,3.64ZM362.5,228.13c0-.49-.19-.87-.58-1.13s-1.06-.39-2.03-.39h-5.8c-.21.21-.37.46-.47.73s-.14.53-.14.79c0,.62.27,1.08.81,1.37s1.45.44,2.74.44h1.93c1.29,0,2.2-.15,2.74-.44s.81-.75.81-1.37ZM357.89,217.1c.95,0,1.65-.2,2.11-.59.46-.39.69-.97.69-1.71v-.38c0-.75-.23-1.32-.69-1.71-.46-.39-1.17-.59-2.11-.59s-1.65.2-2.11.59c-.46.4-.69.97-.69,1.71v.38c0,.75.23,1.32.69,1.71.46.4,1.17.59,2.11.59Z"/>
    <path class="cls-4" d="M367.81,226.26v-16.92h4.77v16.92h-4.77ZM370.75,207.59l-2.84-1.39,3.19-6.25,3.96,1.97-4.32,5.67Z"/>
    <path class="cls-4" d="M388.25,226.26c-.86,0-1.57-.27-2.14-.81-.57-.54-.93-1.26-1.08-2.16h-.19c-.26,1.1-.83,1.93-1.71,2.5-.88.57-1.97.85-3.26.85-1.7,0-3-.45-3.9-1.35-.9-.9-1.35-2.09-1.35-3.57,0-1.78.65-3.1,1.95-3.97,1.3-.87,3.07-1.3,5.3-1.3h2.68v-1.06c0-.82-.21-1.47-.64-1.95-.43-.48-1.15-.73-2.16-.73-.95,0-1.7.2-2.26.61s-1.02.87-1.39,1.39l-2.84-2.53c.69-1.02,1.55-1.81,2.59-2.38s2.46-.86,4.24-.86c2.41,0,4.21.53,5.42,1.58,1.2,1.05,1.81,2.59,1.81,4.61v7.41h1.58v3.71h-2.64ZM381.64,223.32c.79,0,1.48-.17,2.05-.51.57-.34.85-.9.85-1.66v-1.98h-2.32c-1.87,0-2.8.63-2.8,1.89v.48c0,.62.19,1.07.58,1.36s.93.43,1.64.43Z"/>
  </g>
  <g>
    <path class="cls-4" d="M45.72,383.85v-22.5h10.64c1.05,0,2,.18,2.84.53s1.55.84,2.14,1.47c.59.62,1.05,1.38,1.37,2.27s.48,1.86.48,2.92-.16,2.05-.48,2.93c-.32.88-.78,1.63-1.37,2.26-.59.62-1.31,1.11-2.14,1.47s-1.78.53-2.84.53h-5.74v8.12h-4.9ZM50.62,371.47h5.16c.73,0,1.31-.19,1.72-.56.42-.38.63-.93.63-1.66v-1.42c0-.73-.21-1.28-.63-1.66-.42-.38-.99-.56-1.72-.56h-5.16v5.87Z"/>
    <path class="cls-4" d="M77.34,383.85c-.86,0-1.57-.27-2.14-.81-.57-.54-.93-1.26-1.08-2.16h-.19c-.26,1.1-.83,1.93-1.71,2.5-.88.57-1.97.85-3.26.85-1.7,0-3-.45-3.9-1.35-.9-.9-1.35-2.09-1.35-3.57,0-1.78.65-3.1,1.95-3.97,1.3-.87,3.07-1.3,5.3-1.3h2.68v-1.06c0-.82-.22-1.47-.65-1.95-.43-.48-1.15-.72-2.16-.72-.95,0-1.7.2-2.26.61-.56.41-1.02.87-1.39,1.39l-2.84-2.53c.69-1.01,1.55-1.81,2.59-2.38,1.04-.57,2.45-.86,4.24-.86,2.41,0,4.21.53,5.41,1.58,1.2,1.05,1.81,2.59,1.81,4.61v7.41h1.58v3.71h-2.64ZM70.73,380.92c.79,0,1.48-.17,2.05-.51.57-.34.85-.9.85-1.66v-1.98h-2.32c-1.87,0-2.8.63-2.8,1.89v.48c0,.62.19,1.07.58,1.36s.93.43,1.64.43Z"/>
    <path class="cls-4" d="M81.88,383.85v-16.92h4.77v3.67h.16c.09-.47.24-.93.45-1.37s.5-.83.85-1.18c.35-.34.78-.62,1.27-.82.49-.2,1.07-.31,1.74-.31h.84v4.45h-1.19c-1.4,0-2.43.18-3.11.55-.68.37-1.02,1.04-1.02,2.03v9.9h-4.77Z"/>
    <path class="cls-4" d="M105.67,383.85c-.86,0-1.57-.27-2.14-.81-.57-.54-.93-1.26-1.08-2.16h-.19c-.26,1.1-.83,1.93-1.71,2.5-.88.57-1.97.85-3.26.85-1.7,0-3-.45-3.9-1.35-.9-.9-1.35-2.09-1.35-3.57,0-1.78.65-3.1,1.95-3.97,1.3-.87,3.07-1.3,5.3-1.3h2.68v-1.06c0-.82-.22-1.47-.65-1.95-.43-.48-1.15-.72-2.16-.72-.95,0-1.7.2-2.26.61-.56.41-1.02.87-1.39,1.39l-2.84-2.53c.69-1.01,1.55-1.81,2.59-2.38,1.04-.57,2.45-.86,4.24-.86,2.41,0,4.21.53,5.41,1.58,1.2,1.05,1.81,2.59,1.81,4.61v7.41h1.58v3.71h-2.64ZM99.06,380.92c.79,0,1.48-.17,2.05-.51.57-.34.85-.9.85-1.66v-1.98h-2.32c-1.87,0-2.8.63-2.8,1.89v.48c0,.62.19,1.07.58,1.36s.93.43,1.64.43Z"/>
    <path class="cls-4" d="M129.04,383.85c-.86,0-1.57-.27-2.14-.81-.57-.54-.93-1.26-1.08-2.16h-.19c-.26,1.1-.83,1.93-1.71,2.5-.88.57-1.97.85-3.26.85-1.7,0-3-.45-3.9-1.35-.9-.9-1.35-2.09-1.35-3.57,0-1.78.65-3.1,1.95-3.97,1.3-.87,3.07-1.3,5.3-1.3h2.68v-1.06c0-.82-.22-1.47-.65-1.95-.43-.48-1.15-.72-2.16-.72-.95,0-1.7.2-2.26.61-.56.41-1.02.87-1.39,1.39l-2.84-2.53c.69-1.01,1.55-1.81,2.59-2.38,1.04-.57,2.45-.86,4.24-.86,2.41,0,4.21.53,5.41,1.58,1.2,1.05,1.81,2.59,1.81,4.61v7.41h1.58v3.71h-2.64ZM122.43,380.92c.79,0,1.48-.17,2.05-.51.57-.34.85-.9.85-1.66v-1.98h-2.32c-1.87,0-2.8.63-2.8,1.89v.48c0,.62.19,1.07.58,1.36s.93.43,1.64.43Z"/>
    <path class="cls-4" d="M133.58,366.93h4.77v2.84h.16c.24-.95.78-1.72,1.63-2.32.85-.6,1.82-.9,2.92-.9,2.15,0,3.77.75,4.87,2.26,1.1,1.5,1.64,3.7,1.64,6.58s-.55,5.08-1.64,6.59c-1.1,1.51-2.72,2.27-4.87,2.27-.56,0-1.09-.08-1.58-.24-.49-.16-.94-.39-1.34-.68-.4-.29-.74-.63-1.02-1.03-.28-.4-.48-.82-.61-1.27h-.16v9.28h-4.77v-23.37ZM141.48,380.37c.9,0,1.65-.32,2.24-.95.59-.63.89-1.49.89-2.56v-2.93c0-1.07-.3-1.93-.89-2.56-.59-.63-1.34-.95-2.24-.95s-1.65.22-2.24.66c-.59.44-.89,1.05-.89,1.82v5c0,.77.3,1.38.89,1.82.59.44,1.34.66,2.24.66Z"/>
    <path class="cls-4" d="M158.76,384.24c-1.25,0-2.36-.2-3.34-.61-.98-.41-1.81-1-2.48-1.77s-1.2-1.71-1.56-2.8c-.37-1.1-.55-2.32-.55-3.67s.18-2.58.55-3.67c.36-1.1.89-2.03,1.56-2.79s1.5-1.35,2.48-1.76c.98-.41,2.09-.61,3.34-.61s2.36.21,3.34.61c.98.41,1.81.99,2.48,1.76s1.2,1.69,1.56,2.79c.37,1.1.55,2.32.55,3.67s-.18,2.58-.55,3.67c-.37,1.1-.89,2.03-1.56,2.8s-1.5,1.36-2.48,1.77c-.98.41-2.09.61-3.34.61ZM158.76,380.47c.95,0,1.68-.29,2.19-.87.52-.58.77-1.41.77-2.48v-3.45c0-1.07-.26-1.9-.77-2.48-.52-.58-1.25-.87-2.19-.87s-1.68.29-2.19.87-.77,1.41-.77,2.48v3.45c0,1.07.26,1.9.77,2.48s1.25.87,2.19.87Z"/>
    <path class="cls-4" d="M178.8,366.93h4.45l-6.51,19.53c-.43,1.31-1.04,2.28-1.82,2.9-.78.62-1.91.93-3.37.93h-2.97v-3.71h3.19l.58-1.87-5.93-17.79h4.74l2.48,7.9,1.23,4.9h.19l1.26-4.9,2.48-7.9Z"/>
    <path class="cls-4" d="M196.43,383.85c-.86,0-1.57-.27-2.14-.81-.57-.54-.93-1.26-1.08-2.16h-.19c-.26,1.1-.83,1.93-1.71,2.5-.88.57-1.97.85-3.26.85-1.7,0-3-.45-3.9-1.35-.9-.9-1.35-2.09-1.35-3.57,0-1.78.65-3.1,1.95-3.97,1.3-.87,3.07-1.3,5.3-1.3h2.68v-1.06c0-.82-.22-1.47-.65-1.95-.43-.48-1.15-.72-2.16-.72-.95,0-1.7.2-2.26.61-.56.41-1.02.87-1.39,1.39l-2.84-2.53c.69-1.01,1.55-1.81,2.59-2.38,1.04-.57,2.45-.86,4.24-.86,2.41,0,4.21.53,5.41,1.58,1.2,1.05,1.81,2.59,1.81,4.61v7.41h1.58v3.71h-2.64ZM189.83,380.92c.79,0,1.48-.17,2.05-.51.57-.34.85-.9.85-1.66v-1.98h-2.32c-1.87,0-2.8.63-2.8,1.89v.48c0,.62.19,1.07.58,1.36s.93.43,1.64.43Z"/>
    <path class="cls-4" d="M200.98,383.85v-16.92h4.77v3.67h.16c.09-.47.24-.93.45-1.37s.5-.83.85-1.18c.35-.34.78-.62,1.27-.82.49-.2,1.07-.31,1.74-.31h.84v4.45h-1.19c-1.4,0-2.43.18-3.11.55-.68.37-1.02,1.04-1.02,2.03v9.9h-4.77Z"/>
    <path class="cls-4" d="M226.09,384.24c-1.29,0-2.44-.21-3.45-.63-1.01-.42-1.86-1.01-2.56-1.77-.7-.76-1.22-1.69-1.58-2.79-.35-1.1-.53-2.32-.53-3.67s.17-2.54.52-3.63c.34-1.08.85-2.01,1.53-2.79.68-.77,1.51-1.37,2.5-1.79.99-.42,2.12-.63,3.38-.63,1.4,0,2.59.24,3.59.71,1,.47,1.82,1.11,2.45,1.9.63.79,1.1,1.71,1.39,2.76s.44,2.13.44,3.27v1.42h-10.86v.26c0,1.11.3,1.99.9,2.64.6.65,1.55.97,2.84.97.99,0,1.79-.2,2.42-.59.62-.39,1.2-.87,1.74-1.42l2.39,2.97c-.75.88-1.74,1.57-2.95,2.07-1.21.5-2.59.74-4.14.74ZM225.99,370.06c-.97,0-1.72.32-2.27.95-.55.63-.82,1.48-.82,2.53v.26h5.93v-.29c0-1.03-.23-1.86-.69-2.5-.46-.63-1.18-.95-2.14-.95Z"/>
    <path class="cls-4" d="M240.59,383.85c-1.63,0-2.83-.4-3.59-1.19s-1.14-1.94-1.14-3.45v-19.21h4.77v20.14h2.13v3.71h-2.16Z"/>
    <path class="cls-4" d="M257.48,384.24c-1.27,0-2.4-.21-3.38-.63-.99-.42-1.82-1.01-2.48-1.77-.67-.76-1.17-1.69-1.52-2.79s-.52-2.32-.52-3.67.17-2.57.52-3.66.85-2.01,1.52-2.79c.67-.77,1.49-1.36,2.48-1.77.99-.41,2.12-.61,3.38-.61,1.72,0,3.15.39,4.3,1.16,1.15.77,1.97,1.86,2.47,3.26l-3.87,1.68c-.15-.64-.46-1.19-.93-1.64-.47-.45-1.13-.68-1.97-.68-.97,0-1.7.32-2.19.95-.49.63-.74,1.49-.74,2.56v3.16c0,1.07.25,1.92.74,2.55.49.62,1.22.93,2.19.93.86,0,1.54-.23,2.05-.69s.88-1.07,1.11-1.82l3.71,1.61c-.56,1.61-1.42,2.79-2.59,3.55-1.17.75-2.59,1.13-4.27,1.13Z"/>
    <path class="cls-4" d="M266.02,383.85v-16.92h4.77v3.67h.16c.09-.47.24-.93.45-1.37s.5-.83.85-1.18c.35-.34.78-.62,1.27-.82.49-.2,1.07-.31,1.74-.31h.84v4.45h-1.19c-1.4,0-2.43.18-3.11.55s-1.02,1.04-1.02,2.03v9.9h-4.77Z"/>
    <path class="cls-4" d="M284.65,384.24c-1.29,0-2.44-.21-3.45-.63-1.01-.42-1.86-1.01-2.56-1.77s-1.22-1.69-1.58-2.79-.53-2.32-.53-3.67.17-2.54.52-3.63.85-2.01,1.53-2.79c.68-.77,1.51-1.37,2.5-1.79s2.12-.63,3.38-.63c1.4,0,2.59.24,3.59.71,1,.47,1.82,1.11,2.45,1.9s1.1,1.71,1.39,2.76.44,2.13.44,3.27v1.42h-10.86v.26c0,1.11.3,1.99.9,2.64.6.65,1.55.97,2.84.97.99,0,1.79-.2,2.42-.59s1.2-.87,1.74-1.42l2.39,2.97c-.75.88-1.74,1.57-2.95,2.07-1.21.5-2.59.74-4.14.74ZM284.55,370.06c-.97,0-1.72.32-2.27.95-.55.63-.82,1.48-.82,2.53v.26h5.93v-.29c0-1.03-.23-1.86-.69-2.5-.46-.63-1.18-.95-2.14-.95Z"/>
    <path class="cls-4" d="M301.25,384.24c-1.27,0-2.4-.21-3.38-.63-.99-.42-1.82-1.01-2.48-1.77-.67-.76-1.17-1.69-1.52-2.79s-.52-2.32-.52-3.67.17-2.57.52-3.66.85-2.01,1.52-2.79c.67-.77,1.49-1.36,2.48-1.77.99-.41,2.12-.61,3.38-.61,1.72,0,3.15.39,4.3,1.16,1.15.77,1.97,1.86,2.47,3.26l-3.87,1.68c-.15-.64-.46-1.19-.93-1.64-.47-.45-1.13-.68-1.97-.68-.97,0-1.7.32-2.19.95-.49.63-.74,1.49-.74,2.56v3.16c0,1.07.25,1.92.74,2.55.49.62,1.22.93,2.19.93.86,0,1.54-.23,2.05-.69s.88-1.07,1.11-1.82l3.71,1.61c-.56,1.61-1.42,2.79-2.59,3.55-1.17.75-2.59,1.13-4.27,1.13Z"/>
    <path class="cls-4" d="M312.18,365.12c-.97,0-1.67-.22-2.11-.66-.44-.44-.66-1-.66-1.69v-.71c0-.69.22-1.25.66-1.69s1.14-.66,2.11-.66,1.67.22,2.11.66c.44.44.66,1,.66,1.69v.71c0,.69-.22,1.25-.66,1.69s-1.14.66-2.11.66ZM309.79,366.93h4.77v16.92h-4.77v-16.92Z"/>
    <path class="cls-4" d="M317.72,383.85v-16.92h4.77v2.87h.19c.3-.9.82-1.67,1.55-2.3s1.73-.95,3-.95c1.16,0,2.15.29,2.96.87s1.41,1.43,1.77,2.55h.1c.15-.47.38-.92.69-1.34s.69-.78,1.14-1.08c.45-.3.96-.54,1.51-.72s1.16-.27,1.8-.27c1.63,0,2.88.58,3.76,1.74.87,1.16,1.3,2.81,1.3,4.96v10.6h-4.77v-10.22c0-2.15-.77-3.22-2.32-3.22-.71,0-1.35.2-1.93.61s-.87,1.03-.87,1.87v10.96h-4.77v-10.22c0-2.15-.77-3.22-2.32-3.22-.34,0-.68.05-1.02.14s-.63.25-.9.47c-.27.21-.48.48-.64.79s-.24.67-.24,1.08v10.96h-4.77Z"/>
    <path class="cls-4" d="M347.63,365.12c-.97,0-1.67-.22-2.11-.66-.44-.44-.66-1-.66-1.69v-.71c0-.69.22-1.25.66-1.69s1.14-.66,2.11-.66,1.67.22,2.11.66c.44.44.66,1,.66,1.69v.71c0,.69-.22,1.25-.66,1.69s-1.14.66-2.11.66ZM345.25,366.93h4.77v16.92h-4.77v-16.92Z"/>
    <path class="cls-4" d="M360.23,384.24c-1.29,0-2.44-.21-3.45-.63-1.01-.42-1.86-1.01-2.56-1.77s-1.22-1.69-1.58-2.79-.53-2.32-.53-3.67.17-2.54.52-3.63.85-2.01,1.53-2.79c.68-.77,1.51-1.37,2.5-1.79s2.12-.63,3.38-.63c1.4,0,2.59.24,3.59.71,1,.47,1.82,1.11,2.45,1.9s1.1,1.71,1.39,2.76.44,2.13.44,3.27v1.42h-10.86v.26c0,1.11.3,1.99.9,2.64.6.65,1.55.97,2.84.97.99,0,1.79-.2,2.42-.59s1.2-.87,1.74-1.42l2.39,2.97c-.75.88-1.74,1.57-2.95,2.07-1.21.5-2.59.74-4.14.74ZM360.14,370.06c-.97,0-1.72.32-2.27.95-.55.63-.82,1.48-.82,2.53v.26h5.93v-.29c0-1.03-.23-1.86-.69-2.5-.46-.63-1.18-.95-2.14-.95Z"/>
    <path class="cls-4" d="M370,383.85v-16.92h4.77v2.87h.19c.3-.88.83-1.64,1.58-2.29s1.79-.97,3.13-.97c1.74,0,3.06.58,3.95,1.74.89,1.16,1.34,2.81,1.34,4.96v10.6h-4.77v-10.22c0-1.1-.17-1.91-.52-2.43-.34-.53-.96-.79-1.84-.79-.39,0-.76.05-1.13.14s-.69.25-.98.47-.52.48-.69.79-.26.67-.26,1.08v10.96h-4.77Z"/>
    <path class="cls-4" d="M393.85,383.85c-1.65,0-2.91-.42-3.75-1.26s-1.27-2.06-1.27-3.67v-8.28h-2.38v-3.71h1.19c.64,0,1.08-.16,1.32-.47.24-.31.35-.76.35-1.34v-2.77h4.29v4.58h3.35v3.71h-3.35v9.51h3.09v3.71h-2.84Z"/>
    <path class="cls-4" d="M405.71,384.24c-1.25,0-2.36-.2-3.34-.61s-1.8-1-2.48-1.77-1.2-1.71-1.56-2.8-.55-2.32-.55-3.67.18-2.58.55-3.67.89-2.03,1.56-2.79,1.5-1.35,2.48-1.76c.98-.41,2.09-.61,3.34-.61s2.36.21,3.34.61c.98.41,1.81.99,2.48,1.76s1.2,1.69,1.56,2.79c.37,1.1.55,2.32.55,3.67s-.18,2.58-.55,3.67c-.37,1.1-.89,2.03-1.56,2.8s-1.5,1.36-2.48,1.77-2.09.61-3.34.61ZM405.71,380.47c.95,0,1.68-.29,2.19-.87s.77-1.41.77-2.48v-3.45c0-1.07-.26-1.9-.77-2.48s-1.25-.87-2.19-.87-1.68.29-2.19.87-.77,1.41-.77,2.48v3.45c0,1.07.26,1.9.77,2.48s1.25.87,2.19.87Z"/>
    <path class="cls-4" d="M130.75,415.33h-.16c-.13.45-.33.88-.61,1.27-.28.4-.62.74-1.02,1.03s-.85.52-1.35.68c-.5.16-1.03.24-1.56.24-2.15,0-3.77-.76-4.87-2.27s-1.64-3.71-1.64-6.59.55-5.07,1.64-6.58,2.72-2.26,4.87-2.26c1.1,0,2.07.3,2.92.9.85.6,1.39,1.38,1.63,2.32h.16v-9.77h4.77v23.85h-4.77v-2.84ZM127.62,414.69c.9,0,1.65-.22,2.24-.66.59-.44.89-1.05.89-1.82v-5c0-.77-.3-1.38-.89-1.82-.59-.44-1.34-.66-2.24-.66s-1.65.32-2.24.95c-.59.63-.89,1.49-.89,2.56v2.93c0,1.07.29,1.93.89,2.56.59.63,1.34.95,2.24.95Z"/>
    <path class="cls-4" d="M145.73,418.56c-1.29,0-2.44-.21-3.45-.63-1.01-.42-1.86-1.01-2.56-1.77-.7-.76-1.22-1.69-1.58-2.79-.35-1.1-.53-2.32-.53-3.67s.17-2.54.52-3.63c.34-1.08.85-2.01,1.53-2.79.68-.77,1.51-1.37,2.5-1.79.99-.42,2.12-.63,3.38-.63,1.4,0,2.59.24,3.59.71,1,.47,1.82,1.11,2.45,1.9.63.79,1.1,1.71,1.39,2.76s.44,2.13.44,3.27v1.42h-10.86v.26c0,1.11.3,1.99.9,2.64.6.65,1.55.97,2.84.97.99,0,1.79-.2,2.42-.59.62-.39,1.2-.87,1.74-1.42l2.39,2.97c-.75.88-1.74,1.57-2.95,2.07-1.21.5-2.59.74-4.14.74ZM145.64,404.38c-.97,0-1.72.32-2.27.95-.55.63-.82,1.48-.82,2.53v.26h5.93v-.29c0-1.03-.23-1.86-.69-2.5-.46-.63-1.18-.95-2.14-.95Z"/>
    <path class="cls-4" d="M168.65,418.56c-1.27,0-2.4-.21-3.38-.63-.99-.42-1.82-1.01-2.48-1.77-.67-.76-1.17-1.69-1.51-2.79-.34-1.1-.52-2.32-.52-3.67s.17-2.57.52-3.66c.34-1.08.85-2.01,1.51-2.79.67-.77,1.49-1.36,2.48-1.77.99-.41,2.12-.61,3.38-.61,1.72,0,3.15.39,4.3,1.16,1.15.77,1.97,1.86,2.47,3.26l-3.87,1.68c-.15-.64-.46-1.19-.93-1.64-.47-.45-1.13-.68-1.97-.68-.97,0-1.7.32-2.19.95-.49.63-.74,1.49-.74,2.56v3.16c0,1.07.25,1.92.74,2.55.49.62,1.23.93,2.19.93.86,0,1.54-.23,2.05-.69.5-.46.88-1.07,1.11-1.82l3.71,1.61c-.56,1.61-1.42,2.79-2.59,3.55-1.17.75-2.59,1.13-4.27,1.13Z"/>
    <path class="cls-4" d="M183.9,418.56c-1.25,0-2.36-.2-3.34-.61-.98-.41-1.81-1-2.48-1.77s-1.2-1.71-1.56-2.8c-.37-1.1-.55-2.32-.55-3.67s.18-2.58.55-3.67c.36-1.1.89-2.03,1.56-2.79s1.5-1.35,2.48-1.76c.98-.41,2.09-.61,3.34-.61s2.36.21,3.34.61c.98.41,1.81.99,2.48,1.76s1.2,1.69,1.56,2.79c.37,1.1.55,2.32.55,3.67s-.18,2.58-.55,3.67c-.37,1.1-.89,2.03-1.56,2.8s-1.5,1.36-2.48,1.77c-.98.41-2.09.61-3.34.61ZM183.9,414.79c.95,0,1.68-.29,2.19-.87.52-.58.77-1.41.77-2.48v-3.45c0-1.07-.26-1.9-.77-2.48-.52-.58-1.25-.87-2.19-.87s-1.68.29-2.19.87-.77,1.41-.77,2.48v3.45c0,1.07.26,1.9.77,2.48s1.25.87,2.19.87Z"/>
    <path class="cls-4" d="M200.79,418.56c-1.25,0-2.36-.2-3.34-.61-.98-.41-1.81-1-2.48-1.77s-1.2-1.71-1.56-2.8c-.37-1.1-.55-2.32-.55-3.67s.18-2.58.55-3.67c.36-1.1.89-2.03,1.56-2.79s1.5-1.35,2.48-1.76c.98-.41,2.09-.61,3.34-.61s2.36.21,3.34.61c.98.41,1.81.99,2.48,1.76s1.2,1.69,1.56,2.79c.37,1.1.55,2.32.55,3.67s-.18,2.58-.55,3.67c-.37,1.1-.89,2.03-1.56,2.8s-1.5,1.36-2.48,1.77c-.98.41-2.09.61-3.34.61ZM200.79,414.79c.95,0,1.68-.29,2.19-.87.52-.58.77-1.41.77-2.48v-3.45c0-1.07-.26-1.9-.77-2.48-.52-.58-1.25-.87-2.19-.87s-1.68.29-2.19.87-.77,1.41-.77,2.48v3.45c0,1.07.26,1.9.77,2.48s1.25.87,2.19.87Z"/>
    <path class="cls-4" d="M210.81,401.25h4.77v2.84h.16c.24-.95.78-1.72,1.63-2.32.85-.6,1.82-.9,2.92-.9,2.15,0,3.77.75,4.87,2.26,1.1,1.5,1.64,3.7,1.64,6.58s-.55,5.08-1.64,6.59c-1.1,1.51-2.72,2.27-4.87,2.27-.56,0-1.09-.08-1.58-.24-.49-.16-.94-.39-1.34-.68-.4-.29-.74-.63-1.02-1.03-.28-.4-.48-.82-.61-1.27h-.16v9.28h-4.77v-23.37ZM218.71,414.69c.9,0,1.65-.32,2.24-.95.59-.63.89-1.49.89-2.56v-2.93c0-1.07-.3-1.93-.89-2.56-.59-.63-1.34-.95-2.24-.95s-1.65.22-2.24.66c-.59.44-.89,1.05-.89,1.82v5c0,.77.3,1.38.89,1.82.59.44,1.34.66,2.24.66Z"/>
    <path class="cls-4" d="M236.18,418.56c-1.29,0-2.44-.21-3.45-.63-1.01-.42-1.86-1.01-2.56-1.77-.7-.76-1.22-1.69-1.58-2.79-.35-1.1-.53-2.32-.53-3.67s.17-2.54.52-3.63c.34-1.08.85-2.01,1.53-2.79.68-.77,1.51-1.37,2.5-1.79.99-.42,2.12-.63,3.38-.63,1.4,0,2.59.24,3.59.71,1,.47,1.81,1.11,2.45,1.9.63.79,1.1,1.71,1.38,2.76.29,1.04.44,2.13.44,3.27v1.42h-10.86v.26c0,1.11.3,1.99.9,2.64.6.65,1.55.97,2.84.97.99,0,1.79-.2,2.42-.59s1.2-.87,1.74-1.42l2.38,2.97c-.75.88-1.74,1.57-2.95,2.07-1.21.5-2.59.74-4.14.74ZM236.08,404.38c-.97,0-1.72.32-2.27.95-.55.63-.82,1.48-.82,2.53v.26h5.93v-.29c0-1.03-.23-1.86-.69-2.5-.46-.63-1.18-.95-2.14-.95Z"/>
    <path class="cls-4" d="M245.94,418.17v-16.92h4.77v3.67h.16c.09-.47.24-.93.45-1.37s.5-.83.85-1.18c.35-.34.78-.62,1.27-.82.49-.2,1.07-.31,1.74-.31h.84v4.45h-1.19c-1.4,0-2.43.18-3.11.55s-1.02,1.04-1.02,2.03v9.9h-4.77Z"/>
    <path class="cls-4" d="M269.73,418.17c-.86,0-1.57-.27-2.14-.81-.57-.54-.93-1.26-1.08-2.16h-.19c-.26,1.1-.83,1.93-1.71,2.5-.88.57-1.97.85-3.26.85-1.7,0-3-.45-3.9-1.35-.9-.9-1.35-2.09-1.35-3.57,0-1.78.65-3.1,1.95-3.97,1.3-.87,3.07-1.3,5.3-1.3h2.68v-1.06c0-.82-.21-1.47-.64-1.95-.43-.48-1.15-.72-2.16-.72-.95,0-1.7.2-2.26.61s-1.02.87-1.39,1.39l-2.84-2.53c.69-1.01,1.55-1.81,2.59-2.38s2.46-.86,4.24-.86c2.41,0,4.21.53,5.42,1.58,1.2,1.05,1.81,2.59,1.81,4.61v7.41h1.58v3.71h-2.64ZM263.12,415.24c.79,0,1.48-.17,2.05-.51.57-.34.85-.9.85-1.66v-1.98h-2.32c-1.87,0-2.8.63-2.8,1.89v.48c0,.62.19,1.07.58,1.36s.93.43,1.64.43Z"/>
    <path class="cls-4" d="M280.01,418.17c-1.65,0-2.91-.42-3.75-1.26s-1.27-2.06-1.27-3.67v-8.28h-2.38v-3.71h1.19c.64,0,1.08-.16,1.32-.47.24-.31.35-.76.35-1.34v-2.77h4.29v4.58h3.35v3.71h-3.35v9.51h3.09v3.71h-2.84Z"/>
    <path class="cls-4" d="M287.52,399.44c-.97,0-1.67-.22-2.11-.66-.44-.44-.66-1-.66-1.69v-.71c0-.69.22-1.25.66-1.69s1.14-.66,2.11-.66,1.67.22,2.11.66c.44.44.66,1,.66,1.69v.71c0,.69-.22,1.25-.66,1.69s-1.14.66-2.11.66ZM285.13,401.25h4.77v16.92h-4.77v-16.92Z"/>
    <path class="cls-4" d="M296.67,418.17l-5.54-16.92h4.71l2.09,6.83,1.58,6.12h.26l1.58-6.12,2.03-6.83h4.51l-5.54,16.92h-5.67Z"/>
    <path class="cls-4" d="M321.33,418.17c-.86,0-1.57-.27-2.14-.81-.57-.54-.93-1.26-1.08-2.16h-.19c-.26,1.1-.83,1.93-1.71,2.5-.88.57-1.97.85-3.26.85-1.7,0-3-.45-3.9-1.35-.9-.9-1.35-2.09-1.35-3.57,0-1.78.65-3.1,1.95-3.97,1.3-.87,3.07-1.3,5.3-1.3h2.68v-1.06c0-.82-.21-1.47-.64-1.95-.43-.48-1.15-.72-2.16-.72-.95,0-1.7.2-2.26.61s-1.02.87-1.39,1.39l-2.84-2.53c.69-1.01,1.55-1.81,2.59-2.38s2.46-.86,4.24-.86c2.41,0,4.21.53,5.42,1.58,1.2,1.05,1.81,2.59,1.81,4.61v7.41h1.58v3.71h-2.64ZM314.72,415.24c.79,0,1.48-.17,2.05-.51.57-.34.85-.9.85-1.66v-1.98h-2.32c-1.87,0-2.8.63-2.8,1.89v.48c0,.62.19,1.07.58,1.36s.93.43,1.64.43Z"/>
    <path class="cls-4" d="M331.61,418.56c-1.63,0-3.01-.26-4.12-.79-1.12-.53-2.12-1.27-3-2.24l2.8-2.84c.6.67,1.27,1.19,2,1.58s1.56.58,2.48.58,1.6-.14,1.97-.43c.36-.29.55-.68.55-1.18,0-.79-.57-1.27-1.71-1.42l-1.84-.23c-3.8-.47-5.71-2.21-5.71-5.22,0-.82.16-1.56.47-2.24s.75-1.26,1.32-1.74,1.26-.86,2.06-1.13,1.71-.4,2.72-.4c.88,0,1.66.06,2.34.18s1.28.29,1.8.52,1.01.5,1.45.84c.44.33.88.7,1.3,1.11l-2.74,2.8c-.54-.54-1.14-.96-1.82-1.27-.68-.31-1.37-.47-2.08-.47-.82,0-1.4.13-1.74.39s-.52.6-.52,1.03c0,.45.12.8.37,1.05.25.25.71.42,1.4.53l1.9.26c3.72.5,5.58,2.19,5.58,5.09,0,.82-.17,1.57-.52,2.26s-.83,1.28-1.47,1.79c-.63.51-1.4.9-2.29,1.18s-1.89.42-2.98.42Z"/>
    <path class="cls-4" d="M62.71,452.49c-1.66,0-2.91-.42-3.76-1.26-.85-.84-1.27-2.06-1.27-3.67v-8.28h-2.39v-3.71h1.19c.64,0,1.08-.16,1.32-.47.24-.31.35-.76.35-1.34v-2.77h4.29v4.58h3.35v3.71h-3.35v9.51h3.09v3.71h-2.84Z"/>
    <path class="cls-4" d="M74.76,452.87c-1.29,0-2.44-.21-3.45-.63-1.01-.42-1.86-1.01-2.56-1.77-.7-.76-1.22-1.69-1.58-2.79-.35-1.1-.53-2.32-.53-3.67s.17-2.54.52-3.63c.34-1.08.85-2.01,1.53-2.79.68-.77,1.51-1.37,2.5-1.79.99-.42,2.12-.63,3.38-.63,1.4,0,2.59.24,3.59.71,1,.47,1.82,1.11,2.45,1.9.63.79,1.1,1.71,1.39,2.76s.44,2.13.44,3.27v1.42h-10.86v.26c0,1.11.3,1.99.9,2.64.6.65,1.55.97,2.84.97.99,0,1.79-.2,2.42-.59.62-.39,1.2-.87,1.74-1.42l2.39,2.97c-.75.88-1.74,1.57-2.95,2.07-1.21.5-2.59.74-4.14.74ZM74.66,438.69c-.97,0-1.72.32-2.27.95-.55.63-.82,1.48-.82,2.53v.26h5.93v-.29c0-1.03-.23-1.86-.69-2.5-.46-.63-1.18-.95-2.14-.95Z"/>
    <path class="cls-4" d="M91.36,452.87c-1.27,0-2.4-.21-3.38-.63-.99-.42-1.82-1.01-2.48-1.77-.67-.76-1.17-1.69-1.51-2.79-.34-1.1-.52-2.32-.52-3.67s.17-2.57.52-3.66c.34-1.08.85-2.01,1.51-2.79.67-.77,1.49-1.36,2.48-1.77.99-.41,2.12-.61,3.38-.61,1.72,0,3.15.39,4.3,1.16,1.15.77,1.97,1.86,2.47,3.26l-3.87,1.68c-.15-.64-.46-1.19-.93-1.64-.47-.45-1.13-.68-1.97-.68-.97,0-1.7.32-2.19.95-.49.63-.74,1.49-.74,2.56v3.16c0,1.07.25,1.92.74,2.55.49.62,1.23.93,2.19.93.86,0,1.54-.23,2.05-.69.5-.46.88-1.07,1.11-1.82l3.71,1.61c-.56,1.61-1.42,2.79-2.59,3.55-1.17.75-2.59,1.13-4.27,1.13Z"/>
    <path class="cls-4" d="M99.9,452.49v-16.92h4.77v2.87h.19c.3-.88.83-1.64,1.58-2.29.75-.64,1.79-.97,3.13-.97,1.74,0,3.06.58,3.95,1.74.89,1.16,1.34,2.81,1.34,4.96v10.6h-4.77v-10.22c0-1.1-.17-1.91-.52-2.43-.34-.53-.96-.79-1.84-.79-.39,0-.76.05-1.13.14-.37.1-.69.25-.98.47-.29.21-.52.48-.69.79s-.26.67-.26,1.08v10.96h-4.77Z"/>
    <path class="cls-4" d="M124.69,452.87c-1.25,0-2.36-.2-3.34-.61-.98-.41-1.81-1-2.48-1.77s-1.2-1.71-1.56-2.8c-.37-1.1-.55-2.32-.55-3.67s.18-2.58.55-3.67c.36-1.1.89-2.03,1.56-2.79s1.5-1.35,2.48-1.76c.98-.41,2.09-.61,3.34-.61s2.36.21,3.34.61c.98.41,1.81.99,2.48,1.76s1.2,1.69,1.56,2.79c.37,1.1.55,2.32.55,3.67s-.18,2.58-.55,3.67c-.37,1.1-.89,2.03-1.56,2.8s-1.5,1.36-2.48,1.77c-.98.41-2.09.61-3.34.61ZM124.69,449.1c.95,0,1.68-.29,2.19-.87.52-.58.77-1.41.77-2.48v-3.45c0-1.07-.26-1.9-.77-2.48-.52-.58-1.25-.87-2.19-.87s-1.68.29-2.19.87-.77,1.41-.77,2.48v3.45c0,1.07.26,1.9.77,2.48s1.25.87,2.19.87Z"/>
    <path class="cls-4" d="M139.45,452.49c-1.63,0-2.83-.4-3.59-1.19-.76-.79-1.14-1.94-1.14-3.45v-19.21h4.77v20.14h2.13v3.71h-2.16Z"/>
    <path class="cls-4" d="M150.05,452.87c-1.25,0-2.36-.2-3.34-.61-.98-.41-1.81-1-2.48-1.77s-1.2-1.71-1.56-2.8c-.37-1.1-.55-2.32-.55-3.67s.18-2.58.55-3.67c.36-1.1.89-2.03,1.56-2.79s1.5-1.35,2.48-1.76c.98-.41,2.09-.61,3.34-.61s2.36.21,3.34.61c.98.41,1.81.99,2.48,1.76s1.2,1.69,1.56,2.79c.37,1.1.55,2.32.55,3.67s-.18,2.58-.55,3.67c-.37,1.1-.89,2.03-1.56,2.8s-1.5,1.36-2.48,1.77c-.98.41-2.09.61-3.34.61ZM150.05,449.1c.95,0,1.68-.29,2.19-.87.52-.58.77-1.41.77-2.48v-3.45c0-1.07-.26-1.9-.77-2.48-.52-.58-1.25-.87-2.19-.87s-1.68.29-2.19.87-.77,1.41-.77,2.48v3.45c0,1.07.26,1.9.77,2.48s1.25.87,2.19.87ZM150.57,433.83l-2.84-1.39,3.19-6.25,3.96,1.97-4.32,5.67Z"/>
    <path class="cls-4" d="M175.74,453.71c0,.9-.16,1.7-.47,2.39-.31.69-.82,1.27-1.53,1.76s-1.65.85-2.82,1.1c-1.17.25-2.62.37-4.33.37-1.46,0-2.7-.09-3.72-.27-1.02-.18-1.85-.44-2.48-.77-.63-.33-1.1-.74-1.39-1.22s-.44-1.04-.44-1.66c0-.95.28-1.69.84-2.22s1.33-.87,2.32-1v-.35c-.82-.15-1.43-.5-1.84-1.05-.41-.55-.61-1.19-.61-1.92,0-.45.09-.84.27-1.18.18-.33.42-.62.71-.87.29-.25.63-.45,1.02-.6s.77-.27,1.16-.36v-.13c-1.03-.47-1.79-1.12-2.29-1.95-.49-.83-.74-1.79-.74-2.88,0-1.72.6-3.1,1.79-4.14,1.19-1.04,3.01-1.56,5.46-1.56,1.12,0,2.07.11,2.87.32v-.64c0-.9.22-1.55.66-1.95.44-.4,1.07-.6,1.89-.6h2.67v3.54h-3.74v.19c.99.47,1.72,1.12,2.19,1.95.47.83.71,1.79.71,2.88,0,1.7-.6,3.06-1.79,4.08-1.19,1.02-3.01,1.53-5.46,1.53-1.1,0-2.1-.12-3-.35-.49.32-.74.77-.74,1.35,0,.41.16.73.47.95.31.23.83.34,1.56.34h4.9c2.06,0,3.56.43,4.5,1.29.94.86,1.4,2.07,1.4,3.64ZM171.26,454.36c0-.49-.19-.87-.58-1.13s-1.06-.39-2.03-.39h-5.8c-.22.21-.37.46-.47.73-.1.27-.15.53-.15.79,0,.62.27,1.08.81,1.37.54.29,1.45.44,2.74.44h1.93c1.29,0,2.2-.15,2.74-.44s.81-.75.81-1.37ZM166.65,443.33c.95,0,1.65-.2,2.11-.59s.69-.97.69-1.71v-.38c0-.75-.23-1.32-.69-1.71-.46-.4-1.17-.59-2.11-.59s-1.65.2-2.11.59c-.46.39-.69.97-.69,1.71v.38c0,.75.23,1.32.69,1.71.46.39,1.17.59,2.11.59Z"/>
    <path class="cls-4" d="M178.96,433.76c-.97,0-1.67-.22-2.11-.66-.44-.44-.66-1-.66-1.69v-.71c0-.69.22-1.25.66-1.69.44-.44,1.14-.66,2.11-.66s1.67.22,2.11.66.66,1,.66,1.69v.71c0,.69-.22,1.25-.66,1.69-.44.44-1.14.66-2.11.66ZM176.58,435.57h4.77v16.92h-4.77v-16.92Z"/>
    <path class="cls-4" d="M191.34,452.87c-1.27,0-2.4-.21-3.38-.63-.99-.42-1.82-1.01-2.48-1.77-.67-.76-1.17-1.69-1.51-2.79-.34-1.1-.52-2.32-.52-3.67s.17-2.57.52-3.66c.34-1.08.85-2.01,1.51-2.79.67-.77,1.49-1.36,2.48-1.77.99-.41,2.12-.61,3.38-.61,1.72,0,3.15.39,4.3,1.16,1.15.77,1.97,1.86,2.47,3.26l-3.87,1.68c-.15-.64-.46-1.19-.93-1.64-.47-.45-1.13-.68-1.97-.68-.97,0-1.7.32-2.19.95-.49.63-.74,1.49-.74,2.56v3.16c0,1.07.25,1.92.74,2.55.49.62,1.23.93,2.19.93.86,0,1.54-.23,2.05-.69.5-.46.88-1.07,1.11-1.82l3.71,1.61c-.56,1.61-1.42,2.79-2.59,3.55-1.17.75-2.59,1.13-4.27,1.13Z"/>
    <path class="cls-4" d="M212.39,452.49c-.86,0-1.57-.27-2.14-.81-.57-.54-.93-1.26-1.08-2.16h-.19c-.26,1.1-.83,1.93-1.71,2.5-.88.57-1.97.85-3.26.85-1.7,0-3-.45-3.9-1.35-.9-.9-1.35-2.09-1.35-3.57,0-1.78.65-3.1,1.95-3.97,1.3-.87,3.07-1.3,5.3-1.3h2.68v-1.06c0-.82-.22-1.47-.65-1.95-.43-.48-1.15-.72-2.16-.72-.95,0-1.7.2-2.26.61-.56.41-1.02.87-1.39,1.39l-2.84-2.53c.69-1.01,1.55-1.81,2.59-2.38,1.04-.57,2.45-.86,4.24-.86,2.41,0,4.21.53,5.41,1.58,1.2,1.05,1.81,2.59,1.81,4.61v7.41h1.58v3.71h-2.64ZM205.78,449.55c.79,0,1.48-.17,2.05-.51.57-.34.85-.9.85-1.66v-1.98h-2.32c-1.87,0-2.8.63-2.8,1.89v.48c0,.62.19,1.07.58,1.36s.93.43,1.64.43Z"/>
    <path class="cls-4" d="M222.67,452.87c-1.63,0-3.01-.26-4.13-.79-1.12-.53-2.12-1.27-3-2.24l2.8-2.84c.6.67,1.27,1.19,2,1.58.73.39,1.56.58,2.48.58s1.6-.14,1.97-.43c.37-.29.55-.68.55-1.18,0-.79-.57-1.27-1.71-1.42l-1.84-.23c-3.8-.47-5.71-2.21-5.71-5.22,0-.82.16-1.56.47-2.24.31-.68.75-1.26,1.32-1.74.57-.48,1.26-.86,2.06-1.13.81-.27,1.71-.4,2.72-.4.88,0,1.66.06,2.34.18.68.12,1.28.29,1.81.52.53.23,1.01.5,1.45.84s.88.7,1.31,1.11l-2.74,2.8c-.54-.54-1.14-.96-1.82-1.27-.68-.31-1.37-.47-2.08-.47-.82,0-1.4.13-1.74.39-.34.26-.52.6-.52,1.03,0,.45.12.8.37,1.05.25.25.71.42,1.4.53l1.9.26c3.72.5,5.58,2.19,5.58,5.09,0,.82-.17,1.57-.52,2.26-.34.69-.83,1.28-1.47,1.79-.63.51-1.4.9-2.29,1.18s-1.89.42-2.98.42Z"/>
    <path class="cls-4" d="M245.26,452.87c-1.29,0-2.44-.21-3.45-.63-1.01-.42-1.87-1.01-2.56-1.77-.7-.76-1.22-1.69-1.58-2.79-.35-1.1-.53-2.32-.53-3.67s.17-2.54.52-3.63.85-2.01,1.53-2.79c.68-.77,1.51-1.37,2.5-1.79s2.12-.63,3.38-.63c1.4,0,2.6.24,3.6.71,1,.47,1.81,1.11,2.45,1.9.63.79,1.1,1.71,1.38,2.76.29,1.04.44,2.13.44,3.27v1.42h-10.86v.26c0,1.11.3,1.99.9,2.64.6.65,1.55.97,2.84.97.99,0,1.79-.2,2.42-.59s1.2-.87,1.74-1.42l2.38,2.97c-.75.88-1.74,1.57-2.95,2.07-1.21.5-2.59.74-4.14.74ZM245.17,438.69c-.97,0-1.72.32-2.27.95-.55.63-.82,1.48-.82,2.53v.26h5.93v-.29c0-1.03-.23-1.86-.69-2.5-.46-.63-1.18-.95-2.14-.95Z"/>
    <path class="cls-4" d="M255.03,452.49v-16.92h4.77v2.87h.19c.3-.9.82-1.67,1.55-2.3s1.73-.95,3-.95c1.16,0,2.15.29,2.96.87s1.41,1.43,1.77,2.55h.1c.15-.47.38-.92.69-1.34s.69-.78,1.14-1.08c.45-.3.96-.54,1.51-.72s1.16-.27,1.8-.27c1.63,0,2.88.58,3.76,1.74.87,1.16,1.3,2.81,1.3,4.96v10.6h-4.77v-10.22c0-2.15-.77-3.22-2.32-3.22-.71,0-1.35.2-1.93.61s-.87,1.03-.87,1.87v10.96h-4.77v-10.22c0-2.15-.77-3.22-2.32-3.22-.34,0-.68.05-1.02.14s-.63.25-.9.47c-.27.21-.48.48-.64.79s-.24.67-.24,1.08v10.96h-4.77Z"/>
    <path class="cls-4" d="M289.62,452.87c-1.29,0-2.44-.21-3.45-.63-1.01-.42-1.86-1.01-2.56-1.77s-1.22-1.69-1.58-2.79-.53-2.32-.53-3.67.17-2.54.52-3.63.85-2.01,1.53-2.79c.68-.77,1.51-1.37,2.5-1.79s2.12-.63,3.38-.63c1.4,0,2.59.24,3.59.71,1,.47,1.82,1.11,2.45,1.9s1.1,1.71,1.39,2.76.44,2.13.44,3.27v1.42h-10.86v.26c0,1.11.3,1.99.9,2.64.6.65,1.55.97,2.84.97.99,0,1.79-.2,2.42-.59s1.2-.87,1.74-1.42l2.39,2.97c-.75.88-1.74,1.57-2.95,2.07-1.21.5-2.59.74-4.14.74ZM289.52,438.69c-.97,0-1.72.32-2.27.95-.55.63-.82,1.48-.82,2.53v.26h5.93v-.29c0-1.03-.23-1.86-.69-2.5-.46-.63-1.18-.95-2.14-.95Z"/>
    <path class="cls-4" d="M299.38,452.49v-16.92h4.77v3.67h.16c.09-.47.24-.93.45-1.37s.5-.83.85-1.18c.35-.34.78-.62,1.27-.82.49-.2,1.07-.31,1.74-.31h.84v4.45h-1.19c-1.4,0-2.43.18-3.11.55s-1.02,1.04-1.02,2.03v9.9h-4.77Z"/>
    <path class="cls-4" d="M326.33,453.71c0,.9-.16,1.7-.47,2.39-.31.69-.82,1.27-1.53,1.76-.71.48-1.65.85-2.82,1.1-1.17.25-2.62.37-4.34.37-1.46,0-2.7-.09-3.72-.27-1.02-.18-1.85-.44-2.48-.77s-1.1-.74-1.39-1.22-.44-1.04-.44-1.66c0-.95.28-1.69.84-2.22s1.33-.87,2.32-1v-.35c-.82-.15-1.43-.5-1.84-1.05s-.61-1.19-.61-1.92c0-.45.09-.84.27-1.18.18-.33.42-.62.71-.87.29-.25.63-.45,1.02-.6.39-.15.77-.27,1.16-.36v-.13c-1.03-.47-1.79-1.12-2.29-1.95-.49-.83-.74-1.79-.74-2.88,0-1.72.6-3.1,1.79-4.14,1.19-1.04,3.01-1.56,5.46-1.56,1.12,0,2.07.11,2.87.32v-.64c0-.9.22-1.55.66-1.95.44-.4,1.07-.6,1.89-.6h2.68v3.54h-3.74v.19c.99.47,1.72,1.12,2.19,1.95s.71,1.79.71,2.88c0,1.7-.6,3.06-1.79,4.08-1.19,1.02-3.01,1.53-5.46,1.53-1.1,0-2.09-.12-3-.35-.49.32-.74.77-.74,1.35,0,.41.16.73.47.95s.83.34,1.56.34h4.9c2.06,0,3.56.43,4.5,1.29s1.4,2.07,1.4,3.64ZM321.85,454.36c0-.49-.19-.87-.58-1.13s-1.06-.39-2.03-.39h-5.8c-.21.21-.37.46-.47.73-.1.27-.14.53-.14.79,0,.62.27,1.08.81,1.37s1.45.44,2.74.44h1.93c1.29,0,2.2-.15,2.74-.44s.81-.75.81-1.37ZM317.24,443.33c.95,0,1.65-.2,2.11-.59s.69-.97.69-1.71v-.38c0-.75-.23-1.32-.69-1.71-.46-.4-1.17-.59-2.11-.59s-1.65.2-2.11.59c-.46.39-.69.97-.69,1.71v.38c0,.75.23,1.32.69,1.71.46.39,1.17.59,2.11.59Z"/>
    <path class="cls-4" d="M334.03,452.87c-1.29,0-2.44-.21-3.45-.63-1.01-.42-1.86-1.01-2.56-1.77s-1.22-1.69-1.58-2.79-.53-2.32-.53-3.67.17-2.54.52-3.63.85-2.01,1.53-2.79c.68-.77,1.51-1.37,2.5-1.79s2.12-.63,3.38-.63c1.4,0,2.59.24,3.59.71,1,.47,1.82,1.11,2.45,1.9s1.1,1.71,1.39,2.76.44,2.13.44,3.27v1.42h-10.86v.26c0,1.11.3,1.99.9,2.64.6.65,1.55.97,2.84.97.99,0,1.79-.2,2.42-.59s1.2-.87,1.74-1.42l2.39,2.97c-.75.88-1.74,1.57-2.95,2.07-1.21.5-2.59.74-4.14.74ZM333.93,438.69c-.97,0-1.72.32-2.27.95-.55.63-.82,1.48-.82,2.53v.26h5.93v-.29c0-1.03-.23-1.86-.69-2.5-.46-.63-1.18-.95-2.14-.95Z"/>
    <path class="cls-4" d="M343.8,452.49v-16.92h4.77v2.87h.19c.3-.88.83-1.64,1.58-2.29s1.79-.97,3.13-.97c1.74,0,3.06.58,3.95,1.74.89,1.16,1.34,2.81,1.34,4.96v10.6h-4.77v-10.22c0-1.1-.17-1.91-.52-2.43-.34-.53-.96-.79-1.84-.79-.39,0-.76.05-1.13.14s-.69.25-.98.47-.52.48-.69.79-.26.67-.26,1.08v10.96h-4.77Z"/>
    <path class="cls-4" d="M367.65,452.49c-1.65,0-2.91-.42-3.75-1.26s-1.27-2.06-1.27-3.67v-8.28h-2.38v-3.71h1.19c.64,0,1.08-.16,1.32-.47.24-.31.35-.76.35-1.34v-2.77h4.29v4.58h3.35v3.71h-3.35v9.51h3.09v3.71h-2.84Z"/>
    <path class="cls-4" d="M379.7,452.87c-1.29,0-2.44-.21-3.45-.63-1.01-.42-1.86-1.01-2.56-1.77s-1.22-1.69-1.58-2.79-.53-2.32-.53-3.67.17-2.54.52-3.63.85-2.01,1.53-2.79c.68-.77,1.51-1.37,2.5-1.79s2.12-.63,3.38-.63c1.4,0,2.59.24,3.59.71,1,.47,1.82,1.11,2.45,1.9s1.1,1.71,1.39,2.76.44,2.13.44,3.27v1.42h-10.86v.26c0,1.11.3,1.99.9,2.64.6.65,1.55.97,2.84.97.99,0,1.79-.2,2.42-.59s1.2-.87,1.74-1.42l2.39,2.97c-.75.88-1.74,1.57-2.95,2.07-1.21.5-2.59.74-4.14.74ZM379.61,438.69c-.97,0-1.72.32-2.27.95-.55.63-.82,1.48-.82,2.53v.26h5.93v-.29c0-1.03-.23-1.86-.69-2.5-.46-.63-1.18-.95-2.14-.95Z"/>
    <path class="cls-4" d="M395.21,452.87c-1.63,0-3.01-.26-4.12-.79-1.12-.53-2.12-1.27-3-2.24l2.8-2.84c.6.67,1.27,1.19,2,1.58s1.56.58,2.48.58,1.6-.14,1.97-.43c.36-.29.55-.68.55-1.18,0-.79-.57-1.27-1.71-1.42l-1.84-.23c-3.8-.47-5.71-2.21-5.71-5.22,0-.82.16-1.56.47-2.24s.75-1.26,1.32-1.74,1.26-.86,2.06-1.13,1.71-.4,2.72-.4c.88,0,1.66.06,2.34.18s1.28.29,1.8.52,1.01.5,1.45.84c.44.33.88.7,1.3,1.11l-2.74,2.8c-.54-.54-1.14-.96-1.82-1.27-.68-.31-1.37-.47-2.08-.47-.82,0-1.4.13-1.74.39s-.52.6-.52,1.03c0,.45.12.8.37,1.05.25.25.71.42,1.4.53l1.9.26c3.72.5,5.58,2.19,5.58,5.09,0,.82-.17,1.57-.52,2.26s-.83,1.28-1.47,1.79c-.63.51-1.4.9-2.29,1.18s-1.89.42-2.98.42Z"/>
  </g>
  <g>
    <path class="cls-4" d="M134.29,610.7v-22.5h10.64c1.05,0,2,.18,2.84.53s1.55.84,2.14,1.47c.59.62,1.05,1.38,1.37,2.27s.48,1.86.48,2.92-.16,2.05-.48,2.93c-.32.88-.78,1.63-1.37,2.26-.59.62-1.31,1.11-2.14,1.47s-1.78.53-2.84.53h-5.74v8.12h-4.9ZM139.19,598.32h5.16c.73,0,1.31-.19,1.72-.56.42-.38.63-.93.63-1.66v-1.42c0-.73-.21-1.28-.63-1.66-.42-.38-.99-.56-1.72-.56h-5.16v5.87Z"/>
    <path class="cls-4" d="M165.91,610.7c-.86,0-1.57-.27-2.14-.81-.57-.54-.93-1.26-1.08-2.16h-.19c-.26,1.1-.83,1.93-1.71,2.5-.88.57-1.97.85-3.26.85-1.7,0-3-.45-3.9-1.35-.9-.9-1.35-2.09-1.35-3.57,0-1.78.65-3.1,1.95-3.97,1.3-.87,3.07-1.3,5.3-1.3h2.68v-1.06c0-.82-.22-1.47-.65-1.95-.43-.48-1.15-.72-2.16-.72-.95,0-1.7.2-2.26.61-.56.41-1.02.87-1.39,1.39l-2.84-2.53c.69-1.01,1.55-1.81,2.59-2.38,1.04-.57,2.45-.86,4.24-.86,2.41,0,4.21.53,5.41,1.58,1.2,1.05,1.81,2.59,1.81,4.61v7.41h1.58v3.71h-2.64ZM159.3,607.76c.79,0,1.48-.17,2.05-.51.57-.34.85-.9.85-1.66v-1.98h-2.32c-1.87,0-2.8.63-2.8,1.89v.48c0,.62.19,1.07.58,1.36s.93.43,1.64.43Z"/>
    <path class="cls-4" d="M170.45,610.7v-16.92h4.77v3.67h.16c.09-.47.24-.93.45-1.37s.5-.83.85-1.18c.35-.34.78-.62,1.27-.82.49-.2,1.07-.31,1.74-.31h.84v4.45h-1.19c-1.4,0-2.43.18-3.11.55-.68.37-1.02,1.04-1.02,2.03v9.9h-4.77Z"/>
    <path class="cls-4" d="M194.24,610.7c-.86,0-1.57-.27-2.14-.81-.57-.54-.93-1.26-1.08-2.16h-.19c-.26,1.1-.83,1.93-1.71,2.5-.88.57-1.97.85-3.26.85-1.7,0-3-.45-3.9-1.35-.9-.9-1.35-2.09-1.35-3.57,0-1.78.65-3.1,1.95-3.97,1.3-.87,3.07-1.3,5.3-1.3h2.68v-1.06c0-.82-.22-1.47-.65-1.95-.43-.48-1.15-.72-2.16-.72-.95,0-1.7.2-2.26.61-.56.41-1.02.87-1.39,1.39l-2.84-2.53c.69-1.01,1.55-1.81,2.59-2.38,1.04-.57,2.45-.86,4.24-.86,2.41,0,4.21.53,5.41,1.58,1.2,1.05,1.81,2.59,1.81,4.61v7.41h1.58v3.71h-2.64ZM187.63,607.76c.79,0,1.48-.17,2.05-.51.57-.34.85-.9.85-1.66v-1.98h-2.32c-1.87,0-2.8.63-2.8,1.89v.48c0,.62.19,1.07.58,1.36s.93.43,1.64.43Z"/>
    <path class="cls-4" d="M215.48,607.86h-.16c-.13.45-.33.88-.61,1.27-.28.4-.62.74-1.02,1.03s-.85.52-1.35.68c-.5.16-1.03.24-1.56.24-2.15,0-3.77-.76-4.87-2.27s-1.64-3.71-1.64-6.59.55-5.07,1.64-6.58,2.72-2.26,4.87-2.26c1.1,0,2.07.3,2.92.9.85.6,1.39,1.38,1.63,2.32h.16v-9.77h4.77v23.85h-4.77v-2.84ZM212.35,607.21c.9,0,1.65-.22,2.24-.66.59-.44.89-1.05.89-1.82v-5c0-.77-.3-1.38-.89-1.82-.59-.44-1.34-.66-2.24-.66s-1.65.32-2.24.95c-.59.63-.89,1.49-.89,2.56v2.93c0,1.07.29,1.93.89,2.56.59.63,1.34.95,2.24.95Z"/>
    <path class="cls-4" d="M230.46,611.08c-1.29,0-2.44-.21-3.45-.63-1.01-.42-1.86-1.01-2.56-1.77-.7-.76-1.22-1.69-1.58-2.79-.35-1.1-.53-2.32-.53-3.67s.17-2.54.52-3.63c.34-1.08.85-2.01,1.53-2.79.68-.77,1.51-1.37,2.5-1.79.99-.42,2.12-.63,3.38-.63,1.4,0,2.59.24,3.59.71,1,.47,1.82,1.11,2.45,1.9.63.79,1.1,1.71,1.39,2.76.29,1.04.44,2.13.44,3.27v1.42h-10.86v.26c0,1.11.3,1.99.9,2.64.6.65,1.55.97,2.84.97.99,0,1.79-.2,2.42-.59.62-.39,1.2-.87,1.74-1.42l2.39,2.97c-.75.88-1.74,1.57-2.95,2.07-1.21.5-2.59.74-4.14.74ZM230.37,596.9c-.97,0-1.72.32-2.27.95-.55.63-.82,1.48-.82,2.53v.26h5.93v-.29c0-1.03-.23-1.86-.69-2.5-.46-.63-1.18-.95-2.14-.95Z"/>
    <path class="cls-4" d="M245.97,611.08c-1.63,0-3.01-.26-4.12-.79-1.12-.53-2.12-1.27-3-2.24l2.8-2.84c.6.67,1.27,1.19,2,1.58s1.56.58,2.48.58,1.6-.14,1.97-.43c.36-.29.55-.68.55-1.18,0-.79-.57-1.27-1.71-1.42l-1.84-.23c-3.8-.47-5.71-2.21-5.71-5.22,0-.82.16-1.56.47-2.24s.75-1.26,1.32-1.74,1.26-.86,2.06-1.13,1.71-.4,2.72-.4c.88,0,1.66.06,2.34.18s1.28.29,1.8.52,1.01.5,1.45.84c.44.33.88.7,1.3,1.11l-2.74,2.8c-.54-.54-1.14-.96-1.82-1.27-.68-.31-1.37-.47-2.08-.47-.82,0-1.4.13-1.74.39s-.52.6-.52,1.03c0,.45.12.8.37,1.05.25.25.71.42,1.4.53l1.9.26c3.72.5,5.58,2.19,5.58,5.09,0,.82-.17,1.57-.52,2.26s-.83,1.28-1.47,1.79c-.63.51-1.4.9-2.29,1.18s-1.89.42-2.98.42Z"/>
    <path class="cls-4" d="M267.69,610.7c-.86,0-1.57-.27-2.14-.81-.57-.54-.93-1.26-1.08-2.16h-.19c-.26,1.1-.83,1.93-1.71,2.5-.88.57-1.97.85-3.26.85-1.7,0-3-.45-3.9-1.35-.9-.9-1.35-2.09-1.35-3.57,0-1.78.65-3.1,1.95-3.97,1.3-.87,3.07-1.3,5.3-1.3h2.68v-1.06c0-.82-.21-1.47-.64-1.95-.43-.48-1.15-.72-2.16-.72-.95,0-1.7.2-2.26.61s-1.02.87-1.39,1.39l-2.84-2.53c.69-1.01,1.55-1.81,2.59-2.38s2.46-.86,4.24-.86c2.41,0,4.21.53,5.42,1.58,1.2,1.05,1.81,2.59,1.81,4.61v7.41h1.58v3.71h-2.64ZM261.08,607.76c.79,0,1.48-.17,2.05-.51.57-.34.85-.9.85-1.66v-1.98h-2.32c-1.87,0-2.8.63-2.8,1.89v.48c0,.62.19,1.07.58,1.36s.93.43,1.64.43Z"/>
    <path class="cls-4" d="M272.23,610.7v-16.92h4.77v3.67h.16c.09-.47.24-.93.45-1.37s.5-.83.85-1.18c.35-.34.78-.62,1.27-.82.49-.2,1.07-.31,1.74-.31h.84v4.45h-1.19c-1.4,0-2.43.18-3.11.55s-1.02,1.04-1.02,2.03v9.9h-4.77Z"/>
    <path class="cls-4" d="M283.97,610.7v-16.92h4.77v3.67h.16c.09-.47.24-.93.45-1.37s.5-.83.85-1.18c.35-.34.78-.62,1.27-.82.49-.2,1.07-.31,1.74-.31h.84v4.45h-1.19c-1.4,0-2.43.18-3.11.55s-1.02,1.04-1.02,2.03v9.9h-4.77Z"/>
    <path class="cls-4" d="M302.4,611.08c-1.25,0-2.36-.2-3.34-.61s-1.8-1-2.48-1.77-1.2-1.71-1.56-2.8-.55-2.32-.55-3.67.18-2.58.55-3.67.89-2.03,1.56-2.79,1.5-1.35,2.48-1.76c.98-.41,2.09-.61,3.34-.61s2.36.21,3.34.61c.98.41,1.81.99,2.48,1.76s1.2,1.69,1.56,2.79c.37,1.1.55,2.32.55,3.67s-.18,2.58-.55,3.67c-.37,1.1-.89,2.03-1.56,2.8s-1.5,1.36-2.48,1.77-2.09.61-3.34.61ZM302.4,607.31c.95,0,1.68-.29,2.19-.87s.77-1.41.77-2.48v-3.45c0-1.07-.26-1.9-.77-2.48s-1.25-.87-2.19-.87-1.68.29-2.19.87-.77,1.41-.77,2.48v3.45c0,1.07.26,1.9.77,2.48s1.25.87,2.19.87Z"/>
    <path class="cls-4" d="M317.17,610.7c-1.63,0-2.83-.4-3.59-1.19s-1.14-1.94-1.14-3.45v-19.21h4.77v20.14h2.13v3.71h-2.16Z"/>
    <path class="cls-4" d="M325.39,610.7c-1.63,0-2.83-.4-3.59-1.19s-1.14-1.94-1.14-3.45v-19.21h4.77v20.14h2.13v3.71h-2.16Z"/>
    <path class="cls-4" d="M341.63,610.7c-.86,0-1.57-.27-2.14-.81-.57-.54-.93-1.26-1.08-2.16h-.19c-.26,1.1-.83,1.93-1.71,2.5-.88.57-1.97.85-3.26.85-1.7,0-3-.45-3.9-1.35-.9-.9-1.35-2.09-1.35-3.57,0-1.78.65-3.1,1.95-3.97,1.3-.87,3.07-1.3,5.3-1.3h2.68v-1.06c0-.82-.21-1.47-.64-1.95-.43-.48-1.15-.72-2.16-.72-.95,0-1.7.2-2.26.61s-1.02.87-1.39,1.39l-2.84-2.53c.69-1.01,1.55-1.81,2.59-2.38s2.46-.86,4.24-.86c2.41,0,4.21.53,5.42,1.58,1.2,1.05,1.81,2.59,1.81,4.61v7.41h1.58v3.71h-2.64ZM335.02,607.76c.79,0,1.48-.17,2.05-.51.57-.34.85-.9.85-1.66v-1.98h-2.32c-1.87,0-2.8.63-2.8,1.89v.48c0,.62.19,1.07.58,1.36s.93.43,1.64.43Z"/>
    <path class="cls-4" d="M346.17,610.7v-16.92h4.77v3.67h.16c.09-.47.24-.93.45-1.37s.5-.83.85-1.18c.35-.34.78-.62,1.27-.82.49-.2,1.07-.31,1.74-.31h.84v4.45h-1.19c-1.4,0-2.43.18-3.11.55s-1.02,1.04-1.02,2.03v9.9h-4.77Z"/>
    <path class="cls-4" d="M69.65,645.01c-1.66,0-2.91-.42-3.76-1.26-.85-.84-1.27-2.06-1.27-3.67v-8.28h-2.39v-3.71h1.19c.64,0,1.08-.16,1.32-.47.24-.31.35-.76.35-1.34v-2.77h4.29v4.58h3.35v3.71h-3.35v9.51h3.09v3.71h-2.84Z"/>
    <path class="cls-4" d="M81.7,645.4c-1.29,0-2.44-.21-3.45-.63-1.01-.42-1.86-1.01-2.56-1.77-.7-.76-1.22-1.69-1.58-2.79-.35-1.1-.53-2.32-.53-3.67s.17-2.54.52-3.63c.34-1.08.85-2.01,1.53-2.79.68-.77,1.51-1.37,2.5-1.79.99-.42,2.12-.63,3.38-.63,1.4,0,2.59.24,3.59.71,1,.47,1.82,1.11,2.45,1.9.63.79,1.1,1.71,1.39,2.76s.44,2.13.44,3.27v1.42h-10.86v.26c0,1.11.3,1.99.9,2.64.6.65,1.55.97,2.84.97.99,0,1.79-.2,2.42-.59.62-.39,1.2-.87,1.74-1.42l2.39,2.97c-.75.88-1.74,1.57-2.95,2.07-1.21.5-2.59.74-4.14.74ZM81.6,631.22c-.97,0-1.72.32-2.27.95-.55.63-.82,1.48-.82,2.53v.26h5.93v-.29c0-1.03-.23-1.86-.69-2.5-.46-.63-1.18-.95-2.14-.95Z"/>
    <path class="cls-4" d="M98.3,645.4c-1.27,0-2.4-.21-3.38-.63-.99-.42-1.82-1.01-2.48-1.77-.67-.76-1.17-1.69-1.51-2.79-.34-1.1-.52-2.32-.52-3.67s.17-2.57.52-3.66c.34-1.08.85-2.01,1.51-2.79.67-.77,1.49-1.36,2.48-1.77.99-.41,2.12-.61,3.38-.61,1.72,0,3.15.39,4.3,1.16,1.15.77,1.97,1.86,2.47,3.26l-3.87,1.68c-.15-.64-.46-1.19-.93-1.64-.47-.45-1.13-.68-1.97-.68-.97,0-1.7.32-2.19.95-.49.63-.74,1.49-.74,2.56v3.16c0,1.07.25,1.92.74,2.55.49.62,1.23.93,2.19.93.86,0,1.54-.23,2.05-.69.5-.46.88-1.07,1.11-1.82l3.71,1.61c-.56,1.61-1.42,2.79-2.59,3.55-1.17.75-2.59,1.13-4.27,1.13Z"/>
    <path class="cls-4" d="M106.84,645.01v-16.92h4.77v2.87h.19c.3-.88.83-1.64,1.58-2.29.75-.64,1.79-.97,3.13-.97,1.74,0,3.06.58,3.95,1.74.89,1.16,1.34,2.81,1.34,4.96v10.6h-4.77v-10.22c0-1.1-.17-1.91-.52-2.43-.34-.53-.96-.79-1.84-.79-.39,0-.76.05-1.13.14-.37.1-.69.25-.98.47-.29.21-.52.48-.69.79s-.26.67-.26,1.08v10.96h-4.77Z"/>
    <path class="cls-4" d="M131.63,645.4c-1.25,0-2.36-.2-3.34-.61-.98-.41-1.81-1-2.48-1.77s-1.2-1.71-1.56-2.8c-.37-1.1-.55-2.32-.55-3.67s.18-2.58.55-3.67c.36-1.1.89-2.03,1.56-2.79s1.5-1.35,2.48-1.76c.98-.41,2.09-.61,3.34-.61s2.36.21,3.34.61c.98.41,1.81.99,2.48,1.76s1.2,1.69,1.56,2.79c.37,1.1.55,2.32.55,3.67s-.18,2.58-.55,3.67c-.37,1.1-.89,2.03-1.56,2.8s-1.5,1.36-2.48,1.77c-.98.41-2.09.61-3.34.61ZM131.63,641.63c.95,0,1.68-.29,2.19-.87.52-.58.77-1.41.77-2.48v-3.45c0-1.07-.26-1.9-.77-2.48-.52-.58-1.25-.87-2.19-.87s-1.68.29-2.19.87-.77,1.41-.77,2.48v3.45c0,1.07.26,1.9.77,2.48s1.25.87,2.19.87Z"/>
    <path class="cls-4" d="M146.39,645.01c-1.63,0-2.83-.4-3.59-1.19-.76-.79-1.14-1.94-1.14-3.45v-19.21h4.77v20.14h2.13v3.71h-2.16Z"/>
    <path class="cls-4" d="M156.99,645.4c-1.25,0-2.36-.2-3.34-.61-.98-.41-1.81-1-2.48-1.77s-1.2-1.71-1.56-2.8c-.37-1.1-.55-2.32-.55-3.67s.18-2.58.55-3.67c.36-1.1.89-2.03,1.56-2.79s1.5-1.35,2.48-1.76c.98-.41,2.09-.61,3.34-.61s2.36.21,3.34.61c.98.41,1.81.99,2.48,1.76s1.2,1.69,1.56,2.79c.37,1.1.55,2.32.55,3.67s-.18,2.58-.55,3.67c-.37,1.1-.89,2.03-1.56,2.8s-1.5,1.36-2.48,1.77c-.98.41-2.09.61-3.34.61ZM156.99,641.63c.95,0,1.68-.29,2.19-.87.52-.58.77-1.41.77-2.48v-3.45c0-1.07-.26-1.9-.77-2.48-.52-.58-1.25-.87-2.19-.87s-1.68.29-2.19.87-.77,1.41-.77,2.48v3.45c0,1.07.26,1.9.77,2.48s1.25.87,2.19.87Z"/>
    <path class="cls-4" d="M182.68,646.24c0,.9-.16,1.7-.47,2.39-.31.69-.82,1.27-1.53,1.76s-1.65.85-2.82,1.1c-1.17.25-2.62.37-4.33.37-1.46,0-2.7-.09-3.72-.27-1.02-.18-1.85-.44-2.48-.77-.63-.33-1.1-.74-1.39-1.22s-.44-1.04-.44-1.66c0-.95.28-1.69.84-2.22s1.33-.87,2.32-1v-.35c-.82-.15-1.43-.5-1.84-1.05-.41-.55-.61-1.19-.61-1.92,0-.45.09-.84.27-1.18.18-.33.42-.62.71-.87.29-.25.63-.45,1.02-.6s.77-.27,1.16-.36v-.13c-1.03-.47-1.79-1.12-2.29-1.95-.49-.83-.74-1.79-.74-2.88,0-1.72.6-3.1,1.79-4.14,1.19-1.04,3.01-1.56,5.46-1.56,1.12,0,2.07.11,2.87.32v-.64c0-.9.22-1.55.66-1.95.44-.4,1.07-.6,1.89-.6h2.67v3.54h-3.74v.19c.99.47,1.72,1.12,2.19,1.95.47.83.71,1.79.71,2.88,0,1.7-.6,3.06-1.79,4.08-1.19,1.02-3.01,1.53-5.46,1.53-1.1,0-2.1-.12-3-.35-.49.32-.74.77-.74,1.35,0,.41.16.73.47.95.31.23.83.34,1.56.34h4.9c2.06,0,3.56.43,4.5,1.29.94.86,1.4,2.07,1.4,3.64ZM178.2,646.88c0-.49-.19-.87-.58-1.13s-1.06-.39-2.03-.39h-5.8c-.22.21-.37.46-.47.73-.1.27-.15.53-.15.79,0,.62.27,1.08.81,1.37.54.29,1.45.44,2.74.44h1.93c1.29,0,2.2-.15,2.74-.44s.81-.75.81-1.37ZM173.59,635.86c.95,0,1.65-.2,2.11-.59s.69-.97.69-1.71v-.38c0-.75-.23-1.32-.69-1.71-.46-.4-1.17-.59-2.11-.59s-1.65.2-2.11.59c-.46.39-.69.97-.69,1.71v.38c0,.75.23,1.32.69,1.71.46.39,1.17.59,2.11.59Z"/>
    <path class="cls-4" d="M183.52,645.01v-16.92h4.77v16.92h-4.77ZM186.45,626.35l-2.84-1.39,3.19-6.25,3.96,1.97-4.32,5.67Z"/>
    <path class="cls-4" d="M203.95,645.01c-.86,0-1.57-.27-2.14-.81-.57-.54-.93-1.26-1.08-2.16h-.19c-.26,1.1-.83,1.93-1.71,2.5-.88.57-1.97.85-3.26.85-1.7,0-3-.45-3.9-1.35-.9-.9-1.35-2.09-1.35-3.57,0-1.78.65-3.1,1.95-3.97,1.3-.87,3.07-1.3,5.3-1.3h2.68v-1.06c0-.82-.22-1.47-.65-1.95-.43-.48-1.15-.72-2.16-.72-.95,0-1.7.2-2.26.61-.56.41-1.02.87-1.39,1.39l-2.84-2.53c.69-1.01,1.55-1.81,2.59-2.38,1.04-.57,2.45-.86,4.24-.86,2.41,0,4.21.53,5.41,1.58,1.2,1.05,1.81,2.59,1.81,4.61v7.41h1.58v3.71h-2.64ZM197.35,642.08c.79,0,1.48-.17,2.05-.51.57-.34.85-.9.85-1.66v-1.98h-2.32c-1.87,0-2.8.63-2.8,1.89v.48c0,.62.19,1.07.58,1.36s.93.43,1.64.43Z"/>
    <path class="cls-4" d="M221.65,645.4c-1.27,0-2.4-.21-3.38-.63-.99-.42-1.82-1.01-2.48-1.77-.67-.76-1.17-1.69-1.51-2.79-.34-1.1-.52-2.32-.52-3.67s.17-2.57.52-3.66c.34-1.08.85-2.01,1.51-2.79.67-.77,1.49-1.36,2.48-1.77.99-.41,2.12-.61,3.38-.61,1.72,0,3.15.39,4.3,1.16,1.15.77,1.97,1.86,2.47,3.26l-3.87,1.68c-.15-.64-.46-1.19-.93-1.64-.47-.45-1.13-.68-1.97-.68-.97,0-1.7.32-2.19.95-.49.63-.74,1.49-.74,2.56v3.16c0,1.07.25,1.92.74,2.55.49.62,1.23.93,2.19.93.86,0,1.54-.23,2.05-.69.5-.46.88-1.07,1.11-1.82l3.71,1.61c-.56,1.61-1.42,2.79-2.59,3.55-1.17.75-2.59,1.13-4.27,1.13Z"/>
    <path class="cls-4" d="M236.89,645.4c-1.25,0-2.36-.2-3.34-.61-.98-.41-1.81-1-2.48-1.77s-1.2-1.71-1.56-2.8c-.37-1.1-.55-2.32-.55-3.67s.18-2.58.55-3.67c.36-1.1.89-2.03,1.56-2.79s1.5-1.35,2.48-1.76c.98-.41,2.09-.61,3.34-.61s2.36.21,3.34.61c.98.41,1.8.99,2.48,1.76.68.76,1.2,1.69,1.56,2.79s.55,2.32.55,3.67-.18,2.58-.55,3.67-.89,2.03-1.56,2.8c-.68.77-1.51,1.36-2.48,1.77-.98.41-2.09.61-3.34.61ZM236.89,641.63c.95,0,1.68-.29,2.19-.87s.77-1.41.77-2.48v-3.45c0-1.07-.26-1.9-.77-2.48s-1.25-.87-2.19-.87-1.68.29-2.19.87-.77,1.41-.77,2.48v3.45c0,1.07.26,1.9.77,2.48s1.25.87,2.19.87Z"/>
    <path class="cls-4" d="M246.92,645.01v-16.92h4.77v2.87h.19c.3-.88.83-1.64,1.58-2.29s1.79-.97,3.13-.97c1.74,0,3.06.58,3.95,1.74.89,1.16,1.34,2.81,1.34,4.96v10.6h-4.77v-10.22c0-1.1-.17-1.91-.52-2.43-.34-.53-.96-.79-1.84-.79-.39,0-.76.05-1.13.14s-.69.25-.98.47-.52.48-.69.79-.26.67-.26,1.08v10.96h-4.77Z"/>
    <path class="cls-4" d="M281.15,642.18h-.16c-.15.43-.35.84-.6,1.22s-.56.73-.95,1.03-.84.54-1.37.71-1.13.26-1.82.26c-1.74,0-3.06-.57-3.95-1.72-.89-1.15-1.34-2.8-1.34-4.95v-10.64h4.77v10.22c0,1.03.18,1.83.55,2.38.37.56.99.84,1.87.84.37,0,.73-.05,1.1-.16.37-.11.69-.26.97-.47s.5-.46.68-.76c.17-.3.26-.66.26-1.06v-10.99h4.77v16.92h-4.77v-2.84Z"/>
    <path class="cls-4" d="M289.08,645.01v-16.92h4.77v2.87h.19c.3-.88.83-1.64,1.58-2.29s1.79-.97,3.13-.97c1.74,0,3.06.58,3.95,1.74.89,1.16,1.34,2.81,1.34,4.96v10.6h-4.77v-10.22c0-1.1-.17-1.91-.52-2.43-.34-.53-.96-.79-1.84-.79-.39,0-.76.05-1.13.14s-.69.25-.98.47-.52.48-.69.79-.26.67-.26,1.08v10.96h-4.77Z"/>
    <path class="cls-4" d="M320.37,645.4c-1.29,0-2.44-.21-3.45-.63-1.01-.42-1.86-1.01-2.56-1.77s-1.22-1.69-1.58-2.79-.53-2.32-.53-3.67.17-2.54.52-3.63.85-2.01,1.53-2.79c.68-.77,1.51-1.37,2.5-1.79s2.12-.63,3.38-.63c1.4,0,2.59.24,3.59.71,1,.47,1.82,1.11,2.45,1.9s1.1,1.71,1.39,2.76.44,2.13.44,3.27v1.42h-10.86v.26c0,1.11.3,1.99.9,2.64.6.65,1.55.97,2.84.97.99,0,1.79-.2,2.42-.59s1.2-.87,1.74-1.42l2.39,2.97c-.75.88-1.74,1.57-2.95,2.07-1.21.5-2.59.74-4.14.74ZM320.28,631.22c-.97,0-1.72.32-2.27.95-.55.63-.82,1.48-.82,2.53v.26h5.93v-.29c0-1.03-.23-1.86-.69-2.5-.46-.63-1.18-.95-2.14-.95Z"/>
    <path class="cls-4" d="M330.14,645.01v-16.92h4.77v2.87h.19c.3-.88.83-1.64,1.58-2.29s1.79-.97,3.13-.97c1.74,0,3.06.58,3.95,1.74.89,1.16,1.34,2.81,1.34,4.96v10.6h-4.77v-10.22c0-1.1-.17-1.91-.52-2.43-.34-.53-.96-.79-1.84-.79-.39,0-.76.05-1.13.14s-.69.25-.98.47-.52.48-.69.79-.26.67-.26,1.08v10.96h-4.77Z"/>
    <path class="cls-4" d="M348.9,631.8h-2.38v-3.71h2.38v-2c0-1.63.43-2.86,1.29-3.69.86-.83,2.12-1.24,3.77-1.24h3.09v3.71h-3.38v3.22h3.38v3.71h-3.38v13.21h-4.77v-13.21Z"/>
    <path class="cls-4" d="M365.14,645.4c-1.25,0-2.36-.2-3.34-.61s-1.8-1-2.48-1.77-1.2-1.71-1.56-2.8-.55-2.32-.55-3.67.18-2.58.55-3.67.89-2.03,1.56-2.79,1.5-1.35,2.48-1.76c.98-.41,2.09-.61,3.34-.61s2.36.21,3.34.61c.98.41,1.81.99,2.48,1.76s1.2,1.69,1.56,2.79c.37,1.1.55,2.32.55,3.67s-.18,2.58-.55,3.67c-.37,1.1-.89,2.03-1.56,2.8s-1.5,1.36-2.48,1.77-2.09.61-3.34.61ZM365.14,641.63c.95,0,1.68-.29,2.19-.87s.77-1.41.77-2.48v-3.45c0-1.07-.26-1.9-.77-2.48s-1.25-.87-2.19-.87-1.68.29-2.19.87-.77,1.41-.77,2.48v3.45c0,1.07.26,1.9.77,2.48s1.25.87,2.19.87Z"/>
    <path class="cls-4" d="M385.55,642.18h-.16c-.13.45-.33.88-.61,1.27-.28.4-.62.74-1.02,1.03s-.85.52-1.35.68c-.5.16-1.03.24-1.56.24-2.15,0-3.77-.76-4.87-2.27-1.1-1.51-1.64-3.71-1.64-6.59s.55-5.07,1.64-6.58c1.1-1.5,2.72-2.26,4.87-2.26,1.1,0,2.07.3,2.92.9.85.6,1.39,1.38,1.63,2.32h.16v-2.84h4.77v23.37h-4.77v-9.28ZM382.42,641.53c.9,0,1.65-.22,2.24-.66s.89-1.05.89-1.82v-5c0-.77-.3-1.38-.89-1.82-.59-.44-1.34-.66-2.24-.66s-1.65.32-2.24.95c-.59.63-.89,1.49-.89,2.56v2.93c0,1.07.29,1.93.89,2.56.59.63,1.34.95,2.24.95Z"/>
    <path class="cls-4" d="M403.47,642.18h-.16c-.15.43-.35.84-.6,1.22s-.56.73-.95,1.03-.84.54-1.37.71-1.13.26-1.82.26c-1.74,0-3.06-.57-3.95-1.72-.89-1.15-1.34-2.8-1.34-4.95v-10.64h4.77v10.22c0,1.03.18,1.83.55,2.38.37.56.99.84,1.87.84.37,0,.73-.05,1.1-.16.37-.11.69-.26.97-.47s.5-.46.68-.76c.17-.3.26-.66.26-1.06v-10.99h4.77v16.92h-4.77v-2.84Z"/>
    <path class="cls-4" d="M418.45,645.4c-1.29,0-2.44-.21-3.45-.63-1.01-.42-1.86-1.01-2.56-1.77s-1.22-1.69-1.58-2.79-.53-2.32-.53-3.67.17-2.54.52-3.63.85-2.01,1.53-2.79c.68-.77,1.51-1.37,2.5-1.79s2.12-.63,3.38-.63c1.4,0,2.59.24,3.59.71,1,.47,1.82,1.11,2.45,1.9s1.1,1.71,1.39,2.76.44,2.13.44,3.27v1.42h-10.86v.26c0,1.11.3,1.99.9,2.64.6.65,1.55.97,2.84.97.99,0,1.79-.2,2.42-.59s1.2-.87,1.74-1.42l2.39,2.97c-.75.88-1.74,1.57-2.95,2.07-1.21.5-2.59.74-4.14.74ZM418.36,631.22c-.97,0-1.72.32-2.27.95-.55.63-.82,1.48-.82,2.53v.26h5.93v-.29c0-1.03-.23-1.86-.69-2.5-.46-.63-1.18-.95-2.14-.95Z"/>
    <path class="cls-4" d="M145.74,679.72c-1.63,0-3.01-.26-4.13-.79-1.12-.53-2.12-1.27-3-2.24l2.8-2.84c.6.67,1.27,1.19,2,1.58.73.39,1.56.58,2.48.58s1.6-.14,1.97-.43c.37-.29.55-.68.55-1.18,0-.79-.57-1.27-1.71-1.42l-1.84-.23c-3.8-.47-5.71-2.21-5.71-5.22,0-.82.16-1.56.47-2.24.31-.68.75-1.26,1.32-1.74.57-.48,1.26-.86,2.06-1.13.81-.27,1.71-.4,2.72-.4.88,0,1.66.06,2.34.18.68.12,1.28.29,1.81.52.53.23,1.01.5,1.45.84s.88.7,1.31,1.11l-2.74,2.8c-.54-.54-1.14-.96-1.82-1.27-.68-.31-1.37-.47-2.08-.47-.82,0-1.4.13-1.74.39-.34.26-.52.6-.52,1.03,0,.45.12.8.37,1.05.25.25.71.42,1.4.53l1.9.26c3.72.5,5.58,2.19,5.58,5.09,0,.82-.17,1.57-.52,2.26-.34.69-.83,1.28-1.47,1.79-.63.51-1.4.9-2.29,1.18s-1.89.42-2.98.42Z"/>
    <path class="cls-4" d="M161.83,679.72c-1.25,0-2.36-.2-3.34-.61-.98-.41-1.81-1-2.48-1.77s-1.2-1.71-1.56-2.8c-.37-1.1-.55-2.32-.55-3.67s.18-2.58.55-3.67c.36-1.1.89-2.03,1.56-2.79s1.5-1.35,2.48-1.76c.98-.41,2.09-.61,3.34-.61s2.36.21,3.34.61c.98.41,1.81.99,2.48,1.76s1.2,1.69,1.56,2.79c.37,1.1.55,2.32.55,3.67s-.18,2.58-.55,3.67c-.37,1.1-.89,2.03-1.56,2.8s-1.5,1.36-2.48,1.77c-.98.41-2.09.61-3.34.61ZM161.83,675.95c.95,0,1.68-.29,2.19-.87.52-.58.77-1.41.77-2.48v-3.45c0-1.07-.26-1.9-.77-2.48-.52-.58-1.25-.87-2.19-.87s-1.68.29-2.19.87-.77,1.41-.77,2.48v3.45c0,1.07.26,1.9.77,2.48s1.25.87,2.19.87Z"/>
    <path class="cls-4" d="M178.68,679.72c-1.27,0-2.4-.21-3.38-.63-.99-.42-1.82-1.01-2.48-1.77-.67-.76-1.17-1.69-1.51-2.79-.34-1.1-.52-2.32-.52-3.67s.17-2.57.52-3.66c.34-1.08.85-2.01,1.51-2.79.67-.77,1.49-1.36,2.48-1.77.99-.41,2.12-.61,3.38-.61,1.72,0,3.15.39,4.3,1.16,1.15.77,1.97,1.86,2.47,3.26l-3.87,1.68c-.15-.64-.46-1.19-.93-1.64-.47-.45-1.13-.68-1.97-.68-.97,0-1.7.32-2.19.95-.49.63-.74,1.49-.74,2.56v3.16c0,1.07.25,1.92.74,2.55.49.62,1.23.93,2.19.93.86,0,1.54-.23,2.05-.69.5-.46.88-1.07,1.11-1.82l3.71,1.61c-.56,1.61-1.42,2.79-2.59,3.55-1.17.75-2.59,1.13-4.27,1.13Z"/>
    <path class="cls-4" d="M189.61,660.6c-.97,0-1.67-.22-2.11-.66-.44-.44-.66-1-.66-1.69v-.71c0-.69.22-1.25.66-1.69.44-.44,1.14-.66,2.11-.66s1.67.22,2.11.66.66,1,.66,1.69v.71c0,.69-.22,1.25-.66,1.69-.44.44-1.14.66-2.11.66ZM187.23,662.41h4.77v16.92h-4.77v-16.92Z"/>
    <path class="cls-4" d="M207.66,679.33c-.86,0-1.57-.27-2.14-.81-.57-.54-.93-1.26-1.08-2.16h-.19c-.26,1.1-.83,1.93-1.71,2.5-.88.57-1.97.85-3.26.85-1.7,0-3-.45-3.9-1.35-.9-.9-1.35-2.09-1.35-3.57,0-1.78.65-3.1,1.95-3.97,1.3-.87,3.07-1.3,5.3-1.3h2.68v-1.06c0-.82-.22-1.47-.65-1.95-.43-.48-1.15-.72-2.16-.72-.95,0-1.7.2-2.26.61-.56.41-1.02.87-1.39,1.39l-2.84-2.53c.69-1.01,1.55-1.81,2.59-2.38,1.04-.57,2.45-.86,4.24-.86,2.41,0,4.21.53,5.41,1.58,1.2,1.05,1.81,2.59,1.81,4.61v7.41h1.58v3.71h-2.64ZM201.05,676.4c.79,0,1.48-.17,2.05-.51.57-.34.85-.9.85-1.66v-1.98h-2.32c-1.87,0-2.8.63-2.8,1.89v.48c0,.62.19,1.07.58,1.36s.93.43,1.64.43Z"/>
    <path class="cls-4" d="M216.94,679.33c-1.63,0-2.83-.4-3.59-1.19-.76-.79-1.14-1.94-1.14-3.45v-19.21h4.77v20.14h2.13v3.71h-2.16Z"/>
    <path class="cls-4" d="M237.35,662.41h4.45l-6.51,19.53c-.43,1.31-1.04,2.28-1.82,2.9-.78.62-1.91.93-3.37.93h-2.97v-3.71h3.19l.58-1.87-5.93-17.79h4.74l2.48,7.9,1.23,4.9h.19l1.26-4.9,2.48-7.9Z"/>
    <path class="cls-4" d="M249.24,662.41h4.77v2.84h.16c.24-.95.78-1.72,1.63-2.32.85-.6,1.82-.9,2.92-.9,2.15,0,3.77.75,4.87,2.26,1.1,1.5,1.64,3.7,1.64,6.58s-.55,5.08-1.64,6.59c-1.1,1.51-2.72,2.27-4.87,2.27-.56,0-1.08-.08-1.58-.24-.5-.16-.94-.39-1.34-.68-.4-.29-.74-.63-1.02-1.03-.28-.4-.48-.82-.61-1.27h-.16v9.28h-4.77v-23.37ZM257.14,675.85c.9,0,1.65-.32,2.24-.95s.89-1.49.89-2.56v-2.93c0-1.07-.3-1.93-.89-2.56s-1.34-.95-2.24-.95-1.65.22-2.24.66c-.59.44-.89,1.05-.89,1.82v5c0,.77.29,1.38.89,1.82.59.44,1.34.66,2.24.66Z"/>
    <path class="cls-4" d="M274.41,679.72c-1.25,0-2.36-.2-3.34-.61s-1.8-1-2.48-1.77-1.2-1.71-1.56-2.8-.55-2.32-.55-3.67.18-2.58.55-3.67.89-2.03,1.56-2.79,1.5-1.35,2.48-1.76c.98-.41,2.09-.61,3.34-.61s2.36.21,3.34.61c.98.41,1.81.99,2.48,1.76s1.2,1.69,1.56,2.79c.37,1.1.55,2.32.55,3.67s-.18,2.58-.55,3.67c-.37,1.1-.89,2.03-1.56,2.8s-1.5,1.36-2.48,1.77-2.09.61-3.34.61ZM274.41,675.95c.95,0,1.68-.29,2.19-.87s.77-1.41.77-2.48v-3.45c0-1.07-.26-1.9-.77-2.48s-1.25-.87-2.19-.87-1.68.29-2.19.87-.77,1.41-.77,2.48v3.45c0,1.07.26,1.9.77,2.48s1.25.87,2.19.87Z"/>
    <path class="cls-4" d="M289.17,679.33c-1.63,0-2.83-.4-3.59-1.19s-1.14-1.94-1.14-3.45v-19.21h4.77v20.14h2.13v3.71h-2.16Z"/>
    <path class="cls-4" d="M292.91,679.33v-16.92h4.77v16.92h-4.77ZM295.85,660.67l-2.84-1.39,3.19-6.25,3.96,1.97-4.32,5.67Z"/>
    <path class="cls-4" d="M306.77,679.33c-1.65,0-2.91-.42-3.75-1.26s-1.27-2.06-1.27-3.67v-8.28h-2.38v-3.71h1.19c.64,0,1.08-.16,1.32-.47.24-.31.35-.76.35-1.34v-2.77h4.29v4.58h3.35v3.71h-3.35v9.51h3.09v3.71h-2.84Z"/>
    <path class="cls-4" d="M314.28,660.6c-.97,0-1.67-.22-2.11-.66-.44-.44-.66-1-.66-1.69v-.71c0-.69.22-1.25.66-1.69s1.14-.66,2.11-.66,1.67.22,2.11.66c.44.44.66,1,.66,1.69v.71c0,.69-.22,1.25-.66,1.69s-1.14.66-2.11.66ZM311.9,662.41h4.77v16.92h-4.77v-16.92Z"/>
    <path class="cls-4" d="M326.66,679.72c-1.27,0-2.4-.21-3.38-.63-.99-.42-1.82-1.01-2.48-1.77-.67-.76-1.17-1.69-1.52-2.79s-.52-2.32-.52-3.67.17-2.57.52-3.66.85-2.01,1.52-2.79c.67-.77,1.49-1.36,2.48-1.77.99-.41,2.12-.61,3.38-.61,1.72,0,3.15.39,4.3,1.16,1.15.77,1.97,1.86,2.47,3.26l-3.87,1.68c-.15-.64-.46-1.19-.93-1.64-.47-.45-1.13-.68-1.97-.68-.97,0-1.7.32-2.19.95-.49.63-.74,1.49-.74,2.56v3.16c0,1.07.25,1.92.74,2.55.49.62,1.22.93,2.19.93.86,0,1.54-.23,2.05-.69s.88-1.07,1.11-1.82l3.71,1.61c-.56,1.61-1.42,2.79-2.59,3.55-1.17.75-2.59,1.13-4.27,1.13Z"/>
    <path class="cls-4" d="M341.9,679.72c-1.25,0-2.36-.2-3.34-.61s-1.8-1-2.48-1.77-1.2-1.71-1.56-2.8-.55-2.32-.55-3.67.18-2.58.55-3.67.89-2.03,1.56-2.79,1.5-1.35,2.48-1.76c.98-.41,2.09-.61,3.34-.61s2.36.21,3.34.61c.98.41,1.81.99,2.48,1.76s1.2,1.69,1.56,2.79c.37,1.1.55,2.32.55,3.67s-.18,2.58-.55,3.67c-.37,1.1-.89,2.03-1.56,2.8s-1.5,1.36-2.48,1.77-2.09.61-3.34.61ZM341.9,675.95c.95,0,1.68-.29,2.19-.87s.77-1.41.77-2.48v-3.45c0-1.07-.26-1.9-.77-2.48s-1.25-.87-2.19-.87-1.68.29-2.19.87-.77,1.41-.77,2.48v3.45c0,1.07.26,1.9.77,2.48s1.25.87,2.19.87Z"/>
  </g>
  <line class="cls-2" x1="233.93" y1="98.5" x2="233.93" y2="48.12"/>
  <line class="cls-2" x1="233.93" y1="323.15" x2="233.93" y2="272.77"/>
  <line class="cls-2" x1="233.93" y1="546.89" x2="233.93" y2="496.5"/>
  <g>
    <path class="cls-3" d="M89.58,37.07c-2.43,0-4.62-.39-6.57-1.16s-3.61-1.92-4.98-3.44c-1.37-1.52-2.43-3.42-3.18-5.7-.75-2.28-1.13-4.94-1.13-7.98s.38-5.69,1.13-8.03c.75-2.34,1.81-4.31,3.18-5.9,1.37-1.59,3.03-2.8,4.98-3.62,1.95-.82,4.14-1.23,6.57-1.23,3.32,0,6.06.68,8.21,2.03,2.16,1.35,3.88,3.48,5.19,6.39l-6.73,3.49c-.48-1.51-1.22-2.71-2.23-3.62-1.01-.91-2.49-1.36-4.44-1.36-2.29,0-4.13.74-5.52,2.23-1.39,1.49-2.08,3.65-2.08,6.49v5.75c0,2.84.69,5.01,2.08,6.49,1.39,1.49,3.23,2.23,5.52,2.23,1.92,0,3.45-.52,4.59-1.57,1.15-1.04,1.99-2.3,2.54-3.77l6.37,3.7c-1.33,2.74-3.09,4.85-5.26,6.34-2.17,1.49-4.92,2.23-8.24,2.23Z"/>
    <path class="cls-3" d="M120.18,37.07c-2.36,0-4.52-.39-6.47-1.18-1.95-.79-3.61-1.96-4.98-3.52-1.37-1.56-2.43-3.49-3.18-5.8-.75-2.31-1.13-4.99-1.13-8.03s.38-5.72,1.13-8.03c.75-2.31,1.81-4.24,3.18-5.8,1.37-1.56,3.03-2.73,4.98-3.52,1.95-.79,4.11-1.18,6.47-1.18s4.52.39,6.47,1.18c1.95.79,3.61,1.96,4.98,3.52,1.37,1.56,2.43,3.49,3.18,5.8.75,2.31,1.13,4.99,1.13,8.03s-.38,5.72-1.13,8.03c-.75,2.31-1.81,4.24-3.18,5.8-1.37,1.56-3.03,2.73-4.98,3.52-1.95.79-4.11,1.18-6.47,1.18ZM120.18,30.14c2.36,0,4.2-.77,5.52-2.31,1.32-1.54,1.98-3.75,1.98-6.62v-5.34c0-2.87-.66-5.08-1.98-6.62-1.32-1.54-3.16-2.31-5.52-2.31s-4.2.77-5.52,2.31c-1.32,1.54-1.98,3.75-1.98,6.62v5.34c0,2.88.66,5.08,1.98,6.62,1.32,1.54,3.16,2.31,5.52,2.31Z"/>
    <path class="cls-3" d="M167.2,12.94h-.15l-2.62,5.24-6.98,12.68-6.83-12.63-2.72-5.65h-.15v23.87h-7.34V.62h8.27l8.78,16.79h.1L166.23.62h8.32v35.83h-7.34V12.94Z"/>
    <path class="cls-3" d="M180.39,36.45V.62h16.94c1.68,0,3.18.28,4.52.85,1.33.56,2.47,1.34,3.41,2.34.94.99,1.67,2.2,2.18,3.62.51,1.42.77,2.97.77,4.65s-.26,3.27-.77,4.67c-.51,1.4-1.24,2.6-2.18,3.59-.94.99-2.08,1.77-3.41,2.34-1.33.56-2.84.85-4.52.85h-9.14v12.94h-7.8ZM188.2,16.74h8.21c1.16,0,2.08-.3,2.75-.9.67-.6,1-1.48,1-2.64v-2.26c0-1.16-.33-2.04-1-2.64-.67-.6-1.58-.9-2.75-.9h-8.21v9.34Z"/>
    <path class="cls-3" d="M219.82,36.45h-7.8V.62h16.99c1.64,0,3.13.27,4.47.82,1.33.55,2.47,1.33,3.41,2.34.94,1.01,1.67,2.22,2.18,3.62.51,1.4.77,2.96.77,4.67,0,2.43-.54,4.55-1.62,6.37-1.08,1.81-2.71,3.13-4.9,3.95l7.03,14.07h-8.68l-6.26-13.14h-5.6v13.14ZM228.03,16.74c1.16,0,2.08-.3,2.75-.9.67-.6,1-1.48,1-2.64v-2.26c0-1.16-.33-2.04-1-2.64-.67-.6-1.58-.9-2.75-.9h-8.21v9.34h8.21Z"/>
    <path class="cls-3" d="M258.43,37.07c-2.36,0-4.52-.39-6.47-1.18-1.95-.79-3.61-1.96-4.98-3.52-1.37-1.56-2.43-3.49-3.18-5.8-.75-2.31-1.13-4.99-1.13-8.03s.38-5.72,1.13-8.03c.75-2.31,1.81-4.24,3.18-5.8,1.37-1.56,3.03-2.73,4.98-3.52,1.95-.79,4.11-1.18,6.47-1.18s4.52.39,6.47,1.18c1.95.79,3.61,1.96,4.98,3.52,1.37,1.56,2.43,3.49,3.18,5.8.75,2.31,1.13,4.99,1.13,8.03s-.38,5.72-1.13,8.03c-.75,2.31-1.81,4.24-3.18,5.8-1.37,1.56-3.03,2.73-4.98,3.52-1.95.79-4.11,1.18-6.47,1.18ZM258.43,30.14c2.36,0,4.2-.77,5.52-2.31,1.32-1.54,1.98-3.75,1.98-6.62v-5.34c0-2.87-.66-5.08-1.98-6.62-1.32-1.54-3.16-2.31-5.52-2.31s-4.2.77-5.52,2.31c-1.32,1.54-1.98,3.75-1.98,6.62v5.34c0,2.88.66,5.08,1.98,6.62,1.32,1.54,3.16,2.31,5.52,2.31Z"/>
    <path class="cls-3" d="M305.45,12.94h-.15l-2.62,5.24-6.98,12.68-6.83-12.63-2.72-5.65h-.15v23.87h-7.34V.62h8.27l8.78,16.79h.1l8.68-16.79h8.32v35.83h-7.34V12.94Z"/>
    <path class="cls-3" d="M317.26,36.45v-6.21h4.62V6.83h-4.62V.62h17.04v6.21h-4.62v23.41h4.62v6.21h-17.04Z"/>
    <path class="cls-3" d="M350.37,37.07c-3.15,0-5.82-.54-8.01-1.62-2.19-1.08-4.06-2.48-5.6-4.19l5.13-5.19c2.43,2.71,5.42,4.07,8.98,4.07,1.92,0,3.34-.39,4.26-1.17.92-.78,1.39-1.81,1.39-3.1,0-.98-.27-1.81-.82-2.47-.55-.66-1.66-1.11-3.34-1.35l-3.54-.46c-3.8-.48-6.58-1.63-8.34-3.44-1.76-1.82-2.64-4.23-2.64-7.25,0-1.61.31-3.08.92-4.42s1.5-2.48,2.64-3.44,2.55-1.71,4.21-2.24c1.66-.53,3.55-.8,5.67-.8,2.7,0,5.08.43,7.14,1.29,2.05.86,3.82,2.11,5.29,3.75l-5.19,5.25c-.86-.98-1.89-1.79-3.11-2.41-1.22-.63-2.75-.94-4.59-.94-1.75,0-3.05.3-3.9.91-.86.61-1.28,1.46-1.28,2.54,0,1.22.33,2.1,1,2.64.67.54,1.75.93,3.26,1.17l3.54.57c3.7.58,6.43,1.72,8.21,3.42,1.78,1.7,2.67,4.1,2.67,7.22,0,1.71-.31,3.29-.92,4.73s-1.51,2.67-2.7,3.7c-1.18,1.03-2.64,1.83-4.39,2.39-1.75.56-3.73.85-5.96.85Z"/>
    <path class="cls-3" d="M383.12,37.07c-2.36,0-4.52-.39-6.47-1.18-1.95-.79-3.61-1.96-4.98-3.52-1.37-1.56-2.43-3.49-3.18-5.8-.75-2.31-1.13-4.99-1.13-8.03s.38-5.72,1.13-8.03c.75-2.31,1.81-4.24,3.18-5.8,1.37-1.56,3.03-2.73,4.98-3.52,1.95-.79,4.11-1.18,6.47-1.18s4.52.39,6.47,1.18c1.95.79,3.61,1.96,4.98,3.52,1.37,1.56,2.43,3.49,3.18,5.8.75,2.31,1.13,4.99,1.13,8.03s-.38,5.72-1.13,8.03c-.75,2.31-1.81,4.24-3.18,5.8-1.37,1.56-3.03,2.73-4.98,3.52-1.95.79-4.11,1.18-6.47,1.18ZM383.12,30.14c2.36,0,4.2-.77,5.52-2.31,1.32-1.54,1.98-3.75,1.98-6.62v-5.34c0-2.87-.66-5.08-1.98-6.62-1.32-1.54-3.16-2.31-5.52-2.31s-4.2.77-5.52,2.31c-1.32,1.54-1.98,3.75-1.98,6.62v5.34c0,2.88.66,5.08,1.98,6.62,1.32,1.54,3.16,2.31,5.52,2.31Z"/>
  </g>
  <rect class="cls-1" x="1.03" y="322.67" width="463.98" height="174.87" rx="87.43" ry="87.43"/>
  <rect class="cls-1" x="3.71" y="98.28" width="463.98" height="174.87" rx="87.43" ry="87.43"/>
  <rect class="cls-1" x="7.59" y="546.79" width="463.98" height="174.87" rx="87.43" ry="87.43"/>
</svg>