<?xml version="1.0" encoding="UTF-8"?>
<svg id="Capa_1" xmlns="http://www.w3.org/2000/svg" viewBox="0 0 414.89 928.22">
  <defs>
    <style>
      .cls-1, .cls-2, .cls-3, .cls-4 {
        fill: none;
        stroke-miterlimit: 10;
      }

      .cls-1, .cls-3 {
        stroke-width: 1.63px;
      }

      .cls-1, .cls-4 {
        stroke: #000;
      }

      .cls-2 {
        stroke-width: 1.58px;
      }

      .cls-2, .cls-3 {
        stroke: #1d1d1b;
      }

      .cls-5 {
        fill: #6843e1;
      }

      .cls-4 {
        stroke-width: 1.64px;
      }

      .cls-6 {
        fill: #1d1d1b;
      }
    </style>
  </defs>
  <line class="cls-4" x1="207.44" y1="302.5" x2="207.44" y2="262.44"/>
  <line class="cls-1" x1="207.44" y1="468.92" x2="207.44" y2="428.91"/>
  <line class="cls-1" x1="207.44" y1="634.61" x2="207.44" y2="594.61"/>
  <line class="cls-1" x1="207.44" y1="801.02" x2="207.44" y2="761.02"/>
  <g>
    <path class="cls-5" d="M86.89,31.6L79.74,0h6.79l2.99,15.17,1.68,8.78h.14l1.99-8.78,3.49-15.17h7.52l3.53,15.17,1.95,8.78h.14l1.68-8.78,3.03-15.17h6.52l-7.33,31.6h-7.83l-3.98-17.11-1.54-6.93h-.14l-1.58,6.93-3.98,17.11h-7.88Z"/>
    <path class="cls-5" d="M143.08,18.65h-12.04v12.95h-6.88V0h6.88v12.54h12.04V0h6.88v31.6h-6.88v-12.95Z"/>
    <path class="cls-5" d="M162.87,31.6v-12.36L152.04,0h7.7l6.79,12.59h.09l6.52-12.59h7.47l-10.82,19.2v12.41h-6.93Z"/>
    <path class="cls-5" d="M191.57,0h11.91c2.08,0,3.98.33,5.71,1,1.72.66,3.18,1.65,4.39,2.97,1.21,1.31,2.14,2.96,2.81,4.94.66,1.98,1,4.28,1,6.9s-.33,4.93-1,6.9c-.66,1.98-1.6,3.62-2.81,4.94-1.21,1.31-2.67,2.3-4.39,2.97-1.72.66-3.62,1-5.71,1h-11.91V0ZM203.48,25.49c2.05,0,3.67-.57,4.84-1.72,1.18-1.15,1.77-2.99,1.77-5.52v-4.89c0-2.54-.59-4.38-1.77-5.52-1.18-1.15-2.79-1.72-4.84-1.72h-5.03v19.38h5.03Z"/>
    <path class="cls-5" d="M220.09,31.6v-5.48h4.08V5.48h-4.08V0h15.03v5.48h-4.08v20.65h4.08v5.48h-15.03Z"/>
    <path class="cls-5" d="M239.06,0h11.91c2.08,0,3.98.33,5.7,1,1.72.66,3.18,1.65,4.39,2.97,1.21,1.31,2.14,2.96,2.81,4.94.66,1.98,1,4.28,1,6.9s-.33,4.93-1,6.9c-.66,1.98-1.6,3.62-2.81,4.94-1.21,1.31-2.67,2.3-4.39,2.97-1.72.66-3.62,1-5.7,1h-11.91V0ZM250.97,25.49c2.05,0,3.67-.57,4.84-1.72,1.18-1.15,1.77-2.99,1.77-5.52v-4.89c0-2.54-.59-4.38-1.77-5.52-1.18-1.15-2.79-1.72-4.84-1.72h-5.03v19.38h5.03Z"/>
    <path class="cls-5" d="M282.67,31.6l-7.15-31.6h6.79l2.99,15.17,1.68,8.78h.14l1.99-8.78,3.49-15.17h7.52l3.53,15.17,1.95,8.78h.14l1.68-8.78,3.03-15.17h6.52l-7.33,31.6h-7.83l-3.98-17.11-1.54-6.93h-.14l-1.58,6.93-3.98,17.11h-7.88Z"/>
    <path class="cls-5" d="M319.93,31.6V0h21.51v6.11h-14.62v6.43h12.54v6.11h-12.54v6.84h14.62v6.11h-21.51Z"/>
  </g>
  <g>
    <path class="cls-5" d="M72.99,53.94h15.35c2.63,0,4.67.74,6.13,2.22,1.46,1.48,2.2,3.44,2.2,5.89,0,1.21-.16,2.23-.48,3.08-.32.85-.74,1.54-1.27,2.08-.53.54-1.15.94-1.86,1.2-.71.26-1.47.4-2.29.43v.27c.75,0,1.55.14,2.38.41.83.27,1.59.7,2.29,1.29.69.59,1.27,1.35,1.74,2.29.47.94.7,2.08.7,3.44,0,1.24-.2,2.41-.61,3.51-.41,1.1-.97,2.06-1.7,2.88s-1.58,1.46-2.58,1.92c-1,.47-2.08.7-3.26.7h-16.75v-31.6ZM79.87,66.89h6.84c.91,0,1.61-.26,2.13-.77s.77-1.22.77-2.13v-1.36c0-.91-.26-1.61-.77-2.13-.51-.51-1.22-.77-2.13-.77h-6.84v7.15ZM79.87,79.75h7.92c.91,0,1.62-.25,2.15-.75.53-.5.79-1.2.79-2.11v-1.54c0-.91-.26-1.61-.79-2.1-.53-.5-1.25-.75-2.15-.75h-7.92v7.24Z"/>
    <path class="cls-5" d="M107.9,53.94v19.38c0,2.23.44,3.9,1.31,5,.88,1.1,2.34,1.65,4.39,1.65s3.52-.55,4.39-1.65c.88-1.1,1.31-2.77,1.31-5v-19.38h6.7v18.65c0,2.32-.22,4.34-.66,6.04-.44,1.71-1.15,3.11-2.15,4.21-1,1.1-2.28,1.92-3.85,2.44-1.57.53-3.49.79-5.75.79s-4.18-.26-5.75-.79c-1.57-.53-2.85-1.34-3.85-2.44-1-1.1-1.71-2.51-2.15-4.21-.44-1.71-.66-3.72-.66-6.04v-18.65h6.7Z"/>
    <path class="cls-5" d="M129.77,85.54v-5.48h4.08v-20.65h-4.08v-5.48h15.03v5.48h-4.08v20.65h4.08v5.48h-15.03Z"/>
    <path class="cls-5" d="M148.74,85.54v-31.6h6.88v25.49h12.04v6.11h-18.93Z"/>
    <path class="cls-5" d="M170.92,53.94h11.91c2.08,0,3.98.33,5.71,1,1.72.66,3.18,1.65,4.39,2.97,1.21,1.31,2.14,2.96,2.81,4.94.66,1.98,1,4.28,1,6.9s-.33,4.93-1,6.9c-.66,1.98-1.6,3.62-2.81,4.94-1.21,1.31-2.67,2.3-4.39,2.97-1.72.66-3.62,1-5.71,1h-11.91v-31.6ZM182.83,79.43c2.05,0,3.67-.57,4.84-1.72,1.18-1.15,1.77-2.99,1.77-5.52v-4.89c0-2.54-.59-4.38-1.77-5.52-1.18-1.15-2.79-1.72-4.84-1.72h-5.03v19.38h5.03Z"/>
    <path class="cls-5" d="M209.54,85.54v-31.6h14.94c1.48,0,2.81.25,3.98.75s2.18,1.19,3.01,2.06c.83.88,1.47,1.94,1.92,3.19.45,1.25.68,2.62.68,4.1s-.23,2.88-.68,4.12c-.45,1.24-1.09,2.29-1.92,3.17s-1.83,1.56-3.01,2.06-2.51.75-3.98.75h-8.06v11.41h-6.88ZM216.43,68.16h7.24c1.03,0,1.83-.26,2.42-.79.59-.53.88-1.31.88-2.33v-1.99c0-1.03-.29-1.8-.88-2.33-.59-.53-1.4-.79-2.42-.79h-7.24v8.24Z"/>
    <path class="cls-5" d="M253.6,85.54l-2.26-7.52h-10.55l-2.26,7.52h-6.97l10.41-31.6h8.51l10.28,31.6h-7.15ZM246.13,60.19h-.23l-3.49,12h7.24l-3.53-12Z"/>
    <path class="cls-5" d="M273.57,60.05v25.49h-6.88v-25.49h-8.56v-6.11h24v6.11h-8.56Z"/>
    <path class="cls-5" d="M283.62,85.54v-5.48h4.08v-20.65h-4.08v-5.48h15.03v5.48h-4.08v20.65h4.08v5.48h-15.03Z"/>
    <path class="cls-5" d="M315.27,86.09c-2.08,0-3.98-.35-5.71-1.04s-3.18-1.73-4.39-3.1c-1.21-1.37-2.14-3.08-2.81-5.12s-1-4.4-1-7.09.33-5.05,1-7.09c.66-2.04,1.6-3.74,2.81-5.12,1.21-1.37,2.67-2.41,4.39-3.1,1.72-.69,3.62-1.04,5.71-1.04s3.98.35,5.71,1.04c1.72.69,3.18,1.73,4.39,3.1,1.21,1.37,2.14,3.08,2.81,5.12.66,2.04,1,4.4,1,7.09s-.33,5.05-1,7.09-1.6,3.74-2.81,5.12c-1.21,1.37-2.67,2.41-4.39,3.1-1.72.69-3.62,1.04-5.71,1.04ZM315.27,79.97c2.08,0,3.71-.68,4.87-2.04,1.16-1.36,1.74-3.31,1.74-5.84v-4.71c0-2.54-.58-4.48-1.74-5.84-1.16-1.36-2.78-2.04-4.87-2.04s-3.71.68-4.87,2.04c-1.16,1.36-1.74,3.31-1.74,5.84v4.71c0,2.54.58,4.48,1.74,5.84,1.16,1.36,2.78,2.04,4.87,2.04Z"/>
    <path class="cls-5" d="M336.77,74.99v-6.93c2.38-.09,4.17-.49,5.37-1.2,1.19-.71,1.79-1.91,1.79-3.6v-.63c0-1.15-.34-2.02-1.02-2.63-.68-.6-1.56-.91-2.65-.91-1.18,0-2.15.36-2.92,1.09-.77.72-1.29,1.65-1.56,2.76l-5.52-2.31c.27-.91.66-1.79,1.18-2.65.51-.86,1.18-1.63,2.01-2.31.83-.68,1.83-1.23,2.99-1.65,1.16-.42,2.51-.63,4.05-.63s3,.23,4.3.68c1.3.45,2.41,1.09,3.35,1.9.93.81,1.65,1.8,2.15,2.94.5,1.15.75,2.42.75,3.8,0,1.27-.21,2.42-.63,3.44-.42,1.03-1,1.92-1.72,2.69s-1.57,1.4-2.54,1.88c-.97.48-1.98.81-3.03,1v3.26h-6.34ZM340.03,86.09c-1.45,0-2.48-.33-3.1-1-.62-.66-.93-1.48-.93-2.45v-1.09c0-.97.31-1.78.93-2.44.62-.66,1.65-1,3.1-1s2.48.33,3.1,1c.62.66.93,1.48.93,2.44v1.09c0,.97-.31,1.78-.93,2.45-.62.66-1.65,1-3.1,1Z"/>
  </g>
  <g>
    <path class="cls-6" d="M111.72,188.82h9.64c1.65,0,2.93.46,3.85,1.39.92.93,1.38,2.16,1.38,3.7,0,.76-.1,1.4-.3,1.93-.2.53-.46.97-.8,1.31-.33.34-.72.59-1.17.75s-.92.25-1.44.27v.17c.47,0,.97.09,1.49.26.52.17,1,.44,1.44.81.44.37.8.85,1.09,1.44.29.59.44,1.31.44,2.16,0,.78-.13,1.51-.38,2.2s-.61,1.29-1.07,1.8c-.45.51-.99.91-1.62,1.21s-1.31.44-2.05.44h-10.52v-19.84ZM116.04,196.95h4.29c.57,0,1.01-.16,1.34-.48.32-.32.48-.77.48-1.34v-.85c0-.57-.16-1.01-.48-1.34-.32-.32-.77-.48-1.34-.48h-4.29v4.49ZM116.04,205.02h4.97c.57,0,1.02-.16,1.35-.47.33-.31.5-.75.5-1.32v-.97c0-.57-.17-1.01-.5-1.32-.33-.31-.78-.47-1.35-.47h-4.97v4.55Z"/>
    <path class="cls-6" d="M135.37,209c-1.1,0-2.08-.18-2.94-.54-.86-.36-1.59-.88-2.19-1.56-.6-.68-1.06-1.51-1.38-2.47-.32-.97-.48-2.05-.48-3.24s.16-2.27.48-3.24c.32-.97.78-1.79,1.38-2.46.6-.67,1.33-1.19,2.19-1.55.86-.36,1.84-.54,2.94-.54s2.08.18,2.94.54c.86.36,1.59.88,2.19,1.55.6.67,1.06,1.49,1.38,2.46s.48,2.05.48,3.24-.16,2.27-.48,3.24c-.32.97-.78,1.79-1.38,2.47-.6.68-1.33,1.2-2.19,1.56-.86.36-1.84.54-2.94.54ZM135.37,205.67c.83,0,1.48-.26,1.93-.77.46-.51.68-1.24.68-2.19v-3.04c0-.95-.23-1.68-.68-2.19-.45-.51-1.1-.77-1.93-.77s-1.48.26-1.93.77c-.46.51-.68,1.24-.68,2.19v3.04c0,.95.23,1.68.68,2.19.45.51,1.1.77,1.93.77Z"/>
    <path class="cls-6" d="M155.24,208.66c-.76,0-1.39-.24-1.89-.71-.5-.47-.82-1.11-.95-1.9h-.17c-.23.97-.73,1.7-1.51,2.2-.78.5-1.73.75-2.87.75-1.5,0-2.64-.4-3.44-1.19-.8-.79-1.19-1.84-1.19-3.15,0-1.57.57-2.73,1.72-3.5,1.15-.76,2.7-1.15,4.68-1.15h2.36v-.94c0-.72-.19-1.29-.57-1.72-.38-.43-1.01-.64-1.9-.64-.83,0-1.5.18-1.99.54s-.9.77-1.22,1.22l-2.5-2.23c.61-.9,1.37-1.6,2.29-2.1.92-.5,2.17-.76,3.74-.76,2.12,0,3.71.46,4.78,1.39,1.06.93,1.59,2.28,1.59,4.06v6.54h1.39v3.27h-2.33ZM149.42,206.07c.7,0,1.3-.15,1.81-.45.5-.3.75-.79.75-1.47v-1.75h-2.05c-1.65,0-2.47.55-2.47,1.66v.42c0,.55.17.94.51,1.2.34.25.82.38,1.45.38Z"/>
    <path class="cls-6" d="M159.25,208.66v-14.92h4.21v3.24h.14c.08-.42.21-.82.4-1.21.19-.39.44-.73.75-1.04.31-.3.69-.54,1.12-.72.44-.18.95-.27,1.54-.27h.74v3.92h-1.05c-1.23,0-2.15.16-2.74.48-.6.32-.9.92-.9,1.79v8.73h-4.21Z"/>
    <path class="cls-6" d="M178.64,206.16h-.14c-.11.4-.29.77-.54,1.12-.25.35-.54.65-.9.91-.35.26-.75.46-1.19.6-.45.14-.91.21-1.38.21-1.9,0-3.33-.67-4.29-2-.97-1.34-1.45-3.27-1.45-5.81s.48-4.47,1.45-5.8c.97-1.33,2.4-1.99,4.29-1.99.97,0,1.82.27,2.57.8.75.53,1.23,1.21,1.44,2.05h.14v-8.61h4.21v21.04h-4.21v-2.5ZM175.88,205.59c.8,0,1.45-.19,1.98-.58.52-.39.78-.92.78-1.61v-4.41c0-.68-.26-1.22-.78-1.61-.52-.39-1.18-.58-1.98-.58s-1.45.28-1.98.84c-.52.56-.78,1.31-.78,2.26v2.59c0,.95.26,1.7.78,2.26.52.56,1.18.84,1.98.84Z"/>
    <path class="cls-6" d="M191.2,193.74h4.21v2.5h.14c.21-.83.69-1.52,1.44-2.05.75-.53,1.61-.8,2.57-.8,1.9,0,3.33.66,4.29,1.99.97,1.33,1.45,3.26,1.45,5.8s-.48,4.48-1.45,5.81-2.4,2-4.29,2c-.49,0-.96-.07-1.39-.21s-.83-.34-1.18-.6-.65-.56-.9-.91c-.25-.35-.43-.72-.54-1.12h-.14v8.19h-4.21v-20.61ZM198.17,205.59c.8,0,1.45-.28,1.98-.84.52-.56.78-1.31.78-2.26v-2.59c0-.95-.26-1.7-.78-2.26-.52-.56-1.18-.84-1.98-.84s-1.45.19-1.98.58c-.52.39-.78.92-.78,1.61v4.41c0,.68.26,1.22.78,1.61.52.39,1.18.58,1.98.58Z"/>
    <path class="cls-6" d="M213.4,209c-1.1,0-2.08-.18-2.94-.54-.86-.36-1.59-.88-2.19-1.56-.6-.68-1.06-1.51-1.38-2.47-.32-.97-.48-2.05-.48-3.24s.16-2.27.48-3.24c.32-.97.78-1.79,1.38-2.46.6-.67,1.33-1.19,2.19-1.55.86-.36,1.84-.54,2.94-.54s2.08.18,2.94.54c.86.36,1.59.88,2.19,1.55.6.67,1.06,1.49,1.38,2.46s.48,2.05.48,3.24-.16,2.27-.48,3.24c-.32.97-.78,1.79-1.38,2.47-.6.68-1.33,1.2-2.19,1.56-.86.36-1.84.54-2.94.54ZM213.4,205.67c.83,0,1.48-.26,1.93-.77s.68-1.24.68-2.19v-3.04c0-.95-.23-1.68-.68-2.19-.46-.51-1.1-.77-1.93-.77s-1.48.26-1.93.77c-.45.51-.68,1.24-.68,2.19v3.04c0,.95.23,1.68.68,2.19.46.51,1.1.77,1.93.77Z"/>
    <path class="cls-6" d="M222.24,208.66v-14.92h4.21v3.24h.14c.08-.42.21-.82.4-1.21.19-.39.44-.73.75-1.04.31-.3.69-.54,1.12-.72.44-.18.95-.27,1.54-.27h.74v3.92h-1.05c-1.23,0-2.15.16-2.74.48-.6.32-.9.92-.9,1.79v8.73h-4.21Z"/>
    <path class="cls-6" d="M237.94,208.66c-1.46,0-2.56-.37-3.31-1.11-.75-.74-1.12-1.82-1.12-3.24v-7.31h-2.1v-3.27h1.05c.57,0,.96-.14,1.17-.41.21-.27.31-.67.31-1.18v-2.44h3.78v4.04h2.96v3.27h-2.96v8.39h2.73v3.27h-2.5Z"/>
    <path class="cls-6" d="M243.19,197h-2.1v-3.27h2.1v-1.76c0-1.44.38-2.52,1.14-3.25.76-.73,1.87-1.09,3.33-1.09h2.73v3.27h-2.99v2.84h2.99v3.27h-2.99v11.65h-4.21v-11.65Z"/>
    <path class="cls-6" d="M257.52,209c-1.1,0-2.08-.18-2.94-.54-.86-.36-1.59-.88-2.19-1.56-.6-.68-1.06-1.51-1.38-2.47-.32-.97-.48-2.05-.48-3.24s.16-2.27.48-3.24.78-1.79,1.38-2.46c.6-.67,1.33-1.19,2.19-1.55.86-.36,1.84-.54,2.94-.54s2.08.18,2.94.54c.86.36,1.59.88,2.19,1.55.6.67,1.06,1.49,1.38,2.46.32.97.48,2.05.48,3.24s-.16,2.27-.48,3.24c-.32.97-.78,1.79-1.38,2.47-.6.68-1.33,1.2-2.19,1.56-.86.36-1.84.54-2.94.54ZM257.52,205.67c.83,0,1.48-.26,1.93-.77s.68-1.24.68-2.19v-3.04c0-.95-.23-1.68-.68-2.19-.46-.51-1.1-.77-1.93-.77s-1.48.26-1.93.77c-.45.51-.68,1.24-.68,2.19v3.04c0,.95.23,1.68.68,2.19.46.51,1.1.77,1.93.77Z"/>
    <path class="cls-6" d="M270.54,208.66c-1.44,0-2.5-.35-3.17-1.05-.67-.7-1.01-1.71-1.01-3.04v-16.94h4.21v17.77h1.88v3.27h-1.9Z"/>
    <path class="cls-6" d="M275.94,192.14c-.85,0-1.47-.19-1.86-.58-.39-.39-.58-.89-.58-1.49v-.63c0-.61.19-1.1.58-1.49.39-.39,1.01-.58,1.86-.58s1.47.19,1.86.58c.39.39.58.89.58,1.49v.63c0,.61-.19,1.1-.58,1.49-.39.39-1.01.58-1.86.58ZM273.84,193.74h4.21v14.92h-4.21v-14.92Z"/>
    <path class="cls-6" d="M286.89,209c-1.1,0-2.08-.18-2.94-.54-.86-.36-1.59-.88-2.19-1.56-.6-.68-1.06-1.51-1.38-2.47-.32-.97-.48-2.05-.48-3.24s.16-2.27.48-3.24.78-1.79,1.38-2.46c.6-.67,1.33-1.19,2.19-1.55.86-.36,1.84-.54,2.94-.54s2.08.18,2.94.54c.86.36,1.59.88,2.19,1.55.6.67,1.06,1.49,1.38,2.46.32.97.48,2.05.48,3.24s-.16,2.27-.48,3.24c-.32.97-.78,1.79-1.38,2.47-.6.68-1.33,1.2-2.19,1.56-.86.36-1.84.54-2.94.54ZM286.89,205.67c.83,0,1.48-.26,1.93-.77s.68-1.24.68-2.19v-3.04c0-.95-.23-1.68-.68-2.19-.46-.51-1.1-.77-1.93-.77s-1.48.26-1.93.77c-.45.51-.68,1.24-.68,2.19v3.04c0,.95.23,1.68.68,2.19.46.51,1.1.77,1.93.77Z"/>
  </g>
  <rect class="cls-3" x="2.84" y="135.99" width="409.2" height="125.69" rx="62.85" ry="62.85"/>
  <rect class="cls-3" x="2.84" y="468.92" width="409.2" height="125.69" rx="62.85" ry="62.85"/>
  <g>
    <path class="cls-6" d="M104.18,526.44c-1.35,0-2.56-.21-3.64-.64-1.08-.43-2-1.06-2.76-1.9-.76-.84-1.35-1.89-1.76-3.16-.42-1.26-.63-2.73-.63-4.42s.21-3.15.63-4.45c.42-1.3,1-2.39,1.76-3.27.76-.88,1.68-1.55,2.76-2,1.08-.45,2.29-.68,3.64-.68,1.84,0,3.35.37,4.55,1.12,1.19.75,2.15,1.93,2.87,3.54l-3.72,1.93c-.27-.83-.68-1.5-1.24-2-.56-.5-1.38-.75-2.46-.75-1.27,0-2.29.41-3.06,1.24-.77.82-1.15,2.02-1.15,3.6v3.18c0,1.57.38,2.77,1.15,3.6.77.83,1.79,1.24,3.06,1.24,1.06,0,1.91-.29,2.54-.87.63-.58,1.1-1.27,1.41-2.09l3.52,2.05c-.74,1.52-1.71,2.69-2.91,3.51-1.2.82-2.72,1.24-4.56,1.24Z"/>
    <path class="cls-6" d="M119.36,526.44c-1.1,0-2.08-.18-2.94-.54-.86-.36-1.59-.88-2.19-1.56-.6-.68-1.06-1.51-1.38-2.47-.32-.97-.48-2.05-.48-3.24s.16-2.27.48-3.24c.32-.97.78-1.79,1.38-2.46.6-.67,1.33-1.19,2.19-1.55.86-.36,1.84-.54,2.94-.54s2.08.18,2.94.54c.86.36,1.59.88,2.19,1.55.6.67,1.06,1.49,1.38,2.46s.48,2.05.48,3.24-.16,2.27-.48,3.24c-.32.97-.78,1.79-1.38,2.47-.6.68-1.33,1.2-2.19,1.56-.86.36-1.84.54-2.94.54ZM119.36,523.11c.83,0,1.48-.26,1.93-.77.46-.51.68-1.24.68-2.19v-3.04c0-.95-.23-1.68-.68-2.19-.45-.51-1.1-.77-1.93-.77s-1.48.26-1.93.77c-.46.51-.68,1.24-.68,2.19v3.04c0,.95.23,1.68.68,2.19.45.51,1.1.77,1.93.77Z"/>
    <path class="cls-6" d="M128.2,526.09v-14.92h4.21v2.53h.17c.27-.8.72-1.47,1.36-2.03.64-.56,1.53-.84,2.64-.84,1.02,0,1.9.26,2.62.77.72.51,1.24,1.26,1.56,2.25h.09c.13-.42.34-.81.61-1.18.27-.37.61-.69,1.01-.95s.84-.48,1.34-.64c.49-.16,1.02-.24,1.59-.24,1.44,0,2.54.51,3.31,1.53s1.15,2.48,1.15,4.38v9.35h-4.21v-9.01c0-1.89-.68-2.84-2.05-2.84-.63,0-1.19.18-1.71.54s-.77.91-.77,1.65v9.67h-4.21v-9.01c0-1.89-.68-2.84-2.05-2.84-.3,0-.6.04-.9.13-.29.08-.56.22-.8.41-.24.19-.43.42-.57.7s-.21.59-.21.95v9.67h-4.21Z"/>
    <path class="cls-6" d="M152.47,511.17h4.21v2.5h.14c.21-.83.69-1.52,1.44-2.05s1.61-.8,2.57-.8c1.9,0,3.33.66,4.29,1.99.97,1.33,1.45,3.26,1.45,5.8s-.48,4.48-1.45,5.81-2.4,2-4.29,2c-.49,0-.96-.07-1.39-.21s-.83-.34-1.18-.6-.65-.56-.9-.91c-.25-.35-.43-.72-.54-1.12h-.14v8.19h-4.21v-20.61ZM159.44,523.02c.8,0,1.45-.28,1.98-.84.52-.56.78-1.31.78-2.26v-2.59c0-.95-.26-1.7-.78-2.26-.52-.56-1.18-.84-1.98-.84s-1.45.19-1.98.58c-.52.39-.78.92-.78,1.61v4.41c0,.68.26,1.22.78,1.61.52.39,1.18.58,1.98.58Z"/>
    <path class="cls-6" d="M174.85,526.44c-1.14,0-2.15-.18-3.04-.55-.89-.37-1.64-.89-2.26-1.56-.62-.67-1.08-1.49-1.39-2.46-.31-.97-.47-2.05-.47-3.24s.15-2.24.45-3.2.75-1.78,1.35-2.46c.6-.68,1.33-1.21,2.2-1.58.87-.37,1.87-.55,2.98-.55,1.23,0,2.29.21,3.17.62.88.42,1.6.98,2.16,1.68.56.7.97,1.51,1.22,2.43.26.92.38,1.88.38,2.89v1.25h-9.58v.23c0,.98.27,1.75.8,2.33.53.57,1.36.86,2.5.86.87,0,1.58-.17,2.13-.52.55-.35,1.06-.77,1.54-1.25l2.1,2.62c-.66.78-1.53,1.39-2.6,1.82-1.07.44-2.29.66-3.65.66ZM174.76,513.93c-.85,0-1.52.28-2,.84-.48.56-.73,1.3-.73,2.23v.23h5.23v-.26c0-.91-.2-1.64-.61-2.2-.41-.56-1.04-.84-1.89-.84Z"/>
    <path class="cls-6" d="M188.69,526.09c-1.46,0-2.56-.37-3.31-1.11-.75-.74-1.12-1.82-1.12-3.24v-7.31h-2.1v-3.27h1.05c.57,0,.96-.14,1.17-.41.21-.27.31-.67.31-1.18v-2.45h3.78v4.04h2.96v3.27h-2.96v8.39h2.73v3.27h-2.5Z"/>
    <path class="cls-6" d="M195.31,509.58c-.85,0-1.47-.19-1.86-.58-.39-.39-.58-.89-.58-1.49v-.63c0-.61.19-1.1.58-1.49.39-.39,1.01-.58,1.86-.58s1.47.2,1.86.58c.39.39.58.89.58,1.49v.63c0,.61-.19,1.1-.58,1.49-.39.39-1.01.58-1.86.58ZM193.21,511.17h4.21v14.92h-4.21v-14.92Z"/>
    <path class="cls-6" d="M205.43,526.09c-1.46,0-2.56-.37-3.31-1.11-.75-.74-1.12-1.82-1.12-3.24v-7.31h-2.1v-3.27h1.05c.57,0,.96-.14,1.17-.41.21-.27.31-.67.31-1.18v-2.45h3.78v4.04h2.96v3.27h-2.96v8.39h2.73v3.27h-2.5Z"/>
    <path class="cls-6" d="M212.06,509.58c-.85,0-1.47-.19-1.86-.58-.39-.39-.58-.89-.58-1.49v-.63c0-.61.19-1.1.58-1.49.39-.39,1.01-.58,1.86-.58s1.47.2,1.86.58c.39.39.58.89.58,1.49v.63c0,.61-.2,1.1-.58,1.49s-1.01.58-1.86.58ZM209.95,511.17h4.21v14.92h-4.21v-14.92Z"/>
    <path class="cls-6" d="M220.13,526.09l-4.89-14.92h4.15l1.85,6.03,1.39,5.4h.23l1.39-5.4,1.79-6.03h3.98l-4.89,14.92h-5Z"/>
    <path class="cls-6" d="M237.1,526.44c-1.14,0-2.15-.18-3.04-.55-.89-.37-1.64-.89-2.26-1.56-.62-.67-1.08-1.49-1.39-2.46-.31-.97-.47-2.05-.47-3.24s.15-2.24.46-3.2c.3-.96.75-1.78,1.35-2.46.6-.68,1.33-1.21,2.2-1.58.87-.37,1.87-.55,2.99-.55,1.23,0,2.29.21,3.17.62.88.42,1.6.98,2.16,1.68.56.7.97,1.51,1.22,2.43.26.92.38,1.88.38,2.89v1.25h-9.58v.23c0,.98.26,1.75.8,2.33.53.57,1.36.86,2.5.86.87,0,1.58-.17,2.13-.52.55-.35,1.06-.77,1.54-1.25l2.1,2.62c-.66.78-1.53,1.39-2.6,1.82-1.07.44-2.29.66-3.65.66ZM237.01,513.93c-.85,0-1.52.28-2,.84-.48.56-.72,1.3-.72,2.23v.23h5.23v-.26c0-.91-.2-1.64-.61-2.2-.41-.56-1.04-.84-1.89-.84Z"/>
    <path class="cls-6" d="M251.28,526.09v-14.92h4.21v3.24h.14c.08-.42.21-.82.4-1.21.19-.39.44-.73.75-1.04.31-.3.69-.54,1.12-.73.44-.18.95-.27,1.54-.27h.74v3.92h-1.05c-1.23,0-2.15.16-2.74.48-.6.32-.9.92-.9,1.79v8.73h-4.21Z"/>
    <path class="cls-6" d="M272.26,526.09c-.76,0-1.39-.24-1.89-.71-.5-.47-.82-1.11-.95-1.9h-.17c-.23.97-.73,1.7-1.51,2.2s-1.73.75-2.87.75c-1.5,0-2.64-.4-3.44-1.19s-1.19-1.84-1.19-3.15c0-1.57.57-2.73,1.72-3.5,1.15-.76,2.71-1.15,4.68-1.15h2.36v-.94c0-.72-.19-1.29-.57-1.72-.38-.43-1.01-.64-1.9-.64-.83,0-1.5.18-1.99.54-.49.36-.9.77-1.22,1.22l-2.5-2.23c.61-.9,1.37-1.6,2.29-2.1.92-.5,2.17-.76,3.74-.76,2.12,0,3.71.46,4.78,1.39s1.59,2.28,1.59,4.06v6.54h1.39v3.27h-2.33ZM266.44,523.51c.7,0,1.3-.15,1.81-.45.5-.3.75-.79.75-1.47v-1.75h-2.05c-1.65,0-2.47.55-2.47,1.66v.42c0,.54.17.94.51,1.2s.82.38,1.45.38Z"/>
    <path class="cls-6" d="M281.33,526.09c-1.46,0-2.56-.37-3.31-1.11-.75-.74-1.12-1.82-1.12-3.24v-7.31h-2.1v-3.27h1.05c.57,0,.96-.14,1.17-.41.21-.27.31-.67.31-1.18v-2.45h3.78v4.04h2.96v3.27h-2.96v8.39h2.73v3.27h-2.5Z"/>
    <path class="cls-6" d="M291.96,526.44c-1.14,0-2.15-.18-3.04-.55-.89-.37-1.64-.89-2.26-1.56-.62-.67-1.08-1.49-1.39-2.46-.31-.97-.47-2.05-.47-3.24s.15-2.24.46-3.2c.3-.96.75-1.78,1.35-2.46.6-.68,1.33-1.21,2.2-1.58.87-.37,1.87-.55,2.99-.55,1.23,0,2.29.21,3.17.62.88.42,1.6.98,2.16,1.68.56.7.97,1.51,1.22,2.43.26.92.38,1.88.38,2.89v1.25h-9.58v.23c0,.98.26,1.75.8,2.33.53.57,1.36.86,2.5.86.87,0,1.58-.17,2.13-.52.55-.35,1.06-.77,1.54-1.25l2.1,2.62c-.66.78-1.53,1.39-2.6,1.82-1.07.44-2.29.66-3.65.66ZM291.88,513.93c-.85,0-1.52.28-2,.84-.48.56-.72,1.3-.72,2.23v.23h5.23v-.26c0-.91-.2-1.64-.61-2.2-.41-.56-1.04-.84-1.89-.84Z"/>
    <path class="cls-6" d="M305.64,526.44c-1.44,0-2.65-.23-3.64-.7s-1.87-1.12-2.64-1.98l2.47-2.5c.53.59,1.12,1.05,1.76,1.39s1.37.51,2.19.51,1.41-.13,1.73-.38.48-.6.48-1.04c0-.7-.5-1.12-1.51-1.25l-1.62-.2c-3.35-.42-5.03-1.95-5.03-4.61,0-.72.14-1.38.41-1.98.27-.6.66-1.11,1.17-1.54.5-.43,1.11-.76,1.82-1,.71-.24,1.51-.35,2.4-.35.78,0,1.46.05,2.06.16.6.1,1.13.26,1.59.45.46.2.89.45,1.28.74.39.29.77.62,1.15.98l-2.42,2.47c-.47-.47-1.01-.85-1.61-1.12-.6-.27-1.21-.41-1.83-.41-.72,0-1.23.11-1.54.34-.3.23-.46.53-.46.91,0,.4.11.71.33.92s.63.37,1.24.47l1.68.23c3.28.44,4.92,1.93,4.92,4.49,0,.72-.15,1.38-.45,1.99-.3.61-.74,1.13-1.29,1.58-.56.45-1.23.79-2.02,1.04-.79.25-1.66.37-2.63.37Z"/>
    <path class="cls-6" d="M112.21,556.36c-.76,0-1.39-.24-1.89-.71-.5-.47-.82-1.11-.95-1.9h-.17c-.23.97-.73,1.7-1.51,2.2-.78.5-1.73.75-2.87.75-1.5,0-2.64-.4-3.44-1.19-.8-.79-1.19-1.84-1.19-3.15,0-1.57.57-2.73,1.72-3.5,1.15-.76,2.7-1.15,4.68-1.15h2.36v-.94c0-.72-.19-1.29-.57-1.72-.38-.43-1.01-.64-1.9-.64-.83,0-1.5.18-1.99.54-.49.36-.9.77-1.22,1.22l-2.5-2.23c.61-.9,1.37-1.6,2.29-2.1.92-.5,2.17-.76,3.74-.76,2.12,0,3.71.46,4.78,1.39,1.06.93,1.59,2.28,1.59,4.06v6.54h1.39v3.27h-2.33ZM106.38,553.77c.7,0,1.3-.15,1.81-.45.5-.3.75-.79.75-1.47v-1.75h-2.05c-1.65,0-2.47.55-2.47,1.66v.42c0,.54.17.94.51,1.2.34.25.82.38,1.45.38Z"/>
    <path class="cls-6" d="M116.22,556.36v-14.92h4.21v3.24h.14c.08-.42.21-.82.4-1.21.19-.39.44-.73.75-1.04.31-.3.69-.54,1.12-.73.44-.18.95-.27,1.54-.27h.74v3.92h-1.05c-1.23,0-2.15.16-2.74.48-.6.32-.9.92-.9,1.79v8.73h-4.21Z"/>
    <path class="cls-6" d="M132.48,556.7c-1.1,0-2.08-.18-2.94-.54-.86-.36-1.59-.88-2.19-1.56-.6-.68-1.06-1.51-1.38-2.47-.32-.97-.48-2.05-.48-3.24s.16-2.27.48-3.24c.32-.97.78-1.79,1.38-2.46.6-.67,1.33-1.19,2.19-1.55.86-.36,1.84-.54,2.94-.54s2.08.18,2.94.54c.86.36,1.59.88,2.19,1.55.6.67,1.06,1.49,1.38,2.46s.48,2.05.48,3.24-.16,2.27-.48,3.24c-.32.97-.78,1.79-1.38,2.47-.6.68-1.33,1.2-2.19,1.56-.86.36-1.84.54-2.94.54ZM132.48,553.38c.83,0,1.48-.26,1.93-.77.46-.51.68-1.24.68-2.19v-3.04c0-.95-.23-1.68-.68-2.19-.45-.51-1.1-.77-1.93-.77s-1.48.26-1.93.77c-.46.51-.68,1.24-.68,2.19v3.04c0,.95.23,1.68.68,2.19.45.51,1.1.77,1.93.77Z"/>
    <path class="cls-6" d="M150.13,553.86h-.14c-.13.38-.31.74-.53,1.08-.22.34-.5.64-.84.91-.34.27-.74.47-1.21.62-.46.15-1,.23-1.61.23-1.53,0-2.7-.51-3.48-1.52-.79-1.01-1.18-2.47-1.18-4.36v-9.38h4.21v9.01c0,.91.16,1.61.48,2.1.32.49.87.74,1.65.74.32,0,.64-.05.97-.14.32-.09.61-.23.85-.41.25-.18.45-.4.6-.67.15-.27.23-.58.23-.94v-9.69h4.21v14.92h-4.21v-2.5Z"/>
    <path class="cls-6" d="M157.12,556.36v-14.92h4.21v2.53h.17c.27-.78.73-1.45,1.39-2.02.66-.57,1.58-.85,2.76-.85,1.54,0,2.7.51,3.48,1.53.79,1.02,1.18,2.48,1.18,4.38v9.35h-4.21v-9.01c0-.97-.15-1.68-.46-2.15s-.84-.7-1.62-.7c-.34,0-.67.04-1,.13-.32.08-.61.22-.87.41s-.46.42-.61.7c-.15.27-.23.59-.23.95v9.67h-4.21Z"/>
    <path class="cls-6" d="M182.08,553.86h-.14c-.11.4-.29.77-.54,1.12-.25.35-.54.65-.9.91-.35.26-.75.45-1.19.6-.45.14-.91.21-1.38.21-1.9,0-3.33-.67-4.29-2-.97-1.34-1.45-3.27-1.45-5.81s.48-4.47,1.45-5.8c.97-1.33,2.4-1.99,4.29-1.99.97,0,1.82.27,2.57.8.75.53,1.23,1.21,1.44,2.05h.14v-8.61h4.21v21.04h-4.21v-2.5ZM179.32,553.29c.8,0,1.45-.19,1.98-.58.52-.39.78-.92.78-1.61v-4.41c0-.68-.26-1.22-.78-1.61-.52-.39-1.18-.58-1.98-.58s-1.45.28-1.98.84c-.52.56-.78,1.31-.78,2.26v2.59c0,.95.26,1.7.78,2.26.52.56,1.18.84,1.98.84Z"/>
    <path class="cls-6" d="M199.88,556.36c-1.46,0-2.56-.37-3.31-1.11-.75-.74-1.12-1.82-1.12-3.24v-7.31h-2.1v-3.27h1.05c.57,0,.96-.14,1.17-.41.21-.27.31-.67.31-1.18v-2.45h3.78v4.04h2.96v3.27h-2.96v8.39h2.73v3.27h-2.5Z"/>
    <path class="cls-6" d="M204.4,535.33h4.21v8.64h.17c.27-.78.73-1.45,1.39-2.02.66-.57,1.58-.85,2.76-.85,1.54,0,2.7.51,3.48,1.53s1.18,2.48,1.18,4.38v9.35h-4.21v-9.01c0-.97-.15-1.68-.46-2.15s-.84-.7-1.62-.7c-.34,0-.67.04-1,.13-.32.08-.61.22-.87.41s-.46.42-.61.7c-.15.27-.23.59-.23.95v9.67h-4.21v-21.04Z"/>
    <path class="cls-6" d="M226.42,556.7c-1.14,0-2.15-.18-3.04-.55-.89-.37-1.64-.89-2.26-1.56-.62-.67-1.08-1.49-1.39-2.46-.31-.97-.47-2.05-.47-3.24s.15-2.24.46-3.2c.3-.96.75-1.78,1.35-2.46.6-.68,1.33-1.21,2.2-1.58.87-.37,1.87-.55,2.99-.55,1.23,0,2.29.21,3.17.62.88.42,1.6.98,2.16,1.68.56.7.97,1.51,1.22,2.43.26.92.38,1.88.38,2.89v1.25h-9.58v.23c0,.98.26,1.75.8,2.33.53.57,1.36.86,2.5.86.87,0,1.58-.17,2.13-.52.55-.35,1.06-.77,1.54-1.25l2.1,2.62c-.66.78-1.53,1.39-2.6,1.82-1.07.44-2.29.66-3.65.66ZM226.34,544.19c-.85,0-1.52.28-2,.84-.48.56-.72,1.3-.72,2.23v.23h5.23v-.26c0-.91-.2-1.64-.61-2.2-.41-.56-1.04-.84-1.89-.84Z"/>
    <path class="cls-6" d="M254.42,557.44c0,.8-.14,1.5-.41,2.1s-.72,1.12-1.35,1.55c-.63.43-1.46.75-2.49.97-1.03.22-2.31.33-3.82.33-1.29,0-2.38-.08-3.28-.24-.9-.16-1.63-.39-2.19-.68-.56-.29-.97-.65-1.22-1.08s-.38-.92-.38-1.46c0-.83.25-1.49.74-1.96s1.17-.77,2.05-.88v-.31c-.72-.13-1.26-.44-1.62-.93-.36-.48-.54-1.05-.54-1.69,0-.4.08-.75.24-1.04s.37-.55.63-.77c.26-.22.55-.39.9-.53.34-.13.68-.24,1.02-.31v-.11c-.91-.42-1.58-.99-2.02-1.72-.44-.73-.65-1.58-.65-2.54,0-1.51.53-2.73,1.58-3.65,1.05-.92,2.66-1.38,4.82-1.38.99,0,1.83.09,2.53.28v-.57c0-.8.19-1.37.58-1.72.39-.35.94-.53,1.66-.53h2.36v3.13h-3.3v.17c.87.42,1.52.99,1.93,1.72.42.73.62,1.58.62,2.54,0,1.5-.53,2.7-1.58,3.6-1.05.9-2.66,1.35-4.82,1.35-.97,0-1.85-.1-2.64-.31-.44.28-.65.68-.65,1.19,0,.36.14.64.41.84s.73.3,1.38.3h4.32c1.82,0,3.14.38,3.96,1.14s1.24,1.83,1.24,3.21ZM250.47,558.01c0-.44-.17-.77-.51-.99-.34-.23-.94-.34-1.79-.34h-5.12c-.19.19-.33.4-.41.64-.09.24-.13.47-.13.7,0,.55.24.95.71,1.21.47.26,1.28.38,2.42.38h1.71c1.14,0,1.94-.13,2.42-.38.47-.26.71-.66.71-1.21ZM246.41,548.29c.83,0,1.45-.17,1.86-.52.41-.35.61-.85.61-1.51v-.34c0-.66-.2-1.16-.61-1.51-.41-.35-1.03-.52-1.86-.52s-1.46.17-1.86.52c-.41.35-.61.85-.61,1.51v.34c0,.66.2,1.16.61,1.51.41.35,1.03.52,1.86.52Z"/>
    <path class="cls-6" d="M259.34,556.36c-1.44,0-2.5-.35-3.17-1.05-.67-.7-1.01-1.71-1.01-3.04v-16.94h4.21v17.77h1.88v3.27h-1.9Z"/>
    <path class="cls-6" d="M268.7,556.7c-1.1,0-2.08-.18-2.94-.54-.86-.36-1.59-.88-2.19-1.56-.6-.68-1.06-1.51-1.38-2.47-.32-.97-.48-2.05-.48-3.24s.16-2.27.48-3.24.78-1.79,1.38-2.46c.6-.67,1.33-1.19,2.19-1.55.86-.36,1.84-.54,2.94-.54s2.08.18,2.94.54c.86.36,1.59.88,2.19,1.55s1.06,1.49,1.38,2.46c.32.97.48,2.05.48,3.24s-.16,2.27-.48,3.24c-.32.97-.78,1.79-1.38,2.47-.6.68-1.33,1.2-2.19,1.56-.86.36-1.84.54-2.94.54ZM268.7,553.38c.83,0,1.48-.26,1.93-.77s.68-1.24.68-2.19v-3.04c0-.95-.23-1.68-.68-2.19s-1.1-.77-1.93-.77-1.48.26-1.93.77c-.45.51-.68,1.24-.68,2.19v3.04c0,.95.23,1.68.68,2.19.46.51,1.1.77,1.93.77Z"/>
    <path class="cls-6" d="M277.54,535.33h4.21v8.61h.14c.21-.83.69-1.52,1.44-2.05s1.61-.8,2.57-.8c1.89,0,3.33.66,4.29,1.99.97,1.33,1.45,3.26,1.45,5.8s-.48,4.48-1.45,5.81-2.4,2-4.29,2c-.49,0-.96-.07-1.39-.21s-.83-.34-1.18-.6-.65-.56-.9-.91c-.25-.35-.43-.72-.54-1.12h-.14v2.5h-4.21v-21.04ZM284.5,553.29c.8,0,1.45-.28,1.98-.84.52-.56.78-1.31.78-2.26v-2.59c0-.95-.26-1.7-.78-2.26-.52-.56-1.18-.84-1.98-.84s-1.45.19-1.98.58c-.52.39-.78.92-.78,1.61v4.41c0,.68.26,1.22.78,1.61.52.39,1.18.58,1.98.58Z"/>
    <path class="cls-6" d="M299.91,556.7c-1.14,0-2.15-.18-3.04-.55-.89-.37-1.64-.89-2.26-1.56-.62-.67-1.08-1.49-1.39-2.46-.31-.97-.47-2.05-.47-3.24s.15-2.24.46-3.2c.3-.96.75-1.78,1.35-2.46.6-.68,1.33-1.21,2.2-1.58.87-.37,1.87-.55,2.99-.55,1.23,0,2.29.21,3.17.62.88.42,1.6.98,2.16,1.68.56.7.97,1.51,1.22,2.43.26.92.38,1.88.38,2.89v1.25h-9.58v.23c0,.98.26,1.75.8,2.33.53.57,1.36.86,2.5.86.87,0,1.58-.17,2.13-.52.55-.35,1.06-.77,1.54-1.25l2.1,2.62c-.66.78-1.53,1.39-2.6,1.82-1.07.44-2.29.66-3.65.66ZM299.82,544.19c-.85,0-1.52.28-2,.84-.48.56-.72,1.3-.72,2.23v.23h5.23v-.26c0-.91-.2-1.64-.61-2.2-.41-.56-1.04-.84-1.89-.84Z"/>
  </g>
  <rect class="cls-3" x="2.84" y="634.61" width="409.2" height="125.69" rx="62.85" ry="62.85"/>
  <g>
    <path class="cls-6" d="M123.45,691.79l-4.49-19.84h4.26l1.88,9.52,1.05,5.52h.09l1.25-5.52,2.19-9.52h4.72l2.22,9.52,1.22,5.52h.09l1.05-5.52,1.9-9.52h4.09l-4.61,19.84h-4.92l-2.5-10.75-.97-4.35h-.09l-.99,4.35-2.5,10.75h-4.95Z"/>
    <path class="cls-6" d="M148.72,675.28c-.85,0-1.47-.19-1.86-.58-.39-.39-.58-.89-.58-1.49v-.63c0-.61.19-1.1.58-1.49.39-.39,1.01-.58,1.86-.58s1.47.2,1.86.58c.39.39.58.89.58,1.49v.63c0,.61-.19,1.1-.58,1.49-.39.39-1.01.58-1.86.58ZM146.62,676.87h4.21v14.92h-4.21v-14.92Z"/>
    <path class="cls-6" d="M162.77,689.29h-.14c-.11.4-.29.77-.54,1.12-.25.35-.54.65-.9.91-.35.26-.75.45-1.19.6-.45.14-.91.21-1.38.21-1.9,0-3.33-.67-4.29-2-.97-1.34-1.45-3.27-1.45-5.81s.48-4.47,1.45-5.8c.97-1.33,2.4-1.99,4.29-1.99.97,0,1.82.27,2.57.8.75.53,1.23,1.21,1.44,2.05h.14v-8.61h4.21v21.04h-4.21v-2.5ZM160.01,688.72c.8,0,1.45-.19,1.98-.58.52-.39.78-.92.78-1.61v-4.41c0-.68-.26-1.22-.78-1.61-.52-.39-1.18-.58-1.98-.58s-1.45.28-1.98.84c-.52.56-.78,1.31-.78,2.26v2.59c0,.95.26,1.7.78,2.26.52.56,1.18.84,1.98.84Z"/>
    <path class="cls-6" d="M175.98,692.13c-1.14,0-2.15-.18-3.04-.55-.89-.37-1.64-.89-2.26-1.56-.62-.67-1.08-1.49-1.39-2.46-.31-.97-.47-2.05-.47-3.24s.15-2.24.45-3.2.75-1.78,1.35-2.46c.6-.68,1.33-1.21,2.2-1.58.87-.37,1.87-.55,2.98-.55,1.23,0,2.29.21,3.17.62.88.42,1.6.98,2.16,1.68.56.7.97,1.51,1.22,2.43.26.92.38,1.88.38,2.89v1.25h-9.58v.23c0,.98.27,1.75.8,2.33.53.57,1.36.86,2.5.86.87,0,1.58-.17,2.13-.52.55-.35,1.06-.77,1.54-1.25l2.1,2.62c-.66.78-1.53,1.39-2.6,1.82-1.07.44-2.29.66-3.65.66ZM175.9,679.63c-.85,0-1.52.28-2,.84-.48.56-.73,1.3-.73,2.23v.23h5.23v-.26c0-.91-.2-1.64-.61-2.2-.41-.56-1.04-.84-1.89-.84Z"/>
    <path class="cls-6" d="M190.17,691.79v-14.92h4.21v3.24h.14c.08-.42.21-.82.4-1.21.19-.39.44-.73.75-1.04.31-.3.69-.54,1.12-.73.44-.18.95-.27,1.54-.27h.74v3.92h-1.05c-1.23,0-2.15.16-2.74.48-.6.32-.9.92-.9,1.79v8.73h-4.21Z"/>
    <path class="cls-6" d="M211.15,691.79c-.76,0-1.39-.24-1.89-.71-.5-.47-.82-1.11-.95-1.9h-.17c-.23.97-.73,1.7-1.51,2.2-.78.5-1.73.75-2.87.75-1.5,0-2.64-.4-3.44-1.19-.8-.79-1.19-1.84-1.19-3.15,0-1.57.57-2.73,1.72-3.5,1.15-.76,2.7-1.15,4.68-1.15h2.36v-.94c0-.72-.19-1.29-.57-1.72-.38-.43-1.01-.64-1.9-.64-.83,0-1.5.18-1.99.54-.49.36-.9.77-1.22,1.22l-2.5-2.23c.61-.9,1.37-1.6,2.29-2.1.92-.5,2.17-.76,3.74-.76,2.12,0,3.71.46,4.78,1.39,1.06.93,1.59,2.28,1.59,4.06v6.54h1.39v3.27h-2.33ZM205.32,689.21c.7,0,1.3-.15,1.81-.45.5-.3.75-.79.75-1.47v-1.75h-2.05c-1.65,0-2.47.55-2.47,1.66v.42c0,.54.17.94.51,1.2.34.25.82.38,1.45.38Z"/>
    <path class="cls-6" d="M215.15,691.79v-14.92h4.21v2.53h.17c.27-.78.73-1.45,1.39-2.02.66-.57,1.58-.85,2.76-.85,1.54,0,2.7.51,3.48,1.53s1.18,2.48,1.18,4.38v9.35h-4.21v-9.01c0-.97-.15-1.68-.46-2.15s-.84-.7-1.62-.7c-.34,0-.67.04-1,.13-.32.08-.61.22-.87.41s-.46.42-.61.7c-.15.27-.23.59-.23.95v9.67h-4.21Z"/>
    <path class="cls-6" d="M244.77,692.87c0,.8-.14,1.5-.41,2.1s-.72,1.12-1.35,1.55c-.63.43-1.46.75-2.49.97-1.03.22-2.31.33-3.82.33-1.29,0-2.38-.08-3.28-.24-.9-.16-1.63-.39-2.19-.68-.56-.29-.97-.65-1.22-1.08s-.38-.92-.38-1.46c0-.83.25-1.49.74-1.96s1.17-.77,2.05-.88v-.31c-.72-.13-1.26-.44-1.62-.93-.36-.48-.54-1.05-.54-1.69,0-.4.08-.75.24-1.04s.37-.55.63-.77c.26-.22.55-.39.9-.53.34-.13.68-.24,1.02-.31v-.11c-.91-.42-1.58-.99-2.02-1.72-.44-.73-.65-1.58-.65-2.54,0-1.51.53-2.73,1.58-3.65,1.05-.92,2.66-1.38,4.82-1.38.99,0,1.83.09,2.53.28v-.57c0-.8.19-1.37.58-1.72.39-.35.94-.53,1.66-.53h2.36v3.13h-3.3v.17c.87.42,1.52.99,1.93,1.72.42.73.62,1.58.62,2.54,0,1.5-.53,2.7-1.58,3.6-1.05.9-2.66,1.35-4.82,1.35-.97,0-1.85-.1-2.64-.31-.44.28-.65.68-.65,1.19,0,.36.14.64.41.84s.73.3,1.38.3h4.32c1.82,0,3.14.38,3.96,1.14s1.24,1.83,1.24,3.21ZM240.82,693.44c0-.44-.17-.77-.51-.99-.34-.23-.94-.34-1.79-.34h-5.12c-.19.19-.33.4-.41.64-.09.24-.13.47-.13.7,0,.55.24.95.71,1.21.47.26,1.28.38,2.42.38h1.71c1.14,0,1.94-.13,2.42-.38.47-.26.71-.66.71-1.21ZM236.76,683.72c.83,0,1.45-.17,1.86-.52.41-.35.61-.85.61-1.51v-.34c0-.66-.2-1.16-.61-1.51-.41-.35-1.03-.52-1.86-.52s-1.46.17-1.86.52c-.41.35-.61.85-.61,1.51v.34c0,.66.2,1.16.61,1.51.41.35,1.03.52,1.86.52Z"/>
    <path class="cls-6" d="M251.57,692.13c-1.14,0-2.15-.18-3.04-.55-.89-.37-1.64-.89-2.26-1.56-.62-.67-1.08-1.49-1.39-2.46-.31-.97-.47-2.05-.47-3.24s.15-2.24.46-3.2c.3-.96.75-1.78,1.35-2.46.6-.68,1.33-1.21,2.2-1.58.87-.37,1.87-.55,2.99-.55,1.23,0,2.29.21,3.17.62.88.42,1.6.98,2.16,1.68.56.7.97,1.51,1.22,2.43.26.92.38,1.88.38,2.89v1.25h-9.58v.23c0,.98.26,1.75.8,2.33.53.57,1.36.86,2.5.86.87,0,1.58-.17,2.13-.52.55-.35,1.06-.77,1.54-1.25l2.1,2.62c-.66.78-1.53,1.39-2.6,1.82-1.07.44-2.29.66-3.65.66ZM251.48,679.63c-.85,0-1.52.28-2,.84-.48.56-.72,1.3-.72,2.23v.23h5.23v-.26c0-.91-.2-1.64-.61-2.2-.41-.56-1.04-.84-1.89-.84Z"/>
    <path class="cls-6" d="M271.81,692.13c-1.1,0-2.08-.18-2.94-.54-.86-.36-1.59-.88-2.19-1.56-.6-.68-1.06-1.51-1.38-2.47-.32-.97-.48-2.05-.48-3.24s.16-2.27.48-3.24.78-1.79,1.38-2.46c.6-.67,1.33-1.19,2.19-1.55.86-.36,1.84-.54,2.94-.54s2.08.18,2.94.54c.86.36,1.59.88,2.19,1.55s1.06,1.49,1.38,2.46c.32.97.48,2.05.48,3.24s-.16,2.27-.48,3.24c-.32.97-.78,1.79-1.38,2.47-.6.68-1.33,1.2-2.19,1.56-.86.36-1.84.54-2.94.54ZM271.81,688.81c.83,0,1.48-.26,1.93-.77s.68-1.24.68-2.19v-3.04c0-.95-.23-1.68-.68-2.19s-1.1-.77-1.93-.77-1.48.26-1.93.77c-.45.51-.68,1.24-.68,2.19v3.04c0,.95.23,1.68.68,2.19.46.51,1.1.77,1.93.77Z"/>
    <path class="cls-6" d="M281.22,680.14h-2.1v-3.27h2.1v-1.76c0-1.44.38-2.53,1.14-3.25.76-.73,1.87-1.09,3.33-1.09h2.73v3.27h-2.99v2.84h2.99v3.27h-2.99v11.66h-4.21v-11.66Z"/>
    <path class="cls-6" d="M131.84,722.06c-1.46,0-2.56-.37-3.31-1.11-.75-.74-1.12-1.82-1.12-3.24v-7.31h-2.1v-3.27h1.05c.57,0,.96-.14,1.17-.41.21-.27.31-.67.31-1.18v-2.45h3.78v4.04h2.96v3.27h-2.96v8.39h2.73v3.27h-2.5Z"/>
    <path class="cls-6" d="M142.47,722.4c-1.14,0-2.15-.18-3.04-.55-.89-.37-1.64-.89-2.26-1.56-.62-.67-1.08-1.49-1.39-2.46-.31-.97-.47-2.05-.47-3.24s.15-2.24.45-3.2.75-1.78,1.35-2.46c.6-.68,1.33-1.21,2.2-1.58.87-.37,1.87-.55,2.98-.55,1.23,0,2.29.21,3.17.62.88.42,1.6.98,2.16,1.68.56.7.97,1.51,1.22,2.43.26.92.38,1.88.38,2.89v1.25h-9.58v.23c0,.98.27,1.75.8,2.33.53.57,1.36.86,2.5.86.87,0,1.58-.17,2.13-.52.55-.35,1.06-.77,1.54-1.25l2.1,2.62c-.66.78-1.53,1.39-2.6,1.82-1.07.44-2.29.66-3.65.66ZM142.38,709.89c-.85,0-1.52.28-2,.84-.48.56-.73,1.3-.73,2.23v.23h5.23v-.26c0-.91-.2-1.64-.61-2.2-.41-.56-1.04-.84-1.89-.84Z"/>
    <path class="cls-6" d="M157.11,722.4c-1.12,0-2.11-.18-2.98-.55-.87-.37-1.6-.89-2.19-1.56-.59-.67-1.03-1.49-1.34-2.46-.3-.97-.45-2.05-.45-3.24s.15-2.27.45-3.23.75-1.78,1.34-2.46c.59-.68,1.32-1.2,2.19-1.56.87-.36,1.87-.54,2.98-.54,1.52,0,2.78.34,3.79,1.02,1.01.68,1.74,1.64,2.17,2.87l-3.41,1.48c-.13-.57-.41-1.05-.82-1.45-.42-.4-.99-.6-1.73-.6-.85,0-1.5.28-1.93.84-.44.56-.65,1.31-.65,2.26v2.79c0,.95.22,1.7.65,2.25.44.55,1.08.83,1.93.83.76,0,1.36-.2,1.81-.61.44-.41.77-.94.98-1.61l3.27,1.42c-.49,1.42-1.26,2.46-2.29,3.13-1.03.66-2.29,1-3.77,1Z"/>
    <path class="cls-6" d="M164.64,701.02h4.21v8.64h.17c.27-.78.73-1.45,1.39-2.02.66-.57,1.58-.85,2.76-.85,1.54,0,2.7.51,3.48,1.53.79,1.02,1.18,2.48,1.18,4.38v9.35h-4.21v-9.01c0-.97-.15-1.68-.46-2.15s-.84-.7-1.62-.7c-.34,0-.67.04-1,.13-.32.08-.61.22-.87.41s-.46.42-.61.7c-.15.27-.23.59-.23.95v9.67h-4.21v-21.04Z"/>
    <path class="cls-6" d="M180.45,722.06v-14.92h4.21v2.53h.17c.27-.78.73-1.45,1.39-2.02.66-.57,1.58-.85,2.76-.85,1.54,0,2.7.51,3.48,1.53.79,1.02,1.18,2.48,1.18,4.38v9.35h-4.21v-9.01c0-.97-.15-1.68-.46-2.15s-.84-.7-1.62-.7c-.34,0-.67.04-1,.13-.32.08-.61.22-.87.41s-.46.42-.61.7c-.15.27-.23.59-.23.95v9.67h-4.21Z"/>
    <path class="cls-6" d="M202.31,722.4c-1.1,0-2.08-.18-2.94-.54-.86-.36-1.59-.88-2.19-1.56-.6-.68-1.06-1.51-1.38-2.47-.32-.97-.48-2.05-.48-3.24s.16-2.27.48-3.24c.32-.97.78-1.79,1.38-2.46.6-.67,1.33-1.19,2.19-1.55.86-.36,1.84-.54,2.94-.54s2.08.18,2.94.54c.86.36,1.59.88,2.19,1.55.6.67,1.06,1.49,1.38,2.46s.48,2.05.48,3.24-.16,2.27-.48,3.24c-.32.97-.78,1.79-1.38,2.47-.6.68-1.33,1.2-2.19,1.56-.86.36-1.84.54-2.94.54ZM202.31,719.08c.83,0,1.48-.26,1.93-.77.46-.51.68-1.24.68-2.19v-3.04c0-.95-.23-1.68-.68-2.19-.45-.51-1.1-.77-1.93-.77s-1.48.26-1.93.77c-.46.51-.68,1.24-.68,2.19v3.04c0,.95.23,1.68.68,2.19.45.51,1.1.77,1.93.77Z"/>
    <path class="cls-6" d="M215.33,722.06c-1.44,0-2.5-.35-3.17-1.05s-1.01-1.71-1.01-3.04v-16.94h4.21v17.77h1.88v3.27h-1.9Z"/>
    <path class="cls-6" d="M224.68,722.4c-1.1,0-2.08-.18-2.94-.54-.86-.36-1.59-.88-2.19-1.56-.6-.68-1.06-1.51-1.38-2.47-.32-.97-.48-2.05-.48-3.24s.16-2.27.48-3.24.78-1.79,1.38-2.46c.6-.67,1.33-1.19,2.19-1.55.86-.36,1.84-.54,2.94-.54s2.08.18,2.94.54c.86.36,1.59.88,2.19,1.55s1.06,1.49,1.38,2.46c.32.97.48,2.05.48,3.24s-.16,2.27-.48,3.24c-.32.97-.78,1.79-1.38,2.47-.6.68-1.33,1.2-2.19,1.56-.86.36-1.84.54-2.94.54ZM224.68,719.08c.83,0,1.48-.26,1.93-.77s.68-1.24.68-2.19v-3.04c0-.95-.23-1.68-.68-2.19s-1.1-.77-1.93-.77-1.48.26-1.93.77c-.45.51-.68,1.24-.68,2.19v3.04c0,.95.23,1.68.68,2.19.46.51,1.1.77,1.93.77Z"/>
    <path class="cls-6" d="M247.33,723.14c0,.8-.14,1.5-.41,2.1s-.72,1.12-1.35,1.55c-.63.43-1.46.75-2.49.97-1.03.22-2.31.33-3.82.33-1.29,0-2.38-.08-3.28-.24-.9-.16-1.63-.39-2.19-.68-.56-.29-.97-.65-1.22-1.08s-.38-.92-.38-1.46c0-.83.25-1.49.74-1.96s1.17-.77,2.05-.88v-.31c-.72-.13-1.26-.44-1.62-.93-.36-.48-.54-1.05-.54-1.69,0-.4.08-.75.24-1.04s.37-.55.63-.77c.26-.22.55-.39.9-.53.34-.13.68-.24,1.02-.31v-.11c-.91-.42-1.58-.99-2.02-1.72-.44-.73-.65-1.58-.65-2.54,0-1.51.53-2.73,1.58-3.65,1.05-.92,2.66-1.38,4.82-1.38.99,0,1.83.09,2.53.28v-.57c0-.8.19-1.37.58-1.72.39-.35.94-.53,1.66-.53h2.36v3.13h-3.3v.17c.87.42,1.52.99,1.93,1.72.42.73.62,1.58.62,2.54,0,1.5-.53,2.7-1.58,3.6-1.05.9-2.66,1.35-4.82,1.35-.97,0-1.85-.1-2.64-.31-.44.28-.65.68-.65,1.19,0,.36.14.64.41.84s.73.3,1.38.3h4.32c1.82,0,3.14.38,3.96,1.14s1.24,1.83,1.24,3.21ZM243.38,723.71c0-.44-.17-.77-.51-.99-.34-.23-.94-.34-1.79-.34h-5.12c-.19.19-.33.4-.41.64-.09.24-.13.47-.13.7,0,.55.24.95.71,1.21.47.26,1.28.38,2.42.38h1.71c1.14,0,1.94-.13,2.42-.38.47-.26.71-.66.71-1.21ZM239.32,713.99c.83,0,1.45-.17,1.86-.52.41-.35.61-.85.61-1.51v-.34c0-.66-.2-1.16-.61-1.51-.41-.35-1.03-.52-1.86-.52s-1.46.17-1.86.52c-.41.35-.61.85-.61,1.51v.34c0,.66.2,1.16.61,1.51.41.35,1.03.52,1.86.52Z"/>
    <path class="cls-6" d="M250.18,705.54c-.85,0-1.47-.19-1.86-.58-.39-.39-.58-.89-.58-1.49v-.63c0-.61.19-1.1.58-1.49s1.01-.58,1.86-.58,1.47.2,1.86.58c.39.39.58.89.58,1.49v.63c0,.61-.19,1.1-.58,1.49s-1.01.58-1.86.58ZM248.07,707.14h4.21v14.92h-4.21v-14.92Z"/>
    <path class="cls-6" d="M261.29,722.4c-1.14,0-2.15-.18-3.04-.55-.89-.37-1.64-.89-2.26-1.56-.62-.67-1.08-1.49-1.39-2.46-.31-.97-.47-2.05-.47-3.24s.15-2.24.46-3.2c.3-.96.75-1.78,1.35-2.46.6-.68,1.33-1.21,2.2-1.58.87-.37,1.87-.55,2.99-.55,1.23,0,2.29.21,3.17.62.88.42,1.6.98,2.16,1.68.56.7.97,1.51,1.22,2.43.26.92.38,1.88.38,2.89v1.25h-9.58v.23c0,.98.26,1.75.8,2.33.53.57,1.36.86,2.5.86.87,0,1.58-.17,2.13-.52.55-.35,1.06-.77,1.54-1.25l2.1,2.62c-.66.78-1.53,1.39-2.6,1.82-1.07.44-2.29.66-3.65.66ZM261.21,709.89c-.85,0-1.52.28-2,.84-.48.56-.72,1.3-.72,2.23v.23h5.23v-.26c0-.91-.2-1.64-.61-2.2-.41-.56-1.04-.84-1.89-.84Z"/>
    <path class="cls-6" d="M274.96,722.4c-1.44,0-2.65-.23-3.64-.7s-1.87-1.12-2.64-1.98l2.47-2.5c.53.59,1.12,1.05,1.76,1.39s1.37.51,2.19.51,1.41-.13,1.73-.38.48-.6.48-1.04c0-.7-.5-1.12-1.51-1.25l-1.62-.2c-3.35-.42-5.03-1.95-5.03-4.61,0-.72.14-1.38.41-1.98.27-.6.66-1.11,1.17-1.54.5-.43,1.11-.76,1.82-1,.71-.24,1.51-.35,2.4-.35.78,0,1.46.05,2.06.16.6.1,1.13.26,1.59.45.46.2.89.45,1.28.74.39.29.77.62,1.15.98l-2.42,2.47c-.47-.47-1.01-.85-1.61-1.12-.6-.27-1.21-.41-1.83-.41-.72,0-1.23.11-1.54.34-.3.23-.46.53-.46.91,0,.4.11.71.33.92s.63.37,1.24.47l1.68.23c3.28.44,4.92,1.93,4.92,4.49,0,.72-.15,1.38-.45,1.99-.3.61-.74,1.13-1.29,1.58-.56.45-1.23.79-2.02,1.04-.79.25-1.66.37-2.63.37Z"/>
  </g>
  <rect class="cls-3" x="2.84" y="303.3" width="409.2" height="125.69" rx="62.85" ry="62.85"/>
  <g>
    <path class="cls-6" d="M81.84,360.48v-3.44h2.56v-12.96h-2.56v-3.44h9.44v3.44h-2.56v12.96h2.56v3.44h-9.44Z"/>
    <path class="cls-6" d="M93.52,360.48v-14.92h4.21v2.53h.17c.27-.78.73-1.45,1.39-2.02.66-.57,1.58-.85,2.76-.85,1.54,0,2.7.51,3.48,1.54.79,1.02,1.18,2.48,1.18,4.38v9.35h-4.21v-9.01c0-.97-.15-1.68-.46-2.15s-.84-.7-1.62-.7c-.34,0-.67.04-1,.13-.32.09-.61.22-.87.41-.26.19-.46.42-.61.7-.15.27-.23.59-.23.95v9.67h-4.21Z"/>
    <path class="cls-6" d="M114.55,360.48c-1.46,0-2.56-.37-3.31-1.11-.75-.74-1.12-1.82-1.12-3.24v-7.31h-2.1v-3.27h1.05c.57,0,.96-.14,1.17-.41.21-.27.31-.67.31-1.18v-2.44h3.78v4.04h2.96v3.27h-2.96v8.39h2.73v3.27h-2.5Z"/>
    <path class="cls-6" d="M125.19,360.82c-1.14,0-2.15-.19-3.04-.55-.89-.37-1.64-.89-2.26-1.56-.62-.67-1.08-1.49-1.39-2.46-.31-.97-.47-2.05-.47-3.24s.15-2.24.45-3.2c.3-.96.75-1.78,1.35-2.46.6-.68,1.33-1.21,2.2-1.58.87-.37,1.87-.55,2.98-.55,1.23,0,2.29.21,3.17.63.88.42,1.6.98,2.16,1.68s.97,1.51,1.22,2.43c.26.92.38,1.88.38,2.89v1.25h-9.58v.23c0,.98.27,1.75.8,2.33.53.57,1.36.86,2.5.86.87,0,1.58-.17,2.13-.52.55-.35,1.06-.77,1.54-1.25l2.1,2.62c-.66.78-1.53,1.39-2.6,1.82-1.07.44-2.29.66-3.65.66ZM125.1,348.31c-.85,0-1.52.28-2,.84-.48.56-.73,1.3-.73,2.23v.23h5.23v-.26c0-.91-.2-1.64-.61-2.2-.41-.56-1.04-.84-1.89-.84Z"/>
    <path class="cls-6" d="M133.8,360.48v-14.92h4.21v3.24h.14c.08-.42.21-.82.4-1.21.19-.39.44-.73.75-1.04.31-.3.69-.54,1.12-.72.44-.18.95-.27,1.54-.27h.74v3.92h-1.05c-1.23,0-2.15.16-2.74.48-.6.32-.9.92-.9,1.79v8.73h-4.21Z"/>
    <path class="cls-6" d="M144.15,360.48v-14.92h4.21v2.53h.17c.27-.78.73-1.45,1.39-2.02.66-.57,1.58-.85,2.76-.85,1.54,0,2.7.51,3.48,1.54.79,1.02,1.18,2.48,1.18,4.38v9.35h-4.21v-9.01c0-.97-.15-1.68-.46-2.15s-.84-.7-1.62-.7c-.34,0-.67.04-1,.13-.32.09-.61.22-.87.41-.26.19-.46.42-.61.7-.15.27-.23.59-.23.95v9.67h-4.21Z"/>
    <path class="cls-6" d="M170.98,360.48c-.76,0-1.39-.24-1.89-.71-.5-.47-.82-1.11-.95-1.9h-.17c-.23.97-.73,1.7-1.51,2.2-.78.5-1.73.75-2.87.75-1.5,0-2.64-.4-3.44-1.19-.8-.79-1.19-1.84-1.19-3.15,0-1.57.57-2.73,1.72-3.5,1.15-.76,2.7-1.15,4.68-1.15h2.36v-.94c0-.72-.19-1.29-.57-1.72-.38-.43-1.01-.64-1.9-.64-.83,0-1.5.18-1.99.54s-.9.77-1.22,1.22l-2.5-2.23c.61-.9,1.37-1.6,2.29-2.1.92-.5,2.17-.76,3.74-.76,2.12,0,3.71.46,4.78,1.39,1.06.93,1.59,2.28,1.59,4.06v6.54h1.39v3.27h-2.33ZM165.15,357.89c.7,0,1.3-.15,1.81-.45.5-.3.75-.79.75-1.47v-1.75h-2.05c-1.65,0-2.47.55-2.47,1.66v.42c0,.55.17.94.51,1.2.34.25.82.38,1.45.38Z"/>
    <path class="cls-6" d="M180.05,360.48c-1.46,0-2.56-.37-3.31-1.11-.75-.74-1.12-1.82-1.12-3.24v-7.31h-2.1v-3.27h1.05c.57,0,.96-.14,1.17-.41.21-.27.31-.67.31-1.18v-2.44h3.78v4.04h2.96v3.27h-2.96v8.39h2.73v3.27h-2.5Z"/>
    <path class="cls-6" d="M186.67,343.96c-.85,0-1.47-.19-1.86-.58-.39-.39-.58-.89-.58-1.49v-.63c0-.61.19-1.1.58-1.49s1.01-.58,1.86-.58,1.47.19,1.86.58c.39.39.58.89.58,1.49v.63c0,.61-.19,1.1-.58,1.49s-1.01.58-1.86.58ZM184.57,345.55h4.21v14.92h-4.21v-14.92Z"/>
    <path class="cls-6" d="M197.62,360.82c-1.1,0-2.08-.18-2.94-.54-.86-.36-1.59-.88-2.19-1.56-.6-.68-1.06-1.51-1.38-2.47-.32-.97-.48-2.05-.48-3.24s.16-2.27.48-3.24c.32-.97.78-1.79,1.38-2.46.6-.67,1.33-1.19,2.19-1.55.86-.36,1.84-.54,2.94-.54s2.08.18,2.94.54c.86.36,1.59.88,2.19,1.55.6.67,1.06,1.49,1.38,2.46s.48,2.05.48,3.24-.16,2.27-.48,3.24c-.32.97-.78,1.79-1.38,2.47-.6.68-1.33,1.2-2.19,1.56-.86.36-1.84.54-2.94.54ZM197.62,357.49c.83,0,1.48-.26,1.93-.77.46-.51.68-1.24.68-2.19v-3.04c0-.95-.23-1.68-.68-2.19-.45-.51-1.1-.77-1.93-.77s-1.48.26-1.93.77c-.46.51-.68,1.24-.68,2.19v3.04c0,.95.23,1.68.68,2.19.45.51,1.1.77,1.93.77Z"/>
    <path class="cls-6" d="M206.46,360.48v-14.92h4.21v2.53h.17c.27-.78.73-1.45,1.39-2.02.66-.57,1.58-.85,2.76-.85,1.54,0,2.7.51,3.48,1.54.79,1.02,1.18,2.48,1.18,4.38v9.35h-4.21v-9.01c0-.97-.15-1.68-.46-2.15s-.84-.7-1.62-.7c-.34,0-.67.04-1,.13-.32.09-.61.22-.87.41-.26.19-.46.42-.61.7-.15.27-.23.59-.23.95v9.67h-4.21Z"/>
    <path class="cls-6" d="M233.29,360.48c-.76,0-1.39-.24-1.89-.71s-.82-1.11-.95-1.9h-.17c-.23.97-.73,1.7-1.51,2.2s-1.73.75-2.87.75c-1.5,0-2.64-.4-3.44-1.19-.8-.79-1.19-1.84-1.19-3.15,0-1.57.57-2.73,1.72-3.5,1.15-.76,2.71-1.15,4.68-1.15h2.36v-.94c0-.72-.19-1.29-.57-1.72-.38-.43-1.01-.64-1.9-.64-.83,0-1.5.18-1.99.54s-.9.77-1.22,1.22l-2.5-2.23c.61-.9,1.37-1.6,2.29-2.1s2.17-.76,3.74-.76c2.12,0,3.71.46,4.78,1.39,1.06.93,1.59,2.28,1.59,4.06v6.54h1.39v3.27h-2.33ZM227.46,357.89c.7,0,1.3-.15,1.81-.45.5-.3.75-.79.75-1.47v-1.75h-2.05c-1.65,0-2.47.55-2.47,1.66v.42c0,.55.17.94.51,1.2.34.25.82.38,1.45.38Z"/>
    <path class="cls-6" d="M241.48,360.48c-1.44,0-2.5-.35-3.17-1.05-.67-.7-1.01-1.71-1.01-3.04v-16.94h4.21v17.77h1.88v3.27h-1.9Z"/>
    <path class="cls-6" d="M255.58,360.48c-1.46,0-2.56-.37-3.31-1.11-.75-.74-1.12-1.82-1.12-3.24v-7.31h-2.1v-3.27h1.05c.57,0,.96-.14,1.17-.41.21-.27.31-.67.31-1.18v-2.44h3.78v4.04h2.96v3.27h-2.96v8.39h2.73v3.27h-2.5Z"/>
    <path class="cls-6" d="M266.21,360.82c-1.14,0-2.15-.19-3.04-.55-.89-.37-1.64-.89-2.26-1.56-.62-.67-1.08-1.49-1.39-2.46-.31-.97-.47-2.05-.47-3.24s.15-2.24.46-3.2c.3-.96.75-1.78,1.35-2.46.6-.68,1.33-1.21,2.2-1.58s1.87-.55,2.99-.55c1.23,0,2.29.21,3.17.63.88.42,1.6.98,2.16,1.68.56.7.97,1.51,1.22,2.43.26.92.38,1.88.38,2.89v1.25h-9.58v.23c0,.98.26,1.75.8,2.33.53.57,1.36.86,2.5.86.87,0,1.58-.17,2.13-.52s1.06-.77,1.54-1.25l2.1,2.62c-.66.78-1.53,1.39-2.6,1.82-1.07.44-2.29.66-3.65.66ZM266.12,348.31c-.85,0-1.52.28-2,.84-.48.56-.72,1.3-.72,2.23v.23h5.23v-.26c0-.91-.2-1.64-.61-2.2-.41-.56-1.04-.84-1.89-.84Z"/>
    <path class="cls-6" d="M285.85,360.48c-.76,0-1.39-.24-1.89-.71s-.82-1.11-.95-1.9h-.17c-.23.97-.73,1.7-1.51,2.2s-1.73.75-2.87.75c-1.5,0-2.64-.4-3.44-1.19-.8-.79-1.19-1.84-1.19-3.15,0-1.57.57-2.73,1.72-3.5,1.15-.76,2.71-1.15,4.68-1.15h2.36v-.94c0-.72-.19-1.29-.57-1.72-.38-.43-1.01-.64-1.9-.64-.83,0-1.5.18-1.99.54s-.9.77-1.22,1.22l-2.5-2.23c.61-.9,1.37-1.6,2.29-2.1s2.17-.76,3.74-.76c2.12,0,3.71.46,4.78,1.39,1.06.93,1.59,2.28,1.59,4.06v6.54h1.39v3.27h-2.33ZM280.02,357.89c.7,0,1.3-.15,1.81-.45.5-.3.75-.79.75-1.47v-1.75h-2.05c-1.65,0-2.47.55-2.47,1.66v.42c0,.55.17.94.51,1.2.34.25.82.38,1.45.38Z"/>
    <path class="cls-6" d="M289.86,360.48v-14.92h4.21v2.53h.17c.27-.8.72-1.47,1.37-2.03.64-.56,1.52-.84,2.64-.84,1.02,0,1.89.26,2.62.77.72.51,1.24,1.26,1.56,2.25h.08c.13-.42.34-.81.61-1.18.27-.37.61-.69,1.01-.95.4-.27.84-.48,1.34-.64.49-.16,1.02-.24,1.59-.24,1.44,0,2.54.51,3.31,1.54s1.15,2.48,1.15,4.38v9.35h-4.21v-9.01c0-1.9-.68-2.84-2.05-2.84-.63,0-1.19.18-1.71.54-.51.36-.77.91-.77,1.65v9.67h-4.21v-9.01c0-1.9-.68-2.84-2.05-2.84-.3,0-.6.04-.9.13-.29.09-.56.22-.8.41-.24.19-.43.42-.57.7-.14.27-.21.59-.21.95v9.67h-4.21Z"/>
    <path class="cls-6" d="M319.19,360.82c-1.44,0-2.65-.23-3.64-.7-.99-.46-1.87-1.12-2.64-1.98l2.47-2.5c.53.59,1.12,1.05,1.76,1.39.64.34,1.37.51,2.19.51s1.41-.13,1.73-.38.48-.6.48-1.04c0-.7-.5-1.12-1.51-1.25l-1.62-.2c-3.35-.42-5.03-1.95-5.03-4.61,0-.72.14-1.38.41-1.98.27-.6.66-1.11,1.17-1.54.5-.43,1.11-.76,1.82-.99.71-.24,1.51-.36,2.4-.36.78,0,1.46.05,2.06.16.6.1,1.13.26,1.59.46.46.2.89.45,1.28.74.39.29.77.62,1.15.98l-2.42,2.47c-.47-.47-1.01-.85-1.61-1.12-.6-.27-1.21-.41-1.83-.41-.72,0-1.23.11-1.54.34-.3.23-.46.53-.46.91,0,.4.11.71.33.92s.63.37,1.24.47l1.68.23c3.28.44,4.92,1.93,4.92,4.49,0,.72-.15,1.38-.45,1.99-.3.61-.74,1.13-1.29,1.58s-1.23.79-2.02,1.04c-.79.25-1.66.37-2.63.37Z"/>
    <path class="cls-6" d="M86.34,390.74c-.76,0-1.39-.24-1.89-.71-.5-.47-.82-1.11-.95-1.9h-.17c-.23.97-.73,1.7-1.51,2.2-.78.5-1.73.75-2.87.75-1.5,0-2.64-.4-3.44-1.19-.8-.79-1.19-1.84-1.19-3.15,0-1.57.57-2.73,1.72-3.5,1.15-.76,2.7-1.15,4.68-1.15h2.36v-.94c0-.72-.19-1.29-.57-1.72-.38-.43-1.01-.64-1.9-.64-.83,0-1.5.18-1.99.54s-.9.77-1.22,1.22l-2.5-2.23c.61-.9,1.37-1.6,2.29-2.1.92-.5,2.17-.76,3.74-.76,2.12,0,3.71.46,4.78,1.39,1.06.93,1.59,2.28,1.59,4.06v6.54h1.39v3.27h-2.33ZM80.51,388.16c.7,0,1.3-.15,1.81-.45.5-.3.75-.79.75-1.47v-1.75h-2.05c-1.65,0-2.47.55-2.47,1.66v.42c0,.55.17.94.51,1.2.34.25.82.38,1.45.38Z"/>
    <path class="cls-6" d="M90.35,390.74v-14.92h4.21v2.53h.17c.27-.78.73-1.45,1.39-2.02.66-.57,1.58-.85,2.76-.85,1.54,0,2.7.51,3.48,1.54.79,1.02,1.18,2.48,1.18,4.38v9.35h-4.21v-9.01c0-.97-.15-1.68-.46-2.15s-.84-.7-1.62-.7c-.34,0-.67.04-1,.13-.32.09-.61.22-.87.41-.26.19-.46.42-.61.7-.15.27-.23.59-.23.95v9.67h-4.21Z"/>
    <path class="cls-6" d="M115.31,388.24h-.14c-.11.4-.29.77-.54,1.12-.25.35-.54.65-.9.91-.35.26-.75.46-1.19.6-.45.14-.91.21-1.38.21-1.9,0-3.33-.67-4.29-2-.97-1.34-1.45-3.27-1.45-5.81s.48-4.47,1.45-5.8c.97-1.33,2.4-1.99,4.29-1.99.97,0,1.82.27,2.57.8.75.53,1.23,1.21,1.44,2.05h.14v-8.61h4.21v21.04h-4.21v-2.5ZM112.55,387.67c.8,0,1.45-.19,1.98-.58.52-.39.78-.92.78-1.61v-4.41c0-.68-.26-1.22-.78-1.61-.52-.39-1.18-.58-1.98-.58s-1.45.28-1.98.84c-.52.56-.78,1.31-.78,2.26v2.59c0,.95.26,1.7.78,2.26.52.56,1.18.84,1.98.84Z"/>
    <path class="cls-6" d="M133.9,391.08c-1.12,0-2.11-.19-2.98-.55-.87-.37-1.6-.89-2.19-1.56-.59-.67-1.03-1.49-1.34-2.46-.3-.97-.45-2.05-.45-3.24s.15-2.27.45-3.23c.3-.96.75-1.78,1.34-2.46.59-.68,1.32-1.2,2.19-1.56.87-.36,1.87-.54,2.98-.54,1.52,0,2.78.34,3.79,1.02s1.74,1.64,2.17,2.87l-3.41,1.48c-.13-.57-.41-1.05-.82-1.45s-.99-.6-1.73-.6c-.85,0-1.5.28-1.93.84-.44.56-.65,1.31-.65,2.26v2.79c0,.95.22,1.7.65,2.25.44.55,1.08.82,1.93.82.76,0,1.36-.2,1.81-.61.44-.41.77-.94.98-1.61l3.27,1.42c-.49,1.42-1.26,2.46-2.29,3.13-1.03.66-2.29,1-3.77,1Z"/>
    <path class="cls-6" d="M150.24,388.24h-.14c-.13.38-.31.74-.53,1.08s-.5.64-.84.91c-.34.27-.74.47-1.21.63-.46.15-1,.23-1.61.23-1.53,0-2.7-.51-3.48-1.52-.79-1.01-1.18-2.47-1.18-4.36v-9.38h4.21v9.01c0,.91.16,1.61.48,2.1.32.49.87.74,1.65.74.32,0,.64-.05.97-.14.32-.09.61-.23.85-.41.25-.18.45-.4.6-.67.15-.27.23-.58.23-.94v-9.69h4.21v14.92h-4.21v-2.5Z"/>
    <path class="cls-6" d="M161.41,390.74c-1.44,0-2.5-.35-3.17-1.05-.67-.7-1.01-1.71-1.01-3.04v-16.94h4.21v17.77h1.88v3.27h-1.9Z"/>
    <path class="cls-6" d="M169.8,390.74c-1.46,0-2.56-.37-3.31-1.11-.75-.74-1.12-1.82-1.12-3.24v-7.31h-2.1v-3.27h1.05c.57,0,.96-.14,1.17-.41.21-.27.31-.67.31-1.18v-2.44h3.78v4.04h2.96v3.27h-2.96v8.39h2.73v3.27h-2.5Z"/>
    <path class="cls-6" d="M183.13,388.24h-.14c-.13.38-.31.74-.53,1.08s-.5.64-.84.91c-.34.27-.74.47-1.21.63-.46.15-1,.23-1.61.23-1.53,0-2.7-.51-3.48-1.52-.79-1.01-1.18-2.47-1.18-4.36v-9.38h4.21v9.01c0,.91.16,1.61.48,2.1.32.49.87.74,1.65.74.32,0,.64-.05.97-.14.32-.09.61-.23.85-.41.25-.18.45-.4.6-.67.15-.27.23-.58.23-.94v-9.69h4.21v14.92h-4.21v-2.5Z"/>
    <path class="cls-6" d="M190.13,390.74v-14.92h4.21v3.24h.14c.08-.42.21-.82.4-1.21.19-.39.44-.73.75-1.04.31-.3.69-.54,1.12-.72.44-.18.95-.27,1.54-.27h.74v3.92h-1.05c-1.23,0-2.15.16-2.74.48-.6.32-.9.92-.9,1.79v8.73h-4.21Z"/>
    <path class="cls-6" d="M211.1,390.74c-.76,0-1.39-.24-1.89-.71-.5-.47-.82-1.11-.95-1.9h-.17c-.23.97-.73,1.7-1.51,2.2-.78.5-1.73.75-2.87.75-1.5,0-2.64-.4-3.44-1.19-.8-.79-1.19-1.84-1.19-3.15,0-1.57.57-2.73,1.72-3.5,1.15-.76,2.7-1.15,4.68-1.15h2.36v-.94c0-.72-.19-1.29-.57-1.72-.38-.43-1.01-.64-1.9-.64-.83,0-1.5.18-1.99.54s-.9.77-1.22,1.22l-2.5-2.23c.61-.9,1.37-1.6,2.29-2.1.92-.5,2.17-.76,3.74-.76,2.12,0,3.71.46,4.78,1.39,1.06.93,1.59,2.28,1.59,4.06v6.54h1.39v3.27h-2.33ZM205.28,388.16c.7,0,1.3-.15,1.81-.45.5-.3.75-.79.75-1.47v-1.75h-2.05c-1.65,0-2.47.55-2.47,1.66v.42c0,.55.17.94.51,1.2.34.25.82.38,1.45.38Z"/>
    <path class="cls-6" d="M219.29,390.74c-1.44,0-2.5-.35-3.17-1.05-.67-.7-1.01-1.71-1.01-3.04v-16.94h4.21v17.77h1.88v3.27h-1.9Z"/>
    <path class="cls-6" d="M237.31,388.24h-.14c-.11.4-.29.77-.54,1.12-.25.35-.54.65-.9.91s-.75.46-1.19.6-.9.21-1.38.21c-1.9,0-3.33-.67-4.29-2-.97-1.34-1.45-3.27-1.45-5.81s.48-4.47,1.45-5.8c.97-1.33,2.4-1.99,4.29-1.99.97,0,1.82.27,2.57.8.75.53,1.23,1.21,1.44,2.05h.14v-8.61h4.21v21.04h-4.21v-2.5ZM234.55,387.67c.8,0,1.45-.19,1.98-.58.52-.39.78-.92.78-1.61v-4.41c0-.68-.26-1.22-.78-1.61-.52-.39-1.18-.58-1.98-.58s-1.46.28-1.98.84c-.52.56-.78,1.31-.78,2.26v2.59c0,.95.26,1.7.78,2.26.52.56,1.18.84,1.98.84Z"/>
    <path class="cls-6" d="M246.41,374.23c-.85,0-1.47-.19-1.86-.58-.39-.39-.58-.89-.58-1.49v-.63c0-.61.19-1.1.58-1.49.39-.39,1.01-.58,1.86-.58s1.47.19,1.86.58c.39.39.58.89.58,1.49v.63c0,.61-.19,1.1-.58,1.49-.39.39-1.01.58-1.86.58ZM244.31,375.82h4.21v14.92h-4.21v-14.92Z"/>
    <path class="cls-6" d="M254.48,390.74l-4.89-14.92h4.15l1.85,6.03,1.39,5.4h.23l1.39-5.4,1.79-6.03h3.98l-4.89,14.92h-5Z"/>
    <path class="cls-6" d="M271.45,391.08c-1.14,0-2.15-.19-3.04-.55-.89-.37-1.64-.89-2.26-1.56-.62-.67-1.08-1.49-1.39-2.46-.31-.97-.47-2.05-.47-3.24s.15-2.24.46-3.2c.3-.96.75-1.78,1.35-2.46.6-.68,1.33-1.21,2.2-1.58s1.87-.55,2.99-.55c1.23,0,2.29.21,3.17.63.88.42,1.6.98,2.16,1.68.56.7.97,1.51,1.22,2.43.26.92.38,1.88.38,2.89v1.25h-9.58v.23c0,.98.26,1.75.8,2.33.53.57,1.36.86,2.5.86.87,0,1.58-.17,2.13-.52s1.06-.77,1.54-1.25l2.1,2.62c-.66.78-1.53,1.39-2.6,1.82-1.07.44-2.29.66-3.65.66ZM271.37,378.58c-.85,0-1.52.28-2,.84-.48.56-.72,1.3-.72,2.23v.23h5.23v-.26c0-.91-.2-1.64-.61-2.2-.41-.56-1.04-.84-1.89-.84Z"/>
    <path class="cls-6" d="M280.07,390.74v-14.92h4.21v3.24h.14c.08-.42.21-.82.4-1.21.19-.39.44-.73.75-1.04.31-.3.69-.54,1.12-.72.44-.18.95-.27,1.54-.27h.74v3.92h-1.05c-1.23,0-2.15.16-2.74.48-.6.32-.9.92-.9,1.79v8.73h-4.21Z"/>
    <path class="cls-6" d="M295.47,391.08c-1.44,0-2.65-.23-3.64-.7-.99-.46-1.87-1.12-2.64-1.98l2.47-2.5c.53.59,1.12,1.05,1.76,1.39.64.34,1.37.51,2.19.51s1.41-.13,1.73-.38.48-.6.48-1.04c0-.7-.5-1.12-1.51-1.25l-1.62-.2c-3.35-.42-5.03-1.95-5.03-4.61,0-.72.14-1.38.41-1.98.27-.6.66-1.11,1.17-1.54.5-.43,1.11-.76,1.82-.99.71-.24,1.51-.36,2.4-.36.78,0,1.46.05,2.06.16.6.1,1.13.26,1.59.46.46.2.89.45,1.28.74.39.29.77.62,1.15.98l-2.42,2.47c-.47-.47-1.01-.85-1.61-1.12-.6-.27-1.21-.41-1.83-.41-.72,0-1.23.11-1.54.34-.3.23-.46.53-.46.91,0,.4.11.71.33.92s.63.37,1.24.47l1.68.23c3.28.44,4.92,1.93,4.92,4.49,0,.72-.15,1.38-.45,1.99-.3.61-.74,1.13-1.29,1.58s-1.23.79-2.02,1.04c-.79.25-1.66.37-2.63.37Z"/>
    <path class="cls-6" d="M305.71,374.23c-.85,0-1.47-.19-1.86-.58-.39-.39-.58-.89-.58-1.49v-.63c0-.61.19-1.1.58-1.49.39-.39,1.01-.58,1.86-.58s1.47.19,1.86.58c.39.39.58.89.58,1.49v.63c0,.61-.19,1.1-.58,1.49-.39.39-1.01.58-1.86.58ZM303.6,375.82h4.21v14.92h-4.21v-14.92Z"/>
    <path class="cls-6" d="M315.83,390.74c-1.46,0-2.56-.37-3.31-1.11-.75-.74-1.12-1.82-1.12-3.24v-7.31h-2.1v-3.27h1.05c.57,0,.96-.14,1.17-.41.21-.27.31-.67.31-1.18v-2.44h3.78v4.04h2.96v3.27h-2.96v8.39h2.73v3.27h-2.5Z"/>
    <path class="cls-6" d="M329.47,375.82h3.92l-5.74,17.23c-.38,1.16-.91,2.01-1.61,2.56-.69.55-1.68.82-2.97.82h-2.62v-3.27h2.81l.51-1.65-5.23-15.69h4.18l2.19,6.96,1.08,4.32h.17l1.11-4.32,2.19-6.96Z"/>
  </g>
  <rect class="cls-2" x=".79" y="801.74" width="413.31" height="125.69" rx="60.71" ry="60.71"/>
  <g>
    <path class="cls-6" d="M52.09,855.76h-.14c-.15,1-.66,1.84-1.54,2.5-.87.66-2.06,1-3.55,1-1.14,0-2.2-.22-3.18-.65-.99-.44-1.85-1.08-2.59-1.93-.74-.85-1.32-1.91-1.73-3.18-.42-1.27-.63-2.74-.63-4.41s.22-3.15.65-4.43c.44-1.29,1.05-2.37,1.83-3.24.79-.87,1.73-1.54,2.83-1.99,1.1-.45,2.32-.68,3.67-.68,1.78,0,3.32.38,4.6,1.15,1.29.77,2.3,1.92,3.04,3.45l-3.52,2.02c-.3-.78-.78-1.44-1.42-1.98-.64-.54-1.54-.81-2.7-.81-1.35,0-2.42.39-3.21,1.17s-1.19,2-1.19,3.67v3.18c0,1.65.4,2.87,1.19,3.65s1.87,1.18,3.21,1.18c.53,0,1.03-.06,1.51-.19.47-.12.89-.31,1.25-.57.36-.26.64-.56.84-.92.2-.36.3-.79.3-1.28v-1h-3.7v-3.61h7.82v11.06h-3.64v-3.16Z"/>
    <path class="cls-6" d="M62.75,858.92c-1.44,0-2.5-.35-3.17-1.05-.67-.7-1.01-1.71-1.01-3.04v-16.94h4.21v17.77h1.88v3.27h-1.9Z"/>
    <path class="cls-6" d="M72.11,859.26c-1.1,0-2.08-.18-2.94-.54-.86-.36-1.59-.88-2.19-1.56-.6-.68-1.06-1.51-1.38-2.47-.32-.97-.48-2.05-.48-3.24s.16-2.27.48-3.24c.32-.97.78-1.79,1.38-2.46.6-.67,1.33-1.19,2.19-1.55.86-.36,1.84-.54,2.94-.54s2.08.18,2.94.54c.86.36,1.59.88,2.19,1.55.6.67,1.06,1.49,1.38,2.46s.48,2.05.48,3.24-.16,2.27-.48,3.24c-.32.97-.78,1.79-1.38,2.47-.6.68-1.33,1.2-2.19,1.56-.86.36-1.84.54-2.94.54ZM72.11,855.93c.83,0,1.48-.26,1.93-.77.46-.51.68-1.24.68-2.19v-3.04c0-.95-.23-1.68-.68-2.19-.45-.51-1.1-.77-1.93-.77s-1.48.26-1.93.77c-.46.51-.68,1.24-.68,2.19v3.04c0,.95.23,1.68.68,2.19.45.51,1.1.77,1.93.77Z"/>
    <path class="cls-6" d="M80.95,837.88h4.21v8.61h.14c.21-.83.69-1.52,1.44-2.05s1.61-.8,2.57-.8c1.9,0,3.33.66,4.29,1.99.97,1.33,1.45,3.26,1.45,5.8s-.48,4.48-1.45,5.81-2.4,2-4.29,2c-.49,0-.96-.07-1.39-.21s-.83-.34-1.18-.6-.65-.56-.9-.91c-.25-.35-.43-.72-.54-1.12h-.14v2.5h-4.21v-21.04ZM87.91,855.85c.8,0,1.45-.28,1.98-.84.52-.56.78-1.31.78-2.26v-2.59c0-.95-.26-1.7-.78-2.26-.52-.56-1.18-.84-1.98-.84s-1.45.19-1.98.58c-.52.39-.78.92-.78,1.61v4.41c0,.68.26,1.22.78,1.61.52.39,1.18.58,1.98.58Z"/>
    <path class="cls-6" d="M108.12,858.92c-.76,0-1.39-.24-1.89-.71-.5-.47-.82-1.11-.95-1.9h-.17c-.23.97-.73,1.7-1.51,2.2-.78.5-1.73.75-2.87.75-1.5,0-2.64-.4-3.44-1.19-.8-.79-1.19-1.84-1.19-3.15,0-1.57.57-2.73,1.72-3.5,1.15-.76,2.7-1.15,4.68-1.15h2.36v-.94c0-.72-.19-1.29-.57-1.72-.38-.43-1.01-.64-1.9-.64-.83,0-1.5.18-1.99.54-.49.36-.9.77-1.22,1.22l-2.5-2.23c.61-.9,1.37-1.6,2.29-2.1.92-.5,2.17-.76,3.74-.76,2.12,0,3.71.46,4.78,1.39,1.06.93,1.59,2.28,1.59,4.06v6.54h1.39v3.27h-2.33ZM102.29,856.33c.7,0,1.3-.15,1.81-.45.5-.3.75-.79.75-1.47v-1.75h-2.05c-1.65,0-2.47.55-2.47,1.66v.42c0,.54.17.94.51,1.2.34.25.82.38,1.45.38Z"/>
    <path class="cls-6" d="M116.31,858.92c-1.44,0-2.5-.35-3.17-1.05-.67-.7-1.01-1.71-1.01-3.04v-16.94h4.21v17.77h1.88v3.27h-1.9Z"/>
    <path class="cls-6" d="M130.24,859.26c-1.44,0-2.65-.23-3.64-.7-.99-.46-1.87-1.12-2.64-1.98l2.47-2.5c.53.59,1.12,1.05,1.76,1.39.64.34,1.37.51,2.19.51s1.41-.13,1.73-.38.48-.6.48-1.04c0-.7-.5-1.12-1.51-1.25l-1.62-.2c-3.35-.42-5.03-1.95-5.03-4.61,0-.72.14-1.38.41-1.98.27-.6.66-1.11,1.17-1.54.5-.43,1.11-.76,1.82-1,.71-.24,1.51-.35,2.4-.35.78,0,1.46.05,2.06.16.6.1,1.13.26,1.59.45.46.2.89.45,1.28.74.39.29.77.62,1.15.98l-2.42,2.47c-.47-.47-1.01-.85-1.61-1.12-.6-.27-1.21-.41-1.83-.41-.72,0-1.23.11-1.54.34-.3.23-.46.53-.46.91,0,.4.11.71.33.92.22.22.63.37,1.24.47l1.68.23c3.28.44,4.92,1.93,4.92,4.49,0,.72-.15,1.38-.46,1.99s-.73,1.13-1.29,1.58c-.56.45-1.23.79-2.02,1.04-.79.25-1.66.37-2.63.37Z"/>
    <path class="cls-6" d="M144.42,859.26c-1.1,0-2.08-.18-2.94-.54-.86-.36-1.59-.88-2.19-1.56-.6-.68-1.06-1.51-1.38-2.47-.32-.97-.48-2.05-.48-3.24s.16-2.27.48-3.24c.32-.97.78-1.79,1.38-2.46.6-.67,1.33-1.19,2.19-1.55.86-.36,1.84-.54,2.94-.54s2.08.18,2.94.54c.86.36,1.59.88,2.19,1.55.6.67,1.06,1.49,1.38,2.46s.48,2.05.48,3.24-.16,2.27-.48,3.24c-.32.97-.78,1.79-1.38,2.47-.6.68-1.33,1.2-2.19,1.56-.86.36-1.84.54-2.94.54ZM144.42,855.93c.83,0,1.48-.26,1.93-.77.46-.51.68-1.24.68-2.19v-3.04c0-.95-.23-1.68-.68-2.19-.45-.51-1.1-.77-1.93-.77s-1.48.26-1.93.77c-.46.51-.68,1.24-.68,2.19v3.04c0,.95.23,1.68.68,2.19.45.51,1.1.77,1.93.77Z"/>
    <path class="cls-6" d="M159.29,859.26c-1.12,0-2.11-.18-2.98-.55-.87-.37-1.6-.89-2.19-1.56-.59-.67-1.03-1.49-1.34-2.46-.3-.97-.45-2.05-.45-3.24s.15-2.27.45-3.23.75-1.78,1.34-2.46c.59-.68,1.32-1.2,2.19-1.56.87-.36,1.87-.54,2.98-.54,1.52,0,2.78.34,3.79,1.02,1.01.68,1.74,1.64,2.17,2.87l-3.41,1.48c-.13-.57-.41-1.05-.82-1.45-.42-.4-.99-.6-1.73-.6-.85,0-1.5.28-1.93.84-.44.56-.65,1.31-.65,2.26v2.79c0,.95.22,1.7.65,2.25.44.55,1.08.83,1.93.83.76,0,1.36-.2,1.81-.61.44-.41.77-.94.98-1.61l3.27,1.42c-.49,1.42-1.26,2.46-2.29,3.13-1.03.66-2.29,1-3.77,1Z"/>
    <path class="cls-6" d="M168.92,842.4c-.85,0-1.47-.19-1.86-.58-.39-.39-.58-.89-.58-1.49v-.63c0-.61.19-1.1.58-1.49.39-.39,1.01-.58,1.86-.58s1.47.2,1.86.58c.39.39.58.89.58,1.49v.63c0,.61-.19,1.1-.58,1.49-.39.39-1.01.58-1.86.58ZM166.82,843.99h4.21v14.92h-4.21v-14.92Z"/>
    <path class="cls-6" d="M184.84,858.92c-.76,0-1.39-.24-1.89-.71-.5-.47-.82-1.11-.95-1.9h-.17c-.23.97-.73,1.7-1.51,2.2-.78.5-1.73.75-2.87.75-1.5,0-2.64-.4-3.44-1.19-.8-.79-1.19-1.84-1.19-3.15,0-1.57.57-2.73,1.72-3.5,1.15-.76,2.7-1.15,4.68-1.15h2.36v-.94c0-.72-.19-1.29-.57-1.72-.38-.43-1.01-.64-1.9-.64-.83,0-1.5.18-1.99.54-.49.36-.9.77-1.22,1.22l-2.5-2.23c.61-.9,1.37-1.6,2.29-2.1.92-.5,2.17-.76,3.74-.76,2.12,0,3.71.46,4.78,1.39,1.06.93,1.59,2.28,1.59,4.06v6.54h1.39v3.27h-2.33ZM179.02,856.33c.7,0,1.3-.15,1.81-.45.5-.3.75-.79.75-1.47v-1.75h-2.05c-1.65,0-2.47.55-2.47,1.66v.42c0,.54.17.94.51,1.2.34.25.82.38,1.45.38Z"/>
    <path class="cls-6" d="M193.03,858.92c-1.44,0-2.5-.35-3.17-1.05-.67-.7-1.01-1.71-1.01-3.04v-16.94h4.21v17.77h1.88v3.27h-1.9Z"/>
    <path class="cls-6" d="M201.9,858.92v-14.92h4.21v3.24h.14c.08-.42.21-.82.4-1.21.19-.39.44-.73.75-1.04.31-.3.69-.54,1.12-.73.44-.18.95-.27,1.54-.27h.74v3.92h-1.05c-1.23,0-2.15.16-2.74.48-.6.32-.9.92-.9,1.79v8.73h-4.21Z"/>
    <path class="cls-6" d="M218.33,859.26c-1.14,0-2.15-.18-3.04-.55-.89-.37-1.64-.89-2.26-1.56-.62-.67-1.08-1.49-1.39-2.46-.31-.97-.47-2.05-.47-3.24s.15-2.24.46-3.2c.3-.96.75-1.78,1.35-2.46.6-.68,1.33-1.21,2.2-1.58.87-.37,1.87-.55,2.99-.55,1.23,0,2.29.21,3.17.62.88.42,1.6.98,2.16,1.68.56.7.97,1.51,1.22,2.43.26.92.38,1.88.38,2.89v1.25h-9.58v.23c0,.98.26,1.75.8,2.33.53.57,1.36.86,2.5.86.87,0,1.58-.17,2.13-.52.55-.35,1.06-.77,1.54-1.25l2.1,2.62c-.66.78-1.53,1.39-2.6,1.82-1.07.44-2.29.66-3.65.66ZM218.24,846.75c-.85,0-1.52.28-2,.84-.48.56-.72,1.3-.72,2.23v.23h5.23v-.26c0-.91-.2-1.64-.61-2.2-.41-.56-1.04-.84-1.89-.84Z"/>
    <path class="cls-6" d="M232,859.26c-1.44,0-2.65-.23-3.64-.7s-1.87-1.12-2.64-1.98l2.47-2.5c.53.59,1.12,1.05,1.76,1.39s1.37.51,2.19.51,1.41-.13,1.73-.38.48-.6.48-1.04c0-.7-.5-1.12-1.51-1.25l-1.62-.2c-3.35-.42-5.03-1.95-5.03-4.61,0-.72.14-1.38.41-1.98.27-.6.66-1.11,1.17-1.54.5-.43,1.11-.76,1.82-1,.71-.24,1.51-.35,2.4-.35.78,0,1.46.05,2.06.16.6.1,1.13.26,1.59.45.46.2.89.45,1.28.74.39.29.77.62,1.15.98l-2.42,2.47c-.47-.47-1.01-.85-1.61-1.12-.6-.27-1.21-.41-1.83-.41-.72,0-1.23.11-1.54.34-.3.23-.46.53-.46.91,0,.4.11.71.33.92s.63.37,1.24.47l1.68.23c3.28.44,4.92,1.93,4.92,4.49,0,.72-.15,1.38-.45,1.99-.3.61-.74,1.13-1.29,1.58-.56.45-1.23.79-2.02,1.04-.79.25-1.66.37-2.63.37Z"/>
    <path class="cls-6" d="M240.13,843.99h4.21v2.5h.14c.21-.83.69-1.52,1.44-2.05s1.61-.8,2.57-.8c1.89,0,3.33.66,4.29,1.99.97,1.33,1.45,3.26,1.45,5.8s-.48,4.48-1.45,5.81-2.4,2-4.29,2c-.49,0-.96-.07-1.39-.21s-.83-.34-1.18-.6-.65-.56-.9-.91c-.25-.35-.43-.72-.54-1.12h-.14v8.19h-4.21v-20.61ZM247.1,855.85c.8,0,1.45-.28,1.98-.84.52-.56.78-1.31.78-2.26v-2.59c0-.95-.26-1.7-.78-2.26-.52-.56-1.18-.84-1.98-.84s-1.45.19-1.98.58c-.52.39-.78.92-.78,1.61v4.41c0,.68.26,1.22.78,1.61.52.39,1.18.58,1.98.58Z"/>
    <path class="cls-6" d="M262.33,859.26c-1.1,0-2.08-.18-2.94-.54-.86-.36-1.59-.88-2.19-1.56-.6-.68-1.06-1.51-1.38-2.47-.32-.97-.48-2.05-.48-3.24s.16-2.27.48-3.24.78-1.79,1.38-2.46c.6-.67,1.33-1.19,2.19-1.55.86-.36,1.84-.54,2.94-.54s2.08.18,2.94.54c.86.36,1.59.88,2.19,1.55s1.06,1.49,1.38,2.46c.32.97.48,2.05.48,3.24s-.16,2.27-.48,3.24c-.32.97-.78,1.79-1.38,2.47-.6.68-1.33,1.2-2.19,1.56-.86.36-1.84.54-2.94.54ZM262.33,855.93c.83,0,1.48-.26,1.93-.77s.68-1.24.68-2.19v-3.04c0-.95-.23-1.68-.68-2.19s-1.1-.77-1.93-.77-1.48.26-1.93.77c-.45.51-.68,1.24-.68,2.19v3.04c0,.95.23,1.68.68,2.19.46.51,1.1.77,1.93.77Z"/>
    <path class="cls-6" d="M271.17,858.92v-14.92h4.21v2.53h.17c.27-.78.73-1.45,1.39-2.02.66-.57,1.58-.85,2.76-.85,1.54,0,2.7.51,3.48,1.53s1.18,2.48,1.18,4.38v9.35h-4.21v-9.01c0-.97-.15-1.68-.46-2.15s-.84-.7-1.62-.7c-.34,0-.67.04-1,.13-.32.08-.61.22-.87.41s-.46.42-.61.7c-.15.27-.23.59-.23.95v9.67h-4.21Z"/>
    <path class="cls-6" d="M292.04,859.26c-1.44,0-2.65-.23-3.64-.7s-1.87-1.12-2.64-1.98l2.47-2.5c.53.59,1.12,1.05,1.76,1.39s1.37.51,2.19.51,1.41-.13,1.73-.38.48-.6.48-1.04c0-.7-.5-1.12-1.51-1.25l-1.62-.2c-3.35-.42-5.03-1.95-5.03-4.61,0-.72.14-1.38.41-1.98.27-.6.66-1.11,1.17-1.54.5-.43,1.11-.76,1.82-1,.71-.24,1.51-.35,2.4-.35.78,0,1.46.05,2.06.16.6.1,1.13.26,1.59.45.46.2.89.45,1.28.74.39.29.77.62,1.15.98l-2.42,2.47c-.47-.47-1.01-.85-1.61-1.12-.6-.27-1.21-.41-1.83-.41-.72,0-1.23.11-1.54.34-.3.23-.46.53-.46.91,0,.4.11.71.33.92s.63.37,1.24.47l1.68.23c3.28.44,4.92,1.93,4.92,4.49,0,.72-.15,1.38-.45,1.99-.3.61-.74,1.13-1.29,1.58-.56.45-1.23.79-2.02,1.04-.79.25-1.66.37-2.63.37Z"/>
    <path class="cls-6" d="M311.2,858.92c-.76,0-1.39-.24-1.89-.71-.5-.47-.82-1.11-.95-1.9h-.17c-.23.97-.73,1.7-1.51,2.2s-1.73.75-2.87.75c-1.5,0-2.64-.4-3.44-1.19s-1.19-1.84-1.19-3.15c0-1.57.57-2.73,1.72-3.5,1.15-.76,2.71-1.15,4.68-1.15h2.36v-.94c0-.72-.19-1.29-.57-1.72-.38-.43-1.01-.64-1.9-.64-.83,0-1.5.18-1.99.54-.49.36-.9.77-1.22,1.22l-2.5-2.23c.61-.9,1.37-1.6,2.29-2.1.92-.5,2.17-.76,3.74-.76,2.12,0,3.71.46,4.78,1.39s1.59,2.28,1.59,4.06v6.54h1.39v3.27h-2.33ZM305.37,856.33c.7,0,1.3-.15,1.81-.45.5-.3.75-.79.75-1.47v-1.75h-2.05c-1.65,0-2.47.55-2.47,1.66v.42c0,.54.17.94.51,1.2s.82.38,1.45.38Z"/>
    <path class="cls-6" d="M315.21,837.88h4.21v8.61h.14c.21-.83.69-1.52,1.44-2.05s1.61-.8,2.57-.8c1.89,0,3.33.66,4.29,1.99.97,1.33,1.45,3.26,1.45,5.8s-.48,4.48-1.45,5.81-2.4,2-4.29,2c-.49,0-.96-.07-1.39-.21s-.83-.34-1.18-.6-.65-.56-.9-.91c-.25-.35-.43-.72-.54-1.12h-.14v2.5h-4.21v-21.04ZM322.17,855.85c.8,0,1.45-.28,1.98-.84.52-.56.78-1.31.78-2.26v-2.59c0-.95-.26-1.7-.78-2.26-.52-.56-1.18-.84-1.98-.84s-1.45.19-1.98.58c-.52.39-.78.92-.78,1.61v4.41c0,.68.26,1.22.78,1.61.52.39,1.18.58,1.98.58Z"/>
    <path class="cls-6" d="M333.46,842.4c-.85,0-1.47-.19-1.86-.58-.39-.39-.58-.89-.58-1.49v-.63c0-.61.19-1.1.58-1.49s1.01-.58,1.86-.58,1.47.2,1.86.58c.39.39.58.89.58,1.49v.63c0,.61-.19,1.1-.58,1.49s-1.01.58-1.86.58ZM331.35,843.99h4.21v14.92h-4.21v-14.92Z"/>
    <path class="cls-6" d="M342.52,858.92c-1.44,0-2.5-.35-3.17-1.05-.67-.7-1.01-1.71-1.01-3.04v-16.94h4.21v17.77h1.88v3.27h-1.9Z"/>
    <path class="cls-6" d="M347.92,842.4c-.85,0-1.47-.19-1.86-.58-.39-.39-.58-.89-.58-1.49v-.63c0-.61.19-1.1.58-1.49s1.01-.58,1.86-.58,1.47.2,1.86.58c.39.39.58.89.58,1.49v.63c0,.61-.19,1.1-.58,1.49s-1.01.58-1.86.58ZM345.82,843.99h4.21v14.92h-4.21v-14.92Z"/>
    <path class="cls-6" d="M358.05,858.92c-1.46,0-2.56-.37-3.31-1.11-.75-.74-1.12-1.82-1.12-3.24v-7.31h-2.1v-3.27h1.05c.57,0,.96-.14,1.17-.41.21-.27.31-.67.31-1.18v-2.45h3.78v4.04h2.96v3.27h-2.96v8.39h2.73v3.27h-2.5Z"/>
    <path class="cls-6" d="M371.69,843.99h3.92l-5.74,17.23c-.38,1.16-.91,2.01-1.61,2.56-.69.55-1.68.82-2.97.82h-2.62v-3.27h2.81l.51-1.65-5.23-15.69h4.18l2.19,6.96,1.08,4.32h.17l1.11-4.32,2.19-6.96Z"/>
    <path class="cls-6" d="M31.94,874.26h4.06l1.45,6.03,1.02,4.55h.11l1.19-4.55,1.71-6.03h3.84l1.73,6.03,1.22,4.55h.11l1.02-4.55,1.45-6.03h3.89l-4.12,14.92h-4.41l-1.82-6.31-1.05-3.87h-.09l-1.02,3.87-1.82,6.31h-4.32l-4.18-14.92Z"/>
    <path class="cls-6" d="M58.23,872.67c-.85,0-1.47-.19-1.86-.58-.39-.39-.58-.89-.58-1.49v-.63c0-.61.19-1.1.58-1.49.39-.39,1.01-.58,1.86-.58s1.47.2,1.86.58c.39.39.58.89.58,1.49v.63c0,.61-.19,1.1-.58,1.49-.39.39-1.01.58-1.86.58ZM56.13,874.26h4.21v14.92h-4.21v-14.92Z"/>
    <path class="cls-6" d="M68.35,889.18c-1.46,0-2.56-.37-3.31-1.11-.75-.74-1.12-1.82-1.12-3.24v-7.31h-2.1v-3.27h1.05c.57,0,.96-.14,1.17-.41.21-.27.31-.67.31-1.18v-2.45h3.78v4.04h2.96v3.27h-2.96v8.39h2.73v3.27h-2.5Z"/>
    <path class="cls-6" d="M72.87,868.15h4.21v8.64h.17c.27-.78.73-1.45,1.39-2.02.66-.57,1.58-.85,2.76-.85,1.54,0,2.7.51,3.48,1.53.79,1.02,1.18,2.48,1.18,4.38v9.35h-4.21v-9.01c0-.97-.15-1.68-.46-2.15s-.84-.7-1.62-.7c-.34,0-.67.04-1,.13-.32.08-.61.22-.87.41s-.46.42-.61.7c-.15.27-.23.59-.23.95v9.67h-4.21v-21.04Z"/>
    <path class="cls-6" d="M98.43,889.18c-1.44,0-2.5-.35-3.17-1.05-.67-.7-1.01-1.71-1.01-3.04v-16.94h4.21v17.77h1.88v3.27h-1.9Z"/>
    <path class="cls-6" d="M107.78,889.52c-1.1,0-2.08-.18-2.94-.54-.86-.36-1.59-.88-2.19-1.56-.6-.68-1.06-1.51-1.38-2.47-.32-.97-.48-2.05-.48-3.24s.16-2.27.48-3.24c.32-.97.78-1.79,1.38-2.46.6-.67,1.33-1.19,2.19-1.55.86-.36,1.84-.54,2.94-.54s2.08.18,2.94.54c.86.36,1.59.88,2.19,1.55.6.67,1.06,1.49,1.38,2.46s.48,2.05.48,3.24-.16,2.27-.48,3.24c-.32.97-.78,1.79-1.38,2.47-.6.68-1.33,1.2-2.19,1.56-.86.36-1.84.54-2.94.54ZM107.78,886.2c.83,0,1.48-.26,1.93-.77.46-.51.68-1.24.68-2.19v-3.04c0-.95-.23-1.68-.68-2.19-.45-.51-1.1-.77-1.93-.77s-1.48.26-1.93.77c-.46.51-.68,1.24-.68,2.19v3.04c0,.95.23,1.68.68,2.19.45.51,1.1.77,1.93.77Z"/>
    <path class="cls-6" d="M122.65,889.52c-1.12,0-2.11-.18-2.98-.55-.87-.37-1.6-.89-2.19-1.56-.59-.67-1.03-1.49-1.34-2.46-.3-.97-.45-2.05-.45-3.24s.15-2.27.45-3.23.75-1.78,1.34-2.46c.59-.68,1.32-1.2,2.19-1.56.87-.36,1.87-.54,2.98-.54,1.52,0,2.78.34,3.79,1.02,1.01.68,1.74,1.64,2.17,2.87l-3.41,1.48c-.13-.57-.41-1.05-.82-1.45-.42-.4-.99-.6-1.73-.6-.85,0-1.5.28-1.93.84-.44.56-.65,1.31-.65,2.26v2.79c0,.95.22,1.7.65,2.25.44.55,1.08.83,1.93.83.76,0,1.36-.2,1.81-.61.44-.41.77-.94.98-1.61l3.27,1.42c-.49,1.42-1.26,2.46-2.29,3.13-1.03.66-2.29,1-3.77,1Z"/>
    <path class="cls-6" d="M141.21,889.18c-.76,0-1.39-.24-1.89-.71-.5-.47-.82-1.11-.95-1.9h-.17c-.23.97-.73,1.7-1.51,2.2-.78.5-1.73.75-2.87.75-1.5,0-2.64-.4-3.44-1.19-.8-.79-1.19-1.84-1.19-3.15,0-1.57.57-2.73,1.72-3.5,1.15-.76,2.7-1.15,4.68-1.15h2.36v-.94c0-.72-.19-1.29-.57-1.72-.38-.43-1.01-.64-1.9-.64-.83,0-1.5.18-1.99.54-.49.36-.9.77-1.22,1.22l-2.5-2.23c.61-.9,1.37-1.6,2.29-2.1.92-.5,2.17-.76,3.74-.76,2.12,0,3.71.46,4.78,1.39,1.06.93,1.59,2.28,1.59,4.06v6.54h1.39v3.27h-2.33ZM135.38,886.6c.7,0,1.3-.15,1.81-.45.5-.3.75-.79.75-1.47v-1.75h-2.05c-1.65,0-2.47.55-2.47,1.66v.42c0,.54.17.94.51,1.2.34.25.82.38,1.45.38Z"/>
    <path class="cls-6" d="M149.4,889.18c-1.44,0-2.5-.35-3.17-1.05-.67-.7-1.01-1.71-1.01-3.04v-16.94h4.21v17.77h1.88v3.27h-1.9Z"/>
    <path class="cls-6" d="M164.29,889.52c-1.12,0-2.11-.18-2.98-.55-.87-.37-1.6-.89-2.19-1.56-.59-.67-1.03-1.49-1.34-2.46-.3-.97-.45-2.05-.45-3.24s.15-2.27.45-3.23.75-1.78,1.34-2.46c.59-.68,1.32-1.2,2.19-1.56.87-.36,1.87-.54,2.98-.54,1.52,0,2.78.34,3.79,1.02,1.01.68,1.74,1.64,2.17,2.87l-3.41,1.48c-.13-.57-.41-1.05-.82-1.45-.42-.4-.99-.6-1.73-.6-.85,0-1.5.28-1.93.84-.44.56-.65,1.31-.65,2.26v2.79c0,.95.22,1.7.65,2.25.44.55,1.08.83,1.93.83.76,0,1.36-.2,1.81-.61.44-.41.77-.94.98-1.61l3.27,1.42c-.49,1.42-1.26,2.46-2.29,3.13-1.03.66-2.29,1-3.77,1Z"/>
    <path class="cls-6" d="M177.74,889.52c-1.1,0-2.08-.18-2.94-.54-.86-.36-1.59-.88-2.19-1.56-.6-.68-1.06-1.51-1.38-2.47-.32-.97-.48-2.05-.48-3.24s.16-2.27.48-3.24c.32-.97.78-1.79,1.38-2.46.6-.67,1.33-1.19,2.19-1.55.86-.36,1.84-.54,2.94-.54s2.08.18,2.94.54c.86.36,1.59.88,2.19,1.55.6.67,1.06,1.49,1.38,2.46s.48,2.05.48,3.24-.16,2.27-.48,3.24c-.32.97-.78,1.79-1.38,2.47-.6.68-1.33,1.2-2.19,1.56-.86.36-1.84.54-2.94.54ZM177.74,886.2c.83,0,1.48-.26,1.93-.77.46-.51.68-1.24.68-2.19v-3.04c0-.95-.23-1.68-.68-2.19-.45-.51-1.1-.77-1.93-.77s-1.48.26-1.93.77c-.46.51-.68,1.24-.68,2.19v3.04c0,.95.23,1.68.68,2.19.45.51,1.1.77,1.93.77Z"/>
    <path class="cls-6" d="M186.58,889.18v-14.92h4.21v2.53h.17c.27-.8.72-1.47,1.36-2.03.64-.56,1.53-.84,2.64-.84,1.02,0,1.9.26,2.62.77.72.51,1.24,1.26,1.56,2.25h.09c.13-.42.34-.81.61-1.18.27-.37.61-.69,1.01-.95s.84-.48,1.34-.64c.49-.16,1.02-.24,1.59-.24,1.44,0,2.54.51,3.31,1.53s1.15,2.48,1.15,4.38v9.35h-4.21v-9.01c0-1.89-.68-2.84-2.05-2.84-.63,0-1.19.18-1.71.54s-.77.91-.77,1.65v9.67h-4.21v-9.01c0-1.89-.68-2.84-2.05-2.84-.3,0-.6.04-.9.13-.29.08-.56.22-.8.41-.24.19-.43.42-.57.7s-.21.59-.21.95v9.67h-4.21Z"/>
    <path class="cls-6" d="M210.85,889.18v-14.92h4.21v2.53h.17c.27-.8.72-1.47,1.37-2.03.64-.56,1.52-.84,2.64-.84,1.02,0,1.89.26,2.62.77.72.51,1.24,1.26,1.56,2.25h.08c.13-.42.34-.81.61-1.18s.61-.69,1.01-.95.84-.48,1.34-.64c.49-.16,1.02-.24,1.59-.24,1.44,0,2.54.51,3.31,1.53s1.15,2.48,1.15,4.38v9.35h-4.21v-9.01c0-1.89-.68-2.84-2.05-2.84-.62,0-1.19.18-1.71.54s-.77.91-.77,1.65v9.67h-4.21v-9.01c0-1.89-.68-2.84-2.05-2.84-.3,0-.6.04-.9.13-.29.08-.56.22-.79.41-.24.19-.43.42-.57.7-.14.27-.21.59-.21.95v9.67h-4.21Z"/>
    <path class="cls-6" d="M243.94,886.68h-.14c-.13.38-.31.74-.53,1.08-.22.34-.5.64-.84.91-.34.27-.74.47-1.21.62-.46.15-1,.23-1.61.23-1.54,0-2.7-.51-3.48-1.52-.79-1.01-1.18-2.47-1.18-4.36v-9.38h4.21v9.01c0,.91.16,1.61.48,2.1.32.49.87.74,1.65.74.32,0,.64-.05.97-.14s.61-.23.85-.41c.25-.18.45-.4.6-.67s.23-.58.23-.94v-9.69h4.21v14.92h-4.21v-2.5Z"/>
    <path class="cls-6" d="M250.94,889.18v-14.92h4.21v2.53h.17c.27-.78.73-1.45,1.39-2.02.66-.57,1.58-.85,2.76-.85,1.54,0,2.7.51,3.48,1.53s1.18,2.48,1.18,4.38v9.35h-4.21v-9.01c0-.97-.15-1.68-.46-2.15s-.84-.7-1.62-.7c-.34,0-.67.04-1,.13-.32.08-.61.22-.87.41s-.46.42-.61.7c-.15.27-.23.59-.23.95v9.67h-4.21Z"/>
    <path class="cls-6" d="M268.84,872.67c-.85,0-1.47-.19-1.86-.58-.39-.39-.58-.89-.58-1.49v-.63c0-.61.19-1.1.58-1.49s1.01-.58,1.86-.58,1.47.2,1.86.58c.39.39.58.89.58,1.49v.63c0,.61-.19,1.1-.58,1.49s-1.01.58-1.86.58ZM266.74,874.26h4.21v14.92h-4.21v-14.92Z"/>
    <path class="cls-6" d="M278.96,889.18c-1.46,0-2.56-.37-3.31-1.11-.75-.74-1.12-1.82-1.12-3.24v-7.31h-2.1v-3.27h1.05c.57,0,.96-.14,1.17-.41.21-.27.31-.67.31-1.18v-2.45h3.78v4.04h2.96v3.27h-2.96v8.39h2.73v3.27h-2.5Z"/>
    <path class="cls-6" d="M285.59,872.67c-.85,0-1.47-.19-1.86-.58-.39-.39-.58-.89-.58-1.49v-.63c0-.61.19-1.1.58-1.49s1.01-.58,1.86-.58,1.47.2,1.86.58c.39.39.58.89.58,1.49v.63c0,.61-.19,1.1-.58,1.49s-1.01.58-1.86.58ZM283.48,874.26h4.21v14.92h-4.21v-14.92Z"/>
    <path class="cls-6" d="M296.7,889.52c-1.14,0-2.15-.18-3.04-.55-.89-.37-1.64-.89-2.26-1.56-.62-.67-1.08-1.49-1.39-2.46-.31-.97-.47-2.05-.47-3.24s.15-2.24.46-3.2c.3-.96.75-1.78,1.35-2.46.6-.68,1.33-1.21,2.2-1.58.87-.37,1.87-.55,2.99-.55,1.23,0,2.29.21,3.17.62.88.42,1.6.98,2.16,1.68.56.7.97,1.51,1.22,2.43.26.92.38,1.88.38,2.89v1.25h-9.58v.23c0,.98.26,1.75.8,2.33.53.57,1.36.86,2.5.86.87,0,1.58-.17,2.13-.52.55-.35,1.06-.77,1.54-1.25l2.1,2.62c-.66.78-1.53,1.39-2.6,1.82-1.07.44-2.29.66-3.65.66ZM296.62,877.02c-.85,0-1.52.28-2,.84-.48.56-.72,1.3-.72,2.23v.23h5.23v-.26c0-.91-.2-1.64-.61-2.2-.41-.56-1.04-.84-1.89-.84Z"/>
    <path class="cls-6" d="M310.37,889.52c-1.44,0-2.65-.23-3.64-.7s-1.87-1.12-2.64-1.98l2.47-2.5c.53.59,1.12,1.05,1.76,1.39s1.37.51,2.19.51,1.41-.13,1.73-.38.48-.6.48-1.04c0-.7-.5-1.12-1.51-1.25l-1.62-.2c-3.35-.42-5.03-1.95-5.03-4.61,0-.72.14-1.38.41-1.98.27-.6.66-1.11,1.17-1.54.5-.43,1.11-.76,1.82-1,.71-.24,1.51-.35,2.4-.35.78,0,1.46.05,2.06.16.6.1,1.13.26,1.59.45.46.2.89.45,1.28.74.39.29.77.62,1.15.98l-2.42,2.47c-.47-.47-1.01-.85-1.61-1.12-.6-.27-1.21-.41-1.83-.41-.72,0-1.23.11-1.54.34-.3.23-.46.53-.46.91,0,.4.11.71.33.92s.63.37,1.24.47l1.68.23c3.28.44,4.92,1.93,4.92,4.49,0,.72-.15,1.38-.45,1.99-.3.61-.74,1.13-1.29,1.58-.56.45-1.23.79-2.02,1.04-.79.25-1.66.37-2.63.37Z"/>
    <path class="cls-6" d="M328.26,889.18c-1.44,0-2.5-.35-3.17-1.05-.67-.7-1.01-1.71-1.01-3.04v-16.94h4.21v17.77h1.88v3.27h-1.9Z"/>
    <path class="cls-6" d="M333.66,872.67c-.85,0-1.47-.19-1.86-.58-.39-.39-.58-.89-.58-1.49v-.63c0-.61.19-1.1.58-1.49s1.01-.58,1.86-.58,1.47.2,1.86.58c.39.39.58.89.58,1.49v.63c0,.61-.19,1.1-.58,1.49s-1.01.58-1.86.58ZM331.55,874.26h4.21v14.92h-4.21v-14.92Z"/>
    <path class="cls-6" d="M338.55,889.18v-14.92h4.21v2.53h.17c.27-.78.73-1.45,1.39-2.02.66-.57,1.58-.85,2.76-.85,1.54,0,2.7.51,3.48,1.53s1.18,2.48,1.18,4.38v9.35h-4.21v-9.01c0-.97-.15-1.68-.46-2.15s-.84-.7-1.62-.7c-.34,0-.67.04-1,.13-.32.08-.61.22-.87.41s-.46.42-.61.7c-.15.27-.23.59-.23.95v9.67h-4.21Z"/>
    <path class="cls-6" d="M354.35,868.15h4.21v12.42h.17l1.85-2.76,2.99-3.55h4.66l-4.97,5.71,5.54,9.21h-5l-3.35-6.31-1.88,2.1v4.21h-4.21v-21.04Z"/>
    <path class="cls-6" d="M374.39,889.52c-1.44,0-2.65-.23-3.64-.7s-1.87-1.12-2.64-1.98l2.47-2.5c.53.59,1.12,1.05,1.76,1.39s1.37.51,2.19.51,1.41-.13,1.73-.38.48-.6.48-1.04c0-.7-.5-1.12-1.51-1.25l-1.62-.2c-3.35-.42-5.03-1.95-5.03-4.61,0-.72.14-1.38.41-1.98.27-.6.66-1.11,1.17-1.54.5-.43,1.11-.76,1.82-1,.71-.24,1.51-.35,2.4-.35.78,0,1.46.05,2.06.16.6.1,1.13.26,1.59.45.46.2.89.45,1.28.74.39.29.77.62,1.15.98l-2.42,2.47c-.47-.47-1.01-.85-1.61-1.12-.6-.27-1.21-.41-1.83-.41-.72,0-1.23.11-1.54.34-.3.23-.46.53-.46.91,0,.4.11.71.33.92s.63.37,1.24.47l1.68.23c3.28.44,4.92,1.93,4.92,4.49,0,.72-.15,1.38-.45,1.99-.3.61-.74,1.13-1.29,1.58-.56.45-1.23.79-2.02,1.04-.79.25-1.66.37-2.63.37Z"/>
  </g>
</svg>