<?xml version="1.0" encoding="UTF-8"?>
<svg id="Capa_1" data-name="Capa 1" xmlns="http://www.w3.org/2000/svg" viewBox="0 0 1340.67 575.33">
  <defs>
    <style>
      .cls-1 {
        stroke-width: 1px;
      }

      .cls-1, .cls-2, .cls-3, .cls-4 {
        fill: none;
        stroke: #1d1d1b;
        stroke-miterlimit: 10;
      }

      .cls-5 {
        fill: #6843e1;
      }

      .cls-3 {
        stroke-width: .99px;
      }

      .cls-4 {
        stroke-width: .98px;
      }

      .cls-6 {
        fill: #1d1d1b;
      }
    </style>
  </defs>
  <g>
    <path class="cls-6" d="m253.43,54.11l-1.5-4.98h-6.99l-1.5,4.98h-4.62l6.9-20.94h5.64l6.81,20.94h-4.74Zm-4.95-16.8h-.15l-2.31,7.95h4.8l-2.34-7.95Z"/>
    <path class="cls-6" d="m259.63,54.11v-15.75h4.44v2.67h.18c.28-.84.76-1.55,1.44-2.14.68-.59,1.61-.89,2.79-.89,1.08,0,2,.27,2.76.81.76.54,1.31,1.33,1.65,2.37h.09c.14-.44.35-.86.65-1.25.29-.39.65-.72,1.06-1s.89-.5,1.41-.68c.52-.17,1.08-.25,1.68-.25,1.52,0,2.68.54,3.49,1.62s1.22,2.62,1.22,4.62v9.87h-4.44v-9.51c0-2-.72-3-2.16-3-.66,0-1.26.19-1.8.57-.54.38-.81.96-.81,1.74v10.2h-4.44v-9.51c0-2-.72-3-2.16-3-.32,0-.64.04-.95.13s-.59.24-.84.43c-.25.2-.45.45-.6.74s-.23.62-.23,1v10.2h-4.44Z"/>
    <path class="cls-6" d="m285.26,38.36h4.44v2.64h.15c.22-.88.72-1.6,1.51-2.16.79-.56,1.7-.84,2.72-.84,2,0,3.51.7,4.53,2.1s1.53,3.44,1.53,6.12-.51,4.72-1.53,6.13-2.53,2.12-4.53,2.12c-.52,0-1.01-.08-1.47-.23-.46-.15-.88-.36-1.25-.63-.37-.27-.69-.59-.94-.96-.26-.37-.45-.76-.57-1.18h-.15v8.64h-4.44v-21.75Zm7.35,12.51c.84,0,1.53-.29,2.08-.88.55-.59.83-1.38.83-2.38v-2.73c0-1-.28-1.79-.83-2.38-.55-.59-1.25-.88-2.08-.88s-1.54.21-2.08.62c-.55.41-.83.97-.83,1.69v4.65c0,.72.27,1.29.83,1.69.55.41,1.25.62,2.08.62Z"/>
    <path class="cls-6" d="m306.7,54.11c-1.52,0-2.64-.37-3.35-1.11-.71-.74-1.06-1.81-1.06-3.21v-17.88h4.44v18.75h1.98v3.45h-2.01Z"/>
    <path class="cls-6" d="m312.4,36.68c-.9,0-1.56-.21-1.96-.62-.41-.41-.62-.93-.62-1.58v-.66c0-.64.21-1.17.62-1.58.41-.41,1.06-.61,1.96-.61s1.55.21,1.96.61c.41.41.62.94.62,1.58v.66c0,.64-.21,1.17-.62,1.58-.41.41-1.06.62-1.96.62Zm-2.22,1.68h4.44v15.75h-4.44v-15.75Z"/>
    <path class="cls-6" d="m323.95,54.47c-1.16,0-2.2-.19-3.1-.57-.91-.38-1.68-.93-2.31-1.65-.63-.72-1.12-1.59-1.46-2.61-.34-1.02-.51-2.16-.51-3.42s.17-2.4.51-3.42c.34-1.02.83-1.89,1.46-2.6.63-.71,1.4-1.25,2.31-1.63.91-.38,1.94-.57,3.1-.57s2.19.19,3.1.57c.91.38,1.68.93,2.31,1.63.63.71,1.11,1.58,1.46,2.6.34,1.02.51,2.16.51,3.42s-.17,2.4-.51,3.42c-.34,1.02-.83,1.89-1.46,2.61-.63.72-1.4,1.27-2.31,1.65-.91.38-1.95.57-3.1.57Zm0-3.51c.88,0,1.56-.27,2.04-.81s.72-1.31.72-2.31v-3.21c0-1-.24-1.77-.72-2.31s-1.16-.81-2.04-.81-1.56.27-2.04.81-.72,1.31-.72,2.31v3.21c0,1,.24,1.77.72,2.31s1.16.81,2.04.81Z"/>
    <path class="cls-6" d="m339.16,38.36h4.44v2.64h.15c.22-.88.72-1.6,1.51-2.16.79-.56,1.7-.84,2.72-.84,2,0,3.51.7,4.53,2.1s1.53,3.44,1.53,6.12-.51,4.72-1.53,6.13-2.53,2.12-4.53,2.12c-.52,0-1.01-.08-1.47-.23-.46-.15-.88-.36-1.25-.63-.37-.27-.69-.59-.94-.96-.26-.37-.45-.76-.57-1.18h-.15v8.64h-4.44v-21.75Zm7.35,12.51c.84,0,1.53-.29,2.08-.88.55-.59.83-1.38.83-2.38v-2.73c0-1-.28-1.79-.83-2.38-.55-.59-1.25-.88-2.08-.88s-1.54.21-2.08.62c-.55.41-.83.97-.83,1.69v4.65c0,.72.27,1.29.83,1.69.55.41,1.25.62,2.08.62Z"/>
    <path class="cls-6" d="m362.59,54.47c-1.16,0-2.2-.19-3.1-.57-.91-.38-1.68-.93-2.31-1.65-.63-.72-1.12-1.59-1.46-2.61-.34-1.02-.51-2.16-.51-3.42s.17-2.4.51-3.42c.34-1.02.83-1.89,1.46-2.6.63-.71,1.4-1.25,2.31-1.63.91-.38,1.94-.57,3.1-.57s2.19.19,3.1.57c.91.38,1.68.93,2.31,1.63.63.71,1.11,1.58,1.46,2.6.34,1.02.51,2.16.51,3.42s-.17,2.4-.51,3.42c-.34,1.02-.83,1.89-1.46,2.61-.63.72-1.4,1.27-2.31,1.65-.91.38-1.95.57-3.1.57Zm0-3.51c.88,0,1.56-.27,2.04-.81s.72-1.31.72-2.31v-3.21c0-1-.24-1.77-.72-2.31s-1.16-.81-2.04-.81-1.56.27-2.04.81-.72,1.31-.72,2.31v3.21c0,1,.24,1.77.72,2.31s1.16.81,2.04.81Z"/>
    <path class="cls-6" d="m371.92,54.11v-15.75h4.44v3.42h.15c.08-.44.22-.87.42-1.28.2-.41.46-.77.79-1.09.33-.32.72-.57,1.19-.76.46-.19,1-.29,1.62-.29h.78v4.14h-1.11c-1.3,0-2.27.17-2.9.51s-.95.97-.95,1.89v9.21h-4.44Z"/>
    <path class="cls-6" d="m388.48,54.11c-1.54,0-2.71-.39-3.49-1.17-.79-.78-1.19-1.92-1.19-3.42v-7.71h-2.22v-3.45h1.11c.6,0,1.01-.14,1.23-.43s.33-.71.33-1.25v-2.58h3.99v4.26h3.12v3.45h-3.12v8.85h2.88v3.45h-2.64Z"/>
    <path class="cls-6" d="m404.89,54.11c-.8,0-1.47-.25-2-.75s-.87-1.17-1-2.01h-.18c-.24,1.02-.77,1.79-1.59,2.33-.82.53-1.83.79-3.03.79-1.58,0-2.79-.42-3.63-1.26-.84-.84-1.26-1.94-1.26-3.32,0-1.65.6-2.89,1.81-3.69,1.21-.81,2.85-1.21,4.94-1.21h2.49v-.99c0-.76-.2-1.36-.6-1.81-.4-.45-1.07-.67-2.01-.67-.88,0-1.58.19-2.1.57-.52.38-.95.81-1.29,1.29l-2.64-2.35c.64-.95,1.44-1.68,2.42-2.22.97-.53,2.28-.8,3.94-.8,2.24,0,3.92.49,5.04,1.47,1.12.98,1.68,2.41,1.68,4.29v6.9h1.47v3.45h-2.46Zm-6.15-2.73c.74,0,1.38-.16,1.9-.48s.79-.83.79-1.55v-1.84h-2.16c-1.74,0-2.61.58-2.61,1.76v.45c0,.58.18,1,.54,1.26.36.27.87.4,1.53.4Z"/>
    <path class="cls-6" d="m409.9,41.81h-2.22v-3.45h2.22v-1.86c0-1.52.4-2.66,1.2-3.43.8-.77,1.97-1.16,3.51-1.16h2.88v3.45h-3.15v3h3.15v3.45h-3.15v12.3h-4.44v-12.3Z"/>
    <path class="cls-6" d="m425.02,54.47c-1.16,0-2.2-.19-3.1-.57-.91-.38-1.68-.93-2.31-1.65-.63-.72-1.12-1.59-1.46-2.61-.34-1.02-.51-2.16-.51-3.42s.17-2.4.51-3.42c.34-1.02.83-1.89,1.46-2.6.63-.71,1.4-1.25,2.31-1.63.91-.38,1.94-.57,3.1-.57s2.19.19,3.1.57c.91.38,1.68.93,2.31,1.63.63.71,1.11,1.58,1.46,2.6.34,1.02.51,2.16.51,3.42s-.17,2.4-.51,3.42c-.34,1.02-.83,1.89-1.46,2.61-.63.72-1.4,1.27-2.31,1.65-.91.38-1.95.57-3.1.57Zm0-3.51c.88,0,1.56-.27,2.04-.81s.72-1.31.72-2.31v-3.21c0-1-.24-1.77-.72-2.31s-1.16-.81-2.04-.81-1.56.27-2.04.81-.72,1.31-.72,2.31v3.21c0,1,.24,1.77.72,2.31s1.16.81,2.04.81Z"/>
    <path class="cls-6" d="m438.76,54.11c-1.52,0-2.64-.37-3.35-1.11-.71-.74-1.06-1.81-1.06-3.21v-17.88h4.44v18.75h1.98v3.45h-2.01Z"/>
    <path class="cls-6" d="m444.46,36.68c-.9,0-1.56-.21-1.96-.62-.41-.41-.62-.93-.62-1.58v-.66c0-.64.21-1.17.62-1.58.41-.41,1.06-.61,1.96-.61s1.55.21,1.96.61c.41.41.62.94.62,1.58v.66c0,.64-.21,1.17-.62,1.58-.41.41-1.06.62-1.96.62Zm-2.22,1.68h4.44v15.75h-4.44v-15.75Z"/>
    <path class="cls-6" d="m456.01,54.47c-1.16,0-2.2-.19-3.1-.57-.91-.38-1.68-.93-2.31-1.65-.63-.72-1.12-1.59-1.46-2.61-.34-1.02-.51-2.16-.51-3.42s.17-2.4.51-3.42c.34-1.02.83-1.89,1.46-2.6.63-.71,1.4-1.25,2.31-1.63.91-.38,1.94-.57,3.1-.57s2.19.19,3.1.57c.91.38,1.68.93,2.31,1.63.63.71,1.11,1.58,1.46,2.6.34,1.02.51,2.16.51,3.42s-.17,2.4-.51,3.42c-.34,1.02-.83,1.89-1.46,2.61-.63.72-1.4,1.27-2.31,1.65-.91.38-1.95.57-3.1.57Zm0-3.51c.88,0,1.56-.27,2.04-.81s.72-1.31.72-2.31v-3.21c0-1-.24-1.77-.72-2.31s-1.16-.81-2.04-.81-1.56.27-2.04.81-.72,1.31-.72,2.31v3.21c0,1,.24,1.77.72,2.31s1.16.81,2.04.81Z"/>
    <path class="cls-6" d="m279.39,87.06h-.15c-.12.42-.31.81-.57,1.18s-.57.69-.94.96c-.37.27-.79.48-1.26.63-.47.15-.96.23-1.46.23-2,0-3.51-.71-4.53-2.12s-1.53-3.46-1.53-6.13.51-4.72,1.53-6.12,2.53-2.1,4.53-2.1c1.02,0,1.92.28,2.71.84.79.56,1.29,1.28,1.52,2.16h.15v-9.09h4.44v22.2h-4.44v-2.64Zm-2.91-.6c.84,0,1.53-.21,2.08-.62.55-.41.83-.97.83-1.69v-4.65c0-.72-.27-1.28-.83-1.69s-1.24-.62-2.08-.62-1.54.29-2.08.88c-.55.59-.82,1.38-.82,2.38v2.73c0,1,.27,1.79.82,2.38.55.59,1.25.88,2.08.88Z"/>
    <path class="cls-6" d="m293.34,90.06c-1.2,0-2.27-.2-3.21-.58-.94-.39-1.74-.94-2.39-1.65s-1.14-1.58-1.47-2.59c-.33-1.02-.5-2.16-.5-3.42s.16-2.37.48-3.38c.32-1.01.79-1.88,1.42-2.6.63-.72,1.4-1.27,2.33-1.67.92-.39,1.97-.58,3.15-.58,1.3,0,2.42.22,3.35.66.93.44,1.69,1.03,2.28,1.77.59.74,1.02,1.59,1.29,2.56.27.97.4,1.99.4,3.04v1.32h-10.11v.24c0,1.03.28,1.85.84,2.45.56.61,1.44.91,2.64.91.92,0,1.67-.18,2.25-.55s1.12-.81,1.62-1.32l2.22,2.77c-.7.82-1.62,1.46-2.75,1.92-1.13.46-2.42.69-3.85.69Zm-.09-13.2c-.9,0-1.6.29-2.11.88-.51.59-.77,1.38-.77,2.36v.24h5.52v-.27c0-.96-.22-1.74-.65-2.33-.43-.59-1.09-.88-2-.88Z"/>
    <path class="cls-6" d="m308.31,73.95h4.44v2.64h.15c.22-.88.72-1.6,1.51-2.16.79-.56,1.7-.84,2.72-.84,2,0,3.51.7,4.53,2.1s1.53,3.44,1.53,6.12-.51,4.72-1.53,6.13-2.53,2.12-4.53,2.12c-.52,0-1.01-.08-1.47-.23-.46-.15-.88-.36-1.25-.63-.37-.27-.69-.59-.94-.96-.26-.37-.45-.76-.57-1.18h-.15v8.64h-4.44v-21.75Zm7.35,12.51c.84,0,1.53-.29,2.08-.88.55-.59.83-1.38.83-2.38v-2.73c0-1-.28-1.79-.83-2.38-.55-.59-1.25-.88-2.08-.88s-1.54.21-2.08.62c-.55.41-.83.97-.83,1.69v4.65c0,.72.27,1.29.83,1.69.55.41,1.25.62,2.08.62Z"/>
    <path class="cls-6" d="m325.35,89.7v-15.75h4.44v3.42h.15c.08-.44.22-.87.42-1.28.2-.41.46-.77.79-1.09.33-.32.72-.57,1.19-.76.46-.19,1-.29,1.62-.29h.78v4.14h-1.11c-1.3,0-2.27.17-2.9.51s-.95.97-.95,1.89v9.21h-4.44Z"/>
    <path class="cls-6" d="m342.51,90.06c-1.16,0-2.2-.19-3.1-.57-.91-.38-1.68-.93-2.31-1.65-.63-.72-1.12-1.59-1.46-2.61-.34-1.02-.51-2.16-.51-3.42s.17-2.4.51-3.42c.34-1.02.83-1.89,1.46-2.6.63-.71,1.4-1.25,2.31-1.63.91-.38,1.94-.57,3.1-.57s2.19.19,3.1.57c.91.38,1.68.93,2.31,1.63.63.71,1.11,1.58,1.46,2.6.34,1.02.51,2.16.51,3.42s-.17,2.4-.51,3.42c-.34,1.02-.83,1.89-1.46,2.61-.63.72-1.4,1.27-2.31,1.65-.91.38-1.95.57-3.1.57Zm0-3.51c.88,0,1.56-.27,2.04-.81s.72-1.31.72-2.31v-3.21c0-1-.24-1.77-.72-2.31s-1.16-.81-2.04-.81-1.56.27-2.04.81-.72,1.31-.72,2.31v3.21c0,1,.24,1.77.72,2.31s1.16.81,2.04.81Z"/>
    <path class="cls-6" d="m361.17,73.95h4.14l-6.06,18.18c-.4,1.22-.96,2.12-1.69,2.7-.73.58-1.77.87-3.13.87h-2.76v-3.45h2.97l.54-1.74-5.52-16.56h4.41l2.31,7.35,1.14,4.56h.18l1.17-4.56,2.31-7.35Z"/>
    <path class="cls-6" d="m372.69,90.06c-1.2,0-2.27-.2-3.21-.58-.94-.39-1.74-.94-2.39-1.65s-1.14-1.58-1.47-2.59c-.33-1.02-.5-2.16-.5-3.42s.16-2.37.48-3.38c.32-1.01.79-1.88,1.42-2.6.63-.72,1.4-1.27,2.33-1.67.92-.39,1.97-.58,3.15-.58,1.3,0,2.42.22,3.35.66.93.44,1.69,1.03,2.28,1.77.59.74,1.02,1.59,1.29,2.56.27.97.4,1.99.4,3.04v1.32h-10.11v.24c0,1.03.28,1.85.84,2.45.56.61,1.44.91,2.64.91.92,0,1.67-.18,2.25-.55s1.12-.81,1.62-1.32l2.22,2.77c-.7.82-1.62,1.46-2.75,1.92-1.13.46-2.42.69-3.85.69Zm-.09-13.2c-.9,0-1.6.29-2.11.88-.51.59-.77,1.38-.77,2.36v.24h5.52v-.27c0-.96-.22-1.74-.65-2.33-.43-.59-1.09-.88-2-.88Z"/>
    <path class="cls-6" d="m388.14,90.06c-1.18,0-2.23-.2-3.15-.58-.92-.39-1.69-.94-2.31-1.65-.62-.71-1.09-1.58-1.41-2.59-.32-1.02-.48-2.16-.48-3.42s.16-2.4.48-3.41c.32-1.01.79-1.88,1.41-2.59.62-.72,1.39-1.27,2.31-1.65s1.97-.57,3.15-.57c1.6,0,2.93.36,4,1.08,1.07.72,1.83,1.73,2.29,3.03l-3.6,1.56c-.14-.6-.43-1.11-.87-1.53s-1.05-.63-1.83-.63c-.9,0-1.58.29-2.04.88-.46.59-.69,1.38-.69,2.38v2.94c0,1,.23,1.79.69,2.37.46.58,1.14.87,2.04.87.8,0,1.43-.21,1.9-.64.47-.43.81-1,1.04-1.7l3.45,1.5c-.52,1.5-1.33,2.6-2.42,3.3-1.09.7-2.41,1.05-3.97,1.05Z"/>
    <path class="cls-6" d="m401.61,89.7c-1.54,0-2.71-.39-3.49-1.17-.79-.78-1.19-1.92-1.19-3.42v-7.71h-2.22v-3.45h1.11c.6,0,1.01-.14,1.23-.43s.33-.71.33-1.25v-2.58h3.99v4.26h3.12v3.45h-3.12v8.85h2.88v3.45h-2.64Z"/>
    <path class="cls-6" d="m412.65,90.06c-1.16,0-2.2-.19-3.1-.57-.91-.38-1.68-.93-2.31-1.65-.63-.72-1.12-1.59-1.46-2.61-.34-1.02-.51-2.16-.51-3.42s.17-2.4.51-3.42c.34-1.02.83-1.89,1.46-2.6.63-.71,1.4-1.25,2.31-1.63.91-.38,1.94-.57,3.1-.57s2.19.19,3.1.57c.91.38,1.68.93,2.31,1.63.63.71,1.11,1.58,1.46,2.6.34,1.02.51,2.16.51,3.42s-.17,2.4-.51,3.42c-.34,1.02-.83,1.89-1.46,2.61-.63.72-1.4,1.27-2.31,1.65-.91.38-1.95.57-3.1.57Zm0-3.51c.88,0,1.56-.27,2.04-.81s.72-1.31.72-2.31v-3.21c0-1-.24-1.77-.72-2.31s-1.16-.81-2.04-.81-1.56.27-2.04.81-.72,1.31-.72,2.31v3.21c0,1,.24,1.77.72,2.31s1.16.81,2.04.81Z"/>
    <path class="cls-6" d="m427.32,90.06c-1.52,0-2.8-.25-3.84-.74s-1.97-1.18-2.79-2.08l2.61-2.64c.56.62,1.18,1.11,1.86,1.47.68.36,1.45.54,2.31.54s1.49-.13,1.83-.41c.34-.27.51-.63.51-1.09,0-.74-.53-1.18-1.59-1.32l-1.71-.21c-3.54-.44-5.31-2.06-5.31-4.86,0-.76.15-1.45.44-2.08.29-.63.7-1.17,1.23-1.62.53-.45,1.17-.8,1.92-1.05.75-.25,1.59-.38,2.54-.38.82,0,1.54.06,2.17.17.63.11,1.19.27,1.68.48.49.21.94.47,1.35.78.41.31.81.66,1.21,1.03l-2.55,2.61c-.5-.5-1.06-.89-1.69-1.18s-1.27-.44-1.94-.44c-.76,0-1.3.12-1.62.36s-.48.56-.48.96.12.75.35.97c.23.23.66.4,1.31.5l1.77.24c3.46.46,5.19,2.04,5.19,4.74,0,.76-.16,1.46-.48,2.1-.32.64-.78,1.2-1.37,1.67-.59.47-1.3.83-2.13,1.09-.83.26-1.75.39-2.77.39Z"/>
  </g>
  <rect class="cls-2" x="153.3" y=".5" width="396.09" height="121.66" rx="60.83" ry="60.83"/>
  <rect class="cls-2" x="771.13" y=".5" width="396.09" height="121.66" rx="60.83" ry="60.83"/>
  <g>
    <path class="cls-6" d="m846.31,35.26v16.89h-4.56v-16.89h-5.67v-4.05h15.9v4.05h-5.67Z"/>
    <path class="cls-6" d="m863.2,52.15c-.8,0-1.46-.25-2-.75s-.87-1.17-1-2.01h-.18c-.24,1.02-.77,1.79-1.59,2.33-.82.53-1.83.79-3.03.79-1.58,0-2.79-.42-3.63-1.26-.84-.84-1.26-1.94-1.26-3.32,0-1.65.61-2.89,1.82-3.69,1.21-.81,2.85-1.21,4.93-1.21h2.49v-.99c0-.76-.2-1.36-.6-1.81-.4-.45-1.07-.67-2.01-.67-.88,0-1.58.19-2.1.57-.52.38-.95.81-1.29,1.29l-2.64-2.35c.64-.95,1.44-1.68,2.42-2.22.97-.53,2.28-.8,3.95-.8,2.24,0,3.92.49,5.04,1.47,1.12.98,1.68,2.41,1.68,4.29v6.9h1.47v3.45h-2.46Zm-6.15-2.73c.74,0,1.38-.16,1.91-.48s.79-.83.79-1.55v-1.84h-2.16c-1.74,0-2.61.58-2.61,1.76v.45c0,.58.18,1,.54,1.26.36.27.87.4,1.53.4Z"/>
    <path class="cls-6" d="m867.43,52.15v-15.75h4.44v3.42h.15c.08-.44.22-.87.42-1.28.2-.41.46-.77.79-1.09.33-.32.72-.57,1.18-.76s1-.29,1.62-.29h.78v4.14h-1.11c-1.3,0-2.26.17-2.89.51s-.95.97-.95,1.89v9.21h-4.44Z"/>
    <path class="cls-6" d="m880.57,34.72c-.9,0-1.56-.21-1.96-.62-.41-.41-.62-.93-.62-1.58v-.66c0-.64.21-1.17.62-1.58s1.06-.61,1.96-.61,1.55.21,1.96.61c.41.41.62.94.62,1.58v.66c0,.64-.21,1.17-.62,1.58s-1.06.62-1.96.62Zm-2.22,1.68h4.44v15.75h-4.44v-15.75Z"/>
    <path class="cls-6" d="m886.51,39.85h-2.22v-3.45h2.22v-1.86c0-1.52.4-2.66,1.2-3.43.8-.77,1.97-1.16,3.51-1.16h2.88v3.45h-3.15v3h3.15v3.45h-3.15v12.3h-4.44v-12.3Z"/>
    <path class="cls-6" d="m907,52.15c-.8,0-1.46-.25-2-.75s-.87-1.17-1-2.01h-.18c-.24,1.02-.77,1.79-1.59,2.33-.82.53-1.83.79-3.03.79-1.58,0-2.79-.42-3.63-1.26-.84-.84-1.26-1.94-1.26-3.32,0-1.65.61-2.89,1.82-3.69,1.21-.81,2.85-1.21,4.93-1.21h2.49v-.99c0-.76-.2-1.36-.6-1.81-.4-.45-1.07-.67-2.01-.67-.88,0-1.58.19-2.1.57-.52.38-.95.81-1.29,1.29l-2.64-2.35c.64-.95,1.44-1.68,2.42-2.22.97-.53,2.28-.8,3.95-.8,2.24,0,3.92.49,5.04,1.47,1.12.98,1.68,2.41,1.68,4.29v6.9h1.47v3.45h-2.46Zm-6.15-2.73c.74,0,1.38-.16,1.91-.48s.79-.83.79-1.55v-1.84h-2.16c-1.74,0-2.61.58-2.61,1.76v.45c0,.58.18,1,.54,1.26.36.27.87.4,1.53.4Z"/>
    <path class="cls-6" d="m916.57,52.51c-1.52,0-2.8-.25-3.84-.74-1.04-.49-1.97-1.18-2.79-2.08l2.61-2.64c.56.62,1.18,1.11,1.86,1.47s1.45.54,2.31.54,1.49-.13,1.83-.41c.34-.27.51-.63.51-1.09,0-.74-.53-1.18-1.59-1.32l-1.71-.21c-3.54-.44-5.31-2.06-5.31-4.86,0-.76.14-1.45.43-2.08.29-.63.7-1.17,1.23-1.62.53-.45,1.17-.8,1.92-1.05.75-.25,1.59-.38,2.54-.38.82,0,1.54.06,2.17.17.63.11,1.19.27,1.68.48s.94.47,1.35.78c.41.31.81.66,1.21,1.03l-2.55,2.61c-.5-.5-1.07-.89-1.7-1.18s-1.28-.44-1.93-.44c-.76,0-1.3.12-1.62.36-.32.24-.48.56-.48.96s.12.75.34.97.67.4,1.31.5l1.77.24c3.46.46,5.19,2.04,5.19,4.74,0,.76-.16,1.46-.48,2.1-.32.64-.78,1.2-1.36,1.67-.59.47-1.3.83-2.13,1.09s-1.75.39-2.77.39Z"/>
    <path class="cls-6" d="m937.39,52.51c-1.18,0-2.23-.2-3.15-.58-.92-.39-1.69-.94-2.31-1.65s-1.09-1.58-1.41-2.59c-.32-1.02-.48-2.16-.48-3.42s.16-2.4.48-3.41c.32-1.01.79-1.88,1.41-2.59.62-.72,1.39-1.27,2.31-1.65.92-.38,1.97-.57,3.15-.57,1.6,0,2.94.36,4,1.08,1.07.72,1.83,1.73,2.3,3.03l-3.6,1.56c-.14-.6-.43-1.11-.87-1.53s-1.05-.63-1.83-.63c-.9,0-1.58.29-2.04.88s-.69,1.38-.69,2.38v2.94c0,1,.23,1.79.69,2.37s1.14.87,2.04.87c.8,0,1.44-.21,1.91-.64.47-.43.81-1,1.04-1.7l3.45,1.5c-.52,1.5-1.33,2.6-2.42,3.3-1.09.7-2.42,1.05-3.98,1.05Z"/>
    <path class="cls-6" d="m951.58,52.51c-1.16,0-2.2-.19-3.1-.57-.91-.38-1.68-.93-2.31-1.65-.63-.72-1.12-1.59-1.46-2.61-.34-1.02-.51-2.16-.51-3.42s.17-2.4.51-3.42c.34-1.02.83-1.89,1.46-2.6.63-.71,1.4-1.25,2.31-1.63.91-.38,1.94-.57,3.1-.57s2.19.19,3.11.57c.91.38,1.68.93,2.31,1.63.63.71,1.11,1.58,1.46,2.6.34,1.02.51,2.16.51,3.42s-.17,2.4-.51,3.42c-.34,1.02-.83,1.89-1.46,2.61-.63.72-1.4,1.27-2.31,1.65-.91.38-1.95.57-3.11.57Zm0-3.51c.88,0,1.56-.27,2.04-.81s.72-1.31.72-2.31v-3.21c0-1-.24-1.77-.72-2.31s-1.16-.81-2.04-.81-1.56.27-2.04.81c-.48.54-.72,1.31-.72,2.31v3.21c0,1,.24,1.77.72,2.31.48.54,1.16.81,2.04.81Z"/>
    <path class="cls-6" d="m960.91,52.15v-15.75h4.44v2.67h.18c.28-.84.76-1.55,1.44-2.14s1.61-.89,2.79-.89c1.08,0,2,.27,2.76.81s1.31,1.33,1.65,2.37h.09c.14-.44.35-.86.65-1.25.29-.39.64-.72,1.06-1s.89-.5,1.41-.68c.52-.17,1.08-.25,1.68-.25,1.52,0,2.69.54,3.5,1.62.81,1.08,1.21,2.62,1.21,4.62v9.87h-4.44v-9.51c0-2-.72-3-2.16-3-.66,0-1.26.19-1.8.57-.54.38-.81.96-.81,1.74v10.2h-4.44v-9.51c0-2-.72-3-2.16-3-.32,0-.64.04-.95.13-.31.09-.59.24-.84.43-.25.2-.45.45-.6.74-.15.29-.23.62-.23,1v10.2h-4.44Z"/>
    <path class="cls-6" d="m986.53,36.4h4.44v2.64h.15c.22-.88.72-1.6,1.51-2.16.79-.56,1.7-.84,2.71-.84,2,0,3.51.7,4.53,2.1,1.02,1.4,1.53,3.44,1.53,6.12s-.51,4.72-1.53,6.13c-1.02,1.41-2.53,2.12-4.53,2.12-.52,0-1.01-.08-1.47-.23-.46-.15-.88-.36-1.25-.63-.37-.27-.69-.59-.94-.96-.26-.37-.45-.76-.57-1.18h-.15v8.64h-4.44v-21.75Zm7.35,12.51c.84,0,1.54-.29,2.08-.88s.83-1.38.83-2.38v-2.73c0-1-.28-1.79-.83-2.38s-1.25-.88-2.08-.88-1.54.21-2.08.62-.83.97-.83,1.69v4.65c0,.72.28,1.29.83,1.69.55.41,1.25.62,2.08.62Z"/>
    <path class="cls-6" d="m1010.14,52.51c-1.2,0-2.27-.2-3.21-.58-.94-.39-1.74-.94-2.38-1.65-.65-.71-1.14-1.58-1.47-2.59-.33-1.02-.5-2.16-.5-3.42s.16-2.37.48-3.38c.32-1.01.8-1.88,1.43-2.6.63-.72,1.4-1.27,2.32-1.67.92-.39,1.97-.58,3.15-.58,1.3,0,2.42.22,3.34.66.93.44,1.69,1.03,2.28,1.77s1.02,1.59,1.29,2.56c.27.97.41,1.99.41,3.04v1.32h-10.11v.24c0,1.03.28,1.85.84,2.45.56.61,1.44.91,2.64.91.92,0,1.67-.18,2.25-.55.58-.37,1.12-.81,1.62-1.32l2.22,2.77c-.7.82-1.62,1.46-2.75,1.92s-2.42.69-3.86.69Zm-.09-13.2c-.9,0-1.6.29-2.12.88-.51.59-.76,1.38-.76,2.36v.24h5.52v-.27c0-.96-.22-1.74-.65-2.33-.43-.59-1.09-.88-2-.88Z"/>
    <path class="cls-6" d="m1024.75,52.15c-1.54,0-2.71-.39-3.5-1.17s-1.18-1.92-1.18-3.42v-7.71h-2.22v-3.45h1.11c.6,0,1.01-.14,1.23-.43.22-.29.33-.71.33-1.25v-2.58h3.99v4.26h3.12v3.45h-3.12v8.85h2.88v3.45h-2.64Z"/>
    <path class="cls-6" d="m1031.74,34.72c-.9,0-1.56-.21-1.96-.62-.41-.41-.62-.93-.62-1.58v-.66c0-.64.21-1.17.62-1.58s1.06-.61,1.96-.61,1.55.21,1.96.61c.41.41.62.94.62,1.58v.66c0,.64-.21,1.17-.62,1.58s-1.06.62-1.96.62Zm-2.22,1.68h4.44v15.75h-4.44v-15.75Z"/>
    <path class="cls-6" d="m1042.42,52.15c-1.54,0-2.71-.39-3.5-1.17s-1.18-1.92-1.18-3.42v-7.71h-2.22v-3.45h1.11c.6,0,1.01-.14,1.23-.43.22-.29.33-.71.33-1.25v-2.58h3.99v4.26h3.12v3.45h-3.12v8.85h2.88v3.45h-2.64Z"/>
    <path class="cls-6" d="m1049.41,34.72c-.9,0-1.56-.21-1.96-.62-.41-.41-.62-.93-.62-1.58v-.66c0-.64.21-1.17.62-1.58s1.06-.61,1.96-.61,1.55.21,1.96.61c.41.41.62.94.62,1.58v.66c0,.64-.21,1.17-.62,1.58s-1.06.62-1.96.62Zm-2.22,1.68h4.44v15.75h-4.44v-15.75Z"/>
    <path class="cls-6" d="m1057.93,52.15l-5.16-15.75h4.38l1.95,6.36,1.47,5.7h.24l1.47-5.7,1.89-6.36h4.2l-5.16,15.75h-5.28Z"/>
    <path class="cls-6" d="m1080.88,52.15c-.8,0-1.46-.25-2-.75s-.87-1.17-1-2.01h-.18c-.24,1.02-.77,1.79-1.59,2.33-.82.53-1.83.79-3.03.79-1.58,0-2.79-.42-3.63-1.26-.84-.84-1.26-1.94-1.26-3.32,0-1.65.61-2.89,1.82-3.69,1.21-.81,2.85-1.21,4.93-1.21h2.49v-.99c0-.76-.2-1.36-.6-1.81-.4-.45-1.07-.67-2.01-.67-.88,0-1.58.19-2.1.57-.52.38-.95.81-1.29,1.29l-2.64-2.35c.64-.95,1.44-1.68,2.42-2.22.97-.53,2.28-.8,3.95-.8,2.24,0,3.92.49,5.04,1.47,1.12.98,1.68,2.41,1.68,4.29v6.9h1.47v3.45h-2.46Zm-6.15-2.73c.74,0,1.38-.16,1.91-.48s.79-.83.79-1.55v-1.84h-2.16c-1.74,0-2.61.58-2.61,1.76v.45c0,.58.18,1,.54,1.26.36.27.87.4,1.53.4Z"/>
    <path class="cls-6" d="m1090.45,52.51c-1.52,0-2.8-.25-3.84-.74-1.04-.49-1.97-1.18-2.79-2.08l2.61-2.64c.56.62,1.18,1.11,1.86,1.47s1.45.54,2.31.54,1.49-.13,1.83-.41c.34-.27.51-.63.51-1.09,0-.74-.53-1.18-1.59-1.32l-1.71-.21c-3.54-.44-5.31-2.06-5.31-4.86,0-.76.14-1.45.43-2.08.29-.63.7-1.17,1.23-1.62.53-.45,1.17-.8,1.92-1.05.75-.25,1.59-.38,2.54-.38.82,0,1.54.06,2.17.17.63.11,1.19.27,1.68.48s.94.47,1.35.78c.41.31.81.66,1.21,1.03l-2.55,2.61c-.5-.5-1.07-.89-1.7-1.18s-1.28-.44-1.93-.44c-.76,0-1.3.12-1.62.36-.32.24-.48.56-.48.96s.12.75.34.97.67.4,1.31.5l1.77.24c3.46.46,5.19,2.04,5.19,4.74,0,.76-.16,1.46-.48,2.1-.32.64-.78,1.2-1.36,1.67-.59.47-1.3.83-2.13,1.09s-1.75.39-2.77.39Z"/>
    <path class="cls-6" d="m897.91,87.74c-.8,0-1.46-.25-2-.75s-.87-1.17-1-2.01h-.18c-.24,1.02-.77,1.79-1.59,2.33-.82.53-1.83.79-3.03.79-1.58,0-2.79-.42-3.63-1.26-.84-.84-1.26-1.94-1.26-3.32,0-1.65.61-2.89,1.82-3.69,1.21-.81,2.85-1.21,4.93-1.21h2.49v-.99c0-.76-.2-1.36-.6-1.81-.4-.45-1.07-.67-2.01-.67-.88,0-1.58.19-2.1.57-.52.38-.95.81-1.29,1.29l-2.64-2.35c.64-.95,1.44-1.68,2.42-2.22.97-.53,2.28-.8,3.95-.8,2.24,0,3.92.49,5.04,1.47,1.12.98,1.68,2.41,1.68,4.29v6.9h1.47v3.45h-2.46Zm-6.15-2.73c.74,0,1.38-.16,1.91-.48s.79-.83.79-1.55v-1.84h-2.16c-1.74,0-2.61.58-2.61,1.76v.45c0,.58.18,1,.54,1.26.36.27.87.4,1.53.4Z"/>
    <path class="cls-6" d="m908.02,87.74v-15.75h4.44v2.67h.18c.28-.82.77-1.53,1.47-2.13.7-.6,1.67-.9,2.91-.9,1.62,0,2.84.54,3.67,1.62.83,1.08,1.25,2.62,1.25,4.62v9.87h-4.44v-9.51c0-1.02-.16-1.78-.48-2.27-.32-.49-.89-.73-1.71-.73-.36,0-.71.04-1.05.13s-.64.24-.92.43c-.27.2-.48.45-.64.74s-.24.62-.24,1v10.2h-4.44Z"/>
    <path class="cls-6" d="m926.92,70.31c-.9,0-1.56-.21-1.96-.62-.41-.41-.62-.93-.62-1.58v-.66c0-.64.21-1.17.62-1.58s1.06-.61,1.96-.61,1.55.21,1.96.61c.41.41.62.94.62,1.58v.66c0,.64-.21,1.17-.62,1.58s-1.06.62-1.96.62Zm-2.22,1.68h4.44v15.75h-4.44v-15.75Z"/>
    <path class="cls-6" d="m935.44,87.74l-5.16-15.75h4.38l1.95,6.36,1.47,5.7h.24l1.47-5.7,1.89-6.36h4.2l-5.16,15.75h-5.28Z"/>
    <path class="cls-6" d="m953.35,88.1c-1.2,0-2.27-.2-3.21-.58-.94-.39-1.74-.94-2.38-1.65-.65-.71-1.14-1.58-1.47-2.59-.33-1.02-.5-2.16-.5-3.42s.16-2.37.48-3.38c.32-1.01.8-1.88,1.43-2.6.63-.72,1.4-1.27,2.32-1.67.92-.39,1.97-.58,3.15-.58,1.3,0,2.42.22,3.34.66.93.44,1.69,1.03,2.28,1.77s1.02,1.59,1.29,2.56c.27.97.41,1.99.41,3.04v1.32h-10.11v.24c0,1.03.28,1.85.84,2.45.56.61,1.44.91,2.64.91.92,0,1.67-.18,2.25-.55.58-.37,1.12-.81,1.62-1.32l2.22,2.77c-.7.82-1.62,1.46-2.75,1.92s-2.42.69-3.86.69Zm-.09-13.2c-.9,0-1.6.29-2.12.88-.51.59-.76,1.38-.76,2.36v.24h5.52v-.27c0-.96-.22-1.74-.65-2.33-.43-.59-1.09-.88-2-.88Z"/>
    <path class="cls-6" d="m966.85,87.74c-1.52,0-2.64-.37-3.35-1.11-.71-.74-1.06-1.81-1.06-3.21v-17.88h4.44v18.75h1.98v3.45h-2.01Z"/>
    <path class="cls-6" d="m990.79,88.88c0,.84-.15,1.58-.44,2.22-.29.64-.76,1.18-1.42,1.63s-1.54.79-2.62,1.02c-1.09.23-2.44.35-4.04.35-1.36,0-2.52-.09-3.46-.25-.95-.17-1.72-.41-2.31-.72-.59-.31-1.02-.69-1.29-1.14-.27-.45-.41-.96-.41-1.54,0-.88.26-1.57.78-2.07.52-.5,1.24-.81,2.16-.93v-.33c-.76-.14-1.33-.47-1.71-.98s-.57-1.11-.57-1.79c0-.42.08-.79.25-1.1s.39-.58.66-.81c.27-.23.58-.42.94-.56.36-.14.72-.25,1.08-.33v-.12c-.96-.44-1.67-1.04-2.13-1.81s-.69-1.66-.69-2.68c0-1.6.55-2.88,1.67-3.85,1.11-.97,2.8-1.45,5.08-1.45,1.04,0,1.93.1,2.67.3v-.6c0-.84.2-1.44.61-1.81s1-.56,1.76-.56h2.49v3.3h-3.48v.18c.92.44,1.6,1.04,2.04,1.81.44.77.66,1.67.66,2.69,0,1.58-.56,2.84-1.67,3.79-1.11.95-2.81,1.42-5.08,1.42-1.02,0-1.95-.11-2.79-.33-.46.3-.69.72-.69,1.26,0,.38.14.68.43.89s.78.31,1.46.31h4.56c1.92,0,3.31.4,4.18,1.2s1.31,1.93,1.31,3.39Zm-4.17.6c0-.46-.18-.81-.54-1.05-.36-.24-.99-.36-1.89-.36h-5.4c-.2.2-.35.42-.44.67s-.13.5-.13.74c0,.58.25,1,.75,1.27.5.27,1.35.41,2.55.41h1.8c1.2,0,2.05-.13,2.55-.41.5-.27.75-.69.75-1.27Zm-4.29-10.26c.88,0,1.53-.18,1.96-.55.43-.37.64-.9.64-1.59v-.36c0-.69-.21-1.23-.64-1.59-.43-.37-1.08-.55-1.96-.55s-1.54.18-1.97.55c-.43.37-.64.9-.64,1.59v.36c0,.7.21,1.23.64,1.59.43.37,1.08.55,1.97.55Z"/>
    <path class="cls-6" d="m995.98,87.74c-1.52,0-2.64-.37-3.35-1.11-.71-.74-1.06-1.81-1.06-3.21v-17.88h4.44v18.75h1.98v3.45h-2.01Z"/>
    <path class="cls-6" d="m1005.85,88.1c-1.16,0-2.2-.19-3.1-.57-.91-.38-1.68-.93-2.31-1.65-.63-.72-1.12-1.59-1.46-2.61-.34-1.02-.51-2.16-.51-3.42s.17-2.4.51-3.42c.34-1.02.83-1.89,1.46-2.6.63-.71,1.4-1.25,2.31-1.63.91-.38,1.94-.57,3.1-.57s2.19.19,3.11.57c.91.38,1.68.93,2.31,1.63.63.71,1.11,1.58,1.46,2.6.34,1.02.51,2.16.51,3.42s-.17,2.4-.51,3.42c-.34,1.02-.83,1.89-1.46,2.61-.63.72-1.4,1.27-2.31,1.65-.91.38-1.95.57-3.11.57Zm0-3.51c.88,0,1.56-.27,2.04-.81s.72-1.31.72-2.31v-3.21c0-1-.24-1.77-.72-2.31s-1.16-.81-2.04-.81-1.56.27-2.04.81c-.48.54-.72,1.31-.72,2.31v3.21c0,1,.24,1.77.72,2.31.48.54,1.16.81,2.04.81Z"/>
    <path class="cls-6" d="m1015.18,65.54h4.44v9.09h.15c.22-.88.72-1.6,1.51-2.16.79-.56,1.7-.84,2.71-.84,2,0,3.51.7,4.53,2.1,1.02,1.4,1.53,3.44,1.53,6.12s-.51,4.72-1.53,6.13c-1.02,1.41-2.53,2.12-4.53,2.12-.52,0-1.01-.08-1.47-.23-.46-.15-.88-.36-1.25-.63-.37-.27-.69-.59-.94-.96-.26-.37-.45-.76-.57-1.18h-.15v2.64h-4.44v-22.2Zm7.35,18.96c.84,0,1.54-.29,2.08-.88s.83-1.38.83-2.38v-2.73c0-1-.28-1.79-.83-2.38s-1.25-.88-2.08-.88-1.54.21-2.08.62-.83.97-.83,1.69v4.65c0,.72.28,1.29.83,1.69.55.41,1.25.62,2.08.62Z"/>
    <path class="cls-6" d="m1043.86,87.74c-.8,0-1.46-.25-2-.75s-.87-1.17-1-2.01h-.18c-.24,1.02-.77,1.79-1.59,2.33-.82.53-1.83.79-3.03.79-1.58,0-2.79-.42-3.63-1.26-.84-.84-1.26-1.94-1.26-3.32,0-1.65.61-2.89,1.82-3.69,1.21-.81,2.85-1.21,4.93-1.21h2.49v-.99c0-.76-.2-1.36-.6-1.81-.4-.45-1.07-.67-2.01-.67-.88,0-1.58.19-2.1.57-.52.38-.95.81-1.29,1.29l-2.64-2.35c.64-.95,1.44-1.68,2.42-2.22.97-.53,2.28-.8,3.95-.8,2.24,0,3.92.49,5.04,1.47,1.12.98,1.68,2.41,1.68,4.29v6.9h1.47v3.45h-2.46Zm-6.15-2.73c.74,0,1.38-.16,1.91-.48s.79-.83.79-1.55v-1.84h-2.16c-1.74,0-2.61.58-2.61,1.76v.45c0,.58.18,1,.54,1.26.36.27.87.4,1.53.4Z"/>
    <path class="cls-6" d="m1052.5,87.74c-1.52,0-2.64-.37-3.35-1.11-.71-.74-1.06-1.81-1.06-3.21v-17.88h4.44v18.75h1.98v3.45h-2.01Z"/>
  </g>
  <rect class="cls-2" x="944.08" y="234.65" width="396.09" height="121.66" rx="60.83" ry="60.83"/>
  <g>
    <path class="cls-6" d="m1062.51,282.96h-.15c-.16,1.06-.7,1.94-1.62,2.64-.92.7-2.17,1.05-3.75,1.05-1.2,0-2.32-.23-3.36-.69s-1.95-1.14-2.73-2.04c-.78-.9-1.39-2.02-1.83-3.36-.44-1.34-.66-2.89-.66-4.65s.23-3.32.69-4.68c.46-1.36,1.1-2.5,1.93-3.42.83-.92,1.83-1.62,2.99-2.1,1.16-.48,2.45-.72,3.87-.72,1.88,0,3.5.41,4.86,1.21s2.43,2.03,3.21,3.64l-3.72,2.13c-.32-.82-.82-1.52-1.5-2.08-.68-.57-1.63-.86-2.85-.86-1.42,0-2.55.41-3.39,1.23s-1.26,2.11-1.26,3.87v3.36c0,1.74.42,3.03,1.26,3.86s1.97,1.24,3.39,1.24c.56,0,1.09-.06,1.59-.19.5-.13.94-.33,1.32-.6.38-.27.68-.59.89-.97s.31-.83.31-1.35v-1.05h-3.9v-3.81h8.25v11.67h-3.84v-3.33Z"/>
    <path class="cls-6" d="m1069.35,286.29v-15.75h4.44v3.42h.15c.08-.44.22-.87.42-1.28.2-.41.46-.77.79-1.09.33-.32.72-.57,1.18-.76s1-.29,1.62-.29h.78v4.14h-1.11c-1.3,0-2.26.17-2.89.51s-.95.97-.95,1.89v9.21h-4.44Z"/>
    <path class="cls-6" d="m1091.49,286.29c-.8,0-1.46-.25-2-.75s-.87-1.17-1-2.01h-.18c-.24,1.02-.77,1.79-1.59,2.33-.82.53-1.83.79-3.03.79-1.58,0-2.79-.42-3.63-1.26-.84-.84-1.26-1.94-1.26-3.32,0-1.65.61-2.89,1.82-3.69,1.21-.81,2.85-1.21,4.93-1.21h2.49v-.99c0-.76-.2-1.36-.6-1.81-.4-.45-1.07-.67-2.01-.67-.88,0-1.58.19-2.1.57-.52.38-.95.81-1.29,1.29l-2.64-2.35c.64-.95,1.44-1.68,2.42-2.22.97-.53,2.28-.8,3.95-.8,2.24,0,3.92.49,5.04,1.47,1.12.98,1.68,2.41,1.68,4.29v6.9h1.47v3.45h-2.46Zm-6.15-2.73c.74,0,1.38-.16,1.91-.48s.79-.83.79-1.55v-1.84h-2.16c-1.74,0-2.61.58-2.61,1.76v.45c0,.58.18,1,.54,1.26.36.27.87.4,1.53.4Z"/>
    <path class="cls-6" d="m1095.72,286.29v-15.75h4.44v2.67h.18c.28-.82.77-1.53,1.47-2.13.7-.6,1.67-.9,2.91-.9,1.62,0,2.84.54,3.67,1.62.83,1.08,1.25,2.62,1.25,4.62v9.87h-4.44v-9.51c0-1.02-.16-1.78-.48-2.27-.32-.49-.89-.73-1.71-.73-.36,0-.71.04-1.05.13s-.64.24-.92.43c-.27.2-.48.45-.64.74s-.24.62-.24,1v10.2h-4.44Z"/>
    <path class="cls-6" d="m1121.64,286.29l-5.16-15.75h4.38l1.95,6.36,1.47,5.7h.24l1.47-5.7,1.89-6.36h4.2l-5.16,15.75h-5.28Z"/>
    <path class="cls-6" d="m1144.59,286.29c-.8,0-1.46-.25-2-.75s-.87-1.17-1-2.01h-.18c-.24,1.02-.77,1.79-1.59,2.33-.82.53-1.83.79-3.03.79-1.58,0-2.79-.42-3.63-1.26-.84-.84-1.26-1.94-1.26-3.32,0-1.65.61-2.89,1.82-3.69,1.21-.81,2.85-1.21,4.93-1.21h2.49v-.99c0-.76-.2-1.36-.6-1.81-.4-.45-1.07-.67-2.01-.67-.88,0-1.58.19-2.1.57-.52.38-.95.81-1.29,1.29l-2.64-2.35c.64-.95,1.44-1.68,2.42-2.22.97-.53,2.28-.8,3.95-.8,2.24,0,3.92.49,5.04,1.47,1.12.98,1.68,2.41,1.68,4.29v6.9h1.47v3.45h-2.46Zm-6.15-2.73c.74,0,1.38-.16,1.91-.48s.79-.83.79-1.55v-1.84h-2.16c-1.74,0-2.61.58-2.61,1.76v.45c0,.58.18,1,.54,1.26.36.27.87.4,1.53.4Z"/>
    <path class="cls-6" d="m1148.82,286.29v-15.75h4.44v3.42h.15c.08-.44.22-.87.42-1.28.2-.41.46-.77.79-1.09.33-.32.72-.57,1.18-.76s1-.29,1.62-.29h.78v4.14h-1.11c-1.3,0-2.26.17-2.89.51s-.95.97-.95,1.89v9.21h-4.44Z"/>
    <path class="cls-6" d="m1161.96,268.86c-.9,0-1.56-.21-1.96-.62-.41-.41-.62-.93-.62-1.58v-.66c0-.64.21-1.17.62-1.58s1.06-.61,1.96-.61,1.55.21,1.96.61c.41.41.62.94.62,1.58v.66c0,.64-.21,1.17-.62,1.58s-1.06.62-1.96.62Zm-2.22,1.68h4.44v15.75h-4.44v-15.75Z"/>
    <path class="cls-6" d="m1173.69,286.65c-1.2,0-2.27-.2-3.21-.58-.94-.39-1.74-.94-2.38-1.65-.65-.71-1.14-1.58-1.47-2.59-.33-1.02-.5-2.16-.5-3.42s.16-2.37.48-3.38c.32-1.01.8-1.88,1.43-2.6.63-.72,1.4-1.27,2.32-1.67.92-.39,1.97-.58,3.15-.58,1.3,0,2.42.22,3.34.66.93.44,1.69,1.03,2.28,1.77s1.02,1.59,1.29,2.56c.27.97.41,1.99.41,3.04v1.32h-10.11v.24c0,1.03.28,1.85.84,2.45.56.61,1.44.91,2.64.91.92,0,1.67-.18,2.25-.55.58-.37,1.12-.81,1.62-1.32l2.22,2.77c-.7.82-1.62,1.46-2.75,1.92s-2.42.69-3.86.69Zm-.09-13.2c-.9,0-1.6.29-2.12.88-.51.59-.76,1.38-.76,2.36v.24h5.52v-.27c0-.96-.22-1.74-.65-2.33-.43-.59-1.09-.88-2-.88Z"/>
    <path class="cls-6" d="m1192.44,283.65h-.15c-.12.42-.31.81-.57,1.18s-.58.69-.94.96c-.37.27-.79.48-1.26.63-.47.15-.96.23-1.46.23-2,0-3.51-.71-4.53-2.12-1.02-1.41-1.53-3.46-1.53-6.13s.51-4.72,1.53-6.12c1.02-1.4,2.53-2.1,4.53-2.1,1.02,0,1.92.28,2.72.84.79.56,1.29,1.28,1.51,2.16h.15v-9.09h4.44v22.2h-4.44v-2.64Zm-2.91-.6c.84,0,1.53-.21,2.08-.62.55-.41.83-.97.83-1.69v-4.65c0-.72-.28-1.28-.83-1.69-.55-.41-1.25-.62-2.08-.62s-1.54.29-2.08.88c-.55.59-.83,1.38-.83,2.38v2.73c0,1,.27,1.79.83,2.38.55.59,1.25.88,2.08.88Z"/>
    <path class="cls-6" d="m1211.46,286.29c-.8,0-1.46-.25-2-.75s-.87-1.17-1-2.01h-.18c-.24,1.02-.77,1.79-1.59,2.33-.82.53-1.83.79-3.03.79-1.58,0-2.79-.42-3.63-1.26-.84-.84-1.26-1.94-1.26-3.32,0-1.65.61-2.89,1.82-3.69,1.21-.81,2.85-1.21,4.93-1.21h2.49v-.99c0-.76-.2-1.36-.6-1.81-.4-.45-1.07-.67-2.01-.67-.88,0-1.58.19-2.1.57-.52.38-.95.81-1.29,1.29l-2.64-2.35c.64-.95,1.44-1.68,2.42-2.22.97-.53,2.28-.8,3.95-.8,2.24,0,3.92.49,5.04,1.47,1.12.98,1.68,2.41,1.68,4.29v6.9h1.47v3.45h-2.46Zm-6.15-2.73c.74,0,1.38-.16,1.91-.48s.79-.83.79-1.55v-1.84h-2.16c-1.74,0-2.61.58-2.61,1.76v.45c0,.58.18,1,.54,1.26.36.27.87.4,1.53.4Z"/>
    <path class="cls-6" d="m1225.35,283.65h-.15c-.12.42-.31.81-.57,1.18s-.58.69-.94.96c-.37.27-.79.48-1.26.63-.47.15-.96.23-1.46.23-2,0-3.51-.71-4.53-2.12-1.02-1.41-1.53-3.46-1.53-6.13s.51-4.72,1.53-6.12c1.02-1.4,2.53-2.1,4.53-2.1,1.02,0,1.92.28,2.72.84.79.56,1.29,1.28,1.51,2.16h.15v-9.09h4.44v22.2h-4.44v-2.64Zm-2.91-.6c.84,0,1.53-.21,2.08-.62.55-.41.83-.97.83-1.69v-4.65c0-.72-.28-1.28-.83-1.69-.55-.41-1.25-.62-2.08-.62s-1.54.29-2.08.88c-.55.59-.83,1.38-.83,2.38v2.73c0,1,.27,1.79.83,2.38.55.59,1.25.88,2.08.88Z"/>
    <path class="cls-6" d="m1059.83,319.24h-.15c-.12.42-.31.81-.57,1.18s-.58.69-.94.96c-.37.27-.79.48-1.26.63-.47.15-.96.23-1.46.23-2,0-3.51-.71-4.53-2.12-1.02-1.41-1.53-3.46-1.53-6.13s.51-4.72,1.53-6.12c1.02-1.4,2.53-2.1,4.53-2.1,1.02,0,1.92.28,2.72.84.79.56,1.29,1.28,1.51,2.16h.15v-9.09h4.44v22.2h-4.44v-2.64Zm-2.91-.6c.84,0,1.53-.21,2.08-.62.55-.41.83-.97.83-1.69v-4.65c0-.72-.28-1.28-.83-1.69-.55-.41-1.25-.62-2.08-.62s-1.54.29-2.08.88c-.55.59-.83,1.38-.83,2.38v2.73c0,1,.27,1.79.83,2.38.55.59,1.25.88,2.08.88Z"/>
    <path class="cls-6" d="m1073.77,322.24c-1.2,0-2.27-.2-3.21-.58-.94-.39-1.74-.94-2.38-1.65-.65-.71-1.14-1.58-1.47-2.59-.33-1.02-.5-2.16-.5-3.42s.16-2.37.48-3.38c.32-1.01.8-1.88,1.43-2.6.63-.72,1.4-1.27,2.32-1.67.92-.39,1.97-.58,3.15-.58,1.3,0,2.42.22,3.34.66.93.44,1.69,1.03,2.28,1.77s1.02,1.59,1.29,2.56c.27.97.41,1.99.41,3.04v1.32h-10.11v.24c0,1.03.28,1.85.84,2.45.56.61,1.44.91,2.64.91.92,0,1.67-.18,2.25-.55.58-.37,1.12-.81,1.62-1.32l2.22,2.77c-.7.82-1.62,1.46-2.75,1.92s-2.42.69-3.86.69Zm-.09-13.2c-.9,0-1.6.29-2.12.88-.51.59-.76,1.38-.76,2.36v.24h5.52v-.27c0-.96-.22-1.74-.65-2.33-.43-.59-1.09-.88-2-.88Z"/>
    <path class="cls-6" d="m1094.26,321.88c-1.54,0-2.71-.39-3.5-1.17s-1.18-1.92-1.18-3.42v-7.71h-2.22v-3.45h1.11c.6,0,1.01-.14,1.23-.43.22-.29.33-.71.33-1.25v-2.58h3.99v4.26h3.12v3.45h-3.12v8.85h2.88v3.45h-2.64Z"/>
    <path class="cls-6" d="m1105.48,322.24c-1.2,0-2.27-.2-3.21-.58-.94-.39-1.74-.94-2.38-1.65-.65-.71-1.14-1.58-1.47-2.59-.33-1.02-.5-2.16-.5-3.42s.16-2.37.48-3.38c.32-1.01.8-1.88,1.43-2.6.63-.72,1.4-1.27,2.32-1.67.92-.39,1.97-.58,3.15-.58,1.3,0,2.42.22,3.34.66.93.44,1.69,1.03,2.28,1.77s1.02,1.59,1.29,2.56c.27.97.41,1.99.41,3.04v1.32h-10.11v.24c0,1.03.28,1.85.84,2.45.56.61,1.44.91,2.64.91.92,0,1.67-.18,2.25-.55.58-.37,1.12-.81,1.62-1.32l2.22,2.77c-.7.82-1.62,1.46-2.75,1.92s-2.42.69-3.86.69Zm-.09-13.2c-.9,0-1.6.29-2.12.88-.51.59-.76,1.38-.76,2.36v.24h5.52v-.27c0-.96-.22-1.74-.65-2.33-.43-.59-1.09-.88-2-.88Z"/>
    <path class="cls-6" d="m1120.93,322.24c-1.18,0-2.23-.2-3.15-.58-.92-.39-1.69-.94-2.31-1.65s-1.09-1.58-1.41-2.59c-.32-1.02-.48-2.16-.48-3.42s.16-2.4.48-3.41c.32-1.01.79-1.88,1.41-2.59.62-.72,1.39-1.27,2.31-1.65.92-.38,1.97-.57,3.15-.57,1.6,0,2.94.36,4,1.08,1.07.72,1.83,1.73,2.3,3.03l-3.6,1.56c-.14-.6-.43-1.11-.87-1.53s-1.05-.63-1.83-.63c-.9,0-1.58.29-2.04.88s-.69,1.38-.69,2.38v2.94c0,1,.23,1.79.69,2.37s1.14.87,2.04.87c.8,0,1.44-.21,1.91-.64.47-.43.81-1,1.04-1.7l3.45,1.5c-.52,1.5-1.33,2.6-2.42,3.3-1.09.7-2.42,1.05-3.98,1.05Z"/>
    <path class="cls-6" d="m1128.88,321.88v-15.75h4.44v2.67h.18c.28-.82.77-1.53,1.47-2.13.7-.6,1.67-.9,2.91-.9,1.62,0,2.84.54,3.67,1.62.83,1.08,1.25,2.62,1.25,4.62v9.87h-4.44v-9.51c0-1.02-.16-1.78-.48-2.27-.32-.49-.89-.73-1.71-.73-.36,0-.71.04-1.05.13s-.64.24-.92.43c-.27.2-.48.45-.64.74s-.24.62-.24,1v10.2h-4.44Z"/>
    <path class="cls-6" d="m1151.95,322.24c-1.16,0-2.2-.19-3.1-.57-.91-.38-1.68-.93-2.31-1.65-.63-.72-1.12-1.59-1.46-2.61-.34-1.02-.51-2.16-.51-3.42s.17-2.4.51-3.42c.34-1.02.83-1.89,1.46-2.6.63-.71,1.4-1.25,2.31-1.63.91-.38,1.94-.57,3.1-.57s2.19.19,3.11.57c.91.38,1.68.93,2.31,1.63.63.71,1.11,1.58,1.46,2.6.34,1.02.51,2.16.51,3.42s-.17,2.4-.51,3.42c-.34,1.02-.83,1.89-1.46,2.61-.63.72-1.4,1.27-2.31,1.65-.91.38-1.95.57-3.11.57Zm0-3.51c.88,0,1.56-.27,2.04-.81s.72-1.31.72-2.31v-3.21c0-1-.24-1.77-.72-2.31s-1.16-.81-2.04-.81-1.56.27-2.04.81c-.48.54-.72,1.31-.72,2.31v3.21c0,1,.24,1.77.72,2.31.48.54,1.16.81,2.04.81Z"/>
    <path class="cls-6" d="m1165.69,321.88c-1.52,0-2.64-.37-3.35-1.11-.71-.74-1.06-1.81-1.06-3.21v-17.88h4.44v18.75h1.98v3.45h-2.01Z"/>
    <path class="cls-6" d="m1175.56,322.24c-1.16,0-2.2-.19-3.1-.57-.91-.38-1.68-.93-2.31-1.65-.63-.72-1.12-1.59-1.46-2.61-.34-1.02-.51-2.16-.51-3.42s.17-2.4.51-3.42c.34-1.02.83-1.89,1.46-2.6.63-.71,1.4-1.25,2.31-1.63.91-.38,1.94-.57,3.1-.57s2.19.19,3.11.57c.91.38,1.68.93,2.31,1.63.63.71,1.11,1.58,1.46,2.6.34,1.02.51,2.16.51,3.42s-.17,2.4-.51,3.42c-.34,1.02-.83,1.89-1.46,2.61-.63.72-1.4,1.27-2.31,1.65-.91.38-1.95.57-3.11.57Zm0-3.51c.88,0,1.56-.27,2.04-.81s.72-1.31.72-2.31v-3.21c0-1-.24-1.77-.72-2.31s-1.16-.81-2.04-.81-1.56.27-2.04.81c-.48.54-.72,1.31-.72,2.31v3.21c0,1,.24,1.77.72,2.31.48.54,1.16.81,2.04.81Z"/>
    <path class="cls-6" d="m1199.47,323.02c0,.84-.15,1.58-.44,2.22-.29.64-.76,1.18-1.42,1.63s-1.54.79-2.62,1.02c-1.09.23-2.44.35-4.04.35-1.36,0-2.52-.09-3.46-.25-.95-.17-1.72-.41-2.31-.72-.59-.31-1.02-.69-1.29-1.14-.27-.45-.41-.96-.41-1.54,0-.88.26-1.57.78-2.07.52-.5,1.24-.81,2.16-.93v-.33c-.76-.14-1.33-.47-1.71-.98s-.57-1.11-.57-1.79c0-.42.08-.79.25-1.1s.39-.58.66-.81c.27-.23.58-.42.94-.56.36-.14.72-.25,1.08-.33v-.12c-.96-.44-1.67-1.04-2.13-1.81s-.69-1.66-.69-2.68c0-1.6.55-2.88,1.67-3.85,1.11-.97,2.8-1.45,5.08-1.45,1.04,0,1.93.1,2.67.3v-.6c0-.84.2-1.44.61-1.81s1-.56,1.76-.56h2.49v3.3h-3.48v.18c.92.44,1.6,1.04,2.04,1.81.44.77.66,1.67.66,2.69,0,1.58-.56,2.84-1.67,3.79-1.11.95-2.81,1.42-5.08,1.42-1.02,0-1.95-.11-2.79-.33-.46.3-.69.72-.69,1.26,0,.38.14.68.43.89s.78.31,1.46.31h4.56c1.92,0,3.31.4,4.18,1.2s1.31,1.93,1.31,3.39Zm-4.17.6c0-.46-.18-.81-.54-1.05-.36-.24-.99-.36-1.89-.36h-5.4c-.2.2-.35.42-.44.67s-.13.5-.13.74c0,.58.25,1,.75,1.27.5.27,1.35.41,2.55.41h1.8c1.2,0,2.05-.13,2.55-.41.5-.27.75-.69.75-1.27Zm-4.29-10.26c.88,0,1.53-.18,1.96-.55.43-.37.64-.9.64-1.59v-.36c0-.69-.21-1.23-.64-1.59-.43-.37-1.08-.55-1.96-.55s-1.54.18-1.97.55c-.43.37-.64.9-.64,1.59v.36c0,.7.21,1.23.64,1.59.43.37,1.08.55,1.97.55Z"/>
    <path class="cls-6" d="m1200.25,321.88v-15.75h4.44v15.75h-4.44Zm2.73-17.37l-2.64-1.29,2.97-5.82,3.69,1.83-4.02,5.28Z"/>
    <path class="cls-6" d="m1219.27,321.88c-.8,0-1.46-.25-2-.75s-.87-1.17-1-2.01h-.18c-.24,1.02-.77,1.79-1.59,2.33-.82.53-1.83.79-3.03.79-1.58,0-2.79-.42-3.63-1.26-.84-.84-1.26-1.94-1.26-3.32,0-1.65.61-2.89,1.82-3.69,1.21-.81,2.85-1.21,4.93-1.21h2.49v-.99c0-.76-.2-1.36-.6-1.81-.4-.45-1.07-.67-2.01-.67-.88,0-1.58.19-2.1.57-.52.38-.95.81-1.29,1.29l-2.64-2.35c.64-.95,1.44-1.68,2.42-2.22.97-.53,2.28-.8,3.95-.8,2.24,0,3.92.49,5.04,1.47,1.12.98,1.68,2.41,1.68,4.29v6.9h1.47v3.45h-2.46Zm-6.15-2.73c.74,0,1.38-.16,1.91-.48s.79-.83.79-1.55v-1.84h-2.16c-1.74,0-2.61.58-2.61,1.76v.45c0,.58.18,1,.54,1.26.36.27.87.4,1.53.4Z"/>
    <path class="cls-6" d="m1228.84,322.24c-1.52,0-2.8-.25-3.84-.74-1.04-.49-1.97-1.18-2.79-2.08l2.61-2.64c.56.62,1.18,1.11,1.86,1.47s1.45.54,2.31.54,1.49-.13,1.83-.41c.34-.27.51-.63.51-1.09,0-.74-.53-1.18-1.59-1.32l-1.71-.21c-3.54-.44-5.31-2.06-5.31-4.86,0-.76.14-1.45.43-2.08.29-.63.7-1.17,1.23-1.62.53-.45,1.17-.8,1.92-1.05.75-.25,1.59-.38,2.54-.38.82,0,1.54.06,2.17.17.63.11,1.19.27,1.68.48s.94.47,1.35.78c.41.31.81.66,1.21,1.03l-2.55,2.61c-.5-.5-1.07-.89-1.7-1.18s-1.28-.44-1.93-.44c-.76,0-1.3.12-1.62.36-.32.24-.48.56-.48.96s.12.75.34.97.67.4,1.31.5l1.77.24c3.46.46,5.19,2.04,5.19,4.74,0,.76-.16,1.46-.48,2.1-.32.64-.78,1.2-1.36,1.67-.59.47-1.3.83-2.13,1.09s-1.75.39-2.77.39Z"/>
  </g>
  <rect class="cls-2" x=".5" y="234.65" width="396.09" height="121.66" rx="60.83" ry="60.83"/>
  <g>
    <path class="cls-6" d="m41.83,286.29v-20.94h14.25v4.05h-9.69v4.26h8.31v4.05h-8.31v4.53h9.69v4.05h-14.25Z"/>
    <path class="cls-6" d="m67.96,283.65h-.15c-.12.42-.31.81-.57,1.18s-.57.69-.94.96c-.37.27-.79.48-1.26.63-.47.15-.96.23-1.46.23-2,0-3.51-.71-4.53-2.12s-1.53-3.46-1.53-6.13.51-4.72,1.53-6.12,2.53-2.1,4.53-2.1c1.02,0,1.92.28,2.71.84.79.56,1.29,1.28,1.52,2.16h.15v-2.64h4.44v21.75h-4.44v-8.64Zm-2.91-.6c.84,0,1.53-.21,2.08-.62.55-.41.83-.97.83-1.69v-4.65c0-.72-.27-1.28-.83-1.69s-1.24-.62-2.08-.62-1.54.29-2.08.88c-.55.59-.82,1.38-.82,2.38v2.73c0,1,.27,1.79.82,2.38.55.59,1.25.88,2.08.88Z"/>
    <path class="cls-6" d="m84.64,283.65h-.15c-.14.4-.33.78-.56,1.14-.23.36-.52.68-.89.96-.36.28-.79.5-1.27.66-.49.16-1.06.24-1.69.24-1.62,0-2.85-.54-3.68-1.61-.83-1.07-1.24-2.6-1.24-4.6v-9.9h4.44v9.51c0,.96.17,1.7.51,2.22.34.52.92.78,1.74.78.34,0,.68-.05,1.02-.15.34-.1.64-.25.9-.44.26-.19.47-.42.63-.71.16-.28.24-.61.24-.99v-10.23h4.44v15.75h-4.44v-2.64Z"/>
    <path class="cls-6" d="m94.24,268.86c-.9,0-1.56-.21-1.96-.62-.41-.41-.62-.93-.62-1.58v-.66c0-.64.21-1.17.62-1.58.41-.41,1.06-.61,1.96-.61s1.55.21,1.96.61c.41.41.62.94.62,1.58v.66c0,.64-.21,1.17-.62,1.58-.41.41-1.06.62-1.96.62Zm-2.22,1.68h4.44v15.75h-4.44v-15.75Z"/>
    <path class="cls-6" d="m99.4,270.54h4.44v2.64h.15c.22-.88.72-1.6,1.51-2.16.79-.56,1.7-.84,2.72-.84,2,0,3.51.7,4.53,2.1s1.53,3.44,1.53,6.12-.51,4.72-1.53,6.13-2.53,2.12-4.53,2.12c-.52,0-1.01-.08-1.47-.23-.46-.15-.88-.36-1.25-.63-.37-.27-.69-.59-.94-.96-.26-.37-.45-.76-.57-1.18h-.15v8.64h-4.44v-21.75Zm7.35,12.51c.84,0,1.53-.29,2.08-.88.55-.59.83-1.38.83-2.38v-2.73c0-1-.28-1.79-.83-2.38-.55-.59-1.25-.88-2.08-.88s-1.54.21-2.08.62c-.55.41-.83.97-.83,1.69v4.65c0,.72.27,1.29.83,1.69.55.41,1.25.62,2.08.62Z"/>
    <path class="cls-6" d="m122.83,286.65c-1.16,0-2.2-.19-3.1-.57-.91-.38-1.68-.93-2.31-1.65-.63-.72-1.12-1.59-1.46-2.61-.34-1.02-.51-2.16-.51-3.42s.17-2.4.51-3.42c.34-1.02.83-1.89,1.46-2.6.63-.71,1.4-1.25,2.31-1.63.91-.38,1.94-.57,3.1-.57s2.19.19,3.1.57c.91.38,1.68.93,2.31,1.63.63.71,1.11,1.58,1.46,2.6.34,1.02.51,2.16.51,3.42s-.17,2.4-.51,3.42c-.34,1.02-.83,1.89-1.46,2.61-.63.72-1.4,1.27-2.31,1.65-.91.38-1.95.57-3.1.57Zm0-3.51c.88,0,1.56-.27,2.04-.81s.72-1.31.72-2.31v-3.21c0-1-.24-1.77-.72-2.31s-1.16-.81-2.04-.81-1.56.27-2.04.81-.72,1.31-.72,2.31v3.21c0,1,.24,1.77.72,2.31s1.16.81,2.04.81Z"/>
    <path class="cls-6" d="m137.5,286.65c-1.52,0-2.8-.25-3.84-.74s-1.97-1.18-2.79-2.08l2.61-2.64c.56.62,1.18,1.11,1.86,1.47.68.36,1.45.54,2.31.54s1.49-.13,1.83-.41c.34-.27.51-.63.51-1.09,0-.74-.53-1.18-1.59-1.32l-1.71-.21c-3.54-.44-5.31-2.06-5.31-4.86,0-.76.15-1.45.44-2.08.29-.63.7-1.17,1.23-1.62.53-.45,1.17-.8,1.92-1.05.75-.25,1.59-.38,2.54-.38.82,0,1.54.06,2.17.17.63.11,1.19.27,1.68.48.49.21.94.47,1.35.78.41.31.81.66,1.21,1.03l-2.55,2.61c-.5-.5-1.06-.89-1.69-1.18s-1.27-.44-1.94-.44c-.76,0-1.3.12-1.62.36s-.48.56-.48.96.12.75.35.97c.23.23.66.4,1.31.5l1.77.24c3.46.46,5.19,2.04,5.19,4.74,0,.76-.16,1.46-.48,2.1-.32.64-.78,1.2-1.37,1.67-.59.47-1.3.83-2.13,1.09-.83.26-1.75.39-2.77.39Z"/>
    <path class="cls-6" d="m154.18,268.86c-.9,0-1.56-.21-1.96-.62-.41-.41-.62-.93-.62-1.58v-.66c0-.64.21-1.17.62-1.58.41-.41,1.06-.61,1.96-.61s1.55.21,1.96.61c.41.41.62.94.62,1.58v.66c0,.64-.21,1.17-.62,1.58-.41.41-1.06.62-1.96.62Zm-2.22,1.68h4.44v15.75h-4.44v-15.75Z"/>
    <path class="cls-6" d="m159.34,286.29v-15.75h4.44v2.67h.18c.28-.82.77-1.53,1.47-2.13.7-.6,1.67-.9,2.91-.9,1.62,0,2.85.54,3.68,1.62.83,1.08,1.25,2.62,1.25,4.62v9.87h-4.44v-9.51c0-1.02-.16-1.78-.48-2.27-.32-.49-.89-.73-1.71-.73-.36,0-.71.04-1.05.13-.34.09-.65.24-.92.43-.27.2-.49.45-.65.74-.16.29-.24.62-.24,1v10.2h-4.44Z"/>
    <path class="cls-6" d="m181.54,286.29c-1.54,0-2.71-.39-3.49-1.17-.79-.78-1.19-1.92-1.19-3.42v-7.71h-2.22v-3.45h1.11c.6,0,1.01-.14,1.23-.43s.33-.71.33-1.25v-2.58h3.99v4.26h3.12v3.45h-3.12v8.85h2.88v3.45h-2.64Z"/>
    <path class="cls-6" d="m192.76,286.65c-1.2,0-2.27-.2-3.21-.58-.94-.39-1.74-.94-2.39-1.65s-1.14-1.58-1.47-2.59c-.33-1.02-.5-2.16-.5-3.42s.16-2.37.48-3.38c.32-1.01.79-1.88,1.42-2.6.63-.72,1.4-1.27,2.33-1.67.92-.39,1.97-.58,3.15-.58,1.3,0,2.42.22,3.35.66.93.44,1.69,1.03,2.28,1.77.59.74,1.02,1.59,1.29,2.56.27.97.4,1.99.4,3.04v1.32h-10.11v.24c0,1.03.28,1.85.84,2.45.56.61,1.44.91,2.64.91.92,0,1.67-.18,2.25-.55s1.12-.81,1.62-1.32l2.22,2.77c-.7.82-1.62,1.46-2.75,1.92-1.13.46-2.42.69-3.85.69Zm-.09-13.2c-.9,0-1.6.29-2.11.88-.51.59-.77,1.38-.77,2.36v.24h5.52v-.27c0-.96-.22-1.74-.65-2.33-.43-.59-1.09-.88-2-.88Z"/>
    <path class="cls-6" d="m201.85,286.29v-15.75h4.44v3.42h.15c.08-.44.22-.87.42-1.28.2-.41.46-.77.79-1.09.33-.32.72-.57,1.19-.76.46-.19,1-.29,1.62-.29h.78v4.14h-1.11c-1.3,0-2.27.17-2.9.51s-.95.97-.95,1.89v9.21h-4.44Z"/>
    <path class="cls-6" d="m212.77,286.29v-15.75h4.44v2.67h.18c.28-.82.77-1.53,1.47-2.13.7-.6,1.67-.9,2.91-.9,1.62,0,2.85.54,3.68,1.62.83,1.08,1.25,2.62,1.25,4.62v9.87h-4.44v-9.51c0-1.02-.16-1.78-.48-2.27-.32-.49-.89-.73-1.71-.73-.36,0-.71.04-1.05.13-.34.09-.65.24-.92.43-.27.2-.49.45-.65.74-.16.29-.24.62-.24,1v10.2h-4.44Z"/>
    <path class="cls-6" d="m241.09,286.29c-.8,0-1.47-.25-2-.75s-.87-1.17-1-2.01h-.18c-.24,1.02-.77,1.79-1.59,2.33-.82.53-1.83.79-3.03.79-1.58,0-2.79-.42-3.63-1.26-.84-.84-1.26-1.94-1.26-3.32,0-1.65.6-2.89,1.81-3.69,1.21-.81,2.85-1.21,4.94-1.21h2.49v-.99c0-.76-.2-1.36-.6-1.81-.4-.45-1.07-.67-2.01-.67-.88,0-1.58.19-2.1.57-.52.38-.95.81-1.29,1.29l-2.64-2.35c.64-.95,1.44-1.68,2.42-2.22.97-.53,2.28-.8,3.94-.8,2.24,0,3.92.49,5.04,1.47,1.12.98,1.68,2.41,1.68,4.29v6.9h1.47v3.45h-2.46Zm-6.15-2.73c.74,0,1.38-.16,1.9-.48s.79-.83.79-1.55v-1.84h-2.16c-1.74,0-2.61.58-2.61,1.76v.45c0,.58.18,1,.54,1.26.36.27.87.4,1.53.4Z"/>
    <path class="cls-6" d="m251.68,286.65c-1.18,0-2.23-.2-3.15-.58-.92-.39-1.69-.94-2.31-1.65-.62-.71-1.09-1.58-1.41-2.59-.32-1.02-.48-2.16-.48-3.42s.16-2.4.48-3.41c.32-1.01.79-1.88,1.41-2.59.62-.72,1.39-1.27,2.31-1.65s1.97-.57,3.15-.57c1.6,0,2.93.36,4,1.08,1.07.72,1.83,1.73,2.29,3.03l-3.6,1.56c-.14-.6-.43-1.11-.87-1.53s-1.05-.63-1.83-.63c-.9,0-1.58.29-2.04.88-.46.59-.69,1.38-.69,2.38v2.94c0,1,.23,1.79.69,2.37.46.58,1.14.87,2.04.87.8,0,1.43-.21,1.9-.64.47-.43.81-1,1.04-1.7l3.45,1.5c-.52,1.5-1.33,2.6-2.42,3.3-1.09.7-2.41,1.05-3.97,1.05Z"/>
    <path class="cls-6" d="m261.85,268.86c-.9,0-1.56-.21-1.96-.62-.41-.41-.62-.93-.62-1.58v-.66c0-.64.21-1.17.62-1.58.41-.41,1.06-.61,1.96-.61s1.55.21,1.96.61c.41.41.62.94.62,1.58v.66c0,.64-.21,1.17-.62,1.58-.41.41-1.06.62-1.96.62Zm-2.22,1.68h4.44v15.75h-4.44v-15.75Z"/>
    <path class="cls-6" d="m273.4,286.65c-1.16,0-2.2-.19-3.1-.57-.91-.38-1.68-.93-2.31-1.65-.63-.72-1.12-1.59-1.46-2.61-.34-1.02-.51-2.16-.51-3.42s.17-2.4.51-3.42c.34-1.02.83-1.89,1.46-2.6.63-.71,1.4-1.25,2.31-1.63.91-.38,1.94-.57,3.1-.57s2.19.19,3.1.57c.91.38,1.68.93,2.31,1.63.63.71,1.11,1.58,1.46,2.6.34,1.02.51,2.16.51,3.42s-.17,2.4-.51,3.42c-.34,1.02-.83,1.89-1.46,2.61-.63.72-1.4,1.27-2.31,1.65-.91.38-1.95.57-3.1.57Zm0-3.51c.88,0,1.56-.27,2.04-.81s.72-1.31.72-2.31v-3.21c0-1-.24-1.77-.72-2.31s-1.16-.81-2.04-.81-1.56.27-2.04.81-.72,1.31-.72,2.31v3.21c0,1,.24,1.77.72,2.31s1.16.81,2.04.81Z"/>
    <path class="cls-6" d="m282.73,286.29v-15.75h4.44v2.67h.18c.28-.82.77-1.53,1.47-2.13.7-.6,1.67-.9,2.91-.9,1.62,0,2.85.54,3.68,1.62.83,1.08,1.25,2.62,1.25,4.62v9.87h-4.44v-9.51c0-1.02-.16-1.78-.48-2.27-.32-.49-.89-.73-1.71-.73-.36,0-.71.04-1.05.13-.34.09-.65.24-.92.43-.27.2-.49.45-.65.74-.16.29-.24.62-.24,1v10.2h-4.44Z"/>
    <path class="cls-6" d="m311.05,286.29c-.8,0-1.47-.25-2-.75s-.87-1.17-1-2.01h-.18c-.24,1.02-.77,1.79-1.59,2.33-.82.53-1.83.79-3.03.79-1.58,0-2.79-.42-3.63-1.26-.84-.84-1.26-1.94-1.26-3.32,0-1.65.6-2.89,1.81-3.69,1.21-.81,2.85-1.21,4.94-1.21h2.49v-.99c0-.76-.2-1.36-.6-1.81-.4-.45-1.07-.67-2.01-.67-.88,0-1.58.19-2.1.57-.52.38-.95.81-1.29,1.29l-2.64-2.35c.64-.95,1.44-1.68,2.42-2.22.97-.53,2.28-.8,3.94-.8,2.24,0,3.92.49,5.04,1.47,1.12.98,1.68,2.41,1.68,4.29v6.9h1.47v3.45h-2.46Zm-6.15-2.73c.74,0,1.38-.16,1.9-.48s.79-.83.79-1.55v-1.84h-2.16c-1.74,0-2.61.58-2.61,1.76v.45c0,.58.18,1,.54,1.26.36.27.87.4,1.53.4Z"/>
    <path class="cls-6" d="m319.69,286.29c-1.52,0-2.64-.37-3.35-1.11-.71-.74-1.06-1.81-1.06-3.21v-17.88h4.44v18.75h1.98v3.45h-2.01Z"/>
    <path class="cls-6" d="m329.73,286.65c-1.2,0-2.27-.2-3.21-.58-.94-.39-1.74-.94-2.39-1.65s-1.14-1.58-1.47-2.59c-.33-1.02-.5-2.16-.5-3.42s.16-2.37.48-3.38c.32-1.01.79-1.88,1.42-2.6.63-.72,1.4-1.27,2.33-1.67.92-.39,1.97-.58,3.15-.58,1.3,0,2.42.22,3.35.66.93.44,1.69,1.03,2.28,1.77.59.74,1.02,1.59,1.29,2.56.27.97.4,1.99.4,3.04v1.32h-10.11v.24c0,1.03.28,1.85.84,2.45.56.61,1.44.91,2.64.91.92,0,1.67-.18,2.25-.55s1.12-.81,1.62-1.32l2.22,2.77c-.7.82-1.62,1.46-2.75,1.92-1.13.46-2.42.69-3.85.69Zm-.09-13.2c-.9,0-1.6.29-2.11.88-.51.59-.77,1.38-.77,2.36v.24h5.52v-.27c0-.96-.22-1.74-.65-2.33-.43-.59-1.09-.88-2-.88Z"/>
    <path class="cls-6" d="m344.17,286.65c-1.52,0-2.8-.25-3.84-.74s-1.97-1.18-2.79-2.08l2.61-2.64c.56.62,1.18,1.11,1.86,1.47.68.36,1.45.54,2.31.54s1.49-.13,1.83-.41c.34-.27.51-.63.51-1.09,0-.74-.53-1.18-1.59-1.32l-1.71-.21c-3.54-.44-5.31-2.06-5.31-4.86,0-.76.15-1.45.44-2.08.29-.63.7-1.17,1.23-1.62.53-.45,1.17-.8,1.92-1.05.75-.25,1.59-.38,2.54-.38.82,0,1.54.06,2.17.17.63.11,1.19.27,1.68.48.49.21.94.47,1.35.78.41.31.81.66,1.21,1.03l-2.55,2.61c-.5-.5-1.06-.89-1.69-1.18s-1.27-.44-1.94-.44c-.76,0-1.3.12-1.62.36s-.48.56-.48.96.12.75.35.97c.23.23.66.4,1.31.5l1.77.24c3.46.46,5.19,2.04,5.19,4.74,0,.76-.16,1.46-.48,2.1-.32.64-.78,1.2-1.37,1.67-.59.47-1.3.83-2.13,1.09-.83.26-1.75.39-2.77.39Z"/>
    <path class="cls-6" d="m77.99,306.13h4.14l-6.06,18.18c-.4,1.22-.96,2.12-1.69,2.7-.73.58-1.77.87-3.13.87h-2.76v-3.45h2.97l.54-1.74-5.52-16.56h4.41l2.31,7.35,1.14,4.56h.18l1.17-4.56,2.31-7.35Z"/>
    <path class="cls-6" d="m98.72,319.24h-.15c-.12.42-.31.81-.57,1.18-.26.37-.57.69-.94.96s-.79.48-1.26.63c-.47.15-.96.23-1.46.23-2,0-3.51-.71-4.53-2.12s-1.53-3.46-1.53-6.13.51-4.72,1.53-6.12,2.53-2.1,4.53-2.1c1.02,0,1.92.28,2.71.84s1.29,1.28,1.52,2.16h.15v-9.09h4.44v22.2h-4.44v-2.64Zm-2.91-.6c.84,0,1.53-.21,2.08-.62.55-.41.83-.97.83-1.69v-4.65c0-.72-.27-1.29-.83-1.7s-1.24-.62-2.08-.62-1.54.29-2.08.88c-.55.59-.82,1.38-.82,2.38v2.73c0,1,.27,1.79.82,2.38.55.59,1.25.88,2.08.88Z"/>
    <path class="cls-6" d="m108.32,304.45c-.9,0-1.56-.21-1.96-.62-.41-.41-.62-.93-.62-1.57v-.66c0-.64.21-1.17.62-1.58.41-.41,1.06-.61,1.96-.61s1.55.21,1.96.61c.41.41.62.94.62,1.58v.66c0,.64-.21,1.16-.62,1.57-.41.41-1.06.62-1.96.62Zm-2.22,1.68h4.44v15.75h-4.44v-15.75Z"/>
    <path class="cls-6" d="m116.84,321.88l-5.16-15.75h4.38l1.95,6.36,1.47,5.7h.24l1.47-5.7,1.89-6.36h4.2l-5.16,15.75h-5.28Z"/>
    <path class="cls-6" d="m134.75,322.24c-1.2,0-2.27-.2-3.21-.59-.94-.39-1.74-.94-2.39-1.65-.65-.71-1.14-1.57-1.47-2.59-.33-1.02-.5-2.16-.5-3.42s.16-2.37.48-3.38c.32-1.01.79-1.88,1.42-2.6.63-.72,1.4-1.28,2.33-1.67.92-.39,1.97-.58,3.15-.58,1.3,0,2.42.22,3.35.66.93.44,1.69,1.03,2.28,1.77.59.74,1.02,1.6,1.29,2.56.27.97.4,1.99.4,3.04v1.32h-10.11v.24c0,1.03.28,1.85.84,2.46s1.44.91,2.64.91c.92,0,1.67-.18,2.25-.55s1.12-.81,1.62-1.32l2.22,2.77c-.7.82-1.62,1.46-2.75,1.92-1.13.46-2.42.69-3.85.69Zm-.09-13.2c-.9,0-1.6.29-2.11.88-.51.59-.77,1.38-.77,2.36v.24h5.52v-.27c0-.96-.22-1.74-.65-2.33-.43-.59-1.09-.88-2-.88Z"/>
    <path class="cls-6" d="m143.84,321.88v-15.75h4.44v3.42h.15c.08-.44.22-.87.42-1.28.2-.41.46-.77.79-1.09s.72-.57,1.19-.77c.46-.19,1-.29,1.62-.29h.78v4.14h-1.11c-1.3,0-2.27.17-2.9.51s-.95.97-.95,1.89v9.21h-4.44Z"/>
    <path class="cls-6" d="m160.1,322.24c-1.52,0-2.8-.25-3.84-.74s-1.97-1.18-2.79-2.08l2.61-2.64c.56.62,1.18,1.11,1.86,1.47.68.36,1.45.54,2.31.54s1.49-.13,1.83-.4c.34-.27.51-.63.51-1.1,0-.74-.53-1.18-1.59-1.32l-1.71-.21c-3.54-.44-5.31-2.06-5.31-4.86,0-.76.15-1.45.44-2.08.29-.63.7-1.17,1.23-1.62.53-.45,1.17-.8,1.92-1.05s1.59-.38,2.54-.38c.82,0,1.54.05,2.17.16.63.11,1.19.27,1.68.48.49.21.94.47,1.35.78.41.31.81.65,1.21,1.03l-2.55,2.61c-.5-.5-1.06-.89-1.69-1.19-.63-.29-1.27-.44-1.94-.44-.76,0-1.3.12-1.62.36s-.48.56-.48.96.12.75.35.97c.23.23.66.4,1.31.5l1.77.24c3.46.46,5.19,2.04,5.19,4.74,0,.76-.16,1.46-.48,2.1-.32.64-.78,1.2-1.37,1.66-.59.47-1.3.84-2.13,1.1-.83.26-1.75.39-2.77.39Z"/>
    <path class="cls-6" d="m170.9,304.45c-.9,0-1.56-.21-1.96-.62-.41-.41-.62-.93-.62-1.57v-.66c0-.64.21-1.17.62-1.58.41-.41,1.06-.61,1.96-.61s1.55.21,1.96.61c.41.41.62.94.62,1.58v.66c0,.64-.21,1.16-.62,1.57-.41.41-1.06.62-1.96.62Zm-2.22,1.68h4.44v15.75h-4.44v-15.75Z"/>
    <path class="cls-6" d="m185.72,319.24h-.15c-.12.42-.31.81-.57,1.18-.26.37-.57.69-.94.96s-.79.48-1.26.63c-.47.15-.96.23-1.46.23-2,0-3.51-.71-4.53-2.12s-1.53-3.46-1.53-6.13.51-4.72,1.53-6.12,2.53-2.1,4.53-2.1c1.02,0,1.92.28,2.71.84s1.29,1.28,1.52,2.16h.15v-9.09h4.44v22.2h-4.44v-2.64Zm-2.91-.6c.84,0,1.53-.21,2.08-.62.55-.41.83-.97.83-1.69v-4.65c0-.72-.27-1.29-.83-1.7s-1.24-.62-2.08-.62-1.54.29-2.08.88c-.55.59-.82,1.38-.82,2.38v2.73c0,1,.27,1.79.82,2.38.55.59,1.25.88,2.08.88Z"/>
    <path class="cls-6" d="m204.74,321.88c-.8,0-1.47-.25-2-.75s-.87-1.17-1-2.01h-.18c-.24,1.02-.77,1.79-1.59,2.33-.82.53-1.83.79-3.03.79-1.58,0-2.79-.42-3.63-1.26-.84-.84-1.26-1.95-1.26-3.32,0-1.65.6-2.89,1.81-3.69,1.21-.81,2.85-1.21,4.94-1.21h2.49v-.99c0-.76-.2-1.37-.6-1.81-.4-.45-1.07-.68-2.01-.68-.88,0-1.58.19-2.1.57s-.95.81-1.29,1.29l-2.64-2.35c.64-.95,1.44-1.69,2.42-2.22.97-.53,2.28-.8,3.94-.8,2.24,0,3.92.49,5.04,1.47,1.12.98,1.68,2.41,1.68,4.29v6.9h1.47v3.45h-2.46Zm-6.15-2.73c.74,0,1.38-.16,1.9-.47.53-.32.79-.83.79-1.55v-1.85h-2.16c-1.74,0-2.61.59-2.61,1.76v.45c0,.58.18,1,.54,1.27.36.27.87.4,1.53.4Z"/>
    <path class="cls-6" d="m218.63,319.24h-.15c-.12.42-.31.81-.57,1.18-.26.37-.57.69-.94.96s-.79.48-1.26.63c-.47.15-.96.23-1.46.23-2,0-3.51-.71-4.53-2.12s-1.53-3.46-1.53-6.13.51-4.72,1.53-6.12,2.53-2.1,4.53-2.1c1.02,0,1.92.28,2.71.84s1.29,1.28,1.52,2.16h.15v-9.09h4.44v22.2h-4.44v-2.64Zm-2.91-.6c.84,0,1.53-.21,2.08-.62.55-.41.83-.97.83-1.69v-4.65c0-.72-.27-1.29-.83-1.7s-1.24-.62-2.08-.62-1.54.29-2.08.88c-.55.59-.82,1.38-.82,2.38v2.73c0,1,.27,1.79.82,2.38.55.59,1.25.88,2.08.88Z"/>
    <path class="cls-6" d="m238.25,322.24c-1.18,0-2.23-.2-3.15-.59s-1.69-.94-2.31-1.65c-.62-.71-1.09-1.57-1.41-2.59-.32-1.02-.48-2.16-.48-3.42s.16-2.4.48-3.41c.32-1.01.79-1.88,1.41-2.59.62-.72,1.39-1.27,2.31-1.65.92-.38,1.97-.57,3.15-.57,1.6,0,2.93.36,4,1.08,1.07.72,1.83,1.73,2.29,3.03l-3.6,1.56c-.14-.6-.43-1.11-.87-1.53s-1.05-.63-1.83-.63c-.9,0-1.58.29-2.04.88-.46.59-.69,1.38-.69,2.38v2.94c0,1,.23,1.79.69,2.37.46.58,1.14.87,2.04.87.8,0,1.43-.21,1.9-.64.47-.43.81-.99,1.04-1.7l3.45,1.5c-.52,1.5-1.33,2.6-2.42,3.3-1.09.7-2.41,1.05-3.97,1.05Z"/>
    <path class="cls-6" d="m255.5,319.24h-.15c-.14.4-.33.78-.56,1.14-.23.36-.52.68-.89.96-.36.28-.79.5-1.27.66-.49.16-1.06.24-1.69.24-1.62,0-2.85-.54-3.68-1.61s-1.24-2.61-1.24-4.61v-9.9h4.44v9.51c0,.96.17,1.7.51,2.22.34.52.92.78,1.74.78.34,0,.68-.05,1.02-.15.34-.1.64-.25.9-.44.26-.19.47-.43.63-.71s.24-.61.24-.99v-10.23h4.44v15.75h-4.44v-2.64Z"/>
    <path class="cls-6" d="m267.29,321.88c-1.52,0-2.64-.37-3.35-1.11s-1.06-1.81-1.06-3.21v-17.88h4.44v18.75h1.98v3.45h-2.01Z"/>
    <path class="cls-6" d="m276.14,321.88c-1.54,0-2.71-.39-3.49-1.17-.79-.78-1.19-1.92-1.19-3.42v-7.71h-2.22v-3.45h1.11c.6,0,1.01-.14,1.23-.43.22-.29.33-.71.33-1.25v-2.58h3.99v4.26h3.12v3.45h-3.12v8.85h2.88v3.45h-2.64Z"/>
    <path class="cls-6" d="m290.21,319.24h-.15c-.14.4-.33.78-.56,1.14-.23.36-.52.68-.89.96-.36.28-.79.5-1.27.66-.49.16-1.06.24-1.69.24-1.62,0-2.85-.54-3.68-1.61s-1.24-2.61-1.24-4.61v-9.9h4.44v9.51c0,.96.17,1.7.51,2.22.34.52.92.78,1.74.78.34,0,.68-.05,1.02-.15.34-.1.64-.25.9-.44.26-.19.47-.43.63-.71s.24-.61.24-.99v-10.23h4.44v15.75h-4.44v-2.64Z"/>
    <path class="cls-6" d="m297.59,321.88v-15.75h4.44v3.42h.15c.08-.44.22-.87.42-1.28.2-.41.46-.77.79-1.09s.72-.57,1.19-.77c.46-.19,1-.29,1.62-.29h.78v4.14h-1.11c-1.3,0-2.27.17-2.9.51s-.95.97-.95,1.89v9.21h-4.44Z"/>
    <path class="cls-6" d="m319.73,321.88c-.8,0-1.47-.25-2-.75s-.87-1.17-1-2.01h-.18c-.24,1.02-.77,1.79-1.59,2.33-.82.53-1.83.79-3.03.79-1.58,0-2.79-.42-3.63-1.26-.84-.84-1.26-1.95-1.26-3.32,0-1.65.6-2.89,1.81-3.69,1.21-.81,2.85-1.21,4.94-1.21h2.49v-.99c0-.76-.2-1.37-.6-1.81-.4-.45-1.07-.68-2.01-.68-.88,0-1.58.19-2.1.57s-.95.81-1.29,1.29l-2.64-2.35c.64-.95,1.44-1.69,2.42-2.22.97-.53,2.28-.8,3.94-.8,2.24,0,3.92.49,5.04,1.47,1.12.98,1.68,2.41,1.68,4.29v6.9h1.47v3.45h-2.46Zm-6.15-2.73c.74,0,1.38-.16,1.9-.47.53-.32.79-.83.79-1.55v-1.85h-2.16c-1.74,0-2.61.59-2.61,1.76v.45c0,.58.18,1,.54,1.27.36.27.87.4,1.53.4Z"/>
    <path class="cls-6" d="m328.37,321.88c-1.52,0-2.64-.37-3.35-1.11s-1.06-1.81-1.06-3.21v-17.88h4.44v18.75h1.98v3.45h-2.01Z"/>
  </g>
  <g>
    <rect class="cls-2" x="446.29" y="453.17" width="428.66" height="121.66" rx="60.83" ry="60.83"/>
    <g>
      <path class="cls-6" d="m472.62,504.81h-4.56v-20.94h9.93c.96,0,1.83.16,2.61.48.78.32,1.44.78,2,1.37.55.59.97,1.29,1.27,2.11.3.82.45,1.73.45,2.73,0,1.42-.31,2.66-.94,3.72s-1.59,1.83-2.87,2.31l4.11,8.22h-5.07l-3.66-7.68h-3.27v7.68Zm4.8-11.52c.68,0,1.21-.18,1.6-.53s.58-.87.58-1.54v-1.32c0-.68-.19-1.19-.58-1.54-.39-.35-.93-.53-1.6-.53h-4.8v5.46h4.8Z"/>
      <path class="cls-6" d="m492.96,505.18c-1.2,0-2.27-.2-3.21-.59-.94-.39-1.74-.94-2.39-1.65-.65-.71-1.14-1.57-1.47-2.59-.33-1.02-.5-2.16-.5-3.42s.16-2.37.48-3.38c.32-1.01.79-1.88,1.42-2.6.63-.72,1.4-1.28,2.33-1.67.92-.39,1.97-.58,3.15-.58,1.3,0,2.42.22,3.35.66.93.44,1.69,1.03,2.28,1.77.59.74,1.02,1.6,1.29,2.56.27.97.4,1.99.4,3.04v1.32h-10.11v.24c0,1.03.28,1.85.84,2.46s1.44.91,2.64.91c.92,0,1.67-.18,2.25-.55s1.12-.81,1.62-1.32l2.22,2.77c-.7.82-1.62,1.46-2.75,1.92-1.13.46-2.42.69-3.85.69Zm-.09-13.2c-.9,0-1.6.29-2.11.88-.51.59-.77,1.38-.77,2.36v.24h5.52v-.27c0-.96-.22-1.74-.65-2.33-.43-.59-1.09-.88-2-.88Z"/>
      <path class="cls-6" d="m507.39,505.18c-1.52,0-2.8-.25-3.84-.74s-1.97-1.18-2.79-2.08l2.61-2.64c.56.62,1.18,1.11,1.86,1.47.68.36,1.45.54,2.31.54s1.49-.13,1.83-.4c.34-.27.51-.63.51-1.1,0-.74-.53-1.18-1.59-1.32l-1.71-.21c-3.54-.44-5.31-2.06-5.31-4.86,0-.76.15-1.45.44-2.08.29-.63.7-1.17,1.23-1.62.53-.45,1.17-.8,1.92-1.05s1.59-.38,2.54-.38c.82,0,1.54.05,2.17.16.63.11,1.19.27,1.68.48.49.21.94.47,1.35.78.41.31.81.65,1.21,1.03l-2.55,2.61c-.5-.5-1.06-.89-1.69-1.19-.63-.29-1.27-.44-1.94-.44-.76,0-1.3.12-1.62.36s-.48.56-.48.96.12.75.35.97c.23.23.66.4,1.31.5l1.77.24c3.46.46,5.19,2.04,5.19,4.74,0,.76-.16,1.46-.48,2.1-.32.64-.78,1.2-1.37,1.66-.59.47-1.3.84-2.13,1.1-.83.26-1.75.39-2.77.39Z"/>
      <path class="cls-6" d="m515.97,489.06h4.44v2.64h.15c.22-.88.72-1.6,1.51-2.16s1.7-.84,2.72-.84c2,0,3.51.7,4.53,2.1s1.53,3.44,1.53,6.12-.51,4.72-1.53,6.13-2.53,2.12-4.53,2.12c-.52,0-1.01-.08-1.47-.23-.46-.15-.88-.36-1.25-.63s-.69-.59-.94-.96c-.26-.37-.45-.76-.57-1.18h-.15v8.64h-4.44v-21.75Zm7.35,12.51c.84,0,1.53-.29,2.08-.88.55-.59.83-1.38.83-2.38v-2.73c0-1-.28-1.79-.83-2.38-.55-.59-1.25-.88-2.08-.88s-1.54.21-2.08.62c-.55.41-.83.97-.83,1.7v4.65c0,.72.27,1.29.83,1.69.55.41,1.25.62,2.08.62Z"/>
      <path class="cls-6" d="m539.4,505.18c-1.16,0-2.2-.19-3.1-.57-.91-.38-1.68-.93-2.31-1.65s-1.12-1.59-1.46-2.61c-.34-1.02-.51-2.16-.51-3.42s.17-2.4.51-3.42c.34-1.02.83-1.89,1.46-2.6s1.4-1.26,2.31-1.63c.91-.38,1.94-.57,3.1-.57s2.19.19,3.1.57c.91.38,1.68.93,2.31,1.63s1.11,1.57,1.46,2.6c.34,1.02.51,2.16.51,3.42s-.17,2.4-.51,3.42c-.34,1.02-.83,1.89-1.46,2.61s-1.4,1.27-2.31,1.65c-.91.38-1.95.57-3.1.57Zm0-3.51c.88,0,1.56-.27,2.04-.81.48-.54.72-1.31.72-2.31v-3.21c0-1-.24-1.77-.72-2.31-.48-.54-1.16-.81-2.04-.81s-1.56.27-2.04.81c-.48.54-.72,1.31-.72,2.31v3.21c0,1,.24,1.77.72,2.31.48.54,1.16.81,2.04.81Z"/>
      <path class="cls-6" d="m548.73,504.81v-15.75h4.44v2.67h.18c.28-.82.77-1.53,1.47-2.13.7-.6,1.67-.9,2.91-.9,1.62,0,2.85.54,3.68,1.62.83,1.08,1.25,2.62,1.25,4.62v9.87h-4.44v-9.51c0-1.02-.16-1.78-.48-2.27-.32-.49-.89-.73-1.71-.73-.36,0-.71.04-1.05.13-.34.09-.65.24-.92.44s-.49.45-.65.73c-.16.29-.24.62-.24,1.01v10.2h-4.44Z"/>
      <path class="cls-6" d="m570.75,505.18c-1.52,0-2.8-.25-3.84-.74s-1.97-1.18-2.79-2.08l2.61-2.64c.56.62,1.18,1.11,1.86,1.47.68.36,1.45.54,2.31.54s1.49-.13,1.83-.4c.34-.27.51-.63.51-1.1,0-.74-.53-1.18-1.59-1.32l-1.71-.21c-3.54-.44-5.31-2.06-5.31-4.86,0-.76.15-1.45.44-2.08.29-.63.7-1.17,1.23-1.62.53-.45,1.17-.8,1.92-1.05s1.59-.38,2.54-.38c.82,0,1.54.05,2.17.16.63.11,1.19.27,1.68.48.49.21.94.47,1.35.78.41.31.81.65,1.21,1.03l-2.55,2.61c-.5-.5-1.06-.89-1.69-1.19-.63-.29-1.27-.44-1.94-.44-.76,0-1.3.12-1.62.36s-.48.56-.48.96.12.75.35.97c.23.23.66.4,1.31.5l1.77.24c3.46.46,5.19,2.04,5.19,4.74,0,.76-.16,1.46-.48,2.1-.32.64-.78,1.2-1.37,1.66-.59.47-1.3.84-2.13,1.1-.83.26-1.75.39-2.77.39Z"/>
      <path class="cls-6" d="m590.97,504.81c-.8,0-1.47-.25-2-.75s-.87-1.17-1-2.01h-.18c-.24,1.02-.77,1.79-1.59,2.33-.82.53-1.83.79-3.03.79-1.58,0-2.79-.42-3.63-1.26-.84-.84-1.26-1.95-1.26-3.32,0-1.65.6-2.89,1.81-3.69,1.21-.81,2.85-1.21,4.94-1.21h2.49v-.99c0-.76-.2-1.37-.6-1.81-.4-.45-1.07-.68-2.01-.68-.88,0-1.58.19-2.1.57s-.95.81-1.29,1.29l-2.64-2.35c.64-.95,1.44-1.69,2.42-2.22.97-.53,2.28-.8,3.94-.8,2.24,0,3.92.49,5.04,1.47,1.12.98,1.68,2.41,1.68,4.29v6.9h1.47v3.45h-2.46Zm-6.15-2.73c.74,0,1.38-.16,1.9-.47.53-.32.79-.83.79-1.55v-1.85h-2.16c-1.74,0-2.61.59-2.61,1.76v.45c0,.58.18,1,.54,1.27.36.27.87.4,1.53.4Z"/>
      <path class="cls-6" d="m595.2,482.62h4.44v9.09h.15c.22-.88.72-1.6,1.51-2.16s1.7-.84,2.72-.84c2,0,3.51.7,4.53,2.1s1.53,3.44,1.53,6.12-.51,4.72-1.53,6.13-2.53,2.12-4.53,2.12c-.52,0-1.01-.08-1.47-.23-.46-.15-.88-.36-1.25-.63s-.69-.59-.94-.96c-.26-.37-.45-.76-.57-1.18h-.15v2.64h-4.44v-22.2Zm7.35,18.96c.84,0,1.53-.29,2.08-.88.55-.59.83-1.38.83-2.38v-2.73c0-1-.28-1.79-.83-2.38-.55-.59-1.25-.88-2.08-.88s-1.54.21-2.08.62c-.55.41-.83.97-.83,1.7v4.65c0,.72.27,1.29.83,1.69.55.41,1.25.62,2.08.62Z"/>
      <path class="cls-6" d="m614.46,487.39c-.9,0-1.56-.21-1.96-.62-.41-.41-.62-.93-.62-1.57v-.66c0-.64.21-1.17.62-1.58.41-.41,1.06-.61,1.96-.61s1.55.21,1.96.61c.41.41.62.94.62,1.58v.66c0,.64-.21,1.16-.62,1.57-.41.41-1.06.62-1.96.62Zm-2.22,1.68h4.44v15.75h-4.44v-15.75Z"/>
      <path class="cls-6" d="m624.03,504.81c-1.52,0-2.64-.37-3.35-1.11s-1.06-1.81-1.06-3.21v-17.88h4.44v18.75h1.98v3.45h-2.01Z"/>
      <path class="cls-6" d="m629.73,487.39c-.9,0-1.56-.21-1.96-.62-.41-.41-.62-.93-.62-1.57v-.66c0-.64.21-1.17.62-1.58.41-.41,1.06-.61,1.96-.61s1.55.21,1.96.61c.41.41.62.94.62,1.58v.66c0,.64-.21,1.16-.62,1.57-.41.41-1.06.62-1.96.62Zm-2.22,1.68h4.44v15.75h-4.44v-15.75Z"/>
      <path class="cls-6" d="m644.55,502.18h-.15c-.12.42-.31.81-.57,1.18-.26.37-.57.69-.94.96s-.79.48-1.26.63c-.47.15-.96.23-1.46.23-2,0-3.51-.71-4.53-2.12s-1.53-3.46-1.53-6.13.51-4.72,1.53-6.12,2.53-2.1,4.53-2.1c1.02,0,1.92.28,2.71.84s1.29,1.28,1.52,2.16h.15v-9.09h4.44v22.2h-4.44v-2.64Zm-2.91-.6c.84,0,1.53-.21,2.08-.62.55-.41.83-.97.83-1.69v-4.65c0-.72-.27-1.29-.83-1.7s-1.24-.62-2.08-.62-1.54.29-2.08.88c-.55.59-.82,1.38-.82,2.38v2.73c0,1,.27,1.79.82,2.38.55.59,1.25.88,2.08.88Z"/>
      <path class="cls-6" d="m663.57,504.81c-.8,0-1.47-.25-2-.75s-.87-1.17-1-2.01h-.18c-.24,1.02-.77,1.79-1.59,2.33-.82.53-1.83.79-3.03.79-1.58,0-2.79-.42-3.63-1.26-.84-.84-1.26-1.95-1.26-3.32,0-1.65.6-2.89,1.81-3.69,1.21-.81,2.85-1.21,4.94-1.21h2.49v-.99c0-.76-.2-1.37-.6-1.81-.4-.45-1.07-.68-2.01-.68-.88,0-1.58.19-2.1.57s-.95.81-1.29,1.29l-2.64-2.35c.64-.95,1.44-1.69,2.42-2.22.97-.53,2.28-.8,3.94-.8,2.24,0,3.92.49,5.04,1.47,1.12.98,1.68,2.41,1.68,4.29v6.9h1.47v3.45h-2.46Zm-6.15-2.73c.74,0,1.38-.16,1.9-.47.53-.32.79-.83.79-1.55v-1.85h-2.16c-1.74,0-2.61.59-2.61,1.76v.45c0,.58.18,1,.54,1.27.36.27.87.4,1.53.4Z"/>
      <path class="cls-6" d="m677.46,502.18h-.15c-.12.42-.31.81-.57,1.18-.26.37-.57.69-.94.96s-.79.48-1.26.63c-.47.15-.96.23-1.46.23-2,0-3.51-.71-4.53-2.12-1.02-1.41-1.53-3.46-1.53-6.13s.51-4.72,1.53-6.12c1.02-1.4,2.53-2.1,4.53-2.1,1.02,0,1.92.28,2.71.84s1.29,1.28,1.51,2.16h.15v-9.09h4.44v22.2h-4.44v-2.64Zm-2.91-.6c.84,0,1.53-.21,2.08-.62.55-.41.83-.97.83-1.69v-4.65c0-.72-.28-1.29-.83-1.7-.55-.41-1.25-.62-2.08-.62s-1.54.29-2.08.88c-.55.59-.83,1.38-.83,2.38v2.73c0,1,.27,1.79.83,2.38.55.59,1.25.88,2.08.88Z"/>
      <path class="cls-6" d="m696.05,505.18c-1.52,0-2.8-.25-3.84-.74s-1.97-1.18-2.79-2.08l2.61-2.64c.56.62,1.18,1.11,1.86,1.47.68.36,1.45.54,2.31.54s1.49-.13,1.83-.4.51-.63.51-1.1c0-.74-.53-1.18-1.59-1.32l-1.71-.21c-3.54-.44-5.31-2.06-5.31-4.86,0-.76.14-1.45.43-2.08s.7-1.17,1.23-1.62c.53-.45,1.17-.8,1.92-1.05s1.59-.38,2.54-.38c.82,0,1.54.05,2.17.16.63.11,1.19.27,1.68.48.49.21.94.47,1.35.78.41.31.81.65,1.21,1.03l-2.55,2.61c-.5-.5-1.06-.89-1.69-1.19-.63-.29-1.28-.44-1.94-.44-.76,0-1.3.12-1.62.36-.32.24-.48.56-.48.96s.12.75.34.97c.23.23.67.4,1.31.5l1.77.24c3.46.46,5.19,2.04,5.19,4.74,0,.76-.16,1.46-.48,2.1-.32.64-.78,1.2-1.37,1.66-.59.47-1.3.84-2.13,1.1s-1.75.39-2.77.39Z"/>
      <path class="cls-6" d="m711.02,505.18c-1.16,0-2.2-.19-3.11-.57-.91-.38-1.68-.93-2.31-1.65s-1.12-1.59-1.46-2.61c-.34-1.02-.51-2.16-.51-3.42s.17-2.4.51-3.42c.34-1.02.83-1.89,1.46-2.6s1.4-1.26,2.31-1.63c.91-.38,1.95-.57,3.11-.57s2.19.19,3.1.57c.91.38,1.68.93,2.31,1.63s1.11,1.57,1.46,2.6c.34,1.02.51,2.16.51,3.42s-.17,2.4-.51,3.42c-.34,1.02-.83,1.89-1.46,2.61s-1.4,1.27-2.31,1.65c-.91.38-1.95.57-3.1.57Zm0-3.51c.88,0,1.56-.27,2.04-.81.48-.54.72-1.31.72-2.31v-3.21c0-1-.24-1.77-.72-2.31-.48-.54-1.16-.81-2.04-.81s-1.56.27-2.04.81c-.48.54-.72,1.31-.72,2.31v3.21c0,1,.24,1.77.72,2.31.48.54,1.16.81,2.04.81Z"/>
      <path class="cls-6" d="m726.71,505.18c-1.18,0-2.23-.2-3.15-.59s-1.69-.94-2.31-1.65c-.62-.71-1.09-1.57-1.41-2.59-.32-1.02-.48-2.16-.48-3.42s.16-2.4.48-3.41.79-1.88,1.41-2.59c.62-.72,1.39-1.27,2.31-1.65.92-.38,1.97-.57,3.15-.57,1.6,0,2.93.36,4,1.08s1.83,1.73,2.29,3.03l-3.6,1.56c-.14-.6-.43-1.11-.87-1.53-.44-.42-1.05-.63-1.83-.63-.9,0-1.58.29-2.04.88s-.69,1.38-.69,2.38v2.94c0,1,.23,1.79.69,2.37s1.14.87,2.04.87c.8,0,1.43-.21,1.91-.64.47-.43.81-.99,1.04-1.7l3.45,1.5c-.52,1.5-1.33,2.6-2.42,3.3s-2.41,1.05-3.97,1.05Z"/>
      <path class="cls-6" d="m736.88,487.39c-.9,0-1.55-.21-1.96-.62s-.62-.93-.62-1.57v-.66c0-.64.21-1.17.62-1.58.41-.41,1.07-.61,1.96-.61s1.55.21,1.96.61c.41.41.62.94.62,1.58v.66c0,.64-.21,1.16-.62,1.57s-1.06.62-1.96.62Zm-2.22,1.68h4.44v15.75h-4.44v-15.75Z"/>
      <path class="cls-6" d="m753.68,504.81c-.8,0-1.46-.25-2-.75-.53-.5-.87-1.17-1-2.01h-.18c-.24,1.02-.77,1.79-1.59,2.33-.82.53-1.83.79-3.03.79-1.58,0-2.79-.42-3.63-1.26-.84-.84-1.26-1.95-1.26-3.32,0-1.65.61-2.89,1.82-3.69,1.21-.81,2.85-1.21,4.93-1.21h2.49v-.99c0-.76-.2-1.37-.6-1.81-.4-.45-1.07-.68-2.01-.68-.88,0-1.58.19-2.1.57-.52.38-.95.81-1.29,1.29l-2.64-2.35c.64-.95,1.44-1.69,2.41-2.22s2.29-.8,3.95-.8c2.24,0,3.92.49,5.04,1.47,1.12.98,1.68,2.41,1.68,4.29v6.9h1.47v3.45h-2.46Zm-6.15-2.73c.74,0,1.38-.16,1.9-.47.53-.32.79-.83.79-1.55v-1.85h-2.16c-1.74,0-2.61.59-2.61,1.76v.45c0,.58.18,1,.54,1.27.36.27.87.4,1.53.4Z"/>
      <path class="cls-6" d="m762.32,504.81c-1.52,0-2.64-.37-3.35-1.11s-1.06-1.81-1.06-3.21v-17.88h4.44v18.75h1.98v3.45h-2.01Z"/>
      <path class="cls-6" d="m786.26,505.96c0,.84-.15,1.58-.44,2.22-.29.64-.76,1.18-1.42,1.63-.66.45-1.54.79-2.62,1.02-1.09.23-2.44.35-4.04.35-1.36,0-2.52-.09-3.46-.26-.95-.17-1.72-.41-2.31-.72-.59-.31-1.02-.69-1.29-1.14-.27-.45-.41-.96-.41-1.54,0-.88.26-1.57.78-2.07.52-.5,1.24-.81,2.16-.93v-.33c-.76-.14-1.33-.47-1.71-.98-.38-.51-.57-1.11-.57-1.79,0-.42.08-.79.25-1.1s.39-.58.66-.81c.27-.23.58-.42.94-.55.36-.14.72-.25,1.08-.33v-.12c-.96-.44-1.67-1.04-2.13-1.81s-.69-1.66-.69-2.68c0-1.6.55-2.88,1.67-3.85,1.11-.97,2.8-1.45,5.08-1.45,1.04,0,1.93.1,2.67.3v-.6c0-.84.2-1.44.61-1.81.41-.37,1-.55,1.76-.55h2.49v3.3h-3.48v.18c.92.44,1.6,1.04,2.04,1.81.44.77.66,1.66.66,2.69,0,1.58-.56,2.84-1.67,3.79-1.11.95-2.81,1.42-5.08,1.42-1.02,0-1.95-.11-2.79-.33-.46.3-.69.72-.69,1.26,0,.38.14.68.43.89.29.21.78.31,1.46.31h4.56c1.92,0,3.31.4,4.18,1.2.87.8,1.31,1.93,1.31,3.39Zm-4.17.6c0-.46-.18-.81-.54-1.05-.36-.24-.99-.36-1.89-.36h-5.4c-.2.2-.35.43-.44.68s-.13.49-.13.73c0,.58.25,1.01.75,1.28s1.35.4,2.55.4h1.8c1.2,0,2.05-.13,2.55-.4.5-.27.75-.7.75-1.28Zm-4.29-10.26c.88,0,1.53-.18,1.96-.55.43-.37.64-.9.64-1.6v-.36c0-.7-.21-1.23-.64-1.59-.43-.37-1.08-.55-1.96-.55s-1.54.19-1.97.55c-.43.37-.64.9-.64,1.59v.36c0,.7.21,1.23.64,1.6.43.37,1.08.55,1.97.55Z"/>
      <path class="cls-6" d="m791.45,504.81c-1.52,0-2.64-.37-3.35-1.11s-1.06-1.81-1.06-3.21v-17.88h4.44v18.75h1.98v3.45h-2.01Z"/>
      <path class="cls-6" d="m801.32,505.18c-1.16,0-2.2-.19-3.1-.57-.91-.38-1.68-.93-2.31-1.65s-1.12-1.59-1.46-2.61c-.34-1.02-.51-2.16-.51-3.42s.17-2.4.51-3.42c.34-1.02.83-1.89,1.46-2.6s1.4-1.26,2.31-1.63c.91-.38,1.94-.57,3.1-.57s2.19.19,3.11.57c.91.38,1.68.93,2.31,1.63s1.11,1.57,1.46,2.6c.34,1.02.51,2.16.51,3.42s-.17,2.4-.51,3.42c-.34,1.02-.83,1.89-1.46,2.61s-1.4,1.27-2.31,1.65c-.91.38-1.95.57-3.11.57Zm0-3.51c.88,0,1.56-.27,2.04-.81.48-.54.72-1.31.72-2.31v-3.21c0-1-.24-1.77-.72-2.31-.48-.54-1.16-.81-2.04-.81s-1.56.27-2.04.81c-.48.54-.72,1.31-.72,2.31v3.21c0,1,.24,1.77.72,2.31.48.54,1.16.81,2.04.81Z"/>
      <path class="cls-6" d="m810.65,482.62h4.44v9.09h.15c.22-.88.72-1.6,1.51-2.16s1.7-.84,2.71-.84c2,0,3.51.7,4.53,2.1,1.02,1.4,1.53,3.44,1.53,6.12s-.51,4.72-1.53,6.13c-1.02,1.41-2.53,2.12-4.53,2.12-.52,0-1.01-.08-1.47-.23-.46-.15-.88-.36-1.25-.63s-.69-.59-.94-.96c-.26-.37-.45-.76-.57-1.18h-.15v2.64h-4.44v-22.2Zm7.35,18.96c.84,0,1.54-.29,2.08-.88s.83-1.38.83-2.38v-2.73c0-1-.28-1.79-.83-2.38s-1.25-.88-2.08-.88-1.54.21-2.08.62-.83.97-.83,1.7v4.65c0,.72.28,1.29.83,1.69.55.41,1.25.62,2.08.62Z"/>
      <path class="cls-6" d="m839.33,504.81c-.8,0-1.46-.25-2-.75s-.87-1.17-1-2.01h-.18c-.24,1.02-.77,1.79-1.59,2.33-.82.53-1.83.79-3.03.79-1.58,0-2.79-.42-3.63-1.26-.84-.84-1.26-1.95-1.26-3.32,0-1.65.61-2.89,1.82-3.69s2.85-1.21,4.93-1.21h2.49v-.99c0-.76-.2-1.37-.6-1.81-.4-.45-1.07-.68-2.01-.68-.88,0-1.58.19-2.1.57s-.95.81-1.29,1.29l-2.64-2.35c.64-.95,1.44-1.69,2.42-2.22.97-.53,2.28-.8,3.95-.8,2.24,0,3.92.49,5.04,1.47,1.12.98,1.68,2.41,1.68,4.29v6.9h1.47v3.45h-2.46Zm-6.15-2.73c.74,0,1.38-.16,1.91-.47.53-.32.79-.83.79-1.55v-1.85h-2.16c-1.74,0-2.61.59-2.61,1.76v.45c0,.58.18,1,.54,1.27.36.27.87.4,1.53.4Z"/>
      <path class="cls-6" d="m847.97,504.81c-1.52,0-2.64-.37-3.35-1.11s-1.06-1.81-1.06-3.21v-17.88h4.44v18.75h1.98v3.45h-2.01Z"/>
      <path class="cls-6" d="m540.39,540.77c-1.18,0-2.23-.2-3.15-.59s-1.69-.94-2.31-1.65c-.62-.71-1.09-1.57-1.41-2.59-.32-1.02-.48-2.16-.48-3.42s.16-2.4.48-3.41c.32-1.01.79-1.88,1.41-2.59.62-.72,1.39-1.27,2.31-1.65.92-.38,1.97-.57,3.15-.57,1.6,0,2.93.36,4,1.08,1.07.72,1.83,1.73,2.29,3.03l-3.6,1.56c-.14-.6-.43-1.11-.87-1.53s-1.05-.63-1.83-.63c-.9,0-1.58.29-2.04.88-.46.59-.69,1.38-.69,2.38v2.94c0,1,.23,1.79.69,2.37.46.58,1.14.87,2.04.87.8,0,1.43-.21,1.9-.64.47-.43.81-.99,1.04-1.7l3.45,1.5c-.52,1.5-1.33,2.6-2.42,3.3-1.09.7-2.41,1.05-3.97,1.05Z"/>
      <path class="cls-6" d="m554.58,540.77c-1.16,0-2.2-.19-3.1-.57-.91-.38-1.68-.93-2.31-1.65s-1.12-1.59-1.46-2.61c-.34-1.02-.51-2.16-.51-3.42s.17-2.4.51-3.42c.34-1.02.83-1.89,1.46-2.6s1.4-1.26,2.31-1.63c.91-.38,1.94-.57,3.1-.57s2.19.19,3.1.57c.91.38,1.68.93,2.31,1.63s1.11,1.57,1.46,2.6c.34,1.02.51,2.16.51,3.42s-.17,2.4-.51,3.42c-.34,1.02-.83,1.89-1.46,2.61s-1.4,1.27-2.31,1.65c-.91.38-1.95.57-3.1.57Zm0-3.51c.88,0,1.56-.27,2.04-.81.48-.54.72-1.31.72-2.31v-3.21c0-1-.24-1.77-.72-2.31-.48-.54-1.16-.81-2.04-.81s-1.56.27-2.04.81c-.48.54-.72,1.31-.72,2.31v3.21c0,1,.24,1.77.72,2.31.48.54,1.16.81,2.04.81Z"/>
      <path class="cls-6" d="m563.91,540.4v-15.75h4.44v2.67h.18c.28-.82.77-1.53,1.47-2.13.7-.6,1.67-.9,2.91-.9,1.62,0,2.85.54,3.68,1.62.83,1.08,1.25,2.62,1.25,4.62v9.87h-4.44v-9.51c0-1.02-.16-1.78-.48-2.27-.32-.49-.89-.73-1.71-.73-.36,0-.71.04-1.05.13-.34.09-.65.24-.92.44s-.49.45-.65.73c-.16.29-.24.62-.24,1.01v10.2h-4.44Z"/>
      <path class="cls-6" d="m589.83,540.4l-5.16-15.75h4.38l1.95,6.36,1.47,5.7h.24l1.47-5.7,1.89-6.36h4.2l-5.16,15.75h-5.28Z"/>
      <path class="cls-6" d="m601.41,540.4v-15.75h4.44v15.75h-4.44Zm2.73-17.37l-2.64-1.29,2.97-5.82,3.69,1.83-4.02,5.28Z"/>
      <path class="cls-6" d="m608.79,540.4v-15.75h4.44v2.67h.18c.28-.82.77-1.53,1.47-2.13.7-.6,1.67-.9,2.91-.9,1.62,0,2.85.54,3.68,1.62.83,1.08,1.25,2.62,1.25,4.62v9.87h-4.44v-9.51c0-1.02-.16-1.78-.48-2.27-.32-.49-.89-.73-1.71-.73-.36,0-.71.04-1.05.13-.34.09-.65.24-.92.44s-.49.45-.65.73c-.16.29-.24.62-.24,1.01v10.2h-4.44Z"/>
      <path class="cls-6" d="m631.83,540.77c-1.18,0-2.23-.2-3.15-.59s-1.69-.94-2.31-1.65c-.62-.71-1.09-1.57-1.41-2.59-.32-1.02-.48-2.16-.48-3.42s.16-2.4.48-3.41c.32-1.01.79-1.88,1.41-2.59.62-.72,1.39-1.27,2.31-1.65.92-.38,1.97-.57,3.15-.57,1.6,0,2.93.36,4,1.08,1.07.72,1.83,1.73,2.29,3.03l-3.6,1.56c-.14-.6-.43-1.11-.87-1.53s-1.05-.63-1.83-.63c-.9,0-1.58.29-2.04.88-.46.59-.69,1.38-.69,2.38v2.94c0,1,.23,1.79.69,2.37.46.58,1.14.87,2.04.87.8,0,1.43-.21,1.9-.64.47-.43.81-.99,1.04-1.7l3.45,1.5c-.52,1.5-1.33,2.6-2.42,3.3-1.09.7-2.41,1.05-3.97,1.05Z"/>
      <path class="cls-6" d="m649.08,537.77h-.15c-.14.4-.33.78-.56,1.14-.23.36-.52.68-.89.96-.36.28-.79.5-1.27.66-.49.16-1.06.24-1.69.24-1.62,0-2.85-.54-3.68-1.61s-1.24-2.61-1.24-4.61v-9.9h4.44v9.51c0,.96.17,1.7.51,2.22.34.52.92.78,1.74.78.34,0,.68-.05,1.02-.15.34-.1.64-.25.9-.44.26-.19.47-.43.63-.71s.24-.61.24-.99v-10.23h4.44v15.75h-4.44v-2.64Z"/>
      <path class="cls-6" d="m660.86,540.4c-1.52,0-2.64-.37-3.35-1.11s-1.06-1.81-1.06-3.21v-17.88h4.44v18.75h1.98v3.45h-2.01Z"/>
      <path class="cls-6" d="m670.74,540.77c-1.16,0-2.2-.19-3.11-.57-.91-.38-1.68-.93-2.31-1.65s-1.12-1.59-1.46-2.61c-.34-1.02-.51-2.16-.51-3.42s.17-2.4.51-3.42c.34-1.02.83-1.89,1.46-2.6s1.4-1.26,2.31-1.63c.91-.38,1.95-.57,3.11-.57s2.19.19,3.1.57c.91.38,1.68.93,2.31,1.63s1.11,1.57,1.46,2.6c.34,1.02.51,2.16.51,3.42s-.17,2.4-.51,3.42c-.34,1.02-.83,1.89-1.46,2.61s-1.4,1.27-2.31,1.65c-.91.38-1.95.57-3.1.57Zm0-3.51c.88,0,1.56-.27,2.04-.81.48-.54.72-1.31.72-2.31v-3.21c0-1-.24-1.77-.72-2.31-.48-.54-1.16-.81-2.04-.81s-1.56.27-2.04.81c-.48.54-.72,1.31-.72,2.31v3.21c0,1,.24,1.77.72,2.31.48.54,1.16.81,2.04.81Z"/>
      <path class="cls-6" d="m685.41,540.77c-1.52,0-2.8-.25-3.84-.74s-1.97-1.18-2.79-2.08l2.61-2.64c.56.62,1.18,1.11,1.86,1.47.68.36,1.45.54,2.31.54s1.49-.13,1.83-.4.51-.63.51-1.1c0-.74-.53-1.18-1.59-1.32l-1.71-.21c-3.54-.44-5.31-2.06-5.31-4.86,0-.76.14-1.45.43-2.08s.7-1.17,1.23-1.62c.53-.45,1.17-.8,1.92-1.05s1.59-.38,2.54-.38c.82,0,1.54.05,2.17.16.63.11,1.19.27,1.68.48.49.21.94.47,1.35.78.41.31.81.65,1.21,1.03l-2.55,2.61c-.5-.5-1.06-.89-1.69-1.19-.63-.29-1.28-.44-1.94-.44-.76,0-1.3.12-1.62.36-.32.24-.48.56-.48.96s.12.75.34.97c.23.23.67.4,1.31.5l1.77.24c3.46.46,5.19,2.04,5.19,4.74,0,.76-.16,1.46-.48,2.1-.32.64-.78,1.2-1.37,1.66-.59.47-1.3.84-2.13,1.1s-1.75.39-2.77.39Z"/>
      <path class="cls-6" d="m704.27,540.4c-1.52,0-2.63-.37-3.34-1.11s-1.07-1.81-1.07-3.21v-17.88h4.44v18.75h1.98v3.45h-2.01Z"/>
      <path class="cls-6" d="m714.14,540.77c-1.16,0-2.2-.19-3.11-.57-.91-.38-1.68-.93-2.31-1.65s-1.12-1.59-1.46-2.61c-.34-1.02-.51-2.16-.51-3.42s.17-2.4.51-3.42c.34-1.02.83-1.89,1.46-2.6s1.4-1.26,2.31-1.63c.91-.38,1.95-.57,3.11-.57s2.19.19,3.1.57c.91.38,1.68.93,2.31,1.63s1.11,1.57,1.46,2.6c.34,1.02.51,2.16.51,3.42s-.17,2.4-.51,3.42c-.34,1.02-.83,1.89-1.46,2.61s-1.4,1.27-2.31,1.65c-.91.38-1.95.57-3.1.57Zm0-3.51c.88,0,1.56-.27,2.04-.81.48-.54.72-1.31.72-2.31v-3.21c0-1-.24-1.77-.72-2.31-.48-.54-1.16-.81-2.04-.81s-1.56.27-2.04.81c-.48.54-.72,1.31-.72,2.31v3.21c0,1,.24,1.77.72,2.31.48.54,1.16.81,2.04.81Z"/>
      <path class="cls-6" d="m729.83,540.77c-1.18,0-2.23-.2-3.15-.59s-1.69-.94-2.31-1.65c-.62-.71-1.09-1.57-1.41-2.59-.32-1.02-.48-2.16-.48-3.42s.16-2.4.48-3.41.79-1.88,1.41-2.59c.62-.72,1.39-1.27,2.31-1.65.92-.38,1.97-.57,3.15-.57,1.6,0,2.93.36,4,1.08s1.83,1.73,2.29,3.03l-3.6,1.56c-.14-.6-.43-1.11-.87-1.53-.44-.42-1.05-.63-1.83-.63-.9,0-1.58.29-2.04.88s-.69,1.38-.69,2.38v2.94c0,1,.23,1.79.69,2.37s1.14.87,2.04.87c.8,0,1.43-.21,1.91-.64.47-.43.81-.99,1.04-1.7l3.45,1.5c-.52,1.5-1.33,2.6-2.42,3.3s-2.41,1.05-3.97,1.05Z"/>
      <path class="cls-6" d="m749.42,540.4c-.8,0-1.46-.25-2-.75-.53-.5-.87-1.17-1-2.01h-.18c-.24,1.02-.77,1.79-1.59,2.33-.82.53-1.83.79-3.03.79-1.58,0-2.79-.42-3.63-1.26-.84-.84-1.26-1.95-1.26-3.32,0-1.65.6-2.89,1.81-3.69s2.85-1.21,4.93-1.21h2.49v-.99c0-.76-.2-1.37-.6-1.81-.4-.45-1.07-.68-2.01-.68-.88,0-1.58.19-2.1.57-.52.38-.95.81-1.29,1.29l-2.64-2.35c.64-.95,1.44-1.69,2.42-2.22s2.29-.8,3.95-.8c2.24,0,3.92.49,5.04,1.47,1.12.98,1.68,2.41,1.68,4.29v6.9h1.47v3.45h-2.46Zm-6.15-2.73c.74,0,1.38-.16,1.9-.47.53-.32.79-.83.79-1.55v-1.85h-2.16c-1.74,0-2.61.59-2.61,1.76v.45c0,.58.18,1,.54,1.27.36.27.87.4,1.53.4Z"/>
      <path class="cls-6" d="m758.06,540.4c-1.52,0-2.64-.37-3.35-1.11s-1.06-1.81-1.06-3.21v-17.88h4.44v18.75h1.98v3.45h-2.01Z"/>
      <path class="cls-6" d="m768.11,540.77c-1.2,0-2.27-.2-3.21-.59s-1.74-.94-2.38-1.65c-.65-.71-1.14-1.57-1.47-2.59-.33-1.02-.5-2.16-.5-3.42s.16-2.37.48-3.38c.32-1.01.8-1.88,1.43-2.6s1.4-1.28,2.32-1.67c.92-.39,1.97-.58,3.15-.58,1.3,0,2.42.22,3.34.66.93.44,1.69,1.03,2.28,1.77s1.02,1.6,1.29,2.56c.27.97.41,1.99.41,3.04v1.32h-10.11v.24c0,1.03.28,1.85.84,2.46s1.44.91,2.64.91c.92,0,1.67-.18,2.25-.55.58-.37,1.12-.81,1.62-1.32l2.22,2.77c-.7.82-1.62,1.46-2.75,1.92s-2.42.69-3.86.69Zm-.09-13.2c-.9,0-1.6.29-2.12.88-.51.59-.76,1.38-.76,2.36v.24h5.52v-.27c0-.96-.22-1.74-.65-2.33-.43-.59-1.09-.88-2-.88Z"/>
      <path class="cls-6" d="m782.54,540.77c-1.52,0-2.8-.25-3.84-.74-1.04-.49-1.97-1.18-2.79-2.08l2.61-2.64c.56.62,1.18,1.11,1.86,1.47.68.36,1.45.54,2.31.54s1.49-.13,1.83-.4.51-.63.51-1.1c0-.74-.53-1.18-1.59-1.32l-1.71-.21c-3.54-.44-5.31-2.06-5.31-4.86,0-.76.14-1.45.43-2.08s.7-1.17,1.23-1.62c.53-.45,1.17-.8,1.92-1.05s1.59-.38,2.54-.38c.82,0,1.54.05,2.17.16.63.11,1.19.27,1.68.48.49.21.94.47,1.35.78.41.31.81.65,1.21,1.03l-2.55,2.61c-.5-.5-1.07-.89-1.7-1.19-.63-.29-1.28-.44-1.93-.44-.76,0-1.3.12-1.62.36-.32.24-.48.56-.48.96s.12.75.34.97c.23.23.67.4,1.31.5l1.77.24c3.46.46,5.19,2.04,5.19,4.74,0,.76-.16,1.46-.48,2.1s-.78,1.2-1.36,1.66c-.59.47-1.3.84-2.13,1.1s-1.75.39-2.77.39Z"/>
    </g>
  </g>
  <polyline class="cls-1" points="460.46 122.53 460.46 278.93 526.3 278.93"/>
  <polyline class="cls-3" points="460.46 474.97 460.46 312.15 526.3 312.15"/>
  <polyline class="cls-2" points="859.54 121.99 859.54 278.93 793.7 278.93"/>
  <polyline class="cls-4" points="859.75 473.77 859.75 312.05 793.92 312.05"/>
  <line class="cls-2" x1="396.59" y1="295.48" x2="526.3" y2="295.48"/>
  <line class="cls-2" x1="944.08" y1="295.48" x2="793.7" y2="295.48"/>
  <g>
    <path class="cls-5" d="m577.99,262.18c-1.48,0-2.82-.21-4.01-.63-1.19-.42-2.22-1.01-3.09-1.76-.87-.76-1.53-1.67-2-2.73-.46-1.06-.69-2.24-.69-3.53,0-1.18.2-2.24.59-3.19.39-.95.92-1.79,1.6-2.5s1.46-1.29,2.35-1.74c.9-.45,1.83-.76,2.81-.92v-3.02h5.88v6.43c-2.21.08-3.87.46-4.98,1.11-1.11.66-1.66,1.77-1.66,3.34v.59c0,1.06.31,1.88.94,2.44.63.56,1.45.84,2.46.84,1.09,0,2-.34,2.71-1.01.71-.67,1.2-1.53,1.45-2.56l5.12,2.14c-.25.84-.62,1.67-1.09,2.48-.48.81-1.1,1.53-1.87,2.16-.77.63-1.69,1.13-2.77,1.51-1.08.38-2.33.57-3.76.57Zm.42-22.93c-1.34,0-2.3-.31-2.88-.92-.57-.62-.86-1.37-.86-2.27v-1.01c0-.9.29-1.65.86-2.27.57-.62,1.53-.92,2.88-.92s2.3.31,2.88.92c.57.62.86,1.37.86,2.27v1.01c0,.9-.29,1.65-.86,2.27-.57.62-1.53.92-2.88.92Z"/>
    <path class="cls-5" d="m589.38,254.41v-29.32h13.86c1.37,0,2.6.23,3.7.69s2.02,1.1,2.79,1.91c.77.81,1.37,1.8,1.79,2.96.42,1.16.63,2.43.63,3.8s-.21,2.67-.63,3.82c-.42,1.15-1.02,2.13-1.79,2.94-.77.81-1.7,1.45-2.79,1.91s-2.32.69-3.7.69h-7.48v10.58h-6.38Zm6.38-16.13h6.72c.95,0,1.7-.25,2.25-.74.55-.49.82-1.21.82-2.16v-1.85c0-.95-.27-1.67-.82-2.16-.55-.49-1.29-.74-2.25-.74h-6.72v7.64Z"/>
    <path class="cls-5" d="m627.01,254.91c-1.93,0-3.7-.32-5.29-.97-1.6-.64-2.96-1.6-4.07-2.88-1.12-1.27-1.99-2.86-2.6-4.75s-.92-4.08-.92-6.57.31-4.68.92-6.57c.62-1.89,1.48-3.47,2.6-4.75,1.12-1.27,2.48-2.23,4.07-2.88,1.6-.64,3.36-.97,5.29-.97s3.7.32,5.29.97c1.6.64,2.95,1.6,4.07,2.88s1.99,2.86,2.6,4.75c.62,1.89.92,4.08.92,6.57s-.31,4.68-.92,6.57c-.62,1.89-1.48,3.47-2.6,4.75-1.12,1.27-2.48,2.23-4.07,2.88-1.6.64-3.36.97-5.29.97Zm0-5.67c1.93,0,3.44-.63,4.51-1.89,1.08-1.26,1.62-3.07,1.62-5.42v-4.37c0-2.35-.54-4.16-1.62-5.42-1.08-1.26-2.58-1.89-4.51-1.89s-3.44.63-4.52,1.89-1.62,3.07-1.62,5.42v4.37c0,2.35.54,4.16,1.62,5.42,1.08,1.26,2.58,1.89,4.52,1.89Z"/>
    <path class="cls-5" d="m649.94,254.41h-6.38v-29.32h13.9c1.34,0,2.56.22,3.65.67s2.02,1.08,2.79,1.91c.77.83,1.37,1.81,1.79,2.96.42,1.15.63,2.42.63,3.82,0,1.99-.44,3.72-1.32,5.21-.88,1.48-2.22,2.56-4.01,3.23l5.75,11.51h-7.1l-5.12-10.75h-4.58v10.75Zm6.72-16.13c.95,0,1.7-.25,2.25-.74.55-.49.82-1.21.82-2.16v-1.85c0-.95-.27-1.67-.82-2.16-.55-.49-1.3-.74-2.25-.74h-6.72v7.64h6.72Z"/>
    <path class="cls-5" d="m697.94,262.14h-3.95c-2.27,0-3.92-.53-4.96-1.6-1.04-1.06-1.55-2.6-1.55-4.62v-1.22c-3.14-.56-5.62-2.09-7.46-4.6s-2.75-5.96-2.75-10.35c0-2.49.31-4.68.92-6.57.62-1.89,1.48-3.47,2.6-4.75,1.12-1.27,2.48-2.23,4.07-2.88,1.6-.64,3.36-.97,5.29-.97s3.7.32,5.29.97c1.6.64,2.95,1.6,4.07,2.88s1.99,2.86,2.6,4.75c.62,1.89.92,4.08.92,6.57,0,4.26-.86,7.63-2.58,10.12-1.72,2.49-4.07,4.06-7.04,4.7v2.35h4.49v5.21Zm-7.77-12.89c1.93,0,3.44-.63,4.51-1.89,1.08-1.26,1.62-3.07,1.62-5.42v-4.37c0-2.35-.54-4.16-1.62-5.42-1.08-1.26-2.58-1.89-4.51-1.89s-3.44.63-4.52,1.89-1.62,3.07-1.62,5.42v4.37c0,2.35.54,4.16,1.62,5.42,1.08,1.26,2.58,1.89,4.52,1.89Z"/>
    <path class="cls-5" d="m712.77,225.09v17.98c0,2.07.41,3.62,1.22,4.64.81,1.02,2.17,1.53,4.07,1.53s3.26-.51,4.07-1.53c.81-1.02,1.22-2.57,1.22-4.64v-17.98h6.22v17.3c0,2.16-.2,4.03-.61,5.61-.41,1.58-1.07,2.88-2,3.91-.92,1.02-2.11,1.78-3.57,2.27-1.46.49-3.23.74-5.33.74s-3.88-.25-5.33-.74c-1.46-.49-2.65-1.25-3.57-2.27-.92-1.02-1.59-2.32-2-3.91-.41-1.58-.61-3.45-.61-5.61v-17.3h6.22Z"/>
    <path class="cls-5" d="m734.19,254.41v-29.32h19.95v5.67h-13.57v5.96h11.63v5.67h-11.63v6.34h13.57v5.67h-19.95Zm10.67-31.08l-3.7-1.81,4.16-8.15,5.17,2.56-5.63,7.39Z"/>
    <path class="cls-5" d="m581.71,302.91c-1.99,0-3.78-.31-5.38-.95-1.6-.63-2.95-1.57-4.07-2.81s-1.99-2.8-2.6-4.66c-.62-1.86-.92-4.04-.92-6.53s.31-4.65.92-6.57c.62-1.92,1.48-3.53,2.6-4.83,1.12-1.3,2.48-2.29,4.07-2.96,1.6-.67,3.39-1.01,5.38-1.01,2.72,0,4.96.55,6.72,1.66,1.76,1.11,3.18,2.85,4.24,5.23l-5.5,2.86c-.39-1.23-1-2.22-1.83-2.96-.83-.74-2.04-1.11-3.63-1.11-1.88,0-3.38.61-4.51,1.83s-1.7,2.99-1.7,5.31v4.7c0,2.32.57,4.09,1.7,5.31s2.64,1.83,4.51,1.83c1.57,0,2.82-.43,3.76-1.28.94-.85,1.63-1.88,2.08-3.09l5.21,3.02c-1.09,2.24-2.53,3.97-4.3,5.19-1.78,1.22-4.03,1.83-6.74,1.83Z"/>
    <path class="cls-5" d="m601.91,302.41h-6.38v-29.32h13.9c1.34,0,2.56.22,3.65.67s2.02,1.08,2.79,1.91c.77.83,1.37,1.81,1.79,2.96.42,1.15.63,2.42.63,3.82,0,1.99-.44,3.72-1.32,5.21-.88,1.48-2.22,2.56-4.01,3.23l5.75,11.51h-7.1l-5.12-10.75h-4.58v10.75Zm6.72-16.13c.95,0,1.7-.25,2.25-.74.55-.49.82-1.21.82-2.16v-1.85c0-.95-.27-1.67-.82-2.16-.55-.49-1.3-.74-2.25-.74h-6.72v7.64h6.72Z"/>
    <path class="cls-5" d="m622.16,302.41v-29.32h19.95v5.67h-13.57v5.96h11.63v5.67h-11.63v6.34h13.57v5.67h-19.95Z"/>
    <path class="cls-5" d="m664.03,302.41l-2.1-6.97h-9.79l-2.1,6.97h-6.47l9.66-29.32h7.9l9.53,29.32h-6.64Zm-6.93-23.52h-.21l-3.23,11.13h6.72l-3.28-11.13Z"/>
    <path class="cls-5" d="m694.98,283.17h-.13l-2.14,4.28-5.71,10.37-5.59-10.33-2.23-4.62h-.13v19.53h-6.01v-29.32h6.76l7.18,13.73h.08l7.1-13.73h6.8v29.32h-6.01v-19.24Z"/>
    <path class="cls-5" d="m717.54,302.91c-1.93,0-3.7-.32-5.29-.97s-2.95-1.6-4.07-2.88c-1.12-1.27-1.99-2.86-2.6-4.75-.62-1.89-.92-4.08-.92-6.57s.31-4.68.92-6.57c.62-1.89,1.48-3.47,2.6-4.75s2.48-2.23,4.07-2.88c1.6-.64,3.36-.97,5.29-.97s3.7.32,5.29.97c1.6.64,2.95,1.6,4.07,2.88,1.12,1.27,1.99,2.86,2.6,4.75.62,1.89.92,4.08.92,6.57s-.31,4.68-.92,6.57-1.48,3.47-2.6,4.75c-1.12,1.27-2.48,2.23-4.07,2.88s-3.36.97-5.29.97Zm0-5.67c1.93,0,3.44-.63,4.51-1.89,1.08-1.26,1.62-3.07,1.62-5.42v-4.37c0-2.35-.54-4.16-1.62-5.42s-2.58-1.89-4.51-1.89-3.44.63-4.51,1.89c-1.08,1.26-1.62,3.07-1.62,5.42v4.37c0,2.35.54,4.16,1.62,5.42,1.08,1.26,2.58,1.89,4.51,1.89Z"/>
    <path class="cls-5" d="m743.41,302.91c-2.58,0-4.76-.44-6.55-1.32-1.79-.88-3.32-2.03-4.58-3.43l4.2-4.25c1.99,2.22,4.44,3.33,7.35,3.33,1.57,0,2.73-.32,3.49-.96.76-.64,1.13-1.48,1.13-2.54,0-.8-.22-1.48-.67-2.02-.45-.54-1.36-.91-2.73-1.1l-2.9-.38c-3.11-.39-5.38-1.33-6.82-2.82-1.44-1.49-2.16-3.46-2.16-5.93,0-1.32.25-2.52.76-3.62s1.22-2.03,2.16-2.82c.94-.79,2.08-1.4,3.44-1.83,1.36-.43,2.91-.65,4.64-.65,2.21,0,4.16.35,5.84,1.05,1.68.7,3.12,1.72,4.33,3.07l-4.24,4.29c-.7-.8-1.55-1.46-2.54-1.97-.99-.51-2.25-.77-3.76-.77-1.43,0-2.49.25-3.19.75-.7.5-1.05,1.19-1.05,2.08,0,1,.27,1.72.82,2.16.55.44,1.43.76,2.67.96l2.9.46c3.02.48,5.26,1.41,6.72,2.8,1.46,1.39,2.18,3.36,2.18,5.91,0,1.4-.25,2.69-.76,3.87s-1.24,2.19-2.21,3.03-2.16,1.49-3.59,1.96c-1.43.46-3.05.69-4.87.69Z"/>
    <path class="cls-5" d="m601.3,350.41v-29.32h13.86c1.37,0,2.6.23,3.7.69s2.02,1.1,2.79,1.91c.77.81,1.37,1.8,1.79,2.96.42,1.16.63,2.43.63,3.8s-.21,2.67-.63,3.82c-.42,1.15-1.02,2.13-1.79,2.94-.77.81-1.7,1.45-2.79,1.91s-2.33.69-3.7.69h-7.48v10.58h-6.38Zm6.38-16.13h6.72c.95,0,1.7-.25,2.25-.74.55-.49.82-1.21.82-2.16v-1.85c0-.95-.27-1.67-.82-2.16-.55-.49-1.3-.74-2.25-.74h-6.72v7.64Z"/>
    <path class="cls-5" d="m642.17,350.41l-2.1-6.97h-9.79l-2.1,6.97h-6.47l9.66-29.32h7.9l9.53,29.32h-6.64Zm-6.93-23.52h-.21l-3.23,11.13h6.72l-3.28-11.13Z"/>
    <path class="cls-5" d="m660.69,326.76v23.65h-6.38v-23.65h-7.94v-5.67h22.26v5.67h-7.94Z"/>
    <path class="cls-5" d="m670.01,350.41v-5.08h3.78v-19.15h-3.78v-5.08h13.94v5.08h-3.78v19.15h3.78v5.08h-13.94Z"/>
    <path class="cls-5" d="m699.37,350.91c-1.93,0-3.7-.32-5.29-.97s-2.95-1.6-4.07-2.88c-1.12-1.27-1.99-2.86-2.6-4.75-.62-1.89-.92-4.08-.92-6.57s.31-4.68.92-6.57c.62-1.89,1.48-3.47,2.6-4.75s2.48-2.23,4.07-2.88c1.6-.64,3.36-.97,5.29-.97s3.7.32,5.29.97c1.6.64,2.95,1.6,4.07,2.88,1.12,1.27,1.99,2.86,2.6,4.75.62,1.89.92,4.08.92,6.57s-.31,4.68-.92,6.57-1.48,3.47-2.6,4.75c-1.12,1.27-2.48,2.23-4.07,2.88s-3.36.97-5.29.97Zm0-5.67c1.93,0,3.44-.63,4.51-1.89,1.08-1.26,1.62-3.07,1.62-5.42v-4.37c0-2.35-.54-4.16-1.62-5.42s-2.58-1.89-4.51-1.89-3.44.63-4.51,1.89c-1.08,1.26-1.62,3.07-1.62,5.42v4.37c0,2.35.54,4.16,1.62,5.42,1.08,1.26,2.58,1.89,4.51,1.89Z"/>
    <path class="cls-5" d="m719.32,340.62v-6.43c2.21-.08,3.87-.46,4.98-1.11,1.11-.66,1.66-1.77,1.66-3.34v-.59c0-1.06-.31-1.88-.94-2.44-.63-.56-1.45-.84-2.46-.84-1.09,0-2,.34-2.71,1.01-.71.67-1.2,1.53-1.45,2.56l-5.12-2.14c.25-.84.62-1.66,1.09-2.46.48-.8,1.1-1.51,1.87-2.14.77-.63,1.69-1.14,2.77-1.53,1.08-.39,2.33-.59,3.76-.59s2.79.21,3.99.63c1.2.42,2.24,1.01,3.11,1.76.87.76,1.53,1.67,2,2.73.46,1.06.69,2.24.69,3.53,0,1.18-.2,2.24-.59,3.19-.39.95-.92,1.78-1.6,2.5-.67.71-1.46,1.29-2.35,1.74-.9.45-1.83.76-2.81.92v3.02h-5.88Zm3.02,10.29c-1.34,0-2.3-.31-2.88-.92-.57-.62-.86-1.37-.86-2.27v-1.01c0-.9.29-1.65.86-2.27.57-.62,1.53-.92,2.88-.92s2.3.31,2.88.92c.57.62.86,1.37.86,2.27v1.01c0,.9-.29,1.65-.86,2.27-.57.62-1.53.92-2.88.92Z"/>
  </g>
</svg>