<?xml version="1.0" encoding="UTF-8"?>
<svg id="Capa_1" data-name="Capa 1" xmlns="http://www.w3.org/2000/svg" viewBox="0 0 486.91 466.79">
  <defs>
    <style>
      .cls-1 {
        fill: #fff;
      }

      .cls-2 {
        fill: #6843e1;
      }

      .cls-3 {
        fill: #24ffe1;
      }

      .cls-4 {
        fill: #f1f1f1;
      }

      .cls-5 {
        fill: #1c1c1b;
      }
    </style>
  </defs>
  <path class="cls-4" d="m303.94,424.41c-12.12-5.36-40.88-107.46-40.88-107.46l25.11-6.12s20.52,1.84,26.4-4.11c5.88-5.95,39.56-47,39.56-47l83.13,137.17s-70.61,55.25-133.32,27.53Z"/>
  <path class="cls-3" d="m77.53,326.93l114.99-236.25,19.36-22.51,2.7,9.12s18.58-21.89,25.22-22.12c6.64-.23,8.15,2.44,7.61,12.74-.54,10.31,13.15,2.86,13.15,2.86,0,0,3.7-9.58,6.72-1.02,3.02,8.56-5.22,22.78-5.22,22.78l27.81-14.22,1.29,16.45-32.21,40.49-87.28,254.29s-73.7-7.03-94.14-62.61Z"/>
  <path class="cls-2" d="m356.17,32.26l-93.65,97.61-57.24,102.46s-16.34,20.38-4.72,20.6c11.62.22,39.52-16.23,39.52-16.23l-28.93,57.39,7.85,5.32,24.47-27.26-13.56,36.34,11.17,1.94,14.88-11.49,2.4,14.97,11.31.76,12.93-6.77,9.53,2.23,35.23-28.16,101.41-164.17,16.75-62.64s-60.18-41.82-89.34-22.92Z"/>
  <path class="cls-1" d="m37.27,119.91s100.93,47.42,112.35,58.99c11.43,11.57,77.31,56.73,77.31,56.73,0,0,50.75,18.85,55.07,19.62,4.32.77,9.44-2.72,9.44-2.72l-11.81-22.99,16.98,7.55s.6-6.57,7.25-11.59c9.72-7.35,4.58-21.84,4.58-21.84l-36.29-40.06s19.71,13.55,27.71,12.74c8-.82,3.47-10.9-1.09-16.93-4.56-6.03-174.96-109.19-174.96-109.19,0,0-81.68,38.1-86.54,69.7Z"/>
  <g>
    <path class="cls-5" d="m349.47,32.76c-6.95,5.19-13.73,10.62-20.3,16.28-6.51,5.61-12.83,11.45-18.94,17.5-6.13,6.08-12.06,12.37-17.75,18.87-5.7,6.49-11.16,13.19-16.39,20.06-5.21,6.84-10.18,13.86-14.9,21.05-.6.91-1.2,1.83-1.79,2.75-.95,1.48,1.41,2.85,2.35,1.38,4.63-7.2,9.52-14.23,14.64-21.09,5.1-6.83,10.45-13.47,16.01-19.92,5.59-6.48,11.41-12.77,17.43-18.84,6.03-6.08,12.26-11.95,18.69-17.59,6.4-5.62,13-11.02,19.78-16.18.84-.64,1.68-1.27,2.53-1.9.59-.44.89-1.18.49-1.87-.34-.58-1.27-.93-1.87-.49h0Z"/>
    <path class="cls-5" d="m205.38,226.19c.25-.51.51-1,.81-1.49.92-1.5-1.41-2.85-2.35-1.38-2.98,4.63-6.21,9.08-8.72,13.99-2.4,4.68-5.11,10.9-2.98,16.16.89,2.21,2.76,4.2,5.06,4.96,2.03.67,4.32.33,6.33-.24,5.59-1.6,10.69-5.03,15.39-8.35,2.74-1.94,5.41-3.98,8.04-6.06,1.72-1.36,3.77-3.05,5.3-4.23-.68-.39-1.37-.78-2.05-1.18-.43,8.4-6.24,15.2-10.3,22.17-4.65,7.98-9.01,16.26-12.28,24.91-1.34,3.53-3.03,7.52-2.74,11.38.27,3.62,2.65,6.36,6.38,6.66,3.86.3,7.39-1.79,10.1-4.34,3.22-3.02,5.82-6.73,8.56-10.17,7.07-8.87,14.15-17.74,21.22-26.6-.71-.55-1.43-1.1-2.14-1.65-3.48,5.49-5.58,11.69-8.74,17.36-3.29,5.91-7.89,11.11-12.03,16.43-2.1,2.69-4.27,5.38-6.15,8.23-1.61,2.44-2.8,5.43-1.93,8.37.94,3.17,4.47,5.48,7.57,6.21,6.36,1.49,12.57-2.47,17.28-6.3,6.22-5.06,11.41-11.33,16.28-17.67,4.29-5.59,8.15-11.48,12.31-17.16.91-1.24-1.13-2.82-2.14-1.65-5.12,5.89-10.05,11.99-14.19,18.62-1.96,3.13-3.81,6.4-5.25,9.81-1.21,2.89-2.12,6.1-1.8,9.26.74,7.33,8.18,10.18,14.61,8.1,6.55-2.12,11.78-7.7,15.73-13.12,4.7-6.45,8-13.78,11.23-21.03.7-1.58-1.37-2.87-2.35-1.38-5.2,7.91-10.51,16.15-12.03,25.67-.14.85.35,1.73,1.31,1.73,2.2-.01,4.07,1.1,6.1,1.77,1.94.64,3.84.58,5.83.2,3.94-.76,7.63-2.67,10.91-4.92,7.18-4.94,13-11.61,18.57-18.23,6.62-7.86,12.87-15.95,18.6-24.49,6.24-9.3,11.83-19,18.01-28.33,6.24-9.42,12.58-18.74,18.56-28.32,5.98-9.58,11.9-19.19,17.66-28.91,5.75-9.71,11.33-19.54,16.58-29.53,5.13-9.76,10.06-19.65,15.06-29.48,4.9-9.64,9.62-19.4,13.45-29.52,3.96-10.46,6.58-21.37,9.97-32.01.87-2.72,1.77-5.44,2.69-8.14-.89-.12-1.79-.24-2.68-.36l-.07.93c-.13,1.75,2.6,1.74,2.73,0l.07-.93c.12-1.61-2.2-1.75-2.68-.36-3.62,10.59-6.46,21.4-9.84,32.06-3.27,10.3-7.7,20.19-12.46,29.88-4.71,9.59-9.7,19.05-14.51,28.6-5.03,10-10.42,19.82-16.01,29.52-11.11,19.24-22.75,38.25-35.17,56.68-3.16,4.68-6.32,9.36-9.36,14.12-2.95,4.61-5.73,9.32-8.65,13.94-5.8,9.19-11.93,18.18-18.79,26.62-5.39,6.64-10.89,13.37-17.21,19.15-3.07,2.81-6.4,5.41-10.13,7.29-1.76.89-3.61,1.59-5.53,2.01-2.13.47-3.9.32-5.93-.48-1.91-.75-3.7-1.49-5.79-1.48.44.58.88,1.15,1.31,1.73,1.49-9.31,6.67-17.29,11.76-25.02-.78-.46-1.57-.92-2.35-1.38-4.98,11.18-10.48,23.97-21.19,30.86-2.74,1.76-6.03,3.09-9.34,2.55-2.96-.48-5.27-2.44-5.87-5.42-.56-2.79.28-5.77,1.3-8.35,1.25-3.16,3-6.19,4.77-9.08,4.12-6.75,9.09-12.92,14.27-18.89-.71-.55-1.43-1.1-2.14-1.65-7.82,10.68-14.89,21.91-24.55,31.09-4.13,3.92-9.55,8.65-15.55,8.99-2.52.14-4.89-.69-6.78-2.35-2.13-1.87-2.1-4.4-.86-6.83,1.45-2.86,3.69-5.42,5.64-7.95,4.41-5.71,9.4-11.24,13.03-17.49,3.41-5.88,5.54-12.4,9.19-18.16.81-1.28-1.16-2.88-2.14-1.65-5.86,7.34-11.72,14.69-17.58,22.03-2.91,3.64-5.77,7.32-8.73,10.93-2.22,2.71-4.79,5.71-8.21,6.88-1.76.6-4.03.87-5.61-.33-1.18-.9-1.52-2.41-1.52-3.82-.01-3.7,1.7-7.51,3.02-10.89,3.2-8.2,7.39-16.11,11.86-23.69,4.32-7.32,10.01-14.33,10.46-23.18.05-.95-1.23-1.81-2.05-1.18-7.95,6.14-15.65,13.07-24.92,17.2-3.46,1.54-7.96,2.99-10.59-.64-2.94-4.05-.29-10.17,1.61-14.07,2.58-5.3,6.04-10.04,9.22-14.99-.78-.46-1.57-.92-2.35-1.38-.3.48-.57.98-.81,1.49-.75,1.57,1.6,2.96,2.35,1.38h0Z"/>
    <path class="cls-5" d="m123.12,51.39c3.96,2.76,7.81,5.68,11.84,8.33,4.15,2.73,8.58,4.98,12.93,7.38,8.99,4.96,17.96,10,26.78,15.26,17.08,10.17,33.72,21.04,50.96,30.95,16.35,9.39,32.89,18.52,48.53,29.09,7.93,5.36,15.62,11.09,22.89,17.33,3.32,2.85,6.12,6.59,8.13,10.46.74,1.42,1.86,3.65,1.24,5.19-.17.43-.74.78-1.42.94-1.84.44-3.6-.12-5.25-.93-8.32-4.04-16.24-8.9-25.04-11.89-2.17-.74-4.38-1.35-6.63-1.81-1.34-.28-2.26,1.24-1.33,2.28,3.18,3.53,7.7,5.28,11.25,8.34,3.95,3.4,7.88,6.84,11.73,10.34,6.3,5.72,12.08,11.91,16.08,19.47,1.69,3.2,3.27,6.77,3.57,10.42.19,2.28-.22,6.39-3.02,7.03-2.54.58-5.51-1.69-7.41-3.06-2.54-1.84-4.83-4-7.21-6.04-3.91-3.33-8.44-6.04-12.65-8.98-5.47-3.82-10.93-7.67-16.37-11.54-.46.78-.92,1.57-1.38,2.35,9.07,4.37,18.45,8.77,26.19,15.34,5.28,4.48,10.26,9.9,13.52,16.04,1.42,2.66,2.74,5.92,2.15,9-.25,1.3-.84,2.7-2.11,3.27-1.29.58-2.84.29-4.15-.06-3.21-.87-6.11-2.64-8.95-4.31-4.5-2.66-9-5.33-13.44-8.09-10.57-6.58-20.87-13.59-30.77-21.13-.46.78-.92,1.57-1.38,2.35,9.85,7.46,21.44,12.24,30.44,20.87,5.84,5.6,12.52,11.02,16.35,18.3,1.36,2.59,2.65,6.44.41,8.94-2.07,2.3-6.12,1.97-8.87,1.63-7.37-.93-14.71-3.87-21.33-7.15-13.06-6.47-26.01-13.19-39.1-19.6-6.03-2.95-11.89-5.96-17.44-9.75-5.34-3.65-10.4-7.68-15.49-11.66-10.87-8.5-22.35-15.97-33.99-23.36-11.73-7.44-23.16-15.36-35.07-22.53-12-7.22-24.59-13.4-36.46-20.85-5.77-3.62-11.73-6.66-17.81-9.73-5.6-2.83-10.88-6.11-17.07-7.49-2.89-.65-5.85-.94-8.81-1-1.76-.04-1.76,2.69,0,2.73,6.39.13,12.39,1.68,18.03,4.67,6.06,3.21,12.31,6.13,18.29,9.5,3.1,1.74,6.04,3.74,9.08,5.58,3.08,1.87,6.21,3.68,9.35,5.45,6.22,3.5,12.55,6.81,18.73,10.37,12.35,7.13,24.07,15.23,36.07,22.91,12.01,7.69,24.16,15.15,35.45,23.89,5.19,4.01,10.28,8.14,15.61,11.96,5.49,3.93,11.22,7.3,17.29,10.25,13.44,6.52,26.72,13.36,40.07,20.04,7.18,3.6,14.82,6.89,22.79,8.21,3.45.57,7.39.93,10.63-.69,3.18-1.6,4.36-5.14,3.85-8.51-.63-4.14-3.22-7.82-5.78-11.01-2.82-3.52-6.05-6.7-9.34-9.78-3.5-3.28-6.94-6.59-10.84-9.4-5.08-3.66-10.59-6.65-15.92-9.93-2.65-1.63-5.25-3.35-7.73-5.24-1.4-1.06-2.75,1.3-1.38,2.35,9.5,7.23,19.36,13.97,29.47,20.32,4.79,3.01,9.65,5.91,14.52,8.78,3.07,1.81,6.22,3.7,9.67,4.67,3.14.88,6.69.74,8.65-2.23,1.88-2.87,1.54-6.69.51-9.79-2.41-7.26-8.02-13.56-13.51-18.72-8.33-7.84-18.79-12.87-28.99-17.79-1.59-.77-2.81,1.34-1.38,2.35,5.08,3.61,10.17,7.2,15.28,10.77,2.63,1.84,5.26,3.67,7.89,5.5,1.7,1.18,3.47,2.28,5.05,3.61,2.55,2.14,4.97,4.42,7.65,6.4,2.42,1.79,5.44,3.85,8.59,3.78,3.23-.07,5.35-2.89,6.05-5.83.87-3.68-.14-7.62-1.49-11.05-3.09-7.84-8.28-14.61-14.21-20.52-4.38-4.37-9.14-8.33-13.78-12.42-2.21-1.95-4.39-3.77-6.89-5.35-2.42-1.54-4.87-3.01-6.81-5.16-.44.76-.88,1.52-1.33,2.28,9.61,1.97,18.19,6.81,26.8,11.28,3.52,1.83,7.21,4.26,11.35,3.39,2.14-.45,3.65-1.99,3.77-4.21.13-2.28-.98-4.59-2.05-6.53-1.25-2.28-2.78-4.4-4.41-6.41-1.46-1.81-3.02-3.34-4.79-4.85-3.77-3.2-7.65-6.27-11.62-9.23-15.6-11.65-32.47-21.42-49.35-31.06-8.56-4.89-17.13-9.75-25.56-14.84-8.94-5.39-17.73-11.05-26.63-16.51-9.08-5.56-18.28-10.89-27.56-16.11-4.67-2.63-9.35-5.22-14.06-7.78-4.45-2.41-8.62-5.17-12.73-8.12-2.01-1.44-4-2.89-6.03-4.3-1.44-1-2.81,1.36-1.38,2.35h0Z"/>
    <path class="cls-5" d="m72.64,319.38c3.32-10.46,7.16-20.75,11.42-30.87,4.25-10.09,8.92-19.99,13.9-29.74,5.11-10,10.54-19.83,16.2-29.52,5.79-9.92,11.82-19.7,17.98-29.39,1.26-1.99,2.63-3.94,3.8-5.99.72-1.26,1.37-2.56,2.05-3.84.85-1.61,1.73-3.2,2.69-4.75.84-1.35,1.57-2.47,2.7-3.52.1-.09.2-.18.31-.27-.24.2.1-.07.15-.1.11-.07.22-.13.34-.2.19-.11-.27.08.09-.03,1.67-.52.96-3.16-.72-2.63-1.33.42-2.35,1.46-3.2,2.51-1.13,1.4-2.08,2.92-2.98,4.47-1.59,2.75-2.91,5.66-4.62,8.33-6.29,9.8-12.45,19.68-18.39,29.7-5.83,9.83-11.43,19.78-16.71,29.91-5.13,9.85-9.96,19.86-14.38,30.05-4.43,10.22-8.46,20.61-11.96,31.18-.44,1.32-.86,2.64-1.28,3.96-.53,1.68,2.1,2.39,2.63.72h0Z"/>
    <path class="cls-5" d="m187.12,91.07c0-1.03,1.01-2.24,1.72-3.15.7-.89,1.39-1.75,1.93-2.74.64-1.16,1.31-2.3,2-3.43.99-1.63,2.01-3.23,3.07-4.81,1.17-1.73,2.52-3.63,3.7-5.14,1.28-1.63,2.62-3.21,4.08-4.66.66-.65,1.34-1.27,2.05-1.85.03-.02.34-.26.09-.08.09-.07.18-.14.28-.21.15-.11.3-.22.46-.32.35-.24.71-.46,1.08-.66.15-.08.29-.15.44-.22.09-.04.17-.08.26-.12-.03.01-.29.11-.07.03.34-.12.67-.23,1.02-.31.08-.02.17-.03.25-.04-.03,0-.34.01-.12.02.16,0,.32-.02.48-.02.13,0,.55.08.11-.01.15.03.3.05.46.1.24.07.35.14.15.04.13.07.26.13.39.21.08.05.44.34.13.08.15.13.29.25.42.39.25.26.48.58.71,1.04.18.35.36.92.48,1.48.11.53.16,1.05.17,1.69.01.74-.03,1.48-.12,2.22-.17,1.4-.53,2.87-.94,4.25-.75,2.54-1.7,4.88-2.93,7.21-.82,1.55,1.53,2.93,2.35,1.38,4.28-8.06,7.9-16.81,14.54-23.29,1.96-1.91,3.99-3.77,6.13-5.48,2.33-1.86,5.15-3.85,7.92-4.74.32-.1.65-.19.99-.27.15-.03.3-.06.45-.09.31-.06-.04-.01.27-.03.31-.02.61-.03.91-.02.08,0,.43.04.29.02-.11-.02.29.06.39.09.13.03.26.08.38.12.31.1-.06-.04.15.06.14.07.27.14.41.23.11.07.41.32.17.11.19.16.35.34.53.51.23.24-.07-.12.06.07.08.12.17.25.24.37.06.1.12.2.17.31.03.07.2.47.07.14.1.27.19.54.27.81.07.25.12.51.16.77.01.08.02.15.04.23,0-.05-.03-.28,0-.01.02.16.03.32.04.48.04.64.04,1.28,0,1.92-.04.7-.13,1.45-.2,1.93-.49,3.13-1.43,6.19-2.51,9.16-1.01,2.8-2,5.15-3.22,7.8-1.44,3.16-3,6.26-4.59,9.34-1.19,2.3-2.52,4.57-3.57,6.94-.85,1.93-1.31,3.99-2.06,5.96-.29.76-.64,1.56-1.16,2.2.71.09,1.43.18,2.14.28-.08-.11-.15-.22-.21-.34.12.22.02.07-.02-.09-.04-.13-.04-.36-.03-.09,0-.14,0-.29,0-.43,0-.07.01-.15.02-.22,0,.06-.05.28,0,.02.03-.14.06-.28.09-.42.08-.29.23-.74.3-.9.51-1.24,1.45-2.65,2.3-3.84.84-1.17,1.54-2.03,2.43-3.19,1.04-1.34,1.92-2.78,2.85-4.19,4.65-6.96,9.74-13.61,16.03-19.17,1.6-1.41,3.25-2.76,4.97-4.02,1.68-1.24,3.44-2.6,5.37-3.39.36-.15.74-.27,1.12-.37.16-.04.32-.07.48-.11.3-.06-.01-.02.28-.04.14,0,.28-.02.42-.01.1,0,.52.04.2,0,.12.02.25.04.37.07.08.02.53.19.21.05.21.1.41.21.6.35-.22-.16-.03-.02.06.07.11.11.21.21.3.33-.18-.21,0,0,.06.1.06.1.13.21.19.32.07.13.13.26.19.39-.12-.26.03.1.06.2.09.26.16.53.22.8.04.16.06.32.09.49,0,.05.04.27,0,.02.01.09.02.17.03.26.06.68.08,1.36.04,2.05-.07,1.43-.32,2.76-.76,4.26-1.31,4.46-3.8,8.52-6.11,12.52-2.58,4.46-4.87,9.09-7.39,13.58-1.25,2.23-2.58,4.4-3.86,6.6-.83,1.44-1.55,3.01-2.66,4.27-.19.21-.55.58-.68.68-.16.12-.34.23-.51.32-.16.08-.08.04-.35.11.58.44,1.15.88,1.73,1.31.02-1.21.35-2.53.87-3.74.59-1.37,1.49-2.8,2.4-4.05,2.06-2.81,4.61-5.28,7.19-7.6,2.51-2.26,5.13-4.37,7.74-6.51,2.67-2.19,5.23-4.5,8.04-6.51,3.34-2.38,7.03-4.55,11.1-5.33.92-.17,1.85-.25,2.79-.22.2,0,.41.01.61.03.05,0,.42.05.21.02-.22-.03.13.03.18.04.11.03.23.06.34.09.06.02.36.13.15.04-.21-.08.07.03.13.07.08.04.16.09.24.14.22.12.09.08.03.01.11.12.23.23.35.34.2.2-.02-.04,0-.01.05.09.11.17.16.26.05.08.08.16.13.24.14.24,0-.02,0,0,.06.2.13.39.18.59.02.1.04.2.06.29.03.16.04.3.01.03.02.23.04.46.05.7.01.47,0,.95-.06,1.42-.01.13-.03.25-.04.38.04-.29,0,.02-.02.13-.05.29-.1.57-.16.85-.24,1.18-.59,2.33-.98,3.47-.22.62-.45,1.24-.69,1.85-.25.62-.38.92-.68,1.6-1.07,2.38-2.31,4.69-3.69,6.9-.58.93-1.19,1.84-1.84,2.71-.07.1-.14.19-.21.28-.09.12.06-.08.06-.08-.04.05-.08.1-.12.15-.14.18-.29.36-.43.53-.25.29-.5.58-.77.84-.1.1-.21.2-.31.29-.05.05-.11.09-.16.13-.15.15.3-.22.06-.05-.6.42-.88,1.19-.49,1.87.35.59,1.26.92,1.87.49,1.54-1.09,2.67-2.74,3.72-4.28,1.49-2.19,2.8-4.5,3.96-6.88,1.22-2.5,2.32-5.1,3.04-7.79.57-2.14,1.03-4.58.41-6.76-.62-2.18-2.36-3.4-4.56-3.6-4.32-.4-8.68,1.41-12.33,3.53-3.71,2.15-7.04,4.88-10.29,7.67-2.47,2.11-5.03,4.11-7.49,6.21-2.89,2.47-5.71,5.05-8.16,7.97-2.18,2.59-4.27,5.57-5.01,8.93-.17.77-.27,1.56-.28,2.34-.02.9.88,1.53,1.73,1.31,1.92-.5,3.22-2.23,4.23-3.83,1.13-1.8,2.16-3.69,3.24-5.52,2.82-4.79,5.29-9.75,7.99-14.6,2.57-4.62,5.43-9.08,7.33-14.03,1.2-3.13,1.9-6.57,1.39-9.91-.42-2.77-2.19-5.22-5.2-5.27-1.8-.03-3.59.75-5.12,1.62-2.11,1.2-4.07,2.73-5.97,4.22-7.14,5.58-12.95,12.48-18.09,19.91-1.31,1.9-2.56,3.85-3.85,5.76-.11.17-.23.33-.36.5-.03.04-.27.35-.17.22.09-.11-.19.24-.24.31-.49.62-.98,1.25-1.46,1.88-1.01,1.31-1.99,2.66-2.79,4.11-.72,1.3-1.43,2.84-1.35,4.36.03.7.22,1.42.64,2,.47.63,1.53,1.03,2.14.28,1.4-1.73,2.05-3.84,2.7-5.93.3-.96.58-1.94.98-2.86.53-1.21,1.21-2.38,1.82-3.56,1.98-3.82,3.97-7.64,5.79-11.54,2.6-5.56,5.08-11.37,6.28-17.41.55-2.75.97-5.89.03-8.6-.93-2.71-3.3-4.47-6.21-4.34-3.26.14-6.33,1.94-8.95,3.76-2.68,1.86-5.16,4-7.54,6.24-3,2.82-5.63,5.91-7.87,9.38-2.61,4.05-4.73,8.38-6.92,12.66-.55,1.08-1.11,2.16-1.68,3.23.78.46,1.57.92,2.35,1.38,1.21-2.28,2.21-4.7,2.99-7.16.85-2.67,1.51-5.56,1.35-8.38-.13-2.41-.93-4.9-2.97-6.36-1.31-.94-2.98-1.08-4.51-.65-1.74.5-3.25,1.57-4.62,2.71-1.61,1.34-3.05,2.89-4.39,4.48-2.92,3.46-5.5,7.21-7.9,11.05-.91,1.46-1.8,2.95-2.64,4.45-.54.98-1.19,1.84-1.88,2.73-1.08,1.38-2.27,2.92-2.27,4.76,0,1.75,2.72,1.76,2.73,0h0Z"/>
    <path class="cls-5" d="m204.5,294.24c-8.15,9.8-13.3,21.61-17.91,33.38-2.32,5.92-4.51,11.89-6.88,17.78-1.13,2.79-2.3,5.57-3.56,8.3-1.56,3.38-2.87,6.85-4.17,10.33-.72,1.92-1.44,3.85-2.26,5.74-.81,1.88-1.76,3.68-2.66,5.52-.77,1.57-1.4,3.11-1.82,4.81-.33,1.3-.62,2.95-1.53,3.92-1.2,1.28.72,3.21,1.93,1.93,1.97-2.1,1.91-5.14,3.02-7.66.72-1.64,1.58-3.21,2.36-4.82.83-1.71,1.56-3.47,2.26-5.24,1.35-3.41,2.54-6.89,3.95-10.28,1.24-3,2.67-5.93,3.92-8.93,4.89-11.68,8.78-23.78,14.3-35.2,3.02-6.24,6.53-12.31,10.98-17.65.47-.57.55-1.37,0-1.93-.48-.48-1.46-.57-1.93,0h0Z"/>
    <path class="cls-5" d="m294.35,431.25c-1.14-7.68-3.41-15.13-5.61-22.55-2.15-7.24-4-14.55-5.9-21.86-.96-3.69-1.95-7.38-3.03-11.04-1.07-3.62-2.33-7.18-3.51-10.76-2.32-7.03-4.13-14.22-6.45-21.26-2.56-7.78-6.37-15.1-8.17-23.12-.38-1.71-3.01-.99-2.63.72.79,3.52,1.92,6.94,3.24,10.29,1.35,3.44,2.85,6.82,4.08,10.31,2.44,6.95,4.26,14.1,6.45,21.13,1.12,3.58,2.42,7.1,3.53,10.68,1.14,3.64,2.16,7.31,3.13,11,1.94,7.33,3.71,14.7,5.84,21.97,2.43,8.32,5.12,16.61,6.4,25.21.11.73,1.03,1.13,1.68.95.78-.21,1.06-.95.95-1.68h0Z"/>
    <path class="cls-5" d="m424.51,391.89c-5.39-9.01-10.77-18.01-16.16-27.02-5.36-8.97-10.73-17.94-16.09-26.9-5.39-9.01-10.77-18.01-16.16-27.02-2.68-4.48-5.36-8.97-8.04-13.45-2.54-4.25-5-8.55-7.76-12.66-5.09-7.58-10.95-14.71-15.12-22.87-.5-.98-.97-1.98-1.41-2.99-.29-.68-1.28-.83-1.87-.49-.7.41-.78,1.19-.49,1.87,3.66,8.4,9.44,15.66,14.65,23.12,2.72,3.89,5.17,7.93,7.61,12.01,2.68,4.48,5.36,8.97,8.04,13.45,5.39,9.01,10.77,18.01,16.16,27.02,5.39,9.01,10.77,18.01,16.16,27.02,5.36,8.97,10.73,17.94,16.09,26.9.68,1.13,1.35,2.26,2.03,3.39.9,1.5,3.26.13,2.35-1.38h0Z"/>
    <path class="cls-5" d="m138.49,61.36c2.01,1.69,4.14,3.23,6.4,4.55,1.05.61,2.15,1.1,3.07,1.91.49.43.99.85,1.56,1.17.53.3,1.1.51,1.63.82.92.54,1.64,1.4,2.42,2.12.89.81,1.87,1.55,3.03,1.93.63.21,1.32.21,1.93.48.49.21.93.56,1.36.87,1.03.75,2.14,1.28,3.3,1.81,1.1.5,2.16,1.06,3.11,1.83.98.8,1.82,1.78,2.86,2.51.44.31.92.57,1.39.84.25.14.49.29.73.44.08.05.16.12.24.17.06.05.11.09.17.14-.11-.19-.14-.22-.07-.09-.05.58.88,1.22,1.29,1.43.62.31,1.3.47,1.95.7,2.43.88,4.85,1.74,7.23,2.77,1.17.5,2.42.87,3.56,1.44.92.46,1.72,1.07,2.48,1.76,1.68,1.53,3.54,3.82,5.94,4.07.44.05.85-.03,1.22.22.41.27.72.73,1.04,1.09.78.88,1.76,1.58,2.77,2.17,2.09,1.23,4.31,2.14,6.31,3.55,2.2,1.54,4.27,3.07,6.78,4.08,2.44.99,4.99,1.59,7.33,2.83,1.13.6,2.24,1.26,3.37,1.86,1.16.61,2.38,1.11,3.55,1.7,2.3,1.15,4.7,2.44,6.7,4.08,1.94,1.59,3.61,3.51,5.75,4.86,1.05.67,2.26,1.02,3.3,1.7.51.33.95.74,1.47,1.05.56.34,1.15.61,1.74.89,2.13,1.02,3.78,2.56,5.65,3.97.94.71,1.93,1.3,3.03,1.74,1.15.46,2.21,1.05,3.32,1.6.55.27,1.11.49,1.62.82.44.29.85.63,1.32.88.94.5,1.96.76,2.97,1.08.93.3,1.7.7,2.34,1.46.47.57,1.44.49,1.93,0,.56-.56.47-1.36,0-1.93-.75-.91-1.74-1.49-2.83-1.91-.88-.34-1.82-.52-2.69-.89-1.01-.43-1.83-1.2-2.84-1.66-1.2-.54-2.32-1.26-3.54-1.75-1.04-.42-1.99-.88-2.91-1.54-.87-.63-1.67-1.35-2.52-2.02-.96-.76-1.95-1.45-3.05-2-1.19-.59-2.26-1.16-3.33-1.93-1.01-.73-2.21-1.1-3.28-1.72-1.04-.6-1.95-1.4-2.83-2.21-1.93-1.76-3.82-3.39-6.05-4.76-2.29-1.41-4.72-2.47-7.11-3.7-2.32-1.19-4.5-2.62-6.98-3.5-2.51-.88-5.05-1.58-7.32-3-2.12-1.33-4.02-2.99-6.25-4.15-1.99-1.04-4.24-1.86-5.76-3.58-.79-.89-1.61-1.8-2.84-2.01-.51-.09-1.06,0-1.54-.22-.52-.24-1-.61-1.44-.98-1.7-1.42-3.16-3.16-5.13-4.22-1.11-.6-2.34-.95-3.5-1.44-1.24-.52-2.46-1.09-3.71-1.58-1.22-.48-2.48-.84-3.71-1.31-.56-.21-1.12-.42-1.69-.59-.12-.04-.24-.09-.36-.12-.07-.02-.45-.12-.18,0,.11.05.08.17,0-.04-.09-.29-.23-.52-.42-.75-.77-.88-1.95-1.34-2.92-1.97-.99-.64-1.75-1.6-2.67-2.34-1.02-.82-2.08-1.49-3.26-2.04-1.11-.51-2.24-.98-3.24-1.69-1.08-.76-2.04-1.39-3.35-1.66-1.12-.24-1.93-.68-2.78-1.45-.85-.78-1.63-1.65-2.58-2.3-.98-.68-2.11-1-3.02-1.8-.99-.87-2.06-1.45-3.2-2.1-1.12-.63-2.2-1.32-3.26-2.05-1.04-.72-2.04-1.5-3.01-2.31-.56-.47-1.38-.55-1.93,0-.49.49-.57,1.45,0,1.93h0Z"/>
    <path class="cls-5" d="m142.28,179.58c1.37-.28,1.78-1.44,1.61-2.68-.15-1.1-1.6-1.19-2.28-.6-.82.71-1.24,1.8-1.54,2.82-.32,1.09-.57,2.2-.8,3.32-.27,1.33-.56,2.63-1.16,3.86-.61,1.24-1.35,2.4-2.04,3.6-1.37,2.37-2.25,4.98-3.63,7.35-1.25,2.14-2.91,4.01-4.52,5.88-1.63,1.89-3.28,3.79-4.68,5.86-1.46,2.17-2.36,4.56-3.43,6.93-1.08,2.37-2.57,4.49-3.91,6.72-.66,1.09-1.33,2.18-2.08,3.22-.73,1.01-1.63,1.88-2.37,2.88-.71.96-1.27,2-2.1,2.86-.91.95-1.66,1.89-2.34,3.01-1.44,2.38-2.89,4.77-4.06,7.3-1.24,2.68-2.45,5.38-3.67,8.07-1.16,2.57-2.17,5.3-3.68,7.69-.73,1.15-1.53,2.24-2.26,3.39-.7,1.12-1.27,2.31-1.82,3.52-1.12,2.46-2.19,4.91-3.63,7.2-1.44,2.29-2.1,4.97-3.3,7.38-1.3,2.61-2.76,5.12-4.23,7.63-1.43,2.44-2.83,4.9-4.01,7.47-1.15,2.5-2.5,5.29-2.51,8.09,0,.57.07,1.17-.03,1.74-.12.71-.43,1.41-.65,2.09-.42,1.34-.8,2.69-1.11,4.06-.3,1.32-.49,2.65-.97,3.93-.39,1.04-.77,1.99-.89,3.1-.05.46-.04.53-.15.94,0,.03-.08.26,0,.06-.04.11-.07.07-.03.08.07.02-.07-.01-.02.01-.06-.04.4-.13-.04-.06-.73.11-1.13,1.03-.95,1.68.21.78.95,1.06,1.68.95,1.04-.16,1.73-1.03,2-1.99.13-.45.17-.92.21-1.38,0-.06.07-.58.03-.32.04-.24.1-.46.18-.69.39-1.22.94-2.36,1.18-3.63.27-1.43.6-2.84.99-4.24.37-1.33.98-2.67,1.2-4.04.22-1.32-.03-2.64.3-3.95.68-2.65,1.95-5.24,3.21-7.65,2.67-5.12,6.08-9.9,8.2-15.3.48-1.21.9-2.45,1.5-3.6.62-1.19,1.39-2.28,2-3.47,1.24-2.42,2.16-5.01,3.5-7.38,1.33-2.35,3.06-4.42,4.18-6.9,1.21-2.68,2.41-5.36,3.63-8.04,1.21-2.66,2.36-5.36,3.77-7.93.68-1.23,1.4-2.44,2.13-3.65.66-1.09,1.26-2.08,2.15-2.99.93-.96,1.62-2.02,2.37-3.11.68-.99,1.53-1.82,2.26-2.77,1.59-2.04,2.79-4.34,4.2-6.5,1.49-2.29,2.56-4.7,3.63-7.21.97-2.26,2.32-4.3,3.87-6.21,1.56-1.92,3.24-3.74,4.79-5.68.81-1,1.6-2.03,2.29-3.12.76-1.2,1.35-2.49,1.93-3.78.56-1.25,1.11-2.5,1.79-3.69.68-1.2,1.43-2.36,2.06-3.58,1.24-2.38,1.61-4.96,2.26-7.53.21-.81.4-1.8,1.04-2.36-.76-.2-1.52-.4-2.28-.6-.05-.21.03-.37.24-.47.3-.22.32-.29.06-.2-.72.15-1.14,1-.95,1.68.21.75.95,1.1,1.68.95h0Z"/>
    <path class="cls-5" d="m207.46,294.28c0-.76,0-1.52,0-2.28h-2.73c.17,1.37-.56,2.69-1.11,3.9-.72,1.59-1.59,3.11-2.36,4.67-1.54,3.16-3.26,6.28-5.12,9.27-.93,1.5-2.16,2.62-3.42,3.84-1.27,1.23-2.18,2.54-2.98,4.11-.82,1.6-1.7,3.14-2.44,4.78-.72,1.61-1.42,3.23-2.14,4.85-.76,1.72-1.52,3.45-2.19,5.21-.65,1.69-1.16,3.42-1.74,5.13-.61,1.79-1.37,3.54-1.92,5.36-.51,1.67-.81,3.4-1.24,5.09-.21.82-.43,1.67-.8,2.44-.38.79-.78,1.57-1.01,2.42-.44,1.65-.74,3.36-1.09,5.03-.38,1.78-.78,3.55-1.53,5.22-.68,1.53-1.5,2.99-2.32,4.45-1.63,2.89-3.1,5.76-4.03,8.95-.36,1.22-.74,2.53-1.25,3.61-.13.28-.28.56-.44.83-.12.2-.34.54-.36.56-.07.09-.15.17-.22.26-.04.04-.33.31-.24.24.14-.11-.18.12-.17.11-.07.04-.14.08-.21.11.14-.06.14-.06,0,0-1.66.54-.95,3.17.72,2.63,2.39-.78,3.44-3.43,4.18-5.61.36-1.07.65-2.15.98-3.23.42-1.37,1.01-2.66,1.67-3.93,1.63-3.15,3.63-6.14,4.82-9.5.63-1.77.93-3.64,1.35-5.47.38-1.64.55-3.38,1.3-4.89.82-1.66,1.27-3.4,1.68-5.19.41-1.81.87-3.57,1.52-5.31,1.32-3.55,2.37-7.19,3.84-10.67,1.4-3.33,2.79-6.74,4.48-9.94.42-.79.87-1.56,1.27-2.35.37-.72.73-1.47,1.25-2.1,1.13-1.4,2.65-2.44,3.78-3.85,1.25-1.55,2.12-3.33,3.13-5.03,1.04-1.75,2.05-3.51,2.93-5.35.89-1.86,1.9-3.65,2.76-5.53.72-1.57,1.62-3.33,1.41-5.11-.09-.73-.56-1.36-1.36-1.36-.74,0-1.37.62-1.36,1.36,0,.76,0,1.52,0,2.28,0,1.75,2.73,1.76,2.73,0h0Z"/>
    <path class="cls-5" d="m192.79,254.51c.88.9,1.84,1.75,3.01,2.26,1.24.54,2.48.57,3.8.62,1.44.05,2.87.26,4.31.07,1.44-.19,2.52-.87,3.62-1.78.41-.34.8-.7,1.23-1.01.21-.15.54-.41.79-.46.16-.03.44.06.63.04.82-.05,1.45-.52,2.07-1,.53-.42,1.11-.7,1.75-.93,1.47-.53,2.98-.89,4.35-1.66.62-.35,1.21-.74,1.84-1.07.63-.33,1.31-.53,1.98-.78,1.25-.46,2.39-1.11,3.25-2.14.67-.81,1.19-1.71,1.74-2.6.5-.82.98-1.6,1.65-2.13.31-.24.57-.37.97-.46.16-.04.26-.04.52-.04.16,0,.53.07.69,0-.42.2-.83-.53-1.01-.76.03.04.06.37.01.04.03.23.06.46.09.7.07.71.04,1.42-.11,2.12-.33,1.51-1.16,2.79-1.92,4.11-.73,1.27-1.25,2.7-2.15,3.87-.96,1.23-1.79,2.46-2.51,3.84-.72,1.38-1.47,2.71-2.3,4.03-.78,1.25-1.29,2.58-1.95,3.89-.62,1.22-1.46,2.27-2.34,3.31-1.02,1.2-2.02,2.4-2.95,3.67-.95,1.3-1.83,2.67-2.55,4.11-.74,1.48-1.53,3-2.12,4.55-.53,1.38-.75,2.85-1.19,4.26-.43,1.39-1.02,2.72-1.57,4.06-1.05,2.58-2,5.37-1.33,8.17.35,1.47,1.18,2.65,2.12,3.8.85,1.04,1.76,2.04,2.82,2.87,1.18.93,2.52,1.65,4.05,1.67,1.57.02,2.9-.76,3.7-2.09.26-.44.49-.87.82-1.26.53-.61,1.11-1.16,1.69-1.72,1.12-1.08,2.03-2.31,3.09-3.45.95-1.03,2.09-1.86,3.03-2.91.92-1.04,1.72-2.18,2.51-3.32,1.9-2.73,3.7-5.51,5.54-8.29.44-.67.86-1.38,1.35-2.01.44-.57.99-1.05,1.52-1.53,1.11-1,2.04-2.08,3.02-3.21,1.11-1.28,2.25-2.51,3.27-3.86.9-1.2,1.85-2.3,2.93-3.34,1.03-.99,2.01-2.02,2.7-3.27.85-1.54-1.5-2.91-2.35-1.38-.66,1.19-1.62,2.08-2.58,3.02-1.11,1.08-2.04,2.26-2.97,3.5-.98,1.3-2.11,2.47-3.17,3.7-.96,1.12-1.91,2.14-3,3.13-1.15,1.04-1.99,2.25-2.85,3.54-.92,1.38-1.82,2.78-2.73,4.16-1.61,2.44-3.17,5.02-5.1,7.22-.93,1.06-2.07,1.88-3.03,2.91-1,1.08-1.85,2.26-2.91,3.28-1.03.99-2.13,1.98-2.84,3.23-.22.39-.37.8-.76,1.02-.53.29-1.16.22-1.71.03-1.13-.39-2.06-1.32-2.86-2.17-.86-.91-1.81-1.9-2.34-3.05-1.08-2.34-.03-5.04.85-7.26.51-1.29,1.08-2.56,1.54-3.87.48-1.38.71-2.82,1.15-4.2.46-1.45,1.25-2.85,1.91-4.22.69-1.42,1.52-2.76,2.43-4.04,1.66-2.34,3.84-4.33,5.28-6.82.74-1.28,1.19-2.69,1.96-3.97.78-1.29,1.58-2.55,2.28-3.89.67-1.28,1.33-2.59,2.25-3.72.98-1.21,1.63-2.52,2.35-3.89.71-1.37,1.57-2.64,2.15-4.07.56-1.4.81-2.97.62-4.47-.13-1.09-.28-2.35-1.72-2.47-1.03-.09-2.1.06-3.03.52-1.91.93-2.89,2.97-3.97,4.67-.53.83-.99,1.47-1.94,1.97-1.19.63-2.54.9-3.72,1.58-.62.35-1.21.74-1.84,1.07-.68.35-1.42.55-2.14.78-.72.23-1.44.47-2.13.77-.71.31-1.26.71-1.88,1.17-.11.08-.29.24-.4.27-.28.08-.68-.05-.99.02-.65.13-1.26.5-1.78.88-.94.69-1.8,1.73-2.91,2.17-1.1.44-2.51.2-3.65.12-1.16-.08-2.39.05-3.51-.33-.9-.31-1.73-1.1-2.44-1.81-1.23-1.25-3.16.68-1.93,1.93h0Z"/>
    <path class="cls-5" d="m221.78,307.93c.17.04.34.07.51.11l-.95-.95c.18.57.19,1.15.28,1.74.08.53.24,1.04.44,1.54.44,1.13,1.03,2.09,1.98,2.86,1.73,1.38,4.34,2.32,6.57,2.14,1.05-.09,2.15-.53,3.12-.66,1.02-.14,1.93-.26,2.79-.89.96-.69,1.85-1.26,2.99-1.6,1.05-.32,2.13-.52,3.19-.82,1.21-.35,2.34-.81,3.31-1.63.81-.69,1.39-1.59,2.06-2.4.78-.95,1.69-1.79,2.48-2.73.81-.96,1.51-2,2.32-2.95,1.55-1.82,3.42-3.31,5.17-4.92.88-.81,1.76-1.66,2.5-2.61.72-.92,1.28-1.95,1.95-2.91.33-.47.72-.94,1.18-1.3.47-.36,1.01-.61,1.45-1.01.5-.45.87-1.04,1.01-1.71.12-.58.03-1.19.15-1.77.22-1.09,1.16-2.22,1.87-3.05.9-1.07,1.91-2.04,2.9-3.02-.64-.64-1.29-1.29-1.93-1.93-.35.35-.7.7-1.05,1.05-1.24,1.24.69,3.17,1.93,1.93.35-.35.7-.7,1.05-1.05,1.24-1.24-.68-3.17-1.93-1.93-1.64,1.64-3.35,3.28-4.55,5.29-.62,1.04-1,2.03-1.05,3.24-.01.35.02.64-.19.89-.28.34-.79.53-1.15.79-1.8,1.33-2.55,3.4-3.98,5.05-1.52,1.75-3.36,3.2-5.05,4.77-.83.77-1.64,1.57-2.36,2.44-.75.91-1.42,1.88-2.17,2.78-.77.91-1.65,1.73-2.41,2.65-.64.76-1.18,1.6-1.91,2.29-1.46,1.37-3.88,1.43-5.71,2.01-1.16.37-2.25.89-3.21,1.64-.32.25-.69.5-.97.58-.1.03-.4.08-.4.08-.05,0-.46.05-.63.08-1.1.15-2.18.66-3.3.63-1.03-.02-2.17-.34-3.09-.78-.97-.47-1.79-1.07-2.24-2.07-.21-.46-.4-.98-.48-1.49-.1-.66-.11-1.31-.31-1.95-.14-.43-.48-.85-.95-.95-.17-.04-.34-.07-.51-.11-.72-.15-1.47.21-1.68.95-.19.67.23,1.53.95,1.68h0Z"/>
    <path class="cls-5" d="m88.78,147.35c1.57.91,2.74,2.35,4.32,3.26,1.49.86,2.56,2.18,3.96,3.16.7.49,1.48.82,2.25,1.16.9.41,1.76.9,2.63,1.37,1.61.87,3.27,1.64,5.04,2.11,1.89.5,3.78.95,5.65,1.54.9.29,1.82.58,2.69.96.78.34,1.35.95,2.1,1.34.77.41,1.61.59,2.43.88.92.32,1.79.81,2.63,1.3,1.59.92,3.12,1.92,4.51,3.12,1.35,1.16,2.62,2.41,4.02,3.52,1.58,1.26,3.32,2.27,5,3.38,3.44,2.29,6.87,4.59,10.35,6.81,1.71,1.09,3.37,2.28,5.01,3.47,1.63,1.18,3.33,2.28,4.93,3.5,1.55,1.19,2.94,2.57,4.49,3.75,1.56,1.2,3.26,2.19,4.88,3.31,1.56,1.09,2.81,2.53,4.35,3.64.62.44,1.32.63,1.99.97.88.45,1.72.97,2.62,1.41,1.65.8,3.35,1.58,4.88,2.6,1.33.89,2.07,2.21,3.18,3.31,1.25,1.23,2.92,1.66,4.32,2.66,1.38.98,2.29,2.52,3.49,3.7.6.59,1.25,1.13,2.04,1.43.81.31,1.43.55,2.09,1.13,1.33,1.18,2.5,2.2,4.16,2.91,1.65.7,3.37,1.19,5.06,1.78,1.84.65,3.3,1.68,4.97,2.65,1.62.95,3.38,1.73,5.07,2.56,1.85.9,3.91,1.22,5.75,2.13,1.67.83,3.09,2.06,4.77,2.88,1.73.85,3.32,1.93,4.96,2.92,1.67,1.01,3.44,1.77,5.17,2.67,1.73.89,3.41,1.88,5.17,2.72,3.6,1.71,7.46,2.81,11.04,4.57,3.4,1.67,6.4,4.29,10.03,5.48,1.62.53,3.35.49,4.96,1.09,1.79.67,3.43,1.41,5.29,1.87,1.75.43,2.79,1.71,4.29,2.6,1.72,1.02,3.56,1.01,5.46,1.38.9.18,1.77.52,2.67.71.94.2,1.9.29,2.87.32,1.76.05,1.75-2.68,0-2.73-1.93-.06-3.62-.78-5.5-1.05-1.88-.27-3.48-.43-5.03-1.63-.66-.51-1.29-1.09-2.02-1.5-.83-.46-1.74-.68-2.65-.89-1.86-.43-3.5-1.38-5.31-1.95-1.59-.5-3.29-.43-4.85-1.06-1.74-.7-3.34-1.78-4.93-2.77-3.36-2.1-6.91-3.63-10.6-5.04-1.85-.71-3.69-1.41-5.46-2.32-1.73-.89-3.42-1.87-5.17-2.72-1.7-.82-3.34-1.66-4.94-2.66-1.69-1.05-3.43-1.96-5.17-2.92-1.61-.89-2.96-2.08-4.67-2.78-1.86-.76-3.78-1.19-5.57-2.12-1.73-.89-3.55-1.61-5.17-2.71-1.53-1.03-3.11-1.79-4.85-2.4-1.67-.58-3.41-1.03-5.01-1.79-1.54-.73-2.55-2.04-3.93-3.01-.69-.48-1.47-.6-2.19-.98-.71-.38-1.29-1.14-1.8-1.74-1.15-1.33-2.23-2.65-3.79-3.53-1.47-.82-2.76-1.33-3.84-2.67-1.08-1.33-2.16-2.41-3.65-3.3-1.56-.93-3.21-1.67-4.83-2.48-.81-.4-1.56-.92-2.38-1.29-.78-.35-1.42-.62-2.09-1.18-1.48-1.26-2.84-2.55-4.46-3.64-1.58-1.06-3.24-2.03-4.71-3.25-1.54-1.28-3-2.66-4.64-3.83-1.6-1.13-3.21-2.25-4.8-3.4-3.33-2.4-6.84-4.5-10.24-6.8-1.71-1.16-3.42-2.33-5.14-3.47-1.61-1.06-3.26-2.02-4.74-3.27-1.36-1.15-2.62-2.4-4-3.52-1.44-1.17-3.01-2.18-4.63-3.1-.82-.46-1.66-.89-2.53-1.24-.83-.33-1.74-.45-2.5-.93-.62-.39-1.13-.87-1.8-1.18-.97-.44-2-.79-3.02-1.12-1.8-.59-3.63-1.06-5.46-1.52-1.86-.46-3.53-1.21-5.2-2.13-1.48-.81-3.23-1.39-4.59-2.38-.68-.49-1.25-1.12-1.88-1.67-.74-.65-1.52-1.15-2.36-1.65-1.46-.87-2.55-2.24-4.04-3.1-1.52-.88-2.9,1.47-1.38,2.35h0Z"/>
    <path class="cls-5" d="m273.29,168.33c1.1.56,2.2,1.11,3.21,1.84,1.05.76,2.05,1.6,3.06,2.41,1.07.85,2.17,1.65,3.3,2.42,1.02.7,2.09,1.35,2.97,2.24.83.83,1.59,1.7,2.5,2.45.97.79,1.97,1.53,2.91,2.36.87.76,1.66,1.56,2.27,2.55.68,1.1,1.3,2.18,2.1,3.2,1.43,1.84,3.05,3.54,4.39,5.46.69.99,1.29,2.02,1.77,3.13.48,1.1.88,2.25,1.55,3.26,1.44,2.2,3.17,4.19,4.89,6.17,1.37,1.57,2.29,3.68,2.59,5.74.17,1.16.14,2.4.09,3.56-.05,1.14-.25,2.27-.85,3.25-1.04,1.7-3.34,2.37-5.21,2.35-1.75-.01-1.76,2.71,0,2.73,2.15.02,4.46-.68,6.14-2.03,1.98-1.59,2.6-4.21,2.66-6.63.06-2.47-.17-4.82-1.14-7.12-.49-1.16-1.11-2.24-1.89-3.23-.82-1.05-1.77-1.97-2.59-3.02-.8-1.02-1.61-2.07-2.32-3.15-.73-1.11-1.14-2.38-1.69-3.59-1.08-2.35-2.75-4.36-4.41-6.33-.78-.93-1.59-1.85-2.3-2.84-.75-1.05-1.29-2.23-2.07-3.26-1.6-2.12-3.92-3.44-5.83-5.24-1.08-1.02-1.99-2.14-3.21-3.01-1.31-.94-2.67-1.8-3.95-2.77-1.27-.95-2.47-1.98-3.73-2.94-1.2-.92-2.48-1.62-3.83-2.3-1.56-.79-2.94,1.56-1.38,2.35h0Z"/>
    <path class="cls-5" d="m257.57,132.06c1.78.48,3.03-.95,3.85-2.33.36-.6.67-1.24,1.04-1.84.07-.12.15-.23.23-.34.09-.13-.05.07-.06.08.08-.08.15-.16.23-.24.42-.42.86-.82,1.3-1.22,1.83-1.67,3.3-3.53,4.74-5.54.69-.96,1.24-1.9,1.76-2.96.49-1.01,1.14-1.8,1.88-2.63.79-.89,1.59-1.78,2.26-2.77.63-.92,1.18-1.87,1.9-2.72,1.47-1.75,3.11-3.32,4.51-5.13,1.42-1.83,2.65-3.8,4.07-5.63,1.4-1.8,3.08-3.36,4.47-5.18,1.4-1.82,2.38-3.82,3.54-5.77,1.18-1.99,2.64-3.59,4.23-5.24.82-.85,1.57-1.76,2.27-2.7.34-.45.67-.92,1-1.38.26-.38.51-.91.85-1.22.35-.32.87-.2,1.27-.42.49-.27.95-.72,1.3-1.14.66-.79,1.15-1.77,1.96-2.42.88-.7,1.85-1.26,2.72-1.97.9-.74,1.75-1.53,2.6-2.33,1.78-1.68,3.6-3.26,5.49-4.81,3.74-3.07,7.51-6.09,10.65-9.78.76-.9,1.48-1.83,2.3-2.67.79-.82,1.64-1.57,2.47-2.35.86-.81,1.67-1.68,2.58-2.43.88-.72,1.84-1.34,2.79-1.97,2.03-1.34,3.96-2.82,5.95-4.24,2.1-1.5,4.22-2.97,6.32-4.46,1.02-.73,2.04-1.47,3.04-2.22-.67-.51-1.34-1.03-2-1.54-.02.12-.04.25-.06.37-.12.73.19,1.47.95,1.68.65.18,1.56-.22,1.68-.95.02-.12.04-.25.06-.37.09-.55-.01-1.08-.49-1.43-.4-.3-1.08-.43-1.51-.11-3.7,2.77-7.56,5.33-11.28,8.07-1.74,1.28-3.52,2.48-5.3,3.7-1.78,1.22-3.26,2.67-4.83,4.14-1.56,1.46-2.99,2.95-4.37,4.59-1.33,1.59-2.76,3.09-4.29,4.5-3.32,3.05-7.02,5.66-10.32,8.72-1.7,1.57-3.33,3.29-5.21,4.65-.92.66-1.89,1.19-2.62,2.08-.64.78-1.13,1.77-1.97,2.36.23-.06.46-.12.69-.19-1.41.11-2.38.73-3.16,1.9-.7,1.04-1.42,2.07-2.22,3.04-1.6,1.93-3.47,3.57-4.91,5.65-1.39,2-2.34,4.25-3.74,6.25-1.39,1.99-3.19,3.62-4.69,5.52-1.56,1.97-2.9,4.1-4.43,6.09-1.49,1.93-3.31,3.57-4.81,5.48-.81,1.03-1.42,2.19-2.22,3.22-.73.94-1.57,1.78-2.33,2.69-.85,1.02-1.35,2.11-1.95,3.27-.58,1.12-1.41,2.12-2.15,3.13-.83,1.13-1.73,2.16-2.76,3.11-.9.83-1.92,1.61-2.6,2.63-.48.71-.83,1.51-1.28,2.24-.25.4-.3.47-.6.79-.03.03-.23.19-.1.09.14-.1-.12.06-.15.08.28-.11.07-.04.02-.04.09,0,.45.03.18-.04-1.7-.45-2.42,2.18-.72,2.63h0Z"/>
    <path class="cls-5" d="m209.31,88.17c0-1.53.83-2.89,1.25-4.33.47-1.61.82-3.26,1.47-4.82,1.2-2.87,3.32-5.22,5.38-7.5,1.03-1.14,2.06-2.22,3.19-3.27,1.25-1.16,2.06-2.53,2.87-4.01.37-.68.76-1.35,1.11-2.04.37-.76.7-1.58,1.22-2.26.39-.51.92-.91,1.37-1.37.53-.55.95-1.19,1.43-1.78,1.75-2.13,3.83-3.86,6.23-5.2,1.2-.67,2.47-1.34,3.77-1.79,1.11-.39,1.86-.23,3.09.18,1.17.4,2.48.82,3.43,1.65,1.01.89,1.38,2.29,1.51,3.59.07.74.08,1.49.08,2.23,0,.81.07,1.66-.05,2.46-.2,1.39-.76,2.74-1.42,3.97-.44.83-.92,1.63-1.31,2.48-.38.82-.61,1.66-.88,2.52-.51,1.68-1.75,2.89-2.54,4.43-.86,1.68-1.57,3.45-2.31,5.19-.31.74-.5,1.53-.79,2.28-.38.98-.68,1.73-.54,2.81.1.73,1.04,1.13,1.68.95.79-.22,1.05-.94.95-1.68-.02-.15.2-.56.26-.71.15-.36.31-.72.43-1.09.25-.75.49-1.49.82-2.22.71-1.6,1.3-3.26,2.18-4.78.38-.66.86-1.24,1.29-1.87.5-.73.86-1.53,1.13-2.38.25-.77.42-1.57.78-2.31.37-.77.8-1.51,1.21-2.26.77-1.44,1.41-2.98,1.69-4.6.28-1.64.23-3.45.1-5.11-.12-1.59-.43-3.27-1.32-4.63-.93-1.41-2.33-2.25-3.86-2.88-1.34-.55-2.77-1.12-4.23-1.19-1.39-.06-2.67.53-3.9,1.1-2.77,1.27-5.39,2.84-7.59,4.97-1.07,1.03-1.95,2.19-2.88,3.34-.5.62-1.16,1.1-1.68,1.71-.58.68-1,1.45-1.39,2.25-.75,1.52-1.53,3.07-2.43,4.51-.85,1.33-2.2,2.22-3.25,3.38-2.49,2.75-5.2,5.51-6.85,8.88-.89,1.81-1.39,3.75-1.92,5.68-.52,1.86-1.48,3.56-1.48,5.54,0,1.75,2.73,1.76,2.73,0h0Z"/>
    <path class="cls-5" d="m281.25,301.68c-.02,2.93-.41,5.94.05,8.86.33,2.12,1.61,3.45,3.77,3.62,2.18.18,4.65.47,6.77-.18,1.23-.37,2.35-1.1,3.47-1.72,1.3-.71,2.64-1.19,3.98-1.8,2.46-1.11,4.86-2.91,6.58-5,.76-.92,1.44-1.91,2.14-2.87.87-1.18,1.88-2.21,2.86-3.29,1.9-2.09,3.69-4.29,5.71-6.26,1.94-1.88,4.26-3.23,6.28-5.01.85-.74,1.88-1.27,2.68-2.06.94-.94,1.58-2.23,2.22-3.38,1.25-2.24,2.37-4.57,3.85-6.67.72-1.02,1.64-1.89,2.33-2.93.76-1.14,1.31-2.25,2.28-3.25.86-.88,1.58-1.84,2.28-2.84.87-1.25,1.82-2.36,2.79-3.53,1.66-2,2.22-4.58,4.11-6.46.89-.88,1.55-1.74,1.98-2.93.43-1.2.82-2.12,1.53-3.18.65-.97.92-1.96,1.26-3.06.4-1.32.98-2.58,1.64-3.79,1.29-2.38,2.85-4.59,4.3-6.87.66-1.04,1.35-2.08,1.8-3.22.46-1.16.52-2.38.87-3.56.8-2.71,2.66-5.4,4.27-7.69,1.59-2.26,3.65-4.15,5.14-6.47.69-1.07,1.25-2.24,2.06-3.24.88-1.08,1.82-2.05,2.6-3.21,1.54-2.29,2.88-4.68,4.5-6.92,1.72-2.37,3.52-4.67,5.23-7.05,1.64-2.27,2.99-4.7,4.56-7.01,1.49-2.2,3.36-4.15,4.95-6.28,1.86-2.49,3.7-4.98,5.42-7.58,1.39-2.1,3.31-3.86,4.42-6.14.53-1.08.77-2.26,1.24-3.36.55-1.29,1.11-2.58,1.66-3.87.53-1.26,1.42-2.17,2.3-3.19.93-1.08,1.73-2.26,2.49-3.46.71-1.11,1.3-2.29,2.05-3.38.85-1.23,1.79-2.39,2.62-3.63.71-1.06,1.29-2.16,1.77-3.35.59-1.43,1.37-2.66,2.14-3.99.64-1.11,1.07-2.26,1.44-3.49.37-1.23.92-2.17,1.6-3.26,1.48-2.39,2.47-5.04,3.94-7.45,2.9-4.73,5.29-9.92,7.26-15.11,1.04-2.74,1.97-5.57,2.77-8.39.81-2.85,1.24-5.77,1.98-8.64.73-2.87.85-5.88,1.43-8.78.58-2.89,1.08-5.81,1.9-8.65.85-2.96,1.99-5.83,2.92-8.77.4-1.27.97-2.42,1.46-3.65.51-1.26.63-2.62,1.11-3.88.97-2.59,2.95-5.04,4.77-7.08,1.16-1.31-.76-3.24-1.93-1.93-1.84,2.06-3.51,4.33-4.8,6.78-.56,1.07-.89,2.18-1.17,3.36-.33,1.4-.94,2.59-1.48,3.91-1.08,2.65-1.85,5.48-2.77,8.2-.92,2.73-1.57,5.51-2.12,8.33-.57,2.89-1.09,5.74-1.44,8.66-.17,1.43-.51,2.78-.89,4.17-.38,1.4-.54,2.83-.84,4.24-1.18,5.59-3.25,11.1-5.64,16.27-1.16,2.52-2.16,5.12-3.58,7.51-1.41,2.36-2.73,4.67-3.93,7.14-1.08,2.22-2.51,4.11-3.22,6.49-.37,1.25-.9,2.31-1.58,3.42-.79,1.28-1.38,2.56-1.98,3.93-1.07,2.45-2.88,4.43-4.35,6.64-1.56,2.35-2.84,4.72-4.71,6.86-1.73,1.99-2.57,4.44-3.62,6.83-.48,1.11-.72,2.31-1.25,3.39-.59,1.18-1.42,2.19-2.25,3.2-1.74,2.13-3.18,4.46-4.8,6.68-1.66,2.29-3.34,4.55-5.15,6.72-1.73,2.07-3.08,4.25-4.53,6.51-1.49,2.33-3.13,4.55-4.79,6.76-1.69,2.25-3.44,4.48-4.97,6.85-1.46,2.26-2.74,4.47-4.51,6.51-1.75,2.01-2.84,4.46-4.61,6.48-1.81,2.07-3.46,4.22-4.88,6.58-1.38,2.29-2.69,4.63-3.17,7.27-.46,2.5-2.03,4.52-3.4,6.61-1.4,2.13-2.81,4.28-3.87,6.61-.52,1.15-.91,2.31-1.27,3.51-.33,1.13-1.08,1.88-1.63,2.9-.56,1.03-.65,2.3-1.29,3.28-.7,1.06-1.8,1.83-2.53,2.9-.69,1.01-1.22,2.1-1.73,3.21-.6,1.29-1.59,2.18-2.46,3.28-.79,1-1.45,2.09-2.23,3.11-.79,1.04-1.83,1.87-2.58,2.95-.66.96-1.12,2.01-1.87,2.91-.83.99-1.64,1.98-2.34,3.07-1.39,2.16-2.49,4.5-3.79,6.71-.62,1.07-1.19,1.92-2.21,2.63-1.03.72-1.92,1.58-2.9,2.37-1.02.82-2.18,1.46-3.2,2.29-1.01.81-1.94,1.7-2.84,2.63-1.99,2.07-3.81,4.31-5.78,6.4-1.78,1.89-3.05,4.2-4.86,6.06-2.04,2.09-4.44,3.2-7.05,4.35-2.36,1.04-4.3,2.71-6.97,2.76-1.11.02-2.21-.07-3.31-.14-1.09-.06-1.56-.14-1.77-1.3-.5-2.75-.02-5.72,0-8.49.01-1.75-2.72-1.76-2.73,0h0Z"/>
    <path class="cls-5" d="m449.85,53.74c1.75,0,1.76-2.73,0-2.73s-1.76,2.73,0,2.73h0Z"/>
    <path class="cls-5" d="m260.58,320.52c-.05-.45-.11-.89-.22-1.33-.83.35-1.66.7-2.49,1.05.43.69.35,1.57.58,2.33.29.95.84,1.78,1.3,2.65.87,1.65,1.42,3.45,2.07,5.19.34.9.66,1.77.88,2.7.21.88.54,1.78.59,2.69.05.96.11,1.85.54,2.74.35.72.82,1.26.88,2.08.07.94.27,1.76.79,2.56.24.38.53.72.76,1.12.29.5.49,1.06.72,1.59.8,1.81,1.5,3.64,2.21,5.48.7,1.8,1.63,3.51,2.33,5.31.71,1.84.72,3.73,1.12,5.63.39,1.84.88,3.66,1.48,5.45.63,1.88,1.42,3.67,2.17,5.5.71,1.73,1.17,3.56,1.74,5.34.64,2,1.38,3.97,1.99,5.98.26.85.47,1.71.58,2.6.13,1.01.14,2.04.33,3.04.35,1.84,1.3,3.53,1.78,5.34.22.82.54,1.63.65,2.48.12.87.17,1.72.47,2.55.31.86.78,1.64,1.15,2.47.41.93.74,1.89,1.09,2.84.39,1.06.87,2.1,1.2,3.18.31,1.01.51,2.03.91,3.01.33.81.88,1.55,1.03,2.42.2,1.1.17,2.25.29,3.36.22,2.09.59,4.21,1.03,6.27.44,2.07,1.29,4.01,1.61,6.12.21,1.37,2.32,1.23,2.63,0,.03-.11.05-.21.08-.32.42-1.7-2.2-2.43-2.63-.72-.03.11-.05.21-.08.32h2.63c-.28-1.88-1-3.6-1.45-5.44-.44-1.78-.66-3.62-.97-5.42-.32-1.89-.05-4-.78-5.79-.3-.74-.74-1.42-1-2.18-.34-1-.51-2.06-.9-3.05-.71-1.83-1.35-3.69-2.12-5.5-.33-.77-.78-1.5-1.07-2.28-.33-.87-.32-1.77-.48-2.67-.32-1.79-.96-3.57-1.63-5.25-.33-.83-.67-1.68-.81-2.56-.16-1.01-.17-2.05-.32-3.07-.29-1.96-.99-3.84-1.63-5.7-.66-1.91-1.24-3.85-1.85-5.78-.57-1.81-1.36-3.51-2.05-5.27-.72-1.82-1.33-3.68-1.83-5.57-.23-.88-.44-1.76-.62-2.65-.2-.96-.25-1.94-.39-2.92-.29-1.98-1.22-3.82-2.05-5.62-.82-1.78-1.44-3.62-2.2-5.42-.77-1.84-1.47-3.74-2.59-5.39-.25-.37-.47-.69-.52-1.14-.06-.49-.05-1-.18-1.48-.23-.89-.94-1.58-1.16-2.45-.13-.52-.07-1.07-.13-1.6-.06-.61-.23-1.18-.38-1.77-.25-.98-.43-1.98-.79-2.93-.78-2.03-1.44-4.12-2.37-6.09-.42-.89-1.07-1.73-1.36-2.67-.32-1.02-.26-2.04-.86-2.98-.82-1.31-2.86-.47-2.49,1.05.05.2.1.4.12.61.09.73.57,1.36,1.36,1.36.67,0,1.45-.63,1.36-1.36h0Z"/>
    <path class="cls-5" d="m342.75,259.45c1.18,1.28,1.99,2.91,2.72,4.47.82,1.73,1.26,3.65,2.3,5.26,1.11,1.71,2.54,3.19,3.61,4.93,1.1,1.79,1.89,3.77,2.77,5.67,1.74,3.77,4.35,7.09,5.96,10.92.75,1.79,1.9,3.32,2.76,5.04.42.84.61,1.75.85,2.65.27,1.04.56,2.07.89,3.09.66,2.07,1.49,4.09,2.56,5.98,1,1.76,2.19,3.39,3.4,5.01,1.23,1.64,2.49,3.27,3.62,4.98,1.19,1.81,2.23,3.72,3.37,5.56.59.94,1.24,1.85,1.8,2.82.49.86.84,1.78,1.15,2.72.64,1.93,1.18,3.92,2.31,5.62.53.79,1.13,1.53,1.67,2.32.58.85,1.05,1.77,1.61,2.64,1.14,1.77,2.45,3.42,3.75,5.08,2.76,3.51,5.48,7.05,8,10.73,1.15,1.68,2.29,3.33,3.82,4.69.71.63,1.48,1.25,2.02,2.04.54.79.91,1.68,1.48,2.45.27.36.57.65.91.94.23.19.43.32.5.54.47,1.69,3.1.97,2.63-.72-.26-.91-.86-1.41-1.53-2.02-.66-.6-.98-1.52-1.45-2.28-1.09-1.76-2.85-2.87-4.16-4.43-1.32-1.57-2.39-3.37-3.59-5.04-1.34-1.85-2.71-3.68-4.11-5.49-1.34-1.73-2.71-3.44-4.03-5.18-.64-.84-1.25-1.69-1.83-2.58-.54-.84-1-1.73-1.55-2.55-1.08-1.61-2.3-3.02-2.97-4.87-.71-1.97-1.2-4.03-2.23-5.87-.54-.97-1.2-1.87-1.79-2.81-.6-.96-1.18-1.94-1.76-2.91-1.08-1.81-2.19-3.57-3.44-5.27-2.44-3.31-5.1-6.52-6.66-10.37-.81-1.99-1.38-4.06-1.92-6.14-.51-1.96-1.45-3.56-2.49-5.27-1.05-1.73-1.71-3.65-2.71-5.41-1.02-1.79-2.16-3.51-3.16-5.31-1.04-1.89-1.85-3.89-2.78-5.84-.93-1.95-2.07-3.65-3.4-5.34-.61-.77-1.22-1.55-1.72-2.39-.52-.87-.8-1.83-1.16-2.77-.67-1.73-1.5-3.45-2.48-5.03-.48-.77-1.01-1.51-1.63-2.18-1.19-1.29-3.12.64-1.93,1.93h0Z"/>
    <path class="cls-5" d="m276.98,228.61c.3,1.06,1.08,1.41,1.86,2.05.81.66,1.44,1.54,2.1,2.34,1.32,1.59,2.81,3.02,4.08,4.66,1.22,1.57,2.38,3.3,3.09,5.17.35.92.57,1.84.68,2.81.13,1.2.44,2.18.96,3.26.09.18.16.36.21.56.02.06.03.12.04.18.07.29-.02-.22,0,0,.03.34.06.68.06,1.02,0,.2,0,.4-.02.6,0,.07-.01.15-.02.22-.03.25.07-.28-.02.13-.02.1-.06.4-.08.31-.02-.1-.09.07.02-.03.07-.06.55-.31.35-.26-.72.15-1.14,1-.95,1.68.21.75.95,1.1,1.68.95,1.76-.37,1.84-2.77,1.75-4.17-.06-.92-.26-1.72-.66-2.55-.48-.99-.56-1.91-.71-2.99-.63-4.52-3.95-8.48-6.94-11.72-.88-.95-1.7-1.93-2.54-2.91-.4-.47-.83-.93-1.31-1.32-.26-.21-.52-.39-.8-.57-.1-.06-.19-.17-.18-.12-.47-1.69-3.1-.97-2.63.72h0Z"/>
    <path class="cls-5" d="m192.16,249.31c2.08.29,3.38,2.35,5.38,2.93,1.87.54,4.1-.33,5.74-1.19.82-.44,1.62-.99,2.17-1.75.67-.92.96-2.07,1.07-3.18.22-2.29-.46-4.63-1.37-6.7-.45-1.03-.91-2.16-1.56-3.08-.92-1.31-2.18-2.36-3.31-3.48-1.24-1.24-3.17.69-1.93,1.93.88.88,1.81,1.72,2.64,2.64.62.69.94,1.59,1.34,2.42.77,1.57,1.39,3.27,1.48,5.03.04.82,0,1.67-.34,2.42-.29.65-.56.84-1.28,1.25-.69.4-1.42.7-2.19.91-.22.06-.43.11-.65.16-.18.04-.3.05-.32.05-.16.01-.32.01-.48.02-.06,0-.27-.03,0,.01-.09-.02-.19-.04-.28-.07-.92-.26-1.7-1-2.46-1.56-.87-.64-1.83-1.21-2.92-1.37-.73-.1-1.46.18-1.68.95-.18.64.22,1.58.95,1.68h0Z"/>
    <path class="cls-5" d="m208.51,291.88c1.01-1.81,2.48-3.31,4.5-3.93,1.81-.55,4.15-.52,5.79.17.87.37,1.52.9,2.15,1.6.36.39.65.82.95,1.25.15.22.31.44.46.66.15.23.19.19.16.42-.02.14-.22.52-.38.81-.24.45-.51.88-.73,1.34-.38.76-.65,1.58-.94,2.38-.33.92-.57,1.64-1.16,2.48-.02.03-.16.2-.03.05-.08.1-.17.2-.27.29-.06.06-.13.12-.19.17.15-.12,0,0-.08.04-.06.03-.3.13-.07.04-.1.04-.2.06-.31.08-.22.04.3.01-.1,0-.15,0-.29-.01-.44-.03-.73-.09-1.36.69-1.36,1.36,0,.81.63,1.27,1.36,1.36,2.56.32,4.01-1.92,4.86-3.99.19-.46.36-.93.53-1.4.08-.22.16-.45.24-.67.03-.09.06-.17.1-.25.03-.08.06-.16.1-.24-.05.11-.05.12-.02.04.46-1.03,1.16-1.95,1.5-3.03.48-1.54-.46-2.75-1.33-3.92-.79-1.08-1.7-2.05-2.85-2.76-2.22-1.38-5.13-1.56-7.65-1.1-3.13.56-5.62,2.7-7.14,5.42-.86,1.53,1.5,2.91,2.35,1.38h0Z"/>
    <path class="cls-5" d="m223.51,307.85c-.02.27,0,.02.06-.09-.08.16.09-.17.12-.21.2-.35.43-.69.67-1,.34-.43.74-.99,1.21-1.28.64-.39,1.57-.26,2.28-.36.91-.13,1.66-.6,2.46-1.03,1.31-.69,2.95.32,4.06,1.04,1.4.91,2.43,2.18,2.44,3.88,0,.4.05.87-.07,1.22-.1.29-.29.54-.46.8-.18.27-.37.56-.56.8-.13.16-.3.3-.42.47-.16.21.15-.02.04,0-1.72.36-.99,2.99.72,2.63.96-.2,1.63-1.19,2.16-1.92.57-.78,1.1-1.6,1.24-2.57.36-2.46-.38-4.76-2.21-6.47-.85-.8-1.84-1.45-2.9-1.95-1.04-.49-2.22-.96-3.4-.91-1.21.06-2.03.77-3.09,1.2-.95.39-2.05.13-3.03.5-1.08.41-1.85,1.27-2.55,2.16-.73.92-1.43,1.89-1.54,3.09-.07.73.67,1.36,1.36,1.36.79,0,1.3-.63,1.36-1.36h0Z"/>
    <path class="cls-5" d="m254.98,312.17c-.02.18.05-.22.08-.28.01-.03.05-.12.14-.27.12-.2.44-.54.72-.77.56-.46,1.33-.87,2.03-1.19,1.43-.67,3.32-1.44,5.02-1.56,1-.07,1.94.1,2.88.43.45.16.88.35,1.31.56.18.09.37.18.54.28.06.04.12.07.17.11.13.08-.09-.1.08.06.06.06.12.12.17.18-.02-.02-.11-.15-.03-.02.13.22.05.04.11.25.14.43.18.88.19,1.33.03.91-.09,1.74-.6,2.51.18-.27-.03.04-.11.14-.13.16-.27.31-.4.46-.3.33-.61.65-.93.97-.29.29-.59.57-.91.82.14-.11-.23.15-.29.18-.04.03-.1.04-.14.07.1-.1.15-.07.32-.08-1.74.1-1.76,2.83,0,2.73.99-.06,1.78-.73,2.48-1.37.67-.6,1.3-1.26,1.87-1.96,1.55-1.89,1.96-4.89.91-7.14-.45-.95-1.29-1.52-2.22-1.96-1.3-.61-2.61-1.1-4.04-1.26-2.47-.27-4.94.68-7.18,1.63-2.24.96-4.7,2.46-4.92,5.13-.06.73.67,1.36,1.36,1.36.79,0,1.3-.63,1.36-1.36h0Z"/>
    <path class="cls-5" d="m284.34,310.32c-.01.14-.02.27-.03.41-.1,1.32,1.98,1.9,2.54.69.43-.93.81-1.88,1.17-2.83.22-.58.43-1.27.83-1.54.5-.35,1.08-.44,1.72-.62.78-.22,1.53-.52,2.26-.88.51-.25,1.1-.6,1.57-.64.64-.05,1.3.29,1.81.65.98.69,1.2,1.69,1.09,2.92-.06.73.67,1.36,1.36,1.36.79,0,1.3-.63,1.36-1.36.16-1.83-.44-3.68-1.9-4.86-.77-.62-1.68-1.13-2.65-1.33-1.08-.23-2.07-.01-3.05.43-.81.36-1.56.78-2.42,1.03-.79.23-1.61.42-2.34.82-1.97,1.08-2.31,3.6-3.17,5.47.85.23,1.69.46,2.54.69.01-.14.02-.27.03-.41.06-.73-.67-1.36-1.36-1.36-.79,0-1.31.63-1.36,1.36h0Z"/>
    <path class="cls-5" d="m289.66,246.68c-.99.16-1.89.61-2.77,1.07-.68.36-1.37.78-2.15.82-.68.04-1.4-.17-2.05-.31-.34-.07-.67-.17-1.01-.25-.36-.09-.09,0,.09.11-.07-.04-.11-.18-.01.02-.04-.07-.1-.14-.14-.22-.71-1.31-.87-3.17-1.76-4.56-.54-.84-1.42-1.88-1.49-2.92-.05-.7.74-1.17,1.19-1.65.66-.7,1.17-1.75,2.03-2.23.97-.54,2.43-.18,3.49-.17,1.76.02,1.76-2.71,0-2.73-1.36-.02-2.82-.27-4.13.2-1.19.43-1.96,1.32-2.72,2.28-.69.87-1.67,1.57-2.2,2.56-.72,1.36-.31,2.85.34,4.15.29.59.66,1.14,1.01,1.69.14.21.28.42.4.64,0-.01.16.33.09.17-.06-.13.07.2.08.23.33.94.54,1.92.92,2.85.4.98.91,1.79,1.96,2.15.79.27,1.63.4,2.45.55,1.38.25,2.59.09,3.87-.48,1.08-.49,2.03-1.17,3.23-1.36.73-.12,1.13-1.02.95-1.68-.21-.78-.95-1.07-1.68-.95h0Z"/>
    <path class="cls-5" d="m302.98,229.35c-.83,0-1.49.27-2.25.52-.8.26-1.65.1-2.48.09-.35,0-.7.01-1.05.01-.06,0-.13,0-.19,0,.02,0,.22.05.07.01-.11-.03-.37-.13-.14-.02-.08-.04-.26-.2-.11-.06-.13-.11-.25-.24-.35-.38-.24-.3-.44-.64-.61-.99-.36-.72-.53-1.53-.74-2.31-.2-.74-.46-1.45-.73-2.17-.25-.66-.56-1.45-.65-2.09-.02-.14,0-.59,0-.62.04-.25.11-.42.34-.63.49-.44,1.2-.47,1.87-.48.9,0,1.8.1,2.7.11,1.76.02,1.76-2.71,0-2.73-1.9-.02-4.01-.45-5.74.59-1.87,1.12-2.18,3.24-1.62,5.19.24.84.6,1.63.88,2.45.33.96.52,1.96.86,2.91.64,1.78,1.8,3.72,3.85,3.92.42.04.84.01,1.25,0,.6,0,1.2.07,1.8.05.62-.02,1.22-.12,1.8-.34.45-.17.79-.31,1.23-.32,1.75-.01,1.76-2.74,0-2.73h0Z"/>
    <path class="cls-5" d="m310.39,210.84c-1.25,0-2.45-.09-3.67.29-.81.25-1.52.33-2.37.34-.77.02-1.07-.21-1.39-1-.33-.82-.5-1.74-.73-2.59-.27-1-.25-1.98-.34-3-.1-1.07-.69-2.11-.65-3.18.01-.4-.04.04.03-.3.05-.16.05-.19,0-.07.08-.14.09-.15.01-.05.12-.08.31-.17.6-.26.75-.24,1.56-.51,2.35-.41.73.09,1.36-.69,1.36-1.36,0-.81-.63-1.27-1.36-1.36-.82-.1-1.7.12-2.49.34-.82.23-1.72.48-2.34,1.09-1.53,1.5-.64,3.63-.27,5.39.21.98.12,2.03.29,3.02.16.92.44,1.84.7,2.74.55,1.94,1.69,3.67,3.89,3.74.99.03,2.05,0,2.99-.29.47-.14.93-.32,1.42-.36.66-.05,1.33.01,1.99.01,1.75,0,1.76-2.72,0-2.73h0Z"/>
    <path class="cls-5" d="m301.13,162.71c-.81-.02-1.68-.01-2.4.42-.75.46-1.19,1.25-1.51,2.03-.7,1.73-.83,3.55,0,5.25.78,1.61,2.11,2.96,3.28,4.29,1.27,1.44,2.91,2.7,4.95,2.45.73-.09,1.36-.56,1.36-1.36,0-.67-.63-1.46-1.36-1.36-1.3.16-2.07-.58-2.96-1.58-.9-1.02-1.87-2.04-2.58-3.2-.13-.22-.34-.59-.4-.74-.06-.15-.1-.3-.14-.45-.1-.4-.02.18-.03-.22-.02-.62.1-1.17.3-1.78.05-.15.09-.3.15-.44-.08.2.08-.16.1-.19.07-.12.14-.25.22-.37-.16.22.04-.05.09-.07-.14.11-.15.12-.02.04-.16.06-.19.07-.09.04.05-.02.1-.03.15-.04-.16.02-.18.02-.08,0,.31-.03.63-.02.95-.01,1.76.03,1.76-2.69,0-2.73h0Z"/>
    <path class="cls-5" d="m202.03,65.87c-.99.24-1.76.91-2.08,1.89-.23.71-.17,1.47-.16,2.21.03,1.36-.03,3.02,1.39,3.74.68.35,1.47.39,2.22.4,1.01,0,1.98.21,2.97-.14.95-.33,1.65-.91,2.25-1.7.47-.62.85-1.25,1.3-1.81,1.43-1.75,2.6-3.6,3.52-5.67.3-.67.2-1.46-.49-1.87-.58-.34-1.57-.19-1.87.49-.63,1.42-1.35,2.78-2.26,4.04-.47.66-1.01,1.26-1.5,1.91-.2.26-.38.53-.56.8-.08.12-.15.23-.23.35-.04.06-.08.11-.12.17-.24.34.08-.09-.07.09-.08.1-.17.19-.26.28-.05.05-.09.09-.14.13.05-.04.18-.11-.04.02-.23.14-.33.2-.64.25-.32.05-.75-.02-1.11-.05-.37-.03-.73-.02-1.1-.03-.12,0-.24-.02-.37-.02-.26-.01.2.06-.1-.02-.05-.01-.34-.09-.12-.02.18.06.06.03.02,0-.2-.12.19.18.07.07-.19-.17.08.12.03.05-.13-.19,0,.09.01.04,0-.09-.05-.22-.07-.31.06.29,0,0,0-.13-.04-.65-.04-1.31-.03-1.96,0-.06,0-.13,0-.19,0-.04.04-.37.01-.18-.02.13.06-.21.08-.27-.02.04-.1.17-.01.08.11-.12-.15.13-.14.12.02-.02.18-.08.06-.05-.13.03.26-.07.25-.07,1.7-.42.98-3.05-.72-2.63h0Z"/>
    <path class="cls-5" d="m236.82,49.29c-.02.84-.33,1.45-.75,2.16-.55.92-.99,1.87-1.31,2.89-.34,1.08-.57,2.21-1,3.26-.42,1.01-.78,1.96-.63,3.08.44,3.19,3.9,4.61,6.73,4.87,1.53.14,3.23-.06,4.56-.88,1.49-.92.12-3.28-1.38-2.35-.1.06-.2.11-.3.17-.22.12.13-.03-.12.05-.26.09-.53.17-.8.23-.07.01-.37.06-.29.05.08-.01-.23.02-.3.02-.31.02-.62.02-.94.01-1.03-.04-2.19-.33-3.09-.84-.47-.27-.77-.5-1.03-.84-.24-.31-.38-.71-.38-1,.01-.88.57-1.71.84-2.53.32-.96.53-1.95.86-2.91.3-.88.8-1.63,1.24-2.44.52-.94.78-1.91.8-2.99.03-1.76-2.69-1.76-2.73,0h0Z"/>
    <path class="cls-5" d="m267.55,58.47c-3.69-.7-5.67,3.45-6.96,6.19-.75,1.59-1.48,3.11-1.71,4.88-.26,1.99.19,4.13,2.31,4.79.84.26,1.76.26,2.64.28.2,0,.4,0,.61.02.06,0,.13,0,.19.01.38.02-.25-.07.1,0,.05.01.11.03.15.03.24.02.07.09-.01-.02.12.17-.05-.04-.07-.07-.05-.06-.22-.48-.16-.25.43,1.7,3.06.98,2.63-.72-.4-1.57-2.1-1.71-3.44-1.74-.33,0-.66,0-1-.03-.43-.02-.32,0-.73-.1-.08-.02-.17-.05-.25-.07.02,0,.18.09.04.02-.08-.04-.35-.26-.16-.09-.15-.13,0,.08-.07-.11,0-.01-.1-.33-.12-.46-.2-1.4.4-2.93,1-4.15.6-1.23,1.15-2.49,1.87-3.66.43-.7.77-1.19,1.4-1.73.14-.12,0-.04.27-.19.07-.04.37-.19.29-.16-.14.05.42-.08.25-.06-.16.02.51.07.21,0,.72.14,1.47-.2,1.68-.95.18-.67-.23-1.54-.95-1.68h0Z"/>
    <path class="cls-5" d="m286.58,73.28c-1.51.58-2.78,2.14-3.43,3.58-.78,1.72-1.46,3.57-2.01,5.38-.42,1.4-.69,2.88-.76,4.34-.07,1.57.23,3.53,1.96,4.08.83.26,1.65-.09,2.44.07.44.09.85.34,1.27.49.63.22,1.22.22,1.87.12.73-.11,1.13-1.03.95-1.68-.21-.78-.95-1.06-1.68-.95-.23.04-.59-.19-.81-.28-.53-.22-1.02-.4-1.6-.44-.4-.02-.8.05-1.2.08-.07,0-.35.05-.29.03-.17-.03-.21-.04-.12-.04.12.13.14.13.05,0-.02-.03-.03-.06-.05-.1.06.15.07.15.02,0-.01-.06-.09-.43-.08-.34-.02-.12-.03-.62-.02-.89.02-.77.12-1.44.28-2.19.33-1.61.93-3.14,1.49-4.68.32-.87.62-1.79,1.14-2.57.18-.27.42-.55.67-.81.13-.14.27-.28.41-.41,0,0,.41-.26.21-.18.69-.26,1.16-.92.95-1.68-.18-.66-.99-1.22-1.68-.95h0Z"/>
    <path class="cls-5" d="m269.79,280.08c-.11-.93.73-1.37,1.32-1.99.85-.89,1.36-2.09,2.25-2.94.42-.4.94-.69,1.4-1.06.42-.33.77-.72,1.11-1.13.83-.99,1.69-1.92,2.6-2.85.92-.94,1.83-1.89,2.69-2.89.71-.82,1.31-1.74,2.07-2.51,1.37-1.41,3.28-2.62,3.79-4.64.43-1.7-2.2-2.43-2.63-.72-.18.69-.87,1.36-1.46,1.91-.69.66-1.45,1.26-2.06,2-1.67,2.03-3.36,3.96-5.22,5.81-.88.88-1.57,1.96-2.48,2.81-.43.39-.94.69-1.4,1.06-.51.41-.9.92-1.29,1.45-.33.47-.62.96-.98,1.41-.35.44-.8.8-1.19,1.2-.82.84-1.4,1.87-1.25,3.08.09.73.56,1.36,1.36,1.36.67,0,1.45-.63,1.36-1.36h0Z"/>
    <path class="cls-5" d="m248.76,264.29c.02.1.02-.03.08-.11.12-.15.39-.38.58-.54.5-.44.92-.9,1.31-1.45.92-1.33,1.47-2.86,2.49-4.13,1.03-1.28,2.2-2.43,3.1-3.8.79-1.21,1.45-2.52,2.59-3.45.57-.46.48-1.45,0-1.93-.57-.57-1.35-.46-1.93,0-1.29,1.04-2.08,2.55-2.96,3.91-.98,1.51-2.31,2.74-3.38,4.18-.97,1.32-1.46,3.09-2.61,4.26-.48.49-1.03.88-1.44,1.44-.51.7-.64,1.5-.45,2.35.37,1.71,3,.99,2.63-.72h0Z"/>
    <path class="cls-5" d="m291.2,286.94c1.2-1.58,1.95-3.44,3.15-5,.56-.73,1.17-1.41,1.71-2.14.58-.79.99-1.66,1.46-2.51.98-1.8,2.1-3.58,2.35-5.66.05-.37.09-.84.24-1.09.04-.07.31-.36.47-.54.65-.79.81-1.62.62-2.62-.14-.72-1.01-1.14-1.68-.95-.76.21-1.09.95-.95,1.68,0,.03-.06.12,0,.07-.25.24-.48.53-.68.81-.55.77-.59,1.63-.73,2.53-.27,1.81-1.5,3.43-2.33,5.01-.82,1.58-1.96,2.82-2.99,4.24-1.11,1.53-1.86,3.28-3,4.8-.44.59-.09,1.52.49,1.87.7.41,1.42.1,1.87-.49h0Z"/>
    <path class="cls-5" d="m262.25,189.24c.14,0,.03.03-.06-.06-.08-.08-.17-.17-.26-.25-.28-.27-.53-.53-.84-.76-.29-.21-.61-.35-.87-.59-.27-.26-.49-.58-.73-.87-1.12-1.4-2.77-1.98-4.18-3.02-1.34-1-2.94-1.58-4.24-2.64-1.37-1.12-2.65-2.31-4.33-2.94-1.43-.54-2.46,1.85-1.05,2.49,2.74,1.25,4.77,3.55,7.28,5.15,2.64,1.69,5.48,2.92,7.7,5.2,1.23,1.26,3.15-.67,1.93-1.93-2.33-2.39-5.27-3.78-8.07-5.51-2.6-1.6-4.65-3.98-7.46-5.27-.35.83-.7,1.66-1.05,2.49,1.52.57,2.68,1.95,3.97,2.9.7.51,1.46.91,2.22,1.32.81.44,1.53.98,2.3,1.49.7.46,1.5.79,2.18,1.28.62.45,1.01,1.15,1.52,1.7.53.57,1.24.89,1.79,1.44.63.62,1.33,1.1,2.24,1.1,1.75,0,1.76-2.72,0-2.73h0Z"/>
    <path class="cls-5" d="m243.12,202.2c-.32,0,0,0,0,.01,0,0-.21-.06-.23-.06-.16-.04-.15-.05,0,.02-.09-.04-.19-.09-.28-.14-.16-.09-.31-.18-.46-.29-.03-.02-.28-.2-.14-.1.14.11-.11-.09-.14-.11-.64-.53-1.22-1.14-1.8-1.73-1.37-1.4-2.98-2.45-4.7-3.35-.61-.32-1.33-.2-1.76.35-.4.52-.4,1.33.11,1.79.14.12.27.25.41.37.52.48,1.42.56,1.93,0,.48-.53.56-1.41,0-1.93-.14-.12-.27-.25-.41-.37-.55.71-1.1,1.43-1.65,2.14.92.48,1.84.99,2.68,1.6,0,0,.33.25.18.13.11.09.22.18.33.27.15.13.31.27.45.4.28.27.55.55.81.82,1.25,1.28,2.75,2.83,4.66,2.88.71.02,1.4-.64,1.36-1.36-.03-.76-.6-1.34-1.36-1.36h0Z"/>
    <path class="cls-5" d="m229.47,96.45c-.16.87-.8,1.63-1.13,2.55-.17.49-.27,1-.38,1.5-.06.26-.11.53-.19.78-.07.24-.12.36-.18.49-.02.04-.12.19-.03.07-.06.07-.12.14-.18.21-.14.15-.29.3-.44.44-.33.33-.65.68-.88,1.08-.28.47-.41.97-.41,1.52,0,.15,0,.3,0,.44.01.23.06-.15.12-.25.04-.14.13-.22.26-.27.2-.1.2-.12,0-.05.58.44,1.15.88,1.73,1.31.01-.29,0-.05-.04.03.09-.16.06-.08-.04,0-.67-.27-1.34-.54-2-.81-.03-.14-.06.18-.01.03.05-.14-.06.12-.09.16-.08.11-.23.23-.33.29.62.16,1.24.33,1.87.49.16.34.03.09.02,0-.04-.25-.03.21,0,.04.03-.17,0-.39.02-.57-.02.2-.02.11.01-.03.02-.1.04-.2.06-.29.05-.23.12-.45.19-.67.08-.23.16-.46.25-.68.08-.22-.01.02.04-.11.04-.1.09-.2.14-.3.19-.42.4-.84.62-1.25,1.02-1.89,2.45-3.52,2.44-5.79,0-1.75-2.73-1.76-2.73,0,0,.45-.11,1.02-.25,1.33-.24.51-.55.99-.86,1.46-.47.74-.91,1.49-1.3,2.28-.88,1.76-1.92,4.03-1.02,5.97.3.66,1.28.85,1.87.49,1.24-.76,2.01-2.09,1.68-3.56-.18-.8-1.31-1.33-2-.81-.8.59-1.23,1.31-1.27,2.32-.04.89.9,1.54,1.73,1.31.69-.19,1.27-.63,1.5-1.32.13-.4.11-.82.11-1.24,0-.08,0-.08-.01,0-.02.1-.02.09.01-.05-.09.1-.01.04.03-.05.15-.3-.09.07.12-.18.06-.07.13-.14.19-.2.37-.39.76-.74,1.08-1.19.68-.94.75-2.14,1.05-3.23.27-.98,1.06-1.88,1.26-2.98.13-.72-.2-1.47-.95-1.68-.66-.18-1.54.22-1.68.95h0Z"/>
    <path class="cls-5" d="m249.17,104.83c.02-.22-.07.16-.01.05-.08.15-.16.3-.26.43-.16.23-.35.43-.54.64-.49.53-1.01,1.04-1.42,1.64-.86,1.25-1.55,2.77-2.11,4.18-.4,1.01-.7,2.05-1.11,3.06-.12.3-.37.84-.62,1.24-.07.11-.13.22-.21.31.18-.23-.06.05-.08.07-.21.17.22-.07-.04.03-.26.1.27-.08,0,0-1.7.42-.98,3.05.72,2.63,1.21-.3,1.94-1.47,2.43-2.53.56-1.22.95-2.5,1.41-3.75.04-.11.09-.23.13-.34.04-.1.03-.07-.03.08.03-.06.05-.12.08-.18.19-.39.38-.78.57-1.17.36-.75.81-1.73,1.24-2.29,1.02-1.35,2.43-2.27,2.58-4.1.06-.73-.67-1.36-1.36-1.36-.79,0-1.3.63-1.36,1.36h0Z"/>
  </g>
</svg>