<?xml version="1.0" encoding="UTF-8"?>
<svg id="Capa_1" data-name="Capa 1" xmlns="http://www.w3.org/2000/svg" viewBox="0 0 718 718">
  <defs>
    <style>
      .cls-1 {
        fill: #fff;
      }

      .cls-2 {
        fill: #6843e1;
      }

      .cls-3, .cls-4 {
        fill: none;
        stroke: #1a2e35;
        stroke-linecap: round;
        stroke-linejoin: round;
      }

      .cls-4 {
        stroke-dasharray: 0 3;
      }
    </style>
  </defs>
  <g>
    <circle class="cls-2" cx="359" cy="359" r="334.29" transform="translate(-148.7 359) rotate(-45)"/>
    <g>
      <polygon class="cls-1" points="313.71 210.53 347.79 217.59 359.41 229.64 374.55 231.97 379.37 246.34 375.84 256.06 365.51 260.79 340.21 256.66 339.52 253.56 351.49 245.22 343.23 229.98 320.6 226.88 308.55 216.55 313.71 210.53"/>
      <path class="cls-1" d="m588.35,525.01l-27.02-4.57-32.61-4.14-24.01,5.33-23.49.34-23.58,10.93-13.77,3.87-8.52,1.89-14.2,12.91-14.11,9.64-23.84-8.52.61-22.89-14.37-2.5-15.49,3.44-3.87-6.46-1.55-14.29-7.14-6.54-10.5,3.96-1.38,8.43-13,3.7-14.71-11.36-8.77-17.56,6.8-24.27,22.8-3.44,7.4,4.05,9.29-2.06,10.07-9.55,10.76.86,19.27,20.91,5.25-1.98-5.5-17.47-6.71-8.26-1.72-15.06,25.9-18.76-2.49-29.52,10.16-12.82,6.11-20.05,7.4-3.27,15.23-15.57-.6-6.37-12.22,3.53-3.7-5.68-8.52,1.89-12.48,6.02,3.96-11.44,25.39-13.77,4.65-8.35,14.63,14.63,8.52,5.42,10.15-5.51-6.88-9.04-18.84-8.01-23.23-16.78-22.29-8.87-19.28,1.03-11.36-7.23-13.08-.35-.86,3.44,3.44,22.8,4.82,7.06-1.47,26.33-18.24-8.95-.08-11.36-17.98-4.13-8.86-6.97-.43-20.22,18.85-21.25-2.58-18.93-8.35,2.67-6.97-5.77-4.9-11.1-5.59.43-.35,13.08-8.18,3.44-9.89-26.25-7.06-2.5-11.87-2.24-11.02,8.95,18.76,11.28,6.02,12.48-32.53-14.72-24.01-16.61-6.19-20.57-21.51-1.72-13.25,13.51s-6.71,6.37-10.24,8.78c-3.53,2.41-17.9,7.23-17.9,7.23l-.17,13.85-17.64,4.73,3.44,8.18,29.69-1.72,18.33,13,6.02,27.11-3.19,25.9,7.23,25.21-13.26,42.77,7.91,57.57,14.19,30.98,15.57,22.55,11.96-1.03-6.62-11.53-8.26-7.92-7.66-16.18,6.63-3.1,17.03,25.47,13.25,23.06,4.47,20.14,18.67,14.55,30.63,13.52,42.68,1.9,14.97,8.87,12.04,10.33,15.83,5.42,18.07.86,16.87-4.56s.95,7.92,1.81,11.79c.86,3.87-7.06,19.45-7.06,19.45l-5.08,17.38,9.98,15.66,18.59,3.19,29.51,19.45,11.88,2.24,2.58,11.62,2.55,5.11c59.42-23.63,109.24-63.22,145.46-112.54l-.85-5.7,12.48-42.59-11.62-4.73-40.02,21.08Z"/>
      <path class="cls-1" d="m600.96,201.19l-11.79-12.82-14.63-14.63-8.26-22.55,14.46-.77-.94-7.92-10.24,1.46,7.66-5.76,8.09-7.49-1.72-7.75-12.05-10.33-5.69-16.23c-76.09-59.87-177.44-86.37-279.33-63.74-46.32,10.29-88.22,29.74-124.27,56l20.67,8.68-7.75,16.35-14.03,6.37,3.1,21.26-5.68,3.7-5.85,10.24,3.87,13.77,13.51-1.38-2.5,14.37,13.17-2.92,16.1-33.64-.43-12.91,21.34-6.36,3.36-10.5,21.94-7.31-.6-13.68,16.09-4.39s10.24-8.78,12.56-9.29c2.32-.52,14.03.95,14.03.95l13.68,6.71,16.27-3.61,12.05-11.62,18.16-2.41s5.34,2.07,9.21,1.21c3.87-.86,14.29-8.86,14.29-8.86l25.56,8.95,10.84,4.91,2.58,11.62,11.96-1.03,2.32-7.83,11.1,2.41.6,6.37-21.86,11.36,16.95,14.11,31.32,9.3,15.06,12.91,17.38-2.24,2.15-8.6,5.85-2.92-23.58-11.02-12.74,1.2,9.38-5.33-12.22-11.1,12.99-3.7,19.1,5.51,8,17.73,10.76,8.18,11.96,20.91,19.79,8.61,5.68,25.56,20.39,7.66,1.12,8.69-.09,10.58,7.74,12.91,3.1,6.63,13.68-.6,3.27-14.54,1.98-9.38Z"/>
      <path class="cls-1" d="m593.7,120.93l.99,4.45-1.12,13.25,4.73,10.33,9.21,1.21,3.27,14.72-10.15-1.81,6.96,42.34-5.51,19.1,11.01,20.31,12.13,7.06,9.29,41.82,17.29,30.29,16.35,22.38,18.85.69,2.76-16.87,2.09-2.54c-1.3-13.66-3.45-27.39-6.5-41.13-14.51-65.34-47.23-121.91-91.63-165.6Z"/>
      <polygon class="cls-1" points="413.72 155.81 357.61 144.71 335.32 150.47 333.17 166.39 321.64 158.38 305.46 166.04 309.59 191.94 325.76 198.92 332.56 181.96 346.76 191 375.41 206.58 385.05 228.01 410.86 249.1 442.19 236.45 438.83 225 428.94 213.39 420.51 182.75 425.33 167.86 413.72 155.81"/>
      <polygon class="cls-1" points="459.32 163.57 447.02 163.05 438.84 173.8 449.25 195.06 459.32 192.82 459.32 163.57"/>
      <polygon class="cls-1" points="534.62 162.29 505.19 154.19 497.71 146.1 492.02 149.8 500.89 164.09 510.01 183.19 522.66 185.26 524.29 181.65 514.74 171.58 536.6 174.85 534.62 162.29"/>
      <polygon class="cls-1" points="370.56 492.11 368.15 495.89 392.93 497.7 404.63 506.48 419.69 504.76 423.22 495.04 404.72 495.9 370.56 492.11"/>
      <polygon class="cls-1" points="442.75 491.51 427.52 499.77 431.22 505.45 451.36 500.98 453.85 493.92 447.06 496.25 442.75 491.51"/>
      <polygon class="cls-3" points="313.71 210.53 347.79 217.59 359.41 229.64 374.55 231.97 379.37 246.34 375.84 256.06 365.51 260.79 340.21 256.66 339.52 253.56 351.49 245.22 343.23 229.98 320.6 226.88 308.55 216.55 313.71 210.53"/>
      <path class="cls-3" d="m588.35,525.01l-27.02-4.57-32.61-4.14-24.01,5.33-23.49.34-23.58,10.93-13.77,3.87-8.52,1.89-14.2,12.91-14.11,9.64-23.84-8.52.61-22.89-14.37-2.5-15.49,3.44-3.87-6.46-1.55-14.29-7.14-6.54-10.5,3.96-1.38,8.43-13,3.7-14.71-11.36-8.77-17.56,6.8-24.27,22.8-3.44,7.4,4.05,9.29-2.06,10.07-9.55,10.76.86,19.27,20.91,5.25-1.98-5.5-17.47-6.71-8.26-1.72-15.06,25.9-18.76-2.49-29.52,10.16-12.82,6.11-20.05,7.4-3.27,15.23-15.57-.6-6.37-12.22,3.53-3.7-5.68-8.52,1.89-12.48,6.02,3.96-11.44,25.39-13.77,4.65-8.35,14.63,14.63,8.52,5.42,10.15-5.51-6.88-9.04-18.84-8.01-23.23-16.78-22.29-8.87-19.28,1.03-11.36-7.23-13.08-.35-.86,3.44,3.44,22.8,4.82,7.06-1.47,26.33-18.24-8.95-.08-11.36-17.98-4.13-8.86-6.97-.43-20.22,18.85-21.25-2.58-18.93-8.35,2.67-6.97-5.77-4.9-11.1-5.59.43-.35,13.08-8.18,3.44-9.89-26.25-7.06-2.5-11.87-2.24-11.02,8.95,18.76,11.28,6.02,12.48-32.53-14.72-24.01-16.61-6.19-20.57-21.51-1.72-13.25,13.51s-6.71,6.37-10.24,8.78c-3.53,2.41-17.9,7.23-17.9,7.23l-.17,13.85-17.64,4.73,3.44,8.18,29.69-1.72,18.33,13,6.02,27.11-3.19,25.9,7.23,25.21-13.26,42.77,7.91,57.57,14.19,30.98,15.57,22.55,11.96-1.03-6.62-11.53-8.26-7.92-7.66-16.18,6.63-3.1,17.03,25.47,13.25,23.06,4.47,20.14,18.67,14.55,30.63,13.52,42.68,1.9,14.97,8.87,12.04,10.33,15.83,5.42,18.07.86,16.87-4.56s.95,7.92,1.81,11.79c.86,3.87-7.06,19.45-7.06,19.45l-5.08,17.38,9.98,15.66,18.59,3.19,29.51,19.45,11.88,2.24,2.58,11.62,2.55,5.11c59.42-23.63,109.24-63.22,145.46-112.54l-.85-5.7,12.48-42.59-11.62-4.73-40.02,21.08Z"/>
      <path class="cls-3" d="m600.96,201.19l-11.79-12.82-14.63-14.63-8.26-22.55,14.46-.77-.94-7.92-10.24,1.46,7.66-5.76,8.09-7.49-1.72-7.75-12.05-10.33-5.69-16.23c-76.09-59.87-177.44-86.37-279.33-63.74-46.32,10.29-88.22,29.74-124.27,56l20.67,8.68-7.75,16.35-14.03,6.37,3.1,21.26-5.68,3.7-5.85,10.24,3.87,13.77,13.51-1.38-2.5,14.37,13.17-2.92,16.1-33.64-.43-12.91,21.34-6.36,3.36-10.5,21.94-7.31-.6-13.68,16.09-4.39s10.24-8.78,12.56-9.29c2.32-.52,14.03.95,14.03.95l13.68,6.71,16.27-3.61,12.05-11.62,18.16-2.41s5.34,2.07,9.21,1.21c3.87-.86,14.29-8.86,14.29-8.86l25.56,8.95,10.84,4.91,2.58,11.62,11.96-1.03,2.32-7.83,11.1,2.41.6,6.37-21.86,11.36,16.95,14.11,31.32,9.3,15.06,12.91,17.38-2.24,2.15-8.6,5.85-2.92-23.58-11.02-12.74,1.2,9.38-5.33-12.22-11.1,12.99-3.7,19.1,5.51,8,17.73,10.76,8.18,11.96,20.91,19.79,8.61,5.68,25.56,20.39,7.66,1.12,8.69-.09,10.58,7.74,12.91,3.1,6.63,13.68-.6,3.27-14.54,1.98-9.38Z"/>
      <path class="cls-3" d="m593.7,120.93l.99,4.45-1.12,13.25,4.73,10.33,9.21,1.21,3.27,14.72-10.15-1.81,6.96,42.34-5.51,19.1,11.01,20.31,12.13,7.06,9.29,41.82,17.29,30.29,16.35,22.38,18.85.69,2.76-16.87,2.09-2.54c-1.3-13.66-3.45-27.39-6.5-41.13-14.51-65.34-47.23-121.91-91.63-165.6Z"/>
      <polygon class="cls-3" points="413.72 155.81 357.61 144.71 335.32 150.47 333.17 166.39 321.64 158.38 305.46 166.04 309.59 191.94 325.76 198.92 332.56 181.96 346.76 191 375.41 206.58 385.05 228.01 410.86 249.1 442.19 236.45 438.83 225 428.94 213.39 420.51 182.75 425.33 167.86 413.72 155.81"/>
      <polygon class="cls-3" points="459.32 163.57 447.02 163.05 438.84 173.8 449.25 195.06 459.32 192.82 459.32 163.57"/>
      <polygon class="cls-3" points="534.62 162.29 505.19 154.19 497.71 146.1 492.02 149.8 500.89 164.09 510.01 183.19 522.66 185.26 524.29 181.65 514.74 171.58 536.6 174.85 534.62 162.29"/>
      <polygon class="cls-3" points="370.56 492.11 368.15 495.89 392.93 497.7 404.63 506.48 419.69 504.76 423.22 495.04 404.72 495.9 370.56 492.11"/>
      <polygon class="cls-3" points="442.75 491.51 427.52 499.77 431.22 505.45 451.36 500.98 453.85 493.92 447.06 496.25 442.75 491.51"/>
    </g>
  </g>
  <g>
    <ellipse class="cls-3" cx="359.74" cy="359" rx="332.56" ry="209.82"/>
    <ellipse class="cls-3" cx="359.74" cy="359" rx="269.07" ry="334.29"/>
    <ellipse class="cls-3" cx="359.74" cy="359" rx="140.58" ry="334.29"/>
  </g>
  <circle class="cls-4" cx="359" cy="359" r="358.5"/>
</svg>