<?xml version="1.0" encoding="UTF-8"?>
<svg id="Capa_1" data-name="Capa 1" xmlns="http://www.w3.org/2000/svg" viewBox="0 0 550.35 466.79">
  <defs>
    <style>
      .cls-1, .cls-2 {
        fill: #6843e1;
      }

      .cls-3 {
        stroke: #fff;
      }

      .cls-3, .cls-4, .cls-5, .cls-6, .cls-7, .cls-8 {
        stroke-linecap: round;
        stroke-linejoin: round;
      }

      .cls-3, .cls-4, .cls-6 {
        fill: none;
      }

      .cls-4, .cls-9, .cls-2 {
        stroke: #000;
      }

      .cls-5 {
        fill: gray;
      }

      .cls-5, .cls-6, .cls-7, .cls-8 {
        stroke: #1a2e35;
      }

      .cls-7, .cls-10 {
        fill: #1a2e35;
      }

      .cls-9 {
        fill: #24ffe1;
      }

      .cls-9, .cls-2 {
        stroke-miterlimit: 10;
      }

      .cls-11 {
        fill: #828282;
      }

      .cls-12 {
        opacity: .3;
      }

      .cls-13 {
        fill: #5ae4a7;
      }

      .cls-8 {
        fill: #fff;
      }

      .cls-14 {
        fill: #f1f1f1;
      }
    </style>
  </defs>
  <g>
    <path class="cls-13" d="m474.51,190c-11.21-23.15-23.98-46.12-37.24-67.61-20.53-33.28-47.41-64.48-82.58-84.15C273.09-7.41,179.1,10.46,117.12,63.05c-61.98,52.59-11.36,120.07-22.72,170.68-11.36,50.61-47.51,48.63-56.81,122.06-9.3,73.43,96.06,117.1,177.66,98.24,81.6-18.85,82.63-52.59,151.84-54.58,69.21-1.98,110.52-22.82,124.98-100.23,5.08-27.2,5.62-56.76-5.48-82.74-3.76-8.81-7.81-17.66-12.08-26.49Z"/>
    <path class="cls-14" d="m474.51,190c-11.21-23.15-23.98-46.12-37.24-67.61-20.53-33.28-47.41-64.48-82.58-84.15C273.09-7.41,179.1,10.46,117.12,63.05c-61.98,52.59-11.36,120.07-22.72,170.68-11.36,50.61-47.51,48.63-56.81,122.06-9.3,73.43,96.06,117.1,177.66,98.24,81.6-18.85,82.63-52.59,151.84-54.58,69.21-1.98,110.52-22.82,124.98-100.23,5.08-27.2,5.62-56.76-5.48-82.74-3.76-8.81-7.81-17.66-12.08-26.49Z"/>
  </g>
  <g>
    <line class="cls-6" x1="474.51" y1="433.09" x2="484.91" y2="433.09"/>
    <line class="cls-6" x1="57.31" y1="433.09" x2="464.98" y2="433.09"/>
  </g>
  <g class="cls-12">
    <path class="cls-4" d="m123.91,117.21c-1.86-1.93-5.08-3.7-10.67-3.84-12.57-.31-9.2,8.58-12.57,10.73-3.37,2.15-4.29-1.23-7.66.92-3.37,2.15-1.84,6.44-4.6,7.05-2.76.61-6.44-2.76-9.81-.61-3.37,2.15-3.37,3.99-4.91,3.99s-4.6-1.23-6.44,0c-1.84,1.23-3.99,2.76-3.99,2.76h32.92"/>
    <path class="cls-4" d="m127.38,122.7c-.3-.15-.62-.29-.95-.44,0,0-.11-1.48-1.13-3.23"/>
    <path class="cls-4" d="m100.4,138.21h40.43s.92-2.76-2.45-4.6c-3.37-1.84-4.91-.31-6.13-1.84-1.09-1.37,2.44-4.68-3.27-8.2"/>
  </g>
  <g class="cls-12">
    <path class="cls-4" d="m410.35,319.97c-1.86-1.93-5.08-3.7-10.67-3.84-12.57-.31-9.2,8.59-12.57,10.73-3.37,2.15-4.29-1.23-7.66.92-3.37,2.15-1.84,6.44-4.6,7.05-2.76.61-6.44-2.76-9.81-.61-3.37,2.15-3.37,3.99-4.91,3.99s-4.6-1.23-6.44,0c-1.84,1.23-3.99,2.76-3.99,2.76h32.92"/>
    <path class="cls-4" d="m413.81,325.46c-.3-.15-.62-.29-.95-.44,0,0-.11-1.48-1.13-3.23"/>
    <path class="cls-4" d="m386.84,340.97h40.43s.92-2.76-2.45-4.6c-3.37-1.84-4.91-.31-6.13-1.84-1.09-1.37,2.44-4.68-3.27-8.2"/>
  </g>
  <g class="cls-12">
    <path class="cls-4" d="m196.73,78.75h43.05s1.47-4.4-3.91-7.33c-5.38-2.93-7.82-.49-9.78-2.93-1.96-2.44,5.38-8.8-9.29-15.16,0,0-.98-13.69-21.02-14.18-8.65-.21-12.57,2.31-14.66,5.52"/>
    <line class="cls-4" x1="183.6" y1="78.75" x2="190.76" y2="78.75"/>
    <path class="cls-4" d="m178.51,51.42c-.61,2.08-1.28,3.88-2.78,4.84-5.38,3.42-6.84-1.96-12.22,1.47-5.38,3.42-2.93,10.27-7.33,11.25-4.4.98-10.27-4.4-15.65-.98-5.38,3.42-5.38,6.36-7.82,6.36s-7.33-1.96-10.27,0c-2.93,1.96-6.36,4.4-6.36,4.4h54.98"/>
  </g>
  <polygon class="cls-9" points="484.38 432.94 484.38 425.92 478.54 422.33 472.41 426.09 466.29 422.33 460.17 426.09 454.04 422.33 447.92 426.09 441.8 422.33 435.68 426.09 429.55 422.33 423.43 426.09 417.3 422.33 411.18 426.09 405.06 422.33 398.93 426.09 392.81 422.33 386.68 426.09 380.56 422.33 374.44 426.09 368.31 422.33 362.19 426.09 356.06 422.33 349.94 426.09 343.81 422.33 337.69 426.09 331.56 422.33 325.44 426.09 319.32 422.33 313.19 426.09 307.06 422.33 300.94 426.09 294.81 422.33 288.69 426.09 282.56 422.33 276.44 426.09 270.31 422.33 264.19 426.09 258.06 422.33 251.93 426.09 245.81 422.33 239.68 426.09 233.56 422.33 227.44 426.09 221.31 422.33 215.19 426.09 209.07 422.33 202.94 426.09 196.82 422.33 190.69 426.09 184.57 422.33 178.44 426.09 172.32 422.33 166.19 426.09 160.07 422.33 153.94 426.09 147.81 422.33 141.68 426.09 135.56 422.33 129.43 426.09 123.3 422.33 117.17 426.09 111.04 422.33 104.91 426.09 98.79 422.33 92.66 426.09 86.53 422.33 80.4 426.09 74.28 422.33 68.14 426.09 62.02 422.33 56.9 425.47 56.9 432.94 484.38 432.94"/>
  <g>
    <g>
      <path class="cls-13" d="m58.83,304.63s32.27,3.19,48.63,23.2c0,0,17.28-23.18,48.32-22.7,9.01-10.86,14.43-24.8,14.43-40.01.01-34.64-28.06-62.74-62.71-62.75-34.64-.01-62.74,28.06-62.75,62.71,0,15.02,5.27,28.8,14.07,39.61v-.05Z"/>
      <path class="cls-13" d="m58.83,304.63s32.27,3.19,48.63,23.2c0,0,17.28-23.18,48.32-22.7,9.01-10.86,14.43-24.8,14.43-40.01.01-34.64-28.06-62.74-62.71-62.75-34.64-.01-62.74,28.06-62.75,62.71,0,15.02,5.27,28.8,14.07,39.61v-.05Z"/>
      <path class="cls-1" d="m58.83,304.63s32.27,3.19,48.63,23.2c0,0,17.28-23.18,48.32-22.7,9.01-10.86,14.43-24.8,14.43-40.01.01-34.64-28.06-62.74-62.71-62.75-34.64-.01-62.74,28.06-62.75,62.71,0,15.02,5.27,28.8,14.07,39.61v-.05Z"/>
      <g>
        <polygon class="cls-11" points="109.41 433.38 106.39 206.79 105.64 433.38 109.41 433.38"/>
        <path class="cls-11" d="m108.02,321.73s10.89-19.61,30.51-25.6c0,0-20.7,4.9-31.05,21.79l.54,3.81Z"/>
        <path class="cls-11" d="m106.84,266.7s12.08-20.14,31.69-26.13c0,0-21.34,6.14-31.69,23.03v3.1Z"/>
        <path class="cls-11" d="m107.26,295.34s11.66-21.01,31.27-27c0,0-21.2,5.88-31.55,22.77l.28,4.23Z"/>
        <path class="cls-11" d="m106.41,280.33s-10.51-19.61-29.44-25.6c0,0,19.97,4.9,29.96,21.79l-.53,3.81Z"/>
        <path class="cls-11" d="m106.41,307.56s-10.51-19.61-29.44-25.6c0,0,19.97,4.9,29.96,21.79l-.53,3.81Z"/>
      </g>
    </g>
    <g>
      <path class="cls-13" d="m373.39,304.63s32.27,3.19,48.63,23.2c0,0,17.28-23.18,48.32-22.7,9.01-10.86,14.43-24.8,14.43-40.01.01-34.64-28.06-62.74-62.71-62.75-34.64-.01-62.74,28.06-62.75,62.71,0,15.02,5.27,28.8,14.07,39.61v-.05Z"/>
      <path class="cls-9" d="m373.39,304.63s32.27,3.19,48.63,23.2c0,0,17.28-23.18,48.32-22.7,9.01-10.86,14.43-24.8,14.43-40.01.01-34.64-28.06-62.74-62.71-62.75-34.64-.01-62.74,28.06-62.75,62.71,0,15.02,5.27,28.8,14.07,39.61v-.05Z"/>
      <g>
        <polygon class="cls-11" points="423.97 433.38 420.96 206.79 420.2 433.38 423.97 433.38"/>
        <path class="cls-11" d="m422.59,321.73s10.89-19.61,30.51-25.6c0,0-20.7,4.9-31.05,21.79l.54,3.81Z"/>
        <path class="cls-11" d="m421.4,266.7s12.08-20.14,31.69-26.13c0,0-21.34,6.14-31.69,23.03v3.1Z"/>
        <path class="cls-11" d="m421.83,295.34s11.66-21.01,31.27-27c0,0-21.2,5.88-31.55,22.77l.28,4.23Z"/>
        <path class="cls-11" d="m420.98,280.33s-10.51-19.61-29.44-25.6c0,0,19.97,4.9,29.96,21.79l-.53,3.81Z"/>
        <path class="cls-11" d="m420.98,307.56s-10.51-19.61-29.44-25.6c0,0,19.97,4.9,29.96,21.79l-.53,3.81Z"/>
      </g>
    </g>
    <g>
      <path class="cls-13" d="m299.9,192.33s54.82,5.42,82.6,39.41c0,0,29.35-39.37,82.08-38.56,15.3-18.44,24.5-42.12,24.51-67.96.02-58.85-47.67-106.57-106.52-106.59-58.85-.02-106.57,47.67-106.59,106.52,0,25.51,8.95,48.93,23.9,67.27l.02-.09Z"/>
      <path class="cls-9" d="m299.9,192.33s54.82,5.42,82.6,39.41c0,0,29.35-39.37,82.08-38.56,15.3-18.44,24.5-42.12,24.51-67.96.02-58.85-47.67-106.57-106.52-106.59-58.85-.02-106.57,47.67-106.59,106.52,0,25.51,8.95,48.93,23.9,67.27l.02-.09Z"/>
      <g>
        <polygon class="cls-11" points="386.12 433.38 380.69 26.14 379.34 433.38 386.12 433.38"/>
        <path class="cls-11" d="m383.47,221.38s18.51-33.31,51.82-43.49c0,0-35.16,8.33-52.74,37.01l.93,6.48Z"/>
        <path class="cls-11" d="m381.45,127.9s20.52-34.21,53.83-44.39c0,0-36.25,10.43-53.83,39.12v5.27Z"/>
        <path class="cls-11" d="m382.17,176.56s19.8-35.68,53.11-45.86c0,0-36.01,9.99-53.59,38.67l.48,7.19Z"/>
        <path class="cls-11" d="m380.73,151.06s-17.86-33.31-50-43.49c0,0,33.93,8.33,50.89,37.01l-.89,6.48Z"/>
        <path class="cls-11" d="m380.73,197.32s-17.86-33.31-50-43.49c0,0,33.93,8.33,50.89,37.01l-.89,6.48Z"/>
      </g>
    </g>
  </g>
  <g>
    <path class="cls-11" d="m368.15,390.55c1.32.58,4.56.5,4.56.5.03,0-.7-2.12-.76-2.25-.71-1.49-2.96-3.94-4.78-3.69-1.32.18-2.05,1.5-1.75,2.73.3,1.27,1.6,2.21,2.73,2.7Z"/>
    <path class="cls-11" d="m369.27,399.92c1.37.2,4.26-.64,4.49-.71.46,1.62,1.05,3.24,1.75,4.85.4.92.83,1.83,1.27,2.74-.26-.39-.5-.73-.54-.77-1.08-1.25-3.89-3.02-5.59-2.3-1.22.52-1.58,1.98-.97,3.1.63,1.14,2.13,1.7,3.34,1.88,1.23.18,3.71-.48,4.36-.67.17.35.34.7.52,1.04.84,1.67,1.68,3.32,2.45,4.97.27.58.52,1.16.77,1.75-.23-.34-.43-.63-.47-.67-1.08-1.24-3.89-3.02-5.59-2.3-1.22.52-1.58,1.98-.97,3.1.63,1.14,2.13,1.7,3.34,1.88,1.18.17,3.47-.42,4.25-.64.24.6.48,1.21.68,1.81.13.41.28.8.39,1.22.12.41.23.82.34,1.23.19.79.39,1.6.55,2.37.12.54.22,1.05.33,1.57-.27-.58-.81-1.71-.87-1.8-.88-1.39-3.39-3.57-5.17-3.12-1.29.33-1.86,1.72-1.42,2.92.45,1.22,1.84,2.01,3.02,2.37,1.29.4,4.16.03,4.52-.01.17.86.33,1.69.47,2.48.31,1.74.54,3.31.72,4.63h1.21c-.21-1.37-.49-3-.85-4.83-.17-.87-.37-1.8-.59-2.75.22-.09,1.44-.58,2.52-1.19.94,1.02,3.36,2.22,3.67,2.37-.33.81-.66,1.59-.98,2.33-.67,1.54-1.3,2.9-1.86,4.06h1.31c.48-1.07,1.01-2.29,1.56-3.64.34-.82.68-1.7,1.03-2.61.35.07,3.18.65,4.51.35,1.2-.27,2.65-.95,3.19-2.14.53-1.16.06-2.59-1.2-3.02-1.75-.59-4.41,1.4-5.39,2.72-.06.08-.59,1-.91,1.58.14-.37.28-.73.42-1.12.28-.76.54-1.53.81-2.35.12-.4.24-.81.37-1.22.13-.4.22-.85.33-1.28.24-1,.43-2.02.6-3.06.67.24,3.04,1.07,4.28.98,1.23-.09,2.77-.54,3.48-1.63.7-1.07.45-2.55-.73-3.16-1.64-.84-4.58.71-5.74,1.87-.07.07-.82,1-1.21,1.52.1-.62.2-1.24.28-1.88.23-1.83.4-3.69.58-5.54.05-.57.12-1.13.18-1.7.24.09,3.04,1.13,4.42,1.04,1.23-.09,2.77-.54,3.48-1.63.7-1.07.45-2.55-.73-3.16-1.64-.85-4.58.71-5.74,1.87-.09.09-1.16,1.42-1.41,1.78.13-1.25.27-2.49.46-3.7.26-1.68.61-3.31,1.06-4.87.11.04,3.03,1.14,4.45,1.05,1.23-.09,2.77-.54,3.48-1.63.7-1.07.45-2.55-.73-3.16-1.64-.85-4.58.71-5.74,1.87-.09.09-1.24,1.53-1.43,1.8.03-.09.05-.19.07-.28.51-1.66,1.2-3.2,1.93-4.61.42-.82.87-1.58,1.32-2.31.52.26,2.93,1.43,4.21,1.48,1.23.05,2.81-.23,3.63-1.24.81-.98.73-2.49-.38-3.22-1.54-1.02-4.63.21-5.91,1.23-.07.06-.72.7-1.18,1.18.21-.33.42-.67.62-.98.77-1.16,1.55-2.18,2.25-3.07.4-.51.77-.95,1.12-1.37.65-.01,3.26-.09,4.4-.63,1.11-.52,2.39-1.5,2.65-2.77.26-1.25-.5-2.54-1.82-2.69-1.83-.2-4.01,2.31-4.68,3.82-.06.13-.73,2.27-.7,2.27,0,0,.03,0,.04,0-.35.39-.71.82-1.11,1.29-.72.88-1.52,1.88-2.32,3.03-.8,1.15-1.64,2.41-2.4,3.83-.77,1.42-1.5,2.95-2.05,4.62,0,.02-.01.04-.02.06,0-.54-.01-2.05-.03-2.17-.21-1.63-1.58-4.66-3.39-5-1.31-.24-2.41.78-2.52,2.05-.11,1.3.83,2.6,1.75,3.41,1.03.92,3.9,1.82,4.13,1.89-.51,1.6-.91,3.28-1.21,5.01-.18.99-.32,1.99-.46,2.99,0-.47-.02-.89-.02-.94-.21-1.63-1.58-4.66-3.39-5-1.31-.24-2.41.78-2.52,2.05-.11,1.3.83,2.6,1.75,3.41.93.83,3.36,1.64,4.01,1.85-.05.39-.1.77-.15,1.16-.22,1.85-.43,3.7-.7,5.5-.09.64-.21,1.26-.32,1.88,0-.41-.02-.76-.02-.82-.21-1.63-1.58-4.66-3.39-5-1.31-.24-2.41.78-2.52,2.05-.11,1.3.83,2.6,1.75,3.41.89.79,3.13,1.56,3.89,1.81-.13.64-.27,1.27-.43,1.88-.12.41-.2.82-.34,1.23-.13.41-.26.81-.39,1.21-.28.76-.56,1.55-.85,2.28-.2.51-.39,1-.59,1.49.1-.63.27-1.87.27-1.98.03-1.09-.36-2.87-1.14-4.12,0-.16,0-.32-.03-.48-.2-1.26-1.38-2.19-2.67-1.85-1.78.47-2.91,3.6-3,5.25,0,.1.06,1.16.11,1.82-.09-.39-.17-.76-.27-1.16-.19-.79-.4-1.57-.62-2.41-.12-.4-.24-.81-.37-1.22-.11-.41-.29-.83-.43-1.25-.35-.96-.76-1.92-1.18-2.88.69-.17,3.13-.79,4.11-1.54.98-.75,2.01-1.97,2-3.27,0-1.27-1.04-2.38-2.36-2.23-1.83.2-3.42,3.12-3.76,4.73-.02.1-.13,1.28-.18,1.94-.26-.57-.52-1.15-.8-1.72-.82-1.65-1.7-3.29-2.57-4.94-.27-.5-.53-1.01-.79-1.51.25-.06,3.16-.73,4.26-1.58.98-.75,2.01-1.97,2-3.27,0-1.27-1.04-2.38-2.36-2.23-1.83.2-3.42,3.12-3.76,4.73-.02.12-.18,1.82-.2,2.26-.58-1.11-1.14-2.22-1.65-3.34-.71-1.54-1.32-3.1-1.8-4.65.11-.03,3.16-.72,4.29-1.58.98-.75,2.01-1.97,2-3.27,0-1.27-1.04-2.38-2.36-2.23-1.83.2-3.42,3.12-3.76,4.73-.03.13-.19,1.96-.2,2.29-.03-.09-.07-.18-.1-.28-.49-1.66-.76-3.33-.93-4.91-.1-.92-.15-1.8-.18-2.65.58-.07,3.23-.42,4.33-1.09,1.05-.64,2.21-1.74,2.35-3.03.13-1.27-.77-2.48-2.1-2.48-1.84,0-3.75,2.72-4.25,4.29-.03.09-.21.98-.34,1.64,0-.39-.02-.79-.02-1.16,0-1.39.09-2.67.18-3.8.05-.64.12-1.22.18-1.76.53-.37,2.67-1.87,3.32-2.95.64-1.05,1.16-2.57.69-3.78-.47-1.19-1.82-1.84-3-1.23-1.64.85-2.07,4.14-1.8,5.77.02.14.64,2.29.67,2.27,0,0,.03-.02.03-.02-.07.52-.14,1.08-.21,1.69-.11,1.13-.23,2.41-.26,3.81-.04,1.4-.04,2.92.11,4.52.14,1.61.37,3.29.84,4.99,0,.02.01.04.02.06-.29-.46-1.14-1.7-1.22-1.79-1.08-1.25-3.89-3.02-5.59-2.3-1.22.52-1.58,1.98-.97,3.1.63,1.14,2.13,1.7,3.34,1.88Z"/>
    <path class="cls-11" d="m400.88,391.26s.59-2.15.61-2.29c.23-1.63-.29-4.91-1.95-5.72-1.2-.58-2.53.12-2.97,1.31-.45,1.22.12,2.72.79,3.76.78,1.21,3.52,2.94,3.53,2.94Z"/>
  </g>
  <g>
    <path class="cls-11" d="m422.97,406c.84.37,2.89.32,2.9.32.02,0-.44-1.34-.48-1.43-.45-.94-1.88-2.5-3.04-2.34-.84.11-1.3.95-1.11,1.74.19.8,1.02,1.4,1.73,1.71Z"/>
    <path class="cls-11" d="m423.68,411.95c.87.13,2.7-.4,2.85-.45.29,1.03.67,2.06,1.11,3.08.25.58.52,1.16.8,1.74-.17-.24-.32-.46-.34-.49-.68-.79-2.47-1.92-3.55-1.46-.78.33-1,1.26-.61,1.97.4.72,1.35,1.08,2.12,1.19.78.11,2.36-.31,2.77-.42.11.22.22.44.33.66.53,1.06,1.06,2.11,1.56,3.16.17.37.33.74.49,1.11-.15-.22-.28-.4-.3-.43-.68-.79-2.47-1.91-3.55-1.46-.78.33-1,1.26-.61,1.97.4.72,1.35,1.08,2.12,1.19.75.11,2.2-.27,2.7-.4.15.38.3.77.43,1.15.08.26.18.51.25.77.07.26.15.52.22.78.12.5.25,1.02.35,1.51.08.34.14.67.21,1-.17-.37-.51-1.09-.55-1.14-.56-.88-2.15-2.27-3.28-1.98-.82.21-1.18,1.09-.9,1.85.28.78,1.17,1.27,1.92,1.5.82.25,2.64.02,2.87,0,.11.54.21,1.07.3,1.57.2,1.11.34,2.1.45,2.94h.77c-.13-.87-.31-1.9-.54-3.07-.11-.55-.24-1.14-.37-1.74.14-.05.91-.37,1.6-.75.6.65,2.13,1.41,2.33,1.5-.21.51-.42,1.01-.62,1.48-.42.98-.83,1.84-1.18,2.58h.83c.31-.68.64-1.45.99-2.31.21-.52.43-1.08.65-1.66.22.05,2.02.41,2.86.22.76-.17,1.68-.6,2.02-1.36.33-.74.03-1.65-.76-1.91-1.11-.37-2.8.89-3.42,1.73-.04.05-.37.63-.58,1,.09-.24.18-.47.26-.71.18-.48.34-.97.52-1.49.08-.26.15-.51.23-.77.08-.26.14-.54.21-.81.15-.63.27-1.28.38-1.94.42.15,1.93.68,2.71.62.78-.05,1.75-.34,2.21-1.03.44-.68.28-1.62-.47-2.01-1.04-.54-2.9.45-3.65,1.19-.05.05-.52.63-.77.96.06-.4.13-.79.18-1.19.14-1.16.25-2.34.37-3.51.03-.36.07-.72.11-1.08.15.06,1.93.72,2.81.66.78-.05,1.75-.34,2.21-1.03.44-.68.28-1.62-.47-2.01-1.04-.54-2.9.45-3.64,1.19-.06.06-.73.9-.9,1.13.08-.79.17-1.58.29-2.35.17-1.07.39-2.1.67-3.09.07.03,1.93.73,2.82.66.78-.05,1.76-.34,2.21-1.03.44-.68.28-1.62-.47-2.01-1.04-.54-2.9.45-3.64,1.19-.06.06-.79.97-.91,1.15.02-.06.03-.12.05-.18.32-1.05.76-2.03,1.22-2.92.27-.52.55-1,.84-1.47.33.17,1.86.91,2.67.94.78.03,1.78-.15,2.31-.78.51-.63.46-1.58-.24-2.05-.97-.65-2.94.13-3.75.78-.04.04-.46.45-.75.75.13-.21.27-.42.4-.62.49-.74.98-1.38,1.43-1.95.25-.32.49-.61.71-.87.41,0,2.07-.06,2.79-.4.71-.33,1.51-.95,1.69-1.76.17-.79-.32-1.61-1.16-1.7-1.16-.13-2.55,1.47-2.97,2.42-.04.08-.46,1.44-.44,1.44,0,0,.02,0,.02,0-.22.25-.45.52-.7.82-.46.56-.96,1.19-1.47,1.92-.51.73-1.04,1.53-1.53,2.43-.49.9-.95,1.87-1.3,2.93,0,.01,0,.03-.01.04,0-.34,0-1.3-.02-1.38-.13-1.04-1-2.96-2.15-3.17-.83-.15-1.53.5-1.6,1.3-.07.82.53,1.65,1.11,2.17.66.59,2.48,1.15,2.62,1.2-.32,1.02-.58,2.08-.77,3.18-.11.63-.2,1.26-.29,1.9,0-.3-.01-.56-.02-.6-.13-1.04-1-2.96-2.15-3.17-.83-.15-1.53.5-1.6,1.3-.07.82.53,1.65,1.11,2.17.59.53,2.13,1.04,2.54,1.17-.03.24-.06.49-.09.73-.14,1.17-.28,2.35-.44,3.49-.06.4-.13.8-.2,1.2,0-.26,0-.49-.01-.52-.13-1.04-1-2.96-2.15-3.17-.83-.15-1.53.5-1.6,1.3-.07.82.53,1.65,1.11,2.17.56.5,1.98.99,2.47,1.15-.09.4-.17.81-.27,1.19-.08.26-.13.52-.22.78-.08.26-.17.52-.25.77-.18.48-.35.98-.54,1.45-.13.33-.25.63-.38.94.06-.4.17-1.19.17-1.26.02-.69-.23-1.82-.72-2.62,0-.1,0-.2-.02-.31-.13-.8-.88-1.39-1.69-1.17-1.13.3-1.85,2.29-1.9,3.33,0,.06.04.73.07,1.16-.06-.25-.11-.49-.17-.74-.12-.5-.25-1-.39-1.53-.08-.26-.16-.51-.23-.77-.07-.26-.18-.53-.27-.79-.22-.61-.48-1.22-.75-1.83.44-.1,1.99-.5,2.61-.98.62-.48,1.28-1.25,1.27-2.08,0-.81-.66-1.51-1.5-1.42-1.16.13-2.17,1.98-2.38,3-.01.06-.08.82-.11,1.23-.17-.36-.33-.73-.51-1.09-.52-1.05-1.08-2.09-1.63-3.13-.17-.32-.33-.64-.5-.96.16-.04,2.01-.47,2.7-1,.62-.47,1.28-1.25,1.27-2.08,0-.81-.66-1.51-1.5-1.42-1.16.13-2.17,1.98-2.38,3-.02.08-.11,1.16-.12,1.43-.37-.71-.72-1.41-1.05-2.12-.45-.98-.84-1.97-1.14-2.95.07-.02,2.01-.46,2.72-1,.62-.48,1.28-1.25,1.27-2.08,0-.81-.66-1.51-1.5-1.42-1.16.13-2.17,1.98-2.38,3-.02.08-.12,1.24-.12,1.46-.02-.06-.04-.12-.06-.18-.31-1.05-.48-2.11-.59-3.11-.07-.58-.1-1.14-.11-1.68.37-.04,2.05-.27,2.75-.69.67-.4,1.41-1.1,1.49-1.93.08-.8-.49-1.57-1.33-1.57-1.17,0-2.38,1.73-2.7,2.72-.02.05-.13.62-.21,1.04,0-.25-.01-.5-.01-.74,0-.88.06-1.7.11-2.41.03-.41.07-.78.12-1.12.34-.23,1.69-1.19,2.11-1.87.41-.67.74-1.63.44-2.4-.3-.75-1.16-1.17-1.91-.78-1.04.54-1.31,2.63-1.14,3.66.02.09.41,1.46.43,1.44,0,0,.02-.01.02-.01-.05.33-.09.68-.13,1.07-.07.72-.15,1.53-.17,2.42-.02.89-.02,1.85.07,2.87.09,1.02.24,2.09.53,3.17,0,.01,0,.02.01.04-.18-.29-.73-1.08-.77-1.14-.68-.79-2.47-1.92-3.55-1.46-.78.33-1,1.26-.61,1.97.4.72,1.35,1.08,2.12,1.19Z"/>
    <path class="cls-11" d="m443.74,406.45s.37-1.37.39-1.45c.14-1.03-.19-3.12-1.24-3.63-.76-.37-1.61.07-1.88.83-.28.78.08,1.73.5,2.38.5.77,2.24,1.86,2.24,1.86Z"/>
  </g>
  <g>
    <path class="cls-11" d="m95.96,404.56c.84.37,2.89.32,2.9.32.02,0-.44-1.34-.48-1.43-.45-.94-1.88-2.5-3.04-2.34-.84.11-1.3.95-1.11,1.74.19.8,1.02,1.4,1.73,1.71Z"/>
    <path class="cls-11" d="m96.66,410.51c.87.13,2.7-.4,2.85-.45.29,1.03.67,2.06,1.11,3.08.25.58.52,1.16.8,1.74-.17-.24-.32-.46-.34-.49-.68-.79-2.47-1.92-3.55-1.46-.78.33-1,1.26-.61,1.97.4.72,1.35,1.08,2.12,1.19.78.11,2.36-.31,2.77-.42.11.22.22.44.33.66.53,1.06,1.06,2.11,1.56,3.16.17.37.33.74.49,1.11-.15-.22-.28-.4-.3-.43-.68-.79-2.47-1.92-3.55-1.46-.78.33-1,1.26-.61,1.97.4.72,1.35,1.08,2.12,1.19.75.11,2.2-.27,2.7-.4.15.38.3.77.43,1.15.08.26.18.51.25.77.07.26.15.52.22.78.12.5.25,1.02.35,1.51.08.34.14.67.21,1-.17-.37-.51-1.09-.55-1.14-.56-.88-2.15-2.27-3.28-1.98-.82.21-1.18,1.09-.9,1.85.28.78,1.17,1.27,1.92,1.5.82.25,2.64.02,2.87,0,.11.54.21,1.07.3,1.57.2,1.11.34,2.1.45,2.94h.77c-.13-.87-.31-1.9-.54-3.07-.11-.55-.24-1.14-.37-1.74.14-.05.91-.37,1.6-.75.6.65,2.13,1.41,2.33,1.5-.21.51-.42,1.01-.62,1.48-.42.98-.83,1.84-1.18,2.58h.83c.31-.68.64-1.45.99-2.31.21-.52.43-1.08.65-1.66.22.05,2.02.41,2.86.22.76-.17,1.68-.6,2.02-1.36.33-.74.03-1.65-.76-1.91-1.11-.37-2.8.89-3.42,1.73-.04.05-.37.63-.58,1,.09-.24.18-.47.26-.71.18-.48.34-.97.52-1.49.08-.26.15-.51.23-.77.08-.26.14-.54.21-.81.15-.63.27-1.28.38-1.94.42.15,1.93.68,2.71.62.78-.05,1.75-.34,2.21-1.03.44-.68.28-1.62-.47-2.01-1.04-.54-2.9.45-3.65,1.19-.05.05-.52.63-.77.96.06-.4.13-.79.18-1.19.14-1.16.25-2.34.37-3.51.03-.36.07-.72.11-1.08.15.06,1.93.72,2.81.66.78-.05,1.75-.34,2.21-1.03.44-.68.28-1.62-.47-2.01-1.04-.54-2.9.45-3.64,1.19-.06.06-.73.9-.9,1.13.08-.79.17-1.58.29-2.35.16-1.07.39-2.1.67-3.09.07.03,1.93.73,2.82.66.78-.05,1.76-.34,2.21-1.03.44-.68.28-1.62-.47-2.01-1.04-.54-2.9.45-3.64,1.19-.06.06-.79.97-.91,1.15.02-.06.03-.12.05-.18.32-1.05.76-2.03,1.22-2.92.27-.52.55-1,.84-1.47.33.17,1.86.91,2.67.94.78.03,1.78-.15,2.31-.78.51-.63.46-1.58-.24-2.05-.97-.65-2.94.13-3.75.78-.04.04-.46.45-.75.75.13-.21.27-.42.4-.62.49-.74.98-1.38,1.42-1.95.25-.32.49-.61.71-.87.41,0,2.07-.06,2.79-.4.71-.33,1.51-.95,1.69-1.76.17-.79-.32-1.61-1.16-1.7-1.16-.13-2.55,1.47-2.97,2.42-.04.08-.46,1.44-.44,1.44,0,0,.02,0,.02,0-.22.25-.45.52-.7.82-.46.56-.96,1.19-1.47,1.92-.51.73-1.04,1.53-1.53,2.43-.49.9-.95,1.87-1.3,2.93,0,.01,0,.02-.01.04,0-.34,0-1.3-.02-1.38-.13-1.04-1-2.96-2.15-3.17-.83-.15-1.53.5-1.6,1.3-.07.82.53,1.65,1.11,2.17.66.59,2.48,1.15,2.62,1.2-.32,1.02-.58,2.08-.77,3.18-.11.63-.2,1.26-.29,1.9,0-.3-.01-.56-.02-.6-.13-1.04-1-2.96-2.15-3.17-.83-.15-1.53.5-1.6,1.3-.07.82.53,1.65,1.11,2.17.59.53,2.13,1.04,2.54,1.17-.03.24-.06.49-.09.73-.14,1.17-.28,2.35-.44,3.49-.06.4-.13.8-.2,1.2,0-.26,0-.49-.01-.52-.13-1.04-1-2.96-2.15-3.17-.83-.15-1.53.5-1.6,1.3-.07.82.53,1.65,1.11,2.17.56.5,1.98.99,2.47,1.15-.09.4-.17.81-.27,1.19-.07.26-.13.52-.22.78-.08.26-.17.52-.25.77-.18.48-.35.98-.54,1.45-.13.33-.25.63-.38.94.06-.4.17-1.19.17-1.26.02-.69-.23-1.82-.72-2.62,0-.1,0-.2-.02-.31-.13-.8-.88-1.39-1.69-1.17-1.13.3-1.85,2.29-1.9,3.33,0,.06.04.73.07,1.16-.06-.25-.11-.49-.17-.74-.12-.5-.25-1-.39-1.53-.08-.26-.16-.51-.23-.77-.07-.26-.18-.53-.27-.79-.22-.61-.48-1.22-.75-1.83.44-.1,1.99-.5,2.61-.98.62-.47,1.28-1.25,1.27-2.08,0-.81-.66-1.51-1.5-1.42-1.16.13-2.17,1.98-2.38,3-.01.06-.08.82-.11,1.23-.17-.36-.33-.73-.51-1.09-.52-1.05-1.08-2.09-1.63-3.13-.17-.32-.33-.64-.5-.96.16-.04,2.01-.47,2.7-1,.62-.48,1.28-1.25,1.27-2.08,0-.81-.66-1.51-1.5-1.42-1.16.13-2.17,1.98-2.38,3-.02.08-.11,1.16-.12,1.43-.37-.71-.73-1.41-1.05-2.12-.45-.98-.84-1.97-1.14-2.95.07-.02,2.01-.46,2.72-1,.62-.48,1.28-1.25,1.27-2.08,0-.81-.66-1.51-1.5-1.42-1.16.13-2.17,1.98-2.38,3-.02.08-.12,1.24-.12,1.46-.02-.06-.04-.12-.06-.18-.31-1.05-.48-2.11-.59-3.11-.07-.58-.09-1.14-.11-1.68.37-.04,2.05-.27,2.75-.69.67-.4,1.41-1.1,1.49-1.93.08-.8-.49-1.57-1.33-1.57-1.17,0-2.38,1.73-2.7,2.72-.02.05-.14.62-.21,1.04,0-.25-.01-.5-.01-.74,0-.88.06-1.7.11-2.41.03-.41.07-.78.12-1.12.34-.23,1.69-1.19,2.11-1.87.41-.67.74-1.63.44-2.4-.3-.75-1.16-1.17-1.91-.78-1.04.54-1.31,2.63-1.14,3.66.02.09.41,1.46.43,1.44,0,0,.02-.01.02-.01-.05.33-.09.68-.13,1.07-.07.72-.15,1.53-.17,2.42-.02.89-.02,1.85.07,2.87.09,1.02.24,2.09.53,3.17,0,.01,0,.02.01.04-.18-.29-.73-1.08-.77-1.14-.68-.79-2.47-1.92-3.55-1.46-.78.33-1,1.26-.61,1.97.4.72,1.35,1.08,2.12,1.19Z"/>
    <path class="cls-11" d="m116.73,405.01s.37-1.37.39-1.45c.14-1.03-.19-3.12-1.24-3.63-.76-.37-1.61.07-1.88.83-.28.78.08,1.73.5,2.38.5.77,2.24,1.86,2.24,1.86Z"/>
  </g>
  <g>
    <g>
      <g>
        <path class="cls-8" d="m309.61,421.65c-.45-.12-.92.05-1.2.43-1.36,1.84-5.39,7.09-8.56,9.02-3.87,2.36-10.1,4.3-10.53,6.23-.43,1.93,1.07,3.44,2.58,3.44s7.31,1.07,14.83.43c7.52-.64,11.18-2.79,15.69-1.93,4.51.86,8.17,1.07,9.89-1.93,1.4-2.45.8-11.18.54-14.33-.05-.63-.61-1.1-1.24-1.04-3.82.32-16.3,1.21-22-.31Z"/>
        <path class="cls-8" d="m322.43,439.27c4.51.86,8.17,1.07,9.89-1.93.17-.29.3-.67.42-1.12.22-.85-.59-1.61-1.43-1.36-3.07.91-7.83,1.41-12.1,1.41-5.59,0-6.45.64-16.55,2.36-6.04,1.03-10.6.6-13.31.08.32,1.23,1.44,2.07,2.56,2.07,1.5,0,7.31,1.07,14.83.43,7.52-.64,11.18-2.79,15.69-1.93Z"/>
      </g>
      <g>
        <path class="cls-8" d="m333.67,422.1c-.53-.15-1.09.1-1.34.59-1.2,2.38-4.76,9.17-7.76,11.63-3.65,3.01-10.32,4.51-10.53,7.52-.21,3.01,3.01,3.44,4.51,3.44s11.39,1.5,16.98,0c5.59-1.5,9.24-.86,12.04-1.5,2.79-.64,8.38-.64,9.67-2.58,1.06-1.6.08-9.64-.3-12.4-.07-.54-.51-.95-1.06-.99-2.5-.17-9.43-.78-13.26-2.52-3.52-1.6-7.27-2.72-8.97-3.19Z"/>
        <path class="cls-8" d="m357.25,441.2c.44-.65.53-2.39.46-4.4-1.14.17-2.51.5-4.14,1.12-7.22,2.73-15.55,5.45-26.14,5.29-7.08-.11-11.28-1.15-13.29-1.82-.04.15-.08.3-.09.45-.21,3.01,3.01,3.44,4.51,3.44s11.39,1.5,16.98,0c5.59-1.5,9.24-.86,12.04-1.5,2.79-.64,8.38-.64,9.67-2.58Z"/>
      </g>
      <path class="cls-7" d="m298.57,279.04s-1.5,50.08,1.07,64.7c2.58,14.62,5.37,48.89,6.23,52.97.68,3.23,2.16,10.07,2.76,12.81.13.59-.23,1.17-.81,1.35-.94.29-2.16,1.06-2.16,3.04,0,2.69.45,7.18.6,8.59.03.33.21.62.47.81.76.55,2.78,1.72,7.96,3.49,6.76,2.32,12.3.82,13.36.49.12-.04.22-.09.32-.16.65-.47,3.48-2.43,4.81-2.05,1.5.43,7.09,3.65,13.33,4.94,6.23,1.29,10.32,1.29,10.53.21.21-1.07,1.5-6.66,1.07-12.25-.43-5.59-.64-4.3-1.07-9.03-.43-4.73,1.93-36.21.21-48.46-1.72-12.25-4.08-14.19-4.51-22.78-.43-8.6,2.79-59.76,2.79-59.76,0,0-21.28,3.65-29.66,1.72-8.38-1.93-12.04-6.45-17.63-7.09-5.59-.64-9.67,6.45-9.67,6.45Z"/>
      <path class="cls-1" d="m304.93,166.86s-8.67,1.81-10.84,5.6c-2.17,3.79-5.96,22.03-5.96,22.03l-9.57,20.77,12.82,16.79,4.33-4.88,2.35,30.88-2.89,21.49,6.5,4.33,4.51-8.13,1.81,9.03s11.74,5.24,26.73,3.25c14.99-1.99,24.38-9.21,24.38-9.21,0,0,.36-24.56.54-25.1.18-.54,1.81-27.63,1.81-27.63,0,0-6.68-48.22-7.77-52.73-1.08-4.51-.36-5.24-3.97-6.68-3.61-1.44-19.17-6.68-19.17-6.68,0,0-11.53-.72-14.42.18-2.89.9-11.2,6.68-11.2,6.68Z"/>
      <path class="cls-2" d="m273.7,219.51s.83-1.89,2.12-2.6c1.3-.71,1.06-6.02,5.9-4.6s11.92,15.1,12.15,17.34c.24,2.24-1.3,3.42-2.01,4.37-.71.94-2.01,3.54-3.89,5.55-1.89,2.01-2.36,4.13-4.72,2.95s-4.37-6.61-6.96-13.45c-2.6-6.84-2.6-9.56-2.6-9.56Z"/>
      <path class="cls-2" d="m299.15,171.59s-1.23,7.37-.27,7.23c.96-.14,4.64-2.87,4.78-3.69s-4.5-3.55-4.5-3.55Z"/>
      <path class="cls-2" d="m303.79,165.86s-5.05,5.05-4.64,5.73c.41.68,7.92,8.19,7.92,8.19,0,0,1.36-6.82.82-9.83-.55-3-4.09-4.09-4.09-4.09Z"/>
      <g>
        <path class="cls-8" d="m293.69,120.69s-4.09,9.42-3.82,11.33c.27,1.91,1.36,5.46.96,6.41-.41.96-5.46,4.91-5.32,5.87.14.96,3,3.82,3,3.82,0,0,2.18,12.15,3.14,13.92.96,1.77,7.64-.27,7.64-.27,0,0,4.5,5.05,4.64,6.28.14,1.23,3.41,17.33,3.96,15.7.55-1.64,6.41-13.51,6.41-13.51,0,0,11.74-11.6,11.46-12.28-.27-.68-5.32-8.19-5.32-9.28s8.05-13.38,7.78-17.88c-.27-4.5-3.55-12.56-8.6-15.42-5.05-2.87-12.15-5.6-19.65-3.69-7.51,1.91-7.92,4.91-6.28,9.01Z"/>
        <polygon class="cls-7" points="299.29 161.77 303.93 168.05 305.77 158.65 299.29 161.77"/>
        <path class="cls-5" d="m307.89,157.54c.82-1.5,1.64-21.97,2.32-23.07.68-1.09,3.69-.41,4.5,2.87.82,3.28-2.46,7.51-2.46,7.92s2.18,3,4.09,3.69c1.16.42,2.93.17,4.13-.08-.02-.07-.04-.15-.04-.19,0-.91,5.56-9.55,7.28-15.02-2.16-1.88-6.21-4.74-11.51-8.04-7.23-4.5-10.78-2.87-10.78-2.87,0,0-5.19,4.5-4.09,6.14,1.09,1.64,5.32,5.05,5.32,5.05,0,0-1.23,13.92-1.77,14.74-.55.82-1.5,1.36-1.5,1.36,0,0-2.46-4.78-4.37-4.78s-10.51,2.87-10.51,2.87c0,0,2.18,12.15,3.14,13.92.96,1.77,7.64-.27,7.64-.27,0,0,7.78-2.73,8.6-4.23Z"/>
        <path class="cls-7" d="m319.62,115.36c-5.05-2.87-12.15-5.6-19.65-3.69-7.51,1.91-7.92,4.91-6.28,9.01,0,0,2.05,1.5,5.46,2.18,3.41.68,10.24,1.5,18.7,7.64,3.26,2.36,6.22,4.52,8.65,6.28,1.06-2.38,1.81-4.59,1.72-6.01-.27-4.5-3.55-12.56-8.6-15.42Z"/>
        <path class="cls-10" d="m295.06,138.29c0,.83-.37,1.5-.82,1.5s-.82-.67-.82-1.5.37-1.5.82-1.5.82.67.82,1.5Z"/>
        <path class="cls-6" d="m292.19,134.61s1.77-2.73,4.78.27"/>
        <path class="cls-6" d="m292.46,150.58s4.91.14,6.69-3.14"/>
      </g>
      <path class="cls-2" d="m309.52,170.78l4.23,8.19s8.33-7.78,10.78-10.65c2.46-2.87,6.01-8.33,6.01-8.33,0,0-4.09-3.82-5.32-4.23-1.23-.41-1.5.55-2.18,1.36-.68.82-13.51,13.65-13.51,13.65Z"/>
      <path class="cls-8" d="m352.96,238.19s-5.96,31.96-6.32,33.77c-.36,1.81-.54,3.07-1.26,3.43-.72.36-4.7,1.63-5.24,2.71-.54,1.08-3.25,9.21-4.15,10.84-.9,1.63,1.26,1.99,2.17,1.63.9-.36,1.81-1.44,1.81-1.44,0,0-.9,7.22-.18,7.4.72.18,1.99,0,3.07-.72,1.08-.72,1.26-1.26,1.81-1.63.54-.36,3.07-.54,4.15-1.26,1.08-.72,2.35-1.99,2.89-2.17.54-.18,1.81-.36,2.17-2.53.36-2.17,1.08-11.74,1.44-12.64.36-.9,14.81-33.77,14.81-33.77l-17.16-3.61Z"/>
      <path class="cls-2" d="m348.63,171.19s-10.11,11.92-9.03,19.68c1.08,7.77,12.28,28.53,12.28,28.53,0,0-1.81,4.88-.9,6.14.9,1.26,1.99,4.33,1.99,4.33l18.06,4.51s2.53-1.26,2.17-6.68-1.99-10.11-2.35-11.02c-.36-.9-10.29-37.38-13.54-42.98-3.25-5.6-5.96-5.78-6.68-5.78"/>
      <path class="cls-2" d="m353.87,227.9s.36-.18-.9,1.99c-1.26,2.17-1.63,9.39-1.08,10.11.54.72,16.61,5.42,18.06,4.88,1.44-.54,2.35-4.33,3.43-8.13,1.08-3.79,2.17-3.97-1.81-6.32-3.97-2.35-16.43-2.89-17.7-2.53Z"/>
      <path class="cls-3" d="m317.02,310.54c1.93,14.68,5.16,38.93,6.05,43.08,1.29,6.02,6.23,20.85,7.31,23.21.97,2.14,2.47,34.36,2.75,40.01.02.51-.29.95-.76,1.13-.61.23-1.35.73-1.35,1.73,0,1.72-.21,5.37-.21,5.37"/>
      <path class="cls-3" d="m315.55,299.24s.37,2.83.94,7.21"/>
      <path class="cls-8" d="m255.06,208.18s6.25,4.96,10.62,6.96c4.37,2.01,6.84,2.48,12.15,7.79,5.31,5.31,8.85,14.87,7.55,17.23s-3.3,3.07-7.08,1.53c-3.78-1.53-8.85-.47-14.75-8.26-5.9-7.79-17.34-18.76-17.34-18.76l8.85-6.49Z"/>
      <path class="cls-6" d="m293.54,206.54c1.27,5.93,2.57,13.91,2.18,20.63"/>
      <path class="cls-6" d="m291.38,197.92s.44,1.47,1.05,3.87"/>
      <path class="cls-6" d="m306.74,266.05c-.24,2.4-.44,3.91-.44,3.91"/>
      <path class="cls-6" d="m307.7,213.97c.13,2.01.3,3.89.53,5.48,1.37,9.88-.55,20.59-.55,30.19,0,4.02-.24,8.24-.52,11.78"/>
      <path class="cls-6" d="m307.4,189.26s-.26,9.5.02,18.67"/>
    </g>
    <g>
      <g>
        <path class="cls-8" d="m207.89,420.22s11.19,8.34,14.65,9.97c3.46,1.63,9.97,2.85,9.76,5.49-.2,2.64-5.9,4.07-14.85,3.86-8.95-.2-12.82-1.02-18.92-1.63-6.1-.61-10.78,2.44-13.83,0-3.05-2.44.41-16.48.41-16.48l22.78-1.22Z"/>
        <path class="cls-8" d="m195.89,435.88c-5.74-.16-10.58-1.31-12.42-1.81.09,1.77.44,3.2,1.23,3.84,3.05,2.44,7.73-.61,13.83,0,6.1.61,9.97,1.42,18.92,1.63,8.95.2,14.65-1.22,14.85-3.86,0,0-5.9,1.02-15.46,1.02s-13.63-.61-20.95-.81Z"/>
      </g>
      <g>
        <path class="cls-8" d="m187.75,422.25s3.05,3.86,10.37,8.95c7.32,5.09,12.2,5.29,12.82,7.73.61,2.44,0,4.88-2.24,5.29s-27.46-.2-34.78-.81c-7.32-.61-11.59-.41-12.2-2.64-.61-2.24-.2-9.15-.2-9.15,0,0,4.07-2.03,10.98-6.71,6.92-4.68,15.26-2.64,15.26-2.64Z"/>
        <path class="cls-8" d="m202.4,441.78c-7.28,0-32.61-1.69-40.89-2.26.05.49.12.92.2,1.24.61,2.24,4.88,2.03,12.2,2.64,7.32.61,32.55,1.22,34.78.81,1.46-.27,2.22-1.41,2.4-2.84-2.08.21-4.96.4-8.71.4Z"/>
      </g>
      <path class="cls-7" d="m158.87,277.83s-.81,18.71,2.03,39.26c2.85,20.55,2.03,38.45,2.24,41.9.2,3.46-3.46,17.49-4.07,32.55-.61,15.05,1.22,38.45,1.22,39.67s.61,3.66,1.83,3.66,12.21-5.7,12.21-5.7l13.63-4.68s5.29,0,10.78-.81c5.49-.81,8.95-2.64,9.15-3.46.2-.81.41-3.25-.81-5.29-1.22-2.03-2.85,0-1.22-5.7,1.63-5.7,9.56-42.72,9.15-57.16-.41-14.44,6.31-50.65,6.31-58.38s.73-16.47.73-16.47l-.73-6.11s-15.87,7.53-32.75,6.92c-16.88-.61-29.5-5.49-29.5-5.49l-.2,5.29Z"/>
      <path class="cls-3" d="m188.64,411.24c.3,5.52.74,7.96.74,7.96l1.42,4.68"/>
      <path class="cls-3" d="m206.67,297.76l-7.12,5.7s-.61,27.26-4.48,41.9c-3.86,14.65-6.71,40.89-6.71,54.52,0,1.27,0,2.46.02,3.59"/>
      <path class="cls-9" d="m181.44,157.89s-16.86,8.7-20.84,12.51c-3.99,3.81-7.07,16.01-6.89,30.33.18,14.32,2.72,31.36,2.72,31.36l1.63,47.31s20.66,6.34,35.53,5.98c14.86-.36,25.92-5.26,25.92-5.26,0,0,2.54-1.09,2.54-2.9s-.54-20.3.18-27.19c.73-6.89-1.45-51.9-4.71-62.96-3.26-11.06-5.44-14.32-6.71-17.22-1.27-2.9.36-2.36-8.52-7.61-8.88-5.26-15.41-6.52-20.84-4.35Z"/>
      <path class="cls-8" d="m207.36,172.21s.18-1.63,1.27-1.45c1.09.18,7.07,5.98,6.16,3.81-.91-2.17-4.53-9.43-7.25-11.6-2.72-2.17-3.26-1.45-3.26.18s3.08,9.06,3.08,9.06Z"/>
      <path class="cls-8" d="m212.07,153.91l-6.16,9.43s2.72,15.59.72,15.59-3.44-6.89-4.17-7.79c-.73-.91-17.22-19.21-17.22-19.21l5.62-15.95s4.17-1.45,7.07,3.26c2.9,4.71,14.14,14.68,14.14,14.68Z"/>
      <polygon class="cls-7" points="198.52 151.84 206.73 161.45 210.71 155.83 198.05 148.56 198.52 151.84"/>
      <path class="cls-8" d="m185.97,149.56s14.32,16.31,15.41,17.58,3.44,3.08,2.54,4.17c-.91,1.09-8.52,9.06-8.52,9.06,0,0-7.98-5.8-11.78-12.87-3.81-7.07-4.17-8.16-4.17-8.16,0,0,2.18-8.52,6.53-9.79Z"/>
      <g>
        <path class="cls-7" d="m219.45,118.36s2.75,0,2.41-4.13c-.34-4.13-4.13-7.91-4.64-7.05-.52.86,1.2,3.61-1.03,2.23-2.23-1.38-3.44-4.81-5.85-4.47-2.41.34-2.75,2.75-3.27,3.27-.52.52-9.97-1.89-16.85.17-6.88,2.06-10.66,9.63-9.97,12.72.69,3.09,4.13,13.75,6.19,17.02,2.06,3.27,2.41,4.13,4.99,4.81,2.58.69,5.16,2.06,7.05-3.09,1.89-5.16.34-5.5,3.27-7.22,2.92-1.72,6.7-2.23,6.36-6.53-.34-4.3.52-4.81,1.89-5.33,1.38-.52,8.6-.86,9.46-2.41Z"/>
        <g>
          <path class="cls-8" d="m219.45,118.36s4.99,12.72,4.13,13.93c-.86,1.2-2.23,2.58-2.23,2.58,0,0,4.3,7.22,2.75,8.94-1.55,1.72-3.27,2.75-3.27,2.75,0,0-1.89,10.32-3.95,11.52-2.06,1.2-2.92,2.58-7.56,0-4.64-2.58-10.14-4.81-12.21-6.88-2.06-2.06-3.09-7.56-3.09-7.56,0,0-4.64-1.2-6.02-5.5-1.38-4.3.86-7.56,2.92-7.05,2.06.52,3.27,3.27,3.95,4.64.69,1.38,2.75,1.72,3.09.69.34-1.03-2.23-4.13-1.03-5.85s5.85-2.06,6.88-3.95-2.23-2.75-2.23-2.75c0,0,2.23-.86,1.55-1.55-.69-.69-4.47-.34-3.61-2.41.86-2.06,6.19-3.09,10.83-2.41,4.64.69,9.11.86,9.11.86Z"/>
          <path class="cls-10" d="m216.53,135.38c0,.95-.5,1.72-1.12,1.72s-1.12-.77-1.12-1.72.5-1.72,1.12-1.72,1.12.77,1.12,1.72Z"/>
          <path class="cls-6" d="m212.06,131.25s2.75-2.06,6.36,0"/>
          <path class="cls-6" d="m216.18,147.41s-3.44-.17-4.81-4.13"/>
        </g>
      </g>
      <g>
        <path class="cls-9" d="m161.41,174.35s-8.75,14.82-7.7,26.38c1.05,11.57,40.94,52.47,42.22,51.2,1.28-1.28,63.92-45.26,63.92-45.26,0,0,5.08-2.28,5.51-4.15.44-1.87,0-2.64,0-3.74s.66-2.42.44-3.85c-.22-1.43-1.1-1.76-1.87-2.64-.77-.88-.44-1.32-.55-2.97-.11-1.65-1.21-1.65-2.75-2.53-1.54-.88-2.42-1.43-3.08-1.76-.66-.33.44-.44-1.54-.11-1.98.33-4.51.77-6.93.22-2.42-.55-3.08,1.98-3.3,3.3-.22,1.32-.33,2.31-.22,3.08.11.77.22,8.58-.22,9.35-.44.77-6.82,7.15-18.26,11.77-11.44,4.62-25.95,11-25.95,11,0,0-6.49-10.89-8.47-15.4-1.98-4.51-12.54-20.19-12.87-20.41"/>
        <path class="cls-8" d="m265.36,202.52c.44-1.87,0-2.64,0-3.74s.66-2.42.44-3.85c-.22-1.43-1.1-1.76-1.87-2.64-.77-.88-.44-1.32-.55-2.97-.11-1.65-1.21-1.65-2.75-2.53-1.54-.88-2.42-1.43-3.08-1.76-.66-.33.44-.44-1.54-.11-1.98.33-4.51.77-6.93.22-2.42-.55-3.08,1.98-3.3,3.3-.22,1.32-.33,2.31-.22,3.08.11.77.22,8.58-.22,9.35-.44.77-6.82,7.15-18.26,11.77-11.44,4.62-25.95,11-25.95,11,0,0-1.63-2.74-3.51-6.04-.98.47-2.04.97-3.2,1.53-9.82,4.72-13.94,14.28-15,17.18,8.5,9.15,15.95,16.16,16.49,15.62,1.28-1.28,63.92-45.26,63.92-45.26,0,0,5.08-2.28,5.51-4.15Z"/>
      </g>
    </g>
    <g>
      <path class="cls-8" d="m254.33,182.91s-2.56.19-2.84,1.14c-.29.95.2,5.03.9,5.28.69.25,2.92.12,3.25-.87.33-.99.21-2.92.15-3.99-.06-1.06-.96-1.49-1.45-1.56Z"/>
      <g>
        <path class="cls-8" d="m248.95,188.66s-4.8-.78-5.73-.05c-.93.73-.74,2.18-.82,2.48-.08.3-2.32,1.69-2.47,2.48-.15.79.22,2.12.05,2.42-.18.3-1.27,1.43-1.3,2.6-.03,1.17.67,3.16.67,3.16,0,0-.19,1.66-.16,2.24.03.58.67,1.51,1.26,1.57s4.08.14,4.63-.47l.55-.61s2.41-.34,2.93-1.24c.53-.9.55-.52.53-.9-.02-.39,1.4-.86,1.74-1.66.34-.8.28-1.76.28-1.76,0,0,2.05-1.38,1.99-2.35-.06-.97-2.2-5.98-4.16-7.9Z"/>
        <path class="cls-6" d="m243.2,191.53s1.89-.89,2.72.13c.84,1.02,5.19,7.26,5.19,7.26"/>
        <path class="cls-6" d="m241.1,195.44s.57-.23,1.59.68c1.02.91,6.15,5.55,6.15,5.55"/>
        <line class="cls-6" x1="240.06" y1="200.64" x2="245.62" y2="204.48"/>
      </g>
    </g>
    <g>
      <line class="cls-6" x1="225.8" y1="182.12" x2="230.82" y2="186.58"/>
      <line class="cls-6" x1="250.33" y1="165.4" x2="250.33" y2="171.25"/>
      <line class="cls-6" x1="277.92" y1="177.1" x2="271.79" y2="182.96"/>
      <line class="cls-6" x1="238.62" y1="175.71" x2="241.13" y2="179.33"/>
      <line class="cls-6" x1="263.43" y1="174.59" x2="261.76" y2="177.66"/>
    </g>
  </g>
</svg>