<?xml version="1.0" encoding="UTF-8"?>
<svg id="Capa_1" xmlns="http://www.w3.org/2000/svg" viewBox="0 0 1244.68 880.59">
  <defs>
    <style>
      .cls-1 {
        fill: #24ffe1;
      }

      .cls-1, .cls-2, .cls-3, .cls-4, .cls-5, .cls-6 {
        stroke-width: 2.26px;
      }

      .cls-1, .cls-2, .cls-6 {
        stroke-miterlimit: 10;
      }

      .cls-1, .cls-6 {
        stroke: #000;
      }

      .cls-2, .cls-3, .cls-4, .cls-5 {
        stroke: #1a2e35;
      }

      .cls-2, .cls-5 {
        fill: #fff;
      }

      .cls-7, .cls-3 {
        fill: #1a2e35;
      }

      .cls-3, .cls-4, .cls-5 {
        stroke-linecap: round;
        stroke-linejoin: round;
      }

      .cls-4, .cls-6 {
        fill: none;
      }

      .cls-8 {
        fill: #f1f1f1;
      }

      .cls-6 {
        isolation: isolate;
        opacity: .3;
      }

      .cls-9 {
        fill: #5ae4a7;
      }
    </style>
  </defs>
  <g>
    <g>
      <path class="cls-9" d="M1052,127.59c-17.2-16.63-36.93-31.42-59.66-44.76C921.9,41.49,843.2,12.61,761.88,3.17c-7.85-.91-15.72-1.65-23.6-2.18-183.09-12.55-306.54,96.13-382.83,200.62-76.29,104.49-185.87,40.41-298.21,192.27-112.35,151.86-51.32,306.52,113.74,385.93,165.06,79.41,377.29,30.65,513.21-2.78,135.94-33.43,269.09,82.2,398.1-82.2,96.83-123.41,96.75-309.15,43.5-450.61-17.75-47.17-41.25-85.18-73.77-116.63h0Z"/>
      <path class="cls-8" d="M1052,127.59c-17.2-16.63-36.93-31.42-59.66-44.76C921.9,41.49,843.2,12.61,761.88,3.17c-7.85-.91-15.72-1.65-23.6-2.18-183.09-12.55-306.54,96.13-382.83,200.62-76.29,104.49-185.87,40.41-298.21,192.27-112.35,151.86-51.32,306.52,113.74,385.93,165.06,79.41,377.29,30.65,513.21-2.78,135.94-33.43,269.09,82.2,398.1-82.2,96.83-123.41,96.75-309.15,43.5-450.61-17.75-47.17-41.25-85.18-73.77-116.63h0Z"/>
    </g>
    <path class="cls-6" d="M1105.91,201.16s-16.12-78.82-69.88-73.45c-24.45,2.45-40.78,14.69-54.95,33.71-18.18,24.42-24.69,10.22-50.73,18.24-23.28,7.16-19.71,26.87-34.03,30.46-14.33,3.59-25.08-12.55-44.79-8.96-19.71,3.59-30.46,23.28-30.46,23.28h358.29s-1.79-21.5-25.08-28.67c-23.28-7.16-34.03,10.75-48.37,5.37h0Z"/>
    <path class="cls-6" d="M259.47,195.94s-10.18-49.75-44.1-46.35c-15.42,1.54-25.75,9.28-34.68,21.28-11.47,15.41-15.58,6.45-32.01,11.5-14.7,4.53-12.44,16.96-21.48,19.23-9.05,2.26-15.83-7.91-28.26-5.65-12.44,2.26-19.23,14.7-19.23,14.7h226.13s-1.12-13.56-15.83-18.09c-14.7-4.53-21.48,6.79-30.53,3.39h-.01Z"/>
    <path class="cls-6" d="M832.25,701.96s-8.94-43.69-38.73-40.72c-13.55,1.35-22.61,8.14-30.46,18.69-10.08,13.54-13.68,5.66-28.12,10.11-12.91,3.98-10.93,14.89-18.87,16.88-7.94,1.98-13.9-6.95-24.82-4.97-10.93,1.98-16.88,12.91-16.88,12.91h198.6s-.99-11.92-13.9-15.89-18.87,5.96-26.82,2.97h0Z"/>
    <path class="cls-6" d="M358.04,625.16s-8.94-43.69-38.73-40.72c-13.55,1.35-22.61,8.14-30.46,18.69-10.08,13.54-13.68,5.66-28.12,10.11-12.91,3.98-10.93,14.9-18.87,16.88-7.94,1.98-13.9-6.95-24.82-4.97s-16.88,12.91-16.88,12.91h198.6s-.99-11.92-13.9-15.89c-12.91-3.98-18.87,5.96-26.82,2.99h0Z"/>
    <g>
      <g>
        <polygon class="cls-3" points="1021.69 258.73 1060.84 287.73 786.78 454.49 737.47 547.29 422.8 663.31 95.18 879.46 287.82 879.46 493.85 724.21 807.08 609.66 862.17 508.14 1126.1 326.88 1181.19 368.94 1243.55 216.68 1243.55 199.19 1021.69 258.73"/>
        <polygon class="cls-5" points="1021.69 241.24 1060.84 270.25 786.78 437.01 737.47 529.8 422.8 645.81 75.78 879.46 268.32 879.46 493.85 706.71 807.08 592.16 862.17 490.66 1126.1 309.39 1181.19 351.45 1243.55 199.19 1021.69 241.24"/>
        <line class="cls-4" x1="787.61" y1="573.73" x2="794.02" y2="579.1"/>
        <line class="cls-4" x1="749.08" y1="541.41" x2="779.64" y2="567.04"/>
        <line class="cls-4" x1="798.37" y1="441.36" x2="818.67" y2="455.86"/>
        <line class="cls-4" x1="483.7" y1="700.92" x2="425.45" y2="659.99"/>
      </g>
      <polygon class="cls-5" points="1021.69 258.73 1021.69 241.24 1060.84 270.25 1047.95 278.23 1021.69 258.73"/>
      <polygon class="cls-2" points="1181.19 368.94 1181.19 351.45 1126.1 309.39 1126.1 326.88 1181.19 368.94"/>
    </g>
    <g>
      <g>
        <path class="cls-5" d="M517.32,343.87l-11.37,21.48s2.74,3.64,3.82,3.05,6.67-10.31,6.67-10.31l-4.49,16.63s1.79,2.88,2.92,1.61c1.12-1.26,5.21-13.16,6.25-13.42,1.04-.25,3.44-4.47,3.44-4.47l-4.23,13.59s-1.57,6.33,1.19,5.89c2.76-.44,2.95-6.55,2.95-6.55l5.88-9.02-2.2,9.68s3.86,2.7,4.39.37,2.68-11.34,2.68-11.34c0,0,9.48-11.43,10.62-12.69,1.12-1.26,6.73-15.08,6.73-15.08l-8.5-11.96-26.76,22.55h.01Z"/>
        <path class="cls-5" d="M542.51,323.91l-22.61,5.89s-6.88,16.76-8.82,19.66c-1.95,2.89.39,3.44,3.91,2.04,3.52-1.41,9.65-9.39,9.65-9.39,0,0,10.75,1.61,14.31-4.22"/>
        <line class="cls-4" x1="522.09" y1="351.76" x2="531.81" y2="357.35"/>
      </g>
      <path class="cls-5" d="M681.35,138.18l47.05,120.07,4.16,13s-45.3,18.92-54.69,20.43c-9.4,1.51-12.99,2.76-12.99,2.76l-47.41-118.84,16.08-25.6,38.49-16.09,9.29,4.27h.01Z"/>
      <line class="cls-4" x1="681.62" y1="201.22" x2="703.77" y2="270.91"/>
      <path class="cls-3" d="M669.25,536.7s-1.49,13.35-2.95,18.62c-1.46,5.26-6.07,19.71-5.38,23.47s4.36,19.92,6.61,21.13c2.26,1.21,5.6,1.49,7.42-.04,1.82-1.53,11.11-19.61,12-25.93.88-6.33.28-26.94.43-28.61s-18.14-8.64-18.14-8.64h.01Z"/>
      <path class="cls-3" d="M867.76,418.88s15.24,7.03,17.25,7.2,19.37,1.99,19.37,1.99c0,0,14.39-2.81,16.66-1.61s1.46,6.53,1.46,6.53c0,0-28.96,15.38-33.08,16.37-4.12.99-9.04-.78-11.8,0l-2.76.78,2.33,4.24-17.31,9.31s-7.67-8.74-7.91-13.82-.5-13.86-.5-13.86l-2.49-10.32,18.78-6.82h0Z"/>
      <path class="cls-1" d="M677.38,135.38s32.45,82.61,38.51,95.33,11.58,28.08,16.29,32.05c4.71,3.98-12.17-42.11-13.76-51.17-1.61-9.06-1.34-26-1.34-26l142.26-48.82-5.33-17.71-118.76,14.23s-24.18-2.66-29.24-2.5c-5.07.16-28.63,4.62-28.63,4.62v-.03Z"/>
      <path class="cls-1" d="M688.18,133.41c-5.85,1.03-10.8,1.97-10.8,1.97,0,0,22.67,57.68,33.65,84.06-.82-11.72-2.66-29.87-6.68-45.07-4.66-17.66-12.24-33.42-16.16-40.96Z"/>
      <polyline class="cls-4" points="721.41 148.74 717.08 185.57 728.4 150.53"/>
      <polygon class="cls-5" points="854.01 119.03 862.75 117.7 866.19 133.17 859.33 136.74 854.01 119.03"/>
      <g>
        <path class="cls-5" d="M894.08,113.25s7.34,1.22,7.18,3c-.15,1.77-2.76,11.37-2.76,11.37,0,0-6.09,1.57-10.71-.03-4.62-1.58-6.12-4.99-4.95-8.17,1.16-3.17,11.25-6.19,11.25-6.19h0Z"/>
        <polyline class="cls-4" points="888.74 116.65 894.79 118.95 894.15 126.34"/>
        <path class="cls-4" d="M886.51,118.24l3.59,3.28s.44,1.82.07,2.68"/>
      </g>
      <path class="cls-5" d="M862.75,117.7l22.76-5.19s21.92-9.13,22.69-7.87c.79,1.26.95,2.76-.33,3.84-1.29,1.08-17.26,6.86-19.15,8.18-1.9,1.33-3.07,4.5-1.71,6.11,1.35,1.61,3.83,3.9,7.14,3.59,3.31-.31,11.43-1.41,11.62-.2.2,1.21.95,2.76-1.81,3.71s-7.19.58-9.31.99-10.67,2.96-13.92,2.68c-3.25-.28-8.73-2.24-8.73-2.24l-5.81,1.89-3.44-15.48h0Z"/>
      <g>
        <path class="cls-1" d="M725.68,258.52s23.79,46.26,25.67,46.3c1.87.04,23.4-16.2,23.98-16.95.58-.74-28.71-17.47-36.97-26.1-8.26-8.61-15.57-18.14-15.57-18.14l2.88,14.88h.01Z"/>
        <path class="cls-1" d="M732.55,271.26l11.43,19.92s59.72-6.87,79.93-8.22c20.22-1.37,27.37.8,27.37.8l20.12,135.06-32.13,14.25-29.99-101.11s-66.88,18.24-76.63,19.33c-9.76,1.1-14.53,2.62-14.53,2.62,0,0-18.42,124.8-19.83,141.29-1.42,16.5-1.29,46.65-1.29,46.65l-9.27,8.86s-19.96-10.6-20.98-12.24-11.09-154.76-11.09-154.76l-3.76-59.84,12.96-29.42,67.68-23.19h-.01Z"/>
        <polygon class="cls-3" points="672.25 298.54 735.38 276.82 732.55 271.26 671.37 292.06 672.25 298.54"/>
        <polygon class="cls-5" points="698.77 282.63 701.73 289.7 715.87 284.69 713.22 277.9 698.77 282.63"/>
        <line class="cls-4" x1="685.4" y1="413.39" x2="685.26" y2="405.72"/>
        <line class="cls-4" x1="687.75" y1="550.71" x2="685.53" y2="421.47"/>
        <path class="cls-4" d="M718.13,353.89s3.68-25.72,11.33-40.93"/>
        <path class="cls-4" d="M733.21,301.04s-11.07,18.09-12.76,22.02"/>
        <line class="cls-4" x1="829.56" y1="325.56" x2="835.05" y2="323.81"/>
        <line class="cls-4" x1="809.3" y1="331.94" x2="823.88" y2="327.35"/>
      </g>
      <polygon class="cls-5" points="670.11 172.08 656.32 202.35 639.51 147.52 677.38 135.38 699.05 176.39 670.11 172.08"/>
      <polygon class="cls-4" points="548.23 316.09 540.77 323.9 552.64 337.24 556.47 331.21 548.23 316.09"/>
      <path class="cls-1" d="M633.55,150.01l-44.91,35.31-4.53,92.57-38.16,39.98,11.14,16.96,55.15-43.63,7.48-52.73,10.46,30.09-12.09,73.53s12.84,5.18,25.51,8.31c12.67,3.13,28.85,1.11,28.85,1.11l2.8-88.3-35.45-114.73-6.25,1.51h0Z"/>
      <polyline class="cls-1" points="635.34 282.74 667.75 285.84 667.75 298.31 634.71 293.33"/>
      <path class="cls-1" d="M639.51,147.52l-5.96,2.49-8.22,6.47c2.02,7.63,6.79,23.94,14.67,41.43,6.88,15.22,19.94,32.88,28.61,43.81l-29.11-94.19Z"/>
      <g>
        <path class="cls-5" d="M641.88,147.16s27.01,25.96,28.22,24.93c1.22-1.03,6.28-33.5,7.12-34.57.84-1.06-3.75-18.1-3.75-18.1,0,0,3.68-7.63,2.66-13.39-1.02-5.76-2.87-6.29-2.87-6.29,0,0-3.96-2.24-5.29-.08s-5.32,9-5.32,9l-5.8-7.31"/>
        <path class="cls-3" d="M642.34,147.52s14.29-2.7,15.96-4.12c1.67-1.41,3.36-6.56,3.36-6.56,0,0-3.09,17.59-3.19,19.01l-.71,6.2-10.93-10.19-4.5-4.35h0Z"/>
        <path class="cls-4" d="M673.48,119.42s-2.12,5.81-5.57,6.13"/>
      </g>
    </g>
    <g>
      <path class="cls-5" d="M466.31,382.31l4.27-11.07,8.77-8.27s3.05-5.54,4.89-4.42c1.83,1.12.76,2.32-.07,4.51-.83,2.18-5.06,6.33-5.06,6.33,0,0,17.1-11.43,18.09-11.68s3.74,1.61,2.29,3.41c-1.45,1.81-13.07,9.52-13.07,9.52l18.77-8.38s1.51,4.97-.52,6.08c-2.04,1.11-12.64,8.26-12.64,8.26,0,0,8.25-2.2,10.6-3.28s3.33,2.54,1.62,3.68c-1.71,1.14-12.26,7.66-12.26,7.66,0,0,10.2-2.36,9.76-1.1-.43,1.26-.19,2.24-3.16,2.96-2.96.71-14.71,6.16-14.71,6.16l-16.2,4.74-1.38-15.13h.01Z"/>
      <polygon class="cls-5" points="460.38 386.21 466.31 382.31 473.4 397.71 464.95 402.98 460.38 386.21"/>
      <g>
        <path class="cls-5" d="M238.23,527.37s1.67,20.22,1.5,22.24c-.17,2.02,8.56,11.27,10.8,12.83,2.25,1.55,10.27-.82,10.27-.82,0,0,8.84-11.84,8.11-15.29-.72-3.47-2.97-5.02-2.97-5.02l-10.9-10.23-3.51-4.27-13.31.56h0Z"/>
        <path class="cls-4" d="M253.6,550.46l-4.51,5.06s2.1,3.24,4.19,2.74l2.09-.5h0"/>
        <path class="cls-5" d="M251.54,526.82s11.38,10.16,13.68,11.03c2.3.88,3.4,4.03,2.97,5.02s-9.25,8.73-11.42,10.24-4.11.33-3.17-2.65,3.03-7.56,3.03-7.56c0,0-4.45.29-5.5-3.2"/>
      </g>
      <path class="cls-5" d="M237.32,518.12l.91,9.27s4.83,3.13,8.27,2.74,7.75-3.08,7.75-3.08l2.78-6.39-19.71-2.54h-.01Z"/>
      <path class="cls-3" d="M429.01,657.21s-6.41,23-6.48,27.78c-.07,4.78,1.43,15.14,1.43,15.14,0,0,1.89,1.87,6.72,1.26,4.83-.62,8.7-1.98,9.81-2.92,1.1-.92.98-7.43.98-7.43,0,0,4.71.75,8.07,1.38,3.36.63,14.33-3.9,18.6-5.92s12.25-7.48,13.31-11.84-1.85-6.31-3.2-6.41c-1.35-.12-18.08-.19-21.78-.84-3.7-.66-9.99-7-10.23-8.05-.25-1.04-17.23-2.16-17.23-2.16h0Z"/>
      <path class="cls-3" d="M338.89,748.85l.79,10.66s7.69,9.88,9.97,11.1c2.29,1.22,7.4,1.31,7.82,4.42s1.31,4.55-1.16,5.7c-2.49,1.15-12.36,4.74-16.11,4.77-3.76.01-10.67-2.96-10.67-2.96l-1.03,4s-2.49,1.15-6.92,1.11c-4.43-.04-8.07-1.38-8.07-1.38,0,0-1.65-8.68-.9-13.39s3.86-17.08,3.86-17.08l2.65-11.03,19.79,4.08h-.01Z"/>
      <path class="cls-1" d="M298.76,531.53l8.65,18.09,24.14,87.46-14.5,109.66s5.42,4.2,9.81,4.58,15.34-.39,15.34-.39l25.57-115.86,4.28-85.7,66.78,2.66-13.4,107.94s8.33,2.08,11.37,2.33,14.07-1.51,14.07-1.51c0,0,31.34-134.64,32.28-137.63s.68-4.03-.19-5.8c-.87-1.78-77.52-20.24-77.52-20.24,0,0-89.81,35.86-106.7,34.4h0Z"/>
      <polygon class="cls-3" points="372.07 549.38 333.77 546.85 370.37 573.79 372.07 549.38"/>
      <path class="cls-1" d="M298.88,353.98s-22.75,13.64-24.35,18.3c-1.59,4.66-32.92,81.11-33.2,84.28-.27,3.17-5.97,65.03-5.97,65.03,0,0,5.02,2.04,9.79,2.44,4.77.4,11.88-3.37,11.88-3.37l13.94-64.75,25.01-30.63,7.28,27.01-17.46,82.44s29.24,8.5,59.96-.05c30.71-8.56,65.61-37.94,65.61-37.94,0,0-17.91-33.51-22.92-40.33-5.01-6.83-9.2-13.98-9.2-13.98l.43-14.35s26.36,28.24,29.24,27.29,59.25-52.47,59.25-52.47l-7.77-16.66-51.32,25.18s-25.76-58.56-31.18-60.63c-5.42-2.06-17.29-3.48-17.29-3.48,0,0-36.82-8.74-61.72,6.71v-.03Z"/>
      <g>
        <g>
          <path class="cls-5" d="M336.28,253.28s2.87,3.05,5.82,8.62c2.96,5.56,3.7,11.55,8.18,13.82,4.49,2.26,10.76,1.86,10.58,4.03s-3.71,6.87-3.71,6.87c0,0,5.19,19.49,3.98,22.83s-16.54,10.76-16.54,10.76l.07,17.49-22.64,1.81s-6.68-16.8-9.33-29.52,9.84-20.08,9.56-35.09c-.28-15.01,2.3-23.22,5.48-23.89s8.54,2.29,8.54,2.29h.01Z"/>
          <path class="cls-7" d="M346.01,276.14c.76,1.91.67,3.75-.21,4.1s-2.21-.92-2.97-2.84-.67-3.75.21-4.1,2.21.92,2.97,2.84Z"/>
          <path class="cls-4" d="M339.71,271.69s-.29-3.78,3.36-2.84"/>
          <path class="cls-4" d="M358.97,294.57s-2.1,2.62-6.05,1.35"/>
        </g>
        <path class="cls-3" d="M333.17,260.51s4.98,11.05,2.46,18.64-6.8,13.78-6.8,13.78c0,0-5.01,7.38-4.16,12.13s5.86,22.67,7.34,23.74l1.47,1.06,3.15,3.39s-16.48,10.14-34.46,12.34c-17.98,2.21-29.79-2.24-32.16-3.7-2.37-1.45-4.41-3.19-4.41-3.19,0,0,9.16-15.76,9.32-32.29.17-16.54-4.9-26.64.09-41.21,4.99-14.55,42.16-22,42.16-22,0,0,1.71-5.48,8.85-4.86,7.12.62,14.27,15.58,14.27,15.58l-7.12,6.57h0Z"/>
        <path class="cls-5" d="M331.16,298.43s-5.56-7.97-8.6-1.67c-3.04,6.29,6.71,16.5,11.65,13.48"/>
      </g>
      <path class="cls-5" d="M323.63,335.72s18.13-1.65,21.3-1.38,10.74,5.32,10.74,5.32l-.51,5.96s-17.58-4.7-27.34-2.74c-9.76,1.97-23.73,6.36-23.73,6.36l2.8-9.36s9.53-3.98,16.75-4.16h-.01Z"/>
      <path class="cls-1" d="M298.88,353.98l3.27-8.38s23.9-5.84,33.22-6.87c9.31-1.04,19.41,2.06,23.6,4.42,4.19,2.36,5.48,6.07,5.48,6.07,0,0-18.81-4.41-35.37-2.24-16.58,2.18-30.18,7-30.18,7h-.01Z"/>
      <path class="cls-4" d="M379.66,428.05l-23.95-23.63s-5.37-7.26-2.33-19.39"/>
      <line class="cls-4" x1="295.96" y1="425.28" x2="281.87" y2="389.3"/>
    </g>
  </g>
  <g>
    <g>
      <path class="cls-3" d="M643.07,59.43s6.53-4.58,15.38-3c8.85,1.58,15.8,8.26,15.8,8.26,0,0,5.92,1.04,9.37,10.18s-1.03,24.58-1.03,24.58l-3.01,14.09s11.13,5.34,11.65,12.61-2.84,8.48-2.84,8.48c0,0,7.31,1.86,8.29,7.26s-5.4,7.55-5.4,7.55c0,0-9.89,3.59-16.9-3.11-6.99-6.69-7.63-26.68-7.63-26.68l-20.53-38.48-23.89,14.3-2.52,1.46s-14.66-.66-14.88-8.39c0-.48,0-.95.01-1.42.27-5.29,3.13-10.08,7.36-13.26,3.25-2.44,6.12-7.38,8.68-9.95,3.87-3.9,15.09-2.4,15.09-2.4l6.99-2.06h-.01Z"/>
      <polygon class="cls-3" points="659.14 141.04 650.44 154.44 643.07 143.87 659.14 141.04"/>
      <path class="cls-5" d="M621.22,88.3s-1.57,3.47-1.03,10.74c.52,7.27.17,16.29,2.85,23.38,2.68,7.08,2.74,11.85,11.98,19.92s16.01,2.66,18.8,1.57c2.78-1.1,11.45-8.25,15.41-12.76,3.96-4.5,4.59-11.98,4.59-11.98l.79-3.33,3.56,3.13s3.8-2.09,5.01-5.29c1.21-3.2,3.41-15.16-1.49-18.05s-5.96,6.65-5.96,6.65l-2.5.46s-7.86-18.09-17.26-25.93c-9.39-7.85-20.66-5.21-26.2-.62s-8.56,12.1-8.56,12.1h0Z"/>
      <path class="cls-4" d="M634.45,118.35s-.42,2.06,2.29,2.77c2.72.7,6.31-.35,6.31-.35"/>
      <path class="cls-4" d="M651.98,127.12s-9.24,5.06-15.65,2.64"/>
    </g>
    <path class="cls-7" d="M631.43,107.93c0,2.14-.96,3.88-2.14,3.88s-2.14-1.74-2.14-3.88.96-3.88,2.14-3.88,2.14,1.74,2.14,3.88Z"/>
    <path class="cls-7" d="M650.44,108.6c0,2.14-.96,3.88-2.14,3.88s-2.14-1.74-2.14-3.88.96-3.88,2.14-3.88,2.14,1.74,2.14,3.88Z"/>
    <path class="cls-4" d="M624.21,100.03s3.75-4.28,9.64-1.07"/>
    <path class="cls-4" d="M642.67,99.24s6.69-4.02,11.51,1.07"/>
    <path class="cls-3" d="M639.73,72.46s13.92,1.87,16.05,8.84c2.14,6.96.8,13.66,9.91,16.59,9.1,2.95,9.64-1.87,9.64-1.87,0,0-3.21-17.66-16.32-23.28-13.12-5.62-17.12-2.41-19.27-.27h-.01Z"/>
  </g>
</svg>